<?xml version="1.0" encoding="UTF-8"?>
<svg xmlns="http://www.w3.org/2000/svg" xmlns:xlink="http://www.w3.org/1999/xlink"
     width="4096" height="4096" viewBox="0 0 4096 4096">
<defs>
</defs>
<rect x="0" y="3096" width="1400" height="1000" stroke="black" fill="red" fill-opacity="0.1" id="0">
<title>sprite_85</title>
</rect>
<rect x="1400" y="3144" width="1400" height="952" stroke="black" fill="red" fill-opacity="0.1" id="1">
<title>sprite_86</title>
</rect>
<rect x="0" y="2144" width="1400" height="952" stroke="black" fill="red" fill-opacity="0.1" id="2">
<title>sprite_87</title>
</rect>
<rect x="1400" y="2144" width="1400" height="952" stroke="black" fill="red" fill-opacity="0.1" id="3">
<title>sprite_88</title>
</rect>
<rect x="0" y="1192" width="1400" height="952" stroke="black" fill="red" fill-opacity="0.1" id="4">
<title>sprite_89</title>
</rect>
<rect x="1400" y="1640" width="504" height="504" stroke="black" fill="red" fill-opacity="0.1" id="5">
<title>sprite_90</title>
</rect>
<rect x="1904" y="1640" width="504" height="504" stroke="black" fill="red" fill-opacity="0.1" id="6">
<title>sprite_91</title>
</rect>
<rect x="2408" y="1640" width="504" height="504" stroke="black" fill="red" fill-opacity="0.1" id="7">
<title>sprite_92</title>
</rect>
<rect x="2912" y="1640" width="504" height="504" stroke="black" fill="red" fill-opacity="0.1" id="8">
<title>sprite_93</title>
</rect>
<rect x="3416" y="1640" width="504" height="504" stroke="black" fill="red" fill-opacity="0.1" id="9">
<title>sprite_94</title>
</rect>
<rect x="2800" y="2592" width="504" height="504" stroke="black" fill="red" fill-opacity="0.1" id="10">
<title>sprite_95</title>
</rect>
<rect x="3304" y="2656" width="584" height="440" stroke="black" fill="red" fill-opacity="0.1" id="11">
<title>sprite_96</title>
</rect>
<rect x="2800" y="3656" width="584" height="440" stroke="black" fill="red" fill-opacity="0.1" id="12">
<title>sprite_97</title>
</rect>
<rect x="3384" y="3656" width="504" height="440" stroke="black" fill="red" fill-opacity="0.1" id="13">
<title>sprite_98</title>
</rect>
<rect x="0" y="768" width="520" height="424" stroke="black" fill="red" fill-opacity="0.1" id="14">
<title>sprite_99</title>
</rect>
<rect x="520" y="768" width="232" height="424" stroke="black" fill="red" fill-opacity="0.1" id="15">
<title>sprite_100</title>
</rect>
<rect x="752" y="768" width="232" height="424" stroke="black" fill="red" fill-opacity="0.1" id="16">
<title>sprite_101</title>
</rect>
<rect x="984" y="768" width="216" height="424" stroke="black" fill="red" fill-opacity="0.1" id="17">
<title>sprite_102</title>
</rect>
<rect x="1200" y="768" width="216" height="424" stroke="black" fill="red" fill-opacity="0.1" id="18">
<title>sprite_103</title>
</rect>
<rect x="1416" y="800" width="392" height="392" stroke="black" fill="red" fill-opacity="0.1" id="19">
<title>sprite_104</title>
</rect>
<rect x="1808" y="800" width="392" height="392" stroke="black" fill="red" fill-opacity="0.1" id="20">
<title>sprite_105</title>
</rect>
<rect x="2200" y="936" width="1024" height="256" stroke="black" fill="red" fill-opacity="0.1" id="21">
<title>sprite_106</title>
</rect>
<rect x="0" y="512" width="1024" height="256" stroke="black" fill="red" fill-opacity="0.1" id="22">
<title>sprite_107</title>
</rect>
<rect x="1024" y="520" width="248" height="248" stroke="black" fill="red" fill-opacity="0.1" id="23">
<title>sprite_108</title>
</rect>
<rect x="1272" y="584" width="1848" height="184" stroke="black" fill="red" fill-opacity="0.1" id="24">
<title>sprite_109</title>
</rect>
<rect x="0" y="344" width="1448" height="168" stroke="black" fill="red" fill-opacity="0.1" id="25">
<title>sprite_110</title>
</rect>
<rect x="1448" y="344" width="1448" height="168" stroke="black" fill="red" fill-opacity="0.1" id="26">
<title>sprite_111</title>
</rect>
<rect x="0" y="176" width="1448" height="168" stroke="black" fill="red" fill-opacity="0.1" id="27">
<title>sprite_112</title>
</rect>
<rect x="1448" y="176" width="1448" height="168" stroke="black" fill="red" fill-opacity="0.1" id="28">
<title>sprite_113</title>
</rect>
<rect x="0" y="8" width="1448" height="168" stroke="black" fill="red" fill-opacity="0.1" id="29">
<title>sprite_114</title>
</rect>
<rect x="1448" y="8" width="1448" height="168" stroke="black" fill="red" fill-opacity="0.1" id="30">
<title>sprite_115</title>
</rect>
<rect x="2896" y="8" width="1048" height="168" stroke="black" fill="red" fill-opacity="0.1" id="31">
<title>sprite_116</title>
</rect>
<rect x="1400" y="1504" width="2216" height="136" stroke="black" fill="red" fill-opacity="0.1" id="32">
<title>sprite_117</title>
</rect>
<rect x="2896" y="224" width="808" height="120" stroke="black" fill="red" fill-opacity="0.1" id="33">
<title>sprite_118</title>
</rect>
<rect x="2896" y="392" width="808" height="120" stroke="black" fill="red" fill-opacity="0.1" id="34">
<title>sprite_119</title>
</rect>
<rect x="3704" y="224" width="392" height="120" stroke="black" fill="red" fill-opacity="0.1" id="35">
<title>sprite_120</title>
</rect>
<rect x="2200" y="832" width="1160" height="104" stroke="black" fill="red" fill-opacity="0.1" id="36">
<title>sprite_121</title>
</rect>
<rect x="3120" y="664" width="936" height="104" stroke="black" fill="red" fill-opacity="0.1" id="37">
<title>sprite_122</title>
</rect>
<rect x="3704" y="424" width="328" height="88" stroke="black" fill="red" fill-opacity="0.1" id="38">
<title>sprite_123</title>
</rect>
<rect x="3224" y="1104" width="248" height="88" stroke="black" fill="red" fill-opacity="0.1" id="39">
<title>sprite_124</title>
</rect>
<rect x="3944" y="88" width="72" height="88" stroke="black" fill="red" fill-opacity="0.1" id="40">
<title>sprite_125</title>
</rect>
<rect x="4016" y="88" width="72" height="88" stroke="black" fill="red" fill-opacity="0.1" id="41">
<title>sprite_126</title>
</rect>
<rect x="3472" y="1104" width="72" height="88" stroke="black" fill="red" fill-opacity="0.1" id="42">
<title>sprite_127</title>
</rect>
<rect x="3544" y="1104" width="72" height="88" stroke="black" fill="red" fill-opacity="0.1" id="43">
<title>sprite_128</title>
</rect>
<rect x="3360" y="864" width="552" height="72" stroke="black" fill="red" fill-opacity="0.1" id="44">
<title>sprite_129</title>
</rect>
<rect x="3616" y="1120" width="248" height="72" stroke="black" fill="red" fill-opacity="0.1" id="45">
<title>sprite_130</title>
</rect>
<rect x="3616" y="1568" width="248" height="72" stroke="black" fill="red" fill-opacity="0.1" id="46">
<title>sprite_131</title>
</rect>
<rect x="1272" y="528" width="520" height="56" stroke="black" fill="red" fill-opacity="0.1" id="47">
<title>sprite_132</title>
</rect>
</svg>