<?xml version="1.0" encoding="UTF-8"?>
<svg xmlns="http://www.w3.org/2000/svg" xmlns:xlink="http://www.w3.org/1999/xlink"
     width="2048" height="2048" viewBox="0 0 2048 2048">
<defs>
</defs>
<rect x="216" y="1624" width="232" height="424" stroke="black" fill="red" fill-opacity="0.1" id="0">
<title>sprite_262</title>
</rect>
<rect x="0" y="1624" width="216" height="424" stroke="black" fill="red" fill-opacity="0.1" id="1">
<title>sprite_263</title>
</rect>
<rect x="432" y="1624" width="216" height="424" stroke="black" fill="red" fill-opacity="0.1" id="2">
<title>sprite_264</title>
</rect>
<rect x="648" y="1624" width="216" height="424" stroke="black" fill="red" fill-opacity="0.1" id="3">
<title>sprite_265</title>
</rect>
<rect x="864" y="1800" width="248" height="248" stroke="black" fill="red" fill-opacity="0.1" id="4">
<title>sprite_266</title>
</rect>
<rect x="1112" y="1800" width="248" height="248" stroke="black" fill="red" fill-opacity="0.1" id="5">
<title>sprite_267</title>
</rect>
<rect x="1360" y="1800" width="248" height="248" stroke="black" fill="red" fill-opacity="0.1" id="6">
<title>sprite_268</title>
</rect>
<rect x="1608" y="1808" width="240" height="240" stroke="black" fill="red" fill-opacity="0.1" id="7">
<title>sprite_269</title>
</rect>
<rect x="0" y="1384" width="240" height="240" stroke="black" fill="red" fill-opacity="0.1" id="8">
<title>sprite_270</title>
</rect>
<rect x="776" y="1392" width="536" height="232" stroke="black" fill="red" fill-opacity="0.1" id="9">
<title>sprite_271</title>
</rect>
<rect x="240" y="1392" width="536" height="232" stroke="black" fill="red" fill-opacity="0.1" id="10">
<title>sprite_272</title>
</rect>
<rect x="1312" y="1392" width="360" height="232" stroke="black" fill="red" fill-opacity="0.1" id="11">
<title>sprite_273</title>
</rect>
<rect x="0" y="1184" width="360" height="200" stroke="black" fill="red" fill-opacity="0.1" id="12">
<title>sprite_274</title>
</rect>
<rect x="360" y="1184" width="360" height="200" stroke="black" fill="red" fill-opacity="0.1" id="13">
<title>sprite_275</title>
</rect>
<rect x="1672" y="1424" width="360" height="200" stroke="black" fill="red" fill-opacity="0.1" id="14">
<title>sprite_276</title>
</rect>
<rect x="1440" y="1016" width="360" height="168" stroke="black" fill="red" fill-opacity="0.1" id="15">
<title>sprite_277</title>
</rect>
<rect x="0" y="1016" width="360" height="168" stroke="black" fill="red" fill-opacity="0.1" id="16">
<title>sprite_278</title>
</rect>
<rect x="360" y="1016" width="360" height="168" stroke="black" fill="red" fill-opacity="0.1" id="17">
<title>sprite_279</title>
</rect>
<rect x="1440" y="1216" width="360" height="168" stroke="black" fill="red" fill-opacity="0.1" id="18">
<title>sprite_280</title>
</rect>
<rect x="0" y="848" width="360" height="168" stroke="black" fill="red" fill-opacity="0.1" id="19">
<title>sprite_281</title>
</rect>
<rect x="1080" y="1016" width="360" height="168" stroke="black" fill="red" fill-opacity="0.1" id="20">
<title>sprite_282</title>
</rect>
<rect x="1080" y="1216" width="360" height="168" stroke="black" fill="red" fill-opacity="0.1" id="21">
<title>sprite_283</title>
</rect>
<rect x="720" y="1016" width="360" height="168" stroke="black" fill="red" fill-opacity="0.1" id="22">
<title>sprite_284</title>
</rect>
<rect x="720" y="1216" width="360" height="168" stroke="black" fill="red" fill-opacity="0.1" id="23">
<title>sprite_285</title>
</rect>
<rect x="360" y="848" width="264" height="168" stroke="black" fill="red" fill-opacity="0.1" id="24">
<title>sprite_286</title>
</rect>
<rect x="0" y="608" width="616" height="120" stroke="black" fill="red" fill-opacity="0.1" id="25">
<title>sprite_287</title>
</rect>
<rect x="616" y="368" width="616" height="120" stroke="black" fill="red" fill-opacity="0.1" id="26">
<title>sprite_288</title>
</rect>
<rect x="616" y="488" width="616" height="120" stroke="black" fill="red" fill-opacity="0.1" id="27">
<title>sprite_289</title>
</rect>
<rect x="1232" y="728" width="616" height="120" stroke="black" fill="red" fill-opacity="0.1" id="28">
<title>sprite_290</title>
</rect>
<rect x="1232" y="368" width="616" height="120" stroke="black" fill="red" fill-opacity="0.1" id="29">
<title>sprite_291</title>
</rect>
<rect x="616" y="728" width="616" height="120" stroke="black" fill="red" fill-opacity="0.1" id="30">
<title>sprite_292</title>
</rect>
<rect x="1232" y="608" width="616" height="120" stroke="black" fill="red" fill-opacity="0.1" id="31">
<title>sprite_293</title>
</rect>
<rect x="0" y="728" width="616" height="120" stroke="black" fill="red" fill-opacity="0.1" id="32">
<title>sprite_294</title>
</rect>
<rect x="616" y="608" width="616" height="120" stroke="black" fill="red" fill-opacity="0.1" id="33">
<title>sprite_295</title>
</rect>
<rect x="1240" y="896" width="616" height="120" stroke="black" fill="red" fill-opacity="0.1" id="34">
<title>sprite_296</title>
</rect>
<rect x="1232" y="488" width="616" height="120" stroke="black" fill="red" fill-opacity="0.1" id="35">
<title>sprite_297</title>
</rect>
<rect x="624" y="896" width="616" height="120" stroke="black" fill="red" fill-opacity="0.1" id="36">
<title>sprite_298</title>
</rect>
<rect x="0" y="488" width="616" height="120" stroke="black" fill="red" fill-opacity="0.1" id="37">
<title>sprite_299</title>
</rect>
<rect x="0" y="368" width="616" height="120" stroke="black" fill="red" fill-opacity="0.1" id="38">
<title>sprite_300</title>
</rect>
<rect x="0" y="248" width="568" height="120" stroke="black" fill="red" fill-opacity="0.1" id="39">
<title>sprite_301</title>
</rect>
<rect x="1072" y="248" width="504" height="120" stroke="black" fill="red" fill-opacity="0.1" id="40">
<title>sprite_302</title>
</rect>
<rect x="0" y="128" width="504" height="120" stroke="black" fill="red" fill-opacity="0.1" id="41">
<title>sprite_303</title>
</rect>
<rect x="568" y="248" width="504" height="120" stroke="black" fill="red" fill-opacity="0.1" id="42">
<title>sprite_304</title>
</rect>
<rect x="504" y="128" width="200" height="120" stroke="black" fill="red" fill-opacity="0.1" id="43">
<title>sprite_305</title>
</rect>
<rect x="704" y="144" width="568" height="104" stroke="black" fill="red" fill-opacity="0.1" id="44">
<title>sprite_306</title>
</rect>
<rect x="568" y="24" width="536" height="104" stroke="black" fill="red" fill-opacity="0.1" id="45">
<title>sprite_307</title>
</rect>
<rect x="1104" y="24" width="488" height="104" stroke="black" fill="red" fill-opacity="0.1" id="46">
<title>sprite_308</title>
</rect>
<rect x="1592" y="24" width="456" height="104" stroke="black" fill="red" fill-opacity="0.1" id="47">
<title>sprite_309</title>
</rect>
<rect x="1576" y="264" width="408" height="104" stroke="black" fill="red" fill-opacity="0.1" id="48">
<title>sprite_310</title>
</rect>
<rect x="1840" y="144" width="152" height="104" stroke="black" fill="red" fill-opacity="0.1" id="49">
<title>sprite_311</title>
</rect>
<rect x="864" y="1624" width="424" height="88" stroke="black" fill="red" fill-opacity="0.1" id="50">
<title>sprite_312</title>
</rect>
<rect x="1288" y="1712" width="424" height="88" stroke="black" fill="red" fill-opacity="0.1" id="51">
<title>sprite_313</title>
</rect>
<rect x="864" y="1712" width="424" height="88" stroke="black" fill="red" fill-opacity="0.1" id="52">
<title>sprite_314</title>
</rect>
</svg>