<?xml version="1.0" encoding="UTF-8"?>
<svg xmlns="http://www.w3.org/2000/svg" xmlns:xlink="http://www.w3.org/1999/xlink"
     width="1024" height="1024" viewBox="0 0 1024 1024">
<defs>
</defs>
<rect x="0" y="914" width="146" height="110" stroke="black" fill="red" fill-opacity="0.1" id="0">
<title>sprite_382</title>
</rect>
<rect x="730" y="914" width="146" height="110" stroke="black" fill="red" fill-opacity="0.1" id="1">
<title>sprite_383</title>
</rect>
<rect x="876" y="914" width="146" height="110" stroke="black" fill="red" fill-opacity="0.1" id="2">
<title>sprite_384</title>
</rect>
<rect x="0" y="804" width="146" height="110" stroke="black" fill="red" fill-opacity="0.1" id="3">
<title>sprite_385</title>
</rect>
<rect x="146" y="804" width="146" height="110" stroke="black" fill="red" fill-opacity="0.1" id="4">
<title>sprite_386</title>
</rect>
<rect x="292" y="804" width="146" height="110" stroke="black" fill="red" fill-opacity="0.1" id="5">
<title>sprite_387</title>
</rect>
<rect x="438" y="804" width="146" height="110" stroke="black" fill="red" fill-opacity="0.1" id="6">
<title>sprite_388</title>
</rect>
<rect x="584" y="804" width="146" height="110" stroke="black" fill="red" fill-opacity="0.1" id="7">
<title>sprite_389</title>
</rect>
<rect x="146" y="914" width="146" height="110" stroke="black" fill="red" fill-opacity="0.1" id="8">
<title>sprite_390</title>
</rect>
<rect x="292" y="914" width="146" height="110" stroke="black" fill="red" fill-opacity="0.1" id="9">
<title>sprite_391</title>
</rect>
<rect x="438" y="914" width="146" height="110" stroke="black" fill="red" fill-opacity="0.1" id="10">
<title>sprite_392</title>
</rect>
<rect x="584" y="914" width="146" height="110" stroke="black" fill="red" fill-opacity="0.1" id="11">
<title>sprite_393</title>
</rect>
<rect x="244" y="694" width="122" height="110" stroke="black" fill="red" fill-opacity="0.1" id="12">
<title>sprite_394</title>
</rect>
<rect x="366" y="694" width="122" height="110" stroke="black" fill="red" fill-opacity="0.1" id="13">
<title>sprite_395</title>
</rect>
<rect x="488" y="694" width="122" height="110" stroke="black" fill="red" fill-opacity="0.1" id="14">
<title>sprite_396</title>
</rect>
<rect x="610" y="694" width="122" height="110" stroke="black" fill="red" fill-opacity="0.1" id="15">
<title>sprite_397</title>
</rect>
<rect x="732" y="694" width="122" height="110" stroke="black" fill="red" fill-opacity="0.1" id="16">
<title>sprite_398</title>
</rect>
<rect x="854" y="694" width="122" height="110" stroke="black" fill="red" fill-opacity="0.1" id="17">
<title>sprite_399</title>
</rect>
<rect x="730" y="804" width="122" height="110" stroke="black" fill="red" fill-opacity="0.1" id="18">
<title>sprite_400</title>
</rect>
<rect x="852" y="804" width="122" height="110" stroke="black" fill="red" fill-opacity="0.1" id="19">
<title>sprite_401</title>
</rect>
<rect x="0" y="694" width="122" height="110" stroke="black" fill="red" fill-opacity="0.1" id="20">
<title>sprite_402</title>
</rect>
<rect x="122" y="694" width="122" height="110" stroke="black" fill="red" fill-opacity="0.1" id="21">
<title>sprite_403</title>
</rect>
<rect x="0" y="588" width="130" height="106" stroke="black" fill="red" fill-opacity="0.1" id="22">
<title>sprite_404</title>
</rect>
<rect x="650" y="482" width="130" height="106" stroke="black" fill="red" fill-opacity="0.1" id="23">
<title>sprite_405</title>
</rect>
<rect x="780" y="482" width="130" height="106" stroke="black" fill="red" fill-opacity="0.1" id="24">
<title>sprite_406</title>
</rect>
<rect x="0" y="376" width="130" height="106" stroke="black" fill="red" fill-opacity="0.1" id="25">
<title>sprite_407</title>
</rect>
<rect x="130" y="588" width="130" height="106" stroke="black" fill="red" fill-opacity="0.1" id="26">
<title>sprite_408</title>
</rect>
<rect x="390" y="588" width="130" height="106" stroke="black" fill="red" fill-opacity="0.1" id="27">
<title>sprite_409</title>
</rect>
<rect x="390" y="482" width="130" height="106" stroke="black" fill="red" fill-opacity="0.1" id="28">
<title>sprite_410</title>
</rect>
<rect x="520" y="588" width="130" height="106" stroke="black" fill="red" fill-opacity="0.1" id="29">
<title>sprite_411</title>
</rect>
<rect x="780" y="588" width="130" height="106" stroke="black" fill="red" fill-opacity="0.1" id="30">
<title>sprite_412</title>
</rect>
<rect x="0" y="482" width="130" height="106" stroke="black" fill="red" fill-opacity="0.1" id="31">
<title>sprite_413</title>
</rect>
<rect x="130" y="482" width="130" height="106" stroke="black" fill="red" fill-opacity="0.1" id="32">
<title>sprite_414</title>
</rect>
<rect x="260" y="588" width="130" height="106" stroke="black" fill="red" fill-opacity="0.1" id="33">
<title>sprite_415</title>
</rect>
<rect x="260" y="482" width="130" height="106" stroke="black" fill="red" fill-opacity="0.1" id="34">
<title>sprite_416</title>
</rect>
<rect x="520" y="482" width="130" height="106" stroke="black" fill="red" fill-opacity="0.1" id="35">
<title>sprite_417</title>
</rect>
<rect x="650" y="588" width="130" height="106" stroke="black" fill="red" fill-opacity="0.1" id="36">
<title>sprite_418</title>
</rect>
<rect x="130" y="388" width="134" height="94" stroke="black" fill="red" fill-opacity="0.1" id="37">
<title>sprite_419</title>
</rect>
<rect x="264" y="388" width="110" height="94" stroke="black" fill="red" fill-opacity="0.1" id="38">
<title>sprite_420</title>
</rect>
<rect x="374" y="408" width="146" height="74" stroke="black" fill="red" fill-opacity="0.1" id="39">
<title>sprite_421</title>
</rect>
<rect x="520" y="408" width="146" height="74" stroke="black" fill="red" fill-opacity="0.1" id="40">
<title>sprite_422</title>
</rect>
<rect x="588" y="306" width="98" height="70" stroke="black" fill="red" fill-opacity="0.1" id="41">
<title>sprite_423</title>
</rect>
<rect x="686" y="306" width="98" height="70" stroke="black" fill="red" fill-opacity="0.1" id="42">
<title>sprite_424</title>
</rect>
<rect x="666" y="412" width="98" height="70" stroke="black" fill="red" fill-opacity="0.1" id="43">
<title>sprite_425</title>
</rect>
<rect x="764" y="412" width="98" height="70" stroke="black" fill="red" fill-opacity="0.1" id="44">
<title>sprite_426</title>
</rect>
<rect x="862" y="412" width="98" height="70" stroke="black" fill="red" fill-opacity="0.1" id="45">
<title>sprite_427</title>
</rect>
<rect x="910" y="518" width="98" height="70" stroke="black" fill="red" fill-opacity="0.1" id="46">
<title>sprite_428</title>
</rect>
<rect x="910" y="624" width="98" height="70" stroke="black" fill="red" fill-opacity="0.1" id="47">
<title>sprite_429</title>
</rect>
<rect x="0" y="306" width="98" height="70" stroke="black" fill="red" fill-opacity="0.1" id="48">
<title>sprite_430</title>
</rect>
<rect x="98" y="306" width="98" height="70" stroke="black" fill="red" fill-opacity="0.1" id="49">
<title>sprite_431</title>
</rect>
<rect x="196" y="306" width="98" height="70" stroke="black" fill="red" fill-opacity="0.1" id="50">
<title>sprite_432</title>
</rect>
<rect x="294" y="306" width="98" height="70" stroke="black" fill="red" fill-opacity="0.1" id="51">
<title>sprite_433</title>
</rect>
<rect x="392" y="306" width="98" height="70" stroke="black" fill="red" fill-opacity="0.1" id="52">
<title>sprite_434</title>
</rect>
<rect x="490" y="306" width="98" height="70" stroke="black" fill="red" fill-opacity="0.1" id="53">
<title>sprite_435</title>
</rect>
<rect x="0" y="236" width="90" height="70" stroke="black" fill="red" fill-opacity="0.1" id="54">
<title>sprite_436</title>
</rect>
<rect x="90" y="236" width="90" height="70" stroke="black" fill="red" fill-opacity="0.1" id="55">
<title>sprite_437</title>
</rect>
<rect x="784" y="306" width="90" height="70" stroke="black" fill="red" fill-opacity="0.1" id="56">
<title>sprite_438</title>
</rect>
<rect x="874" y="306" width="90" height="70" stroke="black" fill="red" fill-opacity="0.1" id="57">
<title>sprite_439</title>
</rect>
<rect x="180" y="236" width="82" height="70" stroke="black" fill="red" fill-opacity="0.1" id="58">
<title>sprite_440</title>
</rect>
<rect x="262" y="242" width="256" height="64" stroke="black" fill="red" fill-opacity="0.1" id="59">
<title>sprite_441</title>
</rect>
<rect x="518" y="242" width="256" height="64" stroke="black" fill="red" fill-opacity="0.1" id="60">
<title>sprite_442</title>
</rect>
<rect x="0" y="182" width="390" height="54" stroke="black" fill="red" fill-opacity="0.1" id="61">
<title>sprite_443</title>
</rect>
<rect x="390" y="186" width="460" height="50" stroke="black" fill="red" fill-opacity="0.1" id="62">
<title>sprite_444</title>
</rect>
<rect x="0" y="132" width="386" height="50" stroke="black" fill="red" fill-opacity="0.1" id="63">
<title>sprite_445</title>
</rect>
<rect x="386" y="132" width="90" height="50" stroke="black" fill="red" fill-opacity="0.1" id="64">
<title>sprite_446</title>
</rect>
<rect x="476" y="132" width="90" height="50" stroke="black" fill="red" fill-opacity="0.1" id="65">
<title>sprite_447</title>
</rect>
<rect x="566" y="132" width="90" height="50" stroke="black" fill="red" fill-opacity="0.1" id="66">
<title>sprite_448</title>
</rect>
<rect x="656" y="132" width="90" height="50" stroke="black" fill="red" fill-opacity="0.1" id="67">
<title>sprite_449</title>
</rect>
<rect x="746" y="132" width="90" height="50" stroke="black" fill="red" fill-opacity="0.1" id="68">
<title>sprite_450</title>
</rect>
<rect x="836" y="132" width="90" height="50" stroke="black" fill="red" fill-opacity="0.1" id="69">
<title>sprite_451</title>
</rect>
<rect x="926" y="132" width="90" height="50" stroke="black" fill="red" fill-opacity="0.1" id="70">
<title>sprite_452</title>
</rect>
<rect x="850" y="186" width="90" height="50" stroke="black" fill="red" fill-opacity="0.1" id="71">
<title>sprite_453</title>
</rect>
<rect x="380" y="86" width="190" height="46" stroke="black" fill="red" fill-opacity="0.1" id="72">
<title>sprite_454</title>
</rect>
<rect x="190" y="86" width="190" height="46" stroke="black" fill="red" fill-opacity="0.1" id="73">
<title>sprite_455</title>
</rect>
<rect x="760" y="86" width="190" height="46" stroke="black" fill="red" fill-opacity="0.1" id="74">
<title>sprite_456</title>
</rect>
<rect x="0" y="40" width="190" height="46" stroke="black" fill="red" fill-opacity="0.1" id="75">
<title>sprite_457</title>
</rect>
<rect x="0" y="86" width="190" height="46" stroke="black" fill="red" fill-opacity="0.1" id="76">
<title>sprite_458</title>
</rect>
<rect x="774" y="260" width="190" height="46" stroke="black" fill="red" fill-opacity="0.1" id="77">
<title>sprite_459</title>
</rect>
<rect x="190" y="40" width="190" height="46" stroke="black" fill="red" fill-opacity="0.1" id="78">
<title>sprite_460</title>
</rect>
<rect x="570" y="86" width="190" height="46" stroke="black" fill="red" fill-opacity="0.1" id="79">
<title>sprite_461</title>
</rect>
<rect x="380" y="46" width="180" height="40" stroke="black" fill="red" fill-opacity="0.1" id="80">
<title>sprite_462</title>
</rect>
<rect x="560" y="48" width="140" height="38" stroke="black" fill="red" fill-opacity="0.1" id="81">
<title>sprite_463</title>
</rect>
<rect x="700" y="52" width="138" height="34" stroke="black" fill="red" fill-opacity="0.1" id="82">
<title>sprite_464</title>
</rect>
<rect x="0" y="10" width="406" height="30" stroke="black" fill="red" fill-opacity="0.1" id="83">
<title>sprite_465</title>
</rect>
<rect x="406" y="10" width="338" height="30" stroke="black" fill="red" fill-opacity="0.1" id="84">
<title>sprite_466</title>
</rect>
<rect x="744" y="10" width="98" height="30" stroke="black" fill="red" fill-opacity="0.1" id="85">
<title>sprite_467</title>
</rect>
<rect x="0" y="4" width="298" height="6" stroke="black" fill="red" fill-opacity="0.1" id="86">
<title>sprite_468</title>
</rect>
</svg>