<?xml version="1.0" encoding="UTF-8"?>
<svg xmlns="http://www.w3.org/2000/svg" xmlns:xlink="http://www.w3.org/1999/xlink"
     width="128" height="64" viewBox="0 0 128 64">
<defs>
</defs>
<rect x="0" y="43" width="17" height="21" stroke="black" fill="red" fill-opacity="0.1" id="0">
<title>sprite_15</title>
</rect>
<rect x="17" y="46" width="21" height="18" stroke="black" fill="red" fill-opacity="0.1" id="1">
<title>sprite_16</title>
</rect>
<rect x="80" y="46" width="21" height="18" stroke="black" fill="red" fill-opacity="0.1" id="2">
<title>sprite_17</title>
</rect>
<rect x="101" y="46" width="21" height="18" stroke="black" fill="red" fill-opacity="0.1" id="3">
<title>sprite_18</title>
</rect>
<rect x="0" y="25" width="21" height="18" stroke="black" fill="red" fill-opacity="0.1" id="4">
<title>sprite_19</title>
</rect>
<rect x="21" y="25" width="21" height="18" stroke="black" fill="red" fill-opacity="0.1" id="5">
<title>sprite_20</title>
</rect>
<rect x="42" y="25" width="21" height="18" stroke="black" fill="red" fill-opacity="0.1" id="6">
<title>sprite_21</title>
</rect>
<rect x="63" y="25" width="21" height="18" stroke="black" fill="red" fill-opacity="0.1" id="7">
<title>sprite_22</title>
</rect>
<rect x="84" y="25" width="21" height="18" stroke="black" fill="red" fill-opacity="0.1" id="8">
<title>sprite_23</title>
</rect>
<rect x="38" y="46" width="21" height="18" stroke="black" fill="red" fill-opacity="0.1" id="9">
<title>sprite_24</title>
</rect>
<rect x="59" y="46" width="21" height="18" stroke="black" fill="red" fill-opacity="0.1" id="10">
<title>sprite_25</title>
</rect>
<rect x="42" y="10" width="14" height="15" stroke="black" fill="red" fill-opacity="0.1" id="11">
<title>sprite_26</title>
</rect>
<rect x="56" y="10" width="14" height="15" stroke="black" fill="red" fill-opacity="0.1" id="12">
<title>sprite_27</title>
</rect>
<rect x="70" y="10" width="14" height="15" stroke="black" fill="red" fill-opacity="0.1" id="13">
<title>sprite_28</title>
</rect>
<rect x="84" y="10" width="14" height="15" stroke="black" fill="red" fill-opacity="0.1" id="14">
<title>sprite_29</title>
</rect>
<rect x="98" y="10" width="14" height="15" stroke="black" fill="red" fill-opacity="0.1" id="15">
<title>sprite_30</title>
</rect>
<rect x="112" y="10" width="14" height="15" stroke="black" fill="red" fill-opacity="0.1" id="16">
<title>sprite_31</title>
</rect>
<rect x="105" y="28" width="14" height="15" stroke="black" fill="red" fill-opacity="0.1" id="17">
<title>sprite_32</title>
</rect>
<rect x="0" y="10" width="14" height="15" stroke="black" fill="red" fill-opacity="0.1" id="18">
<title>sprite_33</title>
</rect>
<rect x="14" y="10" width="14" height="15" stroke="black" fill="red" fill-opacity="0.1" id="19">
<title>sprite_34</title>
</rect>
<rect x="28" y="10" width="14" height="15" stroke="black" fill="red" fill-opacity="0.1" id="20">
<title>sprite_35</title>
</rect>
</svg>