<?xml version="1.0" encoding="UTF-8"?>
<svg xmlns="http://www.w3.org/2000/svg" xmlns:xlink="http://www.w3.org/1999/xlink"
     width="128" height="64" viewBox="0 0 128 64">
<defs>
</defs>
<rect x="0" y="43" width="17" height="21" stroke="black" fill="red" fill-opacity="0.1" />
<rect x="17" y="46" width="21" height="18" stroke="black" fill="red" fill-opacity="0.1" />
<rect x="80" y="46" width="21" height="18" stroke="black" fill="red" fill-opacity="0.1" />
<rect x="101" y="46" width="21" height="18" stroke="black" fill="red" fill-opacity="0.1" />
<rect x="0" y="25" width="21" height="18" stroke="black" fill="red" fill-opacity="0.1" />
<rect x="21" y="25" width="21" height="18" stroke="black" fill="red" fill-opacity="0.1" />
<rect x="42" y="25" width="21" height="18" stroke="black" fill="red" fill-opacity="0.1" />
<rect x="63" y="25" width="21" height="18" stroke="black" fill="red" fill-opacity="0.1" />
<rect x="84" y="25" width="21" height="18" stroke="black" fill="red" fill-opacity="0.1" />
<rect x="38" y="46" width="21" height="18" stroke="black" fill="red" fill-opacity="0.1" />
<rect x="59" y="46" width="21" height="18" stroke="black" fill="red" fill-opacity="0.1" />
<rect x="42" y="10" width="14" height="15" stroke="black" fill="red" fill-opacity="0.1" />
<rect x="56" y="10" width="14" height="15" stroke="black" fill="red" fill-opacity="0.1" />
<rect x="70" y="10" width="14" height="15" stroke="black" fill="red" fill-opacity="0.1" />
<rect x="84" y="10" width="14" height="15" stroke="black" fill="red" fill-opacity="0.1" />
<rect x="98" y="10" width="14" height="15" stroke="black" fill="red" fill-opacity="0.1" />
<rect x="112" y="10" width="14" height="15" stroke="black" fill="red" fill-opacity="0.1" />
<rect x="105" y="28" width="14" height="15" stroke="black" fill="red" fill-opacity="0.1" />
<rect x="0" y="10" width="14" height="15" stroke="black" fill="red" fill-opacity="0.1" />
<rect x="14" y="10" width="14" height="15" stroke="black" fill="red" fill-opacity="0.1" />
<rect x="28" y="10" width="14" height="15" stroke="black" fill="red" fill-opacity="0.1" />
</svg>