<?xml version="1.0" encoding="UTF-8"?>
<svg xmlns="http://www.w3.org/2000/svg" xmlns:xlink="http://www.w3.org/1999/xlink"
     width="128" height="64" viewBox="0 0 128 64">
<defs>
</defs>
<rect x="0" y="34" width="4" height="30" stroke="black" fill="red" fill-opacity="0.1" />
<rect x="4" y="38" width="106" height="26" stroke="black" fill="red" fill-opacity="0.1" />
<rect x="110" y="38" width="9" height="26" stroke="black" fill="red" fill-opacity="0.1" />
<rect x="119" y="38" width="4" height="26" stroke="black" fill="red" fill-opacity="0.1" />
<rect x="0" y="18" width="11" height="16" stroke="black" fill="red" fill-opacity="0.1" />
<rect x="11" y="18" width="9" height="16" stroke="black" fill="red" fill-opacity="0.1" />
<rect x="20" y="18" width="2" height="16" stroke="black" fill="red" fill-opacity="0.1" />
<rect x="22" y="19" width="14" height="15" stroke="black" fill="red" fill-opacity="0.1" />
<rect x="36" y="19" width="14" height="15" stroke="black" fill="red" fill-opacity="0.1" />
<rect x="50" y="19" width="12" height="15" stroke="black" fill="red" fill-opacity="0.1" />
<rect x="62" y="24" width="7" height="10" stroke="black" fill="red" fill-opacity="0.1" />
<rect x="69" y="26" width="9" height="8" stroke="black" fill="red" fill-opacity="0.1" />
<rect x="78" y="28" width="4" height="6" stroke="black" fill="red" fill-opacity="0.1" />
<rect x="82" y="30" width="4" height="4" stroke="black" fill="red" fill-opacity="0.1" />
<rect x="86" y="32" width="6" height="2" stroke="black" fill="red" fill-opacity="0.1" />
<rect x="92" y="32" width="3" height="2" stroke="black" fill="red" fill-opacity="0.1" />
</svg>