<?xml version="1.0" encoding="UTF-8"?>
<svg xmlns="http://www.w3.org/2000/svg" xmlns:xlink="http://www.w3.org/1999/xlink"
     width="2048" height="2048" viewBox="0 0 2048 2048">
<defs>
</defs>
<rect x="0" y="1848" width="200" height="200" stroke="black" fill="red" fill-opacity="0.1" id="0">
<title>sprite_1</title>
</rect>
<rect x="0" y="1696" width="840" height="152" stroke="black" fill="red" fill-opacity="0.1" id="1">
<title>sprite_2</title>
</rect>
<rect x="0" y="1576" width="120" height="120" stroke="black" fill="red" fill-opacity="0.1" id="2">
<title>sprite_3</title>
</rect>
<rect x="0" y="1468" width="772" height="108" stroke="black" fill="red" fill-opacity="0.1" id="3">
<title>sprite_4</title>
</rect>
<rect x="0" y="1372" width="1320" height="96" stroke="black" fill="red" fill-opacity="0.1" id="4">
<title>sprite_5</title>
</rect>
<rect x="1320" y="1372" width="96" height="96" stroke="black" fill="red" fill-opacity="0.1" id="5">
<title>sprite_6</title>
</rect>
<rect x="1416" y="1372" width="96" height="96" stroke="black" fill="red" fill-opacity="0.1" id="6">
<title>sprite_7</title>
</rect>
<rect x="1512" y="1372" width="96" height="96" stroke="black" fill="red" fill-opacity="0.1" id="7">
<title>sprite_8</title>
</rect>
<rect x="1608" y="1372" width="96" height="96" stroke="black" fill="red" fill-opacity="0.1" id="8">
<title>sprite_9</title>
</rect>
<rect x="1704" y="1372" width="96" height="96" stroke="black" fill="red" fill-opacity="0.1" id="9">
<title>sprite_10</title>
</rect>
<rect x="1800" y="1372" width="96" height="96" stroke="black" fill="red" fill-opacity="0.1" id="10">
<title>sprite_11</title>
</rect>
<rect x="1896" y="1372" width="96" height="96" stroke="black" fill="red" fill-opacity="0.1" id="11">
<title>sprite_12</title>
</rect>
<rect x="1992" y="1396" width="56" height="72" stroke="black" fill="red" fill-opacity="0.1" id="12">
<title>sprite_13</title>
</rect>
<rect x="0" y="1276" width="1308" height="96" stroke="black" fill="red" fill-opacity="0.1" id="13">
<title>sprite_14</title>
</rect>
<rect x="0" y="1180" width="96" height="96" stroke="black" fill="red" fill-opacity="0.1" id="14">
<title>sprite_15</title>
</rect>
<rect x="0" y="1084" width="96" height="96" stroke="black" fill="red" fill-opacity="0.1" id="15">
<title>sprite_16</title>
</rect>
<rect x="0" y="988" width="96" height="96" stroke="black" fill="red" fill-opacity="0.1" id="16">
<title>sprite_17</title>
</rect>
<rect x="0" y="900" width="1308" height="88" stroke="black" fill="red" fill-opacity="0.1" id="17">
<title>sprite_18</title>
</rect>
<rect x="0" y="820" width="756" height="80" stroke="black" fill="red" fill-opacity="0.1" id="18">
<title>sprite_19</title>
</rect>
<rect x="0" y="756" width="1920" height="64" stroke="black" fill="red" fill-opacity="0.1" id="19">
<title>sprite_20</title>
</rect>
<rect x="1920" y="764" width="120" height="56" stroke="black" fill="red" fill-opacity="0.1" id="20">
<title>sprite_21</title>
</rect>
<rect x="0" y="692" width="940" height="64" stroke="black" fill="red" fill-opacity="0.1" id="21">
<title>sprite_22</title>
</rect>
<rect x="0" y="628" width="888" height="64" stroke="black" fill="red" fill-opacity="0.1" id="22">
<title>sprite_23</title>
</rect>
<rect x="0" y="564" width="748" height="64" stroke="black" fill="red" fill-opacity="0.1" id="23">
<title>sprite_24</title>
</rect>
<rect x="0" y="500" width="720" height="64" stroke="black" fill="red" fill-opacity="0.1" id="24">
<title>sprite_25</title>
</rect>
<rect x="0" y="436" width="664" height="64" stroke="black" fill="red" fill-opacity="0.1" id="25">
<title>sprite_26</title>
</rect>
<rect x="0" y="372" width="644" height="64" stroke="black" fill="red" fill-opacity="0.1" id="26">
<title>sprite_27</title>
</rect>
<rect x="0" y="316" width="1152" height="56" stroke="black" fill="red" fill-opacity="0.1" id="27">
<title>sprite_28</title>
</rect>
<rect x="1152" y="316" width="576" height="56" stroke="black" fill="red" fill-opacity="0.1" id="28">
<title>sprite_29</title>
</rect>
<rect x="1728" y="316" width="320" height="56" stroke="black" fill="red" fill-opacity="0.1" id="29">
<title>sprite_30</title>
</rect>
<rect x="0" y="260" width="1152" height="56" stroke="black" fill="red" fill-opacity="0.1" id="30">
<title>sprite_31</title>
</rect>
<rect x="1152" y="260" width="576" height="56" stroke="black" fill="red" fill-opacity="0.1" id="31">
<title>sprite_32</title>
</rect>
<rect x="1728" y="260" width="320" height="56" stroke="black" fill="red" fill-opacity="0.1" id="32">
<title>sprite_33</title>
</rect>
<rect x="0" y="204" width="1084" height="56" stroke="black" fill="red" fill-opacity="0.1" id="33">
<title>sprite_34</title>
</rect>
<rect x="0" y="148" width="236" height="56" stroke="black" fill="red" fill-opacity="0.1" id="34">
<title>sprite_35</title>
</rect>
<rect x="236" y="148" width="236" height="56" stroke="black" fill="red" fill-opacity="0.1" id="35">
<title>sprite_36</title>
</rect>
<rect x="472" y="148" width="120" height="56" stroke="black" fill="red" fill-opacity="0.1" id="36">
<title>sprite_37</title>
</rect>
<rect x="592" y="148" width="120" height="56" stroke="black" fill="red" fill-opacity="0.1" id="37">
<title>sprite_38</title>
</rect>
<rect x="712" y="148" width="120" height="56" stroke="black" fill="red" fill-opacity="0.1" id="38">
<title>sprite_39</title>
</rect>
<rect x="832" y="148" width="120" height="56" stroke="black" fill="red" fill-opacity="0.1" id="39">
<title>sprite_40</title>
</rect>
<rect x="952" y="148" width="120" height="56" stroke="black" fill="red" fill-opacity="0.1" id="40">
<title>sprite_41</title>
</rect>
<rect x="1072" y="148" width="120" height="56" stroke="black" fill="red" fill-opacity="0.1" id="41">
<title>sprite_42</title>
</rect>
<rect x="1192" y="148" width="120" height="56" stroke="black" fill="red" fill-opacity="0.1" id="42">
<title>sprite_43</title>
</rect>
<rect x="1312" y="148" width="56" height="56" stroke="black" fill="red" fill-opacity="0.1" id="43">
<title>sprite_44</title>
</rect>
<rect x="1368" y="148" width="56" height="56" stroke="black" fill="red" fill-opacity="0.1" id="44">
<title>sprite_45</title>
</rect>
<rect x="1424" y="148" width="56" height="56" stroke="black" fill="red" fill-opacity="0.1" id="45">
<title>sprite_46</title>
</rect>
<rect x="1480" y="152" width="76" height="52" stroke="black" fill="red" fill-opacity="0.1" id="46">
<title>sprite_47</title>
</rect>
<rect x="1556" y="152" width="52" height="52" stroke="black" fill="red" fill-opacity="0.1" id="47">
<title>sprite_48</title>
</rect>
<rect x="1608" y="164" width="56" height="40" stroke="black" fill="red" fill-opacity="0.1" id="48">
<title>sprite_49</title>
</rect>
<rect x="1664" y="164" width="52" height="40" stroke="black" fill="red" fill-opacity="0.1" id="49">
<title>sprite_50</title>
</rect>
<rect x="1084" y="204" width="372" height="56" stroke="black" fill="red" fill-opacity="0.1" id="50">
<title>sprite_51</title>
</rect>
<rect x="1456" y="204" width="372" height="56" stroke="black" fill="red" fill-opacity="0.1" id="51">
<title>sprite_52</title>
</rect>
<rect x="644" y="372" width="572" height="64" stroke="black" fill="red" fill-opacity="0.1" id="52">
<title>sprite_53</title>
</rect>
<rect x="1216" y="372" width="520" height="64" stroke="black" fill="red" fill-opacity="0.1" id="53">
<title>sprite_54</title>
</rect>
<rect x="1736" y="380" width="304" height="56" stroke="black" fill="red" fill-opacity="0.1" id="54">
<title>sprite_55</title>
</rect>
<rect x="664" y="436" width="664" height="64" stroke="black" fill="red" fill-opacity="0.1" id="55">
<title>sprite_56</title>
</rect>
<rect x="1328" y="436" width="664" height="64" stroke="black" fill="red" fill-opacity="0.1" id="56">
<title>sprite_57</title>
</rect>
<rect x="720" y="500" width="704" height="64" stroke="black" fill="red" fill-opacity="0.1" id="57">
<title>sprite_58</title>
</rect>
<rect x="1424" y="500" width="504" height="64" stroke="black" fill="red" fill-opacity="0.1" id="58">
<title>sprite_59</title>
</rect>
<rect x="748" y="564" width="720" height="64" stroke="black" fill="red" fill-opacity="0.1" id="59">
<title>sprite_60</title>
</rect>
<rect x="1468" y="564" width="432" height="64" stroke="black" fill="red" fill-opacity="0.1" id="60">
<title>sprite_61</title>
</rect>
<rect x="888" y="628" width="792" height="64" stroke="black" fill="red" fill-opacity="0.1" id="61">
<title>sprite_62</title>
</rect>
<rect x="1680" y="636" width="304" height="56" stroke="black" fill="red" fill-opacity="0.1" id="62">
<title>sprite_63</title>
</rect>
<rect x="940" y="692" width="888" height="64" stroke="black" fill="red" fill-opacity="0.1" id="63">
<title>sprite_64</title>
</rect>
<rect x="756" y="828" width="328" height="72" stroke="black" fill="red" fill-opacity="0.1" id="64">
<title>sprite_65</title>
</rect>
<rect x="1084" y="828" width="144" height="72" stroke="black" fill="red" fill-opacity="0.1" id="65">
<title>sprite_66</title>
</rect>
<rect x="1228" y="828" width="76" height="72" stroke="black" fill="red" fill-opacity="0.1" id="66">
<title>sprite_67</title>
</rect>
<rect x="1304" y="828" width="56" height="72" stroke="black" fill="red" fill-opacity="0.1" id="67">
<title>sprite_68</title>
</rect>
<rect x="1360" y="828" width="56" height="72" stroke="black" fill="red" fill-opacity="0.1" id="68">
<title>sprite_69</title>
</rect>
<rect x="1416" y="832" width="192" height="68" stroke="black" fill="red" fill-opacity="0.1" id="69">
<title>sprite_70</title>
</rect>
<rect x="1608" y="836" width="424" height="64" stroke="black" fill="red" fill-opacity="0.1" id="70">
<title>sprite_71</title>
</rect>
<rect x="1308" y="900" width="328" height="88" stroke="black" fill="red" fill-opacity="0.1" id="71">
<title>sprite_72</title>
</rect>
<rect x="1636" y="900" width="200" height="88" stroke="black" fill="red" fill-opacity="0.1" id="72">
<title>sprite_73</title>
</rect>
<rect x="1836" y="900" width="72" height="88" stroke="black" fill="red" fill-opacity="0.1" id="73">
<title>sprite_74</title>
</rect>
<rect x="96" y="988" width="96" height="96" stroke="black" fill="red" fill-opacity="0.1" id="74">
<title>sprite_75</title>
</rect>
<rect x="192" y="988" width="96" height="96" stroke="black" fill="red" fill-opacity="0.1" id="75">
<title>sprite_76</title>
</rect>
<rect x="288" y="988" width="96" height="96" stroke="black" fill="red" fill-opacity="0.1" id="76">
<title>sprite_77</title>
</rect>
<rect x="384" y="988" width="96" height="96" stroke="black" fill="red" fill-opacity="0.1" id="77">
<title>sprite_78</title>
</rect>
<rect x="480" y="988" width="96" height="96" stroke="black" fill="red" fill-opacity="0.1" id="78">
<title>sprite_79</title>
</rect>
<rect x="576" y="988" width="96" height="96" stroke="black" fill="red" fill-opacity="0.1" id="79">
<title>sprite_80</title>
</rect>
<rect x="672" y="988" width="96" height="96" stroke="black" fill="red" fill-opacity="0.1" id="80">
<title>sprite_81</title>
</rect>
<rect x="768" y="988" width="96" height="96" stroke="black" fill="red" fill-opacity="0.1" id="81">
<title>sprite_82</title>
</rect>
<rect x="864" y="988" width="96" height="96" stroke="black" fill="red" fill-opacity="0.1" id="82">
<title>sprite_83</title>
</rect>
<rect x="960" y="988" width="96" height="96" stroke="black" fill="red" fill-opacity="0.1" id="83">
<title>sprite_84</title>
</rect>
<rect x="1056" y="988" width="96" height="96" stroke="black" fill="red" fill-opacity="0.1" id="84">
<title>sprite_85</title>
</rect>
<rect x="1152" y="988" width="96" height="96" stroke="black" fill="red" fill-opacity="0.1" id="85">
<title>sprite_86</title>
</rect>
<rect x="1248" y="992" width="336" height="92" stroke="black" fill="red" fill-opacity="0.1" id="86">
<title>sprite_87</title>
</rect>
<rect x="1584" y="1020" width="376" height="64" stroke="black" fill="red" fill-opacity="0.1" id="87">
<title>sprite_88</title>
</rect>
<rect x="96" y="1084" width="96" height="96" stroke="black" fill="red" fill-opacity="0.1" id="88">
<title>sprite_89</title>
</rect>
<rect x="192" y="1084" width="96" height="96" stroke="black" fill="red" fill-opacity="0.1" id="89">
<title>sprite_90</title>
</rect>
<rect x="288" y="1084" width="96" height="96" stroke="black" fill="red" fill-opacity="0.1" id="90">
<title>sprite_91</title>
</rect>
<rect x="384" y="1084" width="96" height="96" stroke="black" fill="red" fill-opacity="0.1" id="91">
<title>sprite_92</title>
</rect>
<rect x="480" y="1084" width="96" height="96" stroke="black" fill="red" fill-opacity="0.1" id="92">
<title>sprite_93</title>
</rect>
<rect x="576" y="1084" width="96" height="96" stroke="black" fill="red" fill-opacity="0.1" id="93">
<title>sprite_94</title>
</rect>
<rect x="672" y="1084" width="96" height="96" stroke="black" fill="red" fill-opacity="0.1" id="94">
<title>sprite_95</title>
</rect>
<rect x="768" y="1084" width="96" height="96" stroke="black" fill="red" fill-opacity="0.1" id="95">
<title>sprite_96</title>
</rect>
<rect x="864" y="1084" width="96" height="96" stroke="black" fill="red" fill-opacity="0.1" id="96">
<title>sprite_97</title>
</rect>
<rect x="960" y="1084" width="96" height="96" stroke="black" fill="red" fill-opacity="0.1" id="97">
<title>sprite_98</title>
</rect>
<rect x="1056" y="1084" width="96" height="96" stroke="black" fill="red" fill-opacity="0.1" id="98">
<title>sprite_99</title>
</rect>
<rect x="1152" y="1084" width="96" height="96" stroke="black" fill="red" fill-opacity="0.1" id="99">
<title>sprite_100</title>
</rect>
<rect x="1248" y="1084" width="96" height="96" stroke="black" fill="red" fill-opacity="0.1" id="100">
<title>sprite_101</title>
</rect>
<rect x="1344" y="1084" width="96" height="96" stroke="black" fill="red" fill-opacity="0.1" id="101">
<title>sprite_102</title>
</rect>
<rect x="1440" y="1084" width="96" height="96" stroke="black" fill="red" fill-opacity="0.1" id="102">
<title>sprite_103</title>
</rect>
<rect x="1536" y="1084" width="96" height="96" stroke="black" fill="red" fill-opacity="0.1" id="103">
<title>sprite_104</title>
</rect>
<rect x="1632" y="1084" width="96" height="96" stroke="black" fill="red" fill-opacity="0.1" id="104">
<title>sprite_105</title>
</rect>
<rect x="1728" y="1084" width="96" height="96" stroke="black" fill="red" fill-opacity="0.1" id="105">
<title>sprite_106</title>
</rect>
<rect x="1824" y="1084" width="96" height="96" stroke="black" fill="red" fill-opacity="0.1" id="106">
<title>sprite_107</title>
</rect>
<rect x="1920" y="1084" width="96" height="96" stroke="black" fill="red" fill-opacity="0.1" id="107">
<title>sprite_108</title>
</rect>
<rect x="96" y="1180" width="96" height="96" stroke="black" fill="red" fill-opacity="0.1" id="108">
<title>sprite_109</title>
</rect>
<rect x="192" y="1180" width="96" height="96" stroke="black" fill="red" fill-opacity="0.1" id="109">
<title>sprite_110</title>
</rect>
<rect x="288" y="1180" width="96" height="96" stroke="black" fill="red" fill-opacity="0.1" id="110">
<title>sprite_111</title>
</rect>
<rect x="384" y="1180" width="96" height="96" stroke="black" fill="red" fill-opacity="0.1" id="111">
<title>sprite_112</title>
</rect>
<rect x="480" y="1180" width="96" height="96" stroke="black" fill="red" fill-opacity="0.1" id="112">
<title>sprite_113</title>
</rect>
<rect x="576" y="1180" width="96" height="96" stroke="black" fill="red" fill-opacity="0.1" id="113">
<title>sprite_114</title>
</rect>
<rect x="672" y="1180" width="96" height="96" stroke="black" fill="red" fill-opacity="0.1" id="114">
<title>sprite_115</title>
</rect>
<rect x="768" y="1180" width="96" height="96" stroke="black" fill="red" fill-opacity="0.1" id="115">
<title>sprite_116</title>
</rect>
<rect x="864" y="1180" width="96" height="96" stroke="black" fill="red" fill-opacity="0.1" id="116">
<title>sprite_117</title>
</rect>
<rect x="960" y="1180" width="96" height="96" stroke="black" fill="red" fill-opacity="0.1" id="117">
<title>sprite_118</title>
</rect>
<rect x="1056" y="1180" width="96" height="96" stroke="black" fill="red" fill-opacity="0.1" id="118">
<title>sprite_119</title>
</rect>
<rect x="1152" y="1180" width="96" height="96" stroke="black" fill="red" fill-opacity="0.1" id="119">
<title>sprite_120</title>
</rect>
<rect x="1248" y="1180" width="96" height="96" stroke="black" fill="red" fill-opacity="0.1" id="120">
<title>sprite_121</title>
</rect>
<rect x="1344" y="1180" width="96" height="96" stroke="black" fill="red" fill-opacity="0.1" id="121">
<title>sprite_122</title>
</rect>
<rect x="1440" y="1180" width="96" height="96" stroke="black" fill="red" fill-opacity="0.1" id="122">
<title>sprite_123</title>
</rect>
<rect x="1536" y="1180" width="96" height="96" stroke="black" fill="red" fill-opacity="0.1" id="123">
<title>sprite_124</title>
</rect>
<rect x="1632" y="1180" width="96" height="96" stroke="black" fill="red" fill-opacity="0.1" id="124">
<title>sprite_125</title>
</rect>
<rect x="1728" y="1180" width="96" height="96" stroke="black" fill="red" fill-opacity="0.1" id="125">
<title>sprite_126</title>
</rect>
<rect x="1824" y="1180" width="96" height="96" stroke="black" fill="red" fill-opacity="0.1" id="126">
<title>sprite_127</title>
</rect>
<rect x="1920" y="1180" width="96" height="96" stroke="black" fill="red" fill-opacity="0.1" id="127">
<title>sprite_128</title>
</rect>
<rect x="1308" y="1276" width="96" height="96" stroke="black" fill="red" fill-opacity="0.1" id="128">
<title>sprite_129</title>
</rect>
<rect x="1404" y="1276" width="96" height="96" stroke="black" fill="red" fill-opacity="0.1" id="129">
<title>sprite_130</title>
</rect>
<rect x="1500" y="1276" width="96" height="96" stroke="black" fill="red" fill-opacity="0.1" id="130">
<title>sprite_131</title>
</rect>
<rect x="1596" y="1276" width="96" height="96" stroke="black" fill="red" fill-opacity="0.1" id="131">
<title>sprite_132</title>
</rect>
<rect x="1692" y="1276" width="96" height="96" stroke="black" fill="red" fill-opacity="0.1" id="132">
<title>sprite_133</title>
</rect>
<rect x="1788" y="1276" width="96" height="96" stroke="black" fill="red" fill-opacity="0.1" id="133">
<title>sprite_134</title>
</rect>
<rect x="1884" y="1276" width="96" height="96" stroke="black" fill="red" fill-opacity="0.1" id="134">
<title>sprite_135</title>
</rect>
<rect x="772" y="1468" width="516" height="108" stroke="black" fill="red" fill-opacity="0.1" id="135">
<title>sprite_136</title>
</rect>
<rect x="1288" y="1468" width="352" height="108" stroke="black" fill="red" fill-opacity="0.1" id="136">
<title>sprite_137</title>
</rect>
<rect x="1640" y="1468" width="260" height="108" stroke="black" fill="red" fill-opacity="0.1" id="137">
<title>sprite_138</title>
</rect>
<rect x="1900" y="1472" width="104" height="104" stroke="black" fill="red" fill-opacity="0.1" id="138">
<title>sprite_139</title>
</rect>
<rect x="120" y="1576" width="120" height="120" stroke="black" fill="red" fill-opacity="0.1" id="139">
<title>sprite_140</title>
</rect>
<rect x="240" y="1576" width="120" height="120" stroke="black" fill="red" fill-opacity="0.1" id="140">
<title>sprite_141</title>
</rect>
<rect x="360" y="1576" width="120" height="120" stroke="black" fill="red" fill-opacity="0.1" id="141">
<title>sprite_142</title>
</rect>
<rect x="480" y="1576" width="120" height="120" stroke="black" fill="red" fill-opacity="0.1" id="142">
<title>sprite_143</title>
</rect>
<rect x="600" y="1576" width="120" height="120" stroke="black" fill="red" fill-opacity="0.1" id="143">
<title>sprite_144</title>
</rect>
<rect x="720" y="1576" width="120" height="120" stroke="black" fill="red" fill-opacity="0.1" id="144">
<title>sprite_145</title>
</rect>
<rect x="840" y="1576" width="120" height="120" stroke="black" fill="red" fill-opacity="0.1" id="145">
<title>sprite_146</title>
</rect>
<rect x="960" y="1576" width="120" height="120" stroke="black" fill="red" fill-opacity="0.1" id="146">
<title>sprite_147</title>
</rect>
<rect x="1080" y="1576" width="120" height="120" stroke="black" fill="red" fill-opacity="0.1" id="147">
<title>sprite_148</title>
</rect>
<rect x="1200" y="1576" width="120" height="120" stroke="black" fill="red" fill-opacity="0.1" id="148">
<title>sprite_149</title>
</rect>
<rect x="1320" y="1576" width="120" height="120" stroke="black" fill="red" fill-opacity="0.1" id="149">
<title>sprite_150</title>
</rect>
<rect x="1440" y="1576" width="120" height="120" stroke="black" fill="red" fill-opacity="0.1" id="150">
<title>sprite_151</title>
</rect>
<rect x="1560" y="1576" width="120" height="120" stroke="black" fill="red" fill-opacity="0.1" id="151">
<title>sprite_152</title>
</rect>
<rect x="1680" y="1592" width="104" height="104" stroke="black" fill="red" fill-opacity="0.1" id="152">
<title>sprite_153</title>
</rect>
<rect x="1784" y="1592" width="104" height="104" stroke="black" fill="red" fill-opacity="0.1" id="153">
<title>sprite_154</title>
</rect>
<rect x="1888" y="1600" width="96" height="96" stroke="black" fill="red" fill-opacity="0.1" id="154">
<title>sprite_155</title>
</rect>
<rect x="840" y="1696" width="600" height="152" stroke="black" fill="red" fill-opacity="0.1" id="155">
<title>sprite_156</title>
</rect>
<rect x="1440" y="1696" width="168" height="152" stroke="black" fill="red" fill-opacity="0.1" id="156">
<title>sprite_157</title>
</rect>
<rect x="1608" y="1728" width="280" height="120" stroke="black" fill="red" fill-opacity="0.1" id="157">
<title>sprite_158</title>
</rect>
<rect x="1888" y="1728" width="120" height="120" stroke="black" fill="red" fill-opacity="0.1" id="158">
<title>sprite_159</title>
</rect>
<rect x="200" y="1864" width="200" height="184" stroke="black" fill="red" fill-opacity="0.1" id="159">
<title>sprite_160</title>
</rect>
<rect x="400" y="1864" width="200" height="184" stroke="black" fill="red" fill-opacity="0.1" id="160">
<title>sprite_161</title>
</rect>
<rect x="600" y="1864" width="200" height="184" stroke="black" fill="red" fill-opacity="0.1" id="161">
<title>sprite_162</title>
</rect>
<rect x="800" y="1896" width="1016" height="152" stroke="black" fill="red" fill-opacity="0.1" id="162">
<title>sprite_163</title>
</rect>
<rect x="1816" y="1928" width="168" height="120" stroke="black" fill="red" fill-opacity="0.1" id="163">
<title>sprite_164</title>
</rect>
</svg>