<?xml version="1.0" encoding="UTF-8"?>
<svg xmlns="http://www.w3.org/2000/svg" xmlns:xlink="http://www.w3.org/1999/xlink"
     width="2048" height="2048" viewBox="0 0 2048 2048">
<defs>
</defs>
<rect x="0" y="1792" width="256" height="256" stroke="black" fill="red" fill-opacity="0.1" id="0">
<title>sprite_234</title>
</rect>
<rect x="0" y="1552" width="232" height="240" stroke="black" fill="red" fill-opacity="0.1" id="1">
<title>sprite_235</title>
</rect>
<rect x="0" y="1384" width="120" height="168" stroke="black" fill="red" fill-opacity="0.1" id="2">
<title>sprite_236</title>
</rect>
<rect x="0" y="1248" width="136" height="136" stroke="black" fill="red" fill-opacity="0.1" id="3">
<title>sprite_237</title>
</rect>
<rect x="0" y="1112" width="120" height="136" stroke="black" fill="red" fill-opacity="0.1" id="4">
<title>sprite_238</title>
</rect>
<rect x="0" y="992" width="248" height="120" stroke="black" fill="red" fill-opacity="0.1" id="5">
<title>sprite_239</title>
</rect>
<rect x="0" y="872" width="248" height="120" stroke="black" fill="red" fill-opacity="0.1" id="6">
<title>sprite_240</title>
</rect>
<rect x="0" y="752" width="248" height="120" stroke="black" fill="red" fill-opacity="0.1" id="7">
<title>sprite_241</title>
</rect>
<rect x="0" y="632" width="248" height="120" stroke="black" fill="red" fill-opacity="0.1" id="8">
<title>sprite_242</title>
</rect>
<rect x="0" y="512" width="248" height="120" stroke="black" fill="red" fill-opacity="0.1" id="9">
<title>sprite_243</title>
</rect>
<rect x="0" y="392" width="248" height="120" stroke="black" fill="red" fill-opacity="0.1" id="10">
<title>sprite_244</title>
</rect>
<rect x="0" y="272" width="248" height="120" stroke="black" fill="red" fill-opacity="0.1" id="11">
<title>sprite_245</title>
</rect>
<rect x="0" y="168" width="280" height="104" stroke="black" fill="red" fill-opacity="0.1" id="12">
<title>sprite_246</title>
</rect>
<rect x="0" y="96" width="200" height="72" stroke="black" fill="red" fill-opacity="0.1" id="13">
<title>sprite_247</title>
</rect>
<rect x="0" y="40" width="1308" height="56" stroke="black" fill="red" fill-opacity="0.1" id="14">
<title>sprite_248</title>
</rect>
<rect x="1308" y="40" width="312" height="56" stroke="black" fill="red" fill-opacity="0.1" id="15">
<title>sprite_249</title>
</rect>
<rect x="200" y="96" width="200" height="72" stroke="black" fill="red" fill-opacity="0.1" id="16">
<title>sprite_250</title>
</rect>
<rect x="400" y="96" width="120" height="72" stroke="black" fill="red" fill-opacity="0.1" id="17">
<title>sprite_251</title>
</rect>
<rect x="520" y="96" width="120" height="72" stroke="black" fill="red" fill-opacity="0.1" id="18">
<title>sprite_252</title>
</rect>
<rect x="640" y="96" width="72" height="72" stroke="black" fill="red" fill-opacity="0.1" id="19">
<title>sprite_253</title>
</rect>
<rect x="712" y="96" width="56" height="72" stroke="black" fill="red" fill-opacity="0.1" id="20">
<title>sprite_254</title>
</rect>
<rect x="768" y="96" width="56" height="72" stroke="black" fill="red" fill-opacity="0.1" id="21">
<title>sprite_255</title>
</rect>
<rect x="824" y="96" width="56" height="72" stroke="black" fill="red" fill-opacity="0.1" id="22">
<title>sprite_256</title>
</rect>
<rect x="880" y="96" width="56" height="72" stroke="black" fill="red" fill-opacity="0.1" id="23">
<title>sprite_257</title>
</rect>
<rect x="936" y="96" width="56" height="72" stroke="black" fill="red" fill-opacity="0.1" id="24">
<title>sprite_258</title>
</rect>
<rect x="992" y="96" width="56" height="72" stroke="black" fill="red" fill-opacity="0.1" id="25">
<title>sprite_259</title>
</rect>
<rect x="1048" y="96" width="56" height="72" stroke="black" fill="red" fill-opacity="0.1" id="26">
<title>sprite_260</title>
</rect>
<rect x="280" y="168" width="280" height="104" stroke="black" fill="red" fill-opacity="0.1" id="27">
<title>sprite_261</title>
</rect>
<rect x="560" y="168" width="216" height="104" stroke="black" fill="red" fill-opacity="0.1" id="28">
<title>sprite_262</title>
</rect>
<rect x="776" y="168" width="200" height="104" stroke="black" fill="red" fill-opacity="0.1" id="29">
<title>sprite_263</title>
</rect>
<rect x="976" y="168" width="104" height="104" stroke="black" fill="red" fill-opacity="0.1" id="30">
<title>sprite_264</title>
</rect>
<rect x="1080" y="168" width="72" height="104" stroke="black" fill="red" fill-opacity="0.1" id="31">
<title>sprite_265</title>
</rect>
<rect x="1152" y="176" width="96" height="96" stroke="black" fill="red" fill-opacity="0.1" id="32">
<title>sprite_266</title>
</rect>
<rect x="1248" y="176" width="96" height="96" stroke="black" fill="red" fill-opacity="0.1" id="33">
<title>sprite_267</title>
</rect>
<rect x="1344" y="176" width="96" height="96" stroke="black" fill="red" fill-opacity="0.1" id="34">
<title>sprite_268</title>
</rect>
<rect x="1440" y="176" width="96" height="96" stroke="black" fill="red" fill-opacity="0.1" id="35">
<title>sprite_269</title>
</rect>
<rect x="1536" y="176" width="96" height="96" stroke="black" fill="red" fill-opacity="0.1" id="36">
<title>sprite_270</title>
</rect>
<rect x="1632" y="176" width="96" height="96" stroke="black" fill="red" fill-opacity="0.1" id="37">
<title>sprite_271</title>
</rect>
<rect x="1728" y="184" width="200" height="88" stroke="black" fill="red" fill-opacity="0.1" id="38">
<title>sprite_272</title>
</rect>
<rect x="248" y="272" width="248" height="120" stroke="black" fill="red" fill-opacity="0.1" id="39">
<title>sprite_273</title>
</rect>
<rect x="496" y="272" width="248" height="120" stroke="black" fill="red" fill-opacity="0.1" id="40">
<title>sprite_274</title>
</rect>
<rect x="744" y="272" width="248" height="120" stroke="black" fill="red" fill-opacity="0.1" id="41">
<title>sprite_275</title>
</rect>
<rect x="992" y="272" width="248" height="120" stroke="black" fill="red" fill-opacity="0.1" id="42">
<title>sprite_276</title>
</rect>
<rect x="1240" y="272" width="120" height="120" stroke="black" fill="red" fill-opacity="0.1" id="43">
<title>sprite_277</title>
</rect>
<rect x="1360" y="272" width="120" height="120" stroke="black" fill="red" fill-opacity="0.1" id="44">
<title>sprite_278</title>
</rect>
<rect x="1480" y="272" width="120" height="120" stroke="black" fill="red" fill-opacity="0.1" id="45">
<title>sprite_279</title>
</rect>
<rect x="1600" y="272" width="120" height="120" stroke="black" fill="red" fill-opacity="0.1" id="46">
<title>sprite_280</title>
</rect>
<rect x="1720" y="272" width="120" height="120" stroke="black" fill="red" fill-opacity="0.1" id="47">
<title>sprite_281</title>
</rect>
<rect x="1840" y="304" width="136" height="88" stroke="black" fill="red" fill-opacity="0.1" id="48">
<title>sprite_282</title>
</rect>
<rect x="248" y="392" width="248" height="120" stroke="black" fill="red" fill-opacity="0.1" id="49">
<title>sprite_283</title>
</rect>
<rect x="496" y="392" width="248" height="120" stroke="black" fill="red" fill-opacity="0.1" id="50">
<title>sprite_284</title>
</rect>
<rect x="744" y="392" width="248" height="120" stroke="black" fill="red" fill-opacity="0.1" id="51">
<title>sprite_285</title>
</rect>
<rect x="992" y="392" width="248" height="120" stroke="black" fill="red" fill-opacity="0.1" id="52">
<title>sprite_286</title>
</rect>
<rect x="1240" y="392" width="248" height="120" stroke="black" fill="red" fill-opacity="0.1" id="53">
<title>sprite_287</title>
</rect>
<rect x="1488" y="392" width="248" height="120" stroke="black" fill="red" fill-opacity="0.1" id="54">
<title>sprite_288</title>
</rect>
<rect x="1736" y="392" width="248" height="120" stroke="black" fill="red" fill-opacity="0.1" id="55">
<title>sprite_289</title>
</rect>
<rect x="248" y="512" width="248" height="120" stroke="black" fill="red" fill-opacity="0.1" id="56">
<title>sprite_290</title>
</rect>
<rect x="496" y="512" width="248" height="120" stroke="black" fill="red" fill-opacity="0.1" id="57">
<title>sprite_291</title>
</rect>
<rect x="744" y="512" width="248" height="120" stroke="black" fill="red" fill-opacity="0.1" id="58">
<title>sprite_292</title>
</rect>
<rect x="992" y="512" width="248" height="120" stroke="black" fill="red" fill-opacity="0.1" id="59">
<title>sprite_293</title>
</rect>
<rect x="1240" y="512" width="248" height="120" stroke="black" fill="red" fill-opacity="0.1" id="60">
<title>sprite_294</title>
</rect>
<rect x="1488" y="512" width="248" height="120" stroke="black" fill="red" fill-opacity="0.1" id="61">
<title>sprite_295</title>
</rect>
<rect x="1736" y="512" width="248" height="120" stroke="black" fill="red" fill-opacity="0.1" id="62">
<title>sprite_296</title>
</rect>
<rect x="248" y="632" width="248" height="120" stroke="black" fill="red" fill-opacity="0.1" id="63">
<title>sprite_297</title>
</rect>
<rect x="496" y="632" width="248" height="120" stroke="black" fill="red" fill-opacity="0.1" id="64">
<title>sprite_298</title>
</rect>
<rect x="744" y="632" width="248" height="120" stroke="black" fill="red" fill-opacity="0.1" id="65">
<title>sprite_299</title>
</rect>
<rect x="992" y="632" width="248" height="120" stroke="black" fill="red" fill-opacity="0.1" id="66">
<title>sprite_300</title>
</rect>
<rect x="1240" y="632" width="248" height="120" stroke="black" fill="red" fill-opacity="0.1" id="67">
<title>sprite_301</title>
</rect>
<rect x="1488" y="632" width="248" height="120" stroke="black" fill="red" fill-opacity="0.1" id="68">
<title>sprite_302</title>
</rect>
<rect x="1736" y="632" width="248" height="120" stroke="black" fill="red" fill-opacity="0.1" id="69">
<title>sprite_303</title>
</rect>
<rect x="248" y="752" width="248" height="120" stroke="black" fill="red" fill-opacity="0.1" id="70">
<title>sprite_304</title>
</rect>
<rect x="496" y="752" width="248" height="120" stroke="black" fill="red" fill-opacity="0.1" id="71">
<title>sprite_305</title>
</rect>
<rect x="744" y="752" width="248" height="120" stroke="black" fill="red" fill-opacity="0.1" id="72">
<title>sprite_306</title>
</rect>
<rect x="992" y="752" width="248" height="120" stroke="black" fill="red" fill-opacity="0.1" id="73">
<title>sprite_307</title>
</rect>
<rect x="1240" y="752" width="248" height="120" stroke="black" fill="red" fill-opacity="0.1" id="74">
<title>sprite_308</title>
</rect>
<rect x="1488" y="752" width="248" height="120" stroke="black" fill="red" fill-opacity="0.1" id="75">
<title>sprite_309</title>
</rect>
<rect x="1736" y="752" width="248" height="120" stroke="black" fill="red" fill-opacity="0.1" id="76">
<title>sprite_310</title>
</rect>
<rect x="248" y="872" width="248" height="120" stroke="black" fill="red" fill-opacity="0.1" id="77">
<title>sprite_311</title>
</rect>
<rect x="496" y="872" width="248" height="120" stroke="black" fill="red" fill-opacity="0.1" id="78">
<title>sprite_312</title>
</rect>
<rect x="744" y="872" width="248" height="120" stroke="black" fill="red" fill-opacity="0.1" id="79">
<title>sprite_313</title>
</rect>
<rect x="992" y="872" width="248" height="120" stroke="black" fill="red" fill-opacity="0.1" id="80">
<title>sprite_314</title>
</rect>
<rect x="1240" y="872" width="248" height="120" stroke="black" fill="red" fill-opacity="0.1" id="81">
<title>sprite_315</title>
</rect>
<rect x="1488" y="872" width="248" height="120" stroke="black" fill="red" fill-opacity="0.1" id="82">
<title>sprite_316</title>
</rect>
<rect x="1736" y="872" width="248" height="120" stroke="black" fill="red" fill-opacity="0.1" id="83">
<title>sprite_317</title>
</rect>
<rect x="248" y="992" width="248" height="120" stroke="black" fill="red" fill-opacity="0.1" id="84">
<title>sprite_318</title>
</rect>
<rect x="496" y="992" width="248" height="120" stroke="black" fill="red" fill-opacity="0.1" id="85">
<title>sprite_319</title>
</rect>
<rect x="744" y="992" width="248" height="120" stroke="black" fill="red" fill-opacity="0.1" id="86">
<title>sprite_320</title>
</rect>
<rect x="992" y="992" width="248" height="120" stroke="black" fill="red" fill-opacity="0.1" id="87">
<title>sprite_321</title>
</rect>
<rect x="1240" y="992" width="248" height="120" stroke="black" fill="red" fill-opacity="0.1" id="88">
<title>sprite_322</title>
</rect>
<rect x="1488" y="992" width="248" height="120" stroke="black" fill="red" fill-opacity="0.1" id="89">
<title>sprite_323</title>
</rect>
<rect x="1736" y="992" width="248" height="120" stroke="black" fill="red" fill-opacity="0.1" id="90">
<title>sprite_324</title>
</rect>
<rect x="120" y="1112" width="120" height="136" stroke="black" fill="red" fill-opacity="0.1" id="91">
<title>sprite_325</title>
</rect>
<rect x="240" y="1112" width="120" height="136" stroke="black" fill="red" fill-opacity="0.1" id="92">
<title>sprite_326</title>
</rect>
<rect x="360" y="1112" width="120" height="136" stroke="black" fill="red" fill-opacity="0.1" id="93">
<title>sprite_327</title>
</rect>
<rect x="480" y="1112" width="120" height="136" stroke="black" fill="red" fill-opacity="0.1" id="94">
<title>sprite_328</title>
</rect>
<rect x="600" y="1112" width="120" height="136" stroke="black" fill="red" fill-opacity="0.1" id="95">
<title>sprite_329</title>
</rect>
<rect x="720" y="1112" width="120" height="136" stroke="black" fill="red" fill-opacity="0.1" id="96">
<title>sprite_330</title>
</rect>
<rect x="840" y="1112" width="120" height="136" stroke="black" fill="red" fill-opacity="0.1" id="97">
<title>sprite_331</title>
</rect>
<rect x="960" y="1112" width="120" height="136" stroke="black" fill="red" fill-opacity="0.1" id="98">
<title>sprite_332</title>
</rect>
<rect x="1080" y="1128" width="248" height="120" stroke="black" fill="red" fill-opacity="0.1" id="99">
<title>sprite_333</title>
</rect>
<rect x="1328" y="1128" width="248" height="120" stroke="black" fill="red" fill-opacity="0.1" id="100">
<title>sprite_334</title>
</rect>
<rect x="1576" y="1128" width="248" height="120" stroke="black" fill="red" fill-opacity="0.1" id="101">
<title>sprite_335</title>
</rect>
<rect x="1824" y="1176" width="200" height="72" stroke="black" fill="red" fill-opacity="0.1" id="102">
<title>sprite_336</title>
</rect>
<rect x="136" y="1248" width="136" height="136" stroke="black" fill="red" fill-opacity="0.1" id="103">
<title>sprite_337</title>
</rect>
<rect x="272" y="1248" width="136" height="136" stroke="black" fill="red" fill-opacity="0.1" id="104">
<title>sprite_338</title>
</rect>
<rect x="408" y="1248" width="136" height="136" stroke="black" fill="red" fill-opacity="0.1" id="105">
<title>sprite_339</title>
</rect>
<rect x="544" y="1248" width="136" height="136" stroke="black" fill="red" fill-opacity="0.1" id="106">
<title>sprite_340</title>
</rect>
<rect x="680" y="1248" width="136" height="136" stroke="black" fill="red" fill-opacity="0.1" id="107">
<title>sprite_341</title>
</rect>
<rect x="816" y="1248" width="136" height="136" stroke="black" fill="red" fill-opacity="0.1" id="108">
<title>sprite_342</title>
</rect>
<rect x="952" y="1248" width="136" height="136" stroke="black" fill="red" fill-opacity="0.1" id="109">
<title>sprite_343</title>
</rect>
<rect x="1088" y="1248" width="136" height="136" stroke="black" fill="red" fill-opacity="0.1" id="110">
<title>sprite_344</title>
</rect>
<rect x="1224" y="1248" width="136" height="136" stroke="black" fill="red" fill-opacity="0.1" id="111">
<title>sprite_345</title>
</rect>
<rect x="1360" y="1248" width="136" height="136" stroke="black" fill="red" fill-opacity="0.1" id="112">
<title>sprite_346</title>
</rect>
<rect x="1496" y="1248" width="136" height="136" stroke="black" fill="red" fill-opacity="0.1" id="113">
<title>sprite_347</title>
</rect>
<rect x="1632" y="1248" width="136" height="136" stroke="black" fill="red" fill-opacity="0.1" id="114">
<title>sprite_348</title>
</rect>
<rect x="1768" y="1248" width="136" height="136" stroke="black" fill="red" fill-opacity="0.1" id="115">
<title>sprite_349</title>
</rect>
<rect x="1904" y="1248" width="136" height="136" stroke="black" fill="red" fill-opacity="0.1" id="116">
<title>sprite_350</title>
</rect>
<rect x="120" y="1400" width="168" height="152" stroke="black" fill="red" fill-opacity="0.1" id="117">
<title>sprite_351</title>
</rect>
<rect x="288" y="1408" width="208" height="144" stroke="black" fill="red" fill-opacity="0.1" id="118">
<title>sprite_352</title>
</rect>
<rect x="496" y="1412" width="208" height="140" stroke="black" fill="red" fill-opacity="0.1" id="119">
<title>sprite_353</title>
</rect>
<rect x="704" y="1416" width="136" height="136" stroke="black" fill="red" fill-opacity="0.1" id="120">
<title>sprite_354</title>
</rect>
<rect x="840" y="1416" width="136" height="136" stroke="black" fill="red" fill-opacity="0.1" id="121">
<title>sprite_355</title>
</rect>
<rect x="976" y="1416" width="136" height="136" stroke="black" fill="red" fill-opacity="0.1" id="122">
<title>sprite_356</title>
</rect>
<rect x="1112" y="1416" width="136" height="136" stroke="black" fill="red" fill-opacity="0.1" id="123">
<title>sprite_357</title>
</rect>
<rect x="1248" y="1416" width="136" height="136" stroke="black" fill="red" fill-opacity="0.1" id="124">
<title>sprite_358</title>
</rect>
<rect x="1384" y="1416" width="136" height="136" stroke="black" fill="red" fill-opacity="0.1" id="125">
<title>sprite_359</title>
</rect>
<rect x="1520" y="1416" width="136" height="136" stroke="black" fill="red" fill-opacity="0.1" id="126">
<title>sprite_360</title>
</rect>
<rect x="1656" y="1416" width="136" height="136" stroke="black" fill="red" fill-opacity="0.1" id="127">
<title>sprite_361</title>
</rect>
<rect x="1792" y="1416" width="136" height="136" stroke="black" fill="red" fill-opacity="0.1" id="128">
<title>sprite_362</title>
</rect>
<rect x="1928" y="1416" width="120" height="136" stroke="black" fill="red" fill-opacity="0.1" id="129">
<title>sprite_363</title>
</rect>
<rect x="232" y="1552" width="232" height="240" stroke="black" fill="red" fill-opacity="0.1" id="130">
<title>sprite_364</title>
</rect>
<rect x="464" y="1552" width="232" height="240" stroke="black" fill="red" fill-opacity="0.1" id="131">
<title>sprite_365</title>
</rect>
<rect x="696" y="1592" width="248" height="200" stroke="black" fill="red" fill-opacity="0.1" id="132">
<title>sprite_366</title>
</rect>
<rect x="944" y="1592" width="248" height="200" stroke="black" fill="red" fill-opacity="0.1" id="133">
<title>sprite_367</title>
</rect>
<rect x="1192" y="1592" width="248" height="200" stroke="black" fill="red" fill-opacity="0.1" id="134">
<title>sprite_368</title>
</rect>
<rect x="1440" y="1592" width="248" height="200" stroke="black" fill="red" fill-opacity="0.1" id="135">
<title>sprite_369</title>
</rect>
<rect x="1688" y="1592" width="248" height="200" stroke="black" fill="red" fill-opacity="0.1" id="136">
<title>sprite_370</title>
</rect>
<rect x="256" y="1808" width="232" height="240" stroke="black" fill="red" fill-opacity="0.1" id="137">
<title>sprite_371</title>
</rect>
<rect x="488" y="1808" width="232" height="240" stroke="black" fill="red" fill-opacity="0.1" id="138">
<title>sprite_372</title>
</rect>
<rect x="720" y="1808" width="232" height="240" stroke="black" fill="red" fill-opacity="0.1" id="139">
<title>sprite_373</title>
</rect>
<rect x="952" y="1808" width="232" height="240" stroke="black" fill="red" fill-opacity="0.1" id="140">
<title>sprite_374</title>
</rect>
<rect x="1184" y="1808" width="232" height="240" stroke="black" fill="red" fill-opacity="0.1" id="141">
<title>sprite_375</title>
</rect>
<rect x="1416" y="1808" width="232" height="240" stroke="black" fill="red" fill-opacity="0.1" id="142">
<title>sprite_376</title>
</rect>
<rect x="1648" y="1808" width="232" height="240" stroke="black" fill="red" fill-opacity="0.1" id="143">
<title>sprite_377</title>
</rect>
<rect x="1880" y="1880" width="120" height="168" stroke="black" fill="red" fill-opacity="0.1" id="144">
<title>sprite_378</title>
</rect>
</svg>