<?xml version="1.0" encoding="UTF-8"?>
<svg xmlns="http://www.w3.org/2000/svg" xmlns:xlink="http://www.w3.org/1999/xlink"
     width="1024" height="512" viewBox="0 0 1024 512">
<defs>
</defs>
<rect x="0" y="392" width="122" height="120" stroke="black" fill="red" fill-opacity="0.1" id="0">
<title>sprite_565</title>
</rect>
<rect x="0" y="328" width="64" height="64" stroke="black" fill="red" fill-opacity="0.1" id="1">
<title>sprite_566</title>
</rect>
<rect x="0" y="286" width="182" height="42" stroke="black" fill="red" fill-opacity="0.1" id="2">
<title>sprite_567</title>
</rect>
<rect x="0" y="248" width="210" height="38" stroke="black" fill="red" fill-opacity="0.1" id="3">
<title>sprite_568</title>
</rect>
<rect x="0" y="210" width="126" height="38" stroke="black" fill="red" fill-opacity="0.1" id="4">
<title>sprite_569</title>
</rect>
<rect x="0" y="180" width="298" height="30" stroke="black" fill="red" fill-opacity="0.1" id="5">
<title>sprite_570</title>
</rect>
<rect x="0" y="154" width="126" height="26" stroke="black" fill="red" fill-opacity="0.1" id="6">
<title>sprite_571</title>
</rect>
<rect x="0" y="132" width="328" height="22" stroke="black" fill="red" fill-opacity="0.1" id="7">
<title>sprite_572</title>
</rect>
<rect x="0" y="111" width="195" height="21" stroke="black" fill="red" fill-opacity="0.1" id="8">
<title>sprite_573</title>
</rect>
<rect x="0" y="94" width="284" height="17" stroke="black" fill="red" fill-opacity="0.1" id="9">
<title>sprite_574</title>
</rect>
<rect x="0" y="78" width="280" height="16" stroke="black" fill="red" fill-opacity="0.1" id="10">
<title>sprite_575</title>
</rect>
<rect x="0" y="62" width="279" height="16" stroke="black" fill="red" fill-opacity="0.1" id="11">
<title>sprite_576</title>
</rect>
<rect x="0" y="46" width="279" height="16" stroke="black" fill="red" fill-opacity="0.1" id="12">
<title>sprite_577</title>
</rect>
<rect x="0" y="30" width="275" height="16" stroke="black" fill="red" fill-opacity="0.1" id="13">
<title>sprite_578</title>
</rect>
<rect x="0" y="14" width="265" height="16" stroke="black" fill="red" fill-opacity="0.1" id="14">
<title>sprite_579</title>
</rect>
<rect x="0" y="0" width="300" height="14" stroke="black" fill="red" fill-opacity="0.1" id="15">
<title>sprite_580</title>
</rect>
<rect x="300" y="0" width="300" height="14" stroke="black" fill="red" fill-opacity="0.1" id="16">
<title>sprite_581</title>
</rect>
<rect x="600" y="0" width="106" height="14" stroke="black" fill="red" fill-opacity="0.1" id="17">
<title>sprite_582</title>
</rect>
<rect x="706" y="0" width="18" height="14" stroke="black" fill="red" fill-opacity="0.1" id="18">
<title>sprite_583</title>
</rect>
<rect x="724" y="0" width="14" height="14" stroke="black" fill="red" fill-opacity="0.1" id="19">
<title>sprite_584</title>
</rect>
<rect x="738" y="1" width="18" height="13" stroke="black" fill="red" fill-opacity="0.1" id="20">
<title>sprite_585</title>
</rect>
<rect x="756" y="1" width="17" height="13" stroke="black" fill="red" fill-opacity="0.1" id="21">
<title>sprite_586</title>
</rect>
<rect x="773" y="4" width="122" height="10" stroke="black" fill="red" fill-opacity="0.1" id="22">
<title>sprite_587</title>
</rect>
<rect x="895" y="4" width="14" height="10" stroke="black" fill="red" fill-opacity="0.1" id="23">
<title>sprite_588</title>
</rect>
<rect x="909" y="4" width="14" height="10" stroke="black" fill="red" fill-opacity="0.1" id="24">
<title>sprite_589</title>
</rect>
<rect x="923" y="4" width="14" height="10" stroke="black" fill="red" fill-opacity="0.1" id="25">
<title>sprite_590</title>
</rect>
<rect x="937" y="4" width="14" height="10" stroke="black" fill="red" fill-opacity="0.1" id="26">
<title>sprite_591</title>
</rect>
<rect x="951" y="4" width="14" height="10" stroke="black" fill="red" fill-opacity="0.1" id="27">
<title>sprite_592</title>
</rect>
<rect x="965" y="5" width="8" height="9" stroke="black" fill="red" fill-opacity="0.1" id="28">
<title>sprite_593</title>
</rect>
<rect x="973" y="5" width="8" height="9" stroke="black" fill="red" fill-opacity="0.1" id="29">
<title>sprite_594</title>
</rect>
<rect x="981" y="6" width="9" height="8" stroke="black" fill="red" fill-opacity="0.1" id="30">
<title>sprite_595</title>
</rect>
<rect x="990" y="6" width="9" height="8" stroke="black" fill="red" fill-opacity="0.1" id="31">
<title>sprite_596</title>
</rect>
<rect x="999" y="6" width="6" height="8" stroke="black" fill="red" fill-opacity="0.1" id="32">
<title>sprite_597</title>
</rect>
<rect x="1005" y="8" width="10" height="6" stroke="black" fill="red" fill-opacity="0.1" id="33">
<title>sprite_598</title>
</rect>
<rect x="1015" y="9" width="5" height="5" stroke="black" fill="red" fill-opacity="0.1" id="34">
<title>sprite_599</title>
</rect>
<rect x="265" y="14" width="265" height="16" stroke="black" fill="red" fill-opacity="0.1" id="35">
<title>sprite_600</title>
</rect>
<rect x="530" y="14" width="265" height="16" stroke="black" fill="red" fill-opacity="0.1" id="36">
<title>sprite_601</title>
</rect>
<rect x="795" y="14" width="166" height="16" stroke="black" fill="red" fill-opacity="0.1" id="37">
<title>sprite_602</title>
</rect>
<rect x="961" y="14" width="61" height="16" stroke="black" fill="red" fill-opacity="0.1" id="38">
<title>sprite_603</title>
</rect>
<rect x="275" y="30" width="269" height="16" stroke="black" fill="red" fill-opacity="0.1" id="39">
<title>sprite_604</title>
</rect>
<rect x="544" y="30" width="268" height="16" stroke="black" fill="red" fill-opacity="0.1" id="40">
<title>sprite_605</title>
</rect>
<rect x="812" y="30" width="166" height="16" stroke="black" fill="red" fill-opacity="0.1" id="41">
<title>sprite_606</title>
</rect>
<rect x="978" y="40" width="10" height="6" stroke="black" fill="red" fill-opacity="0.1" id="42">
<title>sprite_607</title>
</rect>
<rect x="988" y="40" width="10" height="6" stroke="black" fill="red" fill-opacity="0.1" id="43">
<title>sprite_608</title>
</rect>
<rect x="998" y="40" width="10" height="6" stroke="black" fill="red" fill-opacity="0.1" id="44">
<title>sprite_609</title>
</rect>
<rect x="1008" y="40" width="10" height="6" stroke="black" fill="red" fill-opacity="0.1" id="45">
<title>sprite_610</title>
</rect>
<rect x="279" y="46" width="279" height="16" stroke="black" fill="red" fill-opacity="0.1" id="46">
<title>sprite_611</title>
</rect>
<rect x="558" y="46" width="279" height="16" stroke="black" fill="red" fill-opacity="0.1" id="47">
<title>sprite_612</title>
</rect>
<rect x="837" y="46" width="142" height="16" stroke="black" fill="red" fill-opacity="0.1" id="48">
<title>sprite_613</title>
</rect>
<rect x="979" y="56" width="10" height="6" stroke="black" fill="red" fill-opacity="0.1" id="49">
<title>sprite_614</title>
</rect>
<rect x="989" y="56" width="10" height="6" stroke="black" fill="red" fill-opacity="0.1" id="50">
<title>sprite_615</title>
</rect>
<rect x="999" y="56" width="10" height="6" stroke="black" fill="red" fill-opacity="0.1" id="51">
<title>sprite_616</title>
</rect>
<rect x="1009" y="56" width="10" height="6" stroke="black" fill="red" fill-opacity="0.1" id="52">
<title>sprite_617</title>
</rect>
<rect x="279" y="62" width="279" height="16" stroke="black" fill="red" fill-opacity="0.1" id="53">
<title>sprite_618</title>
</rect>
<rect x="558" y="62" width="279" height="16" stroke="black" fill="red" fill-opacity="0.1" id="54">
<title>sprite_619</title>
</rect>
<rect x="837" y="62" width="61" height="16" stroke="black" fill="red" fill-opacity="0.1" id="55">
<title>sprite_620</title>
</rect>
<rect x="898" y="72" width="10" height="6" stroke="black" fill="red" fill-opacity="0.1" id="56">
<title>sprite_621</title>
</rect>
<rect x="908" y="76" width="35" height="2" stroke="black" fill="red" fill-opacity="0.1" id="57">
<title>sprite_622</title>
</rect>
<rect x="943" y="77" width="21" height="1" stroke="black" fill="red" fill-opacity="0.1" id="58">
<title>sprite_623</title>
</rect>
<rect x="280" y="78" width="279" height="16" stroke="black" fill="red" fill-opacity="0.1" id="59">
<title>sprite_624</title>
</rect>
<rect x="559" y="78" width="279" height="16" stroke="black" fill="red" fill-opacity="0.1" id="60">
<title>sprite_625</title>
</rect>
<rect x="284" y="95" width="356" height="16" stroke="black" fill="red" fill-opacity="0.1" id="61">
<title>sprite_626</title>
</rect>
<rect x="640" y="95" width="294" height="16" stroke="black" fill="red" fill-opacity="0.1" id="62">
<title>sprite_627</title>
</rect>
<rect x="195" y="112" width="30" height="20" stroke="black" fill="red" fill-opacity="0.1" id="63">
<title>sprite_628</title>
</rect>
<rect x="225" y="113" width="247" height="19" stroke="black" fill="red" fill-opacity="0.1" id="64">
<title>sprite_629</title>
</rect>
<rect x="472" y="114" width="298" height="18" stroke="black" fill="red" fill-opacity="0.1" id="65">
<title>sprite_630</title>
</rect>
<rect x="770" y="114" width="170" height="18" stroke="black" fill="red" fill-opacity="0.1" id="66">
<title>sprite_631</title>
</rect>
<rect x="940" y="114" width="82" height="18" stroke="black" fill="red" fill-opacity="0.1" id="67">
<title>sprite_632</title>
</rect>
<rect x="328" y="132" width="158" height="22" stroke="black" fill="red" fill-opacity="0.1" id="68">
<title>sprite_633</title>
</rect>
<rect x="486" y="132" width="84" height="22" stroke="black" fill="red" fill-opacity="0.1" id="69">
<title>sprite_634</title>
</rect>
<rect x="570" y="132" width="50" height="22" stroke="black" fill="red" fill-opacity="0.1" id="70">
<title>sprite_635</title>
</rect>
<rect x="620" y="133" width="368" height="21" stroke="black" fill="red" fill-opacity="0.1" id="71">
<title>sprite_636</title>
</rect>
<rect x="988" y="136" width="18" height="18" stroke="black" fill="red" fill-opacity="0.1" id="72">
<title>sprite_637</title>
</rect>
<rect x="126" y="154" width="126" height="26" stroke="black" fill="red" fill-opacity="0.1" id="73">
<title>sprite_638</title>
</rect>
<rect x="252" y="154" width="78" height="26" stroke="black" fill="red" fill-opacity="0.1" id="74">
<title>sprite_639</title>
</rect>
<rect x="330" y="154" width="72" height="26" stroke="black" fill="red" fill-opacity="0.1" id="75">
<title>sprite_640</title>
</rect>
<rect x="402" y="154" width="62" height="26" stroke="black" fill="red" fill-opacity="0.1" id="76">
<title>sprite_641</title>
</rect>
<rect x="464" y="154" width="30" height="26" stroke="black" fill="red" fill-opacity="0.1" id="77">
<title>sprite_642</title>
</rect>
<rect x="494" y="154" width="30" height="26" stroke="black" fill="red" fill-opacity="0.1" id="78">
<title>sprite_643</title>
</rect>
<rect x="524" y="154" width="30" height="26" stroke="black" fill="red" fill-opacity="0.1" id="79">
<title>sprite_644</title>
</rect>
<rect x="554" y="154" width="30" height="26" stroke="black" fill="red" fill-opacity="0.1" id="80">
<title>sprite_645</title>
</rect>
<rect x="584" y="157" width="250" height="23" stroke="black" fill="red" fill-opacity="0.1" id="81">
<title>sprite_646</title>
</rect>
<rect x="834" y="157" width="48" height="23" stroke="black" fill="red" fill-opacity="0.1" id="82">
<title>sprite_647</title>
</rect>
<rect x="298" y="180" width="31" height="30" stroke="black" fill="red" fill-opacity="0.1" id="83">
<title>sprite_648</title>
</rect>
<rect x="329" y="184" width="194" height="26" stroke="black" fill="red" fill-opacity="0.1" id="84">
<title>sprite_649</title>
</rect>
<rect x="523" y="184" width="194" height="26" stroke="black" fill="red" fill-opacity="0.1" id="85">
<title>sprite_650</title>
</rect>
<rect x="717" y="184" width="194" height="26" stroke="black" fill="red" fill-opacity="0.1" id="86">
<title>sprite_651</title>
</rect>
<rect x="126" y="210" width="126" height="38" stroke="black" fill="red" fill-opacity="0.1" id="87">
<title>sprite_652</title>
</rect>
<rect x="252" y="210" width="126" height="38" stroke="black" fill="red" fill-opacity="0.1" id="88">
<title>sprite_653</title>
</rect>
<rect x="378" y="210" width="126" height="38" stroke="black" fill="red" fill-opacity="0.1" id="89">
<title>sprite_654</title>
</rect>
<rect x="504" y="210" width="70" height="38" stroke="black" fill="red" fill-opacity="0.1" id="90">
<title>sprite_655</title>
</rect>
<rect x="574" y="210" width="70" height="38" stroke="black" fill="red" fill-opacity="0.1" id="91">
<title>sprite_656</title>
</rect>
<rect x="644" y="211" width="99" height="37" stroke="black" fill="red" fill-opacity="0.1" id="92">
<title>sprite_657</title>
</rect>
<rect x="743" y="212" width="36" height="36" stroke="black" fill="red" fill-opacity="0.1" id="93">
<title>sprite_658</title>
</rect>
<rect x="779" y="214" width="126" height="34" stroke="black" fill="red" fill-opacity="0.1" id="94">
<title>sprite_659</title>
</rect>
<rect x="905" y="216" width="100" height="32" stroke="black" fill="red" fill-opacity="0.1" id="95">
<title>sprite_660</title>
</rect>
<rect x="210" y="248" width="126" height="38" stroke="black" fill="red" fill-opacity="0.1" id="96">
<title>sprite_661</title>
</rect>
<rect x="336" y="248" width="126" height="38" stroke="black" fill="red" fill-opacity="0.1" id="97">
<title>sprite_662</title>
</rect>
<rect x="462" y="248" width="126" height="38" stroke="black" fill="red" fill-opacity="0.1" id="98">
<title>sprite_663</title>
</rect>
<rect x="588" y="248" width="126" height="38" stroke="black" fill="red" fill-opacity="0.1" id="99">
<title>sprite_664</title>
</rect>
<rect x="714" y="248" width="126" height="38" stroke="black" fill="red" fill-opacity="0.1" id="100">
<title>sprite_665</title>
</rect>
<rect x="840" y="248" width="126" height="38" stroke="black" fill="red" fill-opacity="0.1" id="101">
<title>sprite_666</title>
</rect>
<rect x="182" y="286" width="182" height="42" stroke="black" fill="red" fill-opacity="0.1" id="102">
<title>sprite_667</title>
</rect>
<rect x="364" y="286" width="182" height="42" stroke="black" fill="red" fill-opacity="0.1" id="103">
<title>sprite_668</title>
</rect>
<rect x="546" y="286" width="182" height="42" stroke="black" fill="red" fill-opacity="0.1" id="104">
<title>sprite_669</title>
</rect>
<rect x="728" y="286" width="42" height="42" stroke="black" fill="red" fill-opacity="0.1" id="105">
<title>sprite_670</title>
</rect>
<rect x="770" y="289" width="39" height="39" stroke="black" fill="red" fill-opacity="0.1" id="106">
<title>sprite_671</title>
</rect>
<rect x="809" y="290" width="210" height="38" stroke="black" fill="red" fill-opacity="0.1" id="107">
<title>sprite_672</title>
</rect>
<rect x="64" y="328" width="64" height="64" stroke="black" fill="red" fill-opacity="0.1" id="108">
<title>sprite_673</title>
</rect>
<rect x="128" y="328" width="64" height="64" stroke="black" fill="red" fill-opacity="0.1" id="109">
<title>sprite_674</title>
</rect>
<rect x="192" y="330" width="126" height="62" stroke="black" fill="red" fill-opacity="0.1" id="110">
<title>sprite_675</title>
</rect>
<rect x="318" y="330" width="126" height="62" stroke="black" fill="red" fill-opacity="0.1" id="111">
<title>sprite_676</title>
</rect>
<rect x="444" y="342" width="62" height="50" stroke="black" fill="red" fill-opacity="0.1" id="112">
<title>sprite_677</title>
</rect>
<rect x="506" y="342" width="62" height="50" stroke="black" fill="red" fill-opacity="0.1" id="113">
<title>sprite_678</title>
</rect>
<rect x="568" y="343" width="79" height="49" stroke="black" fill="red" fill-opacity="0.1" id="114">
<title>sprite_679</title>
</rect>
<rect x="647" y="346" width="77" height="46" stroke="black" fill="red" fill-opacity="0.1" id="115">
<title>sprite_680</title>
</rect>
<rect x="647" y="330" width="260" height="16" stroke="black" fill="red" fill-opacity="0.1" id="116">
<title>sprite_681</title>
</rect>
<rect x="724" y="350" width="182" height="42" stroke="black" fill="red" fill-opacity="0.1" id="117">
<title>sprite_682</title>
</rect>
<rect x="122" y="418" width="126" height="94" stroke="black" fill="red" fill-opacity="0.1" id="118">
<title>sprite_683</title>
</rect>
<rect x="248" y="418" width="126" height="94" stroke="black" fill="red" fill-opacity="0.1" id="119">
<title>sprite_684</title>
</rect>
<rect x="374" y="423" width="327" height="89" stroke="black" fill="red" fill-opacity="0.1" id="120">
<title>sprite_685</title>
</rect>
<rect x="701" y="435" width="100" height="77" stroke="black" fill="red" fill-opacity="0.1" id="121">
<title>sprite_686</title>
</rect>
<rect x="801" y="435" width="99" height="77" stroke="black" fill="red" fill-opacity="0.1" id="122">
<title>sprite_687</title>
</rect>
<rect x="900" y="448" width="64" height="64" stroke="black" fill="red" fill-opacity="0.1" id="123">
<title>sprite_688</title>
</rect>
</svg>