<?xml version="1.0" encoding="UTF-8"?>
<svg xmlns="http://www.w3.org/2000/svg" xmlns:xlink="http://www.w3.org/1999/xlink"
     width="512" height="512" viewBox="0 0 512 512">
<defs>
</defs>
<rect x="0" y="448" width="64" height="64" stroke="black" fill="red" fill-opacity="0.1" />
<rect x="0" y="388" width="58" height="60" stroke="black" fill="red" fill-opacity="0.1" />
<rect x="0" y="346" width="30" height="42" stroke="black" fill="red" fill-opacity="0.1" />
<rect x="0" y="312" width="34" height="34" stroke="black" fill="red" fill-opacity="0.1" />
<rect x="0" y="278" width="30" height="34" stroke="black" fill="red" fill-opacity="0.1" />
<rect x="0" y="248" width="62" height="30" stroke="black" fill="red" fill-opacity="0.1" />
<rect x="0" y="218" width="62" height="30" stroke="black" fill="red" fill-opacity="0.1" />
<rect x="0" y="188" width="62" height="30" stroke="black" fill="red" fill-opacity="0.1" />
<rect x="0" y="158" width="62" height="30" stroke="black" fill="red" fill-opacity="0.1" />
<rect x="0" y="128" width="62" height="30" stroke="black" fill="red" fill-opacity="0.1" />
<rect x="0" y="98" width="62" height="30" stroke="black" fill="red" fill-opacity="0.1" />
<rect x="0" y="68" width="62" height="30" stroke="black" fill="red" fill-opacity="0.1" />
<rect x="0" y="42" width="70" height="26" stroke="black" fill="red" fill-opacity="0.1" />
<rect x="0" y="24" width="50" height="18" stroke="black" fill="red" fill-opacity="0.1" />
<rect x="0" y="10" width="327" height="14" stroke="black" fill="red" fill-opacity="0.1" />
<rect x="327" y="10" width="78" height="14" stroke="black" fill="red" fill-opacity="0.1" />
<rect x="50" y="24" width="50" height="18" stroke="black" fill="red" fill-opacity="0.1" />
<rect x="100" y="24" width="30" height="18" stroke="black" fill="red" fill-opacity="0.1" />
<rect x="130" y="24" width="30" height="18" stroke="black" fill="red" fill-opacity="0.1" />
<rect x="160" y="24" width="18" height="18" stroke="black" fill="red" fill-opacity="0.1" />
<rect x="178" y="24" width="14" height="18" stroke="black" fill="red" fill-opacity="0.1" />
<rect x="192" y="24" width="14" height="18" stroke="black" fill="red" fill-opacity="0.1" />
<rect x="206" y="24" width="14" height="18" stroke="black" fill="red" fill-opacity="0.1" />
<rect x="220" y="24" width="14" height="18" stroke="black" fill="red" fill-opacity="0.1" />
<rect x="234" y="24" width="14" height="18" stroke="black" fill="red" fill-opacity="0.1" />
<rect x="248" y="24" width="14" height="18" stroke="black" fill="red" fill-opacity="0.1" />
<rect x="262" y="24" width="14" height="18" stroke="black" fill="red" fill-opacity="0.1" />
<rect x="70" y="42" width="70" height="26" stroke="black" fill="red" fill-opacity="0.1" />
<rect x="140" y="42" width="54" height="26" stroke="black" fill="red" fill-opacity="0.1" />
<rect x="194" y="42" width="50" height="26" stroke="black" fill="red" fill-opacity="0.1" />
<rect x="244" y="42" width="26" height="26" stroke="black" fill="red" fill-opacity="0.1" />
<rect x="270" y="42" width="18" height="26" stroke="black" fill="red" fill-opacity="0.1" />
<rect x="288" y="44" width="24" height="24" stroke="black" fill="red" fill-opacity="0.1" />
<rect x="312" y="44" width="24" height="24" stroke="black" fill="red" fill-opacity="0.1" />
<rect x="336" y="44" width="24" height="24" stroke="black" fill="red" fill-opacity="0.1" />
<rect x="360" y="44" width="24" height="24" stroke="black" fill="red" fill-opacity="0.1" />
<rect x="384" y="44" width="24" height="24" stroke="black" fill="red" fill-opacity="0.1" />
<rect x="408" y="44" width="24" height="24" stroke="black" fill="red" fill-opacity="0.1" />
<rect x="432" y="46" width="50" height="22" stroke="black" fill="red" fill-opacity="0.1" />
<rect x="62" y="68" width="62" height="30" stroke="black" fill="red" fill-opacity="0.1" />
<rect x="124" y="68" width="62" height="30" stroke="black" fill="red" fill-opacity="0.1" />
<rect x="186" y="68" width="62" height="30" stroke="black" fill="red" fill-opacity="0.1" />
<rect x="248" y="68" width="62" height="30" stroke="black" fill="red" fill-opacity="0.1" />
<rect x="310" y="68" width="30" height="30" stroke="black" fill="red" fill-opacity="0.1" />
<rect x="340" y="68" width="30" height="30" stroke="black" fill="red" fill-opacity="0.1" />
<rect x="370" y="68" width="30" height="30" stroke="black" fill="red" fill-opacity="0.1" />
<rect x="400" y="68" width="30" height="30" stroke="black" fill="red" fill-opacity="0.1" />
<rect x="430" y="68" width="30" height="30" stroke="black" fill="red" fill-opacity="0.1" />
<rect x="460" y="76" width="34" height="22" stroke="black" fill="red" fill-opacity="0.1" />
<rect x="62" y="98" width="62" height="30" stroke="black" fill="red" fill-opacity="0.1" />
<rect x="124" y="98" width="62" height="30" stroke="black" fill="red" fill-opacity="0.1" />
<rect x="186" y="98" width="62" height="30" stroke="black" fill="red" fill-opacity="0.1" />
<rect x="248" y="98" width="62" height="30" stroke="black" fill="red" fill-opacity="0.1" />
<rect x="310" y="98" width="62" height="30" stroke="black" fill="red" fill-opacity="0.1" />
<rect x="372" y="98" width="62" height="30" stroke="black" fill="red" fill-opacity="0.1" />
<rect x="434" y="98" width="62" height="30" stroke="black" fill="red" fill-opacity="0.1" />
<rect x="62" y="128" width="62" height="30" stroke="black" fill="red" fill-opacity="0.1" />
<rect x="124" y="128" width="62" height="30" stroke="black" fill="red" fill-opacity="0.1" />
<rect x="186" y="128" width="62" height="30" stroke="black" fill="red" fill-opacity="0.1" />
<rect x="248" y="128" width="62" height="30" stroke="black" fill="red" fill-opacity="0.1" />
<rect x="310" y="128" width="62" height="30" stroke="black" fill="red" fill-opacity="0.1" />
<rect x="372" y="128" width="62" height="30" stroke="black" fill="red" fill-opacity="0.1" />
<rect x="434" y="128" width="62" height="30" stroke="black" fill="red" fill-opacity="0.1" />
<rect x="62" y="158" width="62" height="30" stroke="black" fill="red" fill-opacity="0.1" />
<rect x="124" y="158" width="62" height="30" stroke="black" fill="red" fill-opacity="0.1" />
<rect x="186" y="158" width="62" height="30" stroke="black" fill="red" fill-opacity="0.1" />
<rect x="248" y="158" width="62" height="30" stroke="black" fill="red" fill-opacity="0.1" />
<rect x="310" y="158" width="62" height="30" stroke="black" fill="red" fill-opacity="0.1" />
<rect x="372" y="158" width="62" height="30" stroke="black" fill="red" fill-opacity="0.1" />
<rect x="434" y="158" width="62" height="30" stroke="black" fill="red" fill-opacity="0.1" />
<rect x="62" y="188" width="62" height="30" stroke="black" fill="red" fill-opacity="0.1" />
<rect x="124" y="188" width="62" height="30" stroke="black" fill="red" fill-opacity="0.1" />
<rect x="186" y="188" width="62" height="30" stroke="black" fill="red" fill-opacity="0.1" />
<rect x="248" y="188" width="62" height="30" stroke="black" fill="red" fill-opacity="0.1" />
<rect x="310" y="188" width="62" height="30" stroke="black" fill="red" fill-opacity="0.1" />
<rect x="372" y="188" width="62" height="30" stroke="black" fill="red" fill-opacity="0.1" />
<rect x="434" y="188" width="62" height="30" stroke="black" fill="red" fill-opacity="0.1" />
<rect x="62" y="218" width="62" height="30" stroke="black" fill="red" fill-opacity="0.1" />
<rect x="124" y="218" width="62" height="30" stroke="black" fill="red" fill-opacity="0.1" />
<rect x="186" y="218" width="62" height="30" stroke="black" fill="red" fill-opacity="0.1" />
<rect x="248" y="218" width="62" height="30" stroke="black" fill="red" fill-opacity="0.1" />
<rect x="310" y="218" width="62" height="30" stroke="black" fill="red" fill-opacity="0.1" />
<rect x="372" y="218" width="62" height="30" stroke="black" fill="red" fill-opacity="0.1" />
<rect x="434" y="218" width="62" height="30" stroke="black" fill="red" fill-opacity="0.1" />
<rect x="62" y="248" width="62" height="30" stroke="black" fill="red" fill-opacity="0.1" />
<rect x="124" y="248" width="62" height="30" stroke="black" fill="red" fill-opacity="0.1" />
<rect x="186" y="248" width="62" height="30" stroke="black" fill="red" fill-opacity="0.1" />
<rect x="248" y="248" width="62" height="30" stroke="black" fill="red" fill-opacity="0.1" />
<rect x="310" y="248" width="62" height="30" stroke="black" fill="red" fill-opacity="0.1" />
<rect x="372" y="248" width="62" height="30" stroke="black" fill="red" fill-opacity="0.1" />
<rect x="434" y="248" width="62" height="30" stroke="black" fill="red" fill-opacity="0.1" />
<rect x="30" y="278" width="30" height="34" stroke="black" fill="red" fill-opacity="0.1" />
<rect x="60" y="278" width="30" height="34" stroke="black" fill="red" fill-opacity="0.1" />
<rect x="90" y="278" width="30" height="34" stroke="black" fill="red" fill-opacity="0.1" />
<rect x="120" y="278" width="30" height="34" stroke="black" fill="red" fill-opacity="0.1" />
<rect x="150" y="278" width="30" height="34" stroke="black" fill="red" fill-opacity="0.1" />
<rect x="180" y="278" width="30" height="34" stroke="black" fill="red" fill-opacity="0.1" />
<rect x="210" y="278" width="30" height="34" stroke="black" fill="red" fill-opacity="0.1" />
<rect x="240" y="278" width="30" height="34" stroke="black" fill="red" fill-opacity="0.1" />
<rect x="270" y="282" width="62" height="30" stroke="black" fill="red" fill-opacity="0.1" />
<rect x="332" y="282" width="62" height="30" stroke="black" fill="red" fill-opacity="0.1" />
<rect x="394" y="282" width="62" height="30" stroke="black" fill="red" fill-opacity="0.1" />
<rect x="456" y="294" width="50" height="18" stroke="black" fill="red" fill-opacity="0.1" />
<rect x="34" y="312" width="34" height="34" stroke="black" fill="red" fill-opacity="0.1" />
<rect x="68" y="312" width="34" height="34" stroke="black" fill="red" fill-opacity="0.1" />
<rect x="102" y="312" width="34" height="34" stroke="black" fill="red" fill-opacity="0.1" />
<rect x="136" y="312" width="34" height="34" stroke="black" fill="red" fill-opacity="0.1" />
<rect x="170" y="312" width="34" height="34" stroke="black" fill="red" fill-opacity="0.1" />
<rect x="204" y="312" width="34" height="34" stroke="black" fill="red" fill-opacity="0.1" />
<rect x="238" y="312" width="34" height="34" stroke="black" fill="red" fill-opacity="0.1" />
<rect x="272" y="312" width="34" height="34" stroke="black" fill="red" fill-opacity="0.1" />
<rect x="306" y="312" width="34" height="34" stroke="black" fill="red" fill-opacity="0.1" />
<rect x="340" y="312" width="34" height="34" stroke="black" fill="red" fill-opacity="0.1" />
<rect x="374" y="312" width="34" height="34" stroke="black" fill="red" fill-opacity="0.1" />
<rect x="408" y="312" width="34" height="34" stroke="black" fill="red" fill-opacity="0.1" />
<rect x="442" y="312" width="34" height="34" stroke="black" fill="red" fill-opacity="0.1" />
<rect x="476" y="312" width="34" height="34" stroke="black" fill="red" fill-opacity="0.1" />
<rect x="30" y="350" width="42" height="38" stroke="black" fill="red" fill-opacity="0.1" />
<rect x="72" y="352" width="52" height="36" stroke="black" fill="red" fill-opacity="0.1" />
<rect x="124" y="353" width="52" height="35" stroke="black" fill="red" fill-opacity="0.1" />
<rect x="176" y="354" width="34" height="34" stroke="black" fill="red" fill-opacity="0.1" />
<rect x="210" y="354" width="34" height="34" stroke="black" fill="red" fill-opacity="0.1" />
<rect x="244" y="354" width="34" height="34" stroke="black" fill="red" fill-opacity="0.1" />
<rect x="278" y="354" width="34" height="34" stroke="black" fill="red" fill-opacity="0.1" />
<rect x="312" y="354" width="34" height="34" stroke="black" fill="red" fill-opacity="0.1" />
<rect x="346" y="354" width="34" height="34" stroke="black" fill="red" fill-opacity="0.1" />
<rect x="380" y="354" width="34" height="34" stroke="black" fill="red" fill-opacity="0.1" />
<rect x="414" y="354" width="34" height="34" stroke="black" fill="red" fill-opacity="0.1" />
<rect x="448" y="354" width="34" height="34" stroke="black" fill="red" fill-opacity="0.1" />
<rect x="482" y="354" width="30" height="34" stroke="black" fill="red" fill-opacity="0.1" />
<rect x="58" y="388" width="58" height="60" stroke="black" fill="red" fill-opacity="0.1" />
<rect x="116" y="388" width="58" height="60" stroke="black" fill="red" fill-opacity="0.1" />
<rect x="174" y="398" width="62" height="50" stroke="black" fill="red" fill-opacity="0.1" />
<rect x="236" y="398" width="62" height="50" stroke="black" fill="red" fill-opacity="0.1" />
<rect x="298" y="398" width="62" height="50" stroke="black" fill="red" fill-opacity="0.1" />
<rect x="360" y="398" width="62" height="50" stroke="black" fill="red" fill-opacity="0.1" />
<rect x="422" y="398" width="62" height="50" stroke="black" fill="red" fill-opacity="0.1" />
<rect x="64" y="452" width="58" height="60" stroke="black" fill="red" fill-opacity="0.1" />
<rect x="122" y="452" width="58" height="60" stroke="black" fill="red" fill-opacity="0.1" />
<rect x="180" y="452" width="58" height="60" stroke="black" fill="red" fill-opacity="0.1" />
<rect x="238" y="452" width="58" height="60" stroke="black" fill="red" fill-opacity="0.1" />
<rect x="296" y="452" width="58" height="60" stroke="black" fill="red" fill-opacity="0.1" />
<rect x="354" y="452" width="58" height="60" stroke="black" fill="red" fill-opacity="0.1" />
<rect x="412" y="452" width="58" height="60" stroke="black" fill="red" fill-opacity="0.1" />
<rect x="470" y="470" width="30" height="42" stroke="black" fill="red" fill-opacity="0.1" />
</svg>