<?xml version="1.0" encoding="UTF-8"?>
<svg xmlns="http://www.w3.org/2000/svg" xmlns:xlink="http://www.w3.org/1999/xlink"
     width="1024" height="512" viewBox="0 0 1024 512">
<defs>
</defs>
<rect x="0" y="382" width="208" height="130" stroke="black" fill="red" fill-opacity="0.1" />
<rect x="0" y="309" width="479" height="73" stroke="black" fill="red" fill-opacity="0.1" />
<rect x="0" y="275" width="306" height="34" stroke="black" fill="red" fill-opacity="0.1" />
<rect x="0" y="248" width="43" height="27" stroke="black" fill="red" fill-opacity="0.1" />
<rect x="0" y="227" width="466" height="21" stroke="black" fill="red" fill-opacity="0.1" />
<rect x="0" y="206" width="466" height="21" stroke="black" fill="red" fill-opacity="0.1" />
<rect x="0" y="190" width="279" height="16" stroke="black" fill="red" fill-opacity="0.1" />
<rect x="0" y="174" width="279" height="16" stroke="black" fill="red" fill-opacity="0.1" />
<rect x="0" y="158" width="279" height="16" stroke="black" fill="red" fill-opacity="0.1" />
<rect x="0" y="142" width="279" height="16" stroke="black" fill="red" fill-opacity="0.1" />
<rect x="0" y="126" width="279" height="16" stroke="black" fill="red" fill-opacity="0.1" />
<rect x="0" y="110" width="279" height="16" stroke="black" fill="red" fill-opacity="0.1" />
<rect x="0" y="94" width="253" height="16" stroke="black" fill="red" fill-opacity="0.1" />
<rect x="0" y="78" width="166" height="16" stroke="black" fill="red" fill-opacity="0.1" />
<rect x="0" y="62" width="166" height="16" stroke="black" fill="red" fill-opacity="0.1" />
<rect x="0" y="46" width="166" height="16" stroke="black" fill="red" fill-opacity="0.1" />
<rect x="0" y="30" width="166" height="16" stroke="black" fill="red" fill-opacity="0.1" />
<rect x="0" y="15" width="162" height="15" stroke="black" fill="red" fill-opacity="0.1" />
<rect x="162" y="15" width="80" height="15" stroke="black" fill="red" fill-opacity="0.1" />
<rect x="242" y="15" width="60" height="15" stroke="black" fill="red" fill-opacity="0.1" />
<rect x="302" y="15" width="27" height="15" stroke="black" fill="red" fill-opacity="0.1" />
<rect x="329" y="15" width="20" height="15" stroke="black" fill="red" fill-opacity="0.1" />
<rect x="349" y="15" width="18" height="15" stroke="black" fill="red" fill-opacity="0.1" />
<rect x="367" y="15" width="15" height="15" stroke="black" fill="red" fill-opacity="0.1" />
<rect x="382" y="15" width="14" height="15" stroke="black" fill="red" fill-opacity="0.1" />
<rect x="396" y="15" width="13" height="15" stroke="black" fill="red" fill-opacity="0.1" />
<rect x="166" y="30" width="166" height="16" stroke="black" fill="red" fill-opacity="0.1" />
<rect x="332" y="30" width="16" height="16" stroke="black" fill="red" fill-opacity="0.1" />
<rect x="348" y="31" width="272" height="15" stroke="black" fill="red" fill-opacity="0.1" />
<rect x="620" y="31" width="214" height="15" stroke="black" fill="red" fill-opacity="0.1" />
<rect x="834" y="31" width="162" height="15" stroke="black" fill="red" fill-opacity="0.1" />
<rect x="166" y="46" width="166" height="16" stroke="black" fill="red" fill-opacity="0.1" />
<rect x="332" y="46" width="166" height="16" stroke="black" fill="red" fill-opacity="0.1" />
<rect x="498" y="46" width="166" height="16" stroke="black" fill="red" fill-opacity="0.1" />
<rect x="664" y="46" width="166" height="16" stroke="black" fill="red" fill-opacity="0.1" />
<rect x="830" y="46" width="166" height="16" stroke="black" fill="red" fill-opacity="0.1" />
<rect x="166" y="62" width="166" height="16" stroke="black" fill="red" fill-opacity="0.1" />
<rect x="332" y="62" width="166" height="16" stroke="black" fill="red" fill-opacity="0.1" />
<rect x="498" y="62" width="166" height="16" stroke="black" fill="red" fill-opacity="0.1" />
<rect x="664" y="62" width="166" height="16" stroke="black" fill="red" fill-opacity="0.1" />
<rect x="830" y="62" width="166" height="16" stroke="black" fill="red" fill-opacity="0.1" />
<rect x="166" y="78" width="166" height="16" stroke="black" fill="red" fill-opacity="0.1" />
<rect x="332" y="78" width="166" height="16" stroke="black" fill="red" fill-opacity="0.1" />
<rect x="498" y="78" width="166" height="16" stroke="black" fill="red" fill-opacity="0.1" />
<rect x="664" y="78" width="166" height="16" stroke="black" fill="red" fill-opacity="0.1" />
<rect x="830" y="78" width="166" height="16" stroke="black" fill="red" fill-opacity="0.1" />
<rect x="253" y="94" width="178" height="16" stroke="black" fill="red" fill-opacity="0.1" />
<rect x="431" y="94" width="166" height="16" stroke="black" fill="red" fill-opacity="0.1" />
<rect x="597" y="94" width="166" height="16" stroke="black" fill="red" fill-opacity="0.1" />
<rect x="763" y="94" width="166" height="16" stroke="black" fill="red" fill-opacity="0.1" />
<rect x="279" y="110" width="279" height="16" stroke="black" fill="red" fill-opacity="0.1" />
<rect x="558" y="110" width="279" height="16" stroke="black" fill="red" fill-opacity="0.1" />
<rect x="837" y="110" width="166" height="16" stroke="black" fill="red" fill-opacity="0.1" />
<rect x="279" y="126" width="279" height="16" stroke="black" fill="red" fill-opacity="0.1" />
<rect x="558" y="126" width="279" height="16" stroke="black" fill="red" fill-opacity="0.1" />
<rect x="837" y="126" width="166" height="16" stroke="black" fill="red" fill-opacity="0.1" />
<rect x="279" y="142" width="279" height="16" stroke="black" fill="red" fill-opacity="0.1" />
<rect x="558" y="142" width="279" height="16" stroke="black" fill="red" fill-opacity="0.1" />
<rect x="837" y="142" width="166" height="16" stroke="black" fill="red" fill-opacity="0.1" />
<rect x="279" y="158" width="279" height="16" stroke="black" fill="red" fill-opacity="0.1" />
<rect x="558" y="158" width="279" height="16" stroke="black" fill="red" fill-opacity="0.1" />
<rect x="837" y="158" width="166" height="16" stroke="black" fill="red" fill-opacity="0.1" />
<rect x="279" y="174" width="279" height="16" stroke="black" fill="red" fill-opacity="0.1" />
<rect x="558" y="174" width="279" height="16" stroke="black" fill="red" fill-opacity="0.1" />
<rect x="837" y="174" width="166" height="16" stroke="black" fill="red" fill-opacity="0.1" />
<rect x="279" y="190" width="279" height="16" stroke="black" fill="red" fill-opacity="0.1" />
<rect x="558" y="190" width="279" height="16" stroke="black" fill="red" fill-opacity="0.1" />
<rect x="837" y="190" width="166" height="16" stroke="black" fill="red" fill-opacity="0.1" />
<rect x="466" y="207" width="128" height="20" stroke="black" fill="red" fill-opacity="0.1" />
<rect x="594" y="207" width="20" height="20" stroke="black" fill="red" fill-opacity="0.1" />
<rect x="614" y="207" width="18" height="20" stroke="black" fill="red" fill-opacity="0.1" />
<rect x="632" y="207" width="15" height="20" stroke="black" fill="red" fill-opacity="0.1" />
<rect x="647" y="207" width="14" height="20" stroke="black" fill="red" fill-opacity="0.1" />
<rect x="661" y="208" width="18" height="19" stroke="black" fill="red" fill-opacity="0.1" />
<rect x="679" y="209" width="100" height="18" stroke="black" fill="red" fill-opacity="0.1" />
<rect x="779" y="209" width="17" height="18" stroke="black" fill="red" fill-opacity="0.1" />
<rect x="796" y="209" width="11" height="18" stroke="black" fill="red" fill-opacity="0.1" />
<rect x="807" y="210" width="18" height="17" stroke="black" fill="red" fill-opacity="0.1" />
<rect x="825" y="210" width="15" height="17" stroke="black" fill="red" fill-opacity="0.1" />
<rect x="840" y="210" width="14" height="17" stroke="black" fill="red" fill-opacity="0.1" />
<rect x="854" y="211" width="166" height="16" stroke="black" fill="red" fill-opacity="0.1" />
<rect x="466" y="227" width="466" height="21" stroke="black" fill="red" fill-opacity="0.1" />
<rect x="43" y="249" width="40" height="26" stroke="black" fill="red" fill-opacity="0.1" />
<rect x="83" y="249" width="38" height="26" stroke="black" fill="red" fill-opacity="0.1" />
<rect x="121" y="249" width="38" height="26" stroke="black" fill="red" fill-opacity="0.1" />
<rect x="159" y="252" width="250" height="23" stroke="black" fill="red" fill-opacity="0.1" />
<rect x="409" y="252" width="250" height="23" stroke="black" fill="red" fill-opacity="0.1" />
<rect x="659" y="252" width="7" height="23" stroke="black" fill="red" fill-opacity="0.1" />
<rect x="666" y="253" width="156" height="22" stroke="black" fill="red" fill-opacity="0.1" />
<rect x="822" y="259" width="166" height="16" stroke="black" fill="red" fill-opacity="0.1" />
<rect x="306" y="275" width="58" height="34" stroke="black" fill="red" fill-opacity="0.1" />
<rect x="364" y="276" width="58" height="33" stroke="black" fill="red" fill-opacity="0.1" />
<rect x="422" y="276" width="58" height="33" stroke="black" fill="red" fill-opacity="0.1" />
<rect x="480" y="277" width="220" height="32" stroke="black" fill="red" fill-opacity="0.1" />
<rect x="700" y="277" width="42" height="32" stroke="black" fill="red" fill-opacity="0.1" />
<rect x="742" y="278" width="45" height="31" stroke="black" fill="red" fill-opacity="0.1" />
<rect x="787" y="278" width="44" height="31" stroke="black" fill="red" fill-opacity="0.1" />
<rect x="831" y="279" width="46" height="30" stroke="black" fill="red" fill-opacity="0.1" />
<rect x="877" y="279" width="44" height="30" stroke="black" fill="red" fill-opacity="0.1" />
<rect x="921" y="279" width="41" height="30" stroke="black" fill="red" fill-opacity="0.1" />
<rect x="962" y="280" width="51" height="29" stroke="black" fill="red" fill-opacity="0.1" />
<rect x="479" y="320" width="374" height="62" stroke="black" fill="red" fill-opacity="0.1" />
<rect x="853" y="321" width="44" height="61" stroke="black" fill="red" fill-opacity="0.1" />
<rect x="897" y="323" width="34" height="59" stroke="black" fill="red" fill-opacity="0.1" />
<rect x="931" y="324" width="35" height="58" stroke="black" fill="red" fill-opacity="0.1" />
<rect x="966" y="324" width="33" height="58" stroke="black" fill="red" fill-opacity="0.1" />
<rect x="999" y="337" width="2" height="45" stroke="black" fill="red" fill-opacity="0.1" />
<rect x="208" y="385" width="153" height="127" stroke="black" fill="red" fill-opacity="0.1" />
<rect x="361" y="394" width="385" height="118" stroke="black" fill="red" fill-opacity="0.1" />
<rect x="746" y="454" width="33" height="58" stroke="black" fill="red" fill-opacity="0.1" />
<rect x="779" y="472" width="49" height="40" stroke="black" fill="red" fill-opacity="0.1" />
<rect x="828" y="472" width="26" height="40" stroke="black" fill="red" fill-opacity="0.1" />
<rect x="854" y="472" width="25" height="40" stroke="black" fill="red" fill-opacity="0.1" />
<rect x="879" y="473" width="26" height="39" stroke="black" fill="red" fill-opacity="0.1" />
<rect x="905" y="474" width="26" height="38" stroke="black" fill="red" fill-opacity="0.1" />
<rect x="931" y="477" width="58" height="35" stroke="black" fill="red" fill-opacity="0.1" />
</svg>