<?xml version="1.0" encoding="UTF-8"?>
<svg xmlns="http://www.w3.org/2000/svg" xmlns:xlink="http://www.w3.org/1999/xlink"
     width="1024" height="1024" viewBox="0 0 1024 1024">
<defs>
</defs>
<rect x="296" y="648" width="60" height="128" stroke="black" fill="red" fill-opacity="0.1" id="0">
<title>sprite_23</title>
</rect>
<rect x="356" y="676" width="100" height="100" stroke="black" fill="red" fill-opacity="0.1" id="1">
<title>sprite_24</title>
</rect>
<rect x="456" y="676" width="100" height="100" stroke="black" fill="red" fill-opacity="0.1" id="2">
<title>sprite_25</title>
</rect>
<rect x="556" y="676" width="100" height="100" stroke="black" fill="red" fill-opacity="0.1" id="3">
<title>sprite_26</title>
</rect>
<rect x="656" y="676" width="100" height="100" stroke="black" fill="red" fill-opacity="0.1" id="4">
<title>sprite_27</title>
</rect>
<rect x="756" y="676" width="100" height="100" stroke="black" fill="red" fill-opacity="0.1" id="5">
<title>sprite_28</title>
</rect>
<rect x="856" y="676" width="100" height="100" stroke="black" fill="red" fill-opacity="0.1" id="6">
<title>sprite_29</title>
</rect>
<rect x="888" y="924" width="100" height="100" stroke="black" fill="red" fill-opacity="0.1" id="7">
<title>sprite_30</title>
</rect>
<rect x="0" y="428" width="100" height="100" stroke="black" fill="red" fill-opacity="0.1" id="8">
<title>sprite_31</title>
</rect>
<rect x="100" y="428" width="100" height="100" stroke="black" fill="red" fill-opacity="0.1" id="9">
<title>sprite_32</title>
</rect>
<rect x="200" y="428" width="100" height="100" stroke="black" fill="red" fill-opacity="0.1" id="10">
<title>sprite_33</title>
</rect>
<rect x="300" y="428" width="100" height="100" stroke="black" fill="red" fill-opacity="0.1" id="11">
<title>sprite_34</title>
</rect>
<rect x="400" y="428" width="100" height="100" stroke="black" fill="red" fill-opacity="0.1" id="12">
<title>sprite_35</title>
</rect>
<rect x="500" y="428" width="100" height="100" stroke="black" fill="red" fill-opacity="0.1" id="13">
<title>sprite_36</title>
</rect>
<rect x="600" y="428" width="100" height="100" stroke="black" fill="red" fill-opacity="0.1" id="14">
<title>sprite_37</title>
</rect>
<rect x="700" y="428" width="100" height="100" stroke="black" fill="red" fill-opacity="0.1" id="15">
<title>sprite_38</title>
</rect>
<rect x="800" y="428" width="100" height="100" stroke="black" fill="red" fill-opacity="0.1" id="16">
<title>sprite_39</title>
</rect>
<rect x="900" y="428" width="100" height="100" stroke="black" fill="red" fill-opacity="0.1" id="17">
<title>sprite_40</title>
</rect>
<rect x="0" y="328" width="100" height="100" stroke="black" fill="red" fill-opacity="0.1" id="18">
<title>sprite_41</title>
</rect>
<rect x="100" y="328" width="100" height="100" stroke="black" fill="red" fill-opacity="0.1" id="19">
<title>sprite_42</title>
</rect>
<rect x="200" y="328" width="100" height="100" stroke="black" fill="red" fill-opacity="0.1" id="20">
<title>sprite_43</title>
</rect>
<rect x="300" y="328" width="100" height="100" stroke="black" fill="red" fill-opacity="0.1" id="21">
<title>sprite_44</title>
</rect>
<rect x="400" y="328" width="100" height="100" stroke="black" fill="red" fill-opacity="0.1" id="22">
<title>sprite_45</title>
</rect>
<rect x="500" y="328" width="100" height="100" stroke="black" fill="red" fill-opacity="0.1" id="23">
<title>sprite_46</title>
</rect>
<rect x="600" y="328" width="100" height="100" stroke="black" fill="red" fill-opacity="0.1" id="24">
<title>sprite_47</title>
</rect>
<rect x="700" y="328" width="100" height="100" stroke="black" fill="red" fill-opacity="0.1" id="25">
<title>sprite_48</title>
</rect>
<rect x="800" y="328" width="100" height="100" stroke="black" fill="red" fill-opacity="0.1" id="26">
<title>sprite_49</title>
</rect>
<rect x="900" y="328" width="100" height="100" stroke="black" fill="red" fill-opacity="0.1" id="27">
<title>sprite_50</title>
</rect>
<rect x="0" y="228" width="100" height="100" stroke="black" fill="red" fill-opacity="0.1" id="28">
<title>sprite_51</title>
</rect>
<rect x="100" y="228" width="100" height="100" stroke="black" fill="red" fill-opacity="0.1" id="29">
<title>sprite_52</title>
</rect>
<rect x="200" y="228" width="100" height="100" stroke="black" fill="red" fill-opacity="0.1" id="30">
<title>sprite_53</title>
</rect>
<rect x="300" y="228" width="100" height="100" stroke="black" fill="red" fill-opacity="0.1" id="31">
<title>sprite_54</title>
</rect>
<rect x="400" y="228" width="100" height="100" stroke="black" fill="red" fill-opacity="0.1" id="32">
<title>sprite_55</title>
</rect>
<rect x="500" y="228" width="100" height="100" stroke="black" fill="red" fill-opacity="0.1" id="33">
<title>sprite_56</title>
</rect>
<rect x="600" y="228" width="100" height="100" stroke="black" fill="red" fill-opacity="0.1" id="34">
<title>sprite_57</title>
</rect>
<rect x="700" y="228" width="100" height="100" stroke="black" fill="red" fill-opacity="0.1" id="35">
<title>sprite_58</title>
</rect>
<rect x="800" y="228" width="100" height="100" stroke="black" fill="red" fill-opacity="0.1" id="36">
<title>sprite_59</title>
</rect>
<rect x="900" y="228" width="100" height="100" stroke="black" fill="red" fill-opacity="0.1" id="37">
<title>sprite_60</title>
</rect>
<rect x="0" y="128" width="100" height="100" stroke="black" fill="red" fill-opacity="0.1" id="38">
<title>sprite_61</title>
</rect>
<rect x="100" y="128" width="100" height="100" stroke="black" fill="red" fill-opacity="0.1" id="39">
<title>sprite_62</title>
</rect>
<rect x="200" y="128" width="100" height="100" stroke="black" fill="red" fill-opacity="0.1" id="40">
<title>sprite_63</title>
</rect>
<rect x="300" y="128" width="100" height="100" stroke="black" fill="red" fill-opacity="0.1" id="41">
<title>sprite_64</title>
</rect>
<rect x="400" y="128" width="100" height="100" stroke="black" fill="red" fill-opacity="0.1" id="42">
<title>sprite_65</title>
</rect>
<rect x="500" y="128" width="100" height="100" stroke="black" fill="red" fill-opacity="0.1" id="43">
<title>sprite_66</title>
</rect>
<rect x="600" y="128" width="100" height="100" stroke="black" fill="red" fill-opacity="0.1" id="44">
<title>sprite_67</title>
</rect>
<rect x="700" y="128" width="100" height="100" stroke="black" fill="red" fill-opacity="0.1" id="45">
<title>sprite_68</title>
</rect>
<rect x="800" y="128" width="100" height="100" stroke="black" fill="red" fill-opacity="0.1" id="46">
<title>sprite_69</title>
</rect>
<rect x="900" y="128" width="100" height="100" stroke="black" fill="red" fill-opacity="0.1" id="47">
<title>sprite_70</title>
</rect>
<rect x="0" y="28" width="100" height="100" stroke="black" fill="red" fill-opacity="0.1" id="48">
<title>sprite_71</title>
</rect>
<rect x="100" y="28" width="100" height="100" stroke="black" fill="red" fill-opacity="0.1" id="49">
<title>sprite_72</title>
</rect>
<rect x="200" y="28" width="100" height="100" stroke="black" fill="red" fill-opacity="0.1" id="50">
<title>sprite_73</title>
</rect>
<rect x="300" y="80" width="256" height="48" stroke="black" fill="red" fill-opacity="0.1" id="51">
<title>sprite_74</title>
</rect>
<rect x="556" y="112" width="140" height="16" stroke="black" fill="red" fill-opacity="0.1" id="52">
<title>sprite_75</title>
</rect>
</svg>