<?xml version="1.0" encoding="UTF-8"?>
<svg xmlns="http://www.w3.org/2000/svg" xmlns:xlink="http://www.w3.org/1999/xlink"
     width="4096" height="4096" viewBox="0 0 4096 4096">
<defs>
</defs>
<rect x="3712" y="1544" width="384" height="384" stroke="black" fill="red" fill-opacity="0.1" id="0">
<title>sprite_44</title>
</rect>
<rect x="2804" y="1536" width="384" height="384" stroke="black" fill="red" fill-opacity="0.1" id="1">
<title>sprite_45</title>
</rect>
<rect x="2404" y="1536" width="384" height="384" stroke="black" fill="red" fill-opacity="0.1" id="2">
<title>sprite_46</title>
</rect>
<rect x="2012" y="1536" width="384" height="384" stroke="black" fill="red" fill-opacity="0.1" id="3">
<title>sprite_47</title>
</rect>
<rect x="1620" y="1536" width="384" height="384" stroke="black" fill="red" fill-opacity="0.1" id="4">
<title>sprite_48</title>
</rect>
<rect x="1224" y="1536" width="384" height="384" stroke="black" fill="red" fill-opacity="0.1" id="5">
<title>sprite_49</title>
</rect>
<rect x="828" y="1536" width="384" height="384" stroke="black" fill="red" fill-opacity="0.1" id="6">
<title>sprite_50</title>
</rect>
<rect x="416" y="1536" width="384" height="384" stroke="black" fill="red" fill-opacity="0.1" id="7">
<title>sprite_51</title>
</rect>
<rect x="0" y="1536" width="384" height="384" stroke="black" fill="red" fill-opacity="0.1" id="8">
<title>sprite_52</title>
</rect>
<rect x="3548" y="1156" width="384" height="384" stroke="black" fill="red" fill-opacity="0.1" id="9">
<title>sprite_53</title>
</rect>
<rect x="3144" y="1152" width="384" height="384" stroke="black" fill="red" fill-opacity="0.1" id="10">
<title>sprite_54</title>
</rect>
<rect x="2748" y="1152" width="384" height="384" stroke="black" fill="red" fill-opacity="0.1" id="11">
<title>sprite_55</title>
</rect>
<rect x="2348" y="1152" width="384" height="384" stroke="black" fill="red" fill-opacity="0.1" id="12">
<title>sprite_56</title>
</rect>
<rect x="1960" y="1152" width="384" height="384" stroke="black" fill="red" fill-opacity="0.1" id="13">
<title>sprite_57</title>
</rect>
<rect x="1564" y="1152" width="384" height="384" stroke="black" fill="red" fill-opacity="0.1" id="14">
<title>sprite_58</title>
</rect>
<rect x="1172" y="1152" width="384" height="384" stroke="black" fill="red" fill-opacity="0.1" id="15">
<title>sprite_59</title>
</rect>
<rect x="784" y="1152" width="384" height="384" stroke="black" fill="red" fill-opacity="0.1" id="16">
<title>sprite_60</title>
</rect>
<rect x="388" y="1152" width="384" height="384" stroke="black" fill="red" fill-opacity="0.1" id="17">
<title>sprite_61</title>
</rect>
<rect x="0" y="1152" width="384" height="384" stroke="black" fill="red" fill-opacity="0.1" id="18">
<title>sprite_62</title>
</rect>
<rect x="3560" y="768" width="384" height="384" stroke="black" fill="red" fill-opacity="0.1" id="19">
<title>sprite_63</title>
</rect>
<rect x="3164" y="768" width="384" height="384" stroke="black" fill="red" fill-opacity="0.1" id="20">
<title>sprite_64</title>
</rect>
<rect x="2772" y="768" width="384" height="384" stroke="black" fill="red" fill-opacity="0.1" id="21">
<title>sprite_65</title>
</rect>
<rect x="2376" y="768" width="384" height="384" stroke="black" fill="red" fill-opacity="0.1" id="22">
<title>sprite_66</title>
</rect>
<rect x="1972" y="768" width="384" height="384" stroke="black" fill="red" fill-opacity="0.1" id="23">
<title>sprite_67</title>
</rect>
<rect x="1576" y="768" width="384" height="384" stroke="black" fill="red" fill-opacity="0.1" id="24">
<title>sprite_68</title>
</rect>
<rect x="1180" y="768" width="384" height="384" stroke="black" fill="red" fill-opacity="0.1" id="25">
<title>sprite_69</title>
</rect>
<rect x="776" y="768" width="384" height="384" stroke="black" fill="red" fill-opacity="0.1" id="26">
<title>sprite_70</title>
</rect>
<rect x="384" y="768" width="384" height="384" stroke="black" fill="red" fill-opacity="0.1" id="27">
<title>sprite_71</title>
</rect>
<rect x="0" y="768" width="384" height="384" stroke="black" fill="red" fill-opacity="0.1" id="28">
<title>sprite_72</title>
</rect>
<rect x="3532" y="384" width="384" height="384" stroke="black" fill="red" fill-opacity="0.1" id="29">
<title>sprite_73</title>
</rect>
<rect x="3140" y="384" width="384" height="384" stroke="black" fill="red" fill-opacity="0.1" id="30">
<title>sprite_74</title>
</rect>
<rect x="2756" y="384" width="384" height="384" stroke="black" fill="red" fill-opacity="0.1" id="31">
<title>sprite_75</title>
</rect>
<rect x="2356" y="384" width="384" height="384" stroke="black" fill="red" fill-opacity="0.1" id="32">
<title>sprite_76</title>
</rect>
<rect x="1964" y="384" width="384" height="384" stroke="black" fill="red" fill-opacity="0.1" id="33">
<title>sprite_77</title>
</rect>
<rect x="1568" y="384" width="384" height="384" stroke="black" fill="red" fill-opacity="0.1" id="34">
<title>sprite_78</title>
</rect>
<rect x="1176" y="384" width="384" height="384" stroke="black" fill="red" fill-opacity="0.1" id="35">
<title>sprite_79</title>
</rect>
<rect x="788" y="384" width="384" height="384" stroke="black" fill="red" fill-opacity="0.1" id="36">
<title>sprite_80</title>
</rect>
<rect x="388" y="384" width="384" height="384" stroke="black" fill="red" fill-opacity="0.1" id="37">
<title>sprite_81</title>
</rect>
<rect x="0" y="384" width="384" height="384" stroke="black" fill="red" fill-opacity="0.1" id="38">
<title>sprite_82</title>
</rect>
<rect x="3484" y="0" width="384" height="384" stroke="black" fill="red" fill-opacity="0.1" id="39">
<title>sprite_83</title>
</rect>
<rect x="3096" y="0" width="384" height="384" stroke="black" fill="red" fill-opacity="0.1" id="40">
<title>sprite_84</title>
</rect>
<rect x="2708" y="0" width="384" height="384" stroke="black" fill="red" fill-opacity="0.1" id="41">
<title>sprite_85</title>
</rect>
<rect x="2324" y="0" width="384" height="384" stroke="black" fill="red" fill-opacity="0.1" id="42">
<title>sprite_86</title>
</rect>
<rect x="1940" y="0" width="384" height="384" stroke="black" fill="red" fill-opacity="0.1" id="43">
<title>sprite_87</title>
</rect>
<rect x="1548" y="0" width="384" height="384" stroke="black" fill="red" fill-opacity="0.1" id="44">
<title>sprite_88</title>
</rect>
<rect x="1156" y="0" width="384" height="384" stroke="black" fill="red" fill-opacity="0.1" id="45">
<title>sprite_89</title>
</rect>
<rect x="772" y="0" width="384" height="384" stroke="black" fill="red" fill-opacity="0.1" id="46">
<title>sprite_90</title>
</rect>
<rect x="384" y="0" width="384" height="384" stroke="black" fill="red" fill-opacity="0.1" id="47">
<title>sprite_91</title>
</rect>
<rect x="0" y="0" width="384" height="384" stroke="black" fill="red" fill-opacity="0.1" id="48">
<title>sprite_92</title>
</rect>
</svg>