<?xml version="1.0" encoding="UTF-8"?>
<svg xmlns="http://www.w3.org/2000/svg" xmlns:xlink="http://www.w3.org/1999/xlink"
     width="1024" height="1024" viewBox="0 0 1024 1024">
<defs>
</defs>
<rect x="928" y="386" width="96" height="96" stroke="black" fill="red" fill-opacity="0.1" />
<rect x="701" y="384" width="96" height="96" stroke="black" fill="red" fill-opacity="0.1" />
<rect x="601" y="384" width="96" height="96" stroke="black" fill="red" fill-opacity="0.1" />
<rect x="503" y="384" width="96" height="96" stroke="black" fill="red" fill-opacity="0.1" />
<rect x="405" y="384" width="96" height="96" stroke="black" fill="red" fill-opacity="0.1" />
<rect x="306" y="384" width="96" height="96" stroke="black" fill="red" fill-opacity="0.1" />
<rect x="207" y="384" width="96" height="96" stroke="black" fill="red" fill-opacity="0.1" />
<rect x="104" y="384" width="96" height="96" stroke="black" fill="red" fill-opacity="0.1" />
<rect x="0" y="384" width="96" height="96" stroke="black" fill="red" fill-opacity="0.1" />
<rect x="887" y="289" width="96" height="96" stroke="black" fill="red" fill-opacity="0.1" />
<rect x="786" y="288" width="96" height="96" stroke="black" fill="red" fill-opacity="0.1" />
<rect x="687" y="288" width="96" height="96" stroke="black" fill="red" fill-opacity="0.1" />
<rect x="587" y="288" width="96" height="96" stroke="black" fill="red" fill-opacity="0.1" />
<rect x="490" y="288" width="96" height="96" stroke="black" fill="red" fill-opacity="0.1" />
<rect x="391" y="288" width="96" height="96" stroke="black" fill="red" fill-opacity="0.1" />
<rect x="293" y="288" width="96" height="96" stroke="black" fill="red" fill-opacity="0.1" />
<rect x="196" y="288" width="96" height="96" stroke="black" fill="red" fill-opacity="0.1" />
<rect x="97" y="288" width="96" height="96" stroke="black" fill="red" fill-opacity="0.1" />
<rect x="0" y="288" width="96" height="96" stroke="black" fill="red" fill-opacity="0.1" />
<rect x="890" y="192" width="96" height="96" stroke="black" fill="red" fill-opacity="0.1" />
<rect x="791" y="192" width="96" height="96" stroke="black" fill="red" fill-opacity="0.1" />
<rect x="693" y="192" width="96" height="96" stroke="black" fill="red" fill-opacity="0.1" />
<rect x="594" y="192" width="96" height="96" stroke="black" fill="red" fill-opacity="0.1" />
<rect x="493" y="192" width="96" height="96" stroke="black" fill="red" fill-opacity="0.1" />
<rect x="394" y="192" width="96" height="96" stroke="black" fill="red" fill-opacity="0.1" />
<rect x="295" y="192" width="96" height="96" stroke="black" fill="red" fill-opacity="0.1" />
<rect x="194" y="192" width="96" height="96" stroke="black" fill="red" fill-opacity="0.1" />
<rect x="96" y="192" width="96" height="96" stroke="black" fill="red" fill-opacity="0.1" />
<rect x="0" y="192" width="96" height="96" stroke="black" fill="red" fill-opacity="0.1" />
<rect x="883" y="96" width="96" height="96" stroke="black" fill="red" fill-opacity="0.1" />
<rect x="785" y="96" width="96" height="96" stroke="black" fill="red" fill-opacity="0.1" />
<rect x="689" y="96" width="96" height="96" stroke="black" fill="red" fill-opacity="0.1" />
<rect x="589" y="96" width="96" height="96" stroke="black" fill="red" fill-opacity="0.1" />
<rect x="491" y="96" width="96" height="96" stroke="black" fill="red" fill-opacity="0.1" />
<rect x="392" y="96" width="96" height="96" stroke="black" fill="red" fill-opacity="0.1" />
<rect x="294" y="96" width="96" height="96" stroke="black" fill="red" fill-opacity="0.1" />
<rect x="197" y="96" width="96" height="96" stroke="black" fill="red" fill-opacity="0.1" />
<rect x="97" y="96" width="96" height="96" stroke="black" fill="red" fill-opacity="0.1" />
<rect x="0" y="96" width="96" height="96" stroke="black" fill="red" fill-opacity="0.1" />
<rect x="871" y="0" width="96" height="96" stroke="black" fill="red" fill-opacity="0.1" />
<rect x="774" y="0" width="96" height="96" stroke="black" fill="red" fill-opacity="0.1" />
<rect x="677" y="0" width="96" height="96" stroke="black" fill="red" fill-opacity="0.1" />
<rect x="581" y="0" width="96" height="96" stroke="black" fill="red" fill-opacity="0.1" />
<rect x="485" y="0" width="96" height="96" stroke="black" fill="red" fill-opacity="0.1" />
<rect x="387" y="0" width="96" height="96" stroke="black" fill="red" fill-opacity="0.1" />
<rect x="289" y="0" width="96" height="96" stroke="black" fill="red" fill-opacity="0.1" />
<rect x="193" y="0" width="96" height="96" stroke="black" fill="red" fill-opacity="0.1" />
<rect x="96" y="0" width="96" height="96" stroke="black" fill="red" fill-opacity="0.1" />
<rect x="0" y="0" width="96" height="96" stroke="black" fill="red" fill-opacity="0.1" />
</svg>