<?xml version="1.0" encoding="UTF-8"?>
<svg xmlns="http://www.w3.org/2000/svg" xmlns:xlink="http://www.w3.org/1999/xlink"
     width="1024" height="1024" viewBox="0 0 1024 1024">
<defs>
</defs>
<rect x="928" y="386" width="96" height="96" stroke="black" fill="red" fill-opacity="0.1" id="0">
<title>sprite_44</title>
</rect>
<rect x="701" y="384" width="96" height="96" stroke="black" fill="red" fill-opacity="0.1" id="1">
<title>sprite_45</title>
</rect>
<rect x="601" y="384" width="96" height="96" stroke="black" fill="red" fill-opacity="0.1" id="2">
<title>sprite_46</title>
</rect>
<rect x="503" y="384" width="96" height="96" stroke="black" fill="red" fill-opacity="0.1" id="3">
<title>sprite_47</title>
</rect>
<rect x="405" y="384" width="96" height="96" stroke="black" fill="red" fill-opacity="0.1" id="4">
<title>sprite_48</title>
</rect>
<rect x="306" y="384" width="96" height="96" stroke="black" fill="red" fill-opacity="0.1" id="5">
<title>sprite_49</title>
</rect>
<rect x="207" y="384" width="96" height="96" stroke="black" fill="red" fill-opacity="0.1" id="6">
<title>sprite_50</title>
</rect>
<rect x="104" y="384" width="96" height="96" stroke="black" fill="red" fill-opacity="0.1" id="7">
<title>sprite_51</title>
</rect>
<rect x="0" y="384" width="96" height="96" stroke="black" fill="red" fill-opacity="0.1" id="8">
<title>sprite_52</title>
</rect>
<rect x="887" y="289" width="96" height="96" stroke="black" fill="red" fill-opacity="0.1" id="9">
<title>sprite_53</title>
</rect>
<rect x="786" y="288" width="96" height="96" stroke="black" fill="red" fill-opacity="0.1" id="10">
<title>sprite_54</title>
</rect>
<rect x="687" y="288" width="96" height="96" stroke="black" fill="red" fill-opacity="0.1" id="11">
<title>sprite_55</title>
</rect>
<rect x="587" y="288" width="96" height="96" stroke="black" fill="red" fill-opacity="0.1" id="12">
<title>sprite_56</title>
</rect>
<rect x="490" y="288" width="96" height="96" stroke="black" fill="red" fill-opacity="0.1" id="13">
<title>sprite_57</title>
</rect>
<rect x="391" y="288" width="96" height="96" stroke="black" fill="red" fill-opacity="0.1" id="14">
<title>sprite_58</title>
</rect>
<rect x="293" y="288" width="96" height="96" stroke="black" fill="red" fill-opacity="0.1" id="15">
<title>sprite_59</title>
</rect>
<rect x="196" y="288" width="96" height="96" stroke="black" fill="red" fill-opacity="0.1" id="16">
<title>sprite_60</title>
</rect>
<rect x="97" y="288" width="96" height="96" stroke="black" fill="red" fill-opacity="0.1" id="17">
<title>sprite_61</title>
</rect>
<rect x="0" y="288" width="96" height="96" stroke="black" fill="red" fill-opacity="0.1" id="18">
<title>sprite_62</title>
</rect>
<rect x="890" y="192" width="96" height="96" stroke="black" fill="red" fill-opacity="0.1" id="19">
<title>sprite_63</title>
</rect>
<rect x="791" y="192" width="96" height="96" stroke="black" fill="red" fill-opacity="0.1" id="20">
<title>sprite_64</title>
</rect>
<rect x="693" y="192" width="96" height="96" stroke="black" fill="red" fill-opacity="0.1" id="21">
<title>sprite_65</title>
</rect>
<rect x="594" y="192" width="96" height="96" stroke="black" fill="red" fill-opacity="0.1" id="22">
<title>sprite_66</title>
</rect>
<rect x="493" y="192" width="96" height="96" stroke="black" fill="red" fill-opacity="0.1" id="23">
<title>sprite_67</title>
</rect>
<rect x="394" y="192" width="96" height="96" stroke="black" fill="red" fill-opacity="0.1" id="24">
<title>sprite_68</title>
</rect>
<rect x="295" y="192" width="96" height="96" stroke="black" fill="red" fill-opacity="0.1" id="25">
<title>sprite_69</title>
</rect>
<rect x="194" y="192" width="96" height="96" stroke="black" fill="red" fill-opacity="0.1" id="26">
<title>sprite_70</title>
</rect>
<rect x="96" y="192" width="96" height="96" stroke="black" fill="red" fill-opacity="0.1" id="27">
<title>sprite_71</title>
</rect>
<rect x="0" y="192" width="96" height="96" stroke="black" fill="red" fill-opacity="0.1" id="28">
<title>sprite_72</title>
</rect>
<rect x="883" y="96" width="96" height="96" stroke="black" fill="red" fill-opacity="0.1" id="29">
<title>sprite_73</title>
</rect>
<rect x="785" y="96" width="96" height="96" stroke="black" fill="red" fill-opacity="0.1" id="30">
<title>sprite_74</title>
</rect>
<rect x="689" y="96" width="96" height="96" stroke="black" fill="red" fill-opacity="0.1" id="31">
<title>sprite_75</title>
</rect>
<rect x="589" y="96" width="96" height="96" stroke="black" fill="red" fill-opacity="0.1" id="32">
<title>sprite_76</title>
</rect>
<rect x="491" y="96" width="96" height="96" stroke="black" fill="red" fill-opacity="0.1" id="33">
<title>sprite_77</title>
</rect>
<rect x="392" y="96" width="96" height="96" stroke="black" fill="red" fill-opacity="0.1" id="34">
<title>sprite_78</title>
</rect>
<rect x="294" y="96" width="96" height="96" stroke="black" fill="red" fill-opacity="0.1" id="35">
<title>sprite_79</title>
</rect>
<rect x="197" y="96" width="96" height="96" stroke="black" fill="red" fill-opacity="0.1" id="36">
<title>sprite_80</title>
</rect>
<rect x="97" y="96" width="96" height="96" stroke="black" fill="red" fill-opacity="0.1" id="37">
<title>sprite_81</title>
</rect>
<rect x="0" y="96" width="96" height="96" stroke="black" fill="red" fill-opacity="0.1" id="38">
<title>sprite_82</title>
</rect>
<rect x="871" y="0" width="96" height="96" stroke="black" fill="red" fill-opacity="0.1" id="39">
<title>sprite_83</title>
</rect>
<rect x="774" y="0" width="96" height="96" stroke="black" fill="red" fill-opacity="0.1" id="40">
<title>sprite_84</title>
</rect>
<rect x="677" y="0" width="96" height="96" stroke="black" fill="red" fill-opacity="0.1" id="41">
<title>sprite_85</title>
</rect>
<rect x="581" y="0" width="96" height="96" stroke="black" fill="red" fill-opacity="0.1" id="42">
<title>sprite_86</title>
</rect>
<rect x="485" y="0" width="96" height="96" stroke="black" fill="red" fill-opacity="0.1" id="43">
<title>sprite_87</title>
</rect>
<rect x="387" y="0" width="96" height="96" stroke="black" fill="red" fill-opacity="0.1" id="44">
<title>sprite_88</title>
</rect>
<rect x="289" y="0" width="96" height="96" stroke="black" fill="red" fill-opacity="0.1" id="45">
<title>sprite_89</title>
</rect>
<rect x="193" y="0" width="96" height="96" stroke="black" fill="red" fill-opacity="0.1" id="46">
<title>sprite_90</title>
</rect>
<rect x="96" y="0" width="96" height="96" stroke="black" fill="red" fill-opacity="0.1" id="47">
<title>sprite_91</title>
</rect>
<rect x="0" y="0" width="96" height="96" stroke="black" fill="red" fill-opacity="0.1" id="48">
<title>sprite_92</title>
</rect>
</svg>