<?xml version="1.0" encoding="UTF-8"?>
<svg xmlns="http://www.w3.org/2000/svg" xmlns:xlink="http://www.w3.org/1999/xlink"
     width="256" height="256" viewBox="0 0 256 256">
<defs>
</defs>
<rect x="147" y="208" width="80" height="48" stroke="black" fill="red" fill-opacity="0.1" id="0">
<title>sprite_0</title>
</rect>
<rect x="0" y="208" width="80" height="48" stroke="black" fill="red" fill-opacity="0.1" id="1">
<title>sprite_1</title>
</rect>
<rect x="83" y="208" width="64" height="48" stroke="black" fill="red" fill-opacity="0.1" id="2">
<title>sprite_2</title>
</rect>
<rect x="0" y="157" width="60" height="48" stroke="black" fill="red" fill-opacity="0.1" id="3">
<title>sprite_3</title>
</rect>
<rect x="200" y="48" width="50" height="48" stroke="black" fill="red" fill-opacity="0.1" id="4">
<title>sprite_4</title>
</rect>
<rect x="150" y="48" width="50" height="48" stroke="black" fill="red" fill-opacity="0.1" id="5">
<title>sprite_5</title>
</rect>
<rect x="100" y="48" width="50" height="48" stroke="black" fill="red" fill-opacity="0.1" id="6">
<title>sprite_6</title>
</rect>
<rect x="50" y="48" width="50" height="48" stroke="black" fill="red" fill-opacity="0.1" id="7">
<title>sprite_7</title>
</rect>
<rect x="0" y="48" width="50" height="48" stroke="black" fill="red" fill-opacity="0.1" id="8">
<title>sprite_8</title>
</rect>
<rect x="200" y="0" width="50" height="48" stroke="black" fill="red" fill-opacity="0.1" id="9">
<title>sprite_9</title>
</rect>
<rect x="150" y="0" width="50" height="48" stroke="black" fill="red" fill-opacity="0.1" id="10">
<title>sprite_10</title>
</rect>
<rect x="100" y="0" width="50" height="48" stroke="black" fill="red" fill-opacity="0.1" id="11">
<title>sprite_11</title>
</rect>
<rect x="50" y="0" width="50" height="48" stroke="black" fill="red" fill-opacity="0.1" id="12">
<title>sprite_12</title>
</rect>
<rect x="0" y="0" width="50" height="48" stroke="black" fill="red" fill-opacity="0.1" id="13">
<title>sprite_13</title>
</rect>
<rect x="130" y="164" width="33" height="32" stroke="black" fill="red" fill-opacity="0.1" id="14">
<title>sprite_14</title>
</rect>
<rect x="96" y="164" width="33" height="32" stroke="black" fill="red" fill-opacity="0.1" id="15">
<title>sprite_15</title>
</rect>
<rect x="63" y="163" width="33" height="32" stroke="black" fill="red" fill-opacity="0.1" id="16">
<title>sprite_16</title>
</rect>
<rect x="220" y="103" width="33" height="32" stroke="black" fill="red" fill-opacity="0.1" id="17">
<title>sprite_17</title>
</rect>
<rect x="182" y="103" width="33" height="32" stroke="black" fill="red" fill-opacity="0.1" id="18">
<title>sprite_18</title>
</rect>
<rect x="146" y="103" width="33" height="32" stroke="black" fill="red" fill-opacity="0.1" id="19">
<title>sprite_19</title>
</rect>
<rect x="109" y="102" width="33" height="32" stroke="black" fill="red" fill-opacity="0.1" id="20">
<title>sprite_20</title>
</rect>
<rect x="73" y="102" width="33" height="32" stroke="black" fill="red" fill-opacity="0.1" id="21">
<title>sprite_21</title>
</rect>
<rect x="36" y="102" width="33" height="32" stroke="black" fill="red" fill-opacity="0.1" id="22">
<title>sprite_22</title>
</rect>
<rect x="0" y="102" width="33" height="32" stroke="black" fill="red" fill-opacity="0.1" id="23">
<title>sprite_23</title>
</rect>
<rect x="209" y="138" width="18" height="18" stroke="black" fill="red" fill-opacity="0.1" id="24">
<title>sprite_24</title>
</rect>
<rect x="187" y="138" width="18" height="18" stroke="black" fill="red" fill-opacity="0.1" id="25">
<title>sprite_25</title>
</rect>
<rect x="163" y="139" width="18" height="18" stroke="black" fill="red" fill-opacity="0.1" id="26">
<title>sprite_26</title>
</rect>
<rect x="141" y="139" width="18" height="18" stroke="black" fill="red" fill-opacity="0.1" id="27">
<title>sprite_27</title>
</rect>
<rect x="118" y="139" width="18" height="18" stroke="black" fill="red" fill-opacity="0.1" id="28">
<title>sprite_28</title>
</rect>
<rect x="94" y="139" width="18" height="18" stroke="black" fill="red" fill-opacity="0.1" id="29">
<title>sprite_29</title>
</rect>
<rect x="71" y="139" width="18" height="18" stroke="black" fill="red" fill-opacity="0.1" id="30">
<title>sprite_30</title>
</rect>
<rect x="47" y="139" width="18" height="18" stroke="black" fill="red" fill-opacity="0.1" id="31">
<title>sprite_31</title>
</rect>
<rect x="23" y="139" width="18" height="18" stroke="black" fill="red" fill-opacity="0.1" id="32">
<title>sprite_32</title>
</rect>
<rect x="0" y="139" width="18" height="18" stroke="black" fill="red" fill-opacity="0.1" id="33">
<title>sprite_33</title>
</rect>
<rect x="177" y="181" width="33" height="16" stroke="black" fill="red" fill-opacity="0.1" id="34">
<title>sprite_34</title>
</rect>
<rect x="180" y="164" width="33" height="16" stroke="black" fill="red" fill-opacity="0.1" id="35">
<title>sprite_35</title>
</rect>
</svg>