<?xml version="1.0" encoding="UTF-8"?>
<svg xmlns="http://www.w3.org/2000/svg" xmlns:xlink="http://www.w3.org/1999/xlink"
     width="1024" height="1024" viewBox="0 0 1024 1024">
<defs>
</defs>
<rect x="0" y="666" width="284" height="358" stroke="black" fill="red" fill-opacity="0.1" id="0">
<title>sprite_0</title>
</rect>
<rect x="0" y="346" width="256" height="320" stroke="black" fill="red" fill-opacity="0.1" id="1">
<title>sprite_1</title>
</rect>
<rect x="0" y="252" width="126" height="94" stroke="black" fill="red" fill-opacity="0.1" id="2">
<title>sprite_2</title>
</rect>
<rect x="0" y="190" width="126" height="62" stroke="black" fill="red" fill-opacity="0.1" id="3">
<title>sprite_3</title>
</rect>
<rect x="0" y="128" width="126" height="62" stroke="black" fill="red" fill-opacity="0.1" id="4">
<title>sprite_4</title>
</rect>
<rect x="0" y="66" width="126" height="62" stroke="black" fill="red" fill-opacity="0.1" id="5">
<title>sprite_5</title>
</rect>
<rect x="0" y="4" width="62" height="62" stroke="black" fill="red" fill-opacity="0.1" id="6">
<title>sprite_6</title>
</rect>
<rect x="62" y="4" width="62" height="62" stroke="black" fill="red" fill-opacity="0.1" id="7">
<title>sprite_7</title>
</rect>
<rect x="124" y="4" width="62" height="62" stroke="black" fill="red" fill-opacity="0.1" id="8">
<title>sprite_8</title>
</rect>
<rect x="186" y="4" width="62" height="62" stroke="black" fill="red" fill-opacity="0.1" id="9">
<title>sprite_9</title>
</rect>
<rect x="248" y="4" width="62" height="62" stroke="black" fill="red" fill-opacity="0.1" id="10">
<title>sprite_10</title>
</rect>
<rect x="310" y="4" width="62" height="62" stroke="black" fill="red" fill-opacity="0.1" id="11">
<title>sprite_11</title>
</rect>
<rect x="372" y="4" width="62" height="62" stroke="black" fill="red" fill-opacity="0.1" id="12">
<title>sprite_12</title>
</rect>
<rect x="434" y="4" width="62" height="62" stroke="black" fill="red" fill-opacity="0.1" id="13">
<title>sprite_13</title>
</rect>
<rect x="496" y="4" width="62" height="62" stroke="black" fill="red" fill-opacity="0.1" id="14">
<title>sprite_14</title>
</rect>
<rect x="558" y="4" width="62" height="62" stroke="black" fill="red" fill-opacity="0.1" id="15">
<title>sprite_15</title>
</rect>
<rect x="620" y="4" width="62" height="62" stroke="black" fill="red" fill-opacity="0.1" id="16">
<title>sprite_16</title>
</rect>
<rect x="682" y="4" width="62" height="62" stroke="black" fill="red" fill-opacity="0.1" id="17">
<title>sprite_17</title>
</rect>
<rect x="744" y="4" width="62" height="62" stroke="black" fill="red" fill-opacity="0.1" id="18">
<title>sprite_18</title>
</rect>
<rect x="806" y="4" width="62" height="62" stroke="black" fill="red" fill-opacity="0.1" id="19">
<title>sprite_19</title>
</rect>
<rect x="868" y="4" width="62" height="62" stroke="black" fill="red" fill-opacity="0.1" id="20">
<title>sprite_20</title>
</rect>
<rect x="930" y="4" width="62" height="62" stroke="black" fill="red" fill-opacity="0.1" id="21">
<title>sprite_21</title>
</rect>
<rect x="126" y="66" width="126" height="62" stroke="black" fill="red" fill-opacity="0.1" id="22">
<title>sprite_22</title>
</rect>
<rect x="252" y="66" width="94" height="62" stroke="black" fill="red" fill-opacity="0.1" id="23">
<title>sprite_23</title>
</rect>
<rect x="346" y="66" width="62" height="62" stroke="black" fill="red" fill-opacity="0.1" id="24">
<title>sprite_24</title>
</rect>
<rect x="408" y="66" width="62" height="62" stroke="black" fill="red" fill-opacity="0.1" id="25">
<title>sprite_25</title>
</rect>
<rect x="470" y="66" width="62" height="62" stroke="black" fill="red" fill-opacity="0.1" id="26">
<title>sprite_26</title>
</rect>
<rect x="532" y="66" width="62" height="62" stroke="black" fill="red" fill-opacity="0.1" id="27">
<title>sprite_27</title>
</rect>
<rect x="594" y="66" width="62" height="62" stroke="black" fill="red" fill-opacity="0.1" id="28">
<title>sprite_28</title>
</rect>
<rect x="656" y="66" width="62" height="62" stroke="black" fill="red" fill-opacity="0.1" id="29">
<title>sprite_29</title>
</rect>
<rect x="718" y="66" width="62" height="62" stroke="black" fill="red" fill-opacity="0.1" id="30">
<title>sprite_30</title>
</rect>
<rect x="780" y="66" width="62" height="62" stroke="black" fill="red" fill-opacity="0.1" id="31">
<title>sprite_31</title>
</rect>
<rect x="842" y="66" width="62" height="62" stroke="black" fill="red" fill-opacity="0.1" id="32">
<title>sprite_32</title>
</rect>
<rect x="904" y="66" width="62" height="62" stroke="black" fill="red" fill-opacity="0.1" id="33">
<title>sprite_33</title>
</rect>
<rect x="966" y="106" width="34" height="22" stroke="black" fill="red" fill-opacity="0.1" id="34">
<title>sprite_34</title>
</rect>
<rect x="126" y="128" width="126" height="62" stroke="black" fill="red" fill-opacity="0.1" id="35">
<title>sprite_35</title>
</rect>
<rect x="252" y="128" width="126" height="62" stroke="black" fill="red" fill-opacity="0.1" id="36">
<title>sprite_36</title>
</rect>
<rect x="378" y="128" width="126" height="62" stroke="black" fill="red" fill-opacity="0.1" id="37">
<title>sprite_37</title>
</rect>
<rect x="504" y="128" width="126" height="62" stroke="black" fill="red" fill-opacity="0.1" id="38">
<title>sprite_38</title>
</rect>
<rect x="630" y="128" width="126" height="62" stroke="black" fill="red" fill-opacity="0.1" id="39">
<title>sprite_39</title>
</rect>
<rect x="756" y="128" width="126" height="62" stroke="black" fill="red" fill-opacity="0.1" id="40">
<title>sprite_40</title>
</rect>
<rect x="882" y="128" width="126" height="62" stroke="black" fill="red" fill-opacity="0.1" id="41">
<title>sprite_41</title>
</rect>
<rect x="126" y="190" width="126" height="62" stroke="black" fill="red" fill-opacity="0.1" id="42">
<title>sprite_42</title>
</rect>
<rect x="252" y="190" width="126" height="62" stroke="black" fill="red" fill-opacity="0.1" id="43">
<title>sprite_43</title>
</rect>
<rect x="378" y="190" width="126" height="62" stroke="black" fill="red" fill-opacity="0.1" id="44">
<title>sprite_44</title>
</rect>
<rect x="504" y="190" width="126" height="62" stroke="black" fill="red" fill-opacity="0.1" id="45">
<title>sprite_45</title>
</rect>
<rect x="630" y="190" width="126" height="62" stroke="black" fill="red" fill-opacity="0.1" id="46">
<title>sprite_46</title>
</rect>
<rect x="756" y="190" width="126" height="62" stroke="black" fill="red" fill-opacity="0.1" id="47">
<title>sprite_47</title>
</rect>
<rect x="882" y="190" width="126" height="62" stroke="black" fill="red" fill-opacity="0.1" id="48">
<title>sprite_48</title>
</rect>
<rect x="126" y="252" width="126" height="94" stroke="black" fill="red" fill-opacity="0.1" id="49">
<title>sprite_49</title>
</rect>
<rect x="252" y="268" width="262" height="78" stroke="black" fill="red" fill-opacity="0.1" id="50">
<title>sprite_50</title>
</rect>
<rect x="514" y="282" width="254" height="64" stroke="black" fill="red" fill-opacity="0.1" id="51">
<title>sprite_51</title>
</rect>
<rect x="514" y="252" width="126" height="30" stroke="black" fill="red" fill-opacity="0.1" id="52">
<title>sprite_52</title>
</rect>
<rect x="640" y="252" width="126" height="30" stroke="black" fill="red" fill-opacity="0.1" id="53">
<title>sprite_53</title>
</rect>
<rect x="766" y="252" width="126" height="30" stroke="black" fill="red" fill-opacity="0.1" id="54">
<title>sprite_54</title>
</rect>
<rect x="892" y="252" width="126" height="30" stroke="black" fill="red" fill-opacity="0.1" id="55">
<title>sprite_55</title>
</rect>
<rect x="768" y="284" width="126" height="62" stroke="black" fill="red" fill-opacity="0.1" id="56">
<title>sprite_56</title>
</rect>
<rect x="894" y="284" width="126" height="62" stroke="black" fill="red" fill-opacity="0.1" id="57">
<title>sprite_57</title>
</rect>
<rect x="256" y="540" width="126" height="126" stroke="black" fill="red" fill-opacity="0.1" id="58">
<title>sprite_58</title>
</rect>
<rect x="256" y="478" width="62" height="62" stroke="black" fill="red" fill-opacity="0.1" id="59">
<title>sprite_59</title>
</rect>
<rect x="256" y="427" width="158" height="51" stroke="black" fill="red" fill-opacity="0.1" id="60">
<title>sprite_60</title>
</rect>
<rect x="256" y="397" width="126" height="30" stroke="black" fill="red" fill-opacity="0.1" id="61">
<title>sprite_61</title>
</rect>
<rect x="256" y="367" width="126" height="30" stroke="black" fill="red" fill-opacity="0.1" id="62">
<title>sprite_62</title>
</rect>
<rect x="256" y="349" width="142" height="18" stroke="black" fill="red" fill-opacity="0.1" id="63">
<title>sprite_63</title>
</rect>
<rect x="398" y="349" width="142" height="18" stroke="black" fill="red" fill-opacity="0.1" id="64">
<title>sprite_64</title>
</rect>
<rect x="540" y="349" width="142" height="18" stroke="black" fill="red" fill-opacity="0.1" id="65">
<title>sprite_65</title>
</rect>
<rect x="682" y="349" width="142" height="18" stroke="black" fill="red" fill-opacity="0.1" id="66">
<title>sprite_66</title>
</rect>
<rect x="824" y="349" width="142" height="18" stroke="black" fill="red" fill-opacity="0.1" id="67">
<title>sprite_67</title>
</rect>
<rect x="382" y="367" width="126" height="30" stroke="black" fill="red" fill-opacity="0.1" id="68">
<title>sprite_68</title>
</rect>
<rect x="508" y="367" width="126" height="30" stroke="black" fill="red" fill-opacity="0.1" id="69">
<title>sprite_69</title>
</rect>
<rect x="634" y="367" width="126" height="30" stroke="black" fill="red" fill-opacity="0.1" id="70">
<title>sprite_70</title>
</rect>
<rect x="760" y="367" width="126" height="30" stroke="black" fill="red" fill-opacity="0.1" id="71">
<title>sprite_71</title>
</rect>
<rect x="886" y="367" width="126" height="30" stroke="black" fill="red" fill-opacity="0.1" id="72">
<title>sprite_72</title>
</rect>
<rect x="382" y="397" width="126" height="30" stroke="black" fill="red" fill-opacity="0.1" id="73">
<title>sprite_73</title>
</rect>
<rect x="508" y="397" width="126" height="30" stroke="black" fill="red" fill-opacity="0.1" id="74">
<title>sprite_74</title>
</rect>
<rect x="634" y="397" width="126" height="30" stroke="black" fill="red" fill-opacity="0.1" id="75">
<title>sprite_75</title>
</rect>
<rect x="760" y="397" width="126" height="30" stroke="black" fill="red" fill-opacity="0.1" id="76">
<title>sprite_76</title>
</rect>
<rect x="886" y="397" width="126" height="30" stroke="black" fill="red" fill-opacity="0.1" id="77">
<title>sprite_77</title>
</rect>
<rect x="414" y="427" width="158" height="51" stroke="black" fill="red" fill-opacity="0.1" id="78">
<title>sprite_78</title>
</rect>
<rect x="572" y="428" width="62" height="50" stroke="black" fill="red" fill-opacity="0.1" id="79">
<title>sprite_79</title>
</rect>
<rect x="634" y="428" width="62" height="50" stroke="black" fill="red" fill-opacity="0.1" id="80">
<title>sprite_80</title>
</rect>
<rect x="696" y="436" width="66" height="42" stroke="black" fill="red" fill-opacity="0.1" id="81">
<title>sprite_81</title>
</rect>
<rect x="762" y="436" width="66" height="42" stroke="black" fill="red" fill-opacity="0.1" id="82">
<title>sprite_82</title>
</rect>
<rect x="828" y="444" width="66" height="34" stroke="black" fill="red" fill-opacity="0.1" id="83">
<title>sprite_83</title>
</rect>
<rect x="894" y="444" width="66" height="34" stroke="black" fill="red" fill-opacity="0.1" id="84">
<title>sprite_84</title>
</rect>
<rect x="960" y="448" width="62" height="30" stroke="black" fill="red" fill-opacity="0.1" id="85">
<title>sprite_85</title>
</rect>
<rect x="318" y="478" width="62" height="62" stroke="black" fill="red" fill-opacity="0.1" id="86">
<title>sprite_86</title>
</rect>
<rect x="380" y="478" width="62" height="62" stroke="black" fill="red" fill-opacity="0.1" id="87">
<title>sprite_87</title>
</rect>
<rect x="442" y="478" width="62" height="62" stroke="black" fill="red" fill-opacity="0.1" id="88">
<title>sprite_88</title>
</rect>
<rect x="504" y="478" width="62" height="62" stroke="black" fill="red" fill-opacity="0.1" id="89">
<title>sprite_89</title>
</rect>
<rect x="566" y="478" width="62" height="62" stroke="black" fill="red" fill-opacity="0.1" id="90">
<title>sprite_90</title>
</rect>
<rect x="628" y="478" width="62" height="62" stroke="black" fill="red" fill-opacity="0.1" id="91">
<title>sprite_91</title>
</rect>
<rect x="690" y="478" width="62" height="62" stroke="black" fill="red" fill-opacity="0.1" id="92">
<title>sprite_92</title>
</rect>
<rect x="752" y="478" width="62" height="62" stroke="black" fill="red" fill-opacity="0.1" id="93">
<title>sprite_93</title>
</rect>
<rect x="814" y="478" width="62" height="62" stroke="black" fill="red" fill-opacity="0.1" id="94">
<title>sprite_94</title>
</rect>
<rect x="876" y="510" width="126" height="30" stroke="black" fill="red" fill-opacity="0.1" id="95">
<title>sprite_95</title>
</rect>
<rect x="876" y="480" width="126" height="30" stroke="black" fill="red" fill-opacity="0.1" id="96">
<title>sprite_96</title>
</rect>
<rect x="382" y="540" width="126" height="126" stroke="black" fill="red" fill-opacity="0.1" id="97">
<title>sprite_97</title>
</rect>
<rect x="508" y="540" width="126" height="126" stroke="black" fill="red" fill-opacity="0.1" id="98">
<title>sprite_98</title>
</rect>
<rect x="634" y="572" width="126" height="94" stroke="black" fill="red" fill-opacity="0.1" id="99">
<title>sprite_99</title>
</rect>
<rect x="634" y="542" width="126" height="30" stroke="black" fill="red" fill-opacity="0.1" id="100">
<title>sprite_100</title>
</rect>
<rect x="760" y="542" width="82" height="30" stroke="black" fill="red" fill-opacity="0.1" id="101">
<title>sprite_101</title>
</rect>
<rect x="842" y="542" width="62" height="30" stroke="black" fill="red" fill-opacity="0.1" id="102">
<title>sprite_102</title>
</rect>
<rect x="904" y="542" width="62" height="30" stroke="black" fill="red" fill-opacity="0.1" id="103">
<title>sprite_103</title>
</rect>
<rect x="966" y="550" width="34" height="22" stroke="black" fill="red" fill-opacity="0.1" id="104">
<title>sprite_104</title>
</rect>
<rect x="760" y="572" width="126" height="94" stroke="black" fill="red" fill-opacity="0.1" id="105">
<title>sprite_105</title>
</rect>
<rect x="886" y="572" width="126" height="94" stroke="black" fill="red" fill-opacity="0.1" id="106">
<title>sprite_106</title>
</rect>
<rect x="284" y="704" width="256" height="320" stroke="black" fill="red" fill-opacity="0.1" id="107">
<title>sprite_107</title>
</rect>
<rect x="284" y="674" width="62" height="30" stroke="black" fill="red" fill-opacity="0.1" id="108">
<title>sprite_108</title>
</rect>
<rect x="346" y="678" width="126" height="26" stroke="black" fill="red" fill-opacity="0.1" id="109">
<title>sprite_109</title>
</rect>
<rect x="472" y="682" width="34" height="22" stroke="black" fill="red" fill-opacity="0.1" id="110">
<title>sprite_110</title>
</rect>
<rect x="506" y="686" width="142" height="18" stroke="black" fill="red" fill-opacity="0.1" id="111">
<title>sprite_111</title>
</rect>
<rect x="506" y="668" width="142" height="18" stroke="black" fill="red" fill-opacity="0.1" id="112">
<title>sprite_112</title>
</rect>
<rect x="648" y="668" width="142" height="18" stroke="black" fill="red" fill-opacity="0.1" id="113">
<title>sprite_113</title>
</rect>
<rect x="790" y="668" width="142" height="18" stroke="black" fill="red" fill-opacity="0.1" id="114">
<title>sprite_114</title>
</rect>
<rect x="648" y="686" width="142" height="18" stroke="black" fill="red" fill-opacity="0.1" id="115">
<title>sprite_115</title>
</rect>
<rect x="790" y="686" width="142" height="18" stroke="black" fill="red" fill-opacity="0.1" id="116">
<title>sprite_116</title>
</rect>
<rect x="540" y="704" width="256" height="320" stroke="black" fill="red" fill-opacity="0.1" id="117">
<title>sprite_117</title>
</rect>
<rect x="796" y="930" width="126" height="94" stroke="black" fill="red" fill-opacity="0.1" id="118">
<title>sprite_118</title>
</rect>
<rect x="796" y="912" width="142" height="18" stroke="black" fill="red" fill-opacity="0.1" id="119">
<title>sprite_119</title>
</rect>
<rect x="796" y="894" width="142" height="18" stroke="black" fill="red" fill-opacity="0.1" id="120">
<title>sprite_120</title>
</rect>
<rect x="796" y="876" width="142" height="18" stroke="black" fill="red" fill-opacity="0.1" id="121">
<title>sprite_121</title>
</rect>
<rect x="796" y="858" width="142" height="18" stroke="black" fill="red" fill-opacity="0.1" id="122">
<title>sprite_122</title>
</rect>
<rect x="796" y="840" width="142" height="18" stroke="black" fill="red" fill-opacity="0.1" id="123">
<title>sprite_123</title>
</rect>
<rect x="796" y="822" width="142" height="18" stroke="black" fill="red" fill-opacity="0.1" id="124">
<title>sprite_124</title>
</rect>
<rect x="796" y="804" width="142" height="18" stroke="black" fill="red" fill-opacity="0.1" id="125">
<title>sprite_125</title>
</rect>
<rect x="796" y="786" width="142" height="18" stroke="black" fill="red" fill-opacity="0.1" id="126">
<title>sprite_126</title>
</rect>
<rect x="796" y="768" width="142" height="18" stroke="black" fill="red" fill-opacity="0.1" id="127">
<title>sprite_127</title>
</rect>
<rect x="796" y="750" width="142" height="18" stroke="black" fill="red" fill-opacity="0.1" id="128">
<title>sprite_128</title>
</rect>
<rect x="796" y="732" width="142" height="18" stroke="black" fill="red" fill-opacity="0.1" id="129">
<title>sprite_129</title>
</rect>
<rect x="796" y="714" width="142" height="18" stroke="black" fill="red" fill-opacity="0.1" id="130">
<title>sprite_130</title>
</rect>
<rect x="922" y="962" width="62" height="62" stroke="black" fill="red" fill-opacity="0.1" id="131">
<title>sprite_131</title>
</rect>
</svg>