<?xml version="1.0" encoding="UTF-8"?>
<svg xmlns="http://www.w3.org/2000/svg" xmlns:xlink="http://www.w3.org/1999/xlink"
     width="1024" height="512" viewBox="0 0 1024 512">
<defs>
</defs>
<rect x="0" y="382" width="130" height="130" stroke="black" fill="red" fill-opacity="0.1" />
<rect x="0" y="304" width="262" height="78" stroke="black" fill="red" fill-opacity="0.1" />
<rect x="0" y="242" width="62" height="62" stroke="black" fill="red" fill-opacity="0.1" />
<rect x="0" y="196" width="326" height="46" stroke="black" fill="red" fill-opacity="0.1" />
<rect x="0" y="155" width="314" height="41" stroke="black" fill="red" fill-opacity="0.1" />
<rect x="0" y="118" width="101" height="37" stroke="black" fill="red" fill-opacity="0.1" />
<rect x="0" y="84" width="217" height="34" stroke="black" fill="red" fill-opacity="0.1" />
<rect x="0" y="33" width="200" height="24" stroke="black" fill="red" fill-opacity="0.1" />
<rect x="0" y="15" width="142" height="18" stroke="black" fill="red" fill-opacity="0.1" />
<rect x="142" y="15" width="142" height="18" stroke="black" fill="red" fill-opacity="0.1" />
<rect x="284" y="15" width="142" height="18" stroke="black" fill="red" fill-opacity="0.1" />
<rect x="426" y="15" width="142" height="18" stroke="black" fill="red" fill-opacity="0.1" />
<rect x="568" y="15" width="142" height="18" stroke="black" fill="red" fill-opacity="0.1" />
<rect x="710" y="15" width="142" height="18" stroke="black" fill="red" fill-opacity="0.1" />
<rect x="852" y="15" width="142" height="18" stroke="black" fill="red" fill-opacity="0.1" />
<rect x="200" y="33" width="151" height="24" stroke="black" fill="red" fill-opacity="0.1" />
<rect x="351" y="33" width="151" height="24" stroke="black" fill="red" fill-opacity="0.1" />
<rect x="502" y="33" width="80" height="24" stroke="black" fill="red" fill-opacity="0.1" />
<rect x="582" y="33" width="22" height="24" stroke="black" fill="red" fill-opacity="0.1" />
<rect x="604" y="33" width="21" height="24" stroke="black" fill="red" fill-opacity="0.1" />
<rect x="625" y="33" width="21" height="24" stroke="black" fill="red" fill-opacity="0.1" />
<rect x="646" y="33" width="21" height="24" stroke="black" fill="red" fill-opacity="0.1" />
<rect x="667" y="33" width="20" height="24" stroke="black" fill="red" fill-opacity="0.1" />
<rect x="687" y="33" width="20" height="24" stroke="black" fill="red" fill-opacity="0.1" />
<rect x="707" y="33" width="17" height="24" stroke="black" fill="red" fill-opacity="0.1" />
<rect x="724" y="35" width="46" height="22" stroke="black" fill="red" fill-opacity="0.1" />
<rect x="770" y="35" width="22" height="22" stroke="black" fill="red" fill-opacity="0.1" />
<rect x="792" y="35" width="22" height="22" stroke="black" fill="red" fill-opacity="0.1" />
<rect x="814" y="35" width="22" height="22" stroke="black" fill="red" fill-opacity="0.1" />
<rect x="836" y="35" width="22" height="22" stroke="black" fill="red" fill-opacity="0.1" />
<rect x="858" y="35" width="22" height="22" stroke="black" fill="red" fill-opacity="0.1" />
<rect x="880" y="39" width="142" height="18" stroke="black" fill="red" fill-opacity="0.1" />
<rect x="28" y="58" width="70" height="26" stroke="black" fill="red" fill-opacity="0.1" />
<rect x="98" y="58" width="54" height="26" stroke="black" fill="red" fill-opacity="0.1" />
<rect x="152" y="58" width="50" height="26" stroke="black" fill="red" fill-opacity="0.1" />
<rect x="202" y="58" width="26" height="26" stroke="black" fill="red" fill-opacity="0.1" />
<rect x="228" y="58" width="26" height="26" stroke="black" fill="red" fill-opacity="0.1" />
<rect x="254" y="58" width="18" height="26" stroke="black" fill="red" fill-opacity="0.1" />
<rect x="272" y="60" width="238" height="24" stroke="black" fill="red" fill-opacity="0.1" />
<rect x="510" y="60" width="238" height="24" stroke="black" fill="red" fill-opacity="0.1" />
<rect x="748" y="60" width="200" height="24" stroke="black" fill="red" fill-opacity="0.1" />
<rect x="217" y="84" width="158" height="34" stroke="black" fill="red" fill-opacity="0.1" />
<rect x="375" y="84" width="45" height="34" stroke="black" fill="red" fill-opacity="0.1" />
<rect x="420" y="84" width="43" height="34" stroke="black" fill="red" fill-opacity="0.1" />
<rect x="463" y="84" width="34" height="34" stroke="black" fill="red" fill-opacity="0.1" />
<rect x="497" y="85" width="309" height="33" stroke="black" fill="red" fill-opacity="0.1" />
<rect x="806" y="85" width="48" height="33" stroke="black" fill="red" fill-opacity="0.1" />
<rect x="854" y="88" width="142" height="30" stroke="black" fill="red" fill-opacity="0.1" />
<rect x="101" y="119" width="54" height="36" stroke="black" fill="red" fill-opacity="0.1" />
<rect x="155" y="119" width="33" height="36" stroke="black" fill="red" fill-opacity="0.1" />
<rect x="188" y="119" width="33" height="36" stroke="black" fill="red" fill-opacity="0.1" />
<rect x="221" y="119" width="33" height="36" stroke="black" fill="red" fill-opacity="0.1" />
<rect x="254" y="119" width="32" height="36" stroke="black" fill="red" fill-opacity="0.1" />
<rect x="286" y="119" width="32" height="36" stroke="black" fill="red" fill-opacity="0.1" />
<rect x="318" y="120" width="211" height="35" stroke="black" fill="red" fill-opacity="0.1" />
<rect x="529" y="120" width="152" height="35" stroke="black" fill="red" fill-opacity="0.1" />
<rect x="681" y="120" width="126" height="35" stroke="black" fill="red" fill-opacity="0.1" />
<rect x="807" y="120" width="37" height="35" stroke="black" fill="red" fill-opacity="0.1" />
<rect x="844" y="120" width="35" height="35" stroke="black" fill="red" fill-opacity="0.1" />
<rect x="879" y="120" width="35" height="35" stroke="black" fill="red" fill-opacity="0.1" />
<rect x="914" y="120" width="27" height="35" stroke="black" fill="red" fill-opacity="0.1" />
<rect x="941" y="125" width="74" height="30" stroke="black" fill="red" fill-opacity="0.1" />
<rect x="314" y="155" width="246" height="41" stroke="black" fill="red" fill-opacity="0.1" />
<rect x="560" y="155" width="30" height="41" stroke="black" fill="red" fill-opacity="0.1" />
<rect x="590" y="157" width="408" height="39" stroke="black" fill="red" fill-opacity="0.1" />
<rect x="326" y="196" width="90" height="46" stroke="black" fill="red" fill-opacity="0.1" />
<rect x="416" y="200" width="58" height="42" stroke="black" fill="red" fill-opacity="0.1" />
<rect x="474" y="200" width="58" height="42" stroke="black" fill="red" fill-opacity="0.1" />
<rect x="532" y="200" width="58" height="42" stroke="black" fill="red" fill-opacity="0.1" />
<rect x="590" y="200" width="58" height="42" stroke="black" fill="red" fill-opacity="0.1" />
<rect x="648" y="200" width="58" height="42" stroke="black" fill="red" fill-opacity="0.1" />
<rect x="706" y="200" width="58" height="42" stroke="black" fill="red" fill-opacity="0.1" />
<rect x="764" y="204" width="144" height="38" stroke="black" fill="red" fill-opacity="0.1" />
<rect x="908" y="204" width="70" height="38" stroke="black" fill="red" fill-opacity="0.1" />
<rect x="978" y="212" width="42" height="30" stroke="black" fill="red" fill-opacity="0.1" />
<rect x="62" y="249" width="52" height="55" stroke="black" fill="red" fill-opacity="0.1" />
<rect x="114" y="250" width="50" height="54" stroke="black" fill="red" fill-opacity="0.1" />
<rect x="164" y="250" width="49" height="54" stroke="black" fill="red" fill-opacity="0.1" />
<rect x="213" y="250" width="48" height="54" stroke="black" fill="red" fill-opacity="0.1" />
<rect x="261" y="250" width="48" height="54" stroke="black" fill="red" fill-opacity="0.1" />
<rect x="309" y="250" width="48" height="54" stroke="black" fill="red" fill-opacity="0.1" />
<rect x="357" y="250" width="46" height="54" stroke="black" fill="red" fill-opacity="0.1" />
<rect x="403" y="251" width="49" height="53" stroke="black" fill="red" fill-opacity="0.1" />
<rect x="452" y="252" width="48" height="52" stroke="black" fill="red" fill-opacity="0.1" />
<rect x="500" y="252" width="34" height="52" stroke="black" fill="red" fill-opacity="0.1" />
<rect x="534" y="253" width="220" height="51" stroke="black" fill="red" fill-opacity="0.1" />
<rect x="754" y="254" width="62" height="50" stroke="black" fill="red" fill-opacity="0.1" />
<rect x="816" y="266" width="59" height="38" stroke="black" fill="red" fill-opacity="0.1" />
<rect x="816" y="248" width="142" height="18" stroke="black" fill="red" fill-opacity="0.1" />
<rect x="875" y="266" width="59" height="38" stroke="black" fill="red" fill-opacity="0.1" />
<rect x="934" y="274" width="30" height="30" stroke="black" fill="red" fill-opacity="0.1" />
<rect x="964" y="274" width="30" height="30" stroke="black" fill="red" fill-opacity="0.1" />
<rect x="994" y="274" width="30" height="30" stroke="black" fill="red" fill-opacity="0.1" />
<rect x="262" y="304" width="262" height="78" stroke="black" fill="red" fill-opacity="0.1" />
<rect x="524" y="316" width="66" height="66" stroke="black" fill="red" fill-opacity="0.1" />
<rect x="590" y="320" width="350" height="62" stroke="black" fill="red" fill-opacity="0.1" />
<rect x="940" y="320" width="62" height="62" stroke="black" fill="red" fill-opacity="0.1" />
<rect x="130" y="386" width="126" height="126" stroke="black" fill="red" fill-opacity="0.1" />
<rect x="256" y="386" width="126" height="126" stroke="black" fill="red" fill-opacity="0.1" />
<rect x="382" y="386" width="126" height="126" stroke="black" fill="red" fill-opacity="0.1" />
<rect x="508" y="420" width="92" height="92" stroke="black" fill="red" fill-opacity="0.1" />
<rect x="508" y="402" width="142" height="18" stroke="black" fill="red" fill-opacity="0.1" />
<rect x="508" y="384" width="142" height="18" stroke="black" fill="red" fill-opacity="0.1" />
<rect x="650" y="384" width="142" height="18" stroke="black" fill="red" fill-opacity="0.1" />
<rect x="792" y="384" width="142" height="18" stroke="black" fill="red" fill-opacity="0.1" />
<rect x="650" y="402" width="142" height="18" stroke="black" fill="red" fill-opacity="0.1" />
<rect x="792" y="402" width="142" height="18" stroke="black" fill="red" fill-opacity="0.1" />
<rect x="600" y="420" width="92" height="92" stroke="black" fill="red" fill-opacity="0.1" />
<rect x="692" y="420" width="92" height="92" stroke="black" fill="red" fill-opacity="0.1" />
<rect x="784" y="450" width="126" height="62" stroke="black" fill="red" fill-opacity="0.1" />
<rect x="784" y="432" width="142" height="18" stroke="black" fill="red" fill-opacity="0.1" />
<rect x="910" y="450" width="62" height="62" stroke="black" fill="red" fill-opacity="0.1" />
</svg>