<?xml version="1.0" encoding="UTF-8"?>
<svg xmlns="http://www.w3.org/2000/svg" xmlns:xlink="http://www.w3.org/1999/xlink"
     width="1024" height="1024" viewBox="0 0 1024 1024">
<defs>
</defs>
<rect x="0" y="704" width="320" height="320" stroke="black" fill="red" fill-opacity="0.1" />
<rect x="0" y="450" width="512" height="254" stroke="black" fill="red" fill-opacity="0.1" />
<rect x="0" y="196" width="410" height="254" stroke="black" fill="red" fill-opacity="0.1" />
<rect x="0" y="68" width="443" height="128" stroke="black" fill="red" fill-opacity="0.1" />
<rect x="0" y="17" width="158" height="51" stroke="black" fill="red" fill-opacity="0.1" />
<rect x="158" y="18" width="50" height="50" stroke="black" fill="red" fill-opacity="0.1" />
<rect x="208" y="19" width="79" height="49" stroke="black" fill="red" fill-opacity="0.1" />
<rect x="287" y="22" width="77" height="46" stroke="black" fill="red" fill-opacity="0.1" />
<rect x="287" y="0" width="142" height="22" stroke="black" fill="red" fill-opacity="0.1" />
<rect x="429" y="0" width="78" height="22" stroke="black" fill="red" fill-opacity="0.1" />
<rect x="507" y="0" width="32" height="22" stroke="black" fill="red" fill-opacity="0.1" />
<rect x="539" y="0" width="22" height="22" stroke="black" fill="red" fill-opacity="0.1" />
<rect x="561" y="0" width="22" height="22" stroke="black" fill="red" fill-opacity="0.1" />
<rect x="583" y="0" width="14" height="22" stroke="black" fill="red" fill-opacity="0.1" />
<rect x="597" y="2" width="30" height="20" stroke="black" fill="red" fill-opacity="0.1" />
<rect x="627" y="4" width="142" height="18" stroke="black" fill="red" fill-opacity="0.1" />
<rect x="769" y="4" width="142" height="18" stroke="black" fill="red" fill-opacity="0.1" />
<rect x="911" y="9" width="22" height="13" stroke="black" fill="red" fill-opacity="0.1" />
<rect x="364" y="22" width="46" height="46" stroke="black" fill="red" fill-opacity="0.1" />
<rect x="410" y="22" width="46" height="46" stroke="black" fill="red" fill-opacity="0.1" />
<rect x="456" y="22" width="46" height="46" stroke="black" fill="red" fill-opacity="0.1" />
<rect x="502" y="22" width="46" height="46" stroke="black" fill="red" fill-opacity="0.1" />
<rect x="548" y="22" width="46" height="46" stroke="black" fill="red" fill-opacity="0.1" />
<rect x="594" y="26" width="318" height="42" stroke="black" fill="red" fill-opacity="0.1" />
<rect x="912" y="26" width="42" height="42" stroke="black" fill="red" fill-opacity="0.1" />
<rect x="954" y="26" width="42" height="42" stroke="black" fill="red" fill-opacity="0.1" />
<rect x="996" y="40" width="28" height="28" stroke="black" fill="red" fill-opacity="0.1" />
<rect x="443" y="102" width="126" height="94" stroke="black" fill="red" fill-opacity="0.1" />
<rect x="569" y="130" width="66" height="66" stroke="black" fill="red" fill-opacity="0.1" />
<rect x="569" y="88" width="250" height="42" stroke="black" fill="red" fill-opacity="0.1" />
<rect x="569" y="70" width="142" height="18" stroke="black" fill="red" fill-opacity="0.1" />
<rect x="711" y="70" width="142" height="18" stroke="black" fill="red" fill-opacity="0.1" />
<rect x="853" y="70" width="142" height="18" stroke="black" fill="red" fill-opacity="0.1" />
<rect x="819" y="94" width="36" height="36" stroke="black" fill="red" fill-opacity="0.1" />
<rect x="855" y="96" width="94" height="34" stroke="black" fill="red" fill-opacity="0.1" />
<rect x="949" y="100" width="30" height="30" stroke="black" fill="red" fill-opacity="0.1" />
<rect x="979" y="100" width="30" height="30" stroke="black" fill="red" fill-opacity="0.1" />
<rect x="635" y="134" width="126" height="62" stroke="black" fill="red" fill-opacity="0.1" />
<rect x="761" y="134" width="62" height="62" stroke="black" fill="red" fill-opacity="0.1" />
<rect x="823" y="134" width="62" height="62" stroke="black" fill="red" fill-opacity="0.1" />
<rect x="885" y="142" width="54" height="54" stroke="black" fill="red" fill-opacity="0.1" />
<rect x="939" y="142" width="54" height="54" stroke="black" fill="red" fill-opacity="0.1" />
<rect x="993" y="166" width="30" height="30" stroke="black" fill="red" fill-opacity="0.1" />
<rect x="410" y="322" width="443" height="128" stroke="black" fill="red" fill-opacity="0.1" />
<rect x="410" y="280" width="250" height="42" stroke="black" fill="red" fill-opacity="0.1" />
<rect x="410" y="245" width="207" height="35" stroke="black" fill="red" fill-opacity="0.1" />
<rect x="410" y="217" width="423" height="28" stroke="black" fill="red" fill-opacity="0.1" />
<rect x="410" y="199" width="142" height="18" stroke="black" fill="red" fill-opacity="0.1" />
<rect x="552" y="199" width="142" height="18" stroke="black" fill="red" fill-opacity="0.1" />
<rect x="694" y="199" width="142" height="18" stroke="black" fill="red" fill-opacity="0.1" />
<rect x="836" y="199" width="142" height="18" stroke="black" fill="red" fill-opacity="0.1" />
<rect x="833" y="217" width="28" height="28" stroke="black" fill="red" fill-opacity="0.1" />
<rect x="861" y="217" width="28" height="28" stroke="black" fill="red" fill-opacity="0.1" />
<rect x="889" y="219" width="26" height="26" stroke="black" fill="red" fill-opacity="0.1" />
<rect x="915" y="221" width="21" height="24" stroke="black" fill="red" fill-opacity="0.1" />
<rect x="936" y="221" width="20" height="24" stroke="black" fill="red" fill-opacity="0.1" />
<rect x="956" y="221" width="20" height="24" stroke="black" fill="red" fill-opacity="0.1" />
<rect x="976" y="222" width="36" height="23" stroke="black" fill="red" fill-opacity="0.1" />
<rect x="617" y="250" width="170" height="30" stroke="black" fill="red" fill-opacity="0.1" />
<rect x="787" y="250" width="126" height="30" stroke="black" fill="red" fill-opacity="0.1" />
<rect x="913" y="250" width="30" height="30" stroke="black" fill="red" fill-opacity="0.1" />
<rect x="943" y="250" width="30" height="30" stroke="black" fill="red" fill-opacity="0.1" />
<rect x="973" y="250" width="30" height="30" stroke="black" fill="red" fill-opacity="0.1" />
<rect x="660" y="281" width="214" height="41" stroke="black" fill="red" fill-opacity="0.1" />
<rect x="874" y="292" width="126" height="30" stroke="black" fill="red" fill-opacity="0.1" />
<rect x="853" y="396" width="54" height="54" stroke="black" fill="red" fill-opacity="0.1" />
<rect x="907" y="396" width="54" height="54" stroke="black" fill="red" fill-opacity="0.1" />
<rect x="961" y="420" width="30" height="30" stroke="black" fill="red" fill-opacity="0.1" />
<rect x="991" y="420" width="30" height="30" stroke="black" fill="red" fill-opacity="0.1" />
<rect x="512" y="450" width="430" height="254" stroke="black" fill="red" fill-opacity="0.1" />
<rect x="942" y="674" width="30" height="30" stroke="black" fill="red" fill-opacity="0.1" />
<rect x="972" y="674" width="30" height="30" stroke="black" fill="red" fill-opacity="0.1" />
<rect x="320" y="704" width="320" height="320" stroke="black" fill="red" fill-opacity="0.1" />
<rect x="640" y="704" width="256" height="320" stroke="black" fill="red" fill-opacity="0.1" />
<rect x="896" y="994" width="30" height="30" stroke="black" fill="red" fill-opacity="0.1" />
<rect x="926" y="994" width="30" height="30" stroke="black" fill="red" fill-opacity="0.1" />
<rect x="956" y="1001" width="29" height="23" stroke="black" fill="red" fill-opacity="0.1" />
</svg>