<?xml version="1.0" encoding="UTF-8"?>
<svg xmlns="http://www.w3.org/2000/svg" xmlns:xlink="http://www.w3.org/1999/xlink"
     width="1024" height="1024" viewBox="0 0 1024 1024">
<defs>
</defs>
<rect x="378" y="646" width="126" height="126" stroke="black" fill="red" fill-opacity="0.1" id="0">
<title>sprite_133</title>
</rect>
<rect x="756" y="898" width="126" height="126" stroke="black" fill="red" fill-opacity="0.1" id="1">
<title>sprite_134</title>
</rect>
<rect x="252" y="772" width="126" height="126" stroke="black" fill="red" fill-opacity="0.1" id="2">
<title>sprite_135</title>
</rect>
<rect x="882" y="898" width="126" height="126" stroke="black" fill="red" fill-opacity="0.1" id="3">
<title>sprite_136</title>
</rect>
<rect x="378" y="772" width="126" height="126" stroke="black" fill="red" fill-opacity="0.1" id="4">
<title>sprite_137</title>
</rect>
<rect x="126" y="898" width="126" height="126" stroke="black" fill="red" fill-opacity="0.1" id="5">
<title>sprite_138</title>
</rect>
<rect x="882" y="772" width="126" height="126" stroke="black" fill="red" fill-opacity="0.1" id="6">
<title>sprite_139</title>
</rect>
<rect x="252" y="898" width="126" height="126" stroke="black" fill="red" fill-opacity="0.1" id="7">
<title>sprite_140</title>
</rect>
<rect x="126" y="772" width="126" height="126" stroke="black" fill="red" fill-opacity="0.1" id="8">
<title>sprite_141</title>
</rect>
<rect x="630" y="898" width="126" height="126" stroke="black" fill="red" fill-opacity="0.1" id="9">
<title>sprite_142</title>
</rect>
<rect x="756" y="772" width="126" height="126" stroke="black" fill="red" fill-opacity="0.1" id="10">
<title>sprite_143</title>
</rect>
<rect x="504" y="772" width="126" height="126" stroke="black" fill="red" fill-opacity="0.1" id="11">
<title>sprite_144</title>
</rect>
<rect x="504" y="898" width="126" height="126" stroke="black" fill="red" fill-opacity="0.1" id="12">
<title>sprite_145</title>
</rect>
<rect x="504" y="646" width="126" height="126" stroke="black" fill="red" fill-opacity="0.1" id="13">
<title>sprite_146</title>
</rect>
<rect x="378" y="898" width="126" height="126" stroke="black" fill="red" fill-opacity="0.1" id="14">
<title>sprite_147</title>
</rect>
<rect x="0" y="898" width="126" height="126" stroke="black" fill="red" fill-opacity="0.1" id="15">
<title>sprite_148</title>
</rect>
<rect x="0" y="772" width="126" height="126" stroke="black" fill="red" fill-opacity="0.1" id="16">
<title>sprite_149</title>
</rect>
<rect x="252" y="646" width="126" height="126" stroke="black" fill="red" fill-opacity="0.1" id="17">
<title>sprite_150</title>
</rect>
<rect x="0" y="646" width="126" height="126" stroke="black" fill="red" fill-opacity="0.1" id="18">
<title>sprite_151</title>
</rect>
<rect x="630" y="772" width="126" height="126" stroke="black" fill="red" fill-opacity="0.1" id="19">
<title>sprite_152</title>
</rect>
<rect x="126" y="646" width="126" height="126" stroke="black" fill="red" fill-opacity="0.1" id="20">
<title>sprite_153</title>
</rect>
<rect x="630" y="666" width="110" height="106" stroke="black" fill="red" fill-opacity="0.1" id="21">
<title>sprite_154</title>
</rect>
<rect x="740" y="666" width="110" height="106" stroke="black" fill="red" fill-opacity="0.1" id="22">
<title>sprite_155</title>
</rect>
<rect x="850" y="666" width="54" height="106" stroke="black" fill="red" fill-opacity="0.1" id="23">
<title>sprite_156</title>
</rect>
<rect x="0" y="544" width="130" height="102" stroke="black" fill="red" fill-opacity="0.1" id="24">
<title>sprite_157</title>
</rect>
<rect x="130" y="552" width="126" height="94" stroke="black" fill="red" fill-opacity="0.1" id="25">
<title>sprite_158</title>
</rect>
<rect x="256" y="552" width="126" height="94" stroke="black" fill="red" fill-opacity="0.1" id="26">
<title>sprite_159</title>
</rect>
<rect x="382" y="586" width="58" height="60" stroke="black" fill="red" fill-opacity="0.1" id="27">
<title>sprite_160</title>
</rect>
<rect x="440" y="588" width="242" height="58" stroke="black" fill="red" fill-opacity="0.1" id="28">
<title>sprite_161</title>
</rect>
<rect x="362" y="376" width="362" height="42" stroke="black" fill="red" fill-opacity="0.1" id="29">
<title>sprite_162</title>
</rect>
<rect x="0" y="460" width="362" height="42" stroke="black" fill="red" fill-opacity="0.1" id="30">
<title>sprite_163</title>
</rect>
<rect x="362" y="418" width="362" height="42" stroke="black" fill="red" fill-opacity="0.1" id="31">
<title>sprite_164</title>
</rect>
<rect x="0" y="376" width="362" height="42" stroke="black" fill="red" fill-opacity="0.1" id="32">
<title>sprite_165</title>
</rect>
<rect x="0" y="418" width="362" height="42" stroke="black" fill="red" fill-opacity="0.1" id="33">
<title>sprite_166</title>
</rect>
<rect x="0" y="502" width="362" height="42" stroke="black" fill="red" fill-opacity="0.1" id="34">
<title>sprite_167</title>
</rect>
<rect x="362" y="502" width="362" height="42" stroke="black" fill="red" fill-opacity="0.1" id="35">
<title>sprite_168</title>
</rect>
<rect x="362" y="460" width="362" height="42" stroke="black" fill="red" fill-opacity="0.1" id="36">
<title>sprite_169</title>
</rect>
<rect x="724" y="380" width="254" height="38" stroke="black" fill="red" fill-opacity="0.1" id="37">
<title>sprite_170</title>
</rect>
<rect x="724" y="464" width="246" height="38" stroke="black" fill="red" fill-opacity="0.1" id="38">
<title>sprite_171</title>
</rect>
<rect x="724" y="422" width="246" height="38" stroke="black" fill="red" fill-opacity="0.1" id="39">
<title>sprite_172</title>
</rect>
<rect x="0" y="308" width="554" height="34" stroke="black" fill="red" fill-opacity="0.1" id="40">
<title>sprite_173</title>
</rect>
<rect x="0" y="342" width="554" height="34" stroke="black" fill="red" fill-opacity="0.1" id="41">
<title>sprite_174</title>
</rect>
<rect x="554" y="342" width="186" height="34" stroke="black" fill="red" fill-opacity="0.1" id="42">
<title>sprite_175</title>
</rect>
<rect x="0" y="278" width="364" height="30" stroke="black" fill="red" fill-opacity="0.1" id="43">
<title>sprite_176</title>
</rect>
<rect x="554" y="312" width="364" height="30" stroke="black" fill="red" fill-opacity="0.1" id="44">
<title>sprite_177</title>
</rect>
<rect x="364" y="278" width="346" height="30" stroke="black" fill="red" fill-opacity="0.1" id="45">
<title>sprite_178</title>
</rect>
<rect x="346" y="248" width="346" height="30" stroke="black" fill="red" fill-opacity="0.1" id="46">
<title>sprite_179</title>
</rect>
<rect x="346" y="218" width="346" height="30" stroke="black" fill="red" fill-opacity="0.1" id="47">
<title>sprite_180</title>
</rect>
<rect x="0" y="218" width="346" height="30" stroke="black" fill="red" fill-opacity="0.1" id="48">
<title>sprite_181</title>
</rect>
<rect x="0" y="248" width="346" height="30" stroke="black" fill="red" fill-opacity="0.1" id="49">
<title>sprite_182</title>
</rect>
<rect x="0" y="188" width="154" height="30" stroke="black" fill="red" fill-opacity="0.1" id="50">
<title>sprite_183</title>
</rect>
<rect x="154" y="188" width="154" height="30" stroke="black" fill="red" fill-opacity="0.1" id="51">
<title>sprite_184</title>
</rect>
<rect x="692" y="218" width="154" height="30" stroke="black" fill="red" fill-opacity="0.1" id="52">
<title>sprite_185</title>
</rect>
<rect x="846" y="218" width="154" height="30" stroke="black" fill="red" fill-opacity="0.1" id="53">
<title>sprite_186</title>
</rect>
<rect x="740" y="346" width="154" height="30" stroke="black" fill="red" fill-opacity="0.1" id="54">
<title>sprite_187</title>
</rect>
<rect x="692" y="248" width="154" height="30" stroke="black" fill="red" fill-opacity="0.1" id="55">
<title>sprite_188</title>
</rect>
<rect x="846" y="248" width="154" height="30" stroke="black" fill="red" fill-opacity="0.1" id="56">
<title>sprite_189</title>
</rect>
<rect x="710" y="278" width="154" height="30" stroke="black" fill="red" fill-opacity="0.1" id="57">
<title>sprite_190</title>
</rect>
<rect x="864" y="278" width="154" height="30" stroke="black" fill="red" fill-opacity="0.1" id="58">
<title>sprite_191</title>
</rect>
<rect x="724" y="514" width="154" height="30" stroke="black" fill="red" fill-opacity="0.1" id="59">
<title>sprite_192</title>
</rect>
<rect x="682" y="616" width="154" height="30" stroke="black" fill="red" fill-opacity="0.1" id="60">
<title>sprite_193</title>
</rect>
<rect x="836" y="616" width="154" height="30" stroke="black" fill="red" fill-opacity="0.1" id="61">
<title>sprite_194</title>
</rect>
<rect x="308" y="188" width="142" height="30" stroke="black" fill="red" fill-opacity="0.1" id="62">
<title>sprite_195</title>
</rect>
<rect x="894" y="346" width="118" height="30" stroke="black" fill="red" fill-opacity="0.1" id="63">
<title>sprite_196</title>
</rect>
<rect x="450" y="188" width="106" height="30" stroke="black" fill="red" fill-opacity="0.1" id="64">
<title>sprite_197</title>
</rect>
<rect x="556" y="188" width="98" height="30" stroke="black" fill="red" fill-opacity="0.1" id="65">
<title>sprite_198</title>
</rect>
<rect x="654" y="188" width="98" height="30" stroke="black" fill="red" fill-opacity="0.1" id="66">
<title>sprite_199</title>
</rect>
<rect x="752" y="188" width="70" height="30" stroke="black" fill="red" fill-opacity="0.1" id="67">
<title>sprite_200</title>
</rect>
<rect x="0" y="162" width="466" height="26" stroke="black" fill="red" fill-opacity="0.1" id="68">
<title>sprite_201</title>
</rect>
<rect x="466" y="162" width="398" height="26" stroke="black" fill="red" fill-opacity="0.1" id="69">
<title>sprite_202</title>
</rect>
<rect x="0" y="136" width="234" height="26" stroke="black" fill="red" fill-opacity="0.1" id="70">
<title>sprite_203</title>
</rect>
<rect x="234" y="136" width="142" height="26" stroke="black" fill="red" fill-opacity="0.1" id="71">
<title>sprite_204</title>
</rect>
<rect x="376" y="136" width="38" height="26" stroke="black" fill="red" fill-opacity="0.1" id="72">
<title>sprite_205</title>
</rect>
<rect x="414" y="136" width="38" height="26" stroke="black" fill="red" fill-opacity="0.1" id="73">
<title>sprite_206</title>
</rect>
<rect x="452" y="140" width="404" height="22" stroke="black" fill="red" fill-opacity="0.1" id="74">
<title>sprite_207</title>
</rect>
<rect x="0" y="114" width="348" height="22" stroke="black" fill="red" fill-opacity="0.1" id="75">
<title>sprite_208</title>
</rect>
<rect x="632" y="114" width="284" height="22" stroke="black" fill="red" fill-opacity="0.1" id="76">
<title>sprite_209</title>
</rect>
<rect x="0" y="92" width="284" height="22" stroke="black" fill="red" fill-opacity="0.1" id="77">
<title>sprite_210</title>
</rect>
<rect x="348" y="114" width="284" height="22" stroke="black" fill="red" fill-opacity="0.1" id="78">
<title>sprite_211</title>
</rect>
<rect x="284" y="92" width="146" height="22" stroke="black" fill="red" fill-opacity="0.1" id="79">
<title>sprite_212</title>
</rect>
<rect x="430" y="92" width="144" height="22" stroke="black" fill="red" fill-opacity="0.1" id="80">
<title>sprite_213</title>
</rect>
<rect x="574" y="92" width="118" height="22" stroke="black" fill="red" fill-opacity="0.1" id="81">
<title>sprite_214</title>
</rect>
<rect x="692" y="92" width="106" height="22" stroke="black" fill="red" fill-opacity="0.1" id="82">
<title>sprite_215</title>
</rect>
<rect x="798" y="92" width="38" height="22" stroke="black" fill="red" fill-opacity="0.1" id="83">
<title>sprite_216</title>
</rect>
<rect x="864" y="170" width="138" height="18" stroke="black" fill="red" fill-opacity="0.1" id="84">
<title>sprite_217</title>
</rect>
<rect x="856" y="144" width="138" height="18" stroke="black" fill="red" fill-opacity="0.1" id="85">
<title>sprite_218</title>
</rect>
<rect x="836" y="96" width="138" height="18" stroke="black" fill="red" fill-opacity="0.1" id="86">
<title>sprite_219</title>
</rect>
<rect x="916" y="118" width="62" height="18" stroke="black" fill="red" fill-opacity="0.1" id="87">
<title>sprite_220</title>
</rect>
<rect x="822" y="200" width="62" height="18" stroke="black" fill="red" fill-opacity="0.1" id="88">
<title>sprite_221</title>
</rect>
<rect x="884" y="200" width="62" height="18" stroke="black" fill="red" fill-opacity="0.1" id="89">
<title>sprite_222</title>
</rect>
<rect x="946" y="200" width="54" height="18" stroke="black" fill="red" fill-opacity="0.1" id="90">
<title>sprite_223</title>
</rect>
<rect x="918" y="324" width="54" height="18" stroke="black" fill="red" fill-opacity="0.1" id="91">
<title>sprite_224</title>
</rect>
<rect x="974" y="96" width="38" height="18" stroke="black" fill="red" fill-opacity="0.1" id="92">
<title>sprite_225</title>
</rect>
</svg>