<?xml version="1.0" encoding="UTF-8"?>
<svg xmlns="http://www.w3.org/2000/svg" xmlns:xlink="http://www.w3.org/1999/xlink"
     width="1024" height="1024" viewBox="0 0 1024 1024">
<defs>
</defs>
<rect x="378" y="646" width="126" height="126" stroke="black" fill="red" fill-opacity="0.1" />
<rect x="756" y="898" width="126" height="126" stroke="black" fill="red" fill-opacity="0.1" />
<rect x="252" y="772" width="126" height="126" stroke="black" fill="red" fill-opacity="0.1" />
<rect x="882" y="898" width="126" height="126" stroke="black" fill="red" fill-opacity="0.1" />
<rect x="378" y="772" width="126" height="126" stroke="black" fill="red" fill-opacity="0.1" />
<rect x="126" y="898" width="126" height="126" stroke="black" fill="red" fill-opacity="0.1" />
<rect x="882" y="772" width="126" height="126" stroke="black" fill="red" fill-opacity="0.1" />
<rect x="252" y="898" width="126" height="126" stroke="black" fill="red" fill-opacity="0.1" />
<rect x="126" y="772" width="126" height="126" stroke="black" fill="red" fill-opacity="0.1" />
<rect x="630" y="898" width="126" height="126" stroke="black" fill="red" fill-opacity="0.1" />
<rect x="756" y="772" width="126" height="126" stroke="black" fill="red" fill-opacity="0.1" />
<rect x="504" y="772" width="126" height="126" stroke="black" fill="red" fill-opacity="0.1" />
<rect x="504" y="898" width="126" height="126" stroke="black" fill="red" fill-opacity="0.1" />
<rect x="504" y="646" width="126" height="126" stroke="black" fill="red" fill-opacity="0.1" />
<rect x="378" y="898" width="126" height="126" stroke="black" fill="red" fill-opacity="0.1" />
<rect x="0" y="898" width="126" height="126" stroke="black" fill="red" fill-opacity="0.1" />
<rect x="0" y="772" width="126" height="126" stroke="black" fill="red" fill-opacity="0.1" />
<rect x="252" y="646" width="126" height="126" stroke="black" fill="red" fill-opacity="0.1" />
<rect x="0" y="646" width="126" height="126" stroke="black" fill="red" fill-opacity="0.1" />
<rect x="630" y="772" width="126" height="126" stroke="black" fill="red" fill-opacity="0.1" />
<rect x="126" y="646" width="126" height="126" stroke="black" fill="red" fill-opacity="0.1" />
<rect x="630" y="666" width="110" height="106" stroke="black" fill="red" fill-opacity="0.1" />
<rect x="740" y="666" width="110" height="106" stroke="black" fill="red" fill-opacity="0.1" />
<rect x="850" y="666" width="54" height="106" stroke="black" fill="red" fill-opacity="0.1" />
<rect x="0" y="544" width="130" height="102" stroke="black" fill="red" fill-opacity="0.1" />
<rect x="130" y="552" width="126" height="94" stroke="black" fill="red" fill-opacity="0.1" />
<rect x="256" y="552" width="126" height="94" stroke="black" fill="red" fill-opacity="0.1" />
<rect x="382" y="586" width="58" height="60" stroke="black" fill="red" fill-opacity="0.1" />
<rect x="440" y="588" width="242" height="58" stroke="black" fill="red" fill-opacity="0.1" />
<rect x="362" y="376" width="362" height="42" stroke="black" fill="red" fill-opacity="0.1" />
<rect x="0" y="460" width="362" height="42" stroke="black" fill="red" fill-opacity="0.1" />
<rect x="362" y="418" width="362" height="42" stroke="black" fill="red" fill-opacity="0.1" />
<rect x="0" y="376" width="362" height="42" stroke="black" fill="red" fill-opacity="0.1" />
<rect x="0" y="418" width="362" height="42" stroke="black" fill="red" fill-opacity="0.1" />
<rect x="0" y="502" width="362" height="42" stroke="black" fill="red" fill-opacity="0.1" />
<rect x="362" y="502" width="362" height="42" stroke="black" fill="red" fill-opacity="0.1" />
<rect x="362" y="460" width="362" height="42" stroke="black" fill="red" fill-opacity="0.1" />
<rect x="724" y="380" width="254" height="38" stroke="black" fill="red" fill-opacity="0.1" />
<rect x="724" y="464" width="246" height="38" stroke="black" fill="red" fill-opacity="0.1" />
<rect x="724" y="422" width="246" height="38" stroke="black" fill="red" fill-opacity="0.1" />
<rect x="0" y="308" width="554" height="34" stroke="black" fill="red" fill-opacity="0.1" />
<rect x="0" y="342" width="554" height="34" stroke="black" fill="red" fill-opacity="0.1" />
<rect x="554" y="342" width="186" height="34" stroke="black" fill="red" fill-opacity="0.1" />
<rect x="0" y="278" width="364" height="30" stroke="black" fill="red" fill-opacity="0.1" />
<rect x="554" y="312" width="364" height="30" stroke="black" fill="red" fill-opacity="0.1" />
<rect x="364" y="278" width="346" height="30" stroke="black" fill="red" fill-opacity="0.1" />
<rect x="346" y="248" width="346" height="30" stroke="black" fill="red" fill-opacity="0.1" />
<rect x="346" y="218" width="346" height="30" stroke="black" fill="red" fill-opacity="0.1" />
<rect x="0" y="218" width="346" height="30" stroke="black" fill="red" fill-opacity="0.1" />
<rect x="0" y="248" width="346" height="30" stroke="black" fill="red" fill-opacity="0.1" />
<rect x="0" y="188" width="154" height="30" stroke="black" fill="red" fill-opacity="0.1" />
<rect x="154" y="188" width="154" height="30" stroke="black" fill="red" fill-opacity="0.1" />
<rect x="692" y="218" width="154" height="30" stroke="black" fill="red" fill-opacity="0.1" />
<rect x="846" y="218" width="154" height="30" stroke="black" fill="red" fill-opacity="0.1" />
<rect x="740" y="346" width="154" height="30" stroke="black" fill="red" fill-opacity="0.1" />
<rect x="692" y="248" width="154" height="30" stroke="black" fill="red" fill-opacity="0.1" />
<rect x="846" y="248" width="154" height="30" stroke="black" fill="red" fill-opacity="0.1" />
<rect x="710" y="278" width="154" height="30" stroke="black" fill="red" fill-opacity="0.1" />
<rect x="864" y="278" width="154" height="30" stroke="black" fill="red" fill-opacity="0.1" />
<rect x="724" y="514" width="154" height="30" stroke="black" fill="red" fill-opacity="0.1" />
<rect x="682" y="616" width="154" height="30" stroke="black" fill="red" fill-opacity="0.1" />
<rect x="836" y="616" width="154" height="30" stroke="black" fill="red" fill-opacity="0.1" />
<rect x="308" y="188" width="142" height="30" stroke="black" fill="red" fill-opacity="0.1" />
<rect x="894" y="346" width="118" height="30" stroke="black" fill="red" fill-opacity="0.1" />
<rect x="450" y="188" width="106" height="30" stroke="black" fill="red" fill-opacity="0.1" />
<rect x="556" y="188" width="98" height="30" stroke="black" fill="red" fill-opacity="0.1" />
<rect x="654" y="188" width="98" height="30" stroke="black" fill="red" fill-opacity="0.1" />
<rect x="752" y="188" width="70" height="30" stroke="black" fill="red" fill-opacity="0.1" />
<rect x="0" y="162" width="466" height="26" stroke="black" fill="red" fill-opacity="0.1" />
<rect x="466" y="162" width="398" height="26" stroke="black" fill="red" fill-opacity="0.1" />
<rect x="0" y="136" width="234" height="26" stroke="black" fill="red" fill-opacity="0.1" />
<rect x="234" y="136" width="142" height="26" stroke="black" fill="red" fill-opacity="0.1" />
<rect x="376" y="136" width="38" height="26" stroke="black" fill="red" fill-opacity="0.1" />
<rect x="414" y="136" width="38" height="26" stroke="black" fill="red" fill-opacity="0.1" />
<rect x="452" y="140" width="404" height="22" stroke="black" fill="red" fill-opacity="0.1" />
<rect x="0" y="114" width="348" height="22" stroke="black" fill="red" fill-opacity="0.1" />
<rect x="632" y="114" width="284" height="22" stroke="black" fill="red" fill-opacity="0.1" />
<rect x="0" y="92" width="284" height="22" stroke="black" fill="red" fill-opacity="0.1" />
<rect x="348" y="114" width="284" height="22" stroke="black" fill="red" fill-opacity="0.1" />
<rect x="284" y="92" width="146" height="22" stroke="black" fill="red" fill-opacity="0.1" />
<rect x="430" y="92" width="144" height="22" stroke="black" fill="red" fill-opacity="0.1" />
<rect x="574" y="92" width="118" height="22" stroke="black" fill="red" fill-opacity="0.1" />
<rect x="692" y="92" width="106" height="22" stroke="black" fill="red" fill-opacity="0.1" />
<rect x="798" y="92" width="38" height="22" stroke="black" fill="red" fill-opacity="0.1" />
<rect x="864" y="170" width="138" height="18" stroke="black" fill="red" fill-opacity="0.1" />
<rect x="856" y="144" width="138" height="18" stroke="black" fill="red" fill-opacity="0.1" />
<rect x="836" y="96" width="138" height="18" stroke="black" fill="red" fill-opacity="0.1" />
<rect x="916" y="118" width="62" height="18" stroke="black" fill="red" fill-opacity="0.1" />
<rect x="822" y="200" width="62" height="18" stroke="black" fill="red" fill-opacity="0.1" />
<rect x="884" y="200" width="62" height="18" stroke="black" fill="red" fill-opacity="0.1" />
<rect x="946" y="200" width="54" height="18" stroke="black" fill="red" fill-opacity="0.1" />
<rect x="918" y="324" width="54" height="18" stroke="black" fill="red" fill-opacity="0.1" />
<rect x="974" y="96" width="38" height="18" stroke="black" fill="red" fill-opacity="0.1" />
</svg>