<?xml version="1.0" encoding="UTF-8"?>
<svg xmlns="http://www.w3.org/2000/svg" xmlns:xlink="http://www.w3.org/1999/xlink"
     width="4096" height="4096" viewBox="0 0 4096 4096">
<defs>
</defs>
<rect x="1680" y="2416" width="1680" height="1680" stroke="black" fill="red" fill-opacity="0.1" id="0">
<title>sprite_37</title>
</rect>
<rect x="0" y="736" width="1680" height="1680" stroke="black" fill="red" fill-opacity="0.1" id="1">
<title>sprite_38</title>
</rect>
<rect x="0" y="2416" width="1680" height="1680" stroke="black" fill="red" fill-opacity="0.1" id="2">
<title>sprite_39</title>
</rect>
<rect x="2120" y="1400" width="440" height="1016" stroke="black" fill="red" fill-opacity="0.1" id="3">
<title>sprite_40</title>
</rect>
<rect x="1680" y="1400" width="440" height="1016" stroke="black" fill="red" fill-opacity="0.1" id="4">
<title>sprite_41</title>
</rect>
<rect x="2560" y="1800" width="248" height="616" stroke="black" fill="red" fill-opacity="0.1" id="5">
<title>sprite_42</title>
</rect>
<rect x="2808" y="1908" width="220" height="508" stroke="black" fill="red" fill-opacity="0.1" id="6">
<title>sprite_43</title>
</rect>
<rect x="3028" y="1976" width="632" height="440" stroke="black" fill="red" fill-opacity="0.1" id="7">
<title>sprite_44</title>
</rect>
<rect x="3360" y="3656" width="600" height="440" stroke="black" fill="red" fill-opacity="0.1" id="8">
<title>sprite_45</title>
</rect>
<rect x="3660" y="1992" width="216" height="424" stroke="black" fill="red" fill-opacity="0.1" id="9">
<title>sprite_46</title>
</rect>
<rect x="0" y="472" width="2216" height="264" stroke="black" fill="red" fill-opacity="0.1" id="10">
<title>sprite_47</title>
</rect>
<rect x="0" y="208" width="2216" height="264" stroke="black" fill="red" fill-opacity="0.1" id="11">
<title>sprite_48</title>
</rect>
<rect x="2216" y="472" width="1576" height="264" stroke="black" fill="red" fill-opacity="0.1" id="12">
<title>sprite_49</title>
</rect>
<rect x="2216" y="208" width="1320" height="264" stroke="black" fill="red" fill-opacity="0.1" id="13">
<title>sprite_50</title>
</rect>
<rect x="3792" y="480" width="256" height="256" stroke="black" fill="red" fill-opacity="0.1" id="14">
<title>sprite_51</title>
</rect>
<rect x="3536" y="240" width="88" height="232" stroke="black" fill="red" fill-opacity="0.1" id="15">
<title>sprite_52</title>
</rect>
<rect x="4048" y="504" width="40" height="232" stroke="black" fill="red" fill-opacity="0.1" id="16">
<title>sprite_53</title>
</rect>
<rect x="0" y="8" width="1560" height="200" stroke="black" fill="red" fill-opacity="0.1" id="17">
<title>sprite_54</title>
</rect>
<rect x="1560" y="8" width="632" height="200" stroke="black" fill="red" fill-opacity="0.1" id="18">
<title>sprite_55</title>
</rect>
<rect x="2192" y="40" width="1768" height="168" stroke="black" fill="red" fill-opacity="0.1" id="19">
<title>sprite_56</title>
</rect>
<rect x="1680" y="1232" width="1448" height="168" stroke="black" fill="red" fill-opacity="0.1" id="20">
<title>sprite_57</title>
</rect>
<rect x="3128" y="1264" width="760" height="136" stroke="black" fill="red" fill-opacity="0.1" id="21">
<title>sprite_58</title>
</rect>
<rect x="1680" y="1096" width="632" height="136" stroke="black" fill="red" fill-opacity="0.1" id="22">
<title>sprite_59</title>
</rect>
<rect x="2312" y="1096" width="552" height="136" stroke="black" fill="red" fill-opacity="0.1" id="23">
<title>sprite_60</title>
</rect>
<rect x="2864" y="1112" width="616" height="120" stroke="black" fill="red" fill-opacity="0.1" id="24">
<title>sprite_61</title>
</rect>
<rect x="3960" y="104" width="104" height="104" stroke="black" fill="red" fill-opacity="0.1" id="25">
<title>sprite_62</title>
</rect>
<rect x="3624" y="384" width="120" height="88" stroke="black" fill="red" fill-opacity="0.1" id="26">
<title>sprite_63</title>
</rect>
<rect x="3744" y="384" width="72" height="88" stroke="black" fill="red" fill-opacity="0.1" id="27">
<title>sprite_64</title>
</rect>
<rect x="3816" y="384" width="72" height="88" stroke="black" fill="red" fill-opacity="0.1" id="28">
<title>sprite_65</title>
</rect>
<rect x="3888" y="384" width="72" height="88" stroke="black" fill="red" fill-opacity="0.1" id="29">
<title>sprite_66</title>
</rect>
<rect x="3960" y="384" width="72" height="88" stroke="black" fill="red" fill-opacity="0.1" id="30">
<title>sprite_67</title>
</rect>
<rect x="3480" y="1144" width="72" height="88" stroke="black" fill="red" fill-opacity="0.1" id="31">
<title>sprite_68</title>
</rect>
<rect x="3552" y="1144" width="72" height="88" stroke="black" fill="red" fill-opacity="0.1" id="32">
<title>sprite_69</title>
</rect>
<rect x="3624" y="1144" width="72" height="88" stroke="black" fill="red" fill-opacity="0.1" id="33">
<title>sprite_70</title>
</rect>
<rect x="3408" y="1024" width="552" height="72" stroke="black" fill="red" fill-opacity="0.1" id="34">
<title>sprite_71</title>
</rect>
<rect x="3624" y="312" width="440" height="72" stroke="black" fill="red" fill-opacity="0.1" id="35">
<title>sprite_72</title>
</rect>
<rect x="3624" y="240" width="440" height="72" stroke="black" fill="red" fill-opacity="0.1" id="36">
<title>sprite_73</title>
</rect>
<rect x="1680" y="952" width="440" height="72" stroke="black" fill="red" fill-opacity="0.1" id="37">
<title>sprite_74</title>
</rect>
<rect x="2120" y="952" width="120" height="72" stroke="black" fill="red" fill-opacity="0.1" id="38">
<title>sprite_75</title>
</rect>
<rect x="2240" y="952" width="104" height="72" stroke="black" fill="red" fill-opacity="0.1" id="39">
<title>sprite_76</title>
</rect>
<rect x="2344" y="952" width="104" height="72" stroke="black" fill="red" fill-opacity="0.1" id="40">
<title>sprite_77</title>
</rect>
<rect x="4032" y="400" width="40" height="72" stroke="black" fill="red" fill-opacity="0.1" id="41">
<title>sprite_78</title>
</rect>
<rect x="2968" y="968" width="520" height="56" stroke="black" fill="red" fill-opacity="0.1" id="42">
<title>sprite_79</title>
</rect>
<rect x="2448" y="968" width="520" height="56" stroke="black" fill="red" fill-opacity="0.1" id="43">
<title>sprite_80</title>
</rect>
<rect x="3488" y="968" width="104" height="56" stroke="black" fill="red" fill-opacity="0.1" id="44">
<title>sprite_81</title>
</rect>
<rect x="3592" y="968" width="104" height="56" stroke="black" fill="red" fill-opacity="0.1" id="45">
<title>sprite_82</title>
</rect>
<rect x="3696" y="968" width="104" height="56" stroke="black" fill="red" fill-opacity="0.1" id="46">
<title>sprite_83</title>
</rect>
<rect x="3800" y="968" width="104" height="56" stroke="black" fill="red" fill-opacity="0.1" id="47">
<title>sprite_84</title>
</rect>
</svg>