<?xml version="1.0" encoding="UTF-8"?>
<svg xmlns="http://www.w3.org/2000/svg" xmlns:xlink="http://www.w3.org/1999/xlink"
     width="512" height="512" viewBox="0 0 512 512">
<defs>
</defs>
<rect x="0" y="418" width="114" height="94" stroke="black" fill="red" fill-opacity="0.1" />
<rect x="114" y="420" width="92" height="92" stroke="black" fill="red" fill-opacity="0.1" />
<rect x="206" y="420" width="92" height="92" stroke="black" fill="red" fill-opacity="0.1" />
<rect x="298" y="420" width="92" height="92" stroke="black" fill="red" fill-opacity="0.1" />
<rect x="390" y="426" width="114" height="86" stroke="black" fill="red" fill-opacity="0.1" />
<rect x="0" y="348" width="110" height="70" stroke="black" fill="red" fill-opacity="0.1" />
<rect x="110" y="348" width="110" height="70" stroke="black" fill="red" fill-opacity="0.1" />
<rect x="220" y="348" width="110" height="70" stroke="black" fill="red" fill-opacity="0.1" />
<rect x="330" y="348" width="110" height="70" stroke="black" fill="red" fill-opacity="0.1" />
<rect x="0" y="278" width="98" height="70" stroke="black" fill="red" fill-opacity="0.1" />
<rect x="98" y="278" width="98" height="70" stroke="black" fill="red" fill-opacity="0.1" />
<rect x="196" y="278" width="98" height="70" stroke="black" fill="red" fill-opacity="0.1" />
<rect x="294" y="278" width="98" height="70" stroke="black" fill="red" fill-opacity="0.1" />
<rect x="392" y="278" width="98" height="70" stroke="black" fill="red" fill-opacity="0.1" />
<rect x="0" y="208" width="98" height="70" stroke="black" fill="red" fill-opacity="0.1" />
<rect x="98" y="208" width="98" height="70" stroke="black" fill="red" fill-opacity="0.1" />
<rect x="196" y="208" width="98" height="70" stroke="black" fill="red" fill-opacity="0.1" />
<rect x="294" y="208" width="98" height="70" stroke="black" fill="red" fill-opacity="0.1" />
<rect x="392" y="208" width="90" height="70" stroke="black" fill="red" fill-opacity="0.1" />
<rect x="0" y="138" width="90" height="70" stroke="black" fill="red" fill-opacity="0.1" />
<rect x="90" y="146" width="126" height="62" stroke="black" fill="red" fill-opacity="0.1" />
<rect x="216" y="146" width="126" height="62" stroke="black" fill="red" fill-opacity="0.1" />
<rect x="342" y="146" width="98" height="62" stroke="black" fill="red" fill-opacity="0.1" />
<rect x="0" y="76" width="98" height="62" stroke="black" fill="red" fill-opacity="0.1" />
<rect x="98" y="76" width="62" height="62" stroke="black" fill="red" fill-opacity="0.1" />
<rect x="160" y="80" width="122" height="58" stroke="black" fill="red" fill-opacity="0.1" />
<rect x="282" y="96" width="90" height="42" stroke="black" fill="red" fill-opacity="0.1" />
<rect x="372" y="104" width="138" height="34" stroke="black" fill="red" fill-opacity="0.1" />
<rect x="0" y="42" width="138" height="34" stroke="black" fill="red" fill-opacity="0.1" />
<rect x="138" y="46" width="154" height="30" stroke="black" fill="red" fill-opacity="0.1" />
<rect x="292" y="46" width="154" height="30" stroke="black" fill="red" fill-opacity="0.1" />
<rect x="0" y="12" width="154" height="30" stroke="black" fill="red" fill-opacity="0.1" />
<rect x="154" y="12" width="154" height="30" stroke="black" fill="red" fill-opacity="0.1" />
<rect x="308" y="16" width="90" height="26" stroke="black" fill="red" fill-opacity="0.1" />
<rect x="398" y="16" width="38" height="26" stroke="black" fill="red" fill-opacity="0.1" />
<rect x="372" y="82" width="106" height="22" stroke="black" fill="red" fill-opacity="0.1" />
</svg>