<?xml version="1.0" encoding="UTF-8"?>
<svg xmlns="http://www.w3.org/2000/svg" xmlns:xlink="http://www.w3.org/1999/xlink"
     width="4096" height="2048" viewBox="0 0 4096 2048">
<defs>
</defs>
<rect x="0" y="1528" width="520" height="520" stroke="black" fill="red" fill-opacity="0.1" id="0">
<title>sprite_209</title>
</rect>
<rect x="0" y="1216" width="1048" height="312" stroke="black" fill="red" fill-opacity="0.1" id="1">
<title>sprite_210</title>
</rect>
<rect x="0" y="968" width="248" height="248" stroke="black" fill="red" fill-opacity="0.1" id="2">
<title>sprite_211</title>
</rect>
<rect x="0" y="784" width="1304" height="184" stroke="black" fill="red" fill-opacity="0.1" id="3">
<title>sprite_212</title>
</rect>
<rect x="0" y="620" width="1256" height="164" stroke="black" fill="red" fill-opacity="0.1" id="4">
<title>sprite_213</title>
</rect>
<rect x="0" y="472" width="404" height="148" stroke="black" fill="red" fill-opacity="0.1" id="5">
<title>sprite_214</title>
</rect>
<rect x="0" y="336" width="868" height="136" stroke="black" fill="red" fill-opacity="0.1" id="6">
<title>sprite_215</title>
</rect>
<rect x="0" y="132" width="800" height="96" stroke="black" fill="red" fill-opacity="0.1" id="7">
<title>sprite_216</title>
</rect>
<rect x="0" y="60" width="568" height="72" stroke="black" fill="red" fill-opacity="0.1" id="8">
<title>sprite_217</title>
</rect>
<rect x="568" y="60" width="568" height="72" stroke="black" fill="red" fill-opacity="0.1" id="9">
<title>sprite_218</title>
</rect>
<rect x="1136" y="60" width="568" height="72" stroke="black" fill="red" fill-opacity="0.1" id="10">
<title>sprite_219</title>
</rect>
<rect x="1704" y="60" width="568" height="72" stroke="black" fill="red" fill-opacity="0.1" id="11">
<title>sprite_220</title>
</rect>
<rect x="2272" y="60" width="568" height="72" stroke="black" fill="red" fill-opacity="0.1" id="12">
<title>sprite_221</title>
</rect>
<rect x="2840" y="60" width="568" height="72" stroke="black" fill="red" fill-opacity="0.1" id="13">
<title>sprite_222</title>
</rect>
<rect x="3408" y="60" width="568" height="72" stroke="black" fill="red" fill-opacity="0.1" id="14">
<title>sprite_223</title>
</rect>
<rect x="800" y="132" width="604" height="96" stroke="black" fill="red" fill-opacity="0.1" id="15">
<title>sprite_224</title>
</rect>
<rect x="1404" y="132" width="604" height="96" stroke="black" fill="red" fill-opacity="0.1" id="16">
<title>sprite_225</title>
</rect>
<rect x="2008" y="132" width="320" height="96" stroke="black" fill="red" fill-opacity="0.1" id="17">
<title>sprite_226</title>
</rect>
<rect x="2328" y="132" width="88" height="96" stroke="black" fill="red" fill-opacity="0.1" id="18">
<title>sprite_227</title>
</rect>
<rect x="2416" y="132" width="84" height="96" stroke="black" fill="red" fill-opacity="0.1" id="19">
<title>sprite_228</title>
</rect>
<rect x="2500" y="132" width="84" height="96" stroke="black" fill="red" fill-opacity="0.1" id="20">
<title>sprite_229</title>
</rect>
<rect x="2584" y="132" width="84" height="96" stroke="black" fill="red" fill-opacity="0.1" id="21">
<title>sprite_230</title>
</rect>
<rect x="2668" y="132" width="80" height="96" stroke="black" fill="red" fill-opacity="0.1" id="22">
<title>sprite_231</title>
</rect>
<rect x="2748" y="132" width="80" height="96" stroke="black" fill="red" fill-opacity="0.1" id="23">
<title>sprite_232</title>
</rect>
<rect x="2828" y="132" width="68" height="96" stroke="black" fill="red" fill-opacity="0.1" id="24">
<title>sprite_233</title>
</rect>
<rect x="2896" y="140" width="184" height="88" stroke="black" fill="red" fill-opacity="0.1" id="25">
<title>sprite_234</title>
</rect>
<rect x="3080" y="140" width="88" height="88" stroke="black" fill="red" fill-opacity="0.1" id="26">
<title>sprite_235</title>
</rect>
<rect x="3168" y="140" width="88" height="88" stroke="black" fill="red" fill-opacity="0.1" id="27">
<title>sprite_236</title>
</rect>
<rect x="3256" y="140" width="88" height="88" stroke="black" fill="red" fill-opacity="0.1" id="28">
<title>sprite_237</title>
</rect>
<rect x="3344" y="140" width="88" height="88" stroke="black" fill="red" fill-opacity="0.1" id="29">
<title>sprite_238</title>
</rect>
<rect x="3432" y="140" width="88" height="88" stroke="black" fill="red" fill-opacity="0.1" id="30">
<title>sprite_239</title>
</rect>
<rect x="3520" y="156" width="568" height="72" stroke="black" fill="red" fill-opacity="0.1" id="31">
<title>sprite_240</title>
</rect>
<rect x="112" y="232" width="280" height="104" stroke="black" fill="red" fill-opacity="0.1" id="32">
<title>sprite_241</title>
</rect>
<rect x="392" y="232" width="216" height="104" stroke="black" fill="red" fill-opacity="0.1" id="33">
<title>sprite_242</title>
</rect>
<rect x="608" y="232" width="200" height="104" stroke="black" fill="red" fill-opacity="0.1" id="34">
<title>sprite_243</title>
</rect>
<rect x="808" y="232" width="104" height="104" stroke="black" fill="red" fill-opacity="0.1" id="35">
<title>sprite_244</title>
</rect>
<rect x="912" y="232" width="104" height="104" stroke="black" fill="red" fill-opacity="0.1" id="36">
<title>sprite_245</title>
</rect>
<rect x="1016" y="232" width="72" height="104" stroke="black" fill="red" fill-opacity="0.1" id="37">
<title>sprite_246</title>
</rect>
<rect x="1088" y="240" width="952" height="96" stroke="black" fill="red" fill-opacity="0.1" id="38">
<title>sprite_247</title>
</rect>
<rect x="2040" y="240" width="952" height="96" stroke="black" fill="red" fill-opacity="0.1" id="39">
<title>sprite_248</title>
</rect>
<rect x="2992" y="240" width="800" height="96" stroke="black" fill="red" fill-opacity="0.1" id="40">
<title>sprite_249</title>
</rect>
<rect x="868" y="336" width="632" height="136" stroke="black" fill="red" fill-opacity="0.1" id="41">
<title>sprite_250</title>
</rect>
<rect x="1500" y="336" width="180" height="136" stroke="black" fill="red" fill-opacity="0.1" id="42">
<title>sprite_251</title>
</rect>
<rect x="1680" y="336" width="172" height="136" stroke="black" fill="red" fill-opacity="0.1" id="43">
<title>sprite_252</title>
</rect>
<rect x="1852" y="336" width="136" height="136" stroke="black" fill="red" fill-opacity="0.1" id="44">
<title>sprite_253</title>
</rect>
<rect x="1988" y="340" width="1236" height="132" stroke="black" fill="red" fill-opacity="0.1" id="45">
<title>sprite_254</title>
</rect>
<rect x="3224" y="340" width="192" height="132" stroke="black" fill="red" fill-opacity="0.1" id="46">
<title>sprite_255</title>
</rect>
<rect x="3416" y="352" width="568" height="120" stroke="black" fill="red" fill-opacity="0.1" id="47">
<title>sprite_256</title>
</rect>
<rect x="404" y="476" width="216" height="144" stroke="black" fill="red" fill-opacity="0.1" id="48">
<title>sprite_257</title>
</rect>
<rect x="620" y="476" width="132" height="144" stroke="black" fill="red" fill-opacity="0.1" id="49">
<title>sprite_258</title>
</rect>
<rect x="752" y="476" width="132" height="144" stroke="black" fill="red" fill-opacity="0.1" id="50">
<title>sprite_259</title>
</rect>
<rect x="884" y="476" width="132" height="144" stroke="black" fill="red" fill-opacity="0.1" id="51">
<title>sprite_260</title>
</rect>
<rect x="1016" y="476" width="128" height="144" stroke="black" fill="red" fill-opacity="0.1" id="52">
<title>sprite_261</title>
</rect>
<rect x="1144" y="476" width="128" height="144" stroke="black" fill="red" fill-opacity="0.1" id="53">
<title>sprite_262</title>
</rect>
<rect x="1272" y="480" width="844" height="140" stroke="black" fill="red" fill-opacity="0.1" id="54">
<title>sprite_263</title>
</rect>
<rect x="2116" y="480" width="608" height="140" stroke="black" fill="red" fill-opacity="0.1" id="55">
<title>sprite_264</title>
</rect>
<rect x="2724" y="480" width="504" height="140" stroke="black" fill="red" fill-opacity="0.1" id="56">
<title>sprite_265</title>
</rect>
<rect x="3228" y="480" width="148" height="140" stroke="black" fill="red" fill-opacity="0.1" id="57">
<title>sprite_266</title>
</rect>
<rect x="3376" y="480" width="140" height="140" stroke="black" fill="red" fill-opacity="0.1" id="58">
<title>sprite_267</title>
</rect>
<rect x="3516" y="480" width="140" height="140" stroke="black" fill="red" fill-opacity="0.1" id="59">
<title>sprite_268</title>
</rect>
<rect x="3656" y="480" width="108" height="140" stroke="black" fill="red" fill-opacity="0.1" id="60">
<title>sprite_269</title>
</rect>
<rect x="3764" y="500" width="296" height="120" stroke="black" fill="red" fill-opacity="0.1" id="61">
<title>sprite_270</title>
</rect>
<rect x="1256" y="620" width="984" height="164" stroke="black" fill="red" fill-opacity="0.1" id="62">
<title>sprite_271</title>
</rect>
<rect x="2240" y="620" width="120" height="164" stroke="black" fill="red" fill-opacity="0.1" id="63">
<title>sprite_272</title>
</rect>
<rect x="2360" y="628" width="1632" height="156" stroke="black" fill="red" fill-opacity="0.1" id="64">
<title>sprite_273</title>
</rect>
<rect x="1304" y="784" width="360" height="184" stroke="black" fill="red" fill-opacity="0.1" id="65">
<title>sprite_274</title>
</rect>
<rect x="1664" y="800" width="232" height="168" stroke="black" fill="red" fill-opacity="0.1" id="66">
<title>sprite_275</title>
</rect>
<rect x="1896" y="800" width="232" height="168" stroke="black" fill="red" fill-opacity="0.1" id="67">
<title>sprite_276</title>
</rect>
<rect x="2128" y="800" width="232" height="168" stroke="black" fill="red" fill-opacity="0.1" id="68">
<title>sprite_277</title>
</rect>
<rect x="2360" y="800" width="232" height="168" stroke="black" fill="red" fill-opacity="0.1" id="69">
<title>sprite_278</title>
</rect>
<rect x="2592" y="800" width="232" height="168" stroke="black" fill="red" fill-opacity="0.1" id="70">
<title>sprite_279</title>
</rect>
<rect x="2824" y="800" width="232" height="168" stroke="black" fill="red" fill-opacity="0.1" id="71">
<title>sprite_280</title>
</rect>
<rect x="3056" y="816" width="576" height="152" stroke="black" fill="red" fill-opacity="0.1" id="72">
<title>sprite_281</title>
</rect>
<rect x="3632" y="816" width="280" height="152" stroke="black" fill="red" fill-opacity="0.1" id="73">
<title>sprite_282</title>
</rect>
<rect x="3912" y="848" width="168" height="120" stroke="black" fill="red" fill-opacity="0.1" id="74">
<title>sprite_283</title>
</rect>
<rect x="248" y="996" width="208" height="220" stroke="black" fill="red" fill-opacity="0.1" id="75">
<title>sprite_284</title>
</rect>
<rect x="456" y="1000" width="200" height="216" stroke="black" fill="red" fill-opacity="0.1" id="76">
<title>sprite_285</title>
</rect>
<rect x="656" y="1000" width="196" height="216" stroke="black" fill="red" fill-opacity="0.1" id="77">
<title>sprite_286</title>
</rect>
<rect x="852" y="1000" width="192" height="216" stroke="black" fill="red" fill-opacity="0.1" id="78">
<title>sprite_287</title>
</rect>
<rect x="1044" y="1000" width="192" height="216" stroke="black" fill="red" fill-opacity="0.1" id="79">
<title>sprite_288</title>
</rect>
<rect x="1236" y="1000" width="192" height="216" stroke="black" fill="red" fill-opacity="0.1" id="80">
<title>sprite_289</title>
</rect>
<rect x="1428" y="1000" width="184" height="216" stroke="black" fill="red" fill-opacity="0.1" id="81">
<title>sprite_290</title>
</rect>
<rect x="1612" y="1004" width="196" height="212" stroke="black" fill="red" fill-opacity="0.1" id="82">
<title>sprite_291</title>
</rect>
<rect x="1808" y="1008" width="192" height="208" stroke="black" fill="red" fill-opacity="0.1" id="83">
<title>sprite_292</title>
</rect>
<rect x="2000" y="1008" width="136" height="208" stroke="black" fill="red" fill-opacity="0.1" id="84">
<title>sprite_293</title>
</rect>
<rect x="2136" y="1012" width="880" height="204" stroke="black" fill="red" fill-opacity="0.1" id="85">
<title>sprite_294</title>
</rect>
<rect x="3016" y="1016" width="248" height="200" stroke="black" fill="red" fill-opacity="0.1" id="86">
<title>sprite_295</title>
</rect>
<rect x="3264" y="1064" width="236" height="152" stroke="black" fill="red" fill-opacity="0.1" id="87">
<title>sprite_296</title>
</rect>
<rect x="3264" y="992" width="568" height="72" stroke="black" fill="red" fill-opacity="0.1" id="88">
<title>sprite_297</title>
</rect>
<rect x="3500" y="1064" width="236" height="152" stroke="black" fill="red" fill-opacity="0.1" id="89">
<title>sprite_298</title>
</rect>
<rect x="3736" y="1096" width="120" height="120" stroke="black" fill="red" fill-opacity="0.1" id="90">
<title>sprite_299</title>
</rect>
<rect x="3856" y="1096" width="120" height="120" stroke="black" fill="red" fill-opacity="0.1" id="91">
<title>sprite_300</title>
</rect>
<rect x="3976" y="1096" width="120" height="120" stroke="black" fill="red" fill-opacity="0.1" id="92">
<title>sprite_301</title>
</rect>
<rect x="1048" y="1216" width="1048" height="312" stroke="black" fill="red" fill-opacity="0.1" id="93">
<title>sprite_302</title>
</rect>
<rect x="2096" y="1264" width="264" height="264" stroke="black" fill="red" fill-opacity="0.1" id="94">
<title>sprite_303</title>
</rect>
<rect x="2360" y="1280" width="1400" height="248" stroke="black" fill="red" fill-opacity="0.1" id="95">
<title>sprite_304</title>
</rect>
<rect x="3760" y="1280" width="248" height="248" stroke="black" fill="red" fill-opacity="0.1" id="96">
<title>sprite_305</title>
</rect>
<rect x="520" y="1544" width="504" height="504" stroke="black" fill="red" fill-opacity="0.1" id="97">
<title>sprite_306</title>
</rect>
<rect x="1024" y="1544" width="504" height="504" stroke="black" fill="red" fill-opacity="0.1" id="98">
<title>sprite_307</title>
</rect>
<rect x="1528" y="1544" width="504" height="504" stroke="black" fill="red" fill-opacity="0.1" id="99">
<title>sprite_308</title>
</rect>
<rect x="2032" y="1680" width="368" height="368" stroke="black" fill="red" fill-opacity="0.1" id="100">
<title>sprite_309</title>
</rect>
<rect x="2032" y="1608" width="568" height="72" stroke="black" fill="red" fill-opacity="0.1" id="101">
<title>sprite_310</title>
</rect>
<rect x="2032" y="1536" width="568" height="72" stroke="black" fill="red" fill-opacity="0.1" id="102">
<title>sprite_311</title>
</rect>
<rect x="2600" y="1536" width="568" height="72" stroke="black" fill="red" fill-opacity="0.1" id="103">
<title>sprite_312</title>
</rect>
<rect x="3168" y="1536" width="568" height="72" stroke="black" fill="red" fill-opacity="0.1" id="104">
<title>sprite_313</title>
</rect>
<rect x="2600" y="1608" width="568" height="72" stroke="black" fill="red" fill-opacity="0.1" id="105">
<title>sprite_314</title>
</rect>
<rect x="3168" y="1608" width="568" height="72" stroke="black" fill="red" fill-opacity="0.1" id="106">
<title>sprite_315</title>
</rect>
<rect x="2400" y="1680" width="368" height="368" stroke="black" fill="red" fill-opacity="0.1" id="107">
<title>sprite_316</title>
</rect>
<rect x="2768" y="1680" width="368" height="368" stroke="black" fill="red" fill-opacity="0.1" id="108">
<title>sprite_317</title>
</rect>
<rect x="3136" y="1800" width="504" height="248" stroke="black" fill="red" fill-opacity="0.1" id="109">
<title>sprite_318</title>
</rect>
<rect x="3136" y="1728" width="568" height="72" stroke="black" fill="red" fill-opacity="0.1" id="110">
<title>sprite_319</title>
</rect>
<rect x="3640" y="1800" width="248" height="248" stroke="black" fill="red" fill-opacity="0.1" id="111">
<title>sprite_320</title>
</rect>
</svg>