<?xml version="1.0" encoding="UTF-8"?>
<svg xmlns="http://www.w3.org/2000/svg" xmlns:xlink="http://www.w3.org/1999/xlink"
     width="512" height="512" viewBox="0 0 512 512">
<defs>
</defs>
<rect x="0" y="485" width="62" height="27" stroke="black" fill="red" fill-opacity="0.1" />
<rect x="62" y="485" width="62" height="27" stroke="black" fill="red" fill-opacity="0.1" />
<rect x="124" y="485" width="62" height="27" stroke="black" fill="red" fill-opacity="0.1" />
<rect x="186" y="485" width="62" height="27" stroke="black" fill="red" fill-opacity="0.1" />
<rect x="248" y="485" width="62" height="27" stroke="black" fill="red" fill-opacity="0.1" />
<rect x="310" y="485" width="62" height="27" stroke="black" fill="red" fill-opacity="0.1" />
<rect x="372" y="485" width="62" height="27" stroke="black" fill="red" fill-opacity="0.1" />
<rect x="434" y="485" width="62" height="27" stroke="black" fill="red" fill-opacity="0.1" />
<rect x="0" y="458" width="62" height="27" stroke="black" fill="red" fill-opacity="0.1" />
<rect x="62" y="458" width="62" height="27" stroke="black" fill="red" fill-opacity="0.1" />
<rect x="124" y="458" width="62" height="27" stroke="black" fill="red" fill-opacity="0.1" />
<rect x="186" y="458" width="62" height="27" stroke="black" fill="red" fill-opacity="0.1" />
<rect x="248" y="458" width="62" height="27" stroke="black" fill="red" fill-opacity="0.1" />
<rect x="310" y="458" width="62" height="27" stroke="black" fill="red" fill-opacity="0.1" />
<rect x="372" y="458" width="62" height="27" stroke="black" fill="red" fill-opacity="0.1" />
<rect x="434" y="458" width="62" height="27" stroke="black" fill="red" fill-opacity="0.1" />
<rect x="0" y="431" width="62" height="27" stroke="black" fill="red" fill-opacity="0.1" />
<rect x="62" y="431" width="62" height="27" stroke="black" fill="red" fill-opacity="0.1" />
<rect x="124" y="431" width="62" height="27" stroke="black" fill="red" fill-opacity="0.1" />
<rect x="186" y="431" width="62" height="27" stroke="black" fill="red" fill-opacity="0.1" />
<rect x="248" y="431" width="62" height="27" stroke="black" fill="red" fill-opacity="0.1" />
<rect x="310" y="431" width="62" height="27" stroke="black" fill="red" fill-opacity="0.1" />
<rect x="372" y="431" width="62" height="27" stroke="black" fill="red" fill-opacity="0.1" />
<rect x="434" y="431" width="62" height="27" stroke="black" fill="red" fill-opacity="0.1" />
<rect x="0" y="404" width="62" height="27" stroke="black" fill="red" fill-opacity="0.1" />
<rect x="62" y="404" width="62" height="27" stroke="black" fill="red" fill-opacity="0.1" />
<rect x="124" y="404" width="62" height="27" stroke="black" fill="red" fill-opacity="0.1" />
<rect x="186" y="404" width="62" height="27" stroke="black" fill="red" fill-opacity="0.1" />
<rect x="248" y="404" width="62" height="27" stroke="black" fill="red" fill-opacity="0.1" />
<rect x="310" y="404" width="62" height="27" stroke="black" fill="red" fill-opacity="0.1" />
<rect x="372" y="404" width="62" height="27" stroke="black" fill="red" fill-opacity="0.1" />
<rect x="434" y="404" width="62" height="27" stroke="black" fill="red" fill-opacity="0.1" />
<rect x="0" y="377" width="62" height="27" stroke="black" fill="red" fill-opacity="0.1" />
<rect x="62" y="377" width="62" height="27" stroke="black" fill="red" fill-opacity="0.1" />
<rect x="124" y="377" width="62" height="27" stroke="black" fill="red" fill-opacity="0.1" />
<rect x="186" y="377" width="62" height="27" stroke="black" fill="red" fill-opacity="0.1" />
<rect x="248" y="377" width="62" height="27" stroke="black" fill="red" fill-opacity="0.1" />
<rect x="310" y="377" width="62" height="27" stroke="black" fill="red" fill-opacity="0.1" />
<rect x="372" y="377" width="62" height="27" stroke="black" fill="red" fill-opacity="0.1" />
<rect x="434" y="377" width="62" height="27" stroke="black" fill="red" fill-opacity="0.1" />
<rect x="0" y="350" width="62" height="27" stroke="black" fill="red" fill-opacity="0.1" />
<rect x="62" y="350" width="62" height="27" stroke="black" fill="red" fill-opacity="0.1" />
<rect x="124" y="350" width="62" height="27" stroke="black" fill="red" fill-opacity="0.1" />
<rect x="186" y="350" width="62" height="27" stroke="black" fill="red" fill-opacity="0.1" />
<rect x="248" y="350" width="62" height="27" stroke="black" fill="red" fill-opacity="0.1" />
<rect x="310" y="350" width="62" height="27" stroke="black" fill="red" fill-opacity="0.1" />
<rect x="372" y="350" width="62" height="27" stroke="black" fill="red" fill-opacity="0.1" />
<rect x="434" y="350" width="62" height="27" stroke="black" fill="red" fill-opacity="0.1" />
<rect x="0" y="323" width="62" height="27" stroke="black" fill="red" fill-opacity="0.1" />
<rect x="62" y="323" width="62" height="27" stroke="black" fill="red" fill-opacity="0.1" />
<rect x="124" y="323" width="62" height="27" stroke="black" fill="red" fill-opacity="0.1" />
<rect x="186" y="323" width="62" height="27" stroke="black" fill="red" fill-opacity="0.1" />
<rect x="248" y="323" width="62" height="27" stroke="black" fill="red" fill-opacity="0.1" />
<rect x="310" y="323" width="62" height="27" stroke="black" fill="red" fill-opacity="0.1" />
<rect x="372" y="323" width="62" height="27" stroke="black" fill="red" fill-opacity="0.1" />
<rect x="434" y="323" width="62" height="27" stroke="black" fill="red" fill-opacity="0.1" />
<rect x="0" y="296" width="62" height="27" stroke="black" fill="red" fill-opacity="0.1" />
<rect x="62" y="296" width="62" height="27" stroke="black" fill="red" fill-opacity="0.1" />
<rect x="124" y="296" width="62" height="27" stroke="black" fill="red" fill-opacity="0.1" />
<rect x="186" y="296" width="62" height="27" stroke="black" fill="red" fill-opacity="0.1" />
<rect x="248" y="296" width="62" height="27" stroke="black" fill="red" fill-opacity="0.1" />
<rect x="310" y="296" width="62" height="27" stroke="black" fill="red" fill-opacity="0.1" />
<rect x="372" y="296" width="62" height="27" stroke="black" fill="red" fill-opacity="0.1" />
<rect x="434" y="296" width="62" height="27" stroke="black" fill="red" fill-opacity="0.1" />
<rect x="0" y="269" width="62" height="27" stroke="black" fill="red" fill-opacity="0.1" />
<rect x="62" y="269" width="62" height="27" stroke="black" fill="red" fill-opacity="0.1" />
<rect x="124" y="269" width="62" height="27" stroke="black" fill="red" fill-opacity="0.1" />
<rect x="186" y="269" width="62" height="27" stroke="black" fill="red" fill-opacity="0.1" />
<rect x="248" y="269" width="62" height="27" stroke="black" fill="red" fill-opacity="0.1" />
<rect x="310" y="269" width="62" height="27" stroke="black" fill="red" fill-opacity="0.1" />
<rect x="372" y="269" width="62" height="27" stroke="black" fill="red" fill-opacity="0.1" />
<rect x="434" y="269" width="62" height="27" stroke="black" fill="red" fill-opacity="0.1" />
<rect x="0" y="242" width="62" height="27" stroke="black" fill="red" fill-opacity="0.1" />
<rect x="62" y="242" width="62" height="27" stroke="black" fill="red" fill-opacity="0.1" />
<rect x="124" y="242" width="62" height="27" stroke="black" fill="red" fill-opacity="0.1" />
<rect x="186" y="242" width="62" height="27" stroke="black" fill="red" fill-opacity="0.1" />
<rect x="248" y="242" width="62" height="27" stroke="black" fill="red" fill-opacity="0.1" />
<rect x="310" y="242" width="62" height="27" stroke="black" fill="red" fill-opacity="0.1" />
<rect x="372" y="242" width="62" height="27" stroke="black" fill="red" fill-opacity="0.1" />
<rect x="434" y="242" width="62" height="27" stroke="black" fill="red" fill-opacity="0.1" />
<rect x="0" y="215" width="62" height="27" stroke="black" fill="red" fill-opacity="0.1" />
<rect x="62" y="215" width="62" height="27" stroke="black" fill="red" fill-opacity="0.1" />
<rect x="124" y="215" width="62" height="27" stroke="black" fill="red" fill-opacity="0.1" />
<rect x="186" y="215" width="62" height="27" stroke="black" fill="red" fill-opacity="0.1" />
<rect x="248" y="215" width="62" height="27" stroke="black" fill="red" fill-opacity="0.1" />
<rect x="310" y="215" width="62" height="27" stroke="black" fill="red" fill-opacity="0.1" />
<rect x="372" y="215" width="62" height="27" stroke="black" fill="red" fill-opacity="0.1" />
<rect x="434" y="215" width="62" height="27" stroke="black" fill="red" fill-opacity="0.1" />
<rect x="0" y="188" width="62" height="27" stroke="black" fill="red" fill-opacity="0.1" />
<rect x="62" y="188" width="62" height="27" stroke="black" fill="red" fill-opacity="0.1" />
<rect x="124" y="188" width="62" height="27" stroke="black" fill="red" fill-opacity="0.1" />
<rect x="186" y="188" width="62" height="27" stroke="black" fill="red" fill-opacity="0.1" />
<rect x="248" y="188" width="62" height="27" stroke="black" fill="red" fill-opacity="0.1" />
<rect x="310" y="188" width="62" height="27" stroke="black" fill="red" fill-opacity="0.1" />
<rect x="372" y="188" width="62" height="27" stroke="black" fill="red" fill-opacity="0.1" />
<rect x="434" y="188" width="62" height="27" stroke="black" fill="red" fill-opacity="0.1" />
<rect x="0" y="161" width="62" height="27" stroke="black" fill="red" fill-opacity="0.1" />
<rect x="62" y="161" width="62" height="27" stroke="black" fill="red" fill-opacity="0.1" />
<rect x="124" y="161" width="62" height="27" stroke="black" fill="red" fill-opacity="0.1" />
<rect x="186" y="161" width="62" height="27" stroke="black" fill="red" fill-opacity="0.1" />
<rect x="248" y="161" width="62" height="27" stroke="black" fill="red" fill-opacity="0.1" />
<rect x="310" y="161" width="62" height="27" stroke="black" fill="red" fill-opacity="0.1" />
<rect x="372" y="161" width="62" height="27" stroke="black" fill="red" fill-opacity="0.1" />
<rect x="434" y="161" width="62" height="27" stroke="black" fill="red" fill-opacity="0.1" />
<rect x="0" y="134" width="62" height="27" stroke="black" fill="red" fill-opacity="0.1" />
<rect x="62" y="134" width="62" height="27" stroke="black" fill="red" fill-opacity="0.1" />
<rect x="124" y="134" width="62" height="27" stroke="black" fill="red" fill-opacity="0.1" />
<rect x="186" y="134" width="62" height="27" stroke="black" fill="red" fill-opacity="0.1" />
<rect x="248" y="134" width="62" height="27" stroke="black" fill="red" fill-opacity="0.1" />
<rect x="310" y="134" width="62" height="27" stroke="black" fill="red" fill-opacity="0.1" />
<rect x="372" y="134" width="62" height="27" stroke="black" fill="red" fill-opacity="0.1" />
<rect x="434" y="134" width="62" height="27" stroke="black" fill="red" fill-opacity="0.1" />
<rect x="0" y="107" width="62" height="27" stroke="black" fill="red" fill-opacity="0.1" />
<rect x="62" y="107" width="62" height="27" stroke="black" fill="red" fill-opacity="0.1" />
<rect x="124" y="107" width="62" height="27" stroke="black" fill="red" fill-opacity="0.1" />
<rect x="186" y="107" width="62" height="27" stroke="black" fill="red" fill-opacity="0.1" />
<rect x="248" y="107" width="62" height="27" stroke="black" fill="red" fill-opacity="0.1" />
<rect x="310" y="107" width="62" height="27" stroke="black" fill="red" fill-opacity="0.1" />
<rect x="372" y="107" width="62" height="27" stroke="black" fill="red" fill-opacity="0.1" />
<rect x="434" y="107" width="62" height="27" stroke="black" fill="red" fill-opacity="0.1" />
<rect x="0" y="80" width="62" height="27" stroke="black" fill="red" fill-opacity="0.1" />
<rect x="62" y="80" width="62" height="27" stroke="black" fill="red" fill-opacity="0.1" />
<rect x="124" y="80" width="62" height="27" stroke="black" fill="red" fill-opacity="0.1" />
<rect x="186" y="80" width="62" height="27" stroke="black" fill="red" fill-opacity="0.1" />
<rect x="248" y="80" width="62" height="27" stroke="black" fill="red" fill-opacity="0.1" />
<rect x="310" y="80" width="62" height="27" stroke="black" fill="red" fill-opacity="0.1" />
<rect x="372" y="80" width="62" height="27" stroke="black" fill="red" fill-opacity="0.1" />
<rect x="434" y="80" width="62" height="27" stroke="black" fill="red" fill-opacity="0.1" />
<rect x="0" y="53" width="62" height="27" stroke="black" fill="red" fill-opacity="0.1" />
<rect x="62" y="53" width="62" height="27" stroke="black" fill="red" fill-opacity="0.1" />
<rect x="124" y="53" width="62" height="27" stroke="black" fill="red" fill-opacity="0.1" />
<rect x="186" y="53" width="62" height="27" stroke="black" fill="red" fill-opacity="0.1" />
<rect x="248" y="53" width="62" height="27" stroke="black" fill="red" fill-opacity="0.1" />
<rect x="310" y="53" width="62" height="27" stroke="black" fill="red" fill-opacity="0.1" />
<rect x="372" y="53" width="62" height="27" stroke="black" fill="red" fill-opacity="0.1" />
<rect x="434" y="53" width="62" height="27" stroke="black" fill="red" fill-opacity="0.1" />
<rect x="0" y="26" width="62" height="27" stroke="black" fill="red" fill-opacity="0.1" />
<rect x="62" y="26" width="62" height="27" stroke="black" fill="red" fill-opacity="0.1" />
<rect x="124" y="26" width="62" height="27" stroke="black" fill="red" fill-opacity="0.1" />
<rect x="186" y="26" width="62" height="27" stroke="black" fill="red" fill-opacity="0.1" />
</svg>