<?xml version="1.0" encoding="UTF-8"?>
<svg xmlns="http://www.w3.org/2000/svg" xmlns:xlink="http://www.w3.org/1999/xlink"
     width="512" height="128" viewBox="0 0 512 128">
<defs>
</defs>
<rect x="452" y="0" width="50" height="47" stroke="black" fill="red" fill-opacity="0.1" />
<rect x="402" y="0" width="50" height="47" stroke="black" fill="red" fill-opacity="0.1" />
<rect x="352" y="0" width="50" height="47" stroke="black" fill="red" fill-opacity="0.1" />
<rect x="301" y="0" width="50" height="47" stroke="black" fill="red" fill-opacity="0.1" />
<rect x="251" y="0" width="50" height="47" stroke="black" fill="red" fill-opacity="0.1" />
<rect x="201" y="0" width="50" height="47" stroke="black" fill="red" fill-opacity="0.1" />
<rect x="150" y="0" width="50" height="47" stroke="black" fill="red" fill-opacity="0.1" />
<rect x="100" y="0" width="50" height="47" stroke="black" fill="red" fill-opacity="0.1" />
<rect x="50" y="0" width="50" height="47" stroke="black" fill="red" fill-opacity="0.1" />
<rect x="0" y="0" width="50" height="47" stroke="black" fill="red" fill-opacity="0.1" />
<rect x="456" y="53" width="28" height="37" stroke="black" fill="red" fill-opacity="0.1" />
<rect x="456" y="91" width="28" height="37" stroke="black" fill="red" fill-opacity="0.1" />
<rect x="484" y="53" width="28" height="37" stroke="black" fill="red" fill-opacity="0.1" />
<rect x="484" y="91" width="28" height="37" stroke="black" fill="red" fill-opacity="0.1" />
<rect x="160" y="54" width="30" height="30" stroke="black" fill="red" fill-opacity="0.1" />
<rect x="130" y="54" width="30" height="30" stroke="black" fill="red" fill-opacity="0.1" />
<rect x="290" y="49" width="160" height="24" stroke="black" fill="red" fill-opacity="0.1" />
<rect x="0" y="106" width="149" height="22" stroke="black" fill="red" fill-opacity="0.1" />
<rect x="0" y="62" width="128" height="22" stroke="black" fill="red" fill-opacity="0.1" />
<rect x="139" y="84" width="128" height="22" stroke="black" fill="red" fill-opacity="0.1" />
<rect x="151" y="106" width="128" height="22" stroke="black" fill="red" fill-opacity="0.1" />
<rect x="348" y="74" width="64" height="22" stroke="black" fill="red" fill-opacity="0.1" />
<rect x="68" y="84" width="64" height="22" stroke="black" fill="red" fill-opacity="0.1" />
<rect x="0" y="84" width="64" height="22" stroke="black" fill="red" fill-opacity="0.1" />
<rect x="272" y="73" width="64" height="22" stroke="black" fill="red" fill-opacity="0.1" />
<rect x="192" y="62" width="32" height="22" stroke="black" fill="red" fill-opacity="0.1" />
<rect x="226" y="62" width="22" height="22" stroke="black" fill="red" fill-opacity="0.1" />
<rect x="250" y="62" width="22" height="22" stroke="black" fill="red" fill-opacity="0.1" />
<rect x="340" y="96" width="73" height="16" stroke="black" fill="red" fill-opacity="0.1" />
<rect x="359" y="112" width="48" height="16" stroke="black" fill="red" fill-opacity="0.1" />
<rect x="412" y="80" width="42" height="16" stroke="black" fill="red" fill-opacity="0.1" />
<rect x="296" y="96" width="42" height="16" stroke="black" fill="red" fill-opacity="0.1" />
<rect x="413" y="112" width="41" height="16" stroke="black" fill="red" fill-opacity="0.1" />
<rect x="416" y="96" width="38" height="16" stroke="black" fill="red" fill-opacity="0.1" />
<rect x="279" y="112" width="36" height="16" stroke="black" fill="red" fill-opacity="0.1" />
<rect x="319" y="112" width="36" height="16" stroke="black" fill="red" fill-opacity="0.1" />
<rect x="201" y="47" width="311" height="2" stroke="black" fill="red" fill-opacity="0.1" />
</svg>