<?xml version="1.0" encoding="UTF-8"?>
<svg xmlns="http://www.w3.org/2000/svg" xmlns:xlink="http://www.w3.org/1999/xlink"
     width="1024" height="512" viewBox="0 0 1024 512">
<defs>
</defs>
<rect x="0" y="386" width="126" height="126" stroke="black" fill="red" fill-opacity="0.1" id="0">
<title>sprite_112</title>
</rect>
<rect x="0" y="319" width="104" height="67" stroke="black" fill="red" fill-opacity="0.1" id="1">
<title>sprite_113</title>
</rect>
<rect x="0" y="261" width="102" height="58" stroke="black" fill="red" fill-opacity="0.1" id="2">
<title>sprite_114</title>
</rect>
<rect x="0" y="209" width="102" height="52" stroke="black" fill="red" fill-opacity="0.1" id="3">
<title>sprite_115</title>
</rect>
<rect x="0" y="159" width="105" height="50" stroke="black" fill="red" fill-opacity="0.1" id="4">
<title>sprite_116</title>
</rect>
<rect x="0" y="116" width="200" height="43" stroke="black" fill="red" fill-opacity="0.1" id="5">
<title>sprite_117</title>
</rect>
<rect x="0" y="79" width="103" height="37" stroke="black" fill="red" fill-opacity="0.1" id="6">
<title>sprite_118</title>
</rect>
<rect x="0" y="52" width="187" height="27" stroke="black" fill="red" fill-opacity="0.1" id="7">
<title>sprite_119</title>
</rect>
<rect x="0" y="29" width="190" height="23" stroke="black" fill="red" fill-opacity="0.1" id="8">
<title>sprite_120</title>
</rect>
<rect x="0" y="9" width="190" height="20" stroke="black" fill="red" fill-opacity="0.1" id="9">
<title>sprite_121</title>
</rect>
<rect x="190" y="9" width="190" height="20" stroke="black" fill="red" fill-opacity="0.1" id="10">
<title>sprite_122</title>
</rect>
<rect x="380" y="9" width="190" height="20" stroke="black" fill="red" fill-opacity="0.1" id="11">
<title>sprite_123</title>
</rect>
<rect x="570" y="27" width="104" height="2" stroke="black" fill="red" fill-opacity="0.1" id="12">
<title>sprite_124</title>
</rect>
<rect x="190" y="29" width="190" height="23" stroke="black" fill="red" fill-opacity="0.1" id="13">
<title>sprite_125</title>
</rect>
<rect x="380" y="29" width="67" height="23" stroke="black" fill="red" fill-opacity="0.1" id="14">
<title>sprite_126</title>
</rect>
<rect x="447" y="32" width="190" height="20" stroke="black" fill="red" fill-opacity="0.1" id="15">
<title>sprite_127</title>
</rect>
<rect x="637" y="32" width="190" height="20" stroke="black" fill="red" fill-opacity="0.1" id="16">
<title>sprite_128</title>
</rect>
<rect x="827" y="32" width="190" height="20" stroke="black" fill="red" fill-opacity="0.1" id="17">
<title>sprite_129</title>
</rect>
<rect x="187" y="52" width="187" height="27" stroke="black" fill="red" fill-opacity="0.1" id="18">
<title>sprite_130</title>
</rect>
<rect x="374" y="52" width="100" height="27" stroke="black" fill="red" fill-opacity="0.1" id="19">
<title>sprite_131</title>
</rect>
<rect x="474" y="52" width="100" height="27" stroke="black" fill="red" fill-opacity="0.1" id="20">
<title>sprite_132</title>
</rect>
<rect x="574" y="52" width="32" height="27" stroke="black" fill="red" fill-opacity="0.1" id="21">
<title>sprite_133</title>
</rect>
<rect x="606" y="52" width="28" height="27" stroke="black" fill="red" fill-opacity="0.1" id="22">
<title>sprite_134</title>
</rect>
<rect x="634" y="52" width="28" height="27" stroke="black" fill="red" fill-opacity="0.1" id="23">
<title>sprite_135</title>
</rect>
<rect x="662" y="56" width="190" height="23" stroke="black" fill="red" fill-opacity="0.1" id="24">
<title>sprite_136</title>
</rect>
<rect x="103" y="83" width="103" height="33" stroke="black" fill="red" fill-opacity="0.1" id="25">
<title>sprite_137</title>
</rect>
<rect x="206" y="84" width="114" height="32" stroke="black" fill="red" fill-opacity="0.1" id="26">
<title>sprite_138</title>
</rect>
<rect x="320" y="84" width="105" height="32" stroke="black" fill="red" fill-opacity="0.1" id="27">
<title>sprite_139</title>
</rect>
<rect x="425" y="86" width="104" height="30" stroke="black" fill="red" fill-opacity="0.1" id="28">
<title>sprite_140</title>
</rect>
<rect x="529" y="88" width="100" height="28" stroke="black" fill="red" fill-opacity="0.1" id="29">
<title>sprite_141</title>
</rect>
<rect x="629" y="88" width="30" height="28" stroke="black" fill="red" fill-opacity="0.1" id="30">
<title>sprite_142</title>
</rect>
<rect x="659" y="88" width="28" height="28" stroke="black" fill="red" fill-opacity="0.1" id="31">
<title>sprite_143</title>
</rect>
<rect x="687" y="89" width="187" height="27" stroke="black" fill="red" fill-opacity="0.1" id="32">
<title>sprite_144</title>
</rect>
<rect x="200" y="117" width="189" height="42" stroke="black" fill="red" fill-opacity="0.1" id="33">
<title>sprite_145</title>
</rect>
<rect x="389" y="117" width="182" height="42" stroke="black" fill="red" fill-opacity="0.1" id="34">
<title>sprite_146</title>
</rect>
<rect x="571" y="117" width="164" height="42" stroke="black" fill="red" fill-opacity="0.1" id="35">
<title>sprite_147</title>
</rect>
<rect x="735" y="117" width="161" height="42" stroke="black" fill="red" fill-opacity="0.1" id="36">
<title>sprite_148</title>
</rect>
<rect x="896" y="119" width="105" height="40" stroke="black" fill="red" fill-opacity="0.1" id="37">
<title>sprite_149</title>
</rect>
<rect x="105" y="159" width="77" height="50" stroke="black" fill="red" fill-opacity="0.1" id="38">
<title>sprite_150</title>
</rect>
<rect x="182" y="160" width="90" height="49" stroke="black" fill="red" fill-opacity="0.1" id="39">
<title>sprite_151</title>
</rect>
<rect x="272" y="160" width="80" height="49" stroke="black" fill="red" fill-opacity="0.1" id="40">
<title>sprite_152</title>
</rect>
<rect x="352" y="161" width="80" height="48" stroke="black" fill="red" fill-opacity="0.1" id="41">
<title>sprite_153</title>
</rect>
<rect x="432" y="161" width="79" height="48" stroke="black" fill="red" fill-opacity="0.1" id="42">
<title>sprite_154</title>
</rect>
<rect x="511" y="161" width="78" height="48" stroke="black" fill="red" fill-opacity="0.1" id="43">
<title>sprite_155</title>
</rect>
<rect x="589" y="161" width="46" height="48" stroke="black" fill="red" fill-opacity="0.1" id="44">
<title>sprite_156</title>
</rect>
<rect x="635" y="162" width="103" height="47" stroke="black" fill="red" fill-opacity="0.1" id="45">
<title>sprite_157</title>
</rect>
<rect x="738" y="162" width="29" height="47" stroke="black" fill="red" fill-opacity="0.1" id="46">
<title>sprite_158</title>
</rect>
<rect x="767" y="163" width="103" height="46" stroke="black" fill="red" fill-opacity="0.1" id="47">
<title>sprite_159</title>
</rect>
<rect x="870" y="163" width="103" height="46" stroke="black" fill="red" fill-opacity="0.1" id="48">
<title>sprite_160</title>
</rect>
<rect x="102" y="210" width="105" height="51" stroke="black" fill="red" fill-opacity="0.1" id="49">
<title>sprite_161</title>
</rect>
<rect x="207" y="210" width="103" height="51" stroke="black" fill="red" fill-opacity="0.1" id="50">
<title>sprite_162</title>
</rect>
<rect x="310" y="210" width="103" height="51" stroke="black" fill="red" fill-opacity="0.1" id="51">
<title>sprite_163</title>
</rect>
<rect x="413" y="210" width="102" height="51" stroke="black" fill="red" fill-opacity="0.1" id="52">
<title>sprite_164</title>
</rect>
<rect x="515" y="210" width="100" height="51" stroke="black" fill="red" fill-opacity="0.1" id="53">
<title>sprite_165</title>
</rect>
<rect x="615" y="210" width="100" height="51" stroke="black" fill="red" fill-opacity="0.1" id="54">
<title>sprite_166</title>
</rect>
<rect x="715" y="210" width="100" height="51" stroke="black" fill="red" fill-opacity="0.1" id="55">
<title>sprite_167</title>
</rect>
<rect x="815" y="211" width="106" height="50" stroke="black" fill="red" fill-opacity="0.1" id="56">
<title>sprite_168</title>
</rect>
<rect x="921" y="216" width="99" height="45" stroke="black" fill="red" fill-opacity="0.1" id="57">
<title>sprite_169</title>
</rect>
<rect x="102" y="261" width="99" height="58" stroke="black" fill="red" fill-opacity="0.1" id="58">
<title>sprite_170</title>
</rect>
<rect x="201" y="261" width="98" height="58" stroke="black" fill="red" fill-opacity="0.1" id="59">
<title>sprite_171</title>
</rect>
<rect x="299" y="261" width="97" height="58" stroke="black" fill="red" fill-opacity="0.1" id="60">
<title>sprite_172</title>
</rect>
<rect x="396" y="262" width="104" height="57" stroke="black" fill="red" fill-opacity="0.1" id="61">
<title>sprite_173</title>
</rect>
<rect x="500" y="263" width="104" height="56" stroke="black" fill="red" fill-opacity="0.1" id="62">
<title>sprite_174</title>
</rect>
<rect x="604" y="263" width="87" height="56" stroke="black" fill="red" fill-opacity="0.1" id="63">
<title>sprite_175</title>
</rect>
<rect x="691" y="264" width="88" height="55" stroke="black" fill="red" fill-opacity="0.1" id="64">
<title>sprite_176</title>
</rect>
<rect x="779" y="265" width="105" height="54" stroke="black" fill="red" fill-opacity="0.1" id="65">
<title>sprite_177</title>
</rect>
<rect x="884" y="267" width="106" height="52" stroke="black" fill="red" fill-opacity="0.1" id="66">
<title>sprite_178</title>
</rect>
<rect x="104" y="319" width="93" height="67" stroke="black" fill="red" fill-opacity="0.1" id="67">
<title>sprite_179</title>
</rect>
<rect x="197" y="320" width="104" height="66" stroke="black" fill="red" fill-opacity="0.1" id="68">
<title>sprite_180</title>
</rect>
<rect x="301" y="321" width="102" height="65" stroke="black" fill="red" fill-opacity="0.1" id="69">
<title>sprite_181</title>
</rect>
<rect x="403" y="323" width="104" height="63" stroke="black" fill="red" fill-opacity="0.1" id="70">
<title>sprite_182</title>
</rect>
<rect x="507" y="324" width="104" height="62" stroke="black" fill="red" fill-opacity="0.1" id="71">
<title>sprite_183</title>
</rect>
<rect x="611" y="325" width="75" height="61" stroke="black" fill="red" fill-opacity="0.1" id="72">
<title>sprite_184</title>
</rect>
<rect x="686" y="325" width="71" height="61" stroke="black" fill="red" fill-opacity="0.1" id="73">
<title>sprite_185</title>
</rect>
<rect x="757" y="327" width="103" height="59" stroke="black" fill="red" fill-opacity="0.1" id="74">
<title>sprite_186</title>
</rect>
<rect x="860" y="327" width="103" height="59" stroke="black" fill="red" fill-opacity="0.1" id="75">
<title>sprite_187</title>
</rect>
<rect x="126" y="386" width="126" height="126" stroke="black" fill="red" fill-opacity="0.1" id="76">
<title>sprite_188</title>
</rect>
<rect x="252" y="392" width="122" height="120" stroke="black" fill="red" fill-opacity="0.1" id="77">
<title>sprite_189</title>
</rect>
<rect x="374" y="392" width="122" height="120" stroke="black" fill="red" fill-opacity="0.1" id="78">
<title>sprite_190</title>
</rect>
<rect x="496" y="418" width="126" height="94" stroke="black" fill="red" fill-opacity="0.1" id="79">
<title>sprite_191</title>
</rect>
<rect x="622" y="418" width="126" height="94" stroke="black" fill="red" fill-opacity="0.1" id="80">
<title>sprite_192</title>
</rect>
<rect x="748" y="442" width="104" height="70" stroke="black" fill="red" fill-opacity="0.1" id="81">
<title>sprite_193</title>
</rect>
<rect x="852" y="442" width="87" height="70" stroke="black" fill="red" fill-opacity="0.1" id="82">
<title>sprite_194</title>
</rect>
</svg>