<?xml version="1.0" encoding="UTF-8"?>
<svg xmlns="http://www.w3.org/2000/svg" xmlns:xlink="http://www.w3.org/1999/xlink"
     width="2048" height="2048" viewBox="0 0 2048 2048">
<defs>
</defs>
<rect x="4" y="4" width="360" height="280" stroke="black" fill="red" fill-opacity="0.1" id="0">
<title>sprite_469</title>
</rect>
<rect x="372" y="4" width="360" height="280" stroke="black" fill="red" fill-opacity="0.1" id="1">
<title>sprite_470</title>
</rect>
<rect x="740" y="4" width="360" height="280" stroke="black" fill="red" fill-opacity="0.1" id="2">
<title>sprite_471</title>
</rect>
<rect x="1108" y="4" width="360" height="280" stroke="black" fill="red" fill-opacity="0.1" id="3">
<title>sprite_472</title>
</rect>
<rect x="1476" y="4" width="360" height="280" stroke="black" fill="red" fill-opacity="0.1" id="4">
<title>sprite_473</title>
</rect>
<rect x="4" y="292" width="360" height="280" stroke="black" fill="red" fill-opacity="0.1" id="5">
<title>sprite_474</title>
</rect>
<rect x="372" y="292" width="360" height="280" stroke="black" fill="red" fill-opacity="0.1" id="6">
<title>sprite_475</title>
</rect>
<rect x="740" y="292" width="360" height="280" stroke="black" fill="red" fill-opacity="0.1" id="7">
<title>sprite_476</title>
</rect>
<rect x="1108" y="292" width="360" height="280" stroke="black" fill="red" fill-opacity="0.1" id="8">
<title>sprite_477</title>
</rect>
<rect x="1476" y="292" width="360" height="280" stroke="black" fill="red" fill-opacity="0.1" id="9">
<title>sprite_478</title>
</rect>
<rect x="4" y="580" width="360" height="280" stroke="black" fill="red" fill-opacity="0.1" id="10">
<title>sprite_479</title>
</rect>
<rect x="4" y="868" width="328" height="280" stroke="black" fill="red" fill-opacity="0.1" id="11">
<title>sprite_480</title>
</rect>
<rect x="340" y="868" width="328" height="280" stroke="black" fill="red" fill-opacity="0.1" id="12">
<title>sprite_481</title>
</rect>
<rect x="676" y="836" width="328" height="280" stroke="black" fill="red" fill-opacity="0.1" id="13">
<title>sprite_482</title>
</rect>
<rect x="1012" y="836" width="328" height="280" stroke="black" fill="red" fill-opacity="0.1" id="14">
<title>sprite_483</title>
</rect>
<rect x="1348" y="788" width="328" height="280" stroke="black" fill="red" fill-opacity="0.1" id="15">
<title>sprite_484</title>
</rect>
<rect x="1684" y="788" width="328" height="280" stroke="black" fill="red" fill-opacity="0.1" id="16">
<title>sprite_485</title>
</rect>
<rect x="4" y="1156" width="328" height="280" stroke="black" fill="red" fill-opacity="0.1" id="17">
<title>sprite_486</title>
</rect>
<rect x="340" y="1156" width="328" height="280" stroke="black" fill="red" fill-opacity="0.1" id="18">
<title>sprite_487</title>
</rect>
<rect x="676" y="1124" width="328" height="280" stroke="black" fill="red" fill-opacity="0.1" id="19">
<title>sprite_488</title>
</rect>
<rect x="372" y="580" width="380" height="248" stroke="black" fill="red" fill-opacity="0.1" id="20">
<title>sprite_489</title>
</rect>
<rect x="764" y="580" width="380" height="248" stroke="black" fill="red" fill-opacity="0.1" id="21">
<title>sprite_490</title>
</rect>
<rect x="1156" y="580" width="360" height="200" stroke="black" fill="red" fill-opacity="0.1" id="22">
<title>sprite_491</title>
</rect>
<rect x="1524" y="580" width="360" height="200" stroke="black" fill="red" fill-opacity="0.1" id="23">
<title>sprite_492</title>
</rect>
<rect x="1012" y="1124" width="360" height="200" stroke="black" fill="red" fill-opacity="0.1" id="24">
<title>sprite_493</title>
</rect>
<rect x="1380" y="1076" width="360" height="200" stroke="black" fill="red" fill-opacity="0.1" id="25">
<title>sprite_494</title>
</rect>
<rect x="4" y="1444" width="360" height="200" stroke="black" fill="red" fill-opacity="0.1" id="26">
<title>sprite_495</title>
</rect>
<rect x="372" y="1444" width="360" height="200" stroke="black" fill="red" fill-opacity="0.1" id="27">
<title>sprite_496</title>
</rect>
<rect x="740" y="1412" width="360" height="200" stroke="black" fill="red" fill-opacity="0.1" id="28">
<title>sprite_497</title>
</rect>
<rect x="1108" y="1332" width="360" height="200" stroke="black" fill="red" fill-opacity="0.1" id="29">
<title>sprite_498</title>
</rect>
<rect x="1476" y="1284" width="360" height="200" stroke="black" fill="red" fill-opacity="0.1" id="30">
<title>sprite_499</title>
</rect>
<rect x="4" y="1652" width="360" height="200" stroke="black" fill="red" fill-opacity="0.1" id="31">
<title>sprite_500</title>
</rect>
<rect x="372" y="1652" width="360" height="200" stroke="black" fill="red" fill-opacity="0.1" id="32">
<title>sprite_501</title>
</rect>
<rect x="740" y="1620" width="360" height="200" stroke="black" fill="red" fill-opacity="0.1" id="33">
<title>sprite_502</title>
</rect>
<rect x="1108" y="1540" width="360" height="200" stroke="black" fill="red" fill-opacity="0.1" id="34">
<title>sprite_503</title>
</rect>
<rect x="1476" y="1492" width="360" height="200" stroke="black" fill="red" fill-opacity="0.1" id="35">
<title>sprite_504</title>
</rect>
<rect x="1012" y="1828" width="360" height="200" stroke="black" fill="red" fill-opacity="0.1" id="36">
<title>sprite_505</title>
</rect>
<rect x="1380" y="1748" width="360" height="200" stroke="black" fill="red" fill-opacity="0.1" id="37">
<title>sprite_506</title>
</rect>
</svg>