<?xml version="1.0" encoding="UTF-8"?>
<svg xmlns="http://www.w3.org/2000/svg" xmlns:xlink="http://www.w3.org/1999/xlink"
     width="512" height="256" viewBox="0 0 512 256">
<defs>
</defs>
<rect x="0" y="196" width="58" height="60" stroke="black" fill="red" fill-opacity="0.1" id="0">
<title>sprite_315</title>
</rect>
<rect x="58" y="196" width="58" height="60" stroke="black" fill="red" fill-opacity="0.1" id="1">
<title>sprite_316</title>
</rect>
<rect x="116" y="196" width="58" height="60" stroke="black" fill="red" fill-opacity="0.1" id="2">
<title>sprite_317</title>
</rect>
<rect x="174" y="196" width="58" height="60" stroke="black" fill="red" fill-opacity="0.1" id="3">
<title>sprite_318</title>
</rect>
<rect x="232" y="196" width="58" height="60" stroke="black" fill="red" fill-opacity="0.1" id="4">
<title>sprite_319</title>
</rect>
<rect x="290" y="196" width="58" height="60" stroke="black" fill="red" fill-opacity="0.1" id="5">
<title>sprite_320</title>
</rect>
<rect x="348" y="196" width="58" height="60" stroke="black" fill="red" fill-opacity="0.1" id="6">
<title>sprite_321</title>
</rect>
<rect x="406" y="196" width="58" height="60" stroke="black" fill="red" fill-opacity="0.1" id="7">
<title>sprite_322</title>
</rect>
<rect x="0" y="136" width="58" height="60" stroke="black" fill="red" fill-opacity="0.1" id="8">
<title>sprite_323</title>
</rect>
<rect x="58" y="138" width="58" height="58" stroke="black" fill="red" fill-opacity="0.1" id="9">
<title>sprite_324</title>
</rect>
<rect x="116" y="138" width="58" height="58" stroke="black" fill="red" fill-opacity="0.1" id="10">
<title>sprite_325</title>
</rect>
<rect x="174" y="138" width="58" height="58" stroke="black" fill="red" fill-opacity="0.1" id="11">
<title>sprite_326</title>
</rect>
<rect x="232" y="138" width="58" height="58" stroke="black" fill="red" fill-opacity="0.1" id="12">
<title>sprite_327</title>
</rect>
<rect x="290" y="138" width="58" height="58" stroke="black" fill="red" fill-opacity="0.1" id="13">
<title>sprite_328</title>
</rect>
<rect x="348" y="138" width="58" height="58" stroke="black" fill="red" fill-opacity="0.1" id="14">
<title>sprite_329</title>
</rect>
<rect x="406" y="138" width="58" height="58" stroke="black" fill="red" fill-opacity="0.1" id="15">
<title>sprite_330</title>
</rect>
<rect x="0" y="78" width="58" height="58" stroke="black" fill="red" fill-opacity="0.1" id="16">
<title>sprite_331</title>
</rect>
<rect x="58" y="78" width="58" height="58" stroke="black" fill="red" fill-opacity="0.1" id="17">
<title>sprite_332</title>
</rect>
<rect x="116" y="86" width="50" height="50" stroke="black" fill="red" fill-opacity="0.1" id="18">
<title>sprite_333</title>
</rect>
<rect x="166" y="86" width="50" height="50" stroke="black" fill="red" fill-opacity="0.1" id="19">
<title>sprite_334</title>
</rect>
<rect x="216" y="94" width="54" height="42" stroke="black" fill="red" fill-opacity="0.1" id="20">
<title>sprite_335</title>
</rect>
<rect x="270" y="102" width="54" height="34" stroke="black" fill="red" fill-opacity="0.1" id="21">
<title>sprite_336</title>
</rect>
<rect x="324" y="102" width="54" height="34" stroke="black" fill="red" fill-opacity="0.1" id="22">
<title>sprite_337</title>
</rect>
<rect x="378" y="102" width="54" height="34" stroke="black" fill="red" fill-opacity="0.1" id="23">
<title>sprite_338</title>
</rect>
<rect x="432" y="102" width="54" height="34" stroke="black" fill="red" fill-opacity="0.1" id="24">
<title>sprite_339</title>
</rect>
<rect x="0" y="48" width="142" height="30" stroke="black" fill="red" fill-opacity="0.1" id="25">
<title>sprite_340</title>
</rect>
<rect x="142" y="48" width="142" height="30" stroke="black" fill="red" fill-opacity="0.1" id="26">
<title>sprite_341</title>
</rect>
<rect x="284" y="52" width="174" height="26" stroke="black" fill="red" fill-opacity="0.1" id="27">
<title>sprite_342</title>
</rect>
<rect x="0" y="22" width="110" height="26" stroke="black" fill="red" fill-opacity="0.1" id="28">
<title>sprite_343</title>
</rect>
<rect x="110" y="26" width="102" height="22" stroke="black" fill="red" fill-opacity="0.1" id="29">
<title>sprite_344</title>
</rect>
<rect x="212" y="30" width="138" height="18" stroke="black" fill="red" fill-opacity="0.1" id="30">
<title>sprite_345</title>
</rect>
</svg>