<?xml version="1.0" encoding="UTF-8"?>
<svg xmlns="http://www.w3.org/2000/svg" xmlns:xlink="http://www.w3.org/1999/xlink"
     width="1024" height="1024" viewBox="0 0 1024 1024">
<defs>
</defs>
<rect x="420" y="604" width="420" height="420" stroke="black" fill="red" fill-opacity="0.1" />
<rect x="0" y="184" width="420" height="420" stroke="black" fill="red" fill-opacity="0.1" />
<rect x="0" y="604" width="420" height="420" stroke="black" fill="red" fill-opacity="0.1" />
<rect x="530" y="350" width="110" height="254" stroke="black" fill="red" fill-opacity="0.1" />
<rect x="420" y="350" width="110" height="254" stroke="black" fill="red" fill-opacity="0.1" />
<rect x="640" y="450" width="62" height="154" stroke="black" fill="red" fill-opacity="0.1" />
<rect x="702" y="477" width="55" height="127" stroke="black" fill="red" fill-opacity="0.1" />
<rect x="757" y="494" width="158" height="110" stroke="black" fill="red" fill-opacity="0.1" />
<rect x="840" y="914" width="150" height="110" stroke="black" fill="red" fill-opacity="0.1" />
<rect x="915" y="498" width="54" height="106" stroke="black" fill="red" fill-opacity="0.1" />
<rect x="0" y="118" width="554" height="66" stroke="black" fill="red" fill-opacity="0.1" />
<rect x="0" y="52" width="554" height="66" stroke="black" fill="red" fill-opacity="0.1" />
<rect x="554" y="118" width="394" height="66" stroke="black" fill="red" fill-opacity="0.1" />
<rect x="554" y="52" width="330" height="66" stroke="black" fill="red" fill-opacity="0.1" />
<rect x="948" y="120" width="64" height="64" stroke="black" fill="red" fill-opacity="0.1" />
<rect x="884" y="60" width="22" height="58" stroke="black" fill="red" fill-opacity="0.1" />
<rect x="1012" y="126" width="10" height="58" stroke="black" fill="red" fill-opacity="0.1" />
<rect x="0" y="2" width="390" height="50" stroke="black" fill="red" fill-opacity="0.1" />
<rect x="390" y="2" width="158" height="50" stroke="black" fill="red" fill-opacity="0.1" />
<rect x="548" y="10" width="442" height="42" stroke="black" fill="red" fill-opacity="0.1" />
<rect x="420" y="308" width="362" height="42" stroke="black" fill="red" fill-opacity="0.1" />
<rect x="782" y="316" width="190" height="34" stroke="black" fill="red" fill-opacity="0.1" />
<rect x="420" y="274" width="158" height="34" stroke="black" fill="red" fill-opacity="0.1" />
<rect x="578" y="274" width="138" height="34" stroke="black" fill="red" fill-opacity="0.1" />
<rect x="716" y="278" width="154" height="30" stroke="black" fill="red" fill-opacity="0.1" />
<rect x="990" y="26" width="26" height="26" stroke="black" fill="red" fill-opacity="0.1" />
<rect x="906" y="96" width="30" height="22" stroke="black" fill="red" fill-opacity="0.1" />
<rect x="936" y="96" width="18" height="22" stroke="black" fill="red" fill-opacity="0.1" />
<rect x="954" y="96" width="18" height="22" stroke="black" fill="red" fill-opacity="0.1" />
<rect x="972" y="96" width="18" height="22" stroke="black" fill="red" fill-opacity="0.1" />
<rect x="990" y="96" width="18" height="22" stroke="black" fill="red" fill-opacity="0.1" />
<rect x="870" y="286" width="18" height="22" stroke="black" fill="red" fill-opacity="0.1" />
<rect x="888" y="286" width="18" height="22" stroke="black" fill="red" fill-opacity="0.1" />
<rect x="906" y="286" width="18" height="22" stroke="black" fill="red" fill-opacity="0.1" />
<rect x="852" y="256" width="138" height="18" stroke="black" fill="red" fill-opacity="0.1" />
<rect x="906" y="78" width="110" height="18" stroke="black" fill="red" fill-opacity="0.1" />
<rect x="906" y="60" width="110" height="18" stroke="black" fill="red" fill-opacity="0.1" />
<rect x="420" y="238" width="110" height="18" stroke="black" fill="red" fill-opacity="0.1" />
<rect x="530" y="238" width="30" height="18" stroke="black" fill="red" fill-opacity="0.1" />
<rect x="560" y="238" width="26" height="18" stroke="black" fill="red" fill-opacity="0.1" />
<rect x="586" y="238" width="26" height="18" stroke="black" fill="red" fill-opacity="0.1" />
<rect x="1008" y="100" width="10" height="18" stroke="black" fill="red" fill-opacity="0.1" />
<rect x="742" y="242" width="130" height="14" stroke="black" fill="red" fill-opacity="0.1" />
<rect x="612" y="242" width="130" height="14" stroke="black" fill="red" fill-opacity="0.1" />
<rect x="872" y="242" width="26" height="14" stroke="black" fill="red" fill-opacity="0.1" />
<rect x="898" y="242" width="26" height="14" stroke="black" fill="red" fill-opacity="0.1" />
<rect x="924" y="242" width="26" height="14" stroke="black" fill="red" fill-opacity="0.1" />
<rect x="950" y="242" width="26" height="14" stroke="black" fill="red" fill-opacity="0.1" />
</svg>