<?xml version="1.0" encoding="UTF-8" standalone="no"?>
<!-- Created with Inkscape (http://www.inkscape.org/) -->

<svg
   width="512"
   height="512"
   viewBox="0 -3 135.46666 135.46667"
   version="1.1"
   id="svg1"
   xml:space="preserve"
   inkscape:version="1.3.2 (091e20e, 2023-11-25, custom)"
   sodipodi:docname="nintendo-dark.svg"
   inkscape:export-filename="buttons-keys.png"
   inkscape:export-xdpi="96"
   inkscape:export-ydpi="96"
   xmlns:inkscape="http://www.inkscape.org/namespaces/inkscape"
   xmlns:sodipodi="http://sodipodi.sourceforge.net/DTD/sodipodi-0.dtd"
   xmlns:xlink="http://www.w3.org/1999/xlink"
   xmlns="http://www.w3.org/2000/svg"
   xmlns:svg="http://www.w3.org/2000/svg"><sodipodi:namedview
     id="namedview1"
     pagecolor="#ff00ff"
     bordercolor="#eeeeee"
     borderopacity="1"
     inkscape:showpageshadow="0"
     inkscape:pageopacity="0"
     inkscape:pagecheckerboard="0"
     inkscape:deskcolor="#ff00ff"
     inkscape:document-units="px"
     inkscape:zoom="0.53008455"
     inkscape:cx="620.6557"
     inkscape:cy="887.59425"
     inkscape:window-width="3840"
     inkscape:window-height="2054"
     inkscape:window-x="-11"
     inkscape:window-y="-11"
     inkscape:window-maximized="1"
     inkscape:current-layer="layer1"
     showguides="true" /><defs
     id="defs1"><linearGradient
       id="Gradient_9"
       gradientUnits="userSpaceOnUse"
       x1="49"
       y1="27.5"
       x2="49"
       y2="38"
       spreadMethod="pad"><stop
         offset="0%"
         stop-color="#D7D7D7"
         id="stop17" /><stop
         offset="100%"
         stop-color="#313131"
         id="stop18" /></linearGradient><linearGradient
       id="Gradient_10"
       gradientUnits="userSpaceOnUse"
       x1="49"
       y1="42.487499"
       x2="49"
       y2="29.012501"
       spreadMethod="pad"><stop
         offset="0%"
         stop-color="#4F4F4F"
         id="stop19" /><stop
         offset="100%"
         stop-color="#F5F5F5"
         id="stop20" /></linearGradient><linearGradient
       id="Gradient_11"
       gradientUnits="userSpaceOnUse"
       x1="49.5"
       y1="32.262501"
       x2="49.5"
       y2="40.237499"
       spreadMethod="pad"><stop
         offset="0%"
         stop-color="#FFFFFF"
         id="stop21" /><stop
         offset="100%"
         stop-color="#626262"
         id="stop22" /></linearGradient><linearGradient
       id="Gradient_12"
       gradientUnits="userSpaceOnUse"
       x1="49"
       y1="20.512501"
       x2="49"
       y2="32.487499"
       spreadMethod="pad"><stop
         offset="0%"
         stop-color="#404040"
         id="stop23" /><stop
         offset="100%"
         stop-color="#1B1B1B"
         id="stop24" /></linearGradient><linearGradient
       id="Gradient_13"
       gradientUnits="userSpaceOnUse"
       x1="72.5"
       y1="49"
       x2="62"
       y2="49"
       spreadMethod="pad"><stop
         offset="0%"
         stop-color="#D7D7D7"
         id="stop25" /><stop
         offset="100%"
         stop-color="#313131"
         id="stop26" /></linearGradient><linearGradient
       id="Gradient_14"
       gradientUnits="userSpaceOnUse"
       x1="57.512501"
       y1="49"
       x2="70.987503"
       y2="49"
       spreadMethod="pad"><stop
         offset="0%"
         stop-color="#4F4F4F"
         id="stop27" /><stop
         offset="100%"
         stop-color="#F5F5F5"
         id="stop28" /></linearGradient><linearGradient
       id="Gradient_15"
       gradientUnits="userSpaceOnUse"
       x1="67.737503"
       y1="49.5"
       x2="59.762501"
       y2="49.5"
       spreadMethod="pad"><stop
         offset="0%"
         stop-color="#FFFFFF"
         id="stop29" /><stop
         offset="100%"
         stop-color="#626262"
         id="stop30" /></linearGradient><linearGradient
       id="Gradient_16"
       gradientUnits="userSpaceOnUse"
       x1="79.487503"
       y1="49"
       x2="67.512497"
       y2="49"
       spreadMethod="pad"><stop
         offset="0%"
         stop-color="#404040"
         id="stop31" /><stop
         offset="100%"
         stop-color="#1B1B1B"
         id="stop32" /></linearGradient><linearGradient
       id="Gradient_1"
       gradientUnits="userSpaceOnUse"
       x1="51"
       y1="72.5"
       x2="51"
       y2="62"
       spreadMethod="pad"><stop
         offset="0%"
         stop-color="#D7D7D7"
         id="stop33" /><stop
         offset="100%"
         stop-color="#313131"
         id="stop34" /></linearGradient><linearGradient
       id="Gradient_2"
       gradientUnits="userSpaceOnUse"
       x1="51"
       y1="57.512501"
       x2="51"
       y2="70.987503"
       spreadMethod="pad"><stop
         offset="0%"
         stop-color="#4F4F4F"
         id="stop35" /><stop
         offset="100%"
         stop-color="#F5F5F5"
         id="stop36" /></linearGradient><linearGradient
       id="Gradient_3"
       gradientUnits="userSpaceOnUse"
       x1="50.5"
       y1="67.737503"
       x2="50.5"
       y2="59.762501"
       spreadMethod="pad"><stop
         offset="0%"
         stop-color="#FFFFFF"
         id="stop41" /><stop
         offset="100%"
         stop-color="#626262"
         id="stop42" /></linearGradient><linearGradient
       id="Gradient_4"
       gradientUnits="userSpaceOnUse"
       x1="51"
       y1="79.487503"
       x2="51"
       y2="67.512497"
       spreadMethod="pad"><stop
         offset="0%"
         stop-color="#404040"
         id="stop45" /><stop
         offset="100%"
         stop-color="#1B1B1B"
         id="stop46" /></linearGradient><linearGradient
       id="Gradient_5"
       gradientUnits="userSpaceOnUse"
       x1="27.5"
       y1="51"
       x2="38"
       y2="51"
       spreadMethod="pad"><stop
         offset="0%"
         stop-color="#D7D7D7"
         id="stop49" /><stop
         offset="100%"
         stop-color="#313131"
         id="stop50" /></linearGradient><linearGradient
       id="Gradient_6"
       gradientUnits="userSpaceOnUse"
       x1="42.487499"
       y1="51"
       x2="29.012501"
       y2="51"
       spreadMethod="pad"><stop
         offset="0%"
         stop-color="#4F4F4F"
         id="stop51" /><stop
         offset="100%"
         stop-color="#F5F5F5"
         id="stop52" /></linearGradient><linearGradient
       id="Gradient_7"
       gradientUnits="userSpaceOnUse"
       x1="32.262501"
       y1="50.5"
       x2="40.237499"
       y2="50.5"
       spreadMethod="pad"><stop
         offset="0%"
         stop-color="#FFFFFF"
         id="stop57" /><stop
         offset="100%"
         stop-color="#626262"
         id="stop58" /></linearGradient><linearGradient
       id="Gradient_8"
       gradientUnits="userSpaceOnUse"
       x1="20.512501"
       y1="51"
       x2="32.487499"
       y2="51"
       spreadMethod="pad"><stop
         offset="0%"
         stop-color="#404040"
         id="stop61" /><stop
         offset="100%"
         stop-color="#1B1B1B"
         id="stop62" /></linearGradient><linearGradient
       id="Gradient_1-9"
       gradientUnits="userSpaceOnUse"
       x1="146.75"
       y1="55.6875"
       x2="146.75"
       y2="2.8125"
       spreadMethod="pad"><stop
         offset="0%"
         stop-color="#616161"
         id="stop1" /><stop
         offset="95.29411764705883%"
         stop-color="#353535"
         id="stop2" /></linearGradient><linearGradient
       inkscape:collect="always"
       xlink:href="#Gradient_1"
       id="linearGradient60"
       gradientUnits="userSpaceOnUse"
       x1="51"
       y1="72.5"
       x2="51"
       y2="62"
       spreadMethod="pad" /><linearGradient
       inkscape:collect="always"
       xlink:href="#Gradient_2"
       id="linearGradient61"
       gradientUnits="userSpaceOnUse"
       x1="51"
       y1="57.512501"
       x2="51"
       y2="70.987503"
       spreadMethod="pad" /><linearGradient
       inkscape:collect="always"
       xlink:href="#Gradient_3"
       id="linearGradient62"
       gradientUnits="userSpaceOnUse"
       x1="50.5"
       y1="67.737503"
       x2="50.5"
       y2="59.762501"
       spreadMethod="pad"
       gradientTransform="matrix(0.2917126,0,0,0.2917126,1918.7668,44.59146)" /><linearGradient
       inkscape:collect="always"
       xlink:href="#Gradient_4"
       id="linearGradient63"
       gradientUnits="userSpaceOnUse"
       x1="51"
       y1="79.487503"
       x2="51"
       y2="67.512497"
       spreadMethod="pad"
       gradientTransform="matrix(0.2917126,0,0,0.2917126,1918.7668,44.59146)" /><linearGradient
       inkscape:collect="always"
       xlink:href="#Gradient_5"
       id="linearGradient64"
       gradientUnits="userSpaceOnUse"
       x1="27.5"
       y1="51"
       x2="38"
       y2="51"
       spreadMethod="pad" /><linearGradient
       inkscape:collect="always"
       xlink:href="#Gradient_6"
       id="linearGradient65"
       gradientUnits="userSpaceOnUse"
       x1="42.487499"
       y1="51"
       x2="29.012501"
       y2="51"
       spreadMethod="pad" /><linearGradient
       inkscape:collect="always"
       xlink:href="#Gradient_7"
       id="linearGradient82"
       gradientUnits="userSpaceOnUse"
       x1="32.262501"
       y1="50.5"
       x2="40.237499"
       y2="50.5"
       spreadMethod="pad"
       gradientTransform="matrix(0.2917126,0,0,0.2917126,2022.0218,103.70177)" /><linearGradient
       inkscape:collect="always"
       xlink:href="#Gradient_8"
       id="linearGradient83"
       gradientUnits="userSpaceOnUse"
       x1="20.512501"
       y1="51"
       x2="32.487499"
       y2="51"
       spreadMethod="pad"
       gradientTransform="matrix(0.2917126,0,0,0.2917126,2022.0218,103.70177)" /><linearGradient
       inkscape:collect="always"
       xlink:href="#Gradient_9"
       id="linearGradient84"
       gradientUnits="userSpaceOnUse"
       x1="49"
       y1="27.5"
       x2="49"
       y2="38"
       spreadMethod="pad" /><linearGradient
       inkscape:collect="always"
       xlink:href="#Gradient_10"
       id="linearGradient85"
       gradientUnits="userSpaceOnUse"
       x1="49"
       y1="42.487499"
       x2="49"
       y2="29.012501"
       spreadMethod="pad" /><linearGradient
       inkscape:collect="always"
       xlink:href="#Gradient_11"
       id="linearGradient86"
       gradientUnits="userSpaceOnUse"
       x1="49.5"
       y1="32.262501"
       x2="49.5"
       y2="40.237499"
       spreadMethod="pad"
       gradientTransform="matrix(0.2917126,0,0,0.2917126,1963.0972,103.70177)" /><linearGradient
       inkscape:collect="always"
       xlink:href="#Gradient_12"
       id="linearGradient87"
       gradientUnits="userSpaceOnUse"
       x1="49"
       y1="20.512501"
       x2="49"
       y2="32.487499"
       spreadMethod="pad"
       gradientTransform="matrix(0.2917126,0,0,0.2917126,1963.0972,103.70177)" /><linearGradient
       inkscape:collect="always"
       xlink:href="#Gradient_13"
       id="linearGradient88"
       gradientUnits="userSpaceOnUse"
       x1="72.5"
       y1="49"
       x2="62"
       y2="49"
       spreadMethod="pad" /><linearGradient
       inkscape:collect="always"
       xlink:href="#Gradient_14"
       id="linearGradient89"
       gradientUnits="userSpaceOnUse"
       x1="57.512501"
       y1="49"
       x2="70.987503"
       y2="49"
       spreadMethod="pad" /><linearGradient
       inkscape:collect="always"
       xlink:href="#Gradient_15"
       id="linearGradient90"
       gradientUnits="userSpaceOnUse"
       x1="67.737503"
       y1="49.5"
       x2="59.762501"
       y2="49.5"
       spreadMethod="pad"
       gradientTransform="matrix(0.2917126,0,0,0.2917126,1992.4989,103.70177)" /><linearGradient
       inkscape:collect="always"
       xlink:href="#Gradient_16"
       id="linearGradient91"
       gradientUnits="userSpaceOnUse"
       x1="79.487503"
       y1="49"
       x2="67.512497"
       y2="49"
       spreadMethod="pad"
       gradientTransform="matrix(0.2917126,0,0,0.2917126,1992.4989,103.70177)" /><linearGradient
       inkscape:collect="always"
       xlink:href="#Gradient_1"
       id="linearGradient92"
       gradientUnits="userSpaceOnUse"
       x1="51"
       y1="72.5"
       x2="51"
       y2="62"
       spreadMethod="pad" /></defs><g
     inkscape:label="Capa 1"
     inkscape:groupmode="layer"
     id="layer1"><g
       transform="matrix(0.2917126,0,0,0.2917126,-115.41773,162.7395)"
       id="g121-8-9" /><g
       id="g67"
       transform="translate(-1918.2872,-0.271)"><path
         fill="#1b1b1b"
         stroke="none"
         d="m 1923.7683,79.31696 h -0.016 c 2.5743,-2.57439 5.6941,-3.86158 9.3594,-3.86158 3.6543,0 6.7795,1.28719 9.3757,3.86158 2.5744,2.58529 3.8616,5.7051 3.8616,9.35942 0,3.65431 -1.2872,6.77412 -3.8616,9.35941 v 0.0164 c -2.5962,2.57438 -5.7214,3.86157 -9.3757,3.86157 -3.6543,0 -6.7687,-1.28719 -9.3431,-3.86157 l -0.016,-0.0164 c -2.5853,-2.58529 -3.8779,-5.7051 -3.8779,-9.35941 0,-3.66523 1.2981,-6.78503 3.8943,-9.35942"
         id="path163-8-2-5-2"
         style="stroke-width:0.327252"
         sodipodi:nodetypes="ccscsccssssc" /><path
         fill="#313131"
         stroke="none"
         d="m 1924.6846,80.24963 c 2.3234,-2.32349 5.1324,-3.48523 8.4267,-3.48523 3.2943,0 6.1087,1.15629 8.4431,3.46887 l 0.016,0.0164 c 2.3126,2.32349 3.4689,5.13241 3.4689,8.42675 0,3.29432 -1.1563,6.1087 -3.4689,8.44309 h -0.016 c -2.3344,2.32349 -5.1488,3.48523 -8.4431,3.48523 -3.2943,0 -6.1033,-1.16174 -8.4267,-3.48523 -2.3344,-2.33439 -3.5016,-5.14877 -3.5016,-8.44309 0,-3.29435 1.1672,-6.10326 3.5016,-8.42675"
         id="path164-0-4-8-5"
         style="stroke-width:0.327252"
         sodipodi:nodetypes="cssssccsssc" /><path
         fill="#626262"
         stroke="none"
         d="m 1925.9281,81.49319 h 0.016 c 1.9853,-1.97442 4.3743,-2.96163 7.1668,-2.96163 2.8035,0 5.1979,0.98721 7.1832,2.96163 1.9744,1.98533 2.9617,4.37973 2.9617,7.18319 0,2.79255 -0.9873,5.18149 -2.9617,7.16682 v 0.0164 c -1.9744,1.97442 -4.3688,2.96163 -7.1832,2.96163 -5.6683,0 -10.1448,-4.47649 -10.1448,-10.14481 0,-2.81438 0.9872,-5.20877 2.9617,-7.18319"
         id="path165-0-5-2-9"
         style="stroke-width:0.327252"
         sodipodi:nodetypes="ccscsccssc" /><path
         fill="#4f4f4f"
         stroke="none"
         d="m 1926.8608,82.42586 c 1.7235,-1.72353 3.807,-2.58529 6.2505,-2.58529 2.4435,0 4.527,0.85631 6.2505,2.56893 l 0.016,0.0164 c 1.7126,1.72353 2.5689,3.80703 2.5689,6.25052 0,2.44348 -0.8617,4.52698 -2.5852,6.25051 -1.7236,1.72353 -3.8071,2.58529 -6.2506,2.58529 -2.4325,0 -4.516,-0.86176 -6.2505,-2.58529 -1.7235,-1.73443 -2.5853,-3.81794 -2.5853,-6.25051 0,-2.44349 0.8618,-4.52699 2.5853,-6.25052"
         id="path166-1-1-7-5"
         style="stroke-width:0.327252"
         sodipodi:nodetypes="csssssscsc" /><path
         fill="#c3c3c3"
         stroke="none"
         d="m 1932.9312,86.84376 -2.2253,-3.64886 h -2.8798 l 3.4361,4.97423 -3.6488,5.44875 h 2.7325 l 2.4708,-4.20519 2.5362,4.20519 h 2.8962 l -3.7798,-5.49783 3.3707,-4.92515 h -2.7816 z"
         id="path120-7-5-0"
         style="stroke-width:0.327252" /></g><g
       id="g68"
       transform="translate(-1918.1393,-0.271)"><path
         fill="#1b1b1b"
         stroke="none"
         d="m 1953.2537,79.31696 h -0.016 c 2.5743,-2.57439 5.6941,-3.86158 9.3594,-3.86158 3.6543,0 6.7795,1.28719 9.3757,3.86158 2.5744,2.58529 3.8616,5.7051 3.8616,9.35942 0,3.65431 -1.2872,6.77412 -3.8616,9.35941 v 0.0164 c -2.5962,2.57438 -5.7214,3.86157 -9.3757,3.86157 -3.6543,0 -6.7687,-1.28719 -9.3431,-3.86157 l -0.016,-0.0164 c -2.5853,-2.58529 -3.8779,-5.7051 -3.8779,-9.35941 0,-3.66523 1.2981,-6.78503 3.8943,-9.35942"
         id="path163-8-90-4"
         style="stroke-width:0.327252"
         sodipodi:nodetypes="ccscsccssssc" /><path
         fill="#313131"
         stroke="none"
         d="m 1954.17,80.24963 c 2.3234,-2.32349 5.1324,-3.48523 8.4267,-3.48523 3.2943,0 6.1087,1.15629 8.4431,3.46887 l 0.016,0.0164 c 2.3126,2.32349 3.4689,5.13241 3.4689,8.42675 0,3.29432 -1.1563,6.1087 -3.4689,8.44309 h -0.016 c -2.3344,2.32349 -5.1488,3.48523 -8.4431,3.48523 -3.2943,0 -6.1033,-1.16174 -8.4267,-3.48523 -2.3344,-2.33439 -3.5016,-5.14877 -3.5016,-8.44309 0,-3.29435 1.1672,-6.10326 3.5016,-8.42675"
         id="path164-0-5-4"
         style="stroke-width:0.327252"
         sodipodi:nodetypes="cssssccsssc" /><path
         fill="#626262"
         stroke="none"
         d="m 1955.4135,81.49319 h 0.016 c 1.9853,-1.97442 4.3743,-2.96163 7.1668,-2.96163 2.8035,0 5.1979,0.98721 7.1832,2.96163 1.9744,1.98533 2.9617,4.37973 2.9617,7.18319 0,2.79255 -0.9873,5.18149 -2.9617,7.16682 v 0.0164 c -1.9744,1.97442 -4.3688,2.96163 -7.1832,2.96163 -5.6683,0 -10.1448,-4.47649 -10.1448,-10.14481 0,-2.81438 0.9872,-5.20877 2.9617,-7.18319"
         id="path165-0-9-9"
         style="stroke-width:0.327252"
         sodipodi:nodetypes="ccscsccssc" /><path
         fill="#4f4f4f"
         stroke="none"
         d="m 1956.3462,82.42586 c 1.7235,-1.72353 3.807,-2.58529 6.2505,-2.58529 2.4435,0 4.527,0.85631 6.2505,2.56893 l 0.016,0.0164 c 1.7126,1.72353 2.5689,3.80703 2.5689,6.25052 0,2.44348 -0.8617,4.52698 -2.5852,6.25051 -1.7236,1.72353 -3.8071,2.58529 -6.2506,2.58529 -2.4325,0 -4.516,-0.86176 -6.2505,-2.58529 -1.7235,-1.73443 -2.5853,-3.81794 -2.5853,-6.25051 0,-2.44349 0.8618,-4.52699 2.5853,-6.25052"
         id="path166-1-4-4"
         style="stroke-width:0.327252"
         sodipodi:nodetypes="csssssscsc" /><path
         fill="#c3c3c3"
         stroke="none"
         d="m 1962.5966,87.62917 -2.2089,-3.8943 h -2.8635 l 3.9107,5.97235 v 4.45063 h 2.3071 v -4.45063 l 3.9107,-5.97235 h -2.7162 z"
         id="path115-4-1-0"
         style="stroke-width:0.327252" /></g><g
       id="g70"
       transform="translate(-1918.2867,-0.271)"><path
         fill="#1b1b1b"
         stroke="none"
         d="m 2012.6678,79.31696 h -0.016 c 2.5743,-2.57439 5.6941,-3.86158 9.3594,-3.86158 3.6543,0 6.7795,1.28719 9.3757,3.86158 2.5744,2.58529 3.8616,5.7051 3.8616,9.35942 0,3.65431 -1.2872,6.77412 -3.8616,9.35941 v 0.0164 c -2.5962,2.57438 -5.7214,3.86157 -9.3757,3.86157 -3.6543,0 -6.7687,-1.28719 -9.3431,-3.86157 l -0.016,-0.0164 c -2.5853,-2.58529 -3.8779,-5.7051 -3.8779,-9.35941 0,-3.66523 1.2981,-6.78503 3.8943,-9.35942"
         id="path163-8-9-7-3"
         style="stroke-width:0.327252"
         sodipodi:nodetypes="ccscsccssssc" /><path
         fill="#313131"
         stroke="none"
         d="m 2013.5841,80.24963 c 2.3234,-2.32349 5.1324,-3.48523 8.4267,-3.48523 3.2943,0 6.1087,1.15629 8.4431,3.46887 l 0.016,0.0164 c 2.3126,2.32349 3.4689,5.13241 3.4689,8.42675 0,3.29432 -1.1563,6.1087 -3.4689,8.44309 h -0.016 c -2.3344,2.32349 -5.1488,3.48523 -8.4431,3.48523 -3.2943,0 -6.1033,-1.16174 -8.4267,-3.48523 -2.3344,-2.33439 -3.5016,-5.14877 -3.5016,-8.44309 0,-3.29435 1.1672,-6.10326 3.5016,-8.42675"
         id="path164-0-2-0-7"
         style="stroke-width:0.327252"
         sodipodi:nodetypes="cssssccsssc" /><path
         fill="#626262"
         stroke="none"
         d="m 2014.8276,81.49319 h 0.016 c 1.9853,-1.97442 4.3743,-2.96163 7.1668,-2.96163 2.8035,0 5.1979,0.98721 7.1832,2.96163 1.9744,1.98533 2.9617,4.37973 2.9617,7.18319 0,2.79255 -0.9873,5.18149 -2.9617,7.16682 v 0.0164 c -1.9744,1.97442 -4.3688,2.96163 -7.1832,2.96163 -5.6683,0 -10.1448,-4.47649 -10.1448,-10.14481 0,-2.81438 0.9872,-5.20877 2.9617,-7.18319"
         id="path165-0-0-7-4"
         style="stroke-width:0.327252"
         sodipodi:nodetypes="ccscsccssc" /><path
         fill="#4f4f4f"
         stroke="none"
         d="m 2015.7603,82.42586 c 1.7235,-1.72353 3.807,-2.58529 6.2505,-2.58529 2.4435,0 4.527,0.85631 6.2505,2.56893 l 0.016,0.0164 c 1.7126,1.72353 2.5689,3.80703 2.5689,6.25052 0,2.44348 -0.8617,4.52698 -2.5852,6.25051 -1.7236,1.72353 -3.8071,2.58529 -6.2506,2.58529 -2.4325,0 -4.516,-0.86176 -6.2505,-2.58529 -1.7235,-1.73443 -2.5853,-3.81794 -2.5853,-6.25051 0,-2.44349 0.8618,-4.52699 2.5853,-6.25052"
         id="path166-1-0-5-2"
         style="stroke-width:0.327252"
         sodipodi:nodetypes="csssssscsc" /><path
         fill="#c3c3c3"
         stroke="none"
         d="m 2024.3997,83.66942 q -0.54,-0.27817 -1.2436,-0.37634 -0.6708,-0.0982 -1.358,-0.0982 h -3.878 v 10.42298 h 4.2707 q 0.6872,0 1.3744,-0.14726 0.7036,-0.14726 1.2599,-0.49088 0.5727,-0.32725 0.9163,-0.88358 0.36,-0.55633 0.36,-1.37446 0,-0.50724 -0.1636,-0.94903 -0.1636,-0.44179 -0.4745,-0.76904 -0.2946,-0.32725 -0.7036,-0.55633 -0.4254,-0.19635 -0.9327,-0.27817 v -0.0327 q 0.8018,-0.24544 1.2927,-0.81813 0.4908,-0.58905 0.4908,-1.47264 0,-0.85085 -0.3272,-1.37445 -0.3436,-0.50724 -0.8836,-0.80177 m -4.1888,3.69795 v -2.24168 h 1.5708 q 0.2618,0 0.54,0.0654 0.2781,0.0491 0.4908,0.16363 0.2291,0.11453 0.3764,0.32725 0.1309,0.21271 0.1309,0.53996 0,0.31089 -0.1146,0.53997 -0.1309,0.21271 -0.3436,0.34362 -0.1963,0.14726 -0.4581,0.19635 -0.2618,0.0655 -0.5236,0.0655 h -1.669 m 3.4034,2.48711 q 0.1964,0.22908 0.1964,0.60542 0,0.32725 -0.1473,0.57269 -0.1473,0.22908 -0.36,0.37634 -0.2127,0.14726 -0.4909,0.21271 -0.2781,0.0491 -0.5399,0.0491 h -2.0617 v -2.37258 h 1.7344 q 0.2782,0 0.6054,0.0491 0.3273,0.0491 0.6054,0.16363 0.2782,0.11454 0.4582,0.34361 z"
         id="path130-4-9-9"
         style="stroke-width:0.327252" /></g><g
       id="g69"
       transform="translate(-1918.8282,-0.271)"><path
         fill="#1b1b1b"
         stroke="none"
         d="m 1983.576,79.31696 h -0.016 c 2.5743,-2.57439 5.6941,-3.86158 9.3594,-3.86158 3.6543,0 6.7795,1.28719 9.3757,3.86158 2.5744,2.58529 3.8616,5.7051 3.8616,9.35942 0,3.65431 -1.2872,6.77412 -3.8616,9.35941 v 0.0164 c -2.5962,2.57438 -5.7214,3.86157 -9.3757,3.86157 -3.6543,0 -6.7687,-1.28719 -9.3431,-3.86157 l -0.016,-0.0164 c -2.5853,-2.58529 -3.8779,-5.7051 -3.8779,-9.35941 0,-3.66523 1.2981,-6.78503 3.8943,-9.35942"
         id="path163-8-5-0-1"
         style="stroke-width:0.327252"
         sodipodi:nodetypes="ccscsccssssc" /><path
         fill="#313131"
         stroke="none"
         d="m 1984.4923,80.24963 c 2.3234,-2.32349 5.1324,-3.48523 8.4267,-3.48523 3.2943,0 6.1087,1.15629 8.4431,3.46887 l 0.016,0.0164 c 2.3126,2.32349 3.4689,5.13241 3.4689,8.42675 0,3.29432 -1.1563,6.1087 -3.4689,8.44309 h -0.016 c -2.3344,2.32349 -5.1488,3.48523 -8.4431,3.48523 -3.2943,0 -6.1033,-1.16174 -8.4267,-3.48523 -2.3344,-2.33439 -3.5016,-5.14877 -3.5016,-8.44309 0,-3.29435 1.1672,-6.10326 3.5016,-8.42675"
         id="path164-0-9-0-1"
         style="stroke-width:0.327252"
         sodipodi:nodetypes="cssssccsssc" /><path
         fill="#626262"
         stroke="none"
         d="m 1985.7358,81.49319 h 0.016 c 1.9853,-1.97442 4.3743,-2.96163 7.1668,-2.96163 2.8035,0 5.1979,0.98721 7.1832,2.96163 1.9744,1.98533 2.9617,4.37973 2.9617,7.18319 0,2.79255 -0.9873,5.18149 -2.9617,7.16682 v 0.0164 c -1.9744,1.97442 -4.3688,2.96163 -7.1832,2.96163 -5.6683,0 -10.1448,-4.47649 -10.1448,-10.14481 0,-2.81438 0.9872,-5.20877 2.9617,-7.18319"
         id="path165-0-2-9-4"
         style="stroke-width:0.327252"
         sodipodi:nodetypes="ccscsccssc" /><path
         fill="#4f4f4f"
         stroke="none"
         d="m 1986.6685,82.42586 c 1.7235,-1.72353 3.807,-2.58529 6.2505,-2.58529 2.4435,0 4.527,0.85631 6.2505,2.56893 l 0.016,0.0164 c 1.7126,1.72353 2.5689,3.80703 2.5689,6.25052 0,2.44348 -0.8617,4.52698 -2.5852,6.25051 -1.7236,1.72353 -3.8071,2.58529 -6.2506,2.58529 -2.4325,0 -4.516,-0.86176 -6.2505,-2.58529 -1.7235,-1.73443 -2.5853,-3.81794 -2.5853,-6.25051 0,-2.44349 0.8618,-4.52699 2.5853,-6.25052"
         id="path166-1-9-3-0"
         style="stroke-width:0.327252"
         sodipodi:nodetypes="csssssscsc" /><path
         fill="#c3c3c3"
         stroke="none"
         d="m 1993.8679,82.65494 h -1.8981 l -4.516,10.42298 h 2.5362 l 0.8672,-2.20896 h 4.0415 l 0.9,2.20896 h 2.6016 l -4.5324,-10.42298 m 0.2618,6.26687 h -2.5526 l 1.2763,-3.23979 z"
         id="path125-2-8-8"
         style="stroke-width:0.327252" /></g><g
       id="use116-4-6-0"
       transform="matrix(0.2917126,0,0,0.2917126,0.23904385,44.1946)"><path
         fill="url(#Gradient_1)"
         stroke="none"
         d="M 92.85,40.2 Q 92.25,35.85 87.5,34.85 H 65.15 V 12.5 Q 64.15,7.75 59.8,7.15 H 40.2 q -4.25,0.7 -5.35,5.35 V 34.85 H 12.5 q -4.75,1 -5.35,5.35 v 19.6 q 0.7,4.25 5.35,5.35 H 34.85 V 87.5 q 1.1,4.65 5.35,5.35 h 19.6 q 4.35,-0.6 5.35,-5.35 V 65.15 H 87.5 q 4.65,-1.1 5.35,-5.35 V 40.2 m -7.5,2.15 v 15.3 h -20.2 q -3.1,0 -5.3,2.2 -2.2,2.2 -2.2,5.3 v 20.2 h -15.3 v -20.2 q 0,-3.1 -2.2,-5.3 -2.2,-2.2 -5.3,-2.2 h -20.2 v -15.3 h 20.2 q 3.1,0 5.3,-2.2 2.2,-2.2 2.2,-5.3 v -20.2 h 15.3 v 20.2 q 0,3.1 2.2,5.3 2.2,2.2 5.3,2.2 z"
         id="path75-9-9-6"
         style="fill:url(#linearGradient60)" /><path
         fill="url(#Gradient_2)"
         stroke="none"
         d="m 85.35,57.65 v -15.3 h -20.2 q -3.1,0 -5.3,-2.2 -2.2,-2.2 -2.2,-5.3 v -20.2 h -15.3 v 20.2 q 0,3.1 -2.2,5.3 -2.2,2.2 -5.3,2.2 h -20.2 v 15.3 h 20.2 q 3.1,0 5.3,2.2 2.2,2.2 2.2,5.3 v 20.2 h 15.3 v -20.2 q 0,-3.1 2.2,-5.3 2.2,-2.2 5.3,-2.2 h 20.2 M 50,21.9 V 30.25 21.9 M 21.65,50 H 30 21.65 m 47.9,0 H 77.9 69.55 M 50,69.8 v 8.35 z"
         id="path76-1-0-7"
         style="fill:url(#linearGradient61)" /></g><g
       id="g71"
       transform="translate(-1918.5278,-0.3969)"><path
         id="use117-1-4-0"
         stroke="#1b1b1b"
         stroke-width="1.45856"
         stroke-linejoin="round"
         stroke-linecap="round"
         fill="none"
         d="m 1928.933,63.59654 h -6.5198 q -1.3564,-0.32089 -1.5606,-1.56067 v -5.71756 q 0.175,-1.26895 1.5606,-1.56067 h 6.5198 v -6.51977 q 0.3209,-1.35647 1.5607,-1.56066 h 5.7175 q 1.269,0.17502 1.5607,1.56066 v 6.51977 h 6.5198 q 1.3856,0.29172 1.5606,1.56067 v 5.71756 q -0.2042,1.23978 -1.5606,1.56067 h -6.5198" /><path
         id="use118-0-6-2"
         stroke="url(#Gradient_3)"
         stroke-width="1.16685"
         stroke-linejoin="round"
         stroke-linecap="round"
         fill="none"
         d="m 1943.6645,56.94549 v 4.4632 h -5.8926 q -0.9043,0 -1.5461,0.64177 -0.6417,0.64177 -0.6417,1.54608 v 5.89259 h -4.4632 v -5.89259 q 0,-0.90431 -0.6418,-1.54608 -0.6418,-0.64177 -1.5461,-0.64177 h -5.8926 v -4.4632 h 5.8926 q 0.9043,0 1.5461,-0.64177 0.6418,-0.64177 0.6418,-1.54608 v -5.89259 h 4.4632 v 5.89259 q 0,0.90431 0.6417,1.54608 0.6418,0.64177 1.5461,0.64177 z"
         style="stroke:url(#linearGradient62)" /><path
         id="use119-7-4-3"
         stroke="url(#Gradient_4)"
         stroke-width="1.45856"
         stroke-linejoin="round"
         stroke-linecap="round"
         fill="none"
         d="m 1937.7719,63.59654 v 6.51977 q -0.2917,1.38564 -1.5607,1.56066 h -5.7175 q -1.2398,-0.20419 -1.5607,-1.56066 v -6.51977"
         style="stroke:url(#linearGradient63)" /><path
         id="use120-9-2-0"
         stroke="#313131"
         stroke-width="1.45856"
         stroke-linejoin="round"
         stroke-linecap="round"
         fill="none"
         d="m 1933.3524,50.97997 v 2.4358 m -8.27,5.76132 h 2.4358 m 11.5372,0 h 2.4358" /><path
         id="use121-4-1-4"
         stroke="#ffffff"
         stroke-width="1.45856"
         stroke-linejoin="round"
         stroke-linecap="round"
         fill="none"
         d="m 1933.3524,64.953 v 2.4358" /></g><g
       id="g72"
       transform="translate(-1918.0743,-0.2405)"><g
         id="use122-1-9-7"
         transform="matrix(0.2917126,0,0,0.2917126,2022.0218,103.70177)"><path
           fill="url(#Gradient_5)"
           stroke="none"
           d="M 92.85,40.2 Q 92.15,35.95 87.5,34.85 H 65.15 V 12.5 Q 64.15,7.75 59.8,7.15 H 40.2 q -4.25,0.7 -5.35,5.35 V 34.85 H 12.5 q -4.65,1.1 -5.35,5.35 v 19.6 q 0.6,4.35 5.35,5.35 H 34.85 V 87.5 q 1.1,4.65 5.35,5.35 h 19.6 q 4.35,-0.6 5.35,-5.35 V 65.15 H 87.5 q 4.75,-1 5.35,-5.35 V 40.2 m -7.5,2.15 v 15.3 h -20.2 q -3.1,0 -5.3,2.2 -2.2,2.2 -2.2,5.3 v 20.2 h -15.3 v -20.2 q 0,-3.1 -2.2,-5.3 -2.2,-2.2 -5.3,-2.2 h -20.2 v -15.3 h 20.2 q 3.1,0 5.3,-2.2 2.2,-2.2 2.2,-5.3 v -20.2 h 15.3 v 20.2 q 0,3.1 2.2,5.3 2.2,2.2 5.3,2.2 z"
           id="path77-7-2-5"
           style="fill:url(#linearGradient64)" /><path
           fill="url(#Gradient_6)"
           stroke="none"
           d="m 85.35,57.65 v -15.3 h -20.2 q -3.1,0 -5.3,-2.2 -2.2,-2.2 -2.2,-5.3 v -20.2 h -15.3 v 20.2 q 0,3.1 -2.2,5.3 -2.2,2.2 -5.3,2.2 h -20.2 v 15.3 h 20.2 q 3.1,0 5.3,2.2 2.2,2.2 2.2,5.3 v 20.2 h 15.3 v -20.2 q 0,-3.1 2.2,-5.3 2.2,-2.2 5.3,-2.2 h 20.2 M 50,21.9 V 30.25 21.9 M 21.65,50 H 30 21.65 m 47.9,0 H 77.9 69.55 M 50,69.8 v 8.35 z"
           id="path78-8-9-7"
           style="fill:url(#linearGradient65)" /></g><path
         id="use123-6-5-1"
         stroke="#1b1b1b"
         stroke-width="1.45856"
         stroke-linejoin="round"
         stroke-linecap="round"
         fill="none"
         d="m 2032.188,113.86795 v -6.51977 q 0.3209,-1.35647 1.5607,-1.56066 h 5.7175 q 1.269,0.17502 1.5607,1.56066 v 6.51977 h 6.5198 q 1.3564,0.32089 1.5606,1.56067 v 5.71756 q -0.175,1.26895 -1.5606,1.56067 h -6.5198 v 6.51977 q -0.2917,1.38564 -1.5607,1.56066 h -5.7175 q -1.2398,-0.20419 -1.5607,-1.56066 v -6.51977" /><path
         id="use124-6-4-8"
         stroke="url(#Gradient_7)"
         stroke-width="1.16685"
         stroke-linejoin="round"
         stroke-linecap="round"
         fill="none"
         d="m 2046.9195,116.0558 v 4.4632 h -5.8926 q -0.9043,0 -1.5461,0.64177 -0.6418,0.64177 -0.6418,1.54608 v 5.89259 h -4.4632 v -5.89259 q 0,-0.90431 -0.6417,-1.54608 -0.6418,-0.64177 -1.5461,-0.64177 h -5.8926 v -4.4632 h 5.8926 q 0.9043,0 1.5461,-0.64177 0.6417,-0.64177 0.6417,-1.54608 v -5.89259 h 4.4632 v 5.89259 q 0,0.90431 0.6418,1.54608 0.6418,0.64177 1.5461,0.64177 z"
         style="stroke:url(#linearGradient82)" /><path
         id="use125-1-5-7"
         stroke="url(#Gradient_8)"
         stroke-width="1.45856"
         stroke-linejoin="round"
         stroke-linecap="round"
         fill="none"
         d="m 2032.188,122.70685 h -6.5198 q -1.3856,-0.29172 -1.5606,-1.56067 v -5.71756 q 0.2042,-1.23978 1.5606,-1.56067 h 6.5198"
         style="stroke:url(#linearGradient83)" /><path
         id="use126-4-7-9"
         stroke="#313131"
         stroke-width="1.45856"
         stroke-linejoin="round"
         stroke-linecap="round"
         fill="none"
         d="m 2036.6074,110.09028 v 2.4358 m 5.703,5.76132 h 2.4358 m -8.1388,5.77591 v 2.4358" /><path
         id="use127-0-7-3"
         stroke="#ffffff"
         stroke-width="1.45856"
         stroke-linejoin="round"
         stroke-linecap="round"
         fill="none"
         d="m 2028.3374,118.2874 h 2.4358" /></g><g
       id="g74"
       transform="translate(-1918.4163,-0.2405)"><g
         id="use128-0-0-7"
         transform="matrix(0.2917126,0,0,0.2917126,1963.0972,103.70177)"><path
           fill="url(#Gradient_9)"
           stroke="none"
           d="M 92.85,40.2 Q 92.15,35.95 87.5,34.85 H 65.15 V 12.5 Q 64.05,7.85 59.8,7.15 H 40.2 q -4.35,0.6 -5.35,5.35 V 34.85 H 12.5 q -4.65,1.1 -5.35,5.35 v 19.6 q 0.6,4.35 5.35,5.35 H 34.85 V 87.5 q 1,4.75 5.35,5.35 h 19.6 q 4.25,-0.7 5.35,-5.35 V 65.15 H 87.5 q 4.75,-1 5.35,-5.35 V 40.2 m -7.5,2.15 v 15.3 h -20.2 q -3.1,0 -5.3,2.2 -2.2,2.2 -2.2,5.3 v 20.2 h -15.3 v -20.2 q 0,-3.1 -2.2,-5.3 -2.2,-2.2 -5.3,-2.2 h -20.2 v -15.3 h 20.2 q 3.1,0 5.3,-2.2 2.2,-2.2 2.2,-5.3 v -20.2 h 15.3 v 20.2 q 0,3.1 2.2,5.3 2.2,2.2 5.3,2.2 z"
           id="path73-6-1-6"
           style="fill:url(#linearGradient84)" /><path
           fill="url(#Gradient_10)"
           stroke="none"
           d="m 85.35,57.65 v -15.3 h -20.2 q -3.1,0 -5.3,-2.2 -2.2,-2.2 -2.2,-5.3 v -20.2 h -15.3 v 20.2 q 0,3.1 -2.2,5.3 -2.2,2.2 -5.3,2.2 h -20.2 v 15.3 h 20.2 q 3.1,0 5.3,2.2 2.2,2.2 2.2,5.3 v 20.2 h 15.3 v -20.2 q 0,-3.1 2.2,-5.3 2.2,-2.2 5.3,-2.2 h 20.2 M 50,21.9 V 30.25 21.9 M 21.65,50 H 30 21.65 m 47.9,0 H 77.9 69.55 M 50,69.8 v 8.35 z"
           id="path74-6-3-8"
           style="fill:url(#linearGradient85)" /></g><path
         id="use129-7-3-9"
         stroke="#1b1b1b"
         stroke-width="1.45856"
         stroke-linejoin="round"
         stroke-linecap="round"
         fill="none"
         d="m 1982.1022,113.86795 h 6.5198 q 1.3565,0.32089 1.5607,1.56067 v 5.71756 q -0.175,1.26895 -1.5607,1.56067 h -6.5198 v 6.51977 q -0.3208,1.35647 -1.5606,1.56066 h -5.7176 q -1.2689,-0.17502 -1.5607,-1.56066 v -6.51977 h -6.5197 q -1.3857,-0.29172 -1.5607,-1.56067 v -5.71756 q 0.2042,-1.23978 1.5607,-1.56067 h 6.5197" /><path
         id="use130-7-9-7"
         stroke="url(#Gradient_11)"
         stroke-width="1.16685"
         stroke-linejoin="round"
         stroke-linecap="round"
         fill="none"
         d="m 1987.9948,116.0558 v 4.4632 h -5.8926 q -0.9043,0 -1.546,0.64177 -0.6418,0.64177 -0.6418,1.54608 v 5.89259 h -4.4632 v -5.89259 q 0,-0.90431 -0.6418,-1.54608 -0.6417,-0.64177 -1.5461,-0.64177 h -5.8925 v -4.4632 h 5.8925 q 0.9044,0 1.5461,-0.64177 0.6418,-0.64177 0.6418,-1.54608 v -5.89259 h 4.4632 v 5.89259 q 0,0.90431 0.6418,1.54608 0.6417,0.64177 1.546,0.64177 z"
         style="stroke:url(#linearGradient86)" /><path
         id="use131-6-0-7"
         stroke="url(#Gradient_12)"
         stroke-width="1.45856"
         stroke-linejoin="round"
         stroke-linecap="round"
         fill="none"
         d="m 1973.2633,113.86795 v -6.51977 q 0.2918,-1.38564 1.5607,-1.56066 h 5.7176 q 1.2398,0.20419 1.5606,1.56066 v 6.51977"
         style="stroke:url(#linearGradient87)" /><path
         id="use132-0-4-8"
         stroke="#313131"
         stroke-width="1.45856"
         stroke-linejoin="round"
         stroke-linecap="round"
         fill="none"
         d="m 1969.4127,118.2874 h 2.4358 m 11.5373,0 h 2.4358 m -8.1388,5.77591 v 2.4358" /><path
         id="use133-0-4-0"
         stroke="#ffffff"
         stroke-width="1.45856"
         stroke-linejoin="round"
         stroke-linecap="round"
         fill="none"
         d="m 1977.6828,110.09028 v 2.4358" /></g><g
       id="g73"
       transform="translate(-1918.1847,-0.2405)"><g
         id="use134-4-4-2"
         transform="matrix(0.2917126,0,0,0.2917126,1992.4989,103.70177)"><path
           fill="url(#Gradient_13)"
           stroke="none"
           d="M 92.85,40.2 Q 92.25,35.85 87.5,34.85 H 65.15 V 12.5 Q 64.05,7.85 59.8,7.15 H 40.2 q -4.35,0.6 -5.35,5.35 V 34.85 H 12.5 q -4.75,1 -5.35,5.35 v 19.6 q 0.7,4.25 5.35,5.35 H 34.85 V 87.5 q 1,4.75 5.35,5.35 h 19.6 q 4.25,-0.7 5.35,-5.35 V 65.15 H 87.5 q 4.65,-1.1 5.35,-5.35 V 40.2 m -7.5,2.15 v 15.3 h -20.2 q -3.105078,0.0016 -5.3,2.2 -2.198438,2.194922 -2.2,5.3 v 20.2 h -15.3 v -20.2 q -0.0018,-3.105078 -2.2,-5.3 -2.195117,-2.198438 -5.3,-2.2 h -20.2 v -15.3 h 20.2 q 3.104883,-0.0018 5.3,-2.2 2.198242,-2.195117 2.2,-5.3 v -20.2 h 15.3 v 20.2 q 0.0016,3.104883 2.2,5.3 2.194922,2.198242 5.3,2.2 z"
           id="path79-7-6-4"
           style="fill:url(#linearGradient88)" /><path
           fill="url(#Gradient_14)"
           stroke="none"
           d="m 85.35,57.65 v -15.3 h -20.2 q -3.105078,-0.0018 -5.3,-2.2 -2.198438,-2.195117 -2.2,-5.3 v -20.2 h -15.3 v 20.2 q -0.0018,3.104883 -2.2,5.3 -2.195117,2.198242 -5.3,2.2 h -20.2 v 15.3 h 20.2 q 3.104883,0.0016 5.3,2.2 2.198242,2.194922 2.2,5.3 v 20.2 h 15.3 v -20.2 q 0.0016,-3.105078 2.2,-5.3 2.194922,-2.198438 5.3,-2.2 h 20.2 M 50,21.9 V 30.25 21.9 M 21.65,50 H 30 21.65 m 47.9,0 H 77.9 69.55 M 50,69.8 v 8.35 z"
           id="path80-3-5-9"
           style="fill:url(#linearGradient89)" /></g><path
         id="use135-7-1-8"
         stroke="#1b1b1b"
         stroke-width="1.45856"
         stroke-linejoin="round"
         stroke-linecap="round"
         fill="none"
         d="m 2011.5039,122.70685 v 6.51977 q -0.3208,1.35647 -1.5606,1.56066 h -5.7176 q -1.2689,-0.17502 -1.5607,-1.56066 v -6.51977 h -6.5197 q -1.3565,-0.32089 -1.5607,-1.56067 v -5.71756 q 0.175,-1.26895 1.5607,-1.56067 h 6.5197 v -6.51977 q 0.2918,-1.38564 1.5607,-1.56066 h 5.7176 q 1.2398,0.20419 1.5606,1.56066 v 6.51977" /><path
         id="use136-8-5-4"
         stroke="url(#Gradient_15)"
         stroke-width="1.16685"
         stroke-linejoin="round"
         stroke-linecap="round"
         fill="none"
         d="m 2017.3965,116.0558 v 4.4632 h -5.8926 q -0.9058,4.7e-4 -1.546,0.64177 -0.6413,0.64029 -0.6418,1.54608 v 5.89259 h -4.4632 v -5.89259 q -5e-4,-0.90579 -0.6418,-1.54608 -0.6403,-0.64131 -1.5461,-0.64177 h -5.8925 v -4.4632 h 5.8925 q 0.9058,-5.3e-4 1.5461,-0.64177 0.6413,-0.64034 0.6418,-1.54608 v -5.89259 h 4.4632 v 5.89259 q 5e-4,0.90574 0.6418,1.54608 0.6403,0.64126 1.546,0.64177 z"
         style="stroke:url(#linearGradient90)" /><path
         id="use137-3-6-1"
         stroke="url(#Gradient_16)"
         stroke-width="1.45856"
         stroke-linejoin="round"
         stroke-linecap="round"
         fill="none"
         d="m 2011.5039,113.86795 h 6.5198 q 1.3857,0.29172 1.5607,1.56067 v 5.71756 q -0.2042,1.23978 -1.5607,1.56067 h -6.5198"
         style="stroke:url(#linearGradient91)" /><path
         id="use138-5-3-2"
         stroke="#313131"
         stroke-width="1.45856"
         stroke-linejoin="round"
         stroke-linecap="round"
         fill="none"
         d="m 2007.0845,110.09028 v 2.4358 m -8.2701,5.76132 h 2.4358 m 5.8343,5.77591 v 2.4358" /><path
         id="use139-1-7-6"
         stroke="#ffffff"
         stroke-width="1.45856"
         stroke-linejoin="round"
         stroke-linecap="round"
         fill="none"
         d="m 2012.7875,118.2874 h 2.4358" /></g><g
       id="g75"
       transform="translate(-1917.7681,-0.2405)"><g
         id="use90-1-8-3"
         transform="matrix(0.34227574,0,0,0.34227574,1923.9044,101.51409)"><path
           fill="#353535"
           stroke="none"
           d="m 84.85,78.4 c 2.106771,-1.681771 3.090104,-3.681771 2.95,-6 -0.107161,-1.842448 -0.940495,-3.892448 -2.5,-6.15 -2.9,-4.133333 -5.6,-10.8 -8.1,-20 -2.5,-9.233333 -3.616667,-19.333333 -3.35,-30.3 -13.966667,-3.4 -28.45,-4 -43.45,-1.8 -0.169531,0.06003 -0.336198,0.110027 -0.5,0.15 -7.204167,2.639844 -13.0375,6.239844 -17.5,10.8 0.9,12.366667 3.133333,23.566667 6.7,33.6 3.533333,10.066667 10.116667,17.866667 19.75,23.4 3.5,2.066667 8.583333,3.05 15.25,2.95 13.133333,0.633333 23.383333,-1.583333 30.75,-6.65"
           id="path3-5-2-1-4"
           sodipodi:nodetypes="cccccccccccc" /><path
           fill="url(#Gradient_1)"
           stroke="none"
           d="m 28,21.6 q -0.780469,0.714062 -0.85,1.75 -1.062891,17.277148 1.45,36.05 v 0.05 q 0.183008,1.185352 0.45,2.4 0.08555,0.408398 0.25,0.7 2.819141,8.773437 10.15,12.9 H 39.4 Q 46.474023,79.471484 54.75,77 55.033789,76.935156 55.3,76.85 53.426953,76.817969 51.75,76.6 50.481445,76.470117 49.3,76.2 49.17168,76.193164 49,76.15 44.799609,75.22793 42.15,73 36.238086,68.089258 34,61.3 34.0033,61.073828 33.95,60.8 33.719531,59.777344 33.55,58.75 31.112695,40.472656 32.15,23.65 32.21231,22.625977 31.5,21.85 30.83418,21.06875 29.8,21 28.774219,20.936719 28,21.6 Z"
           id="path13-7-6-5"
           style="fill:url(#linearGradient92)" /></g><path
         id="use91-9-8-0"
         stroke="#2a2a2a"
         stroke-width="1.71138"
         stroke-linejoin="round"
         stroke-linecap="round"
         fill="none"
         d="m 1949.1815,106.97339 q -0.1369,5.63043 1.1466,10.37095 1.2835,4.72341 2.7724,6.84552 0.8007,1.15906 0.8557,2.11355 0.072,1.18165 -1.0097,2.0451 -3.7821,2.60129 -10.525,2.27613 -3.4227,0.0513 -5.2197,-1.00971 -4.9459,-2.84089 -6.7599,-8.00925 -1.8312,-5.15125 -2.2933,-11.50047 2.2911,-2.34125 5.9898,-3.68802 0.084,-0.0291 0.1712,-0.0599 7.7012,-1.12951 14.8719,0.6161 z" /><path
         fill="#999999"
         stroke="none"
         d="m 1945.6536,113.93413 q -0.3942,-0.0748 -0.8244,-0.0748 h -2.1513 l 1.4887,5.55582 h 1.2346 l -0.5965,-2.22607 h 0.5986 l 1.7563,2.22607 h 1.4778 l -2.0532,-2.357 q 0.5735,-0.0935 0.7575,-0.52379 0.1891,-0.41154 0.034,-0.99145 -0.1303,-0.48636 -0.3889,-0.82308 -0.2535,-0.31802 -0.5843,-0.50508 -0.3357,-0.20577 -0.7486,-0.28059 m -1.1245,2.22607 -0.3408,-1.27205 h 0.8043 q 0.1497,0 0.3418,0.0187 0.1733,0.0187 0.3243,0.0935 0.151,0.0748 0.2746,0.18706 0.1099,0.13094 0.1651,0.33671 0.065,0.24318 0,0.35543 -0.059,0.13094 -0.1931,0.18706 -0.1346,0.0561 -0.3167,0.0748 -0.182,0.0187 -0.3504,0.0187 h -0.7108 m -6.9955,-2.3009 0.2908,1.08497 h 2.7124 l -1.9088,3.34846 0.3008,1.12239 h 4.396 l -0.3007,-1.12239 h -2.8621 l 1.8713,-3.34846 -0.2907,-1.08497 z"
         id="path82-5-1"
         style="stroke-width:0.374129" /></g></g></svg>
