<?xml version="1.0" encoding="UTF-8" standalone="no"?>
<!-- Created with Inkscape (http://www.inkscape.org/) -->

<svg
   width="512"
   height="512"
   viewBox="0 -3 135.46666 135.46667"
   version="1.1"
   id="svg1"
   xml:space="preserve"
   inkscape:version="1.3.2 (091e20e, 2023-11-25, custom)"
   sodipodi:docname="keys.svg"
   inkscape:export-filename="buttons-keys.png"
   inkscape:export-xdpi="96"
   inkscape:export-ydpi="96"
   xmlns:inkscape="http://www.inkscape.org/namespaces/inkscape"
   xmlns:sodipodi="http://sodipodi.sourceforge.net/DTD/sodipodi-0.dtd"
   xmlns="http://www.w3.org/2000/svg"
   xmlns:svg="http://www.w3.org/2000/svg"><sodipodi:namedview
     id="namedview1"
     pagecolor="#ff00ff"
     bordercolor="#eeeeee"
     borderopacity="1"
     inkscape:showpageshadow="0"
     inkscape:pageopacity="0"
     inkscape:pagecheckerboard="0"
     inkscape:deskcolor="#ff00ff"
     inkscape:document-units="px"
     inkscape:zoom="0.53008455"
     inkscape:cx="620.6557"
     inkscape:cy="744.2209"
     inkscape:window-width="3840"
     inkscape:window-height="2054"
     inkscape:window-x="-11"
     inkscape:window-y="-11"
     inkscape:window-maximized="1"
     inkscape:current-layer="layer1"
     showguides="true" /><defs
     id="defs1"><linearGradient
       id="Gradient_9"
       gradientUnits="userSpaceOnUse"
       x1="49"
       y1="27.5"
       x2="49"
       y2="38"
       spreadMethod="pad"><stop
         offset="0%"
         stop-color="#D7D7D7"
         id="stop17" /><stop
         offset="100%"
         stop-color="#313131"
         id="stop18" /></linearGradient><linearGradient
       id="Gradient_10"
       gradientUnits="userSpaceOnUse"
       x1="49"
       y1="42.487499"
       x2="49"
       y2="29.012501"
       spreadMethod="pad"><stop
         offset="0%"
         stop-color="#4F4F4F"
         id="stop19" /><stop
         offset="100%"
         stop-color="#F5F5F5"
         id="stop20" /></linearGradient><linearGradient
       id="Gradient_11"
       gradientUnits="userSpaceOnUse"
       x1="49.5"
       y1="32.262501"
       x2="49.5"
       y2="40.237499"
       spreadMethod="pad"><stop
         offset="0%"
         stop-color="#FFFFFF"
         id="stop21" /><stop
         offset="100%"
         stop-color="#626262"
         id="stop22" /></linearGradient><linearGradient
       id="Gradient_12"
       gradientUnits="userSpaceOnUse"
       x1="49"
       y1="20.512501"
       x2="49"
       y2="32.487499"
       spreadMethod="pad"><stop
         offset="0%"
         stop-color="#404040"
         id="stop23" /><stop
         offset="100%"
         stop-color="#1B1B1B"
         id="stop24" /></linearGradient><linearGradient
       id="Gradient_13"
       gradientUnits="userSpaceOnUse"
       x1="72.5"
       y1="49"
       x2="62"
       y2="49"
       spreadMethod="pad"><stop
         offset="0%"
         stop-color="#D7D7D7"
         id="stop25" /><stop
         offset="100%"
         stop-color="#313131"
         id="stop26" /></linearGradient><linearGradient
       id="Gradient_14"
       gradientUnits="userSpaceOnUse"
       x1="57.512501"
       y1="49"
       x2="70.987503"
       y2="49"
       spreadMethod="pad"><stop
         offset="0%"
         stop-color="#4F4F4F"
         id="stop27" /><stop
         offset="100%"
         stop-color="#F5F5F5"
         id="stop28" /></linearGradient><linearGradient
       id="Gradient_15"
       gradientUnits="userSpaceOnUse"
       x1="67.737503"
       y1="49.5"
       x2="59.762501"
       y2="49.5"
       spreadMethod="pad"><stop
         offset="0%"
         stop-color="#FFFFFF"
         id="stop29" /><stop
         offset="100%"
         stop-color="#626262"
         id="stop30" /></linearGradient><linearGradient
       id="Gradient_16"
       gradientUnits="userSpaceOnUse"
       x1="79.487503"
       y1="49"
       x2="67.512497"
       y2="49"
       spreadMethod="pad"><stop
         offset="0%"
         stop-color="#404040"
         id="stop31" /><stop
         offset="100%"
         stop-color="#1B1B1B"
         id="stop32" /></linearGradient><linearGradient
       id="Gradient_1"
       gradientUnits="userSpaceOnUse"
       x1="51"
       y1="72.5"
       x2="51"
       y2="62"
       spreadMethod="pad"><stop
         offset="0%"
         stop-color="#D7D7D7"
         id="stop33" /><stop
         offset="100%"
         stop-color="#313131"
         id="stop34" /></linearGradient><linearGradient
       id="Gradient_2"
       gradientUnits="userSpaceOnUse"
       x1="51"
       y1="57.512501"
       x2="51"
       y2="70.987503"
       spreadMethod="pad"><stop
         offset="0%"
         stop-color="#4F4F4F"
         id="stop35" /><stop
         offset="100%"
         stop-color="#F5F5F5"
         id="stop36" /></linearGradient><linearGradient
       id="Gradient_3"
       gradientUnits="userSpaceOnUse"
       x1="50.5"
       y1="67.737503"
       x2="50.5"
       y2="59.762501"
       spreadMethod="pad"><stop
         offset="0%"
         stop-color="#FFFFFF"
         id="stop41" /><stop
         offset="100%"
         stop-color="#626262"
         id="stop42" /></linearGradient><linearGradient
       id="Gradient_4"
       gradientUnits="userSpaceOnUse"
       x1="51"
       y1="79.487503"
       x2="51"
       y2="67.512497"
       spreadMethod="pad"><stop
         offset="0%"
         stop-color="#404040"
         id="stop45" /><stop
         offset="100%"
         stop-color="#1B1B1B"
         id="stop46" /></linearGradient><linearGradient
       id="Gradient_5"
       gradientUnits="userSpaceOnUse"
       x1="27.5"
       y1="51"
       x2="38"
       y2="51"
       spreadMethod="pad"><stop
         offset="0%"
         stop-color="#D7D7D7"
         id="stop49" /><stop
         offset="100%"
         stop-color="#313131"
         id="stop50" /></linearGradient><linearGradient
       id="Gradient_6"
       gradientUnits="userSpaceOnUse"
       x1="42.487499"
       y1="51"
       x2="29.012501"
       y2="51"
       spreadMethod="pad"><stop
         offset="0%"
         stop-color="#4F4F4F"
         id="stop51" /><stop
         offset="100%"
         stop-color="#F5F5F5"
         id="stop52" /></linearGradient><linearGradient
       id="Gradient_7"
       gradientUnits="userSpaceOnUse"
       x1="32.262501"
       y1="50.5"
       x2="40.237499"
       y2="50.5"
       spreadMethod="pad"><stop
         offset="0%"
         stop-color="#FFFFFF"
         id="stop57" /><stop
         offset="100%"
         stop-color="#626262"
         id="stop58" /></linearGradient><linearGradient
       id="Gradient_8"
       gradientUnits="userSpaceOnUse"
       x1="20.512501"
       y1="51"
       x2="32.487499"
       y2="51"
       spreadMethod="pad"><stop
         offset="0%"
         stop-color="#404040"
         id="stop61" /><stop
         offset="100%"
         stop-color="#1B1B1B"
         id="stop62" /></linearGradient><linearGradient
       id="Gradient_1-9"
       gradientUnits="userSpaceOnUse"
       x1="146.75"
       y1="55.6875"
       x2="146.75"
       y2="2.8125"
       spreadMethod="pad"><stop
         offset="0%"
         stop-color="#616161"
         id="stop1" /><stop
         offset="95.29411764705883%"
         stop-color="#353535"
         id="stop2" /></linearGradient></defs><g
     inkscape:label="Capa 1"
     inkscape:groupmode="layer"
     id="layer1"><g
       transform="matrix(0.2917126,0,0,0.2917126,-115.41773,162.7395)"
       id="g121-8-9" /><g
       transform="matrix(0.31516776,0,0,0.31516776,87.676588,72.930929)"
       id="g293-1-3"><g
         id="use292-8-7"><path
           fill="#353535"
           stroke="none"
           d="m 92.95,14.65 c 0,-3.333333 -1.666667,-5 -5,-5 H 56.8 c -2.5,0.066667 -4,1.133333 -4.5,3.2 v 15.4 c -0.4,2.333333 -1.933333,3.55 -4.6,3.65 H 13.05 c -3.3333333,0 -5,1.666667 -5,5 0.7,15.6 0.7,31.166667 0,46.7 0,3.333333 1.6666667,5 5,5 h 74.9 c 3.333333,0 5,-1.666667 5,-5 C 92.583333,75.5 92.4,67.4 92.4,59.3 92.4,37 92.583333,22.116667 92.95,14.65"
           id="path13-4-0-9"
           sodipodi:nodetypes="csccccsccsscsc" /><path
           fill="#696969"
           stroke="none"
           d="M 87.1,21 C 87.06667,17.366667 85.233333,15.533333 81.6,15.5 H 63.5 63.35 63.3 c -3.566667,0.266667 -5.383333,2.15 -5.45,5.65 v 16.6 H 19.4 c -3.666667,0.03333 -5.516667,1.866667 -5.55,5.5 v 0.1 0.15 0.05 c 0.666667,11.166667 0.666667,22.3 0,33.4 v 0.1 0.1 0.1 c 0.03333,3.633333 1.883333,5.466667 5.55,5.5 h 47.2 c 0.2,0 0.383333,-0.01667 0.55,-0.05 0.166667,0.03333 0.35,0.05 0.55,0.05 h 13.9 c 3.6,-0.03333 5.433333,-1.833333 5.5,-5.4 V 77.15 77.05 77 c -0.333333,-5.9 -0.483333,-11.8 -0.45,-17.7 0,-19.966667 0.15,-32.633333 0.45,-38 V 21.2 21.1 21"
           id="path14-4-9-2"
           sodipodi:nodetypes="cccccccccccccccccscscccccccccc" /><path
           fill="#595959"
           stroke="none"
           d="M 83.1,21.1 V 21 c -0.03333,-0.966667 -0.55,-1.466667 -1.55,-1.5 h -17.9 c -1.166667,0.06667 -1.766667,0.65 -1.8,1.75 v 18.5 c 0,0.566667 -0.183333,1.05 -0.55,1.45 -0.4,0.366667 -0.883333,0.55 -1.45,0.55 h -40.4 c -1,0 -1.533333,0.5 -1.6,1.5 0.666667,11.366667 0.666667,22.716667 0,34.05 0.06667,0.966667 0.6,1.45 1.6,1.45 H 66.6 c 0.2,0 0.383333,0.03333 0.55,0.1 0.166667,-0.06667 0.35,-0.1 0.55,-0.1 h 13.85 c 1,-0.03333 1.516667,-0.533333 1.55,-1.5 v -0.1 C 82.766667,71.216667 82.616667,65.266667 82.65,59.3 82.65,39.233333 82.8,26.5 83.1,21.1"
           id="path15-5-14"
           sodipodi:nodetypes="cccccscssccsscsccccc" /><path
           fill="#cdcdcd"
           stroke="none"
           d="M 76.15,48.8 H 69.9 V 60.3 H 57.25 V 54.4 L 45.2,63.5 57.25,72.6 V 67 h 18.9 z"
           id="path16-2-3" /></g><path
         id="use293-8-4"
         stroke="#1d1d1d"
         stroke-width="5"
         stroke-linejoin="round"
         stroke-linecap="round"
         fill="none"
         d="m 87.95,9.65 q 5,0 5,5 -0.55,11.2 -0.55,44.65 0,12.15 0.55,24.3 0,5 -5,5 h -74.9 q -5,0 -5,-5 1.05,-23.3 0,-46.7 0,-5 5,-5 H 47.7 q 4,-0.15 4.6,-3.65 v -15.4 q 0.75,-3.1 4.5,-3.2 z" /></g><g
       transform="matrix(0.37082457,0,0,0.37082457,55.232589,69.696169)"
       id="g331-4-8"><g
         id="use329-0-7"><path
           fill="#353535"
           stroke="none"
           d="m 84.95,77.8 q -1.25,-27.3 0,-54.65 0,-5.85 -5.85,-5.85 H 21.9 q -5.85,0 -5.85,5.85 1.25,27.35 0,54.65 0,5.85 5.85,5.85 h 57.2 q 5.85,0 5.85,-5.85 M 71.55,26.45 q 4.25,0 4.25,4.25 -1.15,19.8 0,39.55 0,4.2 -4.25,4.2 H 55.4 54.15 29.45 q -4.25,0 -4.25,-4.2 1.15,-19.75 0,-39.55 0,-4.25 4.25,-4.25 h 24.7 1.25 z"
           id="path1-1-8" /><path
           fill="#595959"
           stroke="none"
           d="m 75.8,30.7 c 0,-2.833333 -1.416667,-4.25 -4.25,-4.25 H 55.4 54.15 29.45 c -2.833333,0 -4.25,1.416667 -4.25,4.25 0.766667,13.2 0.766667,26.383333 0,39.55 0,2.8 1.416667,4.2 4.25,4.2 h 24.7 1.25 16.15 c 2.833333,0 4.25,-1.4 4.25,-4.2 -0.766667,-13.166667 -0.766667,-26.35 0,-39.55"
           id="path2-7-12"
           sodipodi:nodetypes="csccsccsccscc" /><path
           fill="#cdcdcd"
           stroke="none"
           d="m 54.35,47.05 q -1.2,-0.35 -2.4,-0.35 -0.95,0 -1.85,0.25 -0.95,0.2 -1.65,0.75 -0.7,0.5 -1.15,1.25 -0.45,0.8 -0.45,1.85 0,1.15 0.45,1.85 0.5,0.7 1.2,1.05 0.7,0.4 1.5,0.55 0.85,0.2 1.55,0.35 0.7,0.2 1.15,0.4 0.5,0.25 0.5,0.75 0,0.5 -0.55,0.7 -0.5,0.15 -1.15,0.15 -0.85,0 -1.5,-0.35 -0.65,-0.3 -1.15,-0.95 l -2.3,2.5 q 0.9,0.95 2.2,1.3 1.3,0.35 2.55,0.35 1,0 2,-0.2 1,-0.15 1.8,-0.65 0.8,-0.45 1.3,-1.2 0.5,-0.8 0.5,-1.95 0,-1.15 -0.45,-1.85 -0.45,-0.7 -1.15,-1.1 -0.7,-0.4 -1.55,-0.55 -0.8,-0.2 -1.5,-0.35 -0.7,-0.2 -1.2,-0.4 -0.45,-0.2 -0.45,-0.65 0,-0.55 0.45,-0.8 0.45,-0.2 0.95,-0.2 1.3,0 2.15,1 l 2.3,-2.25 q -0.85,-0.9 -2.1,-1.25 m 7.9,6.05 q 0,-1.4 0.8,-2.25 0.75,-0.85 2.2,-0.85 0.6,0 1.1,0.25 0.5,0.25 0.75,0.65 l 2.45,-2.6 Q 68.7,47.4 67.5,47.05 66.35,46.7 65.25,46.7 q -1.4,0 -2.65,0.45 -1.25,0.45 -2.15,1.3 -0.9,0.8 -1.4,2 -0.55,1.2 -0.55,2.65 0,1.4 0.55,2.6 0.5,1.2 1.4,2 0.9,0.85 2.15,1.3 1.25,0.45 2.65,0.45 1.1,0 2.25,-0.35 1.2,-0.35 2.05,-1.25 l -2.45,-2.6 q -0.3,0.35 -0.75,0.65 -0.45,0.25 -1.1,0.25 -1.45,0 -2.2,-0.85 -0.8,-0.85 -0.8,-2.2 m -26.2,2.45 v -3.6 h 7.7 v -3.6 h -7.7 v -3.3 h 8.15 v -3.6 H 32.15 v 17.7 H 44.6 v -3.6 z"
           id="path3-5-8-0" /></g><path
         id="use330-1-2"
         stroke="#1d1d1d"
         stroke-width="5"
         stroke-linejoin="round"
         stroke-linecap="round"
         fill="none"
         d="m 84.95,23.15 q -1.25,27.35 0,54.65 0,5.85 -5.85,5.85 H 21.9 q -5.85,0 -5.85,-5.85 1.25,-27.3 0,-54.65 0,-5.85 5.85,-5.85 h 57.2 q 5.85,0 5.85,5.85 z" /><path
         id="use331-8-3"
         stroke="#696969"
         stroke-width="4"
         stroke-linejoin="round"
         stroke-linecap="round"
         fill="none"
         d="m 55.4,74.45 h 16.15 q 4.25,0 4.25,-4.2 -1.15,-19.75 0,-39.55 0,-4.25 -4.25,-4.25 H 55.4 m -1.25,0 h -24.7 q -4.25,0 -4.25,4.25 1.15,19.8 0,39.55 0,4.2 4.25,4.2 h 24.7" /></g><g
       transform="matrix(0.37082457,0,0,0.37082457,-4.0340803,73.135758)"
       id="g473-6-7-8"><g
         id="use471-4-18-8"><path
           fill="#353535"
           stroke="none"
           d="m 84.95,59.249 c -0.833333,-18.2 -0.833333,-17.865667 0,-36.099 0,-3.9 -1.95,-5.85 -5.85,-5.85 H 21.9 c -3.9,0 -5.85,1.95 -5.85,5.85 0.833333,18.233333 0.833333,17.899 0,36.099 0,3.9 1.95,5.85 5.85,5.85 h 57.2 c 3.9,0 5.85,-1.95 5.85,-5.85 M 54.15,26.45 h 1.25 16.15 c 2.833333,0 4.25,1.416667 4.25,4.25 -0.766667,13.2 -0.766667,7.832333 0,20.999 0,2.8 -1.416667,4.2 -4.25,4.2 H 55.4 54.15 29.45 c -2.833333,0 -4.25,-1.4 -4.25,-4.2 0.766667,-13.166667 0.766667,-7.799 0,-20.999 0,-2.833333 1.416667,-4.25 4.25,-4.25 z"
           id="path4-9-5-2"
           sodipodi:nodetypes="ccssccsscccsccsccsccsc" /><path
           fill="#595959"
           stroke="none"
           d="m 55.4,26.45 h -1.25 -24.7 c -2.833333,0 -4.25,1.416667 -4.25,4.25 0.766667,13.2 0.766667,7.832333 0,20.999 0,2.8 1.416667,4.2 4.25,4.2 h 24.7 1.25 16.15 c 2.833333,0 4.25,-1.4 4.25,-4.2 -0.766667,-13.166667 -0.766667,-7.799 0,-20.999 0,-2.833333 -1.416667,-4.25 -4.25,-4.25 H 55.4"
           id="path5-0-8-14"
           sodipodi:nodetypes="ccsccsccsccsc" /><path
           fill="#cdcdcd"
           stroke="none"
           d="m 39.634934,35.887983 h 8.019683 V 32.25575 H 35.715 v 17.8375 h 3.919934 v -6.940801 h 7.408317 v -3.632233 h -7.408317 z"
           id="path6-8-1-8"
           style="stroke-width:0.719254" /><path
           fill="#cdcdcd"
           stroke="none"
           d="m 55.283421,37.883057 q 0.07078,-0.920189 0.637054,-1.557243 0.601661,-0.637053 1.628025,-0.637053 0.884797,0 1.521851,0.495486 0.637053,0.495486 0.637053,1.415675 0,0.778621 -0.530878,1.380282 -0.495486,0.601662 -1.026364,1.061756 l -6.795238,6.122793 v 3.928497 h 12.210193 v -3.256052 h -7.78621 l 5.344172,-4.600942 q 0.495486,-0.424702 0.920188,-0.920189 0.424703,-0.460094 0.743229,-1.026364 0.283135,-0.566269 0.460095,-1.238715 0.176959,-0.672445 0.176959,-1.52185 0,-1.309499 -0.424702,-2.300471 -0.460095,-0.990973 -1.203324,-1.663418 -0.778621,-0.637054 -1.804985,-0.990972 -1.026364,-0.318527 -2.229687,-0.318527 -1.309499,0 -2.406647,0.318527 -1.097148,0.353918 -1.911161,1.026364 -0.814013,0.672445 -1.309499,1.663418 -0.495486,0.990972 -0.56627,2.371254 z"
           id="path9-8-5-2"
           style="stroke-width:0.707837" /></g><path
         id="use472-3-2-83"
         stroke="#1d1d1d"
         stroke-width="5"
         stroke-linejoin="round"
         stroke-linecap="round"
         fill="none"
         d="m 84.95,23.15 c -0.833333,18.233333 -0.833333,17.899 0,36.099 0,3.9 -1.95,5.85 -5.85,5.85 H 21.9 c -3.9,0 -5.85,-1.95 -5.85,-5.85 0.833333,-18.2 0.833333,-17.865667 0,-36.099 0,-3.9 1.95,-5.85 5.85,-5.85 h 57.2 c 3.9,0 5.85,1.95 5.85,5.85 z"
         sodipodi:nodetypes="ccssccssc" /><path
         id="use473-7-6-6"
         stroke="#696969"
         stroke-width="4"
         stroke-linejoin="round"
         stroke-linecap="round"
         fill="none"
         d="m 54.15,26.45 h -24.7 c -2.833333,0 -4.25,1.416667 -4.25,4.25 0.766667,13.2 0.766667,7.832333 0,20.999 0,2.8 1.416667,4.2 4.25,4.2 h 24.7 m 1.25,0 h 16.15 c 2.833333,0 4.25,-1.4 4.25,-4.2 -0.766667,-13.166667 -0.766667,-7.799 0,-20.999 0,-2.833333 -1.416667,-4.25 -4.25,-4.25 H 55.4"
         sodipodi:nodetypes="csccsccsccsc" /></g><g
       transform="matrix(0.37082457,0,0,0.37082457,25.59925,73.135758)"
       id="g473-6-3-0-3"><g
         id="use471-4-1-3-2"><path
           fill="#353535"
           stroke="none"
           d="m 84.95,59.249 c -0.833333,-18.2 -0.833333,-17.865667 0,-36.099 0,-3.9 -1.95,-5.85 -5.85,-5.85 H 21.9 c -3.9,0 -5.85,1.95 -5.85,5.85 0.833333,18.233333 0.833333,17.899 0,36.099 0,3.9 1.95,5.85 5.85,5.85 h 57.2 c 3.9,0 5.85,-1.95 5.85,-5.85 M 54.15,26.45 h 1.25 16.15 c 2.833333,0 4.25,1.416667 4.25,4.25 -0.766667,13.2 -0.766667,7.832333 0,20.999 0,2.8 -1.416667,4.2 -4.25,4.2 H 55.4 54.15 29.45 c -2.833333,0 -4.25,-1.4 -4.25,-4.2 0.766667,-13.166667 0.766667,-7.799 0,-20.999 0,-2.833333 1.416667,-4.25 4.25,-4.25 z"
           id="path4-9-1-8-1"
           sodipodi:nodetypes="ccssccsscccsccsccsccsc" /><path
           fill="#595959"
           stroke="none"
           d="m 55.4,26.45 h -1.25 -24.7 c -2.833333,0 -4.25,1.416667 -4.25,4.25 0.766667,13.2 0.766667,7.832333 0,20.999 0,2.8 1.416667,4.2 4.25,4.2 h 24.7 1.25 16.15 c 2.833333,0 4.25,-1.4 4.25,-4.2 -0.766667,-13.166667 -0.766667,-7.799 0,-20.999 0,-2.833333 -1.416667,-4.25 -4.25,-4.25 H 55.4"
           id="path5-0-2-9-8"
           sodipodi:nodetypes="ccsccsccsccsc" /><path
           fill="#cdcdcd"
           stroke="none"
           d="m 39.634934,35.887983 h 8.019683 V 32.25575 H 35.715 v 17.8375 h 3.919934 v -6.940801 h 7.408317 v -3.632233 h -7.408317 z"
           id="path6-8-3-6-18"
           style="stroke-width:0.719254" /><path
           fill="#cdcdcd"
           stroke="none"
           d="m 62.11719,32.25575 h -3.524345 l -5.789995,4.92689 2.121799,2.445464 3.596271,-3.128755 V 50.09325 h 3.59627 z"
           id="path12-9-5-7"
           style="stroke-width:0.719254" /></g><path
         id="use472-3-5-2-0"
         stroke="#1d1d1d"
         stroke-width="5"
         stroke-linejoin="round"
         stroke-linecap="round"
         fill="none"
         d="m 84.95,23.15 c -0.833333,18.233333 -0.833333,17.899 0,36.099 0,3.9 -1.95,5.85 -5.85,5.85 H 21.9 c -3.9,0 -5.85,-1.95 -5.85,-5.85 0.833333,-18.2 0.833333,-17.865667 0,-36.099 0,-3.9 1.95,-5.85 5.85,-5.85 h 57.2 c 3.9,0 5.85,1.95 5.85,5.85 z"
         sodipodi:nodetypes="ccssccssc" /><path
         id="use473-7-8-2-5"
         stroke="#696969"
         stroke-width="4"
         stroke-linejoin="round"
         stroke-linecap="round"
         fill="none"
         d="m 54.15,26.45 h -24.7 c -2.833333,0 -4.25,1.416667 -4.25,4.25 0.766667,13.2 0.766667,7.832333 0,20.999 0,2.8 1.416667,4.2 4.25,4.2 h 24.7 m 1.25,0 h 16.15 c 2.833333,0 4.25,-1.4 4.25,-4.2 -0.766667,-13.166667 -0.766667,-7.799 0,-20.999 0,-2.833333 -1.416667,-4.25 -4.25,-4.25 H 55.4"
         sodipodi:nodetypes="csccsccsccsc" /></g><g
       transform="matrix(0.37082457,0,0,0.37082457,99.674414,99.329509)"
       id="g395-1-3"><g
         id="use393-6-1"><path
           fill="#353535"
           stroke="none"
           d="m 84.95,77.8 q -1.25,-27.3 0,-54.65 0,-5.85 -5.85,-5.85 H 21.9 q -5.85,0 -5.85,5.85 1.25,27.35 0,54.65 0,5.85 5.85,5.85 h 57.2 q 5.85,0 5.85,-5.85 M 71.55,26.45 q 4.25,0 4.25,4.25 -1.15,19.8 0,39.55 0,4.2 -4.25,4.2 H 55.4 54.15 29.45 q -4.25,0 -4.25,-4.2 1.15,-19.75 0,-39.55 0,-4.25 4.25,-4.25 h 24.7 1.25 z"
           id="path20-5-9" /><path
           fill="#595959"
           stroke="none"
           d="m 75.8,30.7 q 0,-4.25 -4.25,-4.25 H 55.4 54.15 29.45 q -4.25,0 -4.25,4.25 1.15,19.8 0,39.55 0,4.2 4.25,4.2 h 24.7 1.25 16.15 q 4.25,0 4.25,-4.2 -1.15,-19.75 0,-39.55 M 50.45,44.8 h 14.8 v 11.25 h -14.8 v 6.6 L 34.3,50.45 50.45,38.25 Z"
           id="path21-8-6" /><path
           fill="#cdcdcd"
           stroke="none"
           d="m 65.25,44.8 h -14.8 v -6.55 l -16.15,12.2 16.15,12.2 v -6.6 h 14.8 z"
           id="path22-7-4" /></g><path
         id="use394-2-2"
         stroke="#1d1d1d"
         stroke-width="5"
         stroke-linejoin="round"
         stroke-linecap="round"
         fill="none"
         d="m 84.95,23.15 q -1.25,27.35 0,54.65 0,5.85 -5.85,5.85 H 21.9 q -5.85,0 -5.85,-5.85 1.25,-27.3 0,-54.65 0,-5.85 5.85,-5.85 h 57.2 q 5.85,0 5.85,5.85 z" /><path
         id="use395-4-3"
         stroke="#696969"
         stroke-width="4"
         stroke-linejoin="round"
         stroke-linecap="round"
         fill="none"
         d="m 55.4,74.45 h 16.15 q 4.25,0 4.25,-4.2 -1.15,-19.75 0,-39.55 0,-4.25 -4.25,-4.25 H 55.4 m -1.25,0 h -24.7 q -4.25,0 -4.25,4.25 1.15,19.8 0,39.55 0,4.2 4.25,4.2 h 24.7" /></g><g
       transform="matrix(0.37082457,0,0,0.37082457,-4.0340803,40.327419)"
       id="g398-0-69"><g
         id="use396-1-9"><path
           fill="#353535"
           stroke="none"
           d="m 84.95,77.8 q -1.25,-27.3 0,-54.65 0,-5.85 -5.85,-5.85 H 21.9 q -5.85,0 -5.85,5.85 1.25,27.35 0,54.65 0,5.85 5.85,5.85 h 57.2 q 5.85,0 5.85,-5.85 M 71.55,26.45 q 4.25,0 4.25,4.25 -1.15,19.8 0,39.55 0,4.2 -4.25,4.2 H 55.4 54.15 29.45 q -4.25,0 -4.25,-4.2 1.15,-19.75 0,-39.55 0,-4.25 4.25,-4.25 h 24.7 1.25 z"
           id="path26-2-0" /><path
           fill="#595959"
           stroke="none"
           d="m 75.8,30.7 q 0,-4.25 -4.25,-4.25 H 55.4 54.15 29.45 q -4.25,0 -4.25,4.25 1.15,19.8 0,39.55 0,4.2 4.25,4.2 h 24.7 1.25 16.15 q 4.25,0 4.25,-4.2 -1.15,-19.75 0,-39.55 m -30.9,4.25 h 11.25 v 14.8 H 62.7 L 50.5,65.9 38.3,49.75 h 6.6 z"
           id="path27-8-6" /><path
           fill="#cdcdcd"
           stroke="none"
           d="M 56.15,34.95 H 44.9 v 14.8 H 38.3 L 50.5,65.9 62.7,49.75 h -6.55 z"
           id="path28-1-2" /></g><path
         id="use397-5-9"
         stroke="#1d1d1d"
         stroke-width="5"
         stroke-linejoin="round"
         stroke-linecap="round"
         fill="none"
         d="m 84.95,23.15 q -1.25,27.35 0,54.65 0,5.85 -5.85,5.85 H 21.9 q -5.85,0 -5.85,-5.85 1.25,-27.3 0,-54.65 0,-5.85 5.85,-5.85 h 57.2 q 5.85,0 5.85,5.85 z" /><path
         id="use398-2-7"
         stroke="#696969"
         stroke-width="4"
         stroke-linejoin="round"
         stroke-linecap="round"
         fill="none"
         d="m 55.4,74.45 h 16.15 q 4.25,0 4.25,-4.2 -1.15,-19.75 0,-39.55 0,-4.25 -4.25,-4.25 H 55.4 m -1.25,0 h -24.7 q -4.25,0 -4.25,4.25 1.15,19.8 0,39.55 0,4.2 4.25,4.2 h 24.7" /></g><g
       transform="matrix(0.37082457,0,0,0.37082457,70.041074,99.329509)"
       id="g401-3-9"><g
         id="use399-8-3"><path
           fill="#353535"
           stroke="none"
           d="m 84.95,77.8 q -1.25,-27.3 0,-54.65 0,-5.85 -5.85,-5.85 H 21.9 q -5.85,0 -5.85,5.85 1.25,27.35 0,54.65 0,5.85 5.85,5.85 h 57.2 q 5.85,0 5.85,-5.85 M 54.15,26.45 h 1.25 16.15 q 4.25,0 4.25,4.25 -1.15,19.8 0,39.55 0,4.2 -4.25,4.2 H 55.4 54.15 29.45 q -4.25,0 -4.25,-4.2 1.15,-19.75 0,-39.55 0,-4.25 4.25,-4.25 z"
           id="path23-1-45" /><path
           fill="#595959"
           stroke="none"
           d="m 55.4,26.45 h -1.25 -24.7 q -4.25,0 -4.25,4.25 1.15,19.8 0,39.55 0,4.2 4.25,4.2 h 24.7 1.25 16.15 q 4.25,0 4.25,-4.2 -1.15,-19.75 0,-39.55 0,-4.25 -4.25,-4.25 H 55.4 M 51.45,44.8 v -6.55 l 16.15,12.2 -16.15,12.2 v -6.6 H 36.65 V 44.8 Z"
           id="path24-7-7" /><path
           fill="#cdcdcd"
           stroke="none"
           d="m 51.45,38.25 v 6.55 h -14.8 v 11.25 h 14.8 v 6.6 L 67.6,50.45 Z"
           id="path25-6-2" /></g><path
         id="use400-8-9"
         stroke="#1d1d1d"
         stroke-width="5"
         stroke-linejoin="round"
         stroke-linecap="round"
         fill="none"
         d="m 84.95,23.15 q -1.25,27.35 0,54.65 0,5.85 -5.85,5.85 H 21.9 q -5.85,0 -5.85,-5.85 1.25,-27.3 0,-54.65 0,-5.85 5.85,-5.85 h 57.2 q 5.85,0 5.85,5.85 z" /><path
         id="use401-3-8"
         stroke="#696969"
         stroke-width="4"
         stroke-linejoin="round"
         stroke-linecap="round"
         fill="none"
         d="m 54.15,26.45 h -24.7 q -4.25,0 -4.25,4.25 1.15,19.8 0,39.55 0,4.2 4.25,4.2 h 24.7 m 1.25,0 h 16.15 q 4.25,0 4.25,-4.2 -1.15,-19.75 0,-39.55 0,-4.25 -4.25,-4.25 H 55.4" /></g><g
       transform="matrix(0.37082457,0,0,0.37082457,40.407744,99.329509)"
       id="g404-4-4"><g
         id="use402-5-5"><path
           fill="#353535"
           stroke="none"
           d="m 84.95,77.8 q -1.25,-27.3 0,-54.65 0,-5.85 -5.85,-5.85 H 21.9 q -5.85,0 -5.85,5.85 1.25,27.35 0,54.65 0,5.85 5.85,5.85 h 57.2 q 5.85,0 5.85,-5.85 M 71.55,26.45 q 4.25,0 4.25,4.25 -1.15,19.8 0,39.55 0,4.2 -4.25,4.2 H 55.4 54.15 29.45 q -4.25,0 -4.25,-4.2 1.15,-19.75 0,-39.55 0,-4.25 4.25,-4.25 h 24.7 1.25 z"
           id="path17-6-8" /><path
           fill="#595959"
           stroke="none"
           d="m 75.8,30.7 q 0,-4.25 -4.25,-4.25 H 55.4 54.15 29.45 q -4.25,0 -4.25,4.25 1.15,19.8 0,39.55 0,4.2 4.25,4.2 h 24.7 1.25 16.15 q 4.25,0 4.25,-4.2 -1.15,-19.75 0,-39.55 M 56.1,65.95 H 44.85 V 51.15 H 38.3 L 50.5,35 62.7,51.15 h -6.6 z"
           id="path18-8-5" /><path
           fill="#cdcdcd"
           stroke="none"
           d="M 44.85,65.95 H 56.1 v -14.8 h 6.6 L 50.5,35 38.3,51.15 h 6.55 z"
           id="path19-1-5" /></g><path
         id="use403-6-0"
         stroke="#1d1d1d"
         stroke-width="5"
         stroke-linejoin="round"
         stroke-linecap="round"
         fill="none"
         d="m 84.95,23.15 q -1.25,27.35 0,54.65 0,5.85 -5.85,5.85 H 21.9 q -5.85,0 -5.85,-5.85 1.25,-27.3 0,-54.65 0,-5.85 5.85,-5.85 h 57.2 q 5.85,0 5.85,5.85 z" /><path
         id="use404-4-3"
         stroke="#696969"
         stroke-width="4"
         stroke-linejoin="round"
         stroke-linecap="round"
         fill="none"
         d="m 55.4,74.45 h 16.15 q 4.25,0 4.25,-4.2 -1.15,-19.75 0,-39.55 0,-4.25 -4.25,-4.25 H 55.4 m -1.25,0 h -24.7 q -4.25,0 -4.25,4.25 1.15,19.8 0,39.55 0,4.2 4.25,4.2 h 24.7" /></g><g
       transform="matrix(0.42882226,0,0,0.42882226,0.17567501,96.412789)"
       id="g313-8-6"
       inkscape:export-filename="key-tabs.png"
       inkscape:export-xdpi="96"
       inkscape:export-ydpi="96"><g
         id="use311-6-6"><path
           fill="#353535"
           stroke="none"
           d="m 99.12,27.1 c 0,-3.333333 -1.666667,-5 -5,-5 H 13.05 c -3.3333333,0 -5,1.666667 -5,5 0.7,15.6 0.7,31.166667 0,46.7 0,3.333333 1.6666667,5 5,5 h 81.07 c 3.333333,0 5,-1.666667 5,-5 -0.733333,-15.533333 -0.733333,-31.1 0,-46.7 m -11.45,2.85 c 2.4,0 3.6,1.2 3.6,3.6 -0.633333,11.3 -0.633333,22.566667 0,33.8 0,2.4 -1.2,3.6 -3.6,3.6 H 73.87 72.77 19.5 c -2.433333,0 -3.65,-1.2 -3.65,-3.6 0.666667,-11.233333 0.666667,-22.5 0,-33.8 0,-2.4 1.216667,-3.6 3.65,-3.6 h 53.27 1.1 z"
           id="path32-9-7"
           sodipodi:nodetypes="cssccssccsccsccsccsccs" /><path
           fill="#595959"
           stroke="none"
           d="m 91.27,33.55 c 0,-2.4 -1.2,-3.6 -3.6,-3.6 H 73.87 72.77 19.5 c -2.433333,0 -3.65,1.2 -3.65,3.6 0.666667,11.3 0.666667,22.566667 0,33.8 0,2.4 1.216667,3.6 3.65,3.6 h 53.27 1.1 13.8 c 2.4,0 3.6,-1.2 3.6,-3.6 -0.633333,-11.233333 -0.633333,-22.5 0,-33.8"
           id="path33-0-2"
           sodipodi:nodetypes="csccsccsccscc" /><path
           fill="#cdcdcd"
           stroke="none"
           d="m 41.825571,49.204752 c -0.348134,-0.401692 -0.803387,-0.723046 -1.365756,-0.964062 -0.56237,-0.214236 -1.285417,-0.321354 -2.169141,-0.321354 -0.803385,0 -1.579992,0.133898 -2.329817,0.401692 -0.749827,0.267795 -1.405925,0.656099 -1.968295,1.164909 l 1.606771,1.64694 c 0.321354,-0.348133 0.682877,-0.629317 1.08457,-0.843554 0.428472,-0.214236 0.883724,-0.321355 1.365756,-0.321355 0.50881,0 0.964063,0.160677 1.365755,0.482032 0.374913,0.294575 0.56237,0.709656 0.56237,1.245248 -0.401693,0 -0.856945,0.01339 -1.365756,0.04016 -0.48203,0 -0.964062,0.04016 -1.446093,0.120508 -0.508811,0.08034 -0.990842,0.187456 -1.446094,0.321355 -0.455252,0.133897 -0.856945,0.334743 -1.205079,0.602538 -0.348133,0.241016 -0.629317,0.562371 -0.843554,0.964063 -0.214236,0.374914 -0.321354,0.843554 -0.321354,1.405925 0,0.482031 0.09373,0.923893 0.281184,1.325585 0.187457,0.374914 0.455252,0.682878 0.803386,0.923893 0.294575,0.267795 0.656098,0.455253 1.08457,0.562371 0.428472,0.133897 0.870335,0.200846 1.325587,0.200846 0.615929,0 1.205078,-0.107118 1.767447,-0.321354 0.56237,-0.241016 1.004232,-0.629319 1.325587,-1.164909 h 0.04016 v 1.245247 h 2.77168 v -4.98099 c 0,-0.803385 -0.06694,-1.513042 -0.200846,-2.128971 -0.133898,-0.615929 -0.374914,-1.151519 -0.723047,-1.606771 m -1.847787,4.458789 v 0.642709 c 0,0.294575 -0.06694,0.56237 -0.200845,0.803385 -0.133899,0.214236 -0.307965,0.401693 -0.522202,0.56237 -0.187456,0.133898 -0.428472,0.241016 -0.723046,0.321354 -0.267795,0.08034 -0.54898,0.120508 -0.843555,0.120508 -0.348133,0 -0.669488,-0.09373 -0.964062,-0.281185 -0.321355,-0.160677 -0.482032,-0.428472 -0.482032,-0.803385 0,-0.321355 0.120508,-0.57576 0.361524,-0.763216 0.214236,-0.187456 0.48203,-0.334745 0.803385,-0.441863 0.294575,-0.08034 0.615929,-0.133897 0.964063,-0.160677 h 0.843554 0.763216 M 34.63527,46.473242 v -2.77168 H 23.387874 v 2.77168 h 4.057097 v 11.448242 h 3.133203 V 46.473242 h 4.057096 m 13.296029,2.73151 V 42.7375 h -3.012695 v 15.183984 h 2.811849 v -1.285417 h 0.04017 c 0.107119,0.187458 0.254406,0.361524 0.441862,0.522201 0.214236,0.187457 0.441863,0.361523 0.682878,0.522201 0.267795,0.133898 0.56237,0.254406 0.883724,0.361523 0.294575,0.08034 0.615929,0.120508 0.964062,0.120508 0.723048,0 1.379146,-0.120508 1.968295,-0.361524 0.589149,-0.241015 1.09796,-0.589149 1.526433,-1.044401 0.401692,-0.455252 0.723046,-0.990841 0.964062,-1.60677 0.214236,-0.615929 0.321354,-1.285417 0.321354,-2.008464 0,-0.696268 -0.09373,-1.352365 -0.281185,-1.968294 -0.214237,-0.615929 -0.50881,-1.164909 -0.883724,-1.64694 -0.401693,-0.508811 -0.870334,-0.897114 -1.405925,-1.164909 -0.562369,-0.294575 -1.178298,-0.441862 -1.847786,-0.441862 -0.642708,0 -1.231857,0.09373 -1.767448,0.281184 -0.56237,0.187457 -1.017622,0.522201 -1.365755,1.004232 H 47.9313 m 0.401693,2.048633 c 0.428472,-0.455252 1.031011,-0.682877 1.807618,-0.682877 0.749825,0 1.338975,0.227625 1.767447,0.682877 0.401693,0.455252 0.602539,1.057792 0.602539,1.807617 0,0.723047 -0.200846,1.312196 -0.602539,1.767448 -0.428472,0.455252 -1.017622,0.682879 -1.767447,0.682879 -0.776607,0 -1.379146,-0.227627 -1.807618,-0.682879 -0.401693,-0.455252 -0.602539,-1.044401 -0.602539,-1.767448 0,-0.749825 0.200846,-1.352365 0.602539,-1.807617 z"
           id="path34-8-2"
           sodipodi:nodetypes="ccsscccsccccsccscccscccccssccscccscsccccccccccccccccccccccccssccscccsccccscscscsc"
           style="stroke-width:0.803385" /><g
           id="g35-0-4"
           transform="matrix(0.48922168,0,0,0.48922168,86.249238,20.786992)"><path
             fill="#cdcdcd"
             stroke="none"
             d="m -30.166045,44.868225 -12.05,9.1 12.05,9.1 v -4.9 h 17.4 v -8.4 h -17.4 z"
             id="path31-1-3-9-4" /><path
             fill="#cdcdcd"
             stroke="none"
             d="m -24.816045,58.197897 12.05,9.100001 -12.05,9.1 v -4.9 h -17.4 v -8.4 h 17.4 z"
             id="path31-1-0-8-2" /></g></g><path
         id="use312-2-2"
         stroke="#696969"
         stroke-width="4"
         stroke-linejoin="round"
         stroke-linecap="round"
         fill="none"
         d="m 73.87,70.95 h 13.8 c 2.4,0 3.6,-1.2 3.6,-3.6 -0.633333,-11.233333 -0.633333,-22.5 0,-33.8 0,-2.4 -1.2,-3.6 -3.6,-3.6 h -13.8 m -1.1,0 H 19.5 c -2.433333,0 -3.65,1.2 -3.65,3.6 0.666667,11.3 0.666667,22.566667 0,33.8 0,2.4 1.216667,3.6 3.65,3.6 h 53.27"
         sodipodi:nodetypes="csccsccsccsc" /><path
         id="use313-0-6"
         stroke="#1d1d1d"
         stroke-width="5"
         stroke-linejoin="round"
         stroke-linecap="round"
         fill="none"
         d="m 94.12,22.1 c 3.333333,0 5,1.666667 5,5 -0.733333,15.6 -0.733333,31.166667 0,46.7 0,3.333333 -1.666667,5 -5,5 H 13.05 c -3.3333333,0 -5,-1.666667 -5,-5 0.7,-15.533333 0.7,-31.1 0,-46.7 0,-3.333333 1.6666667,-5 5,-5 z"
         sodipodi:nodetypes="sccssccss" /></g></g></svg>
