<?xml version="1.0" encoding="UTF-8" standalone="no"?>
<!-- Created with Inkscape (http://www.inkscape.org/) -->

<svg
   width="512"
   height="512"
   viewBox="0 -3 135.46666 135.46667"
   version="1.1"
   id="svg1"
   xml:space="preserve"
   inkscape:version="1.3.2 (091e20e, 2023-11-25, custom)"
   sodipodi:docname="ps-dark.svg"
   inkscape:export-filename="buttons-keys.png"
   inkscape:export-xdpi="96"
   inkscape:export-ydpi="96"
   xmlns:inkscape="http://www.inkscape.org/namespaces/inkscape"
   xmlns:sodipodi="http://sodipodi.sourceforge.net/DTD/sodipodi-0.dtd"
   xmlns:xlink="http://www.w3.org/1999/xlink"
   xmlns="http://www.w3.org/2000/svg"
   xmlns:svg="http://www.w3.org/2000/svg"><sodipodi:namedview
     id="namedview1"
     pagecolor="#ff00ff"
     bordercolor="#eeeeee"
     borderopacity="1"
     inkscape:showpageshadow="0"
     inkscape:pageopacity="0"
     inkscape:pagecheckerboard="0"
     inkscape:deskcolor="#ff00ff"
     inkscape:document-units="px"
     inkscape:zoom="0.53008455"
     inkscape:cx="-35.843339"
     inkscape:cy="734.78844"
     inkscape:window-width="3840"
     inkscape:window-height="2054"
     inkscape:window-x="-11"
     inkscape:window-y="-11"
     inkscape:window-maximized="1"
     inkscape:current-layer="layer1"
     showguides="true" /><defs
     id="defs1"><linearGradient
       id="Gradient_9"
       gradientUnits="userSpaceOnUse"
       x1="49"
       y1="27.5"
       x2="49"
       y2="38"
       spreadMethod="pad"><stop
         offset="0%"
         stop-color="#D7D7D7"
         id="stop17" /><stop
         offset="100%"
         stop-color="#313131"
         id="stop18" /></linearGradient><linearGradient
       id="Gradient_10"
       gradientUnits="userSpaceOnUse"
       x1="49"
       y1="42.487499"
       x2="49"
       y2="29.012501"
       spreadMethod="pad"><stop
         offset="0%"
         stop-color="#4F4F4F"
         id="stop19" /><stop
         offset="100%"
         stop-color="#F5F5F5"
         id="stop20" /></linearGradient><linearGradient
       id="Gradient_11"
       gradientUnits="userSpaceOnUse"
       x1="49.5"
       y1="32.262501"
       x2="49.5"
       y2="40.237499"
       spreadMethod="pad"><stop
         offset="0%"
         stop-color="#FFFFFF"
         id="stop21" /><stop
         offset="100%"
         stop-color="#626262"
         id="stop22" /></linearGradient><linearGradient
       id="Gradient_12"
       gradientUnits="userSpaceOnUse"
       x1="49"
       y1="20.512501"
       x2="49"
       y2="32.487499"
       spreadMethod="pad"><stop
         offset="0%"
         stop-color="#404040"
         id="stop23" /><stop
         offset="100%"
         stop-color="#1B1B1B"
         id="stop24" /></linearGradient><linearGradient
       id="Gradient_13"
       gradientUnits="userSpaceOnUse"
       x1="72.5"
       y1="49"
       x2="62"
       y2="49"
       spreadMethod="pad"><stop
         offset="0%"
         stop-color="#D7D7D7"
         id="stop25" /><stop
         offset="100%"
         stop-color="#313131"
         id="stop26" /></linearGradient><linearGradient
       id="Gradient_14"
       gradientUnits="userSpaceOnUse"
       x1="57.512501"
       y1="49"
       x2="70.987503"
       y2="49"
       spreadMethod="pad"><stop
         offset="0%"
         stop-color="#4F4F4F"
         id="stop27" /><stop
         offset="100%"
         stop-color="#F5F5F5"
         id="stop28" /></linearGradient><linearGradient
       id="Gradient_15"
       gradientUnits="userSpaceOnUse"
       x1="67.737503"
       y1="49.5"
       x2="59.762501"
       y2="49.5"
       spreadMethod="pad"><stop
         offset="0%"
         stop-color="#FFFFFF"
         id="stop29" /><stop
         offset="100%"
         stop-color="#626262"
         id="stop30" /></linearGradient><linearGradient
       id="Gradient_16"
       gradientUnits="userSpaceOnUse"
       x1="79.487503"
       y1="49"
       x2="67.512497"
       y2="49"
       spreadMethod="pad"><stop
         offset="0%"
         stop-color="#404040"
         id="stop31" /><stop
         offset="100%"
         stop-color="#1B1B1B"
         id="stop32" /></linearGradient><linearGradient
       id="Gradient_1"
       gradientUnits="userSpaceOnUse"
       x1="51"
       y1="72.5"
       x2="51"
       y2="62"
       spreadMethod="pad"><stop
         offset="0%"
         stop-color="#D7D7D7"
         id="stop33" /><stop
         offset="100%"
         stop-color="#313131"
         id="stop34" /></linearGradient><linearGradient
       id="Gradient_2"
       gradientUnits="userSpaceOnUse"
       x1="51"
       y1="57.512501"
       x2="51"
       y2="70.987503"
       spreadMethod="pad"><stop
         offset="0%"
         stop-color="#4F4F4F"
         id="stop35" /><stop
         offset="100%"
         stop-color="#F5F5F5"
         id="stop36" /></linearGradient><linearGradient
       id="Gradient_3"
       gradientUnits="userSpaceOnUse"
       x1="50.5"
       y1="67.737503"
       x2="50.5"
       y2="59.762501"
       spreadMethod="pad"><stop
         offset="0%"
         stop-color="#FFFFFF"
         id="stop41" /><stop
         offset="100%"
         stop-color="#626262"
         id="stop42" /></linearGradient><linearGradient
       id="Gradient_4"
       gradientUnits="userSpaceOnUse"
       x1="51"
       y1="79.487503"
       x2="51"
       y2="67.512497"
       spreadMethod="pad"><stop
         offset="0%"
         stop-color="#404040"
         id="stop45" /><stop
         offset="100%"
         stop-color="#1B1B1B"
         id="stop46" /></linearGradient><linearGradient
       id="Gradient_5"
       gradientUnits="userSpaceOnUse"
       x1="27.5"
       y1="51"
       x2="38"
       y2="51"
       spreadMethod="pad"><stop
         offset="0%"
         stop-color="#D7D7D7"
         id="stop49" /><stop
         offset="100%"
         stop-color="#313131"
         id="stop50" /></linearGradient><linearGradient
       id="Gradient_6"
       gradientUnits="userSpaceOnUse"
       x1="42.487499"
       y1="51"
       x2="29.012501"
       y2="51"
       spreadMethod="pad"><stop
         offset="0%"
         stop-color="#4F4F4F"
         id="stop51" /><stop
         offset="100%"
         stop-color="#F5F5F5"
         id="stop52" /></linearGradient><linearGradient
       id="Gradient_7"
       gradientUnits="userSpaceOnUse"
       x1="32.262501"
       y1="50.5"
       x2="40.237499"
       y2="50.5"
       spreadMethod="pad"><stop
         offset="0%"
         stop-color="#FFFFFF"
         id="stop57" /><stop
         offset="100%"
         stop-color="#626262"
         id="stop58" /></linearGradient><linearGradient
       id="Gradient_8"
       gradientUnits="userSpaceOnUse"
       x1="20.512501"
       y1="51"
       x2="32.487499"
       y2="51"
       spreadMethod="pad"><stop
         offset="0%"
         stop-color="#404040"
         id="stop61" /><stop
         offset="100%"
         stop-color="#1B1B1B"
         id="stop62" /></linearGradient><linearGradient
       id="Gradient_1-9"
       gradientUnits="userSpaceOnUse"
       x1="146.75"
       y1="55.6875"
       x2="146.75"
       y2="2.8125"
       spreadMethod="pad"><stop
         offset="0%"
         stop-color="#616161"
         id="stop1" /><stop
         offset="95.29411764705883%"
         stop-color="#353535"
         id="stop2" /></linearGradient><linearGradient
       inkscape:collect="always"
       xlink:href="#Gradient_1"
       id="linearGradient19-3-6"
       gradientUnits="userSpaceOnUse"
       x1="51"
       y1="72.5"
       x2="51"
       y2="62"
       spreadMethod="pad" /></defs><g
     inkscape:label="Capa 1"
     inkscape:groupmode="layer"
     id="layer1"><g
       transform="matrix(0.2917126,0,0,0.2917126,-115.41773,162.7395)"
       id="g121-8-9" /><g
       id="g30-1-4"
       transform="translate(-0.16341,-2.8908467)"><g
         id="g2-0-3-7"
         transform="translate(125.73211,-267.11752)"><path
           fill="#1b1b1b"
           stroke="none"
           d="m -12.633083,349.05433 h 0.01636 c -2.574384,-2.57439 -5.694187,-3.86158 -9.35941,-3.86158 -3.654316,0 -6.779574,1.28719 -9.375774,3.86158 -2.574383,2.58529 -3.861574,5.70509 -3.861574,9.35941 0,3.65431 1.287191,6.77411 3.861574,9.35941 v 0.0164 c 2.5962,2.57438 5.721458,3.86157 9.375774,3.86157 3.654315,0 6.768664,-1.28719 9.343047,-3.86157 l 0.01636,-0.0164 c 2.585292,-2.5853 3.8779373,-5.7051 3.8779373,-9.35941 0,-3.66523 -1.2981003,-6.78503 -3.8943003,-9.35941"
           id="path22-3-7-9-5-4"
           sodipodi:nodetypes="ccscsccssssc"
           style="stroke-width:0.327252" /><path
           fill="#313131"
           stroke="none"
           d="m -13.549389,349.98699 c -2.32349,-2.32349 -5.132403,-3.48523 -8.426741,-3.48523 -3.294339,0 -6.108707,1.15629 -8.443105,3.46887 l -0.01636,0.0164 c -2.312582,2.32349 -3.468872,5.13241 -3.468872,8.42675 0,3.29433 1.15629,6.1087 3.468872,8.4431 h 0.01636 c 2.334398,2.32349 5.148766,3.48523 8.443105,3.48523 3.294338,0 6.103251,-1.16174 8.426741,-3.48523 2.334399,-2.3344 3.501598,-5.14877 3.501598,-8.4431 0,-3.29434 -1.167199,-6.10326 -3.501598,-8.42675"
           id="path23-7-8-0-6-4"
           sodipodi:nodetypes="cscssccsssc"
           style="stroke-width:0.327252" /><path
           fill="#626262"
           stroke="none"
           d="m -14.334794,350.75604 h -0.01636 c -2.116231,-2.09442 -4.657889,-3.14162 -7.624974,-3.14162 -2.988903,0 -5.54147,1.0472 -7.6577,3.14162 -2.094413,2.11623 -3.14162,4.66879 -3.14162,7.6577 0,2.96708 1.047207,5.50874 3.14162,7.62497 v 0.0164 c 2.105322,2.10532 4.657888,3.15799 7.6577,3.15799 2.977994,0 5.525106,-1.05267 7.641336,-3.15799 2.105322,-2.11623 3.157983,-4.66334 3.157983,-7.64133 0,-2.99982 -1.052661,-5.55238 -3.157983,-7.6577"
           id="path24-1-6-49-0-2"
           sodipodi:nodetypes="ccscsccscsc"
           style="stroke-width:0.327252" /><path
           fill="#4f4f4f"
           stroke="none"
           d="m -15.054748,351.45963 c -1.908971,-1.90897 -4.216098,-2.86346 -6.921382,-2.86346 -2.727101,0 -5.045137,0.94903 -6.954108,2.8471 l -0.01636,0.0164 c -1.898062,1.90897 -2.847093,4.227 -2.847093,6.95411 0,2.70528 0.954485,5.01241 2.863456,6.92138 1.90897,1.91988 4.227007,2.87982 6.954108,2.87982 2.694375,0 5.001502,-0.95994 6.921382,-2.87982 1.919879,-1.91988 2.879818,-4.22701 2.879818,-6.92138 0,-2.72711 -0.959939,-5.04514 -2.879818,-6.95411"
           id="path25-4-1-9-4-5"
           sodipodi:nodetypes="csccscsssc"
           style="stroke-width:0.327252" /></g><path
         id="use80-6-5-2"
         stroke="#d6d6d6"
         stroke-width="1.63626"
         stroke-linejoin="round"
         stroke-linecap="round"
         fill="none"
         d="m 107.99389,87.058321 -4.23791,4.237914 4.25427,4.254278 m -8.492189,-8.492192 4.237919,4.237914 -4.254282,4.254278" /></g><g
       id="g28-2-0"
       transform="translate(-0.02413,-2.8908467)"><g
         id="g2-3-5-4"
         transform="translate(66.326161,-267.11752)"><path
           fill="#1b1b1b"
           stroke="none"
           d="m -12.633083,349.05433 h 0.01636 c -2.574384,-2.57439 -5.694187,-3.86158 -9.35941,-3.86158 -3.654316,0 -6.779574,1.28719 -9.375774,3.86158 -2.574383,2.58529 -3.861574,5.70509 -3.861574,9.35941 0,3.65431 1.287191,6.77411 3.861574,9.35941 v 0.0164 c 2.5962,2.57438 5.721458,3.86157 9.375774,3.86157 3.654315,0 6.768664,-1.28719 9.343047,-3.86157 l 0.01636,-0.0164 c 2.585292,-2.5853 3.8779373,-5.7051 3.8779373,-9.35941 0,-3.66523 -1.2981003,-6.78503 -3.8943003,-9.35941"
           id="path22-3-7-1-6-4"
           sodipodi:nodetypes="ccscsccssssc"
           style="stroke-width:0.327252" /><path
           fill="#313131"
           stroke="none"
           d="m -13.549389,349.98699 c -2.32349,-2.32349 -5.132403,-3.48523 -8.426741,-3.48523 -3.294339,0 -6.108707,1.15629 -8.443105,3.46887 l -0.01636,0.0164 c -2.312582,2.32349 -3.468872,5.13241 -3.468872,8.42675 0,3.29433 1.15629,6.1087 3.468872,8.4431 h 0.01636 c 2.334398,2.32349 5.148766,3.48523 8.443105,3.48523 3.294338,0 6.103251,-1.16174 8.426741,-3.48523 2.334399,-2.3344 3.501598,-5.14877 3.501598,-8.4431 0,-3.29434 -1.167199,-6.10326 -3.501598,-8.42675"
           id="path23-7-8-20-6-6"
           sodipodi:nodetypes="cscssccsssc"
           style="stroke-width:0.327252" /><path
           fill="#626262"
           stroke="none"
           d="m -14.334794,350.75604 h -0.01636 c -2.116231,-2.09442 -4.657889,-3.14162 -7.624974,-3.14162 -2.988903,0 -5.54147,1.0472 -7.6577,3.14162 -2.094413,2.11623 -3.14162,4.66879 -3.14162,7.6577 0,2.96708 1.047207,5.50874 3.14162,7.62497 v 0.0164 c 2.105322,2.10532 4.657888,3.15799 7.6577,3.15799 2.977994,0 5.525106,-1.05267 7.641336,-3.15799 2.105322,-2.11623 3.157983,-4.66334 3.157983,-7.64133 0,-2.99982 -1.052661,-5.55238 -3.157983,-7.6577"
           id="path24-1-6-2-8-1"
           sodipodi:nodetypes="ccscsccscsc"
           style="stroke-width:0.327252" /><path
           fill="#4f4f4f"
           stroke="none"
           d="m -15.054748,351.45963 c -1.908971,-1.90897 -4.216098,-2.86346 -6.921382,-2.86346 -2.727101,0 -5.045137,0.94903 -6.954108,2.8471 l -0.01636,0.0164 c -1.898062,1.90897 -2.847093,4.227 -2.847093,6.95411 0,2.70528 0.954485,5.01241 2.863456,6.92138 1.90897,1.91988 4.227007,2.87982 6.954108,2.87982 2.694375,0 5.001502,-0.95994 6.921382,-2.87982 1.919879,-1.91988 2.879818,-4.22701 2.879818,-6.92138 0,-2.72711 -0.959939,-5.04514 -2.879818,-6.95411"
           id="path25-4-1-7-1-3"
           sodipodi:nodetypes="csccscsssc"
           style="stroke-width:0.327252" /></g><path
         id="use82-6-8-5"
         stroke="#d6d6d6"
         stroke-width="1.63626"
         stroke-linejoin="round"
         stroke-linecap="round"
         fill="none"
         d="m 39.416701,96.237742 v -9.866651 h 9.866651 v 9.866651 z" /></g><g
       id="g27-6-1"
       transform="translate(-0.16386,-2.8908467)"><g
         id="g2-52-0-5"
         transform="translate(36.83256,-267.11752)"><path
           fill="#1b1b1b"
           stroke="none"
           d="m -12.633083,349.05433 h 0.01636 c -2.574384,-2.57439 -5.694187,-3.86158 -9.35941,-3.86158 -3.654316,0 -6.779574,1.28719 -9.375774,3.86158 -2.574383,2.58529 -3.861574,5.70509 -3.861574,9.35941 0,3.65431 1.287191,6.77411 3.861574,9.35941 v 0.0164 c 2.5962,2.57438 5.721458,3.86157 9.375774,3.86157 3.654315,0 6.768664,-1.28719 9.343047,-3.86157 l 0.01636,-0.0164 c 2.585292,-2.5853 3.8779373,-5.7051 3.8779373,-9.35941 0,-3.66523 -1.2981003,-6.78503 -3.8943003,-9.35941"
           id="path22-3-7-4-1-9"
           sodipodi:nodetypes="ccscsccssssc"
           style="stroke-width:0.327252" /><path
           fill="#313131"
           stroke="none"
           d="m -13.549389,349.98699 c -2.32349,-2.32349 -5.132403,-3.48523 -8.426741,-3.48523 -3.294339,0 -6.108707,1.15629 -8.443105,3.46887 l -0.01636,0.0164 c -2.312582,2.32349 -3.468872,5.13241 -3.468872,8.42675 0,3.29433 1.15629,6.1087 3.468872,8.4431 h 0.01636 c 2.334398,2.32349 5.148766,3.48523 8.443105,3.48523 3.294338,0 6.103251,-1.16174 8.426741,-3.48523 2.334399,-2.3344 3.501598,-5.14877 3.501598,-8.4431 0,-3.29434 -1.167199,-6.10326 -3.501598,-8.42675"
           id="path23-7-8-21-6-5"
           sodipodi:nodetypes="cscssccsssc"
           style="stroke-width:0.327252" /><path
           fill="#626262"
           stroke="none"
           d="m -14.334794,350.75604 h -0.01636 c -2.116231,-2.09442 -4.657889,-3.14162 -7.624974,-3.14162 -2.988903,0 -5.54147,1.0472 -7.6577,3.14162 -2.094413,2.11623 -3.14162,4.66879 -3.14162,7.6577 0,2.96708 1.047207,5.50874 3.14162,7.62497 v 0.0164 c 2.105322,2.10532 4.657888,3.15799 7.6577,3.15799 2.977994,0 5.525106,-1.05267 7.641336,-3.15799 2.105322,-2.11623 3.157983,-4.66334 3.157983,-7.64133 0,-2.99982 -1.052661,-5.55238 -3.157983,-7.6577"
           id="path24-1-6-0-0-7"
           sodipodi:nodetypes="ccscsccscsc"
           style="stroke-width:0.327252" /><path
           fill="#4f4f4f"
           stroke="none"
           d="m -15.054748,351.45963 c -1.908971,-1.90897 -4.216098,-2.86346 -6.921382,-2.86346 -2.727101,0 -5.045137,0.94903 -6.954108,2.8471 l -0.01636,0.0164 c -1.898062,1.90897 -2.847093,4.227 -2.847093,6.95411 0,2.70528 0.954485,5.01241 2.863456,6.92138 1.90897,1.91988 4.227007,2.87982 6.954108,2.87982 2.694375,0 5.001502,-0.95994 6.921382,-2.87982 1.919879,-1.91988 2.879818,-4.22701 2.879818,-6.92138 0,-2.72711 -0.959939,-5.04514 -2.879818,-6.95411"
           id="path25-4-1-72-5-6"
           sodipodi:nodetypes="csccscsssc"
           style="stroke-width:0.327252" /></g><path
         id="use84-0-2-6"
         stroke="#d6d6d6"
         stroke-width="1.63626"
         stroke-linejoin="round"
         stroke-linecap="round"
         fill="none"
         d="m 9.276777,95.321436 5.579649,-10.226628 5.579648,10.226628 z" /></g><g
       id="g29-0-6"
       transform="translate(-0.05034,-2.8826667)"><g
         id="g2-5-7-1"
         transform="translate(95.98571,-267.1257)"><path
           fill="#1b1b1b"
           stroke="none"
           d="m -12.633083,349.05433 h 0.01636 c -2.574384,-2.57439 -5.694187,-3.86158 -9.35941,-3.86158 -3.654316,0 -6.779574,1.28719 -9.375774,3.86158 -2.574383,2.58529 -3.861574,5.70509 -3.861574,9.35941 0,3.65431 1.287191,6.77411 3.861574,9.35941 v 0.0164 c 2.5962,2.57438 5.721458,3.86157 9.375774,3.86157 3.654315,0 6.768664,-1.28719 9.343047,-3.86157 l 0.01636,-0.0164 c 2.585292,-2.5853 3.8779373,-5.7051 3.8779373,-9.35941 0,-3.66523 -1.2981003,-6.78503 -3.8943003,-9.35941"
           id="path22-3-7-7-1-7"
           sodipodi:nodetypes="ccscsccssssc"
           style="stroke-width:0.327252" /><path
           fill="#313131"
           stroke="none"
           d="m -13.549389,349.98699 c -2.32349,-2.32349 -5.132403,-3.48523 -8.426741,-3.48523 -3.294339,0 -6.108707,1.15629 -8.443105,3.46887 l -0.01636,0.0164 c -2.312582,2.32349 -3.468872,5.13241 -3.468872,8.42675 0,3.29433 1.15629,6.1087 3.468872,8.4431 h 0.01636 c 2.334398,2.32349 5.148766,3.48523 8.443105,3.48523 3.294338,0 6.103251,-1.16174 8.426741,-3.48523 2.334399,-2.3344 3.501598,-5.14877 3.501598,-8.4431 0,-3.29434 -1.167199,-6.10326 -3.501598,-8.42675"
           id="path23-7-8-5-6-8"
           sodipodi:nodetypes="cscssccsssc"
           style="stroke-width:0.327252" /><path
           fill="#626262"
           stroke="none"
           d="m -14.334794,350.75604 h -0.01636 c -2.116231,-2.09442 -4.657889,-3.14162 -7.624974,-3.14162 -2.988903,0 -5.54147,1.0472 -7.6577,3.14162 -2.094413,2.11623 -3.14162,4.66879 -3.14162,7.6577 0,2.96708 1.047207,5.50874 3.14162,7.62497 v 0.0164 c 2.105322,2.10532 4.657888,3.15799 7.6577,3.15799 2.977994,0 5.525106,-1.05267 7.641336,-3.15799 2.105322,-2.11623 3.157983,-4.66334 3.157983,-7.64133 0,-2.99982 -1.052661,-5.55238 -3.157983,-7.6577"
           id="path24-1-6-7-8-0"
           sodipodi:nodetypes="ccscsccscsc"
           style="stroke-width:0.327252" /><path
           fill="#4f4f4f"
           stroke="none"
           d="m -15.054748,351.45963 c -1.908971,-1.90897 -4.216098,-2.86346 -6.921382,-2.86346 -2.727101,0 -5.045137,0.94903 -6.954108,2.8471 l -0.01636,0.0164 c -1.898062,1.90897 -2.847093,4.227 -2.847093,6.95411 0,2.70528 0.954485,5.01241 2.863456,6.92138 1.90897,1.91988 4.227007,2.87982 6.954108,2.87982 2.694375,0 5.001502,-0.95994 6.921382,-2.87982 1.919879,-1.91988 2.879818,-4.22701 2.879818,-6.92138 0,-2.72711 -0.959939,-5.04514 -2.879818,-6.95411"
           id="path25-4-1-14-2-8"
           sodipodi:nodetypes="csccscsssc"
           style="stroke-width:0.327252" /></g><path
         id="use86-5-8-4"
         stroke="#d6d6d6"
         stroke-width="1.63626"
         stroke-linejoin="round"
         stroke-linecap="round"
         fill="none"
         d="m 74.009576,84.833006 q 2.683467,0 4.565166,1.898063 1.898063,1.898062 1.898063,4.565166 0,2.683468 -1.898063,4.565167 -1.881699,1.898063 -4.565166,1.898063 -2.667105,0 -4.565167,-1.898063 -1.898063,-1.881699 -1.898063,-4.565167 0,-2.667104 1.898063,-4.565166 1.898062,-1.898063 4.565167,-1.898063 z" /></g><g
       id="g13-6-2"
       transform="translate(0.35107,-103.67395)"><g
         id="use86-4-8-4"
         transform="matrix(0.34227574,0,0,0.34227574,5.6531228,204.94752)"><path
           fill="#353535"
           stroke="none"
           d="m 84.85,78.4 c 2.106771,-1.681771 3.090104,-3.681771 2.95,-6 -0.107161,-1.842448 -0.940495,-3.892448 -2.5,-6.15 -2.9,-4.133333 -5.6,-10.8 -8.1,-20 -2.5,-9.233333 -3.616667,-19.333333 -3.35,-30.3 -13.966667,-3.4 -28.45,-4 -43.45,-1.8 -0.169531,0.06003 -0.336198,0.110027 -0.5,0.15 -7.204167,2.639844 -13.0375,6.239844 -17.5,10.8 0.9,12.366667 3.133333,23.566667 6.7,33.6 3.533333,10.066667 10.116667,17.866667 19.75,23.4 3.5,2.066667 8.583333,3.05 15.25,2.95 13.133333,0.633333 23.383333,-1.583333 30.75,-6.65"
           id="path3-4-0-3"
           sodipodi:nodetypes="cccccccccccc" /><path
           fill="url(#Gradient_1)"
           stroke="none"
           d="m 29.8,21 q -1.025781,-0.06328 -1.8,0.6 -0.780469,0.714062 -0.85,1.75 -1.062891,17.277148 1.45,36.05 v 0.05 q 0.183008,1.185352 0.45,2.4 0.08555,0.408398 0.25,0.7 2.819141,8.773437 10.15,12.9 H 39.4 Q 46.474023,79.471484 54.75,77 55.033789,76.935156 55.3,76.85 53.426953,76.817969 51.75,76.6 50.481445,76.470117 49.3,76.2 49.17168,76.193164 49,76.15 44.799609,75.22793 42.15,73 36.238086,68.089258 34,61.3 34.0033,61.073828 33.95,60.8 33.719531,59.777344 33.55,58.75 31.112695,40.472656 32.15,23.65 32.21231,22.625977 31.5,21.85 30.83418,21.06875 29.8,21 Z"
           id="path13-2-90-6"
           style="fill:url(#linearGradient19-3-6)" /></g><path
         id="use87-2-4-0"
         stroke="#2a2a2a"
         stroke-width="1.71138"
         stroke-linejoin="round"
         stroke-linecap="round"
         fill="none"
         d="m 30.930186,210.40682 q -0.13691,5.63043 1.146624,10.37095 1.283534,4.72341 2.772433,6.84552 0.800672,1.15906 0.85569,2.11355 0.07193,1.18165 -1.009714,2.0451 -3.782147,2.60129 -10.524979,2.27613 -3.422757,0.0513 -5.219705,-1.00971 -4.945884,-2.84089 -6.759946,-8.00925 -1.831175,-5.15125 -2.293247,-11.50047 2.291108,-2.34125 5.989825,-3.68802 0.0841,-0.0291 0.171138,-0.0599 7.701204,-1.12951 14.871881,0.6161 z" /><path
         fill="#8c8c8c"
         stroke="none"
         d="m 28.456824,218.88673 q -0.101715,-0.41144 -0.306529,-0.73342 -0.222711,-0.322 -0.521789,-0.51876 -0.285618,-0.21467 -0.652033,-0.322 -0.348519,-0.10731 -0.724176,-0.10731 -0.411434,0 -0.742675,0.10731 -0.33124,0.10731 -0.528604,0.322 -0.215264,0.21465 -0.278771,0.53664 -0.08582,0.3041 0.0069,0.75132 l 1.198343,0.0716 q -0.05287,-0.28622 0.07295,-0.50088 0.148131,-0.19676 0.470123,-0.19676 0.286215,0 0.522787,0.16099 0.236572,0.161 0.307326,0.44721 0.06192,0.25045 -0.05486,0.42932 -0.112353,0.19678 -0.23797,0.33989 l -1.682478,1.94983 0.309556,1.2522 h 3.88179 l -0.256489,-1.03754 h -2.468604 l 1.341201,-1.44896 q 0.10773,-0.1431 0.211037,-0.3041 0.08984,-0.14311 0.152953,-0.32199 0.04522,-0.17889 0.04582,-0.39355 5.61e-4,-0.21465 -0.06573,-0.48299 m -5.421225,-1.2343 q -0.330437,-0.17888 -0.746092,-0.26832 -0.397778,-0.0895 -0.827099,-0.0895 h -2.146613 l 1.379731,5.58119 h 1.216413 l -0.552775,-2.23605 h 0.608208 l 1.715523,2.23605 h 1.466851 l -1.996917,-2.36128 q 0.56379,-0.10731 0.766179,-0.51875 0.220278,-0.41145 0.07434,-1.00177 -0.119401,-0.48299 -0.382306,-0.82286 -0.240597,-0.322 -0.575456,-0.51877 m -1.441914,0.67977 q 0.160996,0 0.348708,0.0357 0.1833,0.0178 0.326223,0.0895 0.160813,0.0716 0.281192,0.19677 0.102518,0.12521 0.155584,0.33988 0.05306,0.21466 -0.0054,0.33988 -0.07638,0.12521 -0.201793,0.19677 -0.129843,0.0537 -0.322201,0.0715 -0.178884,0 -0.339879,0 h -0.733427 l -0.313975,-1.27006 z"
         id="path59-4-5-7"
         style="stroke-width:0.357769" /></g><g
       id="g299-0-6"
       transform="translate(229.94519,-146.36992)"><g
         id="use78-1-2"
         transform="matrix(0.28087402,0,0,0.28087402,-125.58783,250.3731)"><path
           fill="#313131"
           stroke="none"
           d="m 35.15,71.8 -1.2,19.95 3.4,3.35 h 25.3 l 3.4,-3.35 -1.2,-19.95 -9.4,-12.4 h -10.9 l -9.4,12.4 M 48.1,66.1 h 1.25 1.3 1.25 l 6.25,7.8 0.9,14.5 h -18.1 l 0.9,-14.5 6.25,-7.8 M 66.05,8.25 62.65,4.9 h -25.3 l -3.4,3.35 1.2,19.95 9.4,12.4 h 10.9 l 9.4,-12.4 1.2,-19.95 m -25.1,3.35 h 18.1 l -0.9,14.5 -6.25,7.8 h -1.25 -1.3 -1.25 l -6.25,-7.8 -0.9,-14.5 m 54.15,25.75 -3.35,-3.4 -19.95,1.2 -12.4,9.4 v 10.9 l 12.4,9.4 19.95,1.2 3.35,-3.4 v -25.3 m -6.7,3.6 v 18.1 L 73.9,58.15 66.1,51.9 v -1.25 -1.3 -1.25 l 7.8,-6.25 z"
           id="path92-5-9" /><path
           fill="#4f4f4f"
           stroke="none"
           d="M 49.35,66.1 H 48.1 l -6.25,7.8 -0.9,14.5 h 18.1 L 58.15,73.9 51.9,66.1 h -1.25 -1.3 m 9.7,-54.5 h -18.1 l 0.9,14.5 6.25,7.8 h 1.25 1.3 1.25 l 6.25,-7.8 0.9,-14.5 M 88.4,59.05 v -18.1 l -14.5,0.9 -7.8,6.25 v 1.25 1.3 1.25 l 7.8,6.25 z"
           id="path93-4-9" /><path
           fill="#d7d7d7"
           stroke="none"
           d="m 8.25,33.95 -3.35,3.4 v 25.3 l 3.35,3.4 19.95,-1.2 12.4,-9.4 V 44.55 L 28.2,35.15 8.25,33.95 m 3.35,7 14.5,0.9 7.8,6.25 v 1.25 1.3 1.25 l -7.8,6.25 -14.5,0.9 z"
           id="path94-0-8" /><path
           fill="#f5f5f5"
           stroke="none"
           d="m 26.1,41.85 -14.5,-0.9 v 18.1 l 14.5,-0.9 7.8,-6.25 v -1.25 -1.3 -1.25 z"
           id="path95-4-9" /></g><path
         id="use79-87-2"
         stroke="#202020"
         stroke-width="1.1235"
         stroke-linejoin="round"
         stroke-linecap="round"
         fill="none"
         d="m -98.876711,260.86374 -0.940928,-0.95497 -5.603441,0.33705 -3.48283,2.64022 v 3.06152 l 3.48283,2.64022 5.603441,0.33705 0.940928,-0.95497 z m -9.114359,-9.11436 0.95497,0.94093 -0.33705,5.60344 -2.64022,3.48284 h -3.06152 l -2.64022,-3.48284 -0.33705,-5.60344 0.95497,-0.94093 z m -8.06109,24.39391 0.95497,0.94093 h 7.10612 l 0.95497,-0.94093 -0.33705,-5.60344 -2.64022,-3.48283 h -3.06152 l -2.64022,3.48283 z" /><path
         id="use80-0-6"
         stroke="#626262"
         stroke-width="1.1235"
         stroke-linejoin="round"
         stroke-linecap="round"
         fill="none"
         d="m -107.02206,264.23423 v -0.35109 l 2.19082,-1.75546 4.07267,-0.25279 v 5.08382 l -4.07267,-0.25279 -2.19082,-1.75546 v -0.35109 m -4.3395,-4.70464 h 0.35109 l 1.75546,-2.19082 0.25279,-4.07267 h -5.08382 l 0.25279,4.07267 1.75546,2.19082 h 0.35109 m 0.36514,9.04414 h 0.35109 l 1.75546,2.19082 0.25279,4.07267 h -5.08382 l 0.25279,-4.07267 1.75546,-2.19082 h 0.35109" /><path
         id="use81-9-4"
         stroke="#404040"
         stroke-width="1.1235"
         stroke-linejoin="round"
         stroke-linecap="round"
         fill="none"
         d="m -123.27062,259.90877 5.60344,0.33705 3.48284,2.64022 v 3.06152 l -3.48284,2.64022 -5.60344,0.33705 -0.94093,-0.95497 v -7.10612 z" /><path
         id="use82-3-2"
         stroke="#ffffff"
         stroke-width="1.1235"
         stroke-linejoin="round"
         stroke-linecap="round"
         fill="none"
         d="m -116.0662,264.23423 v -0.35109 l -2.19082,-1.75546 -4.07267,-0.25279 v 5.08382 l 4.07267,-0.25279 2.19082,-1.75546 v -0.35109" /><path
         fill="#d6d6d6"
         stroke="none"
         d="m -111.52311,273.61763 1.24734,-1.73786 h -2.5227 l 1.27536,1.73786 m 1.24734,-16.66379 -1.24734,-1.73786 -1.27536,1.73786 h 2.5227 m 6.19461,6.20863 v 2.52269 l 1.73785,-1.27536 z"
         id="path266-3-1-0-7"
         style="stroke-width:0.280299" /><path
         fill="#616161"
         stroke="none"
         d="m -120.74495,264.4098 1.73785,1.27536 v -2.52269 z"
         id="path269-4-0-1-8"
         style="stroke-width:0.280299" /></g><g
       id="g298-7-5"
       transform="translate(229.83479,-146.36992)"><g
         id="use88-61-4"
         transform="matrix(0.28087402,0,0,0.28087402,-155.11077,250.3731)"><path
           fill="#313131"
           stroke="none"
           d="m 35.15,71.8 -1.2,19.95 3.4,3.35 h 25.3 l 3.4,-3.35 -1.2,-19.95 -9.4,-12.4 h -10.9 l -9.4,12.4 m 15.5,-5.7 h 1.25 l 6.25,7.8 0.9,14.5 h -18.1 l 0.9,-14.5 6.25,-7.8 h 1.25 1.3 M 28.2,35.15 8.25,33.95 4.9,37.35 v 25.3 l 3.35,3.4 19.95,-1.2 12.4,-9.4 v -10.9 l -12.4,-9.4 m 5.7,12.95 v 1.25 1.3 1.25 l -7.8,6.25 -14.5,0.9 v -18.1 l 14.5,0.9 7.8,6.25 M 66.05,8.25 62.65,4.9 h -25.3 l -3.4,3.35 1.2,19.95 9.4,12.4 h 10.9 l 9.4,-12.4 1.2,-19.95 m -25.1,3.35 h 18.1 l -0.9,14.5 -6.25,7.8 h -1.25 -1.3 -1.25 l -6.25,-7.8 z"
           id="path84-2-6" /><path
           fill="#4f4f4f"
           stroke="none"
           d="m 51.9,66.1 h -1.25 -1.3 -1.25 l -6.25,7.8 -0.9,14.5 h 18.1 L 58.15,73.9 51.9,66.1 M 33.9,49.35 V 48.1 l -7.8,-6.25 -14.5,-0.9 v 18.1 l 14.5,-0.9 7.8,-6.25 v -1.25 -1.3 M 59.05,11.6 h -18.1 l 0.9,14.5 6.25,7.8 h 1.25 1.3 1.25 l 6.25,-7.8 z"
           id="path85-6-2" /><path
           fill="#d7d7d7"
           stroke="none"
           d="m 95.1,37.35 -3.35,-3.4 -19.95,1.2 -12.4,9.4 v 10.9 l 12.4,9.4 19.95,1.2 3.35,-3.4 v -25.3 m -6.7,3.6 v 18.1 L 73.9,58.15 66.1,51.9 v -1.25 -1.3 -1.25 l 7.8,-6.25 z"
           id="path86-6-0" /><path
           fill="#f5f5f5"
           stroke="none"
           d="m 88.4,59.05 v -18.1 l -14.5,0.9 -7.8,6.25 v 1.25 1.3 1.25 l 7.8,6.25 z"
           id="path87-2-2" /></g><path
         id="use89-5-4"
         stroke="#202020"
         stroke-width="1.1235"
         stroke-linejoin="round"
         stroke-linecap="round"
         fill="none"
         d="m -136.55904,252.69031 -0.95497,-0.94093 h -7.10612 l -0.95497,0.94093 0.33705,5.60344 2.64022,3.48284 h 3.06152 l 2.64022,-3.48284 z m -16.23452,7.21846 -0.94093,0.95497 v 7.10612 l 0.94093,0.95497 5.60344,-0.33705 3.48284,-2.64022 v -3.06152 l -3.48284,-2.64022 z m 8.17343,17.17545 -0.95497,-0.94093 0.33705,-5.60344 2.64022,-3.48283 h 3.06152 l 2.64022,3.48283 0.33705,5.60344 -0.95497,0.94093 z" /><path
         id="use90-8-7-7"
         stroke="#626262"
         stroke-width="1.1235"
         stroke-linejoin="round"
         stroke-linecap="round"
         fill="none"
         d="m -141.24964,259.89473 h -0.35109 l -1.75546,-2.19082 -0.25279,-4.07267 h 5.08382 l -0.25279,4.07267 -1.75546,2.19082 h -0.35109 m -4.70464,4.70464 v 0.35109 l -2.19082,1.75546 -4.07267,0.25279 v -5.08382 l 4.07267,0.25279 2.19082,1.75546 v 0.35109 m 4.3395,4.70464 h -0.35109 l -1.75546,2.19082 -0.25279,4.07267 h 5.08382 l -0.25279,-4.07267 -1.75546,-2.19082 h -0.35109" /><path
         id="use91-6-73-4"
         stroke="#404040"
         stroke-width="1.1235"
         stroke-linejoin="round"
         stroke-linecap="round"
         fill="none"
         d="m -129.34058,259.90877 0.94093,0.95497 v 7.10612 l -0.94093,0.95497 -5.60344,-0.33705 -3.48283,-2.64022 v -3.06152 l 3.48283,-2.64022 z" /><path
         id="use92-8-4"
         stroke="#ffffff"
         stroke-width="1.1235"
         stroke-linejoin="round"
         stroke-linecap="round"
         fill="none"
         d="m -136.545,264.59937 v 0.35109 l 2.19082,1.75546 4.07267,0.25279 v -5.08382 l -4.07267,0.25279 -2.19082,1.75546 v 0.35109" /><path
         fill="#d6d6d6"
         stroke="none"
         d="m -141.08809,255.21597 -1.24733,1.73786 h 2.52269 l -1.27536,-1.73786 m -1.24733,16.66379 1.24733,1.73786 1.27536,-1.73786 h -2.52269 m -6.19462,-6.20863 v -2.52269 l -1.73785,1.27536 z"
         id="path266-3-1-2-7-9"
         style="stroke-width:0.280299" /><path
         fill="#616161"
         stroke="none"
         d="m -131.86625,264.4238 -1.73785,-1.27536 v 2.52269 z"
         id="path269-4-0-8-48-5"
         style="stroke-width:0.280299" /></g><g
       id="g297-2-1"
       transform="translate(229.60316,-146.36992)"><g
         id="use93-1-1"
         transform="matrix(0.28087402,0,0,0.28087402,-184.51247,250.3731)"><path
           fill="#313131"
           stroke="none"
           d="m 35.15,71.8 -1.2,19.95 3.4,3.35 h 25.3 l 3.4,-3.35 -1.2,-19.95 -9.4,-12.4 h -10.9 l -9.4,12.4 m 14.2,-5.7 h 1.3 1.25 l 6.25,7.8 0.9,14.5 h -18.1 l 0.9,-14.5 6.25,-7.8 h 1.25 M 28.2,35.15 8.25,33.95 4.9,37.35 v 25.3 l 3.35,3.4 19.95,-1.2 12.4,-9.4 v -10.9 l -12.4,-9.4 m -16.6,5.8 14.5,0.9 7.8,6.25 v 1.25 1.3 1.25 l -7.8,6.25 -14.5,0.9 v -18.1 m 83.5,-3.6 -3.35,-3.4 -19.95,1.2 -12.4,9.4 v 10.9 l 12.4,9.4 19.95,1.2 3.35,-3.4 v -25.3 m -6.7,3.6 v 18.1 L 73.9,58.15 66.1,51.9 v -1.25 -1.3 -1.25 l 7.8,-6.25 z"
           id="path69-9-7-9" /><path
           fill="#4f4f4f"
           stroke="none"
           d="m 50.65,66.1 h -1.3 -1.25 l -6.25,7.8 -0.9,14.5 h 18.1 L 58.15,73.9 51.9,66.1 H 50.65 M 26.1,41.85 11.6,40.95 v 18.1 l 14.5,-0.9 7.8,-6.25 v -1.25 -1.3 -1.25 l -7.8,-6.25 m 62.3,17.2 v -18.1 l -14.5,0.9 -7.8,6.25 v 1.25 1.3 1.25 l 7.8,6.25 z"
           id="path70-2-2-4" /><path
           fill="#d7d7d7"
           stroke="none"
           d="M 66.05,8.25 62.65,4.9 h -25.3 l -3.4,3.35 1.2,19.95 9.4,12.4 h 10.9 l 9.4,-12.4 1.2,-19.95 m -25.1,3.35 h 18.1 l -0.9,14.5 -6.25,7.8 h -1.25 -1.3 -1.25 l -6.25,-7.8 z"
           id="path71-6-2" /><path
           fill="#f5f5f5"
           stroke="none"
           d="m 59.05,11.6 h -18.1 l 0.9,14.5 6.25,7.8 h 1.25 1.3 1.25 l 6.25,-7.8 z"
           id="path72-9-8" /></g><path
         id="use94-4-3"
         stroke="#202020"
         stroke-width="1.1235"
         stroke-linejoin="round"
         stroke-linecap="round"
         fill="none"
         d="m -158.74228,259.90877 0.94093,0.95497 v 7.10612 l -0.94093,0.95497 -5.60344,-0.33705 -3.48283,-2.64022 v -3.06152 l 3.48283,-2.64022 z m -23.45298,0 -0.94093,0.95497 v 7.10612 l 0.94093,0.95497 5.60344,-0.33705 3.48284,-2.64022 v -3.06152 l -3.48284,-2.64022 z m 7.21846,16.23452 0.95497,0.94093 h 7.10612 l 0.95497,-0.94093 -0.33705,-5.60344 -2.64022,-3.48283 h -3.06152 l -2.64022,3.48283 z" /><path
         id="use95-1-5"
         stroke="#626262"
         stroke-width="1.1235"
         stroke-linejoin="round"
         stroke-linecap="round"
         fill="none"
         d="m -165.9467,264.59937 v 0.35109 l 2.19082,1.75546 4.07267,0.25279 v -5.08382 l -4.07267,0.25279 -2.19082,1.75546 v 0.35109 m -9.04414,0.36514 v 0.35109 l -2.19082,1.75546 -4.07267,0.25279 v -5.08382 l 4.07267,0.25279 2.19082,1.75546 v 0.35109 m 4.70464,4.70464 h 0.35109 l 1.75546,2.19082 0.25279,4.07267 h -5.08382 l 0.25279,-4.07267 1.75546,-2.19082 h 0.35109" /><path
         id="use96-33-8"
         stroke="#404040"
         stroke-width="1.1235"
         stroke-linejoin="round"
         stroke-linecap="round"
         fill="none"
         d="m -166.91571,251.74938 0.95497,0.94093 -0.33705,5.60344 -2.64022,3.48284 h -3.06152 l -2.64022,-3.48284 -0.33705,-5.60344 0.95497,-0.94093 z" /><path
         id="use97-7-7"
         stroke="#ffffff"
         stroke-width="1.1235"
         stroke-linejoin="round"
         stroke-linecap="round"
         fill="none"
         d="m -170.2862,259.89473 h 0.35109 l 1.75546,-2.19082 0.25279,-4.07267 h -5.08382 l 0.25279,4.07267 1.75546,2.19082 h 0.35109" /><path
         fill="#d6d6d6"
         stroke="none"
         d="m -179.6696,264.43782 1.73786,1.24733 v -2.52269 l -1.73786,1.27536 m 16.66379,1.24733 1.73786,-1.24733 -1.73786,-1.27536 v 2.52269 m -6.20863,6.19462 h -2.52269 l 1.27536,1.73785 z"
         id="path266-3-1-2-6-5-5"
         style="stroke-width:0.280299" /><path
         fill="#616161"
         stroke="none"
         d="m -170.46177,255.21598 -1.27536,1.73785 h 2.52269 z"
         id="path269-4-0-8-4-3-2"
         style="stroke-width:0.280299" /></g><g
       id="g296-6-7"
       transform="translate(229.6706,-146.79086)"><g
         id="use83-0-8"
         transform="matrix(0.28087402,0,0,0.28087402,-229.02991,191.52737)"><path
           fill="#d7d7d7"
           stroke="none"
           d="m 33.95,91.75 3.4,3.35 h 25.3 l 3.4,-3.35 -1.2,-19.95 -9.4,-12.4 h -10.9 l -9.4,12.4 -1.2,19.95 M 50.65,66.1 h 1.25 l 6.25,7.8 0.9,14.5 h -18.1 l 0.9,-14.5 6.25,-7.8 h 1.25 z"
           id="path88-3-0" /><path
           fill="#f5f5f5"
           stroke="none"
           d="m 51.9,66.1 h -1.25 -1.3 -1.25 l -6.25,7.8 -0.9,14.5 h 18.1 l -0.9,-14.5 z"
           id="path89-6-5" /><path
           fill="#313131"
           stroke="none"
           d="M 28.2,35.15 8.25,33.95 4.9,37.35 v 25.3 l 3.35,3.4 19.95,-1.2 12.4,-9.4 v -10.9 l -12.4,-9.4 m 5.7,12.95 v 1.25 1.3 1.25 l -7.8,6.25 -14.5,0.9 v -18.1 l 14.5,0.9 7.8,6.25 M 66.05,8.25 62.65,4.9 h -25.3 l -3.4,3.35 1.2,19.95 9.4,12.4 h 10.9 l 9.4,-12.4 1.2,-19.95 m -25.1,3.35 h 18.1 l -0.9,14.5 -6.25,7.8 h -1.25 -1.3 -1.25 l -6.25,-7.8 -0.9,-14.5 m 54.15,25.75 -3.35,-3.4 -19.95,1.2 -12.4,9.4 v 10.9 l 12.4,9.4 19.95,1.2 3.35,-3.4 v -25.3 m -6.7,3.6 v 18.1 L 73.9,58.15 66.1,51.9 v -1.25 -1.3 -1.25 l 7.8,-6.25 z"
           id="path90-1-5" /><path
           fill="#4f4f4f"
           stroke="none"
           d="M 33.9,49.35 V 48.1 l -7.8,-6.25 -14.5,-0.9 v 18.1 l 14.5,-0.9 7.8,-6.25 v -1.25 -1.3 M 59.05,11.6 h -18.1 l 0.9,14.5 6.25,7.8 h 1.25 1.3 1.25 l 6.25,-7.8 0.9,-14.5 M 88.4,59.05 v -18.1 l -14.5,0.9 -7.8,6.25 v 1.25 1.3 1.25 l 7.8,6.25 z"
           id="path91-5-8" /></g><path
         id="use84-5-3"
         stroke="#404040"
         stroke-width="1.1235"
         stroke-linejoin="round"
         stroke-linecap="round"
         fill="none"
         d="m -219.49424,217.29756 0.33705,-5.60344 2.64022,-3.48283 h 3.06152 l 2.64022,3.48283 0.33705,5.60344 -0.95497,0.94093 h -7.10612 z" /><path
         id="use85-0-9"
         stroke="#ffffff"
         stroke-width="1.1235"
         stroke-linejoin="round"
         stroke-linecap="round"
         fill="none"
         d="m -215.16878,210.09314 h -0.35109 l -1.75546,2.19082 -0.25279,4.07267 h 5.08382 l -0.25279,-4.07267 -1.75546,-2.19082 h -0.35109" /><path
         id="use86-9-6"
         stroke="#202020"
         stroke-width="1.1235"
         stroke-linejoin="round"
         stroke-linecap="round"
         fill="none"
         d="m -202.31879,202.01801 -0.94093,-0.95497 -5.60344,0.33705 -3.48283,2.64022 v 3.06152 l 3.48283,2.64022 5.60344,0.33705 0.94093,-0.95497 z m -8.15939,-8.17343 -0.95497,-0.94093 h -7.10612 l -0.95497,0.94093 0.33705,5.60344 2.64022,3.48284 h 3.06152 l 2.64022,-3.48284 z m -17.17545,8.17343 0.94093,-0.95497 5.60344,0.33705 3.48284,2.64022 v 3.06152 l -3.48284,2.64022 -5.60344,0.33705 -0.94093,-0.95497 z" /><path
         id="use87-3-1"
         stroke="#626262"
         stroke-width="1.1235"
         stroke-linejoin="round"
         stroke-linecap="round"
         fill="none"
         d="m -210.46414,205.3885 v -0.35109 l 2.19082,-1.75546 4.07267,-0.25279 v 5.08382 l -4.07267,-0.25279 -2.19082,-1.75546 v -0.35109 m -4.70464,-4.70464 h -0.35109 l -1.75546,-2.19082 -0.25279,-4.07267 h 5.08382 l -0.25279,4.07267 -1.75546,2.19082 h -0.35109 m -4.70464,4.3395 v -0.35109 l -2.19082,-1.75546 -4.07267,-0.25279 v 5.08382 l 4.07267,-0.25279 2.19082,-1.75546 v -0.35109" /><path
         fill="#d6d6d6"
         stroke="none"
         d="m -205.78538,205.55006 -1.73786,-1.24734 v 2.5227 l 1.73786,-1.27536 m -16.66379,-1.24734 -1.73786,1.24734 1.73786,1.27536 v -2.5227 m 6.20863,-6.19461 h 2.52269 l -1.27536,-1.73785 z"
         id="path266-3-1-2-5-0-0"
         style="stroke-width:0.280299" /><path
         fill="#616161"
         stroke="none"
         d="m -214.99321,214.7719 1.27536,-1.73785 h -2.52269 z"
         id="path269-4-0-8-5-3-7"
         style="stroke-width:0.280299" /></g></g></svg>
