<?xml version="1.0" encoding="UTF-8"?>
<svg xmlns="http://www.w3.org/2000/svg" xmlns:xlink="http://www.w3.org/1999/xlink"
     width="256" height="256" viewBox="0 0 256 256">
<defs>
</defs>
<rect x="0" y="216" width="40" height="40" stroke="black" fill="red" fill-opacity="0.1" />
<rect x="40" y="216" width="40" height="40" stroke="black" fill="red" fill-opacity="0.1" />
<rect x="80" y="216" width="40" height="40" stroke="black" fill="red" fill-opacity="0.1" />
<rect x="120" y="216" width="40" height="40" stroke="black" fill="red" fill-opacity="0.1" />
<rect x="160" y="216" width="40" height="40" stroke="black" fill="red" fill-opacity="0.1" />
<rect x="200" y="216" width="40" height="40" stroke="black" fill="red" fill-opacity="0.1" />
<rect x="0" y="176" width="40" height="40" stroke="black" fill="red" fill-opacity="0.1" />
<rect x="40" y="176" width="40" height="40" stroke="black" fill="red" fill-opacity="0.1" />
<rect x="80" y="176" width="40" height="40" stroke="black" fill="red" fill-opacity="0.1" />
<rect x="120" y="176" width="40" height="40" stroke="black" fill="red" fill-opacity="0.1" />
<rect x="160" y="176" width="40" height="40" stroke="black" fill="red" fill-opacity="0.1" />
<rect x="200" y="176" width="40" height="40" stroke="black" fill="red" fill-opacity="0.1" />
<rect x="0" y="136" width="40" height="40" stroke="black" fill="red" fill-opacity="0.1" />
<rect x="40" y="136" width="40" height="40" stroke="black" fill="red" fill-opacity="0.1" />
<rect x="80" y="136" width="40" height="40" stroke="black" fill="red" fill-opacity="0.1" />
<rect x="120" y="136" width="40" height="40" stroke="black" fill="red" fill-opacity="0.1" />
<rect x="160" y="136" width="40" height="40" stroke="black" fill="red" fill-opacity="0.1" />
<rect x="200" y="136" width="40" height="40" stroke="black" fill="red" fill-opacity="0.1" />
<rect x="0" y="96" width="40" height="40" stroke="black" fill="red" fill-opacity="0.1" />
<rect x="40" y="96" width="40" height="40" stroke="black" fill="red" fill-opacity="0.1" />
<rect x="80" y="96" width="40" height="40" stroke="black" fill="red" fill-opacity="0.1" />
<rect x="120" y="96" width="40" height="40" stroke="black" fill="red" fill-opacity="0.1" />
<rect x="160" y="96" width="40" height="40" stroke="black" fill="red" fill-opacity="0.1" />
<rect x="200" y="96" width="40" height="40" stroke="black" fill="red" fill-opacity="0.1" />
<rect x="0" y="56" width="40" height="40" stroke="black" fill="red" fill-opacity="0.1" />
<rect x="40" y="56" width="40" height="40" stroke="black" fill="red" fill-opacity="0.1" />
<rect x="80" y="56" width="40" height="40" stroke="black" fill="red" fill-opacity="0.1" />
<rect x="120" y="56" width="40" height="40" stroke="black" fill="red" fill-opacity="0.1" />
<rect x="160" y="56" width="40" height="40" stroke="black" fill="red" fill-opacity="0.1" />
<rect x="200" y="56" width="40" height="40" stroke="black" fill="red" fill-opacity="0.1" />
</svg>