<?xml version="1.0" encoding="UTF-8"?>
<svg xmlns="http://www.w3.org/2000/svg" xmlns:xlink="http://www.w3.org/1999/xlink"
     width="512" height="512" viewBox="0 0 512 512">
<defs>
</defs>
<rect x="0" y="452" width="292" height="60" stroke="black" fill="red" fill-opacity="0.1" />
<rect x="0" y="422" width="290" height="30" stroke="black" fill="red" fill-opacity="0.1" />
<rect x="0" y="392" width="290" height="30" stroke="black" fill="red" fill-opacity="0.1" />
<rect x="292" y="482" width="204" height="30" stroke="black" fill="red" fill-opacity="0.1" />
<rect x="290" y="422" width="200" height="30" stroke="black" fill="red" fill-opacity="0.1" />
<rect x="290" y="392" width="200" height="30" stroke="black" fill="red" fill-opacity="0.1" />
<rect x="292" y="452" width="198" height="30" stroke="black" fill="red" fill-opacity="0.1" />
<rect x="0" y="362" width="198" height="30" stroke="black" fill="red" fill-opacity="0.1" />
<rect x="198" y="362" width="142" height="30" stroke="black" fill="red" fill-opacity="0.1" />
<rect x="340" y="362" width="138" height="30" stroke="black" fill="red" fill-opacity="0.1" />
<rect x="0" y="332" width="133" height="30" stroke="black" fill="red" fill-opacity="0.1" />
<rect x="133" y="332" width="129" height="30" stroke="black" fill="red" fill-opacity="0.1" />
<rect x="262" y="332" width="91" height="30" stroke="black" fill="red" fill-opacity="0.1" />
<rect x="353" y="332" width="88" height="30" stroke="black" fill="red" fill-opacity="0.1" />
<rect x="0" y="302" width="83" height="30" stroke="black" fill="red" fill-opacity="0.1" />
<rect x="83" y="304" width="268" height="28" stroke="black" fill="red" fill-opacity="0.1" />
<rect x="0" y="274" width="268" height="28" stroke="black" fill="red" fill-opacity="0.1" />
<rect x="268" y="285" width="236" height="17" stroke="black" fill="red" fill-opacity="0.1" />
<rect x="0" y="257" width="236" height="17" stroke="black" fill="red" fill-opacity="0.1" />
<rect x="236" y="257" width="236" height="17" stroke="black" fill="red" fill-opacity="0.1" />
<rect x="0" y="240" width="236" height="17" stroke="black" fill="red" fill-opacity="0.1" />
<rect x="236" y="240" width="236" height="17" stroke="black" fill="red" fill-opacity="0.1" />
<rect x="0" y="223" width="236" height="17" stroke="black" fill="red" fill-opacity="0.1" />
<rect x="236" y="223" width="236" height="17" stroke="black" fill="red" fill-opacity="0.1" />
</svg>