<?xml version="1.0" encoding="UTF-8"?>
<svg xmlns="http://www.w3.org/2000/svg" xmlns:xlink="http://www.w3.org/1999/xlink"
     width="2048" height="1024" viewBox="0 0 2048 1024">
<defs>
</defs>
<rect x="0" y="924" width="828" height="100" stroke="black" fill="red" fill-opacity="0.1" id="0">
<title>sprite_374</title>
</rect>
<rect x="828" y="948" width="960" height="76" stroke="black" fill="red" fill-opacity="0.1" id="1">
<title>sprite_375</title>
</rect>
<rect x="0" y="848" width="960" height="76" stroke="black" fill="red" fill-opacity="0.1" id="2">
<title>sprite_376</title>
</rect>
<rect x="960" y="848" width="960" height="76" stroke="black" fill="red" fill-opacity="0.1" id="3">
<title>sprite_377</title>
</rect>
<rect x="0" y="772" width="960" height="76" stroke="black" fill="red" fill-opacity="0.1" id="4">
<title>sprite_378</title>
</rect>
<rect x="960" y="772" width="960" height="76" stroke="black" fill="red" fill-opacity="0.1" id="5">
<title>sprite_379</title>
</rect>
<rect x="0" y="696" width="960" height="76" stroke="black" fill="red" fill-opacity="0.1" id="6">
<title>sprite_380</title>
</rect>
<rect x="960" y="696" width="960" height="76" stroke="black" fill="red" fill-opacity="0.1" id="7">
<title>sprite_381</title>
</rect>
<rect x="0" y="620" width="960" height="76" stroke="black" fill="red" fill-opacity="0.1" id="8">
<title>sprite_382</title>
</rect>
<rect x="960" y="620" width="960" height="76" stroke="black" fill="red" fill-opacity="0.1" id="9">
<title>sprite_383</title>
</rect>
<rect x="0" y="544" width="960" height="76" stroke="black" fill="red" fill-opacity="0.1" id="10">
<title>sprite_384</title>
</rect>
<rect x="960" y="544" width="960" height="76" stroke="black" fill="red" fill-opacity="0.1" id="11">
<title>sprite_385</title>
</rect>
<rect x="0" y="468" width="960" height="76" stroke="black" fill="red" fill-opacity="0.1" id="12">
<title>sprite_386</title>
</rect>
<rect x="960" y="468" width="956" height="76" stroke="black" fill="red" fill-opacity="0.1" id="13">
<title>sprite_387</title>
</rect>
<rect x="0" y="392" width="956" height="76" stroke="black" fill="red" fill-opacity="0.1" id="14">
<title>sprite_388</title>
</rect>
<rect x="956" y="392" width="956" height="76" stroke="black" fill="red" fill-opacity="0.1" id="15">
<title>sprite_389</title>
</rect>
<rect x="0" y="316" width="956" height="76" stroke="black" fill="red" fill-opacity="0.1" id="16">
<title>sprite_390</title>
</rect>
<rect x="956" y="316" width="956" height="76" stroke="black" fill="red" fill-opacity="0.1" id="17">
<title>sprite_391</title>
</rect>
<rect x="0" y="240" width="956" height="76" stroke="black" fill="red" fill-opacity="0.1" id="18">
<title>sprite_392</title>
</rect>
<rect x="956" y="240" width="956" height="76" stroke="black" fill="red" fill-opacity="0.1" id="19">
<title>sprite_393</title>
</rect>
<rect x="0" y="164" width="864" height="76" stroke="black" fill="red" fill-opacity="0.1" id="20">
<title>sprite_394</title>
</rect>
<rect x="864" y="164" width="864" height="76" stroke="black" fill="red" fill-opacity="0.1" id="21">
<title>sprite_395</title>
</rect>
<rect x="0" y="100" width="1012" height="64" stroke="black" fill="red" fill-opacity="0.1" id="22">
<title>sprite_396</title>
</rect>
<rect x="1012" y="100" width="1012" height="64" stroke="black" fill="red" fill-opacity="0.1" id="23">
<title>sprite_397</title>
</rect>
<rect x="0" y="40" width="536" height="60" stroke="black" fill="red" fill-opacity="0.1" id="24">
<title>sprite_398</title>
</rect>
<rect x="536" y="40" width="300" height="60" stroke="black" fill="red" fill-opacity="0.1" id="25">
<title>sprite_399</title>
</rect>
<rect x="836" y="96" width="828" height="4" stroke="black" fill="red" fill-opacity="0.1" id="26">
<title>sprite_400</title>
</rect>
</svg>