<?xml version="1.0" encoding="UTF-8"?>
<svg xmlns="http://www.w3.org/2000/svg" xmlns:xlink="http://www.w3.org/1999/xlink"
     width="512" height="512" viewBox="0 0 512 512">
<defs>
</defs>
<rect x="0" y="496" width="179" height="16" stroke="black" fill="red" fill-opacity="0.1" id="0">
<title>sprite_73</title>
</rect>
<rect x="179" y="496" width="179" height="16" stroke="black" fill="red" fill-opacity="0.1" id="1">
<title>sprite_74</title>
</rect>
<rect x="0" y="480" width="179" height="16" stroke="black" fill="red" fill-opacity="0.1" id="2">
<title>sprite_75</title>
</rect>
<rect x="179" y="480" width="179" height="16" stroke="black" fill="red" fill-opacity="0.1" id="3">
<title>sprite_76</title>
</rect>
<rect x="0" y="464" width="179" height="16" stroke="black" fill="red" fill-opacity="0.1" id="4">
<title>sprite_77</title>
</rect>
<rect x="179" y="464" width="179" height="16" stroke="black" fill="red" fill-opacity="0.1" id="5">
<title>sprite_78</title>
</rect>
<rect x="0" y="448" width="179" height="16" stroke="black" fill="red" fill-opacity="0.1" id="6">
<title>sprite_79</title>
</rect>
<rect x="179" y="448" width="179" height="16" stroke="black" fill="red" fill-opacity="0.1" id="7">
<title>sprite_80</title>
</rect>
<rect x="0" y="432" width="179" height="16" stroke="black" fill="red" fill-opacity="0.1" id="8">
<title>sprite_81</title>
</rect>
<rect x="179" y="432" width="179" height="16" stroke="black" fill="red" fill-opacity="0.1" id="9">
<title>sprite_82</title>
</rect>
<rect x="0" y="416" width="179" height="16" stroke="black" fill="red" fill-opacity="0.1" id="10">
<title>sprite_83</title>
</rect>
<rect x="179" y="416" width="179" height="16" stroke="black" fill="red" fill-opacity="0.1" id="11">
<title>sprite_84</title>
</rect>
<rect x="0" y="400" width="179" height="16" stroke="black" fill="red" fill-opacity="0.1" id="12">
<title>sprite_85</title>
</rect>
<rect x="179" y="400" width="179" height="16" stroke="black" fill="red" fill-opacity="0.1" id="13">
<title>sprite_86</title>
</rect>
<rect x="0" y="384" width="179" height="16" stroke="black" fill="red" fill-opacity="0.1" id="14">
<title>sprite_87</title>
</rect>
<rect x="179" y="384" width="179" height="16" stroke="black" fill="red" fill-opacity="0.1" id="15">
<title>sprite_88</title>
</rect>
<rect x="0" y="368" width="179" height="16" stroke="black" fill="red" fill-opacity="0.1" id="16">
<title>sprite_89</title>
</rect>
<rect x="179" y="368" width="179" height="16" stroke="black" fill="red" fill-opacity="0.1" id="17">
<title>sprite_90</title>
</rect>
<rect x="0" y="352" width="179" height="16" stroke="black" fill="red" fill-opacity="0.1" id="18">
<title>sprite_91</title>
</rect>
<rect x="179" y="352" width="179" height="16" stroke="black" fill="red" fill-opacity="0.1" id="19">
<title>sprite_92</title>
</rect>
<rect x="0" y="336" width="179" height="16" stroke="black" fill="red" fill-opacity="0.1" id="20">
<title>sprite_93</title>
</rect>
<rect x="179" y="336" width="179" height="16" stroke="black" fill="red" fill-opacity="0.1" id="21">
<title>sprite_94</title>
</rect>
<rect x="0" y="320" width="179" height="16" stroke="black" fill="red" fill-opacity="0.1" id="22">
<title>sprite_95</title>
</rect>
<rect x="179" y="320" width="179" height="16" stroke="black" fill="red" fill-opacity="0.1" id="23">
<title>sprite_96</title>
</rect>
<rect x="0" y="304" width="179" height="16" stroke="black" fill="red" fill-opacity="0.1" id="24">
<title>sprite_97</title>
</rect>
<rect x="179" y="304" width="179" height="16" stroke="black" fill="red" fill-opacity="0.1" id="25">
<title>sprite_98</title>
</rect>
<rect x="0" y="288" width="179" height="16" stroke="black" fill="red" fill-opacity="0.1" id="26">
<title>sprite_99</title>
</rect>
<rect x="179" y="288" width="179" height="16" stroke="black" fill="red" fill-opacity="0.1" id="27">
<title>sprite_100</title>
</rect>
<rect x="0" y="272" width="179" height="16" stroke="black" fill="red" fill-opacity="0.1" id="28">
<title>sprite_101</title>
</rect>
<rect x="179" y="272" width="179" height="16" stroke="black" fill="red" fill-opacity="0.1" id="29">
<title>sprite_102</title>
</rect>
<rect x="0" y="256" width="179" height="16" stroke="black" fill="red" fill-opacity="0.1" id="30">
<title>sprite_103</title>
</rect>
<rect x="179" y="256" width="179" height="16" stroke="black" fill="red" fill-opacity="0.1" id="31">
<title>sprite_104</title>
</rect>
<rect x="0" y="240" width="179" height="16" stroke="black" fill="red" fill-opacity="0.1" id="32">
<title>sprite_105</title>
</rect>
<rect x="179" y="240" width="179" height="16" stroke="black" fill="red" fill-opacity="0.1" id="33">
<title>sprite_106</title>
</rect>
<rect x="0" y="224" width="179" height="16" stroke="black" fill="red" fill-opacity="0.1" id="34">
<title>sprite_107</title>
</rect>
<rect x="179" y="224" width="179" height="16" stroke="black" fill="red" fill-opacity="0.1" id="35">
<title>sprite_108</title>
</rect>
<rect x="0" y="208" width="179" height="16" stroke="black" fill="red" fill-opacity="0.1" id="36">
<title>sprite_109</title>
</rect>
<rect x="179" y="208" width="179" height="16" stroke="black" fill="red" fill-opacity="0.1" id="37">
<title>sprite_110</title>
</rect>
</svg>