<?xml version="1.0" encoding="UTF-8"?>
<svg xmlns="http://www.w3.org/2000/svg" xmlns:xlink="http://www.w3.org/1999/xlink"
     width="256" height="128" viewBox="0 0 256 128">
<defs>
</defs>
<rect x="0" y="103" width="36" height="25" stroke="black" fill="red" fill-opacity="0.1" />
<rect x="36" y="103" width="36" height="25" stroke="black" fill="red" fill-opacity="0.1" />
<rect x="72" y="103" width="36" height="25" stroke="black" fill="red" fill-opacity="0.1" />
<rect x="108" y="103" width="36" height="25" stroke="black" fill="red" fill-opacity="0.1" />
<rect x="144" y="103" width="36" height="25" stroke="black" fill="red" fill-opacity="0.1" />
<rect x="180" y="103" width="36" height="25" stroke="black" fill="red" fill-opacity="0.1" />
<rect x="216" y="103" width="36" height="25" stroke="black" fill="red" fill-opacity="0.1" />
<rect x="0" y="78" width="36" height="25" stroke="black" fill="red" fill-opacity="0.1" />
<rect x="36" y="78" width="36" height="25" stroke="black" fill="red" fill-opacity="0.1" />
<rect x="72" y="78" width="36" height="25" stroke="black" fill="red" fill-opacity="0.1" />
<rect x="108" y="78" width="36" height="25" stroke="black" fill="red" fill-opacity="0.1" />
<rect x="144" y="78" width="36" height="25" stroke="black" fill="red" fill-opacity="0.1" />
<rect x="180" y="78" width="36" height="25" stroke="black" fill="red" fill-opacity="0.1" />
<rect x="216" y="78" width="36" height="25" stroke="black" fill="red" fill-opacity="0.1" />
<rect x="0" y="53" width="36" height="25" stroke="black" fill="red" fill-opacity="0.1" />
<rect x="36" y="53" width="36" height="25" stroke="black" fill="red" fill-opacity="0.1" />
<rect x="72" y="53" width="36" height="25" stroke="black" fill="red" fill-opacity="0.1" />
<rect x="108" y="53" width="36" height="25" stroke="black" fill="red" fill-opacity="0.1" />
<rect x="144" y="53" width="36" height="25" stroke="black" fill="red" fill-opacity="0.1" />
<rect x="180" y="53" width="36" height="25" stroke="black" fill="red" fill-opacity="0.1" />
<rect x="216" y="53" width="36" height="25" stroke="black" fill="red" fill-opacity="0.1" />
<rect x="0" y="28" width="36" height="25" stroke="black" fill="red" fill-opacity="0.1" />
<rect x="36" y="28" width="36" height="25" stroke="black" fill="red" fill-opacity="0.1" />
<rect x="72" y="28" width="36" height="25" stroke="black" fill="red" fill-opacity="0.1" />
<rect x="108" y="28" width="36" height="25" stroke="black" fill="red" fill-opacity="0.1" />
<rect x="144" y="28" width="36" height="25" stroke="black" fill="red" fill-opacity="0.1" />
</svg>