<?xml version="1.0" encoding="UTF-8"?>
<svg xmlns="http://www.w3.org/2000/svg" xmlns:xlink="http://www.w3.org/1999/xlink"
     width="1024" height="512" viewBox="0 0 1024 512">
<defs>
</defs>
<rect x="0" y="386" width="136" height="126" stroke="black" fill="red" fill-opacity="0.1" />
<rect x="136" y="492" width="401" height="20" stroke="black" fill="red" fill-opacity="0.1" />
<rect x="537" y="492" width="344" height="20" stroke="black" fill="red" fill-opacity="0.1" />
<rect x="0" y="366" width="344" height="20" stroke="black" fill="red" fill-opacity="0.1" />
<rect x="344" y="366" width="344" height="20" stroke="black" fill="red" fill-opacity="0.1" />
<rect x="0" y="346" width="344" height="20" stroke="black" fill="red" fill-opacity="0.1" />
<rect x="344" y="346" width="344" height="20" stroke="black" fill="red" fill-opacity="0.1" />
<rect x="0" y="326" width="344" height="20" stroke="black" fill="red" fill-opacity="0.1" />
<rect x="344" y="326" width="344" height="20" stroke="black" fill="red" fill-opacity="0.1" />
<rect x="0" y="306" width="344" height="20" stroke="black" fill="red" fill-opacity="0.1" />
<rect x="344" y="306" width="344" height="20" stroke="black" fill="red" fill-opacity="0.1" />
<rect x="0" y="286" width="343" height="20" stroke="black" fill="red" fill-opacity="0.1" />
<rect x="343" y="286" width="343" height="20" stroke="black" fill="red" fill-opacity="0.1" />
<rect x="0" y="266" width="343" height="20" stroke="black" fill="red" fill-opacity="0.1" />
<rect x="343" y="266" width="343" height="20" stroke="black" fill="red" fill-opacity="0.1" />
<rect x="0" y="246" width="343" height="20" stroke="black" fill="red" fill-opacity="0.1" />
<rect x="343" y="246" width="343" height="20" stroke="black" fill="red" fill-opacity="0.1" />
<rect x="0" y="226" width="343" height="20" stroke="black" fill="red" fill-opacity="0.1" />
<rect x="343" y="226" width="343" height="20" stroke="black" fill="red" fill-opacity="0.1" />
<rect x="0" y="206" width="343" height="20" stroke="black" fill="red" fill-opacity="0.1" />
<rect x="343" y="206" width="343" height="20" stroke="black" fill="red" fill-opacity="0.1" />
<rect x="0" y="186" width="343" height="20" stroke="black" fill="red" fill-opacity="0.1" />
<rect x="343" y="186" width="343" height="20" stroke="black" fill="red" fill-opacity="0.1" />
<rect x="0" y="166" width="343" height="20" stroke="black" fill="red" fill-opacity="0.1" />
<rect x="343" y="166" width="343" height="20" stroke="black" fill="red" fill-opacity="0.1" />
<rect x="0" y="146" width="343" height="20" stroke="black" fill="red" fill-opacity="0.1" />
<rect x="343" y="146" width="343" height="20" stroke="black" fill="red" fill-opacity="0.1" />
<rect x="0" y="126" width="343" height="20" stroke="black" fill="red" fill-opacity="0.1" />
<rect x="343" y="126" width="343" height="20" stroke="black" fill="red" fill-opacity="0.1" />
<rect x="0" y="106" width="343" height="20" stroke="black" fill="red" fill-opacity="0.1" />
<rect x="343" y="106" width="343" height="20" stroke="black" fill="red" fill-opacity="0.1" />
<rect x="0" y="86" width="343" height="20" stroke="black" fill="red" fill-opacity="0.1" />
<rect x="343" y="86" width="343" height="20" stroke="black" fill="red" fill-opacity="0.1" />
<rect x="0" y="66" width="343" height="20" stroke="black" fill="red" fill-opacity="0.1" />
<rect x="343" y="66" width="343" height="20" stroke="black" fill="red" fill-opacity="0.1" />
<rect x="0" y="46" width="343" height="20" stroke="black" fill="red" fill-opacity="0.1" />
<rect x="343" y="46" width="343" height="20" stroke="black" fill="red" fill-opacity="0.1" />
<rect x="0" y="26" width="343" height="20" stroke="black" fill="red" fill-opacity="0.1" />
<rect x="343" y="26" width="343" height="20" stroke="black" fill="red" fill-opacity="0.1" />
<rect x="0" y="6" width="343" height="20" stroke="black" fill="red" fill-opacity="0.1" />
<rect x="343" y="6" width="160" height="20" stroke="black" fill="red" fill-opacity="0.1" />
<rect x="503" y="6" width="160" height="20" stroke="black" fill="red" fill-opacity="0.1" />
<rect x="663" y="25" width="3" height="1" stroke="black" fill="red" fill-opacity="0.1" />
</svg>