<?xml version="1.0" encoding="UTF-8"?>
<svg xmlns="http://www.w3.org/2000/svg" xmlns:xlink="http://www.w3.org/1999/xlink"
     width="512" height="512" viewBox="0 0 512 512">
<defs>
</defs>
<rect x="0" y="417" width="3" height="95" stroke="black" fill="red" fill-opacity="0.1" id="0">
<title>sprite_693</title>
</rect>
<rect x="3" y="437" width="68" height="75" stroke="black" fill="red" fill-opacity="0.1" id="1">
<title>sprite_694</title>
</rect>
<rect x="71" y="465" width="49" height="47" stroke="black" fill="red" fill-opacity="0.1" id="2">
<title>sprite_695</title>
</rect>
<rect x="120" y="465" width="49" height="47" stroke="black" fill="red" fill-opacity="0.1" id="3">
<title>sprite_696</title>
</rect>
<rect x="169" y="465" width="49" height="47" stroke="black" fill="red" fill-opacity="0.1" id="4">
<title>sprite_697</title>
</rect>
<rect x="218" y="465" width="49" height="47" stroke="black" fill="red" fill-opacity="0.1" id="5">
<title>sprite_698</title>
</rect>
<rect x="267" y="465" width="49" height="47" stroke="black" fill="red" fill-opacity="0.1" id="6">
<title>sprite_699</title>
</rect>
<rect x="316" y="465" width="49" height="47" stroke="black" fill="red" fill-opacity="0.1" id="7">
<title>sprite_700</title>
</rect>
<rect x="365" y="465" width="49" height="47" stroke="black" fill="red" fill-opacity="0.1" id="8">
<title>sprite_701</title>
</rect>
<rect x="414" y="465" width="49" height="47" stroke="black" fill="red" fill-opacity="0.1" id="9">
<title>sprite_702</title>
</rect>
<rect x="463" y="465" width="49" height="47" stroke="black" fill="red" fill-opacity="0.1" id="10">
<title>sprite_703</title>
</rect>
<rect x="0" y="370" width="49" height="47" stroke="black" fill="red" fill-opacity="0.1" id="11">
<title>sprite_704</title>
</rect>
<rect x="49" y="370" width="49" height="47" stroke="black" fill="red" fill-opacity="0.1" id="12">
<title>sprite_705</title>
</rect>
<rect x="98" y="370" width="49" height="47" stroke="black" fill="red" fill-opacity="0.1" id="13">
<title>sprite_706</title>
</rect>
<rect x="0" y="327" width="445" height="43" stroke="black" fill="red" fill-opacity="0.1" id="14">
<title>sprite_707</title>
</rect>
<rect x="0" y="284" width="440" height="43" stroke="black" fill="red" fill-opacity="0.1" id="15">
<title>sprite_708</title>
</rect>
<rect x="0" y="241" width="440" height="43" stroke="black" fill="red" fill-opacity="0.1" id="16">
<title>sprite_709</title>
</rect>
<rect x="147" y="374" width="273" height="43" stroke="black" fill="red" fill-opacity="0.1" id="17">
<title>sprite_710</title>
</rect>
<rect x="445" y="340" width="37" height="30" stroke="black" fill="red" fill-opacity="0.1" id="18">
<title>sprite_711</title>
</rect>
<rect x="440" y="297" width="37" height="30" stroke="black" fill="red" fill-opacity="0.1" id="19">
<title>sprite_712</title>
</rect>
<rect x="440" y="254" width="37" height="30" stroke="black" fill="red" fill-opacity="0.1" id="20">
<title>sprite_713</title>
</rect>
<rect x="482" y="343" width="20" height="27" stroke="black" fill="red" fill-opacity="0.1" id="21">
<title>sprite_714</title>
</rect>
<rect x="0" y="216" width="319" height="25" stroke="black" fill="red" fill-opacity="0.1" id="22">
<title>sprite_715</title>
</rect>
<rect x="319" y="216" width="36" height="25" stroke="black" fill="red" fill-opacity="0.1" id="23">
<title>sprite_716</title>
</rect>
<rect x="477" y="302" width="33" height="25" stroke="black" fill="red" fill-opacity="0.1" id="24">
<title>sprite_717</title>
</rect>
<rect x="0" y="193" width="353" height="23" stroke="black" fill="red" fill-opacity="0.1" id="25">
<title>sprite_718</title>
</rect>
<rect x="0" y="170" width="353" height="23" stroke="black" fill="red" fill-opacity="0.1" id="26">
<title>sprite_719</title>
</rect>
<rect x="0" y="147" width="353" height="23" stroke="black" fill="red" fill-opacity="0.1" id="27">
<title>sprite_720</title>
</rect>
<rect x="0" y="124" width="353" height="23" stroke="black" fill="red" fill-opacity="0.1" id="28">
<title>sprite_721</title>
</rect>
<rect x="0" y="101" width="270" height="23" stroke="black" fill="red" fill-opacity="0.1" id="29">
<title>sprite_722</title>
</rect>
<rect x="270" y="101" width="182" height="23" stroke="black" fill="red" fill-opacity="0.1" id="30">
<title>sprite_723</title>
</rect>
<rect x="353" y="194" width="31" height="22" stroke="black" fill="red" fill-opacity="0.1" id="31">
<title>sprite_724</title>
</rect>
<rect x="384" y="194" width="31" height="22" stroke="black" fill="red" fill-opacity="0.1" id="32">
<title>sprite_725</title>
</rect>
<rect x="415" y="194" width="31" height="22" stroke="black" fill="red" fill-opacity="0.1" id="33">
<title>sprite_726</title>
</rect>
<rect x="446" y="194" width="31" height="22" stroke="black" fill="red" fill-opacity="0.1" id="34">
<title>sprite_727</title>
</rect>
<rect x="477" y="194" width="31" height="22" stroke="black" fill="red" fill-opacity="0.1" id="35">
<title>sprite_728</title>
</rect>
<rect x="353" y="171" width="31" height="22" stroke="black" fill="red" fill-opacity="0.1" id="36">
<title>sprite_729</title>
</rect>
<rect x="384" y="171" width="31" height="22" stroke="black" fill="red" fill-opacity="0.1" id="37">
<title>sprite_730</title>
</rect>
<rect x="415" y="171" width="31" height="22" stroke="black" fill="red" fill-opacity="0.1" id="38">
<title>sprite_731</title>
</rect>
<rect x="446" y="171" width="31" height="22" stroke="black" fill="red" fill-opacity="0.1" id="39">
<title>sprite_732</title>
</rect>
<rect x="477" y="171" width="31" height="22" stroke="black" fill="red" fill-opacity="0.1" id="40">
<title>sprite_733</title>
</rect>
<rect x="353" y="148" width="31" height="22" stroke="black" fill="red" fill-opacity="0.1" id="41">
<title>sprite_734</title>
</rect>
<rect x="384" y="148" width="31" height="22" stroke="black" fill="red" fill-opacity="0.1" id="42">
<title>sprite_735</title>
</rect>
<rect x="0" y="81" width="160" height="20" stroke="black" fill="red" fill-opacity="0.1" id="43">
<title>sprite_736</title>
</rect>
<rect x="353" y="127" width="107" height="20" stroke="black" fill="red" fill-opacity="0.1" id="44">
<title>sprite_737</title>
</rect>
<rect x="415" y="150" width="19" height="20" stroke="black" fill="red" fill-opacity="0.1" id="45">
<title>sprite_738</title>
</rect>
<rect x="160" y="84" width="236" height="17" stroke="black" fill="red" fill-opacity="0.1" id="46">
<title>sprite_739</title>
</rect>
<rect x="0" y="65" width="179" height="16" stroke="black" fill="red" fill-opacity="0.1" id="47">
<title>sprite_740</title>
</rect>
<rect x="179" y="65" width="179" height="16" stroke="black" fill="red" fill-opacity="0.1" id="48">
<title>sprite_741</title>
</rect>
<rect x="0" y="49" width="179" height="16" stroke="black" fill="red" fill-opacity="0.1" id="49">
<title>sprite_742</title>
</rect>
<rect x="179" y="49" width="179" height="16" stroke="black" fill="red" fill-opacity="0.1" id="50">
<title>sprite_743</title>
</rect>
<rect x="0" y="33" width="179" height="16" stroke="black" fill="red" fill-opacity="0.1" id="51">
<title>sprite_744</title>
</rect>
<rect x="179" y="33" width="179" height="16" stroke="black" fill="red" fill-opacity="0.1" id="52">
<title>sprite_745</title>
</rect>
<rect x="0" y="17" width="166" height="16" stroke="black" fill="red" fill-opacity="0.1" id="53">
<title>sprite_746</title>
</rect>
<rect x="434" y="155" width="27" height="15" stroke="black" fill="red" fill-opacity="0.1" id="54">
<title>sprite_747</title>
</rect>
<rect x="166" y="19" width="316" height="14" stroke="black" fill="red" fill-opacity="0.1" id="55">
<title>sprite_748</title>
</rect>
<rect x="0" y="3" width="316" height="14" stroke="black" fill="red" fill-opacity="0.1" id="56">
<title>sprite_749</title>
</rect>
<rect x="461" y="161" width="13" height="9" stroke="black" fill="red" fill-opacity="0.1" id="57">
<title>sprite_750</title>
</rect>
<rect x="502" y="361" width="9" height="9" stroke="black" fill="red" fill-opacity="0.1" id="58">
<title>sprite_751</title>
</rect>
<rect x="316" y="14" width="95" height="3" stroke="black" fill="red" fill-opacity="0.1" id="59">
<title>sprite_752</title>
</rect>
</svg>