<?xml version="1.0" encoding="UTF-8"?>
<svg xmlns="http://www.w3.org/2000/svg" xmlns:xlink="http://www.w3.org/1999/xlink"
     width="512" height="512" viewBox="0 0 512 512">
<defs>
</defs>
<rect x="0" y="471" width="259" height="41" stroke="black" fill="red" fill-opacity="0.1" />
<rect x="0" y="430" width="259" height="41" stroke="black" fill="red" fill-opacity="0.1" />
<rect x="0" y="389" width="259" height="41" stroke="black" fill="red" fill-opacity="0.1" />
<rect x="259" y="476" width="47" height="36" stroke="black" fill="red" fill-opacity="0.1" />
<rect x="306" y="476" width="47" height="36" stroke="black" fill="red" fill-opacity="0.1" />
<rect x="353" y="480" width="84" height="32" stroke="black" fill="red" fill-opacity="0.1" />
<rect x="437" y="485" width="30" height="27" stroke="black" fill="red" fill-opacity="0.1" />
<rect x="467" y="485" width="30" height="27" stroke="black" fill="red" fill-opacity="0.1" />
<rect x="259" y="444" width="30" height="27" stroke="black" fill="red" fill-opacity="0.1" />
<rect x="289" y="444" width="30" height="27" stroke="black" fill="red" fill-opacity="0.1" />
<rect x="319" y="444" width="30" height="27" stroke="black" fill="red" fill-opacity="0.1" />
<rect x="349" y="444" width="30" height="27" stroke="black" fill="red" fill-opacity="0.1" />
<rect x="379" y="444" width="30" height="27" stroke="black" fill="red" fill-opacity="0.1" />
<rect x="0" y="365" width="350" height="24" stroke="black" fill="red" fill-opacity="0.1" />
<rect x="0" y="341" width="350" height="24" stroke="black" fill="red" fill-opacity="0.1" />
<rect x="0" y="317" width="350" height="24" stroke="black" fill="red" fill-opacity="0.1" />
<rect x="0" y="293" width="350" height="24" stroke="black" fill="red" fill-opacity="0.1" />
<rect x="0" y="269" width="350" height="24" stroke="black" fill="red" fill-opacity="0.1" />
<rect x="0" y="245" width="350" height="24" stroke="black" fill="red" fill-opacity="0.1" />
<rect x="0" y="221" width="350" height="24" stroke="black" fill="red" fill-opacity="0.1" />
<rect x="0" y="197" width="350" height="24" stroke="black" fill="red" fill-opacity="0.1" />
<rect x="0" y="173" width="350" height="24" stroke="black" fill="red" fill-opacity="0.1" />
<rect x="0" y="149" width="316" height="24" stroke="black" fill="red" fill-opacity="0.1" />
<rect x="0" y="125" width="316" height="24" stroke="black" fill="red" fill-opacity="0.1" />
<rect x="0" y="101" width="316" height="24" stroke="black" fill="red" fill-opacity="0.1" />
<rect x="259" y="406" width="212" height="24" stroke="black" fill="red" fill-opacity="0.1" />
<rect x="431" y="453" width="50" height="18" stroke="black" fill="red" fill-opacity="0.1" />
<rect x="350" y="371" width="50" height="18" stroke="black" fill="red" fill-opacity="0.1" />
<rect x="400" y="371" width="50" height="18" stroke="black" fill="red" fill-opacity="0.1" />
<rect x="481" y="453" width="18" height="18" stroke="black" fill="red" fill-opacity="0.1" />
<rect x="471" y="412" width="18" height="18" stroke="black" fill="red" fill-opacity="0.1" />
<rect x="489" y="412" width="18" height="18" stroke="black" fill="red" fill-opacity="0.1" />
<rect x="450" y="371" width="18" height="18" stroke="black" fill="red" fill-opacity="0.1" />
<rect x="350" y="362" width="50" height="3" stroke="black" fill="red" fill-opacity="0.1" />
<rect x="400" y="362" width="50" height="3" stroke="black" fill="red" fill-opacity="0.1" />
<rect x="450" y="362" width="50" height="3" stroke="black" fill="red" fill-opacity="0.1" />
<rect x="259" y="474" width="218" height="2" stroke="black" fill="red" fill-opacity="0.1" />
</svg>