<?xml version="1.0" encoding="UTF-8"?>
<svg xmlns="http://www.w3.org/2000/svg" xmlns:xlink="http://www.w3.org/1999/xlink"
     width="512" height="512" viewBox="0 0 512 512">
<defs>
</defs>
<rect x="0" y="452" width="292" height="60" stroke="black" fill="red" fill-opacity="0.1" id="0">
<title>sprite_531</title>
</rect>
<rect x="0" y="422" width="290" height="30" stroke="black" fill="red" fill-opacity="0.1" id="1">
<title>sprite_532</title>
</rect>
<rect x="0" y="392" width="290" height="30" stroke="black" fill="red" fill-opacity="0.1" id="2">
<title>sprite_533</title>
</rect>
<rect x="292" y="482" width="204" height="30" stroke="black" fill="red" fill-opacity="0.1" id="3">
<title>sprite_534</title>
</rect>
<rect x="290" y="422" width="200" height="30" stroke="black" fill="red" fill-opacity="0.1" id="4">
<title>sprite_535</title>
</rect>
<rect x="290" y="392" width="200" height="30" stroke="black" fill="red" fill-opacity="0.1" id="5">
<title>sprite_536</title>
</rect>
<rect x="292" y="452" width="198" height="30" stroke="black" fill="red" fill-opacity="0.1" id="6">
<title>sprite_537</title>
</rect>
<rect x="0" y="362" width="198" height="30" stroke="black" fill="red" fill-opacity="0.1" id="7">
<title>sprite_538</title>
</rect>
<rect x="198" y="362" width="142" height="30" stroke="black" fill="red" fill-opacity="0.1" id="8">
<title>sprite_539</title>
</rect>
<rect x="340" y="362" width="138" height="30" stroke="black" fill="red" fill-opacity="0.1" id="9">
<title>sprite_540</title>
</rect>
<rect x="0" y="332" width="133" height="30" stroke="black" fill="red" fill-opacity="0.1" id="10">
<title>sprite_541</title>
</rect>
<rect x="133" y="332" width="129" height="30" stroke="black" fill="red" fill-opacity="0.1" id="11">
<title>sprite_542</title>
</rect>
<rect x="262" y="332" width="91" height="30" stroke="black" fill="red" fill-opacity="0.1" id="12">
<title>sprite_543</title>
</rect>
<rect x="353" y="332" width="88" height="30" stroke="black" fill="red" fill-opacity="0.1" id="13">
<title>sprite_544</title>
</rect>
<rect x="0" y="302" width="83" height="30" stroke="black" fill="red" fill-opacity="0.1" id="14">
<title>sprite_545</title>
</rect>
<rect x="83" y="304" width="268" height="28" stroke="black" fill="red" fill-opacity="0.1" id="15">
<title>sprite_546</title>
</rect>
<rect x="0" y="274" width="268" height="28" stroke="black" fill="red" fill-opacity="0.1" id="16">
<title>sprite_547</title>
</rect>
<rect x="268" y="285" width="236" height="17" stroke="black" fill="red" fill-opacity="0.1" id="17">
<title>sprite_548</title>
</rect>
<rect x="0" y="257" width="236" height="17" stroke="black" fill="red" fill-opacity="0.1" id="18">
<title>sprite_549</title>
</rect>
<rect x="236" y="257" width="236" height="17" stroke="black" fill="red" fill-opacity="0.1" id="19">
<title>sprite_550</title>
</rect>
<rect x="0" y="240" width="236" height="17" stroke="black" fill="red" fill-opacity="0.1" id="20">
<title>sprite_551</title>
</rect>
<rect x="236" y="240" width="236" height="17" stroke="black" fill="red" fill-opacity="0.1" id="21">
<title>sprite_552</title>
</rect>
<rect x="0" y="223" width="236" height="17" stroke="black" fill="red" fill-opacity="0.1" id="22">
<title>sprite_553</title>
</rect>
<rect x="236" y="223" width="236" height="17" stroke="black" fill="red" fill-opacity="0.1" id="23">
<title>sprite_554</title>
</rect>
</svg>