<?xml version="1.0" encoding="UTF-8"?>
<svg xmlns="http://www.w3.org/2000/svg" xmlns:xlink="http://www.w3.org/1999/xlink"
     width="512" height="256" viewBox="0 0 512 256">
<defs>
</defs>
<rect x="0" y="222" width="351" height="34" stroke="black" fill="red" fill-opacity="0.1" />
<rect x="0" y="200" width="245" height="22" stroke="black" fill="red" fill-opacity="0.1" />
<rect x="245" y="200" width="245" height="22" stroke="black" fill="red" fill-opacity="0.1" />
<rect x="0" y="178" width="245" height="22" stroke="black" fill="red" fill-opacity="0.1" />
<rect x="245" y="178" width="245" height="22" stroke="black" fill="red" fill-opacity="0.1" />
<rect x="0" y="156" width="245" height="22" stroke="black" fill="red" fill-opacity="0.1" />
<rect x="245" y="156" width="245" height="22" stroke="black" fill="red" fill-opacity="0.1" />
<rect x="0" y="134" width="245" height="22" stroke="black" fill="red" fill-opacity="0.1" />
<rect x="245" y="134" width="245" height="22" stroke="black" fill="red" fill-opacity="0.1" />
<rect x="0" y="112" width="245" height="22" stroke="black" fill="red" fill-opacity="0.1" />
<rect x="245" y="112" width="245" height="22" stroke="black" fill="red" fill-opacity="0.1" />
<rect x="0" y="90" width="245" height="22" stroke="black" fill="red" fill-opacity="0.1" />
<rect x="245" y="90" width="245" height="22" stroke="black" fill="red" fill-opacity="0.1" />
<rect x="0" y="68" width="245" height="22" stroke="black" fill="red" fill-opacity="0.1" />
<rect x="245" y="68" width="245" height="22" stroke="black" fill="red" fill-opacity="0.1" />
<rect x="0" y="46" width="245" height="22" stroke="black" fill="red" fill-opacity="0.1" />
<rect x="0" y="44" width="395" height="2" stroke="black" fill="red" fill-opacity="0.1" />
</svg>