<?xml version="1.0" encoding="UTF-8"?>
<svg xmlns="http://www.w3.org/2000/svg" xmlns:xlink="http://www.w3.org/1999/xlink"
     width="512" height="128" viewBox="0 0 512 128">
<defs>
</defs>
<rect x="0" y="108" width="47" height="20" stroke="black" fill="red" fill-opacity="0.1" id="0">
<title>sprite_1250</title>
</rect>
<rect x="47" y="108" width="47" height="20" stroke="black" fill="red" fill-opacity="0.1" id="1">
<title>sprite_1251</title>
</rect>
<rect x="94" y="108" width="47" height="20" stroke="black" fill="red" fill-opacity="0.1" id="2">
<title>sprite_1252</title>
</rect>
<rect x="141" y="108" width="47" height="20" stroke="black" fill="red" fill-opacity="0.1" id="3">
<title>sprite_1253</title>
</rect>
<rect x="188" y="108" width="47" height="20" stroke="black" fill="red" fill-opacity="0.1" id="4">
<title>sprite_1254</title>
</rect>
<rect x="235" y="108" width="47" height="20" stroke="black" fill="red" fill-opacity="0.1" id="5">
<title>sprite_1255</title>
</rect>
<rect x="282" y="108" width="47" height="20" stroke="black" fill="red" fill-opacity="0.1" id="6">
<title>sprite_1256</title>
</rect>
<rect x="329" y="108" width="47" height="20" stroke="black" fill="red" fill-opacity="0.1" id="7">
<title>sprite_1257</title>
</rect>
<rect x="376" y="108" width="47" height="20" stroke="black" fill="red" fill-opacity="0.1" id="8">
<title>sprite_1258</title>
</rect>
<rect x="423" y="108" width="47" height="20" stroke="black" fill="red" fill-opacity="0.1" id="9">
<title>sprite_1259</title>
</rect>
<rect x="0" y="88" width="47" height="20" stroke="black" fill="red" fill-opacity="0.1" id="10">
<title>sprite_1260</title>
</rect>
<rect x="47" y="88" width="47" height="20" stroke="black" fill="red" fill-opacity="0.1" id="11">
<title>sprite_1261</title>
</rect>
<rect x="94" y="88" width="47" height="20" stroke="black" fill="red" fill-opacity="0.1" id="12">
<title>sprite_1262</title>
</rect>
<rect x="141" y="88" width="47" height="20" stroke="black" fill="red" fill-opacity="0.1" id="13">
<title>sprite_1263</title>
</rect>
<rect x="188" y="88" width="47" height="20" stroke="black" fill="red" fill-opacity="0.1" id="14">
<title>sprite_1264</title>
</rect>
<rect x="235" y="88" width="47" height="20" stroke="black" fill="red" fill-opacity="0.1" id="15">
<title>sprite_1265</title>
</rect>
<rect x="282" y="88" width="47" height="20" stroke="black" fill="red" fill-opacity="0.1" id="16">
<title>sprite_1266</title>
</rect>
<rect x="329" y="88" width="47" height="20" stroke="black" fill="red" fill-opacity="0.1" id="17">
<title>sprite_1267</title>
</rect>
<rect x="376" y="88" width="47" height="20" stroke="black" fill="red" fill-opacity="0.1" id="18">
<title>sprite_1268</title>
</rect>
<rect x="423" y="88" width="47" height="20" stroke="black" fill="red" fill-opacity="0.1" id="19">
<title>sprite_1269</title>
</rect>
<rect x="0" y="68" width="47" height="20" stroke="black" fill="red" fill-opacity="0.1" id="20">
<title>sprite_1270</title>
</rect>
<rect x="47" y="68" width="47" height="20" stroke="black" fill="red" fill-opacity="0.1" id="21">
<title>sprite_1271</title>
</rect>
<rect x="94" y="68" width="47" height="20" stroke="black" fill="red" fill-opacity="0.1" id="22">
<title>sprite_1272</title>
</rect>
<rect x="141" y="68" width="47" height="20" stroke="black" fill="red" fill-opacity="0.1" id="23">
<title>sprite_1273</title>
</rect>
<rect x="188" y="68" width="47" height="20" stroke="black" fill="red" fill-opacity="0.1" id="24">
<title>sprite_1274</title>
</rect>
<rect x="235" y="68" width="47" height="20" stroke="black" fill="red" fill-opacity="0.1" id="25">
<title>sprite_1275</title>
</rect>
<rect x="282" y="68" width="47" height="20" stroke="black" fill="red" fill-opacity="0.1" id="26">
<title>sprite_1276</title>
</rect>
<rect x="329" y="68" width="47" height="20" stroke="black" fill="red" fill-opacity="0.1" id="27">
<title>sprite_1277</title>
</rect>
<rect x="376" y="68" width="47" height="20" stroke="black" fill="red" fill-opacity="0.1" id="28">
<title>sprite_1278</title>
</rect>
<rect x="423" y="68" width="47" height="20" stroke="black" fill="red" fill-opacity="0.1" id="29">
<title>sprite_1279</title>
</rect>
<rect x="0" y="48" width="47" height="20" stroke="black" fill="red" fill-opacity="0.1" id="30">
<title>sprite_1280</title>
</rect>
<rect x="47" y="48" width="47" height="20" stroke="black" fill="red" fill-opacity="0.1" id="31">
<title>sprite_1281</title>
</rect>
<rect x="94" y="48" width="47" height="20" stroke="black" fill="red" fill-opacity="0.1" id="32">
<title>sprite_1282</title>
</rect>
<rect x="141" y="48" width="47" height="20" stroke="black" fill="red" fill-opacity="0.1" id="33">
<title>sprite_1283</title>
</rect>
<rect x="188" y="48" width="47" height="20" stroke="black" fill="red" fill-opacity="0.1" id="34">
<title>sprite_1284</title>
</rect>
<rect x="235" y="48" width="47" height="20" stroke="black" fill="red" fill-opacity="0.1" id="35">
<title>sprite_1285</title>
</rect>
<rect x="282" y="48" width="47" height="20" stroke="black" fill="red" fill-opacity="0.1" id="36">
<title>sprite_1286</title>
</rect>
<rect x="329" y="48" width="47" height="20" stroke="black" fill="red" fill-opacity="0.1" id="37">
<title>sprite_1287</title>
</rect>
<rect x="376" y="48" width="47" height="20" stroke="black" fill="red" fill-opacity="0.1" id="38">
<title>sprite_1288</title>
</rect>
<rect x="423" y="48" width="47" height="20" stroke="black" fill="red" fill-opacity="0.1" id="39">
<title>sprite_1289</title>
</rect>
<rect x="0" y="28" width="47" height="20" stroke="black" fill="red" fill-opacity="0.1" id="40">
<title>sprite_1290</title>
</rect>
<rect x="47" y="28" width="47" height="20" stroke="black" fill="red" fill-opacity="0.1" id="41">
<title>sprite_1291</title>
</rect>
<rect x="94" y="28" width="47" height="20" stroke="black" fill="red" fill-opacity="0.1" id="42">
<title>sprite_1292</title>
</rect>
<rect x="141" y="28" width="47" height="20" stroke="black" fill="red" fill-opacity="0.1" id="43">
<title>sprite_1293</title>
</rect>
<rect x="188" y="28" width="47" height="20" stroke="black" fill="red" fill-opacity="0.1" id="44">
<title>sprite_1294</title>
</rect>
<rect x="235" y="28" width="47" height="20" stroke="black" fill="red" fill-opacity="0.1" id="45">
<title>sprite_1295</title>
</rect>
<rect x="282" y="28" width="47" height="20" stroke="black" fill="red" fill-opacity="0.1" id="46">
<title>sprite_1296</title>
</rect>
<rect x="329" y="28" width="47" height="20" stroke="black" fill="red" fill-opacity="0.1" id="47">
<title>sprite_1297</title>
</rect>
<rect x="376" y="28" width="47" height="20" stroke="black" fill="red" fill-opacity="0.1" id="48">
<title>sprite_1298</title>
</rect>
<rect x="423" y="28" width="47" height="20" stroke="black" fill="red" fill-opacity="0.1" id="49">
<title>sprite_1299</title>
</rect>
<rect x="0" y="8" width="47" height="20" stroke="black" fill="red" fill-opacity="0.1" id="50">
<title>sprite_1300</title>
</rect>
<rect x="47" y="8" width="47" height="20" stroke="black" fill="red" fill-opacity="0.1" id="51">
<title>sprite_1301</title>
</rect>
<rect x="94" y="8" width="47" height="20" stroke="black" fill="red" fill-opacity="0.1" id="52">
<title>sprite_1302</title>
</rect>
<rect x="141" y="8" width="47" height="20" stroke="black" fill="red" fill-opacity="0.1" id="53">
<title>sprite_1303</title>
</rect>
<rect x="188" y="8" width="47" height="20" stroke="black" fill="red" fill-opacity="0.1" id="54">
<title>sprite_1304</title>
</rect>
<rect x="235" y="8" width="47" height="20" stroke="black" fill="red" fill-opacity="0.1" id="55">
<title>sprite_1305</title>
</rect>
<rect x="282" y="8" width="47" height="20" stroke="black" fill="red" fill-opacity="0.1" id="56">
<title>sprite_1306</title>
</rect>
<rect x="329" y="8" width="47" height="20" stroke="black" fill="red" fill-opacity="0.1" id="57">
<title>sprite_1307</title>
</rect>
<rect x="376" y="8" width="47" height="20" stroke="black" fill="red" fill-opacity="0.1" id="58">
<title>sprite_1308</title>
</rect>
</svg>