<?xml version="1.0" encoding="UTF-8"?>
<svg xmlns="http://www.w3.org/2000/svg" xmlns:xlink="http://www.w3.org/1999/xlink"
     width="1024" height="128" viewBox="0 0 1024 128">
<defs>
</defs>
<rect x="0" y="77" width="181" height="51" stroke="black" fill="red" fill-opacity="0.1" />
<rect x="181" y="87" width="191" height="41" stroke="black" fill="red" fill-opacity="0.1" />
<rect x="372" y="87" width="74" height="41" stroke="black" fill="red" fill-opacity="0.1" />
<rect x="446" y="88" width="150" height="40" stroke="black" fill="red" fill-opacity="0.1" />
<rect x="596" y="88" width="123" height="40" stroke="black" fill="red" fill-opacity="0.1" />
<rect x="719" y="93" width="275" height="35" stroke="black" fill="red" fill-opacity="0.1" />
<rect x="0" y="42" width="121" height="35" stroke="black" fill="red" fill-opacity="0.1" />
<rect x="121" y="43" width="482" height="34" stroke="black" fill="red" fill-opacity="0.1" />
<rect x="603" y="43" width="212" height="34" stroke="black" fill="red" fill-opacity="0.1" />
<rect x="815" y="43" width="193" height="34" stroke="black" fill="red" fill-opacity="0.1" />
<rect x="0" y="8" width="113" height="34" stroke="black" fill="red" fill-opacity="0.1" />
<rect x="113" y="11" width="186" height="31" stroke="black" fill="red" fill-opacity="0.1" />
<rect x="299" y="14" width="163" height="28" stroke="black" fill="red" fill-opacity="0.1" />
<rect x="462" y="15" width="133" height="27" stroke="black" fill="red" fill-opacity="0.1" />
<rect x="595" y="17" width="116" height="25" stroke="black" fill="red" fill-opacity="0.1" />
</svg>