<?xml version="1.0" encoding="UTF-8"?>
<svg xmlns="http://www.w3.org/2000/svg" xmlns:xlink="http://www.w3.org/1999/xlink"
     width="512" height="512" viewBox="0 0 512 512">
<defs>
</defs>
<rect x="0" y="417" width="3" height="95" stroke="black" fill="red" fill-opacity="0.1" />
<rect x="3" y="437" width="68" height="75" stroke="black" fill="red" fill-opacity="0.1" />
<rect x="71" y="465" width="49" height="47" stroke="black" fill="red" fill-opacity="0.1" />
<rect x="120" y="465" width="49" height="47" stroke="black" fill="red" fill-opacity="0.1" />
<rect x="169" y="465" width="49" height="47" stroke="black" fill="red" fill-opacity="0.1" />
<rect x="218" y="465" width="49" height="47" stroke="black" fill="red" fill-opacity="0.1" />
<rect x="267" y="465" width="49" height="47" stroke="black" fill="red" fill-opacity="0.1" />
<rect x="316" y="465" width="49" height="47" stroke="black" fill="red" fill-opacity="0.1" />
<rect x="365" y="465" width="49" height="47" stroke="black" fill="red" fill-opacity="0.1" />
<rect x="414" y="465" width="49" height="47" stroke="black" fill="red" fill-opacity="0.1" />
<rect x="463" y="465" width="49" height="47" stroke="black" fill="red" fill-opacity="0.1" />
<rect x="0" y="370" width="49" height="47" stroke="black" fill="red" fill-opacity="0.1" />
<rect x="49" y="370" width="49" height="47" stroke="black" fill="red" fill-opacity="0.1" />
<rect x="98" y="370" width="49" height="47" stroke="black" fill="red" fill-opacity="0.1" />
<rect x="0" y="327" width="445" height="43" stroke="black" fill="red" fill-opacity="0.1" />
<rect x="0" y="284" width="440" height="43" stroke="black" fill="red" fill-opacity="0.1" />
<rect x="0" y="241" width="440" height="43" stroke="black" fill="red" fill-opacity="0.1" />
<rect x="147" y="374" width="273" height="43" stroke="black" fill="red" fill-opacity="0.1" />
<rect x="445" y="340" width="37" height="30" stroke="black" fill="red" fill-opacity="0.1" />
<rect x="440" y="297" width="37" height="30" stroke="black" fill="red" fill-opacity="0.1" />
<rect x="440" y="254" width="37" height="30" stroke="black" fill="red" fill-opacity="0.1" />
<rect x="482" y="343" width="20" height="27" stroke="black" fill="red" fill-opacity="0.1" />
<rect x="0" y="216" width="319" height="25" stroke="black" fill="red" fill-opacity="0.1" />
<rect x="319" y="216" width="36" height="25" stroke="black" fill="red" fill-opacity="0.1" />
<rect x="477" y="302" width="33" height="25" stroke="black" fill="red" fill-opacity="0.1" />
<rect x="0" y="193" width="353" height="23" stroke="black" fill="red" fill-opacity="0.1" />
<rect x="0" y="170" width="353" height="23" stroke="black" fill="red" fill-opacity="0.1" />
<rect x="0" y="147" width="353" height="23" stroke="black" fill="red" fill-opacity="0.1" />
<rect x="0" y="124" width="353" height="23" stroke="black" fill="red" fill-opacity="0.1" />
<rect x="0" y="101" width="270" height="23" stroke="black" fill="red" fill-opacity="0.1" />
<rect x="270" y="101" width="182" height="23" stroke="black" fill="red" fill-opacity="0.1" />
<rect x="353" y="194" width="31" height="22" stroke="black" fill="red" fill-opacity="0.1" />
<rect x="384" y="194" width="31" height="22" stroke="black" fill="red" fill-opacity="0.1" />
<rect x="415" y="194" width="31" height="22" stroke="black" fill="red" fill-opacity="0.1" />
<rect x="446" y="194" width="31" height="22" stroke="black" fill="red" fill-opacity="0.1" />
<rect x="477" y="194" width="31" height="22" stroke="black" fill="red" fill-opacity="0.1" />
<rect x="353" y="171" width="31" height="22" stroke="black" fill="red" fill-opacity="0.1" />
<rect x="384" y="171" width="31" height="22" stroke="black" fill="red" fill-opacity="0.1" />
<rect x="415" y="171" width="31" height="22" stroke="black" fill="red" fill-opacity="0.1" />
<rect x="446" y="171" width="31" height="22" stroke="black" fill="red" fill-opacity="0.1" />
<rect x="477" y="171" width="31" height="22" stroke="black" fill="red" fill-opacity="0.1" />
<rect x="353" y="148" width="31" height="22" stroke="black" fill="red" fill-opacity="0.1" />
<rect x="384" y="148" width="31" height="22" stroke="black" fill="red" fill-opacity="0.1" />
<rect x="0" y="81" width="160" height="20" stroke="black" fill="red" fill-opacity="0.1" />
<rect x="353" y="127" width="107" height="20" stroke="black" fill="red" fill-opacity="0.1" />
<rect x="415" y="150" width="19" height="20" stroke="black" fill="red" fill-opacity="0.1" />
<rect x="160" y="84" width="236" height="17" stroke="black" fill="red" fill-opacity="0.1" />
<rect x="0" y="65" width="179" height="16" stroke="black" fill="red" fill-opacity="0.1" />
<rect x="179" y="65" width="179" height="16" stroke="black" fill="red" fill-opacity="0.1" />
<rect x="0" y="49" width="179" height="16" stroke="black" fill="red" fill-opacity="0.1" />
<rect x="179" y="49" width="179" height="16" stroke="black" fill="red" fill-opacity="0.1" />
<rect x="0" y="33" width="179" height="16" stroke="black" fill="red" fill-opacity="0.1" />
<rect x="179" y="33" width="179" height="16" stroke="black" fill="red" fill-opacity="0.1" />
<rect x="0" y="17" width="166" height="16" stroke="black" fill="red" fill-opacity="0.1" />
<rect x="434" y="155" width="27" height="15" stroke="black" fill="red" fill-opacity="0.1" />
<rect x="166" y="19" width="316" height="14" stroke="black" fill="red" fill-opacity="0.1" />
<rect x="0" y="3" width="316" height="14" stroke="black" fill="red" fill-opacity="0.1" />
<rect x="461" y="161" width="13" height="9" stroke="black" fill="red" fill-opacity="0.1" />
<rect x="502" y="361" width="9" height="9" stroke="black" fill="red" fill-opacity="0.1" />
<rect x="316" y="14" width="95" height="3" stroke="black" fill="red" fill-opacity="0.1" />
</svg>