<?xml version="1.0" encoding="UTF-8"?>
<svg xmlns="http://www.w3.org/2000/svg" xmlns:xlink="http://www.w3.org/1999/xlink"
     width="512" height="512" viewBox="0 0 512 512">
<defs>
</defs>
<rect x="0" y="477" width="292" height="35" stroke="black" fill="red" fill-opacity="0.1" />
<rect x="0" y="449" width="268" height="28" stroke="black" fill="red" fill-opacity="0.1" />
<rect x="0" y="421" width="268" height="28" stroke="black" fill="red" fill-opacity="0.1" />
<rect x="0" y="393" width="268" height="28" stroke="black" fill="red" fill-opacity="0.1" />
<rect x="0" y="365" width="268" height="28" stroke="black" fill="red" fill-opacity="0.1" />
<rect x="0" y="337" width="268" height="28" stroke="black" fill="red" fill-opacity="0.1" />
<rect x="0" y="309" width="268" height="28" stroke="black" fill="red" fill-opacity="0.1" />
<rect x="0" y="281" width="268" height="28" stroke="black" fill="red" fill-opacity="0.1" />
<rect x="0" y="253" width="268" height="28" stroke="black" fill="red" fill-opacity="0.1" />
<rect x="0" y="225" width="268" height="28" stroke="black" fill="red" fill-opacity="0.1" />
<rect x="0" y="197" width="268" height="28" stroke="black" fill="red" fill-opacity="0.1" />
<rect x="0" y="169" width="268" height="28" stroke="black" fill="red" fill-opacity="0.1" />
<rect x="0" y="141" width="268" height="28" stroke="black" fill="red" fill-opacity="0.1" />
<rect x="0" y="113" width="268" height="28" stroke="black" fill="red" fill-opacity="0.1" />
<rect x="268" y="460" width="236" height="17" stroke="black" fill="red" fill-opacity="0.1" />
</svg>