<?xml version="1.0" encoding="UTF-8"?>
<svg xmlns="http://www.w3.org/2000/svg" xmlns:xlink="http://www.w3.org/1999/xlink"
     width="512" height="512" viewBox="0 0 512 512">
<defs>
</defs>
<rect x="0" y="477" width="292" height="35" stroke="black" fill="red" fill-opacity="0.1" id="0">
<title>sprite_563</title>
</rect>
<rect x="0" y="449" width="268" height="28" stroke="black" fill="red" fill-opacity="0.1" id="1">
<title>sprite_564</title>
</rect>
<rect x="0" y="421" width="268" height="28" stroke="black" fill="red" fill-opacity="0.1" id="2">
<title>sprite_565</title>
</rect>
<rect x="0" y="393" width="268" height="28" stroke="black" fill="red" fill-opacity="0.1" id="3">
<title>sprite_566</title>
</rect>
<rect x="0" y="365" width="268" height="28" stroke="black" fill="red" fill-opacity="0.1" id="4">
<title>sprite_567</title>
</rect>
<rect x="0" y="337" width="268" height="28" stroke="black" fill="red" fill-opacity="0.1" id="5">
<title>sprite_568</title>
</rect>
<rect x="0" y="309" width="268" height="28" stroke="black" fill="red" fill-opacity="0.1" id="6">
<title>sprite_569</title>
</rect>
<rect x="0" y="281" width="268" height="28" stroke="black" fill="red" fill-opacity="0.1" id="7">
<title>sprite_570</title>
</rect>
<rect x="0" y="253" width="268" height="28" stroke="black" fill="red" fill-opacity="0.1" id="8">
<title>sprite_571</title>
</rect>
<rect x="0" y="225" width="268" height="28" stroke="black" fill="red" fill-opacity="0.1" id="9">
<title>sprite_572</title>
</rect>
<rect x="0" y="197" width="268" height="28" stroke="black" fill="red" fill-opacity="0.1" id="10">
<title>sprite_573</title>
</rect>
<rect x="0" y="169" width="268" height="28" stroke="black" fill="red" fill-opacity="0.1" id="11">
<title>sprite_574</title>
</rect>
<rect x="0" y="141" width="268" height="28" stroke="black" fill="red" fill-opacity="0.1" id="12">
<title>sprite_575</title>
</rect>
<rect x="0" y="113" width="268" height="28" stroke="black" fill="red" fill-opacity="0.1" id="13">
<title>sprite_576</title>
</rect>
<rect x="268" y="458" width="239" height="19" stroke="black" fill="red" fill-opacity="0.1" id="14">
<title>sprite_577</title>
</rect>
<rect x="292" y="493" width="153" height="19" stroke="black" fill="red" fill-opacity="0.1" id="15">
<title>sprite_578</title>
</rect>
<rect x="268" y="430" width="153" height="19" stroke="black" fill="red" fill-opacity="0.1" id="16">
<title>sprite_579</title>
</rect>
<rect x="268" y="402" width="131" height="19" stroke="black" fill="red" fill-opacity="0.1" id="17">
<title>sprite_580</title>
</rect>
<rect x="399" y="402" width="101" height="19" stroke="black" fill="red" fill-opacity="0.1" id="18">
<title>sprite_581</title>
</rect>
</svg>