<?xml version="1.0" encoding="UTF-8"?>
<svg xmlns="http://www.w3.org/2000/svg" xmlns:xlink="http://www.w3.org/1999/xlink"
     width="1024" height="512" viewBox="0 0 1024 512">
<defs>
</defs>
<rect x="0" y="392" width="122" height="120" stroke="black" fill="red" fill-opacity="0.1" />
<rect x="0" y="328" width="64" height="64" stroke="black" fill="red" fill-opacity="0.1" />
<rect x="0" y="286" width="182" height="42" stroke="black" fill="red" fill-opacity="0.1" />
<rect x="0" y="248" width="210" height="38" stroke="black" fill="red" fill-opacity="0.1" />
<rect x="0" y="210" width="126" height="38" stroke="black" fill="red" fill-opacity="0.1" />
<rect x="0" y="180" width="298" height="30" stroke="black" fill="red" fill-opacity="0.1" />
<rect x="0" y="154" width="126" height="26" stroke="black" fill="red" fill-opacity="0.1" />
<rect x="0" y="132" width="328" height="22" stroke="black" fill="red" fill-opacity="0.1" />
<rect x="0" y="111" width="195" height="21" stroke="black" fill="red" fill-opacity="0.1" />
<rect x="0" y="94" width="284" height="17" stroke="black" fill="red" fill-opacity="0.1" />
<rect x="0" y="78" width="280" height="16" stroke="black" fill="red" fill-opacity="0.1" />
<rect x="0" y="62" width="279" height="16" stroke="black" fill="red" fill-opacity="0.1" />
<rect x="0" y="46" width="279" height="16" stroke="black" fill="red" fill-opacity="0.1" />
<rect x="0" y="30" width="275" height="16" stroke="black" fill="red" fill-opacity="0.1" />
<rect x="0" y="14" width="265" height="16" stroke="black" fill="red" fill-opacity="0.1" />
<rect x="0" y="0" width="300" height="14" stroke="black" fill="red" fill-opacity="0.1" />
<rect x="300" y="0" width="300" height="14" stroke="black" fill="red" fill-opacity="0.1" />
<rect x="600" y="0" width="106" height="14" stroke="black" fill="red" fill-opacity="0.1" />
<rect x="706" y="0" width="18" height="14" stroke="black" fill="red" fill-opacity="0.1" />
<rect x="724" y="0" width="14" height="14" stroke="black" fill="red" fill-opacity="0.1" />
<rect x="738" y="1" width="18" height="13" stroke="black" fill="red" fill-opacity="0.1" />
<rect x="756" y="1" width="17" height="13" stroke="black" fill="red" fill-opacity="0.1" />
<rect x="773" y="4" width="122" height="10" stroke="black" fill="red" fill-opacity="0.1" />
<rect x="895" y="4" width="14" height="10" stroke="black" fill="red" fill-opacity="0.1" />
<rect x="909" y="4" width="14" height="10" stroke="black" fill="red" fill-opacity="0.1" />
<rect x="923" y="4" width="14" height="10" stroke="black" fill="red" fill-opacity="0.1" />
<rect x="937" y="4" width="14" height="10" stroke="black" fill="red" fill-opacity="0.1" />
<rect x="951" y="4" width="14" height="10" stroke="black" fill="red" fill-opacity="0.1" />
<rect x="965" y="5" width="8" height="9" stroke="black" fill="red" fill-opacity="0.1" />
<rect x="973" y="5" width="8" height="9" stroke="black" fill="red" fill-opacity="0.1" />
<rect x="981" y="6" width="9" height="8" stroke="black" fill="red" fill-opacity="0.1" />
<rect x="990" y="6" width="9" height="8" stroke="black" fill="red" fill-opacity="0.1" />
<rect x="999" y="6" width="6" height="8" stroke="black" fill="red" fill-opacity="0.1" />
<rect x="1005" y="8" width="10" height="6" stroke="black" fill="red" fill-opacity="0.1" />
<rect x="1015" y="9" width="5" height="5" stroke="black" fill="red" fill-opacity="0.1" />
<rect x="265" y="14" width="265" height="16" stroke="black" fill="red" fill-opacity="0.1" />
<rect x="530" y="14" width="265" height="16" stroke="black" fill="red" fill-opacity="0.1" />
<rect x="795" y="14" width="166" height="16" stroke="black" fill="red" fill-opacity="0.1" />
<rect x="961" y="14" width="61" height="16" stroke="black" fill="red" fill-opacity="0.1" />
<rect x="275" y="30" width="269" height="16" stroke="black" fill="red" fill-opacity="0.1" />
<rect x="544" y="30" width="268" height="16" stroke="black" fill="red" fill-opacity="0.1" />
<rect x="812" y="30" width="166" height="16" stroke="black" fill="red" fill-opacity="0.1" />
<rect x="978" y="40" width="10" height="6" stroke="black" fill="red" fill-opacity="0.1" />
<rect x="988" y="40" width="10" height="6" stroke="black" fill="red" fill-opacity="0.1" />
<rect x="998" y="40" width="10" height="6" stroke="black" fill="red" fill-opacity="0.1" />
<rect x="1008" y="40" width="10" height="6" stroke="black" fill="red" fill-opacity="0.1" />
<rect x="279" y="46" width="279" height="16" stroke="black" fill="red" fill-opacity="0.1" />
<rect x="558" y="46" width="279" height="16" stroke="black" fill="red" fill-opacity="0.1" />
<rect x="837" y="46" width="142" height="16" stroke="black" fill="red" fill-opacity="0.1" />
<rect x="979" y="56" width="10" height="6" stroke="black" fill="red" fill-opacity="0.1" />
<rect x="989" y="56" width="10" height="6" stroke="black" fill="red" fill-opacity="0.1" />
<rect x="999" y="56" width="10" height="6" stroke="black" fill="red" fill-opacity="0.1" />
<rect x="1009" y="56" width="10" height="6" stroke="black" fill="red" fill-opacity="0.1" />
<rect x="279" y="62" width="279" height="16" stroke="black" fill="red" fill-opacity="0.1" />
<rect x="558" y="62" width="279" height="16" stroke="black" fill="red" fill-opacity="0.1" />
<rect x="837" y="62" width="61" height="16" stroke="black" fill="red" fill-opacity="0.1" />
<rect x="898" y="72" width="10" height="6" stroke="black" fill="red" fill-opacity="0.1" />
<rect x="908" y="76" width="35" height="2" stroke="black" fill="red" fill-opacity="0.1" />
<rect x="943" y="77" width="21" height="1" stroke="black" fill="red" fill-opacity="0.1" />
<rect x="280" y="78" width="279" height="16" stroke="black" fill="red" fill-opacity="0.1" />
<rect x="559" y="78" width="279" height="16" stroke="black" fill="red" fill-opacity="0.1" />
<rect x="284" y="95" width="356" height="16" stroke="black" fill="red" fill-opacity="0.1" />
<rect x="640" y="95" width="294" height="16" stroke="black" fill="red" fill-opacity="0.1" />
<rect x="195" y="112" width="30" height="20" stroke="black" fill="red" fill-opacity="0.1" />
<rect x="225" y="113" width="247" height="19" stroke="black" fill="red" fill-opacity="0.1" />
<rect x="472" y="114" width="298" height="18" stroke="black" fill="red" fill-opacity="0.1" />
<rect x="770" y="114" width="170" height="18" stroke="black" fill="red" fill-opacity="0.1" />
<rect x="940" y="114" width="82" height="18" stroke="black" fill="red" fill-opacity="0.1" />
<rect x="328" y="132" width="158" height="22" stroke="black" fill="red" fill-opacity="0.1" />
<rect x="486" y="132" width="84" height="22" stroke="black" fill="red" fill-opacity="0.1" />
<rect x="570" y="132" width="50" height="22" stroke="black" fill="red" fill-opacity="0.1" />
<rect x="620" y="133" width="368" height="21" stroke="black" fill="red" fill-opacity="0.1" />
<rect x="988" y="136" width="18" height="18" stroke="black" fill="red" fill-opacity="0.1" />
<rect x="126" y="154" width="126" height="26" stroke="black" fill="red" fill-opacity="0.1" />
<rect x="252" y="154" width="78" height="26" stroke="black" fill="red" fill-opacity="0.1" />
<rect x="330" y="154" width="72" height="26" stroke="black" fill="red" fill-opacity="0.1" />
<rect x="402" y="154" width="62" height="26" stroke="black" fill="red" fill-opacity="0.1" />
<rect x="464" y="154" width="30" height="26" stroke="black" fill="red" fill-opacity="0.1" />
<rect x="494" y="154" width="30" height="26" stroke="black" fill="red" fill-opacity="0.1" />
<rect x="524" y="154" width="30" height="26" stroke="black" fill="red" fill-opacity="0.1" />
<rect x="554" y="154" width="30" height="26" stroke="black" fill="red" fill-opacity="0.1" />
<rect x="584" y="157" width="250" height="23" stroke="black" fill="red" fill-opacity="0.1" />
<rect x="834" y="157" width="48" height="23" stroke="black" fill="red" fill-opacity="0.1" />
<rect x="298" y="180" width="31" height="30" stroke="black" fill="red" fill-opacity="0.1" />
<rect x="329" y="184" width="194" height="26" stroke="black" fill="red" fill-opacity="0.1" />
<rect x="523" y="184" width="194" height="26" stroke="black" fill="red" fill-opacity="0.1" />
<rect x="717" y="184" width="194" height="26" stroke="black" fill="red" fill-opacity="0.1" />
<rect x="126" y="210" width="126" height="38" stroke="black" fill="red" fill-opacity="0.1" />
<rect x="252" y="210" width="126" height="38" stroke="black" fill="red" fill-opacity="0.1" />
<rect x="378" y="210" width="126" height="38" stroke="black" fill="red" fill-opacity="0.1" />
<rect x="504" y="210" width="70" height="38" stroke="black" fill="red" fill-opacity="0.1" />
<rect x="574" y="210" width="70" height="38" stroke="black" fill="red" fill-opacity="0.1" />
<rect x="644" y="211" width="99" height="37" stroke="black" fill="red" fill-opacity="0.1" />
<rect x="743" y="212" width="36" height="36" stroke="black" fill="red" fill-opacity="0.1" />
<rect x="779" y="214" width="126" height="34" stroke="black" fill="red" fill-opacity="0.1" />
<rect x="905" y="216" width="100" height="32" stroke="black" fill="red" fill-opacity="0.1" />
<rect x="210" y="248" width="126" height="38" stroke="black" fill="red" fill-opacity="0.1" />
<rect x="336" y="248" width="126" height="38" stroke="black" fill="red" fill-opacity="0.1" />
<rect x="462" y="248" width="126" height="38" stroke="black" fill="red" fill-opacity="0.1" />
<rect x="588" y="248" width="126" height="38" stroke="black" fill="red" fill-opacity="0.1" />
<rect x="714" y="248" width="126" height="38" stroke="black" fill="red" fill-opacity="0.1" />
<rect x="840" y="248" width="126" height="38" stroke="black" fill="red" fill-opacity="0.1" />
<rect x="182" y="286" width="182" height="42" stroke="black" fill="red" fill-opacity="0.1" />
<rect x="364" y="286" width="182" height="42" stroke="black" fill="red" fill-opacity="0.1" />
<rect x="546" y="286" width="182" height="42" stroke="black" fill="red" fill-opacity="0.1" />
<rect x="728" y="286" width="42" height="42" stroke="black" fill="red" fill-opacity="0.1" />
<rect x="770" y="289" width="39" height="39" stroke="black" fill="red" fill-opacity="0.1" />
<rect x="809" y="290" width="210" height="38" stroke="black" fill="red" fill-opacity="0.1" />
<rect x="64" y="328" width="64" height="64" stroke="black" fill="red" fill-opacity="0.1" />
<rect x="128" y="328" width="64" height="64" stroke="black" fill="red" fill-opacity="0.1" />
<rect x="192" y="330" width="126" height="62" stroke="black" fill="red" fill-opacity="0.1" />
<rect x="318" y="330" width="126" height="62" stroke="black" fill="red" fill-opacity="0.1" />
<rect x="444" y="342" width="62" height="50" stroke="black" fill="red" fill-opacity="0.1" />
<rect x="506" y="342" width="62" height="50" stroke="black" fill="red" fill-opacity="0.1" />
<rect x="568" y="343" width="79" height="49" stroke="black" fill="red" fill-opacity="0.1" />
<rect x="647" y="346" width="77" height="46" stroke="black" fill="red" fill-opacity="0.1" />
<rect x="647" y="330" width="260" height="16" stroke="black" fill="red" fill-opacity="0.1" />
<rect x="724" y="350" width="182" height="42" stroke="black" fill="red" fill-opacity="0.1" />
<rect x="122" y="418" width="126" height="94" stroke="black" fill="red" fill-opacity="0.1" />
<rect x="248" y="418" width="126" height="94" stroke="black" fill="red" fill-opacity="0.1" />
<rect x="374" y="423" width="327" height="89" stroke="black" fill="red" fill-opacity="0.1" />
<rect x="701" y="435" width="100" height="77" stroke="black" fill="red" fill-opacity="0.1" />
<rect x="801" y="435" width="99" height="77" stroke="black" fill="red" fill-opacity="0.1" />
<rect x="900" y="448" width="64" height="64" stroke="black" fill="red" fill-opacity="0.1" />
</svg>