<?xml version="1.0" encoding="UTF-8"?>
<svg xmlns="http://www.w3.org/2000/svg" xmlns:xlink="http://www.w3.org/1999/xlink"
     width="512" height="512" viewBox="0 0 512 512">
<defs>
</defs>
<rect x="0" y="448" width="64" height="64" stroke="black" fill="red" fill-opacity="0.1" id="0">
<title>sprite_165</title>
</rect>
<rect x="0" y="384" width="64" height="64" stroke="black" fill="red" fill-opacity="0.1" id="1">
<title>sprite_166</title>
</rect>
<rect x="0" y="334" width="70" height="50" stroke="black" fill="red" fill-opacity="0.1" id="2">
<title>sprite_167</title>
</rect>
<rect x="0" y="292" width="42" height="42" stroke="black" fill="red" fill-opacity="0.1" id="3">
<title>sprite_168</title>
</rect>
<rect x="0" y="254" width="126" height="38" stroke="black" fill="red" fill-opacity="0.1" id="4">
<title>sprite_169</title>
</rect>
<rect x="0" y="216" width="126" height="38" stroke="black" fill="red" fill-opacity="0.1" id="5">
<title>sprite_170</title>
</rect>
<rect x="0" y="178" width="126" height="38" stroke="black" fill="red" fill-opacity="0.1" id="6">
<title>sprite_171</title>
</rect>
<rect x="0" y="140" width="126" height="38" stroke="black" fill="red" fill-opacity="0.1" id="7">
<title>sprite_172</title>
</rect>
<rect x="0" y="102" width="126" height="38" stroke="black" fill="red" fill-opacity="0.1" id="8">
<title>sprite_173</title>
</rect>
<rect x="0" y="83" width="47" height="19" stroke="black" fill="red" fill-opacity="0.1" id="9">
<title>sprite_174</title>
</rect>
<rect x="0" y="67" width="149" height="16" stroke="black" fill="red" fill-opacity="0.1" id="10">
<title>sprite_175</title>
</rect>
<rect x="0" y="51" width="149" height="16" stroke="black" fill="red" fill-opacity="0.1" id="11">
<title>sprite_176</title>
</rect>
<rect x="0" y="37" width="325" height="14" stroke="black" fill="red" fill-opacity="0.1" id="12">
<title>sprite_177</title>
</rect>
<rect x="325" y="37" width="14" height="14" stroke="black" fill="red" fill-opacity="0.1" id="13">
<title>sprite_178</title>
</rect>
<rect x="339" y="39" width="85" height="12" stroke="black" fill="red" fill-opacity="0.1" id="14">
<title>sprite_179</title>
</rect>
<rect x="424" y="43" width="6" height="8" stroke="black" fill="red" fill-opacity="0.1" id="15">
<title>sprite_180</title>
</rect>
<rect x="0" y="23" width="325" height="14" stroke="black" fill="red" fill-opacity="0.1" id="16">
<title>sprite_181</title>
</rect>
<rect x="325" y="27" width="126" height="10" stroke="black" fill="red" fill-opacity="0.1" id="17">
<title>sprite_182</title>
</rect>
<rect x="0" y="9" width="272" height="14" stroke="black" fill="red" fill-opacity="0.1" id="18">
<title>sprite_183</title>
</rect>
<rect x="149" y="51" width="149" height="16" stroke="black" fill="red" fill-opacity="0.1" id="19">
<title>sprite_184</title>
</rect>
<rect x="298" y="51" width="149" height="16" stroke="black" fill="red" fill-opacity="0.1" id="20">
<title>sprite_185</title>
</rect>
<rect x="149" y="67" width="149" height="16" stroke="black" fill="red" fill-opacity="0.1" id="21">
<title>sprite_186</title>
</rect>
<rect x="298" y="67" width="149" height="16" stroke="black" fill="red" fill-opacity="0.1" id="22">
<title>sprite_187</title>
</rect>
<rect x="47" y="84" width="50" height="18" stroke="black" fill="red" fill-opacity="0.1" id="23">
<title>sprite_188</title>
</rect>
<rect x="97" y="86" width="180" height="16" stroke="black" fill="red" fill-opacity="0.1" id="24">
<title>sprite_189</title>
</rect>
<rect x="277" y="86" width="149" height="16" stroke="black" fill="red" fill-opacity="0.1" id="25">
<title>sprite_190</title>
</rect>
<rect x="126" y="102" width="42" height="38" stroke="black" fill="red" fill-opacity="0.1" id="26">
<title>sprite_191</title>
</rect>
<rect x="168" y="102" width="42" height="38" stroke="black" fill="red" fill-opacity="0.1" id="27">
<title>sprite_192</title>
</rect>
<rect x="210" y="102" width="42" height="38" stroke="black" fill="red" fill-opacity="0.1" id="28">
<title>sprite_193</title>
</rect>
<rect x="252" y="108" width="149" height="32" stroke="black" fill="red" fill-opacity="0.1" id="29">
<title>sprite_194</title>
</rect>
<rect x="401" y="110" width="96" height="30" stroke="black" fill="red" fill-opacity="0.1" id="30">
<title>sprite_195</title>
</rect>
<rect x="126" y="140" width="126" height="38" stroke="black" fill="red" fill-opacity="0.1" id="31">
<title>sprite_196</title>
</rect>
<rect x="252" y="140" width="126" height="38" stroke="black" fill="red" fill-opacity="0.1" id="32">
<title>sprite_197</title>
</rect>
<rect x="378" y="140" width="126" height="38" stroke="black" fill="red" fill-opacity="0.1" id="33">
<title>sprite_198</title>
</rect>
<rect x="126" y="178" width="126" height="38" stroke="black" fill="red" fill-opacity="0.1" id="34">
<title>sprite_199</title>
</rect>
<rect x="252" y="178" width="126" height="38" stroke="black" fill="red" fill-opacity="0.1" id="35">
<title>sprite_200</title>
</rect>
<rect x="378" y="178" width="126" height="38" stroke="black" fill="red" fill-opacity="0.1" id="36">
<title>sprite_201</title>
</rect>
<rect x="126" y="216" width="126" height="38" stroke="black" fill="red" fill-opacity="0.1" id="37">
<title>sprite_202</title>
</rect>
<rect x="252" y="216" width="126" height="38" stroke="black" fill="red" fill-opacity="0.1" id="38">
<title>sprite_203</title>
</rect>
<rect x="378" y="216" width="126" height="38" stroke="black" fill="red" fill-opacity="0.1" id="39">
<title>sprite_204</title>
</rect>
<rect x="126" y="254" width="126" height="38" stroke="black" fill="red" fill-opacity="0.1" id="40">
<title>sprite_205</title>
</rect>
<rect x="252" y="254" width="126" height="38" stroke="black" fill="red" fill-opacity="0.1" id="41">
<title>sprite_206</title>
</rect>
<rect x="378" y="254" width="126" height="38" stroke="black" fill="red" fill-opacity="0.1" id="42">
<title>sprite_207</title>
</rect>
<rect x="42" y="296" width="126" height="38" stroke="black" fill="red" fill-opacity="0.1" id="43">
<title>sprite_208</title>
</rect>
<rect x="168" y="296" width="126" height="38" stroke="black" fill="red" fill-opacity="0.1" id="44">
<title>sprite_209</title>
</rect>
<rect x="294" y="296" width="126" height="38" stroke="black" fill="red" fill-opacity="0.1" id="45">
<title>sprite_210</title>
</rect>
<rect x="420" y="312" width="46" height="22" stroke="black" fill="red" fill-opacity="0.1" id="46">
<title>sprite_211</title>
</rect>
<rect x="466" y="312" width="34" height="22" stroke="black" fill="red" fill-opacity="0.1" id="47">
<title>sprite_212</title>
</rect>
<rect x="70" y="334" width="66" height="50" stroke="black" fill="red" fill-opacity="0.1" id="48">
<title>sprite_213</title>
</rect>
<rect x="136" y="334" width="62" height="50" stroke="black" fill="red" fill-opacity="0.1" id="49">
<title>sprite_214</title>
</rect>
<rect x="198" y="334" width="62" height="50" stroke="black" fill="red" fill-opacity="0.1" id="50">
<title>sprite_215</title>
</rect>
<rect x="260" y="334" width="62" height="50" stroke="black" fill="red" fill-opacity="0.1" id="51">
<title>sprite_216</title>
</rect>
<rect x="322" y="334" width="62" height="50" stroke="black" fill="red" fill-opacity="0.1" id="52">
<title>sprite_217</title>
</rect>
<rect x="384" y="334" width="62" height="50" stroke="black" fill="red" fill-opacity="0.1" id="53">
<title>sprite_218</title>
</rect>
<rect x="446" y="338" width="50" height="46" stroke="black" fill="red" fill-opacity="0.1" id="54">
<title>sprite_219</title>
</rect>
<rect x="64" y="384" width="64" height="64" stroke="black" fill="red" fill-opacity="0.1" id="55">
<title>sprite_220</title>
</rect>
<rect x="128" y="386" width="62" height="62" stroke="black" fill="red" fill-opacity="0.1" id="56">
<title>sprite_221</title>
</rect>
<rect x="190" y="386" width="62" height="62" stroke="black" fill="red" fill-opacity="0.1" id="57">
<title>sprite_222</title>
</rect>
<rect x="252" y="386" width="62" height="62" stroke="black" fill="red" fill-opacity="0.1" id="58">
<title>sprite_223</title>
</rect>
<rect x="314" y="386" width="62" height="62" stroke="black" fill="red" fill-opacity="0.1" id="59">
<title>sprite_224</title>
</rect>
<rect x="376" y="386" width="62" height="62" stroke="black" fill="red" fill-opacity="0.1" id="60">
<title>sprite_225</title>
</rect>
<rect x="438" y="386" width="62" height="62" stroke="black" fill="red" fill-opacity="0.1" id="61">
<title>sprite_226</title>
</rect>
<rect x="64" y="448" width="64" height="64" stroke="black" fill="red" fill-opacity="0.1" id="62">
<title>sprite_227</title>
</rect>
<rect x="128" y="448" width="64" height="64" stroke="black" fill="red" fill-opacity="0.1" id="63">
<title>sprite_228</title>
</rect>
<rect x="192" y="448" width="64" height="64" stroke="black" fill="red" fill-opacity="0.1" id="64">
<title>sprite_229</title>
</rect>
<rect x="256" y="448" width="64" height="64" stroke="black" fill="red" fill-opacity="0.1" id="65">
<title>sprite_230</title>
</rect>
<rect x="320" y="448" width="64" height="64" stroke="black" fill="red" fill-opacity="0.1" id="66">
<title>sprite_231</title>
</rect>
<rect x="384" y="448" width="64" height="64" stroke="black" fill="red" fill-opacity="0.1" id="67">
<title>sprite_232</title>
</rect>
<rect x="448" y="448" width="64" height="64" stroke="black" fill="red" fill-opacity="0.1" id="68">
<title>sprite_233</title>
</rect>
</svg>