<?xml version="1.0" encoding="UTF-8"?>
<svg xmlns="http://www.w3.org/2000/svg" xmlns:xlink="http://www.w3.org/1999/xlink"
     width="1024" height="1024" viewBox="0 0 1024 1024">
<defs>
</defs>
<rect x="0" y="666" width="284" height="358" stroke="black" fill="red" fill-opacity="0.1" />
<rect x="0" y="346" width="256" height="320" stroke="black" fill="red" fill-opacity="0.1" />
<rect x="0" y="252" width="126" height="94" stroke="black" fill="red" fill-opacity="0.1" />
<rect x="0" y="190" width="126" height="62" stroke="black" fill="red" fill-opacity="0.1" />
<rect x="0" y="128" width="126" height="62" stroke="black" fill="red" fill-opacity="0.1" />
<rect x="0" y="66" width="126" height="62" stroke="black" fill="red" fill-opacity="0.1" />
<rect x="0" y="4" width="62" height="62" stroke="black" fill="red" fill-opacity="0.1" />
<rect x="62" y="4" width="62" height="62" stroke="black" fill="red" fill-opacity="0.1" />
<rect x="124" y="4" width="62" height="62" stroke="black" fill="red" fill-opacity="0.1" />
<rect x="186" y="4" width="62" height="62" stroke="black" fill="red" fill-opacity="0.1" />
<rect x="248" y="4" width="62" height="62" stroke="black" fill="red" fill-opacity="0.1" />
<rect x="310" y="4" width="62" height="62" stroke="black" fill="red" fill-opacity="0.1" />
<rect x="372" y="4" width="62" height="62" stroke="black" fill="red" fill-opacity="0.1" />
<rect x="434" y="4" width="62" height="62" stroke="black" fill="red" fill-opacity="0.1" />
<rect x="496" y="4" width="62" height="62" stroke="black" fill="red" fill-opacity="0.1" />
<rect x="558" y="4" width="62" height="62" stroke="black" fill="red" fill-opacity="0.1" />
<rect x="620" y="4" width="62" height="62" stroke="black" fill="red" fill-opacity="0.1" />
<rect x="682" y="4" width="62" height="62" stroke="black" fill="red" fill-opacity="0.1" />
<rect x="744" y="4" width="62" height="62" stroke="black" fill="red" fill-opacity="0.1" />
<rect x="806" y="4" width="62" height="62" stroke="black" fill="red" fill-opacity="0.1" />
<rect x="868" y="4" width="62" height="62" stroke="black" fill="red" fill-opacity="0.1" />
<rect x="930" y="4" width="62" height="62" stroke="black" fill="red" fill-opacity="0.1" />
<rect x="126" y="66" width="126" height="62" stroke="black" fill="red" fill-opacity="0.1" />
<rect x="252" y="66" width="94" height="62" stroke="black" fill="red" fill-opacity="0.1" />
<rect x="346" y="66" width="62" height="62" stroke="black" fill="red" fill-opacity="0.1" />
<rect x="408" y="66" width="62" height="62" stroke="black" fill="red" fill-opacity="0.1" />
<rect x="470" y="66" width="62" height="62" stroke="black" fill="red" fill-opacity="0.1" />
<rect x="532" y="66" width="62" height="62" stroke="black" fill="red" fill-opacity="0.1" />
<rect x="594" y="66" width="62" height="62" stroke="black" fill="red" fill-opacity="0.1" />
<rect x="656" y="66" width="62" height="62" stroke="black" fill="red" fill-opacity="0.1" />
<rect x="718" y="66" width="62" height="62" stroke="black" fill="red" fill-opacity="0.1" />
<rect x="780" y="66" width="62" height="62" stroke="black" fill="red" fill-opacity="0.1" />
<rect x="842" y="66" width="62" height="62" stroke="black" fill="red" fill-opacity="0.1" />
<rect x="904" y="66" width="62" height="62" stroke="black" fill="red" fill-opacity="0.1" />
<rect x="966" y="106" width="34" height="22" stroke="black" fill="red" fill-opacity="0.1" />
<rect x="126" y="128" width="126" height="62" stroke="black" fill="red" fill-opacity="0.1" />
<rect x="252" y="128" width="126" height="62" stroke="black" fill="red" fill-opacity="0.1" />
<rect x="378" y="128" width="126" height="62" stroke="black" fill="red" fill-opacity="0.1" />
<rect x="504" y="128" width="126" height="62" stroke="black" fill="red" fill-opacity="0.1" />
<rect x="630" y="128" width="126" height="62" stroke="black" fill="red" fill-opacity="0.1" />
<rect x="756" y="128" width="126" height="62" stroke="black" fill="red" fill-opacity="0.1" />
<rect x="882" y="128" width="126" height="62" stroke="black" fill="red" fill-opacity="0.1" />
<rect x="126" y="190" width="126" height="62" stroke="black" fill="red" fill-opacity="0.1" />
<rect x="252" y="190" width="126" height="62" stroke="black" fill="red" fill-opacity="0.1" />
<rect x="378" y="190" width="126" height="62" stroke="black" fill="red" fill-opacity="0.1" />
<rect x="504" y="190" width="126" height="62" stroke="black" fill="red" fill-opacity="0.1" />
<rect x="630" y="190" width="126" height="62" stroke="black" fill="red" fill-opacity="0.1" />
<rect x="756" y="190" width="126" height="62" stroke="black" fill="red" fill-opacity="0.1" />
<rect x="882" y="190" width="126" height="62" stroke="black" fill="red" fill-opacity="0.1" />
<rect x="126" y="252" width="126" height="94" stroke="black" fill="red" fill-opacity="0.1" />
<rect x="252" y="268" width="262" height="78" stroke="black" fill="red" fill-opacity="0.1" />
<rect x="514" y="282" width="254" height="64" stroke="black" fill="red" fill-opacity="0.1" />
<rect x="514" y="252" width="126" height="30" stroke="black" fill="red" fill-opacity="0.1" />
<rect x="640" y="252" width="126" height="30" stroke="black" fill="red" fill-opacity="0.1" />
<rect x="766" y="252" width="126" height="30" stroke="black" fill="red" fill-opacity="0.1" />
<rect x="892" y="252" width="126" height="30" stroke="black" fill="red" fill-opacity="0.1" />
<rect x="768" y="284" width="126" height="62" stroke="black" fill="red" fill-opacity="0.1" />
<rect x="894" y="284" width="126" height="62" stroke="black" fill="red" fill-opacity="0.1" />
<rect x="256" y="540" width="126" height="126" stroke="black" fill="red" fill-opacity="0.1" />
<rect x="256" y="478" width="62" height="62" stroke="black" fill="red" fill-opacity="0.1" />
<rect x="256" y="427" width="158" height="51" stroke="black" fill="red" fill-opacity="0.1" />
<rect x="256" y="397" width="126" height="30" stroke="black" fill="red" fill-opacity="0.1" />
<rect x="256" y="367" width="126" height="30" stroke="black" fill="red" fill-opacity="0.1" />
<rect x="256" y="349" width="142" height="18" stroke="black" fill="red" fill-opacity="0.1" />
<rect x="398" y="349" width="142" height="18" stroke="black" fill="red" fill-opacity="0.1" />
<rect x="540" y="349" width="142" height="18" stroke="black" fill="red" fill-opacity="0.1" />
<rect x="682" y="349" width="142" height="18" stroke="black" fill="red" fill-opacity="0.1" />
<rect x="824" y="349" width="142" height="18" stroke="black" fill="red" fill-opacity="0.1" />
<rect x="382" y="367" width="126" height="30" stroke="black" fill="red" fill-opacity="0.1" />
<rect x="508" y="367" width="126" height="30" stroke="black" fill="red" fill-opacity="0.1" />
<rect x="634" y="367" width="126" height="30" stroke="black" fill="red" fill-opacity="0.1" />
<rect x="760" y="367" width="126" height="30" stroke="black" fill="red" fill-opacity="0.1" />
<rect x="886" y="367" width="126" height="30" stroke="black" fill="red" fill-opacity="0.1" />
<rect x="382" y="397" width="126" height="30" stroke="black" fill="red" fill-opacity="0.1" />
<rect x="508" y="397" width="126" height="30" stroke="black" fill="red" fill-opacity="0.1" />
<rect x="634" y="397" width="126" height="30" stroke="black" fill="red" fill-opacity="0.1" />
<rect x="760" y="397" width="126" height="30" stroke="black" fill="red" fill-opacity="0.1" />
<rect x="886" y="397" width="126" height="30" stroke="black" fill="red" fill-opacity="0.1" />
<rect x="414" y="427" width="158" height="51" stroke="black" fill="red" fill-opacity="0.1" />
<rect x="572" y="428" width="62" height="50" stroke="black" fill="red" fill-opacity="0.1" />
<rect x="634" y="428" width="62" height="50" stroke="black" fill="red" fill-opacity="0.1" />
<rect x="696" y="436" width="66" height="42" stroke="black" fill="red" fill-opacity="0.1" />
<rect x="762" y="436" width="66" height="42" stroke="black" fill="red" fill-opacity="0.1" />
<rect x="828" y="444" width="66" height="34" stroke="black" fill="red" fill-opacity="0.1" />
<rect x="894" y="444" width="66" height="34" stroke="black" fill="red" fill-opacity="0.1" />
<rect x="960" y="448" width="62" height="30" stroke="black" fill="red" fill-opacity="0.1" />
<rect x="318" y="478" width="62" height="62" stroke="black" fill="red" fill-opacity="0.1" />
<rect x="380" y="478" width="62" height="62" stroke="black" fill="red" fill-opacity="0.1" />
<rect x="442" y="478" width="62" height="62" stroke="black" fill="red" fill-opacity="0.1" />
<rect x="504" y="478" width="62" height="62" stroke="black" fill="red" fill-opacity="0.1" />
<rect x="566" y="478" width="62" height="62" stroke="black" fill="red" fill-opacity="0.1" />
<rect x="628" y="478" width="62" height="62" stroke="black" fill="red" fill-opacity="0.1" />
<rect x="690" y="478" width="62" height="62" stroke="black" fill="red" fill-opacity="0.1" />
<rect x="752" y="478" width="62" height="62" stroke="black" fill="red" fill-opacity="0.1" />
<rect x="814" y="478" width="62" height="62" stroke="black" fill="red" fill-opacity="0.1" />
<rect x="876" y="510" width="126" height="30" stroke="black" fill="red" fill-opacity="0.1" />
<rect x="876" y="480" width="126" height="30" stroke="black" fill="red" fill-opacity="0.1" />
<rect x="382" y="540" width="126" height="126" stroke="black" fill="red" fill-opacity="0.1" />
<rect x="508" y="540" width="126" height="126" stroke="black" fill="red" fill-opacity="0.1" />
<rect x="634" y="572" width="126" height="94" stroke="black" fill="red" fill-opacity="0.1" />
<rect x="634" y="542" width="126" height="30" stroke="black" fill="red" fill-opacity="0.1" />
<rect x="760" y="542" width="82" height="30" stroke="black" fill="red" fill-opacity="0.1" />
<rect x="842" y="542" width="62" height="30" stroke="black" fill="red" fill-opacity="0.1" />
<rect x="904" y="542" width="62" height="30" stroke="black" fill="red" fill-opacity="0.1" />
<rect x="966" y="550" width="34" height="22" stroke="black" fill="red" fill-opacity="0.1" />
<rect x="760" y="572" width="126" height="94" stroke="black" fill="red" fill-opacity="0.1" />
<rect x="886" y="572" width="126" height="94" stroke="black" fill="red" fill-opacity="0.1" />
<rect x="284" y="704" width="256" height="320" stroke="black" fill="red" fill-opacity="0.1" />
<rect x="284" y="674" width="62" height="30" stroke="black" fill="red" fill-opacity="0.1" />
<rect x="346" y="678" width="126" height="26" stroke="black" fill="red" fill-opacity="0.1" />
<rect x="472" y="682" width="34" height="22" stroke="black" fill="red" fill-opacity="0.1" />
<rect x="506" y="686" width="142" height="18" stroke="black" fill="red" fill-opacity="0.1" />
<rect x="506" y="668" width="142" height="18" stroke="black" fill="red" fill-opacity="0.1" />
<rect x="648" y="668" width="142" height="18" stroke="black" fill="red" fill-opacity="0.1" />
<rect x="790" y="668" width="142" height="18" stroke="black" fill="red" fill-opacity="0.1" />
<rect x="648" y="686" width="142" height="18" stroke="black" fill="red" fill-opacity="0.1" />
<rect x="790" y="686" width="142" height="18" stroke="black" fill="red" fill-opacity="0.1" />
<rect x="540" y="704" width="256" height="320" stroke="black" fill="red" fill-opacity="0.1" />
<rect x="796" y="930" width="126" height="94" stroke="black" fill="red" fill-opacity="0.1" />
<rect x="796" y="912" width="142" height="18" stroke="black" fill="red" fill-opacity="0.1" />
<rect x="796" y="894" width="142" height="18" stroke="black" fill="red" fill-opacity="0.1" />
<rect x="796" y="876" width="142" height="18" stroke="black" fill="red" fill-opacity="0.1" />
<rect x="796" y="858" width="142" height="18" stroke="black" fill="red" fill-opacity="0.1" />
<rect x="796" y="840" width="142" height="18" stroke="black" fill="red" fill-opacity="0.1" />
<rect x="796" y="822" width="142" height="18" stroke="black" fill="red" fill-opacity="0.1" />
<rect x="796" y="804" width="142" height="18" stroke="black" fill="red" fill-opacity="0.1" />
<rect x="796" y="786" width="142" height="18" stroke="black" fill="red" fill-opacity="0.1" />
<rect x="796" y="768" width="142" height="18" stroke="black" fill="red" fill-opacity="0.1" />
<rect x="796" y="750" width="142" height="18" stroke="black" fill="red" fill-opacity="0.1" />
<rect x="796" y="732" width="142" height="18" stroke="black" fill="red" fill-opacity="0.1" />
<rect x="796" y="714" width="142" height="18" stroke="black" fill="red" fill-opacity="0.1" />
<rect x="922" y="962" width="62" height="62" stroke="black" fill="red" fill-opacity="0.1" />
</svg>