<?xml version="1.0" encoding="UTF-8"?>
<svg xmlns="http://www.w3.org/2000/svg" xmlns:xlink="http://www.w3.org/1999/xlink"
     width="1024" height="256" viewBox="0 0 1024 256">
<defs>
</defs>
<rect x="0" y="126" width="98" height="130" stroke="black" fill="red" fill-opacity="0.1" id="0">
<title>sprite_92</title>
</rect>
<rect x="98" y="182" width="258" height="74" stroke="black" fill="red" fill-opacity="0.1" id="1">
<title>sprite_93</title>
</rect>
<rect x="356" y="190" width="158" height="66" stroke="black" fill="red" fill-opacity="0.1" id="2">
<title>sprite_94</title>
</rect>
<rect x="514" y="190" width="130" height="66" stroke="black" fill="red" fill-opacity="0.1" id="3">
<title>sprite_95</title>
</rect>
<rect x="644" y="190" width="66" height="66" stroke="black" fill="red" fill-opacity="0.1" id="4">
<title>sprite_96</title>
</rect>
<rect x="710" y="194" width="258" height="62" stroke="black" fill="red" fill-opacity="0.1" id="5">
<title>sprite_97</title>
</rect>
<rect x="0" y="76" width="346" height="50" stroke="black" fill="red" fill-opacity="0.1" id="6">
<title>sprite_98</title>
</rect>
<rect x="346" y="76" width="258" height="50" stroke="black" fill="red" fill-opacity="0.1" id="7">
<title>sprite_99</title>
</rect>
<rect x="604" y="76" width="258" height="50" stroke="black" fill="red" fill-opacity="0.1" id="8">
<title>sprite_100</title>
</rect>
<rect x="0" y="26" width="222" height="50" stroke="black" fill="red" fill-opacity="0.1" id="9">
<title>sprite_101</title>
</rect>
<rect x="222" y="30" width="250" height="46" stroke="black" fill="red" fill-opacity="0.1" id="10">
<title>sprite_102</title>
</rect>
<rect x="472" y="34" width="152" height="42" stroke="black" fill="red" fill-opacity="0.1" id="11">
<title>sprite_103</title>
</rect>
<rect x="624" y="34" width="146" height="42" stroke="black" fill="red" fill-opacity="0.1" id="12">
<title>sprite_104</title>
</rect>
<rect x="770" y="34" width="54" height="42" stroke="black" fill="red" fill-opacity="0.1" id="13">
<title>sprite_105</title>
</rect>
<rect x="98" y="144" width="438" height="38" stroke="black" fill="red" fill-opacity="0.1" id="14">
<title>sprite_106</title>
</rect>
<rect x="824" y="38" width="178" height="38" stroke="black" fill="red" fill-opacity="0.1" id="15">
<title>sprite_107</title>
</rect>
<rect x="862" y="88" width="138" height="38" stroke="black" fill="red" fill-opacity="0.1" id="16">
<title>sprite_108</title>
</rect>
<rect x="536" y="148" width="422" height="34" stroke="black" fill="red" fill-opacity="0.1" id="17">
<title>sprite_109</title>
</rect>
<rect x="222" y="0" width="70" height="30" stroke="black" fill="red" fill-opacity="0.1" id="18">
<title>sprite_110</title>
</rect>
<rect x="292" y="4" width="166" height="26" stroke="black" fill="red" fill-opacity="0.1" id="19">
<title>sprite_111</title>
</rect>
<rect x="458" y="4" width="82" height="26" stroke="black" fill="red" fill-opacity="0.1" id="20">
<title>sprite_112</title>
</rect>
<rect x="540" y="8" width="118" height="22" stroke="black" fill="red" fill-opacity="0.1" id="21">
<title>sprite_113</title>
</rect>
</svg>