<?xml version="1.0" encoding="UTF-8"?>
<svg xmlns="http://www.w3.org/2000/svg" xmlns:xlink="http://www.w3.org/1999/xlink"
     width="1024" height="256" viewBox="0 0 1024 256">
<defs>
</defs>
<rect x="0" y="166" width="258" height="90" stroke="black" fill="red" fill-opacity="0.1" />
<rect x="258" y="166" width="10" height="90" stroke="black" fill="red" fill-opacity="0.1" />
<rect x="268" y="170" width="258" height="86" stroke="black" fill="red" fill-opacity="0.1" />
<rect x="526" y="170" width="156" height="86" stroke="black" fill="red" fill-opacity="0.1" />
<rect x="682" y="174" width="162" height="82" stroke="black" fill="red" fill-opacity="0.1" />
<rect x="0" y="92" width="258" height="74" stroke="black" fill="red" fill-opacity="0.1" />
<rect x="258" y="92" width="258" height="74" stroke="black" fill="red" fill-opacity="0.1" />
<rect x="516" y="100" width="66" height="66" stroke="black" fill="red" fill-opacity="0.1" />
<rect x="582" y="100" width="66" height="66" stroke="black" fill="red" fill-opacity="0.1" />
<rect x="648" y="112" width="119" height="54" stroke="black" fill="red" fill-opacity="0.1" />
<rect x="767" y="116" width="222" height="50" stroke="black" fill="red" fill-opacity="0.1" />
<rect x="0" y="42" width="222" height="50" stroke="black" fill="red" fill-opacity="0.1" />
<rect x="222" y="50" width="454" height="42" stroke="black" fill="red" fill-opacity="0.1" />
<rect x="676" y="62" width="234" height="30" stroke="black" fill="red" fill-opacity="0.1" />
<rect x="910" y="62" width="26" height="30" stroke="black" fill="red" fill-opacity="0.1" />
<rect x="936" y="62" width="26" height="30" stroke="black" fill="red" fill-opacity="0.1" />
<rect x="962" y="62" width="26" height="30" stroke="black" fill="red" fill-opacity="0.1" />
<rect x="988" y="62" width="26" height="30" stroke="black" fill="red" fill-opacity="0.1" />
<rect x="989" y="136" width="26" height="30" stroke="black" fill="red" fill-opacity="0.1" />
<rect x="844" y="230" width="82" height="26" stroke="black" fill="red" fill-opacity="0.1" />
<rect x="0" y="20" width="218" height="22" stroke="black" fill="red" fill-opacity="0.1" />
</svg>