<?xml version="1.0" encoding="UTF-8"?>
<svg xmlns="http://www.w3.org/2000/svg" xmlns:xlink="http://www.w3.org/1999/xlink"
     width="512" height="512" viewBox="0 0 512 512">
<defs>
</defs>
<rect x="0" y="382" width="258" height="130" stroke="black" fill="red" fill-opacity="0.1" />
<rect x="0" y="252" width="258" height="130" stroke="black" fill="red" fill-opacity="0.1" />
<rect x="0" y="170" width="210" height="82" stroke="black" fill="red" fill-opacity="0.1" />
<rect x="258" y="430" width="210" height="82" stroke="black" fill="red" fill-opacity="0.1" />
<rect x="210" y="170" width="210" height="82" stroke="black" fill="red" fill-opacity="0.1" />
<rect x="258" y="300" width="210" height="82" stroke="black" fill="red" fill-opacity="0.1" />
<rect x="0" y="120" width="494" height="50" stroke="black" fill="red" fill-opacity="0.1" />
<rect x="0" y="74" width="254" height="46" stroke="black" fill="red" fill-opacity="0.1" />
<rect x="258" y="384" width="254" height="46" stroke="black" fill="red" fill-opacity="0.1" />
<rect x="468" y="474" width="10" height="38" stroke="black" fill="red" fill-opacity="0.1" />
<rect x="318" y="88" width="32" height="32" stroke="black" fill="red" fill-opacity="0.1" />
<rect x="286" y="88" width="32" height="32" stroke="black" fill="red" fill-opacity="0.1" />
<rect x="478" y="480" width="32" height="32" stroke="black" fill="red" fill-opacity="0.1" />
<rect x="350" y="88" width="32" height="32" stroke="black" fill="red" fill-opacity="0.1" />
<rect x="382" y="88" width="32" height="32" stroke="black" fill="red" fill-opacity="0.1" />
<rect x="254" y="88" width="32" height="32" stroke="black" fill="red" fill-opacity="0.1" />
<rect x="414" y="90" width="26" height="30" stroke="black" fill="red" fill-opacity="0.1" />
<rect x="440" y="90" width="26" height="30" stroke="black" fill="red" fill-opacity="0.1" />
<rect x="466" y="90" width="26" height="30" stroke="black" fill="red" fill-opacity="0.1" />
<rect x="420" y="222" width="26" height="30" stroke="black" fill="red" fill-opacity="0.1" />
<rect x="446" y="226" width="26" height="26" stroke="black" fill="red" fill-opacity="0.1" />
<rect x="494" y="152" width="18" height="18" stroke="black" fill="red" fill-opacity="0.1" />
<rect x="0" y="60" width="58" height="14" stroke="black" fill="red" fill-opacity="0.1" />
<rect x="58" y="60" width="58" height="14" stroke="black" fill="red" fill-opacity="0.1" />
<rect x="116" y="60" width="58" height="14" stroke="black" fill="red" fill-opacity="0.1" />
<rect x="174" y="60" width="58" height="14" stroke="black" fill="red" fill-opacity="0.1" />
<rect x="232" y="60" width="22" height="14" stroke="black" fill="red" fill-opacity="0.1" />
<rect x="254" y="60" width="22" height="14" stroke="black" fill="red" fill-opacity="0.1" />
</svg>