<?xml version="1.0" encoding="UTF-8"?>
<svg xmlns="http://www.w3.org/2000/svg" xmlns:xlink="http://www.w3.org/1999/xlink"
     width="1024" height="256" viewBox="0 0 1024 256">
<defs>
</defs>
<rect x="0" y="192" width="64" height="64" stroke="black" fill="red" fill-opacity="0.1" />
<rect x="64" y="202" width="258" height="54" stroke="black" fill="red" fill-opacity="0.1" />
<rect x="580" y="206" width="258" height="50" stroke="black" fill="red" fill-opacity="0.1" />
<rect x="322" y="206" width="258" height="50" stroke="black" fill="red" fill-opacity="0.1" />
<rect x="266" y="150" width="266" height="42" stroke="black" fill="red" fill-opacity="0.1" />
<rect x="0" y="150" width="266" height="42" stroke="black" fill="red" fill-opacity="0.1" />
<rect x="532" y="154" width="254" height="38" stroke="black" fill="red" fill-opacity="0.1" />
<rect x="786" y="154" width="178" height="38" stroke="black" fill="red" fill-opacity="0.1" />
<rect x="0" y="112" width="178" height="38" stroke="black" fill="red" fill-opacity="0.1" />
<rect x="356" y="112" width="178" height="38" stroke="black" fill="red" fill-opacity="0.1" />
<rect x="178" y="112" width="178" height="38" stroke="black" fill="red" fill-opacity="0.1" />
<rect x="838" y="218" width="178" height="38" stroke="black" fill="red" fill-opacity="0.1" />
<rect x="534" y="116" width="58" height="34" stroke="black" fill="red" fill-opacity="0.1" />
<rect x="592" y="116" width="58" height="34" stroke="black" fill="red" fill-opacity="0.1" />
<rect x="0" y="82" width="418" height="30" stroke="black" fill="red" fill-opacity="0.1" />
<rect x="418" y="82" width="338" height="30" stroke="black" fill="red" fill-opacity="0.1" />
<rect x="650" y="120" width="314" height="30" stroke="black" fill="red" fill-opacity="0.1" />
<rect x="0" y="52" width="310" height="30" stroke="black" fill="red" fill-opacity="0.1" />
<rect x="310" y="52" width="294" height="30" stroke="black" fill="red" fill-opacity="0.1" />
<rect x="604" y="52" width="166" height="30" stroke="black" fill="red" fill-opacity="0.1" />
<rect x="770" y="52" width="134" height="30" stroke="black" fill="red" fill-opacity="0.1" />
<rect x="904" y="52" width="94" height="30" stroke="black" fill="red" fill-opacity="0.1" />
<rect x="756" y="86" width="266" height="26" stroke="black" fill="red" fill-opacity="0.1" />
<rect x="0" y="26" width="226" height="26" stroke="black" fill="red" fill-opacity="0.1" />
<rect x="226" y="26" width="170" height="26" stroke="black" fill="red" fill-opacity="0.1" />
<rect x="396" y="26" width="154" height="26" stroke="black" fill="red" fill-opacity="0.1" />
<rect x="550" y="26" width="142" height="26" stroke="black" fill="red" fill-opacity="0.1" />
<rect x="692" y="26" width="118" height="26" stroke="black" fill="red" fill-opacity="0.1" />
<rect x="810" y="26" width="102" height="26" stroke="black" fill="red" fill-opacity="0.1" />
<rect x="912" y="26" width="82" height="26" stroke="black" fill="red" fill-opacity="0.1" />
<rect x="102" y="4" width="102" height="22" stroke="black" fill="red" fill-opacity="0.1" />
<rect x="0" y="4" width="102" height="22" stroke="black" fill="red" fill-opacity="0.1" />
<rect x="204" y="4" width="82" height="22" stroke="black" fill="red" fill-opacity="0.1" />
<rect x="286" y="4" width="82" height="22" stroke="black" fill="red" fill-opacity="0.1" />
<rect x="368" y="4" width="80" height="22" stroke="black" fill="red" fill-opacity="0.1" />
<rect x="518" y="4" width="70" height="22" stroke="black" fill="red" fill-opacity="0.1" />
<rect x="448" y="4" width="70" height="22" stroke="black" fill="red" fill-opacity="0.1" />
<rect x="588" y="4" width="70" height="22" stroke="black" fill="red" fill-opacity="0.1" />
<rect x="658" y="4" width="70" height="22" stroke="black" fill="red" fill-opacity="0.1" />
</svg>