<?xml version="1.0" encoding="UTF-8"?>
<svg xmlns="http://www.w3.org/2000/svg" xmlns:xlink="http://www.w3.org/1999/xlink"
     width="1024" height="256" viewBox="0 0 1024 256">
<defs>
</defs>
<rect x="0" y="192" width="64" height="64" stroke="black" fill="red" fill-opacity="0.1" id="0">
<title>sprite_114</title>
</rect>
<rect x="64" y="202" width="258" height="54" stroke="black" fill="red" fill-opacity="0.1" id="1">
<title>sprite_115</title>
</rect>
<rect x="580" y="206" width="258" height="50" stroke="black" fill="red" fill-opacity="0.1" id="2">
<title>sprite_116</title>
</rect>
<rect x="322" y="206" width="258" height="50" stroke="black" fill="red" fill-opacity="0.1" id="3">
<title>sprite_117</title>
</rect>
<rect x="266" y="150" width="266" height="42" stroke="black" fill="red" fill-opacity="0.1" id="4">
<title>sprite_118</title>
</rect>
<rect x="0" y="150" width="266" height="42" stroke="black" fill="red" fill-opacity="0.1" id="5">
<title>sprite_119</title>
</rect>
<rect x="532" y="154" width="254" height="38" stroke="black" fill="red" fill-opacity="0.1" id="6">
<title>sprite_120</title>
</rect>
<rect x="786" y="154" width="178" height="38" stroke="black" fill="red" fill-opacity="0.1" id="7">
<title>sprite_121</title>
</rect>
<rect x="0" y="112" width="178" height="38" stroke="black" fill="red" fill-opacity="0.1" id="8">
<title>sprite_122</title>
</rect>
<rect x="356" y="112" width="178" height="38" stroke="black" fill="red" fill-opacity="0.1" id="9">
<title>sprite_123</title>
</rect>
<rect x="178" y="112" width="178" height="38" stroke="black" fill="red" fill-opacity="0.1" id="10">
<title>sprite_124</title>
</rect>
<rect x="838" y="218" width="178" height="38" stroke="black" fill="red" fill-opacity="0.1" id="11">
<title>sprite_125</title>
</rect>
<rect x="534" y="116" width="58" height="34" stroke="black" fill="red" fill-opacity="0.1" id="12">
<title>sprite_126</title>
</rect>
<rect x="592" y="116" width="58" height="34" stroke="black" fill="red" fill-opacity="0.1" id="13">
<title>sprite_127</title>
</rect>
<rect x="0" y="82" width="418" height="30" stroke="black" fill="red" fill-opacity="0.1" id="14">
<title>sprite_128</title>
</rect>
<rect x="418" y="82" width="338" height="30" stroke="black" fill="red" fill-opacity="0.1" id="15">
<title>sprite_129</title>
</rect>
<rect x="650" y="120" width="314" height="30" stroke="black" fill="red" fill-opacity="0.1" id="16">
<title>sprite_130</title>
</rect>
<rect x="0" y="52" width="310" height="30" stroke="black" fill="red" fill-opacity="0.1" id="17">
<title>sprite_131</title>
</rect>
<rect x="310" y="52" width="294" height="30" stroke="black" fill="red" fill-opacity="0.1" id="18">
<title>sprite_132</title>
</rect>
<rect x="604" y="52" width="166" height="30" stroke="black" fill="red" fill-opacity="0.1" id="19">
<title>sprite_133</title>
</rect>
<rect x="770" y="52" width="134" height="30" stroke="black" fill="red" fill-opacity="0.1" id="20">
<title>sprite_134</title>
</rect>
<rect x="904" y="52" width="94" height="30" stroke="black" fill="red" fill-opacity="0.1" id="21">
<title>sprite_135</title>
</rect>
<rect x="756" y="86" width="266" height="26" stroke="black" fill="red" fill-opacity="0.1" id="22">
<title>sprite_136</title>
</rect>
<rect x="0" y="26" width="226" height="26" stroke="black" fill="red" fill-opacity="0.1" id="23">
<title>sprite_137</title>
</rect>
<rect x="226" y="26" width="170" height="26" stroke="black" fill="red" fill-opacity="0.1" id="24">
<title>sprite_138</title>
</rect>
<rect x="396" y="26" width="154" height="26" stroke="black" fill="red" fill-opacity="0.1" id="25">
<title>sprite_139</title>
</rect>
<rect x="550" y="26" width="142" height="26" stroke="black" fill="red" fill-opacity="0.1" id="26">
<title>sprite_140</title>
</rect>
<rect x="692" y="26" width="118" height="26" stroke="black" fill="red" fill-opacity="0.1" id="27">
<title>sprite_141</title>
</rect>
<rect x="810" y="26" width="102" height="26" stroke="black" fill="red" fill-opacity="0.1" id="28">
<title>sprite_142</title>
</rect>
<rect x="912" y="26" width="82" height="26" stroke="black" fill="red" fill-opacity="0.1" id="29">
<title>sprite_143</title>
</rect>
<rect x="102" y="4" width="102" height="22" stroke="black" fill="red" fill-opacity="0.1" id="30">
<title>sprite_144</title>
</rect>
<rect x="0" y="4" width="102" height="22" stroke="black" fill="red" fill-opacity="0.1" id="31">
<title>sprite_145</title>
</rect>
<rect x="204" y="4" width="82" height="22" stroke="black" fill="red" fill-opacity="0.1" id="32">
<title>sprite_146</title>
</rect>
<rect x="286" y="4" width="82" height="22" stroke="black" fill="red" fill-opacity="0.1" id="33">
<title>sprite_147</title>
</rect>
<rect x="368" y="4" width="80" height="22" stroke="black" fill="red" fill-opacity="0.1" id="34">
<title>sprite_148</title>
</rect>
<rect x="518" y="4" width="70" height="22" stroke="black" fill="red" fill-opacity="0.1" id="35">
<title>sprite_149</title>
</rect>
<rect x="448" y="4" width="70" height="22" stroke="black" fill="red" fill-opacity="0.1" id="36">
<title>sprite_150</title>
</rect>
<rect x="588" y="4" width="70" height="22" stroke="black" fill="red" fill-opacity="0.1" id="37">
<title>sprite_151</title>
</rect>
<rect x="658" y="4" width="70" height="22" stroke="black" fill="red" fill-opacity="0.1" id="38">
<title>sprite_152</title>
</rect>
</svg>