<?xml version="1.0" encoding="UTF-8"?>
<svg xmlns="http://www.w3.org/2000/svg" xmlns:xlink="http://www.w3.org/1999/xlink"
     width="512" height="512" viewBox="0 0 512 512">
<defs>
</defs>
<rect x="0" y="448" width="64" height="64" stroke="black" fill="red" fill-opacity="0.1" id="0">
<title>sprite_153</title>
</rect>
<rect x="64" y="448" width="64" height="64" stroke="black" fill="red" fill-opacity="0.1" id="1">
<title>sprite_154</title>
</rect>
<rect x="128" y="448" width="64" height="64" stroke="black" fill="red" fill-opacity="0.1" id="2">
<title>sprite_155</title>
</rect>
<rect x="192" y="448" width="64" height="64" stroke="black" fill="red" fill-opacity="0.1" id="3">
<title>sprite_156</title>
</rect>
<rect x="256" y="452" width="60" height="60" stroke="black" fill="red" fill-opacity="0.1" id="4">
<title>sprite_157</title>
</rect>
<rect x="316" y="452" width="60" height="60" stroke="black" fill="red" fill-opacity="0.1" id="5">
<title>sprite_158</title>
</rect>
<rect x="376" y="454" width="58" height="58" stroke="black" fill="red" fill-opacity="0.1" id="6">
<title>sprite_159</title>
</rect>
<rect x="434" y="454" width="58" height="58" stroke="black" fill="red" fill-opacity="0.1" id="7">
<title>sprite_160</title>
</rect>
<rect x="0" y="390" width="58" height="58" stroke="black" fill="red" fill-opacity="0.1" id="8">
<title>sprite_161</title>
</rect>
<rect x="58" y="390" width="58" height="58" stroke="black" fill="red" fill-opacity="0.1" id="9">
<title>sprite_162</title>
</rect>
<rect x="116" y="394" width="74" height="54" stroke="black" fill="red" fill-opacity="0.1" id="10">
<title>sprite_163</title>
</rect>
<rect x="190" y="410" width="178" height="38" stroke="black" fill="red" fill-opacity="0.1" id="11">
<title>sprite_164</title>
</rect>
<rect x="0" y="352" width="178" height="38" stroke="black" fill="red" fill-opacity="0.1" id="12">
<title>sprite_165</title>
</rect>
<rect x="178" y="352" width="178" height="38" stroke="black" fill="red" fill-opacity="0.1" id="13">
<title>sprite_166</title>
</rect>
<rect x="0" y="314" width="178" height="38" stroke="black" fill="red" fill-opacity="0.1" id="14">
<title>sprite_167</title>
</rect>
<rect x="178" y="314" width="178" height="38" stroke="black" fill="red" fill-opacity="0.1" id="15">
<title>sprite_168</title>
</rect>
<rect x="0" y="276" width="178" height="38" stroke="black" fill="red" fill-opacity="0.1" id="16">
<title>sprite_169</title>
</rect>
<rect x="178" y="276" width="178" height="38" stroke="black" fill="red" fill-opacity="0.1" id="17">
<title>sprite_170</title>
</rect>
<rect x="0" y="238" width="178" height="38" stroke="black" fill="red" fill-opacity="0.1" id="18">
<title>sprite_171</title>
</rect>
<rect x="178" y="238" width="178" height="38" stroke="black" fill="red" fill-opacity="0.1" id="19">
<title>sprite_172</title>
</rect>
<rect x="0" y="212" width="226" height="26" stroke="black" fill="red" fill-opacity="0.1" id="20">
<title>sprite_173</title>
</rect>
</svg>