<?xml version="1.0" encoding="UTF-8"?>
<svg xmlns="http://www.w3.org/2000/svg" xmlns:xlink="http://www.w3.org/1999/xlink"
     width="512" height="512" viewBox="0 0 512 512">
<defs>
</defs>
<rect x="0" y="448" width="64" height="64" stroke="black" fill="red" fill-opacity="0.1" />
<rect x="64" y="448" width="64" height="64" stroke="black" fill="red" fill-opacity="0.1" />
<rect x="128" y="448" width="64" height="64" stroke="black" fill="red" fill-opacity="0.1" />
<rect x="192" y="448" width="64" height="64" stroke="black" fill="red" fill-opacity="0.1" />
<rect x="256" y="452" width="60" height="60" stroke="black" fill="red" fill-opacity="0.1" />
<rect x="316" y="452" width="60" height="60" stroke="black" fill="red" fill-opacity="0.1" />
<rect x="376" y="454" width="58" height="58" stroke="black" fill="red" fill-opacity="0.1" />
<rect x="434" y="454" width="58" height="58" stroke="black" fill="red" fill-opacity="0.1" />
<rect x="0" y="390" width="58" height="58" stroke="black" fill="red" fill-opacity="0.1" />
<rect x="58" y="390" width="58" height="58" stroke="black" fill="red" fill-opacity="0.1" />
<rect x="116" y="394" width="74" height="54" stroke="black" fill="red" fill-opacity="0.1" />
<rect x="190" y="410" width="178" height="38" stroke="black" fill="red" fill-opacity="0.1" />
<rect x="0" y="352" width="178" height="38" stroke="black" fill="red" fill-opacity="0.1" />
<rect x="178" y="352" width="178" height="38" stroke="black" fill="red" fill-opacity="0.1" />
<rect x="0" y="314" width="178" height="38" stroke="black" fill="red" fill-opacity="0.1" />
<rect x="178" y="314" width="178" height="38" stroke="black" fill="red" fill-opacity="0.1" />
<rect x="0" y="276" width="178" height="38" stroke="black" fill="red" fill-opacity="0.1" />
<rect x="178" y="276" width="178" height="38" stroke="black" fill="red" fill-opacity="0.1" />
<rect x="0" y="238" width="178" height="38" stroke="black" fill="red" fill-opacity="0.1" />
<rect x="178" y="238" width="178" height="38" stroke="black" fill="red" fill-opacity="0.1" />
<rect x="0" y="212" width="226" height="26" stroke="black" fill="red" fill-opacity="0.1" />
</svg>