<?xml version="1.0" encoding="UTF-8"?>
<svg xmlns="http://www.w3.org/2000/svg" xmlns:xlink="http://www.w3.org/1999/xlink"
     width="4096" height="4096" viewBox="0 0 4096 4096">
<defs>
</defs>
<rect x="0" y="2056" width="504" height="2040" stroke="black" fill="red" fill-opacity="0.1" id="0">
<title>sprite_0</title>
</rect>
<rect x="504" y="3584" width="512" height="512" stroke="black" fill="red" fill-opacity="0.1" id="1">
<title>sprite_1</title>
</rect>
<rect x="1016" y="3584" width="512" height="512" stroke="black" fill="red" fill-opacity="0.1" id="2">
<title>sprite_2</title>
</rect>
<rect x="1528" y="3584" width="512" height="512" stroke="black" fill="red" fill-opacity="0.1" id="3">
<title>sprite_3</title>
</rect>
<rect x="2040" y="3584" width="512" height="512" stroke="black" fill="red" fill-opacity="0.1" id="4">
<title>sprite_4</title>
</rect>
<rect x="2552" y="3584" width="512" height="512" stroke="black" fill="red" fill-opacity="0.1" id="5">
<title>sprite_5</title>
</rect>
<rect x="3064" y="3584" width="512" height="512" stroke="black" fill="red" fill-opacity="0.1" id="6">
<title>sprite_6</title>
</rect>
<rect x="3576" y="3584" width="512" height="512" stroke="black" fill="red" fill-opacity="0.1" id="7">
<title>sprite_7</title>
</rect>
<rect x="0" y="1544" width="512" height="512" stroke="black" fill="red" fill-opacity="0.1" id="8">
<title>sprite_8</title>
</rect>
<rect x="512" y="1544" width="512" height="512" stroke="black" fill="red" fill-opacity="0.1" id="9">
<title>sprite_9</title>
</rect>
<rect x="1024" y="1544" width="512" height="512" stroke="black" fill="red" fill-opacity="0.1" id="10">
<title>sprite_10</title>
</rect>
<rect x="1536" y="1544" width="512" height="512" stroke="black" fill="red" fill-opacity="0.1" id="11">
<title>sprite_11</title>
</rect>
<rect x="2048" y="1544" width="512" height="512" stroke="black" fill="red" fill-opacity="0.1" id="12">
<title>sprite_12</title>
</rect>
<rect x="2560" y="1544" width="512" height="512" stroke="black" fill="red" fill-opacity="0.1" id="13">
<title>sprite_13</title>
</rect>
<rect x="3072" y="1544" width="512" height="512" stroke="black" fill="red" fill-opacity="0.1" id="14">
<title>sprite_14</title>
</rect>
<rect x="3584" y="1544" width="512" height="512" stroke="black" fill="red" fill-opacity="0.1" id="15">
<title>sprite_15</title>
</rect>
<rect x="0" y="1032" width="512" height="512" stroke="black" fill="red" fill-opacity="0.1" id="16">
<title>sprite_16</title>
</rect>
<rect x="512" y="1032" width="512" height="512" stroke="black" fill="red" fill-opacity="0.1" id="17">
<title>sprite_17</title>
</rect>
<rect x="1024" y="1032" width="512" height="512" stroke="black" fill="red" fill-opacity="0.1" id="18">
<title>sprite_18</title>
</rect>
<rect x="1536" y="1032" width="512" height="512" stroke="black" fill="red" fill-opacity="0.1" id="19">
<title>sprite_19</title>
</rect>
<rect x="2048" y="1032" width="512" height="512" stroke="black" fill="red" fill-opacity="0.1" id="20">
<title>sprite_20</title>
</rect>
<rect x="2560" y="1032" width="512" height="512" stroke="black" fill="red" fill-opacity="0.1" id="21">
<title>sprite_21</title>
</rect>
<rect x="3072" y="1032" width="512" height="512" stroke="black" fill="red" fill-opacity="0.1" id="22">
<title>sprite_22</title>
</rect>
<rect x="3584" y="1032" width="512" height="512" stroke="black" fill="red" fill-opacity="0.1" id="23">
<title>sprite_23</title>
</rect>
<rect x="0" y="520" width="512" height="512" stroke="black" fill="red" fill-opacity="0.1" id="24">
<title>sprite_24</title>
</rect>
<rect x="512" y="520" width="512" height="512" stroke="black" fill="red" fill-opacity="0.1" id="25">
<title>sprite_25</title>
</rect>
<rect x="1024" y="520" width="512" height="512" stroke="black" fill="red" fill-opacity="0.1" id="26">
<title>sprite_26</title>
</rect>
<rect x="1536" y="520" width="512" height="512" stroke="black" fill="red" fill-opacity="0.1" id="27">
<title>sprite_27</title>
</rect>
<rect x="2048" y="520" width="512" height="512" stroke="black" fill="red" fill-opacity="0.1" id="28">
<title>sprite_28</title>
</rect>
<rect x="2560" y="520" width="512" height="512" stroke="black" fill="red" fill-opacity="0.1" id="29">
<title>sprite_29</title>
</rect>
<rect x="3072" y="520" width="512" height="512" stroke="black" fill="red" fill-opacity="0.1" id="30">
<title>sprite_30</title>
</rect>
<rect x="3584" y="520" width="512" height="512" stroke="black" fill="red" fill-opacity="0.1" id="31">
<title>sprite_31</title>
</rect>
<rect x="0" y="8" width="512" height="512" stroke="black" fill="red" fill-opacity="0.1" id="32">
<title>sprite_32</title>
</rect>
<rect x="512" y="8" width="512" height="512" stroke="black" fill="red" fill-opacity="0.1" id="33">
<title>sprite_33</title>
</rect>
<rect x="1024" y="8" width="512" height="512" stroke="black" fill="red" fill-opacity="0.1" id="34">
<title>sprite_34</title>
</rect>
<rect x="1536" y="8" width="512" height="512" stroke="black" fill="red" fill-opacity="0.1" id="35">
<title>sprite_35</title>
</rect>
<rect x="2048" y="8" width="512" height="512" stroke="black" fill="red" fill-opacity="0.1" id="36">
<title>sprite_36</title>
</rect>
<rect x="2560" y="8" width="512" height="512" stroke="black" fill="red" fill-opacity="0.1" id="37">
<title>sprite_37</title>
</rect>
<rect x="3072" y="112" width="408" height="408" stroke="black" fill="red" fill-opacity="0.1" id="38">
<title>sprite_38</title>
</rect>
<rect x="3480" y="112" width="408" height="408" stroke="black" fill="red" fill-opacity="0.1" id="39">
<title>sprite_39</title>
</rect>
<rect x="504" y="3176" width="408" height="408" stroke="black" fill="red" fill-opacity="0.1" id="40">
<title>sprite_40</title>
</rect>
<rect x="912" y="3176" width="408" height="408" stroke="black" fill="red" fill-opacity="0.1" id="41">
<title>sprite_41</title>
</rect>
<rect x="1320" y="3176" width="408" height="408" stroke="black" fill="red" fill-opacity="0.1" id="42">
<title>sprite_42</title>
</rect>
<rect x="1728" y="3176" width="408" height="408" stroke="black" fill="red" fill-opacity="0.1" id="43">
<title>sprite_43</title>
</rect>
<rect x="2136" y="3176" width="408" height="408" stroke="black" fill="red" fill-opacity="0.1" id="44">
<title>sprite_44</title>
</rect>
<rect x="2544" y="3176" width="408" height="408" stroke="black" fill="red" fill-opacity="0.1" id="45">
<title>sprite_45</title>
</rect>
<rect x="504" y="2828" width="1824" height="348" stroke="black" fill="red" fill-opacity="0.1" id="46">
<title>sprite_46</title>
</rect>
<rect x="2328" y="2828" width="1472" height="348" stroke="black" fill="red" fill-opacity="0.1" id="47">
<title>sprite_47</title>
</rect>
<rect x="504" y="2480" width="1472" height="348" stroke="black" fill="red" fill-opacity="0.1" id="48">
<title>sprite_48</title>
</rect>
<rect x="1976" y="2480" width="1472" height="348" stroke="black" fill="red" fill-opacity="0.1" id="49">
<title>sprite_49</title>
</rect>
<rect x="3888" y="332" width="196" height="188" stroke="black" fill="red" fill-opacity="0.1" id="50">
<title>sprite_50</title>
</rect>
<rect x="3448" y="2640" width="196" height="188" stroke="black" fill="red" fill-opacity="0.1" id="51">
<title>sprite_51</title>
</rect>
<rect x="3644" y="2640" width="188" height="188" stroke="black" fill="red" fill-opacity="0.1" id="52">
<title>sprite_52</title>
</rect>
<rect x="3832" y="2640" width="188" height="188" stroke="black" fill="red" fill-opacity="0.1" id="53">
<title>sprite_53</title>
</rect>
<rect x="3800" y="2988" width="188" height="188" stroke="black" fill="red" fill-opacity="0.1" id="54">
<title>sprite_54</title>
</rect>
<rect x="2952" y="3396" width="188" height="188" stroke="black" fill="red" fill-opacity="0.1" id="55">
<title>sprite_55</title>
</rect>
<rect x="3140" y="3396" width="188" height="188" stroke="black" fill="red" fill-opacity="0.1" id="56">
<title>sprite_56</title>
</rect>
<rect x="3328" y="3396" width="188" height="188" stroke="black" fill="red" fill-opacity="0.1" id="57">
<title>sprite_57</title>
</rect>
<rect x="3516" y="3396" width="188" height="188" stroke="black" fill="red" fill-opacity="0.1" id="58">
<title>sprite_58</title>
</rect>
<rect x="3704" y="3396" width="188" height="188" stroke="black" fill="red" fill-opacity="0.1" id="59">
<title>sprite_59</title>
</rect>
<rect x="3892" y="3396" width="184" height="188" stroke="black" fill="red" fill-opacity="0.1" id="60">
<title>sprite_60</title>
</rect>
<rect x="3888" y="144" width="184" height="188" stroke="black" fill="red" fill-opacity="0.1" id="61">
<title>sprite_61</title>
</rect>
<rect x="504" y="2292" width="184" height="188" stroke="black" fill="red" fill-opacity="0.1" id="62">
<title>sprite_62</title>
</rect>
<rect x="688" y="2292" width="184" height="188" stroke="black" fill="red" fill-opacity="0.1" id="63">
<title>sprite_63</title>
</rect>
<rect x="872" y="2292" width="180" height="188" stroke="black" fill="red" fill-opacity="0.1" id="64">
<title>sprite_64</title>
</rect>
<rect x="1052" y="2292" width="180" height="188" stroke="black" fill="red" fill-opacity="0.1" id="65">
<title>sprite_65</title>
</rect>
<rect x="1232" y="2292" width="180" height="188" stroke="black" fill="red" fill-opacity="0.1" id="66">
<title>sprite_66</title>
</rect>
<rect x="1412" y="2292" width="180" height="188" stroke="black" fill="red" fill-opacity="0.1" id="67">
<title>sprite_67</title>
</rect>
<rect x="1592" y="2292" width="116" height="188" stroke="black" fill="red" fill-opacity="0.1" id="68">
<title>sprite_68</title>
</rect>
<rect x="1708" y="2308" width="624" height="172" stroke="black" fill="red" fill-opacity="0.1" id="69">
<title>sprite_69</title>
</rect>
<rect x="2332" y="2312" width="740" height="168" stroke="black" fill="red" fill-opacity="0.1" id="70">
<title>sprite_70</title>
</rect>
<rect x="3072" y="2312" width="704" height="168" stroke="black" fill="red" fill-opacity="0.1" id="71">
<title>sprite_71</title>
</rect>
<rect x="3776" y="2324" width="160" height="156" stroke="black" fill="red" fill-opacity="0.1" id="72">
<title>sprite_72</title>
</rect>
<rect x="3936" y="2344" width="136" height="136" stroke="black" fill="red" fill-opacity="0.1" id="73">
<title>sprite_73</title>
</rect>
<rect x="3888" y="8" width="136" height="136" stroke="black" fill="red" fill-opacity="0.1" id="74">
<title>sprite_74</title>
</rect>
<rect x="504" y="2156" width="136" height="136" stroke="black" fill="red" fill-opacity="0.1" id="75">
<title>sprite_75</title>
</rect>
<rect x="640" y="2156" width="136" height="136" stroke="black" fill="red" fill-opacity="0.1" id="76">
<title>sprite_76</title>
</rect>
<rect x="776" y="2156" width="136" height="136" stroke="black" fill="red" fill-opacity="0.1" id="77">
<title>sprite_77</title>
</rect>
<rect x="912" y="2156" width="136" height="136" stroke="black" fill="red" fill-opacity="0.1" id="78">
<title>sprite_78</title>
</rect>
<rect x="1048" y="2156" width="136" height="136" stroke="black" fill="red" fill-opacity="0.1" id="79">
<title>sprite_79</title>
</rect>
<rect x="1184" y="2156" width="136" height="136" stroke="black" fill="red" fill-opacity="0.1" id="80">
<title>sprite_80</title>
</rect>
<rect x="1320" y="2156" width="136" height="136" stroke="black" fill="red" fill-opacity="0.1" id="81">
<title>sprite_81</title>
</rect>
<rect x="1456" y="2156" width="136" height="136" stroke="black" fill="red" fill-opacity="0.1" id="82">
<title>sprite_82</title>
</rect>
<rect x="1592" y="2156" width="136" height="136" stroke="black" fill="red" fill-opacity="0.1" id="83">
<title>sprite_83</title>
</rect>
<rect x="1728" y="2156" width="136" height="136" stroke="black" fill="red" fill-opacity="0.1" id="84">
<title>sprite_84</title>
</rect>
<rect x="1864" y="2156" width="136" height="136" stroke="black" fill="red" fill-opacity="0.1" id="85">
<title>sprite_85</title>
</rect>
<rect x="2000" y="2156" width="136" height="136" stroke="black" fill="red" fill-opacity="0.1" id="86">
<title>sprite_86</title>
</rect>
<rect x="2136" y="2156" width="136" height="136" stroke="black" fill="red" fill-opacity="0.1" id="87">
<title>sprite_87</title>
</rect>
<rect x="2272" y="2156" width="136" height="136" stroke="black" fill="red" fill-opacity="0.1" id="88">
<title>sprite_88</title>
</rect>
<rect x="2408" y="2156" width="136" height="136" stroke="black" fill="red" fill-opacity="0.1" id="89">
<title>sprite_89</title>
</rect>
<rect x="2544" y="2156" width="136" height="136" stroke="black" fill="red" fill-opacity="0.1" id="90">
<title>sprite_90</title>
</rect>
<rect x="2680" y="2156" width="136" height="136" stroke="black" fill="red" fill-opacity="0.1" id="91">
<title>sprite_91</title>
</rect>
<rect x="2816" y="2156" width="136" height="136" stroke="black" fill="red" fill-opacity="0.1" id="92">
<title>sprite_92</title>
</rect>
<rect x="2952" y="2156" width="136" height="136" stroke="black" fill="red" fill-opacity="0.1" id="93">
<title>sprite_93</title>
</rect>
<rect x="3088" y="2156" width="136" height="136" stroke="black" fill="red" fill-opacity="0.1" id="94">
<title>sprite_94</title>
</rect>
<rect x="3224" y="2156" width="136" height="136" stroke="black" fill="red" fill-opacity="0.1" id="95">
<title>sprite_95</title>
</rect>
<rect x="3360" y="2156" width="136" height="136" stroke="black" fill="red" fill-opacity="0.1" id="96">
<title>sprite_96</title>
</rect>
<rect x="3496" y="2156" width="136" height="136" stroke="black" fill="red" fill-opacity="0.1" id="97">
<title>sprite_97</title>
</rect>
<rect x="3632" y="2156" width="136" height="136" stroke="black" fill="red" fill-opacity="0.1" id="98">
<title>sprite_98</title>
</rect>
<rect x="3768" y="2156" width="136" height="136" stroke="black" fill="red" fill-opacity="0.1" id="99">
<title>sprite_99</title>
</rect>
<rect x="3904" y="2156" width="136" height="136" stroke="black" fill="red" fill-opacity="0.1" id="100">
<title>sprite_100</title>
</rect>
<rect x="3448" y="2504" width="136" height="136" stroke="black" fill="red" fill-opacity="0.1" id="101">
<title>sprite_101</title>
</rect>
<rect x="3584" y="2520" width="144" height="120" stroke="black" fill="red" fill-opacity="0.1" id="102">
<title>sprite_102</title>
</rect>
<rect x="3072" y="0" width="604" height="112" stroke="black" fill="red" fill-opacity="0.1" id="103">
<title>sprite_103</title>
</rect>
<rect x="3676" y="4" width="108" height="108" stroke="black" fill="red" fill-opacity="0.1" id="104">
<title>sprite_104</title>
</rect>
<rect x="2952" y="3292" width="676" height="104" stroke="black" fill="red" fill-opacity="0.1" id="105">
<title>sprite_105</title>
</rect>
<rect x="504" y="2060" width="572" height="96" stroke="black" fill="red" fill-opacity="0.1" id="106">
<title>sprite_106</title>
</rect>
<rect x="1076" y="2064" width="760" height="92" stroke="black" fill="red" fill-opacity="0.1" id="107">
<title>sprite_107</title>
</rect>
<rect x="1836" y="2064" width="760" height="92" stroke="black" fill="red" fill-opacity="0.1" id="108">
<title>sprite_108</title>
</rect>
<rect x="2596" y="2072" width="144" height="84" stroke="black" fill="red" fill-opacity="0.1" id="109">
<title>sprite_109</title>
</rect>
<rect x="2740" y="2076" width="760" height="80" stroke="black" fill="red" fill-opacity="0.1" id="110">
<title>sprite_110</title>
</rect>
<rect x="2952" y="3212" width="760" height="80" stroke="black" fill="red" fill-opacity="0.1" id="111">
<title>sprite_111</title>
</rect>
</svg>