<?xml version="1.0" encoding="UTF-8"?>
<svg xmlns="http://www.w3.org/2000/svg" xmlns:xlink="http://www.w3.org/1999/xlink"
     width="1024" height="1024" viewBox="0 0 1024 1024">
<defs>
</defs>
<rect x="0" y="514" width="126" height="510" stroke="black" fill="red" fill-opacity="0.1" />
<rect x="126" y="896" width="128" height="128" stroke="black" fill="red" fill-opacity="0.1" />
<rect x="254" y="896" width="128" height="128" stroke="black" fill="red" fill-opacity="0.1" />
<rect x="382" y="896" width="128" height="128" stroke="black" fill="red" fill-opacity="0.1" />
<rect x="510" y="896" width="128" height="128" stroke="black" fill="red" fill-opacity="0.1" />
<rect x="638" y="896" width="128" height="128" stroke="black" fill="red" fill-opacity="0.1" />
<rect x="766" y="896" width="128" height="128" stroke="black" fill="red" fill-opacity="0.1" />
<rect x="894" y="896" width="128" height="128" stroke="black" fill="red" fill-opacity="0.1" />
<rect x="0" y="386" width="128" height="128" stroke="black" fill="red" fill-opacity="0.1" />
<rect x="128" y="386" width="128" height="128" stroke="black" fill="red" fill-opacity="0.1" />
<rect x="256" y="386" width="128" height="128" stroke="black" fill="red" fill-opacity="0.1" />
<rect x="384" y="386" width="128" height="128" stroke="black" fill="red" fill-opacity="0.1" />
<rect x="512" y="386" width="128" height="128" stroke="black" fill="red" fill-opacity="0.1" />
<rect x="640" y="386" width="128" height="128" stroke="black" fill="red" fill-opacity="0.1" />
<rect x="768" y="386" width="128" height="128" stroke="black" fill="red" fill-opacity="0.1" />
<rect x="896" y="386" width="128" height="128" stroke="black" fill="red" fill-opacity="0.1" />
<rect x="0" y="258" width="128" height="128" stroke="black" fill="red" fill-opacity="0.1" />
<rect x="128" y="258" width="128" height="128" stroke="black" fill="red" fill-opacity="0.1" />
<rect x="256" y="258" width="128" height="128" stroke="black" fill="red" fill-opacity="0.1" />
<rect x="384" y="258" width="128" height="128" stroke="black" fill="red" fill-opacity="0.1" />
<rect x="512" y="258" width="128" height="128" stroke="black" fill="red" fill-opacity="0.1" />
<rect x="640" y="258" width="128" height="128" stroke="black" fill="red" fill-opacity="0.1" />
<rect x="768" y="258" width="128" height="128" stroke="black" fill="red" fill-opacity="0.1" />
<rect x="896" y="258" width="128" height="128" stroke="black" fill="red" fill-opacity="0.1" />
<rect x="0" y="130" width="128" height="128" stroke="black" fill="red" fill-opacity="0.1" />
<rect x="128" y="130" width="128" height="128" stroke="black" fill="red" fill-opacity="0.1" />
<rect x="256" y="130" width="128" height="128" stroke="black" fill="red" fill-opacity="0.1" />
<rect x="384" y="130" width="128" height="128" stroke="black" fill="red" fill-opacity="0.1" />
<rect x="512" y="130" width="128" height="128" stroke="black" fill="red" fill-opacity="0.1" />
<rect x="640" y="130" width="128" height="128" stroke="black" fill="red" fill-opacity="0.1" />
<rect x="768" y="130" width="128" height="128" stroke="black" fill="red" fill-opacity="0.1" />
<rect x="896" y="130" width="128" height="128" stroke="black" fill="red" fill-opacity="0.1" />
<rect x="0" y="2" width="128" height="128" stroke="black" fill="red" fill-opacity="0.1" />
<rect x="128" y="2" width="128" height="128" stroke="black" fill="red" fill-opacity="0.1" />
<rect x="256" y="2" width="128" height="128" stroke="black" fill="red" fill-opacity="0.1" />
<rect x="384" y="2" width="128" height="128" stroke="black" fill="red" fill-opacity="0.1" />
<rect x="512" y="2" width="128" height="128" stroke="black" fill="red" fill-opacity="0.1" />
<rect x="640" y="2" width="128" height="128" stroke="black" fill="red" fill-opacity="0.1" />
<rect x="768" y="28" width="102" height="102" stroke="black" fill="red" fill-opacity="0.1" />
<rect x="870" y="28" width="102" height="102" stroke="black" fill="red" fill-opacity="0.1" />
<rect x="126" y="794" width="102" height="102" stroke="black" fill="red" fill-opacity="0.1" />
<rect x="228" y="794" width="102" height="102" stroke="black" fill="red" fill-opacity="0.1" />
<rect x="330" y="794" width="102" height="102" stroke="black" fill="red" fill-opacity="0.1" />
<rect x="432" y="794" width="102" height="102" stroke="black" fill="red" fill-opacity="0.1" />
<rect x="534" y="794" width="102" height="102" stroke="black" fill="red" fill-opacity="0.1" />
<rect x="636" y="794" width="102" height="102" stroke="black" fill="red" fill-opacity="0.1" />
<rect x="126" y="707" width="456" height="87" stroke="black" fill="red" fill-opacity="0.1" />
<rect x="582" y="707" width="368" height="87" stroke="black" fill="red" fill-opacity="0.1" />
<rect x="126" y="620" width="368" height="87" stroke="black" fill="red" fill-opacity="0.1" />
<rect x="494" y="620" width="368" height="87" stroke="black" fill="red" fill-opacity="0.1" />
<rect x="972" y="83" width="49" height="47" stroke="black" fill="red" fill-opacity="0.1" />
<rect x="862" y="660" width="49" height="47" stroke="black" fill="red" fill-opacity="0.1" />
<rect x="911" y="660" width="47" height="47" stroke="black" fill="red" fill-opacity="0.1" />
<rect x="958" y="660" width="47" height="47" stroke="black" fill="red" fill-opacity="0.1" />
<rect x="950" y="747" width="47" height="47" stroke="black" fill="red" fill-opacity="0.1" />
<rect x="738" y="849" width="47" height="47" stroke="black" fill="red" fill-opacity="0.1" />
<rect x="785" y="849" width="47" height="47" stroke="black" fill="red" fill-opacity="0.1" />
<rect x="832" y="849" width="47" height="47" stroke="black" fill="red" fill-opacity="0.1" />
<rect x="879" y="849" width="47" height="47" stroke="black" fill="red" fill-opacity="0.1" />
<rect x="926" y="849" width="47" height="47" stroke="black" fill="red" fill-opacity="0.1" />
<rect x="973" y="849" width="46" height="47" stroke="black" fill="red" fill-opacity="0.1" />
<rect x="972" y="36" width="46" height="47" stroke="black" fill="red" fill-opacity="0.1" />
<rect x="126" y="573" width="46" height="47" stroke="black" fill="red" fill-opacity="0.1" />
<rect x="172" y="573" width="46" height="47" stroke="black" fill="red" fill-opacity="0.1" />
<rect x="218" y="573" width="45" height="47" stroke="black" fill="red" fill-opacity="0.1" />
<rect x="263" y="573" width="45" height="47" stroke="black" fill="red" fill-opacity="0.1" />
<rect x="308" y="573" width="45" height="47" stroke="black" fill="red" fill-opacity="0.1" />
<rect x="353" y="573" width="45" height="47" stroke="black" fill="red" fill-opacity="0.1" />
<rect x="398" y="573" width="29" height="47" stroke="black" fill="red" fill-opacity="0.1" />
<rect x="427" y="577" width="156" height="43" stroke="black" fill="red" fill-opacity="0.1" />
<rect x="583" y="578" width="185" height="42" stroke="black" fill="red" fill-opacity="0.1" />
<rect x="768" y="578" width="176" height="42" stroke="black" fill="red" fill-opacity="0.1" />
<rect x="944" y="581" width="40" height="39" stroke="black" fill="red" fill-opacity="0.1" />
<rect x="984" y="586" width="34" height="34" stroke="black" fill="red" fill-opacity="0.1" />
<rect x="972" y="2" width="34" height="34" stroke="black" fill="red" fill-opacity="0.1" />
<rect x="126" y="539" width="34" height="34" stroke="black" fill="red" fill-opacity="0.1" />
<rect x="160" y="539" width="34" height="34" stroke="black" fill="red" fill-opacity="0.1" />
<rect x="194" y="539" width="34" height="34" stroke="black" fill="red" fill-opacity="0.1" />
<rect x="228" y="539" width="34" height="34" stroke="black" fill="red" fill-opacity="0.1" />
<rect x="262" y="539" width="34" height="34" stroke="black" fill="red" fill-opacity="0.1" />
<rect x="296" y="539" width="34" height="34" stroke="black" fill="red" fill-opacity="0.1" />
<rect x="330" y="539" width="34" height="34" stroke="black" fill="red" fill-opacity="0.1" />
<rect x="364" y="539" width="34" height="34" stroke="black" fill="red" fill-opacity="0.1" />
<rect x="398" y="539" width="34" height="34" stroke="black" fill="red" fill-opacity="0.1" />
<rect x="432" y="539" width="34" height="34" stroke="black" fill="red" fill-opacity="0.1" />
<rect x="466" y="539" width="34" height="34" stroke="black" fill="red" fill-opacity="0.1" />
<rect x="500" y="539" width="34" height="34" stroke="black" fill="red" fill-opacity="0.1" />
<rect x="534" y="539" width="34" height="34" stroke="black" fill="red" fill-opacity="0.1" />
<rect x="568" y="539" width="34" height="34" stroke="black" fill="red" fill-opacity="0.1" />
<rect x="602" y="539" width="34" height="34" stroke="black" fill="red" fill-opacity="0.1" />
<rect x="636" y="539" width="34" height="34" stroke="black" fill="red" fill-opacity="0.1" />
<rect x="670" y="539" width="34" height="34" stroke="black" fill="red" fill-opacity="0.1" />
<rect x="704" y="539" width="34" height="34" stroke="black" fill="red" fill-opacity="0.1" />
<rect x="738" y="539" width="34" height="34" stroke="black" fill="red" fill-opacity="0.1" />
<rect x="772" y="539" width="34" height="34" stroke="black" fill="red" fill-opacity="0.1" />
<rect x="806" y="539" width="34" height="34" stroke="black" fill="red" fill-opacity="0.1" />
<rect x="840" y="539" width="34" height="34" stroke="black" fill="red" fill-opacity="0.1" />
<rect x="874" y="539" width="34" height="34" stroke="black" fill="red" fill-opacity="0.1" />
<rect x="908" y="539" width="34" height="34" stroke="black" fill="red" fill-opacity="0.1" />
<rect x="942" y="539" width="34" height="34" stroke="black" fill="red" fill-opacity="0.1" />
<rect x="976" y="539" width="34" height="34" stroke="black" fill="red" fill-opacity="0.1" />
<rect x="862" y="626" width="34" height="34" stroke="black" fill="red" fill-opacity="0.1" />
<rect x="896" y="630" width="36" height="30" stroke="black" fill="red" fill-opacity="0.1" />
<rect x="768" y="0" width="151" height="28" stroke="black" fill="red" fill-opacity="0.1" />
<rect x="919" y="1" width="27" height="27" stroke="black" fill="red" fill-opacity="0.1" />
<rect x="738" y="823" width="169" height="26" stroke="black" fill="red" fill-opacity="0.1" />
<rect x="126" y="515" width="143" height="24" stroke="black" fill="red" fill-opacity="0.1" />
<rect x="269" y="516" width="190" height="23" stroke="black" fill="red" fill-opacity="0.1" />
<rect x="459" y="516" width="190" height="23" stroke="black" fill="red" fill-opacity="0.1" />
<rect x="649" y="518" width="36" height="21" stroke="black" fill="red" fill-opacity="0.1" />
<rect x="685" y="519" width="190" height="20" stroke="black" fill="red" fill-opacity="0.1" />
<rect x="738" y="803" width="190" height="20" stroke="black" fill="red" fill-opacity="0.1" />
</svg>