<?xml version="1.0" encoding="UTF-8"?>
<svg xmlns="http://www.w3.org/2000/svg" xmlns:xlink="http://www.w3.org/1999/xlink"
     width="1024" height="512" viewBox="0 0 1024 512">
<defs>
</defs>
<rect x="0" y="386" width="126" height="126" stroke="black" fill="red" fill-opacity="0.1" />
<rect x="0" y="319" width="104" height="67" stroke="black" fill="red" fill-opacity="0.1" />
<rect x="0" y="261" width="102" height="58" stroke="black" fill="red" fill-opacity="0.1" />
<rect x="0" y="209" width="102" height="52" stroke="black" fill="red" fill-opacity="0.1" />
<rect x="0" y="159" width="105" height="50" stroke="black" fill="red" fill-opacity="0.1" />
<rect x="0" y="116" width="200" height="43" stroke="black" fill="red" fill-opacity="0.1" />
<rect x="0" y="79" width="103" height="37" stroke="black" fill="red" fill-opacity="0.1" />
<rect x="0" y="52" width="187" height="27" stroke="black" fill="red" fill-opacity="0.1" />
<rect x="0" y="29" width="190" height="23" stroke="black" fill="red" fill-opacity="0.1" />
<rect x="0" y="9" width="190" height="20" stroke="black" fill="red" fill-opacity="0.1" />
<rect x="190" y="9" width="190" height="20" stroke="black" fill="red" fill-opacity="0.1" />
<rect x="380" y="9" width="190" height="20" stroke="black" fill="red" fill-opacity="0.1" />
<rect x="570" y="27" width="104" height="2" stroke="black" fill="red" fill-opacity="0.1" />
<rect x="190" y="29" width="190" height="23" stroke="black" fill="red" fill-opacity="0.1" />
<rect x="380" y="29" width="67" height="23" stroke="black" fill="red" fill-opacity="0.1" />
<rect x="447" y="32" width="190" height="20" stroke="black" fill="red" fill-opacity="0.1" />
<rect x="637" y="32" width="190" height="20" stroke="black" fill="red" fill-opacity="0.1" />
<rect x="827" y="32" width="190" height="20" stroke="black" fill="red" fill-opacity="0.1" />
<rect x="187" y="52" width="187" height="27" stroke="black" fill="red" fill-opacity="0.1" />
<rect x="374" y="52" width="100" height="27" stroke="black" fill="red" fill-opacity="0.1" />
<rect x="474" y="52" width="100" height="27" stroke="black" fill="red" fill-opacity="0.1" />
<rect x="574" y="52" width="32" height="27" stroke="black" fill="red" fill-opacity="0.1" />
<rect x="606" y="52" width="28" height="27" stroke="black" fill="red" fill-opacity="0.1" />
<rect x="634" y="52" width="28" height="27" stroke="black" fill="red" fill-opacity="0.1" />
<rect x="662" y="56" width="190" height="23" stroke="black" fill="red" fill-opacity="0.1" />
<rect x="103" y="83" width="103" height="33" stroke="black" fill="red" fill-opacity="0.1" />
<rect x="206" y="84" width="114" height="32" stroke="black" fill="red" fill-opacity="0.1" />
<rect x="320" y="84" width="105" height="32" stroke="black" fill="red" fill-opacity="0.1" />
<rect x="425" y="86" width="104" height="30" stroke="black" fill="red" fill-opacity="0.1" />
<rect x="529" y="88" width="100" height="28" stroke="black" fill="red" fill-opacity="0.1" />
<rect x="629" y="88" width="30" height="28" stroke="black" fill="red" fill-opacity="0.1" />
<rect x="659" y="88" width="28" height="28" stroke="black" fill="red" fill-opacity="0.1" />
<rect x="687" y="89" width="187" height="27" stroke="black" fill="red" fill-opacity="0.1" />
<rect x="200" y="117" width="189" height="42" stroke="black" fill="red" fill-opacity="0.1" />
<rect x="389" y="117" width="182" height="42" stroke="black" fill="red" fill-opacity="0.1" />
<rect x="571" y="117" width="164" height="42" stroke="black" fill="red" fill-opacity="0.1" />
<rect x="735" y="117" width="161" height="42" stroke="black" fill="red" fill-opacity="0.1" />
<rect x="896" y="119" width="105" height="40" stroke="black" fill="red" fill-opacity="0.1" />
<rect x="105" y="159" width="77" height="50" stroke="black" fill="red" fill-opacity="0.1" />
<rect x="182" y="160" width="90" height="49" stroke="black" fill="red" fill-opacity="0.1" />
<rect x="272" y="160" width="80" height="49" stroke="black" fill="red" fill-opacity="0.1" />
<rect x="352" y="161" width="80" height="48" stroke="black" fill="red" fill-opacity="0.1" />
<rect x="432" y="161" width="79" height="48" stroke="black" fill="red" fill-opacity="0.1" />
<rect x="511" y="161" width="78" height="48" stroke="black" fill="red" fill-opacity="0.1" />
<rect x="589" y="161" width="46" height="48" stroke="black" fill="red" fill-opacity="0.1" />
<rect x="635" y="162" width="103" height="47" stroke="black" fill="red" fill-opacity="0.1" />
<rect x="738" y="162" width="29" height="47" stroke="black" fill="red" fill-opacity="0.1" />
<rect x="767" y="163" width="103" height="46" stroke="black" fill="red" fill-opacity="0.1" />
<rect x="870" y="163" width="103" height="46" stroke="black" fill="red" fill-opacity="0.1" />
<rect x="102" y="210" width="105" height="51" stroke="black" fill="red" fill-opacity="0.1" />
<rect x="207" y="210" width="103" height="51" stroke="black" fill="red" fill-opacity="0.1" />
<rect x="310" y="210" width="103" height="51" stroke="black" fill="red" fill-opacity="0.1" />
<rect x="413" y="210" width="102" height="51" stroke="black" fill="red" fill-opacity="0.1" />
<rect x="515" y="210" width="100" height="51" stroke="black" fill="red" fill-opacity="0.1" />
<rect x="615" y="210" width="100" height="51" stroke="black" fill="red" fill-opacity="0.1" />
<rect x="715" y="210" width="100" height="51" stroke="black" fill="red" fill-opacity="0.1" />
<rect x="815" y="211" width="106" height="50" stroke="black" fill="red" fill-opacity="0.1" />
<rect x="921" y="216" width="99" height="45" stroke="black" fill="red" fill-opacity="0.1" />
<rect x="102" y="261" width="99" height="58" stroke="black" fill="red" fill-opacity="0.1" />
<rect x="201" y="261" width="98" height="58" stroke="black" fill="red" fill-opacity="0.1" />
<rect x="299" y="261" width="97" height="58" stroke="black" fill="red" fill-opacity="0.1" />
<rect x="396" y="262" width="104" height="57" stroke="black" fill="red" fill-opacity="0.1" />
<rect x="500" y="263" width="104" height="56" stroke="black" fill="red" fill-opacity="0.1" />
<rect x="604" y="263" width="87" height="56" stroke="black" fill="red" fill-opacity="0.1" />
<rect x="691" y="264" width="88" height="55" stroke="black" fill="red" fill-opacity="0.1" />
<rect x="779" y="265" width="105" height="54" stroke="black" fill="red" fill-opacity="0.1" />
<rect x="884" y="267" width="106" height="52" stroke="black" fill="red" fill-opacity="0.1" />
<rect x="104" y="319" width="93" height="67" stroke="black" fill="red" fill-opacity="0.1" />
<rect x="197" y="320" width="104" height="66" stroke="black" fill="red" fill-opacity="0.1" />
<rect x="301" y="321" width="102" height="65" stroke="black" fill="red" fill-opacity="0.1" />
<rect x="403" y="323" width="104" height="63" stroke="black" fill="red" fill-opacity="0.1" />
<rect x="507" y="324" width="104" height="62" stroke="black" fill="red" fill-opacity="0.1" />
<rect x="611" y="325" width="75" height="61" stroke="black" fill="red" fill-opacity="0.1" />
<rect x="686" y="325" width="71" height="61" stroke="black" fill="red" fill-opacity="0.1" />
<rect x="757" y="327" width="103" height="59" stroke="black" fill="red" fill-opacity="0.1" />
<rect x="860" y="327" width="103" height="59" stroke="black" fill="red" fill-opacity="0.1" />
<rect x="126" y="386" width="126" height="126" stroke="black" fill="red" fill-opacity="0.1" />
<rect x="252" y="392" width="122" height="120" stroke="black" fill="red" fill-opacity="0.1" />
<rect x="374" y="392" width="122" height="120" stroke="black" fill="red" fill-opacity="0.1" />
<rect x="496" y="418" width="126" height="94" stroke="black" fill="red" fill-opacity="0.1" />
<rect x="622" y="418" width="126" height="94" stroke="black" fill="red" fill-opacity="0.1" />
<rect x="748" y="442" width="104" height="70" stroke="black" fill="red" fill-opacity="0.1" />
<rect x="852" y="442" width="87" height="70" stroke="black" fill="red" fill-opacity="0.1" />
</svg>