<?xml version="1.0" encoding="UTF-8"?>
<svg xmlns="http://www.w3.org/2000/svg" xmlns:xlink="http://www.w3.org/1999/xlink"
     width="2048" height="1024" viewBox="0 0 2048 1024">
<defs>
</defs>
<rect x="0" y="792" width="280" height="232" stroke="black" fill="red" fill-opacity="0.1" id="0">
<title>sprite_0</title>
</rect>
<rect x="280" y="792" width="280" height="232" stroke="black" fill="red" fill-opacity="0.1" id="1">
<title>sprite_1</title>
</rect>
<rect x="560" y="792" width="280" height="232" stroke="black" fill="red" fill-opacity="0.1" id="2">
<title>sprite_2</title>
</rect>
<rect x="840" y="792" width="280" height="232" stroke="black" fill="red" fill-opacity="0.1" id="3">
<title>sprite_3</title>
</rect>
<rect x="1120" y="792" width="280" height="232" stroke="black" fill="red" fill-opacity="0.1" id="4">
<title>sprite_4</title>
</rect>
<rect x="1400" y="792" width="280" height="232" stroke="black" fill="red" fill-opacity="0.1" id="5">
<title>sprite_5</title>
</rect>
<rect x="1680" y="792" width="232" height="232" stroke="black" fill="red" fill-opacity="0.1" id="6">
<title>sprite_6</title>
</rect>
<rect x="0" y="560" width="232" height="232" stroke="black" fill="red" fill-opacity="0.1" id="7">
<title>sprite_7</title>
</rect>
<rect x="232" y="560" width="232" height="232" stroke="black" fill="red" fill-opacity="0.1" id="8">
<title>sprite_8</title>
</rect>
<rect x="464" y="560" width="232" height="232" stroke="black" fill="red" fill-opacity="0.1" id="9">
<title>sprite_9</title>
</rect>
<rect x="696" y="560" width="232" height="232" stroke="black" fill="red" fill-opacity="0.1" id="10">
<title>sprite_10</title>
</rect>
<rect x="928" y="560" width="232" height="232" stroke="black" fill="red" fill-opacity="0.1" id="11">
<title>sprite_11</title>
</rect>
<rect x="1160" y="560" width="232" height="232" stroke="black" fill="red" fill-opacity="0.1" id="12">
<title>sprite_12</title>
</rect>
<rect x="1392" y="560" width="232" height="232" stroke="black" fill="red" fill-opacity="0.1" id="13">
<title>sprite_13</title>
</rect>
<rect x="1624" y="580" width="196" height="212" stroke="black" fill="red" fill-opacity="0.1" id="14">
<title>sprite_14</title>
</rect>
<rect x="1820" y="584" width="192" height="208" stroke="black" fill="red" fill-opacity="0.1" id="15">
<title>sprite_15</title>
</rect>
<rect x="0" y="408" width="264" height="152" stroke="black" fill="red" fill-opacity="0.1" id="16">
<title>sprite_16</title>
</rect>
<rect x="264" y="408" width="264" height="152" stroke="black" fill="red" fill-opacity="0.1" id="17">
<title>sprite_17</title>
</rect>
<rect x="528" y="408" width="264" height="152" stroke="black" fill="red" fill-opacity="0.1" id="18">
<title>sprite_18</title>
</rect>
<rect x="792" y="408" width="264" height="152" stroke="black" fill="red" fill-opacity="0.1" id="19">
<title>sprite_19</title>
</rect>
<rect x="1056" y="440" width="200" height="120" stroke="black" fill="red" fill-opacity="0.1" id="20">
<title>sprite_20</title>
</rect>
<rect x="1256" y="440" width="200" height="120" stroke="black" fill="red" fill-opacity="0.1" id="21">
<title>sprite_21</title>
</rect>
<rect x="1456" y="440" width="200" height="120" stroke="black" fill="red" fill-opacity="0.1" id="22">
<title>sprite_22</title>
</rect>
<rect x="1656" y="440" width="200" height="120" stroke="black" fill="red" fill-opacity="0.1" id="23">
<title>sprite_23</title>
</rect>
<rect x="0" y="304" width="776" height="104" stroke="black" fill="red" fill-opacity="0.1" id="24">
<title>sprite_24</title>
</rect>
<rect x="776" y="304" width="776" height="104" stroke="black" fill="red" fill-opacity="0.1" id="25">
<title>sprite_25</title>
</rect>
<rect x="0" y="200" width="504" height="104" stroke="black" fill="red" fill-opacity="0.1" id="26">
<title>sprite_26</title>
</rect>
<rect x="504" y="200" width="88" height="104" stroke="black" fill="red" fill-opacity="0.1" id="27">
<title>sprite_27</title>
</rect>
<rect x="592" y="200" width="88" height="104" stroke="black" fill="red" fill-opacity="0.1" id="28">
<title>sprite_28</title>
</rect>
<rect x="680" y="200" width="88" height="104" stroke="black" fill="red" fill-opacity="0.1" id="29">
<title>sprite_29</title>
</rect>
<rect x="768" y="200" width="88" height="104" stroke="black" fill="red" fill-opacity="0.1" id="30">
<title>sprite_30</title>
</rect>
<rect x="856" y="200" width="88" height="104" stroke="black" fill="red" fill-opacity="0.1" id="31">
<title>sprite_31</title>
</rect>
<rect x="944" y="200" width="88" height="104" stroke="black" fill="red" fill-opacity="0.1" id="32">
<title>sprite_32</title>
</rect>
<rect x="1032" y="248" width="648" height="56" stroke="black" fill="red" fill-opacity="0.1" id="33">
<title>sprite_33</title>
</rect>
</svg>