<?xml version="1.0" encoding="UTF-8"?>
<svg xmlns="http://www.w3.org/2000/svg" xmlns:xlink="http://www.w3.org/1999/xlink"
     width="1024" height="1024" viewBox="0 0 1024 1024">
<defs>
</defs>
<rect x="0" y="702" width="306" height="322" stroke="black" fill="red" fill-opacity="0.1" />
<rect x="306" y="954" width="150" height="70" stroke="black" fill="red" fill-opacity="0.1" />
<rect x="456" y="954" width="150" height="70" stroke="black" fill="red" fill-opacity="0.1" />
<rect x="606" y="962" width="302" height="62" stroke="black" fill="red" fill-opacity="0.1" />
<rect x="0" y="640" width="302" height="62" stroke="black" fill="red" fill-opacity="0.1" />
<rect x="302" y="640" width="302" height="62" stroke="black" fill="red" fill-opacity="0.1" />
<rect x="604" y="640" width="302" height="62" stroke="black" fill="red" fill-opacity="0.1" />
<rect x="0" y="578" width="302" height="62" stroke="black" fill="red" fill-opacity="0.1" />
<rect x="302" y="578" width="302" height="62" stroke="black" fill="red" fill-opacity="0.1" />
<rect x="604" y="578" width="302" height="62" stroke="black" fill="red" fill-opacity="0.1" />
<rect x="0" y="516" width="302" height="62" stroke="black" fill="red" fill-opacity="0.1" />
<rect x="302" y="516" width="62" height="62" stroke="black" fill="red" fill-opacity="0.1" />
<rect x="0" y="466" width="685" height="50" stroke="black" fill="red" fill-opacity="0.1" />
<rect x="364" y="528" width="410" height="50" stroke="black" fill="red" fill-opacity="0.1" />
<rect x="685" y="466" width="310" height="50" stroke="black" fill="red" fill-opacity="0.1" />
<rect x="0" y="416" width="310" height="50" stroke="black" fill="red" fill-opacity="0.1" />
<rect x="310" y="416" width="150" height="50" stroke="black" fill="red" fill-opacity="0.1" />
<rect x="460" y="416" width="150" height="50" stroke="black" fill="red" fill-opacity="0.1" />
<rect x="610" y="416" width="150" height="50" stroke="black" fill="red" fill-opacity="0.1" />
<rect x="760" y="416" width="150" height="50" stroke="black" fill="red" fill-opacity="0.1" />
<rect x="774" y="528" width="150" height="50" stroke="black" fill="red" fill-opacity="0.1" />
<rect x="0" y="366" width="150" height="50" stroke="black" fill="red" fill-opacity="0.1" />
<rect x="150" y="366" width="150" height="50" stroke="black" fill="red" fill-opacity="0.1" />
<rect x="300" y="366" width="150" height="50" stroke="black" fill="red" fill-opacity="0.1" />
<rect x="450" y="366" width="150" height="50" stroke="black" fill="red" fill-opacity="0.1" />
<rect x="600" y="366" width="150" height="50" stroke="black" fill="red" fill-opacity="0.1" />
<rect x="750" y="366" width="150" height="50" stroke="black" fill="red" fill-opacity="0.1" />
<rect x="0" y="316" width="150" height="50" stroke="black" fill="red" fill-opacity="0.1" />
<rect x="150" y="316" width="150" height="50" stroke="black" fill="red" fill-opacity="0.1" />
<rect x="300" y="316" width="150" height="50" stroke="black" fill="red" fill-opacity="0.1" />
<rect x="450" y="316" width="150" height="50" stroke="black" fill="red" fill-opacity="0.1" />
<rect x="600" y="316" width="90" height="50" stroke="black" fill="red" fill-opacity="0.1" />
<rect x="690" y="316" width="90" height="50" stroke="black" fill="red" fill-opacity="0.1" />
<rect x="780" y="316" width="90" height="50" stroke="black" fill="red" fill-opacity="0.1" />
<rect x="870" y="316" width="90" height="50" stroke="black" fill="red" fill-opacity="0.1" />
<rect x="900" y="366" width="90" height="50" stroke="black" fill="red" fill-opacity="0.1" />
<rect x="910" y="416" width="70" height="50" stroke="black" fill="red" fill-opacity="0.1" />
<rect x="960" y="316" width="62" height="50" stroke="black" fill="red" fill-opacity="0.1" />
<rect x="924" y="528" width="62" height="50" stroke="black" fill="red" fill-opacity="0.1" />
<rect x="906" y="590" width="50" height="50" stroke="black" fill="red" fill-opacity="0.1" />
<rect x="0" y="274" width="322" height="42" stroke="black" fill="red" fill-opacity="0.1" />
<rect x="322" y="274" width="258" height="42" stroke="black" fill="red" fill-opacity="0.1" />
<rect x="580" y="276" width="38" height="40" stroke="black" fill="red" fill-opacity="0.1" />
<rect x="618" y="286" width="310" height="30" stroke="black" fill="red" fill-opacity="0.1" />
<rect x="0" y="244" width="310" height="30" stroke="black" fill="red" fill-opacity="0.1" />
<rect x="310" y="244" width="310" height="30" stroke="black" fill="red" fill-opacity="0.1" />
<rect x="620" y="244" width="270" height="30" stroke="black" fill="red" fill-opacity="0.1" />
<rect x="890" y="244" width="126" height="30" stroke="black" fill="red" fill-opacity="0.1" />
<rect x="928" y="286" width="90" height="30" stroke="black" fill="red" fill-opacity="0.1" />
<rect x="906" y="672" width="70" height="30" stroke="black" fill="red" fill-opacity="0.1" />
<rect x="956" y="610" width="50" height="30" stroke="black" fill="red" fill-opacity="0.1" />
<rect x="908" y="994" width="50" height="30" stroke="black" fill="red" fill-opacity="0.1" />
<rect x="990" y="386" width="30" height="30" stroke="black" fill="red" fill-opacity="0.1" />
<rect x="980" y="436" width="30" height="30" stroke="black" fill="red" fill-opacity="0.1" />
<rect x="986" y="548" width="30" height="30" stroke="black" fill="red" fill-opacity="0.1" />
<rect x="976" y="672" width="30" height="30" stroke="black" fill="red" fill-opacity="0.1" />
<rect x="958" y="994" width="30" height="30" stroke="black" fill="red" fill-opacity="0.1" />
<rect x="988" y="994" width="30" height="30" stroke="black" fill="red" fill-opacity="0.1" />
<rect x="0" y="214" width="30" height="30" stroke="black" fill="red" fill-opacity="0.1" />
<rect x="30" y="214" width="30" height="30" stroke="black" fill="red" fill-opacity="0.1" />
<rect x="60" y="214" width="30" height="30" stroke="black" fill="red" fill-opacity="0.1" />
<rect x="90" y="214" width="30" height="30" stroke="black" fill="red" fill-opacity="0.1" />
<rect x="120" y="218" width="22" height="26" stroke="black" fill="red" fill-opacity="0.1" />
<rect x="142" y="218" width="22" height="26" stroke="black" fill="red" fill-opacity="0.1" />
<rect x="164" y="222" width="150" height="22" stroke="black" fill="red" fill-opacity="0.1" />
<rect x="314" y="222" width="150" height="22" stroke="black" fill="red" fill-opacity="0.1" />
<rect x="464" y="222" width="150" height="22" stroke="black" fill="red" fill-opacity="0.1" />
<rect x="614" y="222" width="150" height="22" stroke="black" fill="red" fill-opacity="0.1" />
<rect x="764" y="222" width="150" height="22" stroke="black" fill="red" fill-opacity="0.1" />
<rect x="0" y="192" width="150" height="22" stroke="black" fill="red" fill-opacity="0.1" />
<rect x="150" y="192" width="150" height="22" stroke="black" fill="red" fill-opacity="0.1" />
<rect x="300" y="192" width="150" height="22" stroke="black" fill="red" fill-opacity="0.1" />
<rect x="450" y="192" width="150" height="22" stroke="black" fill="red" fill-opacity="0.1" />
<rect x="600" y="192" width="150" height="22" stroke="black" fill="red" fill-opacity="0.1" />
<rect x="750" y="192" width="150" height="22" stroke="black" fill="red" fill-opacity="0.1" />
<rect x="0" y="170" width="150" height="22" stroke="black" fill="red" fill-opacity="0.1" />
<rect x="150" y="170" width="150" height="22" stroke="black" fill="red" fill-opacity="0.1" />
<rect x="300" y="170" width="42" height="22" stroke="black" fill="red" fill-opacity="0.1" />
<rect x="342" y="170" width="42" height="22" stroke="black" fill="red" fill-opacity="0.1" />
<rect x="384" y="174" width="90" height="18" stroke="black" fill="red" fill-opacity="0.1" />
<rect x="474" y="174" width="90" height="18" stroke="black" fill="red" fill-opacity="0.1" />
<rect x="564" y="174" width="90" height="18" stroke="black" fill="red" fill-opacity="0.1" />
<rect x="654" y="174" width="90" height="18" stroke="black" fill="red" fill-opacity="0.1" />
<rect x="744" y="174" width="90" height="18" stroke="black" fill="red" fill-opacity="0.1" />
<rect x="834" y="174" width="90" height="18" stroke="black" fill="red" fill-opacity="0.1" />
<rect x="924" y="174" width="90" height="18" stroke="black" fill="red" fill-opacity="0.1" />
<rect x="900" y="196" width="90" height="18" stroke="black" fill="red" fill-opacity="0.1" />
<rect x="914" y="226" width="90" height="18" stroke="black" fill="red" fill-opacity="0.1" />
<rect x="0" y="152" width="90" height="18" stroke="black" fill="red" fill-opacity="0.1" />
<rect x="90" y="152" width="18" height="18" stroke="black" fill="red" fill-opacity="0.1" />
<rect x="108" y="152" width="18" height="18" stroke="black" fill="red" fill-opacity="0.1" />
<rect x="126" y="152" width="18" height="18" stroke="black" fill="red" fill-opacity="0.1" />
<rect x="144" y="152" width="18" height="18" stroke="black" fill="red" fill-opacity="0.1" />
<rect x="162" y="152" width="18" height="18" stroke="black" fill="red" fill-opacity="0.1" />
<rect x="180" y="152" width="18" height="18" stroke="black" fill="red" fill-opacity="0.1" />
<rect x="198" y="152" width="18" height="18" stroke="black" fill="red" fill-opacity="0.1" />
<rect x="216" y="152" width="18" height="18" stroke="black" fill="red" fill-opacity="0.1" />
<rect x="234" y="152" width="18" height="18" stroke="black" fill="red" fill-opacity="0.1" />
<rect x="252" y="152" width="18" height="18" stroke="black" fill="red" fill-opacity="0.1" />
<rect x="270" y="152" width="18" height="18" stroke="black" fill="red" fill-opacity="0.1" />
<rect x="288" y="152" width="18" height="18" stroke="black" fill="red" fill-opacity="0.1" />
<rect x="306" y="156" width="14" height="14" stroke="black" fill="red" fill-opacity="0.1" />
<rect x="320" y="156" width="14" height="14" stroke="black" fill="red" fill-opacity="0.1" />
<rect x="334" y="166" width="370" height="4" stroke="black" fill="red" fill-opacity="0.1" />
<rect x="0" y="148" width="330" height="4" stroke="black" fill="red" fill-opacity="0.1" />
<rect x="330" y="149" width="411" height="3" stroke="black" fill="red" fill-opacity="0.1" />
</svg>