<?xml version="1.0" encoding="UTF-8"?>
<svg xmlns="http://www.w3.org/2000/svg" xmlns:xlink="http://www.w3.org/1999/xlink"
     width="1024" height="1024" viewBox="0 0 1024 1024">
<defs>
</defs>
<rect x="0" y="702" width="306" height="322" stroke="black" fill="red" fill-opacity="0.1" id="0">
<title>sprite_2</title>
</rect>
<rect x="306" y="954" width="150" height="70" stroke="black" fill="red" fill-opacity="0.1" id="1">
<title>sprite_3</title>
</rect>
<rect x="456" y="954" width="150" height="70" stroke="black" fill="red" fill-opacity="0.1" id="2">
<title>sprite_4</title>
</rect>
<rect x="606" y="962" width="302" height="62" stroke="black" fill="red" fill-opacity="0.1" id="3">
<title>sprite_5</title>
</rect>
<rect x="0" y="640" width="302" height="62" stroke="black" fill="red" fill-opacity="0.1" id="4">
<title>sprite_6</title>
</rect>
<rect x="302" y="640" width="302" height="62" stroke="black" fill="red" fill-opacity="0.1" id="5">
<title>sprite_7</title>
</rect>
<rect x="604" y="640" width="302" height="62" stroke="black" fill="red" fill-opacity="0.1" id="6">
<title>sprite_8</title>
</rect>
<rect x="0" y="578" width="302" height="62" stroke="black" fill="red" fill-opacity="0.1" id="7">
<title>sprite_9</title>
</rect>
<rect x="302" y="578" width="302" height="62" stroke="black" fill="red" fill-opacity="0.1" id="8">
<title>sprite_10</title>
</rect>
<rect x="604" y="578" width="302" height="62" stroke="black" fill="red" fill-opacity="0.1" id="9">
<title>sprite_11</title>
</rect>
<rect x="0" y="516" width="302" height="62" stroke="black" fill="red" fill-opacity="0.1" id="10">
<title>sprite_12</title>
</rect>
<rect x="302" y="516" width="62" height="62" stroke="black" fill="red" fill-opacity="0.1" id="11">
<title>sprite_13</title>
</rect>
<rect x="0" y="466" width="685" height="50" stroke="black" fill="red" fill-opacity="0.1" id="12">
<title>sprite_14</title>
</rect>
<rect x="364" y="528" width="410" height="50" stroke="black" fill="red" fill-opacity="0.1" id="13">
<title>sprite_15</title>
</rect>
<rect x="685" y="466" width="310" height="50" stroke="black" fill="red" fill-opacity="0.1" id="14">
<title>sprite_16</title>
</rect>
<rect x="0" y="416" width="310" height="50" stroke="black" fill="red" fill-opacity="0.1" id="15">
<title>sprite_17</title>
</rect>
<rect x="310" y="416" width="150" height="50" stroke="black" fill="red" fill-opacity="0.1" id="16">
<title>sprite_18</title>
</rect>
<rect x="460" y="416" width="150" height="50" stroke="black" fill="red" fill-opacity="0.1" id="17">
<title>sprite_19</title>
</rect>
<rect x="610" y="416" width="150" height="50" stroke="black" fill="red" fill-opacity="0.1" id="18">
<title>sprite_20</title>
</rect>
<rect x="760" y="416" width="150" height="50" stroke="black" fill="red" fill-opacity="0.1" id="19">
<title>sprite_21</title>
</rect>
<rect x="774" y="528" width="150" height="50" stroke="black" fill="red" fill-opacity="0.1" id="20">
<title>sprite_22</title>
</rect>
<rect x="0" y="366" width="150" height="50" stroke="black" fill="red" fill-opacity="0.1" id="21">
<title>sprite_23</title>
</rect>
<rect x="150" y="366" width="150" height="50" stroke="black" fill="red" fill-opacity="0.1" id="22">
<title>sprite_24</title>
</rect>
<rect x="300" y="366" width="150" height="50" stroke="black" fill="red" fill-opacity="0.1" id="23">
<title>sprite_25</title>
</rect>
<rect x="450" y="366" width="150" height="50" stroke="black" fill="red" fill-opacity="0.1" id="24">
<title>sprite_26</title>
</rect>
<rect x="600" y="366" width="150" height="50" stroke="black" fill="red" fill-opacity="0.1" id="25">
<title>sprite_27</title>
</rect>
<rect x="750" y="366" width="150" height="50" stroke="black" fill="red" fill-opacity="0.1" id="26">
<title>sprite_28</title>
</rect>
<rect x="0" y="316" width="150" height="50" stroke="black" fill="red" fill-opacity="0.1" id="27">
<title>sprite_29</title>
</rect>
<rect x="150" y="316" width="150" height="50" stroke="black" fill="red" fill-opacity="0.1" id="28">
<title>sprite_30</title>
</rect>
<rect x="300" y="316" width="150" height="50" stroke="black" fill="red" fill-opacity="0.1" id="29">
<title>sprite_31</title>
</rect>
<rect x="450" y="316" width="150" height="50" stroke="black" fill="red" fill-opacity="0.1" id="30">
<title>sprite_32</title>
</rect>
<rect x="600" y="316" width="90" height="50" stroke="black" fill="red" fill-opacity="0.1" id="31">
<title>sprite_33</title>
</rect>
<rect x="690" y="316" width="90" height="50" stroke="black" fill="red" fill-opacity="0.1" id="32">
<title>sprite_34</title>
</rect>
<rect x="780" y="316" width="90" height="50" stroke="black" fill="red" fill-opacity="0.1" id="33">
<title>sprite_35</title>
</rect>
<rect x="870" y="316" width="90" height="50" stroke="black" fill="red" fill-opacity="0.1" id="34">
<title>sprite_36</title>
</rect>
<rect x="900" y="366" width="90" height="50" stroke="black" fill="red" fill-opacity="0.1" id="35">
<title>sprite_37</title>
</rect>
<rect x="910" y="416" width="70" height="50" stroke="black" fill="red" fill-opacity="0.1" id="36">
<title>sprite_38</title>
</rect>
<rect x="960" y="316" width="62" height="50" stroke="black" fill="red" fill-opacity="0.1" id="37">
<title>sprite_39</title>
</rect>
<rect x="924" y="528" width="62" height="50" stroke="black" fill="red" fill-opacity="0.1" id="38">
<title>sprite_40</title>
</rect>
<rect x="906" y="590" width="50" height="50" stroke="black" fill="red" fill-opacity="0.1" id="39">
<title>sprite_41</title>
</rect>
<rect x="0" y="274" width="322" height="42" stroke="black" fill="red" fill-opacity="0.1" id="40">
<title>sprite_42</title>
</rect>
<rect x="322" y="274" width="258" height="42" stroke="black" fill="red" fill-opacity="0.1" id="41">
<title>sprite_43</title>
</rect>
<rect x="580" y="276" width="38" height="40" stroke="black" fill="red" fill-opacity="0.1" id="42">
<title>sprite_44</title>
</rect>
<rect x="618" y="286" width="310" height="30" stroke="black" fill="red" fill-opacity="0.1" id="43">
<title>sprite_45</title>
</rect>
<rect x="0" y="244" width="310" height="30" stroke="black" fill="red" fill-opacity="0.1" id="44">
<title>sprite_46</title>
</rect>
<rect x="310" y="244" width="310" height="30" stroke="black" fill="red" fill-opacity="0.1" id="45">
<title>sprite_47</title>
</rect>
<rect x="620" y="244" width="270" height="30" stroke="black" fill="red" fill-opacity="0.1" id="46">
<title>sprite_48</title>
</rect>
<rect x="890" y="244" width="126" height="30" stroke="black" fill="red" fill-opacity="0.1" id="47">
<title>sprite_49</title>
</rect>
<rect x="928" y="286" width="90" height="30" stroke="black" fill="red" fill-opacity="0.1" id="48">
<title>sprite_50</title>
</rect>
<rect x="906" y="672" width="70" height="30" stroke="black" fill="red" fill-opacity="0.1" id="49">
<title>sprite_51</title>
</rect>
<rect x="956" y="610" width="50" height="30" stroke="black" fill="red" fill-opacity="0.1" id="50">
<title>sprite_52</title>
</rect>
<rect x="908" y="994" width="50" height="30" stroke="black" fill="red" fill-opacity="0.1" id="51">
<title>sprite_53</title>
</rect>
<rect x="990" y="386" width="30" height="30" stroke="black" fill="red" fill-opacity="0.1" id="52">
<title>sprite_54</title>
</rect>
<rect x="980" y="436" width="30" height="30" stroke="black" fill="red" fill-opacity="0.1" id="53">
<title>sprite_55</title>
</rect>
<rect x="986" y="548" width="30" height="30" stroke="black" fill="red" fill-opacity="0.1" id="54">
<title>sprite_56</title>
</rect>
<rect x="976" y="672" width="30" height="30" stroke="black" fill="red" fill-opacity="0.1" id="55">
<title>sprite_57</title>
</rect>
<rect x="958" y="994" width="30" height="30" stroke="black" fill="red" fill-opacity="0.1" id="56">
<title>sprite_58</title>
</rect>
<rect x="988" y="994" width="30" height="30" stroke="black" fill="red" fill-opacity="0.1" id="57">
<title>sprite_59</title>
</rect>
<rect x="0" y="214" width="30" height="30" stroke="black" fill="red" fill-opacity="0.1" id="58">
<title>sprite_60</title>
</rect>
<rect x="30" y="214" width="30" height="30" stroke="black" fill="red" fill-opacity="0.1" id="59">
<title>sprite_61</title>
</rect>
<rect x="60" y="214" width="30" height="30" stroke="black" fill="red" fill-opacity="0.1" id="60">
<title>sprite_62</title>
</rect>
<rect x="90" y="214" width="30" height="30" stroke="black" fill="red" fill-opacity="0.1" id="61">
<title>sprite_63</title>
</rect>
<rect x="120" y="218" width="22" height="26" stroke="black" fill="red" fill-opacity="0.1" id="62">
<title>sprite_64</title>
</rect>
<rect x="142" y="218" width="22" height="26" stroke="black" fill="red" fill-opacity="0.1" id="63">
<title>sprite_65</title>
</rect>
<rect x="164" y="222" width="150" height="22" stroke="black" fill="red" fill-opacity="0.1" id="64">
<title>sprite_66</title>
</rect>
<rect x="314" y="222" width="150" height="22" stroke="black" fill="red" fill-opacity="0.1" id="65">
<title>sprite_67</title>
</rect>
<rect x="464" y="222" width="150" height="22" stroke="black" fill="red" fill-opacity="0.1" id="66">
<title>sprite_68</title>
</rect>
<rect x="614" y="222" width="150" height="22" stroke="black" fill="red" fill-opacity="0.1" id="67">
<title>sprite_69</title>
</rect>
<rect x="764" y="222" width="150" height="22" stroke="black" fill="red" fill-opacity="0.1" id="68">
<title>sprite_70</title>
</rect>
<rect x="0" y="192" width="150" height="22" stroke="black" fill="red" fill-opacity="0.1" id="69">
<title>sprite_71</title>
</rect>
<rect x="150" y="192" width="150" height="22" stroke="black" fill="red" fill-opacity="0.1" id="70">
<title>sprite_72</title>
</rect>
<rect x="300" y="192" width="150" height="22" stroke="black" fill="red" fill-opacity="0.1" id="71">
<title>sprite_73</title>
</rect>
<rect x="450" y="192" width="150" height="22" stroke="black" fill="red" fill-opacity="0.1" id="72">
<title>sprite_74</title>
</rect>
<rect x="600" y="192" width="150" height="22" stroke="black" fill="red" fill-opacity="0.1" id="73">
<title>sprite_75</title>
</rect>
<rect x="750" y="192" width="150" height="22" stroke="black" fill="red" fill-opacity="0.1" id="74">
<title>sprite_76</title>
</rect>
<rect x="0" y="170" width="150" height="22" stroke="black" fill="red" fill-opacity="0.1" id="75">
<title>sprite_77</title>
</rect>
<rect x="150" y="170" width="150" height="22" stroke="black" fill="red" fill-opacity="0.1" id="76">
<title>sprite_78</title>
</rect>
<rect x="300" y="170" width="42" height="22" stroke="black" fill="red" fill-opacity="0.1" id="77">
<title>sprite_79</title>
</rect>
<rect x="342" y="170" width="42" height="22" stroke="black" fill="red" fill-opacity="0.1" id="78">
<title>sprite_80</title>
</rect>
<rect x="384" y="174" width="90" height="18" stroke="black" fill="red" fill-opacity="0.1" id="79">
<title>sprite_81</title>
</rect>
<rect x="474" y="174" width="90" height="18" stroke="black" fill="red" fill-opacity="0.1" id="80">
<title>sprite_82</title>
</rect>
<rect x="564" y="174" width="90" height="18" stroke="black" fill="red" fill-opacity="0.1" id="81">
<title>sprite_83</title>
</rect>
<rect x="654" y="174" width="90" height="18" stroke="black" fill="red" fill-opacity="0.1" id="82">
<title>sprite_84</title>
</rect>
<rect x="744" y="174" width="90" height="18" stroke="black" fill="red" fill-opacity="0.1" id="83">
<title>sprite_85</title>
</rect>
<rect x="834" y="174" width="90" height="18" stroke="black" fill="red" fill-opacity="0.1" id="84">
<title>sprite_86</title>
</rect>
<rect x="924" y="174" width="90" height="18" stroke="black" fill="red" fill-opacity="0.1" id="85">
<title>sprite_87</title>
</rect>
<rect x="900" y="196" width="90" height="18" stroke="black" fill="red" fill-opacity="0.1" id="86">
<title>sprite_88</title>
</rect>
<rect x="914" y="226" width="90" height="18" stroke="black" fill="red" fill-opacity="0.1" id="87">
<title>sprite_89</title>
</rect>
<rect x="0" y="152" width="90" height="18" stroke="black" fill="red" fill-opacity="0.1" id="88">
<title>sprite_90</title>
</rect>
<rect x="90" y="152" width="18" height="18" stroke="black" fill="red" fill-opacity="0.1" id="89">
<title>sprite_91</title>
</rect>
<rect x="108" y="152" width="18" height="18" stroke="black" fill="red" fill-opacity="0.1" id="90">
<title>sprite_92</title>
</rect>
<rect x="126" y="152" width="18" height="18" stroke="black" fill="red" fill-opacity="0.1" id="91">
<title>sprite_93</title>
</rect>
<rect x="144" y="152" width="18" height="18" stroke="black" fill="red" fill-opacity="0.1" id="92">
<title>sprite_94</title>
</rect>
<rect x="162" y="152" width="18" height="18" stroke="black" fill="red" fill-opacity="0.1" id="93">
<title>sprite_95</title>
</rect>
<rect x="180" y="152" width="18" height="18" stroke="black" fill="red" fill-opacity="0.1" id="94">
<title>sprite_96</title>
</rect>
<rect x="198" y="152" width="18" height="18" stroke="black" fill="red" fill-opacity="0.1" id="95">
<title>sprite_97</title>
</rect>
<rect x="216" y="152" width="18" height="18" stroke="black" fill="red" fill-opacity="0.1" id="96">
<title>sprite_98</title>
</rect>
<rect x="234" y="152" width="18" height="18" stroke="black" fill="red" fill-opacity="0.1" id="97">
<title>sprite_99</title>
</rect>
<rect x="252" y="152" width="18" height="18" stroke="black" fill="red" fill-opacity="0.1" id="98">
<title>sprite_100</title>
</rect>
<rect x="270" y="152" width="18" height="18" stroke="black" fill="red" fill-opacity="0.1" id="99">
<title>sprite_101</title>
</rect>
<rect x="288" y="152" width="18" height="18" stroke="black" fill="red" fill-opacity="0.1" id="100">
<title>sprite_102</title>
</rect>
<rect x="306" y="156" width="14" height="14" stroke="black" fill="red" fill-opacity="0.1" id="101">
<title>sprite_103</title>
</rect>
<rect x="320" y="156" width="14" height="14" stroke="black" fill="red" fill-opacity="0.1" id="102">
<title>sprite_104</title>
</rect>
<rect x="334" y="166" width="370" height="4" stroke="black" fill="red" fill-opacity="0.1" id="103">
<title>sprite_105</title>
</rect>
<rect x="0" y="148" width="330" height="4" stroke="black" fill="red" fill-opacity="0.1" id="104">
<title>sprite_106</title>
</rect>
<rect x="330" y="149" width="411" height="3" stroke="black" fill="red" fill-opacity="0.1" id="105">
<title>sprite_107</title>
</rect>
</svg>