<?xml version="1.0" encoding="UTF-8"?>
<svg xmlns="http://www.w3.org/2000/svg" xmlns:xlink="http://www.w3.org/1999/xlink"
     width="512" height="512" viewBox="0 0 512 512">
<defs>
</defs>
<rect x="0" y="382" width="130" height="130" stroke="black" fill="red" fill-opacity="0.1" />
<rect x="0" y="288" width="210" height="94" stroke="black" fill="red" fill-opacity="0.1" />
<rect x="0" y="222" width="116" height="66" stroke="black" fill="red" fill-opacity="0.1" />
<rect x="0" y="172" width="266" height="50" stroke="black" fill="red" fill-opacity="0.1" />
<rect x="0" y="134" width="70" height="38" stroke="black" fill="red" fill-opacity="0.1" />
<rect x="0" y="98" width="126" height="36" stroke="black" fill="red" fill-opacity="0.1" />
<rect x="0" y="64" width="70" height="34" stroke="black" fill="red" fill-opacity="0.1" />
<rect x="0" y="38" width="158" height="26" stroke="black" fill="red" fill-opacity="0.1" />
<rect x="0" y="22" width="149" height="16" stroke="black" fill="red" fill-opacity="0.1" />
<rect x="0" y="8" width="327" height="14" stroke="black" fill="red" fill-opacity="0.1" />
<rect x="0" y="2" width="270" height="6" stroke="black" fill="red" fill-opacity="0.1" />
<rect x="327" y="12" width="110" height="10" stroke="black" fill="red" fill-opacity="0.1" />
<rect x="149" y="22" width="149" height="16" stroke="black" fill="red" fill-opacity="0.1" />
<rect x="298" y="22" width="30" height="16" stroke="black" fill="red" fill-opacity="0.1" />
<rect x="328" y="22" width="30" height="16" stroke="black" fill="red" fill-opacity="0.1" />
<rect x="358" y="22" width="17" height="16" stroke="black" fill="red" fill-opacity="0.1" />
<rect x="375" y="22" width="17" height="16" stroke="black" fill="red" fill-opacity="0.1" />
<rect x="158" y="45" width="15" height="19" stroke="black" fill="red" fill-opacity="0.1" />
<rect x="173" y="46" width="90" height="18" stroke="black" fill="red" fill-opacity="0.1" />
<rect x="263" y="46" width="90" height="18" stroke="black" fill="red" fill-opacity="0.1" />
<rect x="353" y="46" width="90" height="18" stroke="black" fill="red" fill-opacity="0.1" />
<rect x="443" y="46" width="14" height="18" stroke="black" fill="red" fill-opacity="0.1" />
<rect x="457" y="46" width="14" height="18" stroke="black" fill="red" fill-opacity="0.1" />
<rect x="471" y="46" width="14" height="18" stroke="black" fill="red" fill-opacity="0.1" />
<rect x="485" y="46" width="14" height="18" stroke="black" fill="red" fill-opacity="0.1" />
<rect x="70" y="64" width="70" height="34" stroke="black" fill="red" fill-opacity="0.1" />
<rect x="140" y="68" width="210" height="30" stroke="black" fill="red" fill-opacity="0.1" />
<rect x="350" y="68" width="62" height="30" stroke="black" fill="red" fill-opacity="0.1" />
<rect x="412" y="68" width="58" height="30" stroke="black" fill="red" fill-opacity="0.1" />
<rect x="470" y="68" width="30" height="30" stroke="black" fill="red" fill-opacity="0.1" />
<rect x="126" y="98" width="126" height="36" stroke="black" fill="red" fill-opacity="0.1" />
<rect x="252" y="100" width="158" height="34" stroke="black" fill="red" fill-opacity="0.1" />
<rect x="410" y="100" width="70" height="34" stroke="black" fill="red" fill-opacity="0.1" />
<rect x="480" y="116" width="14" height="18" stroke="black" fill="red" fill-opacity="0.1" />
<rect x="494" y="116" width="14" height="18" stroke="black" fill="red" fill-opacity="0.1" />
<rect x="70" y="134" width="70" height="38" stroke="black" fill="red" fill-opacity="0.1" />
<rect x="140" y="136" width="126" height="36" stroke="black" fill="red" fill-opacity="0.1" />
<rect x="266" y="136" width="126" height="36" stroke="black" fill="red" fill-opacity="0.1" />
<rect x="392" y="138" width="70" height="34" stroke="black" fill="red" fill-opacity="0.1" />
<rect x="462" y="145" width="33" height="27" stroke="black" fill="red" fill-opacity="0.1" />
<rect x="495" y="154" width="14" height="18" stroke="black" fill="red" fill-opacity="0.1" />
<rect x="266" y="176" width="90" height="46" stroke="black" fill="red" fill-opacity="0.1" />
<rect x="356" y="176" width="46" height="46" stroke="black" fill="red" fill-opacity="0.1" />
<rect x="402" y="176" width="46" height="46" stroke="black" fill="red" fill-opacity="0.1" />
<rect x="448" y="176" width="46" height="46" stroke="black" fill="red" fill-opacity="0.1" />
<rect x="494" y="204" width="14" height="18" stroke="black" fill="red" fill-opacity="0.1" />
<rect x="116" y="222" width="116" height="66" stroke="black" fill="red" fill-opacity="0.1" />
<rect x="232" y="226" width="62" height="62" stroke="black" fill="red" fill-opacity="0.1" />
<rect x="294" y="242" width="46" height="46" stroke="black" fill="red" fill-opacity="0.1" />
<rect x="340" y="242" width="46" height="46" stroke="black" fill="red" fill-opacity="0.1" />
<rect x="386" y="246" width="126" height="42" stroke="black" fill="red" fill-opacity="0.1" />
<rect x="210" y="288" width="90" height="94" stroke="black" fill="red" fill-opacity="0.1" />
<rect x="300" y="288" width="90" height="94" stroke="black" fill="red" fill-opacity="0.1" />
<rect x="390" y="288" width="90" height="94" stroke="black" fill="red" fill-opacity="0.1" />
<rect x="480" y="364" width="14" height="18" stroke="black" fill="red" fill-opacity="0.1" />
<rect x="494" y="364" width="14" height="18" stroke="black" fill="red" fill-opacity="0.1" />
<rect x="130" y="384" width="128" height="128" stroke="black" fill="red" fill-opacity="0.1" />
<rect x="258" y="386" width="126" height="126" stroke="black" fill="red" fill-opacity="0.1" />
<rect x="384" y="430" width="82" height="82" stroke="black" fill="red" fill-opacity="0.1" />
<rect x="466" y="494" width="14" height="18" stroke="black" fill="red" fill-opacity="0.1" />
<rect x="480" y="494" width="14" height="18" stroke="black" fill="red" fill-opacity="0.1" />
</svg>