<?xml version="1.0" encoding="UTF-8"?>
<svg xmlns="http://www.w3.org/2000/svg" xmlns:xlink="http://www.w3.org/1999/xlink"
     width="512" height="512" viewBox="0 0 512 512">
<defs>
</defs>
<rect x="0" y="462" width="50" height="50" stroke="black" fill="red" fill-opacity="0.1" />
<rect x="0" y="424" width="210" height="38" stroke="black" fill="red" fill-opacity="0.1" />
<rect x="0" y="394" width="30" height="30" stroke="black" fill="red" fill-opacity="0.1" />
<rect x="0" y="367" width="193" height="27" stroke="black" fill="red" fill-opacity="0.1" />
<rect x="0" y="343" width="330" height="24" stroke="black" fill="red" fill-opacity="0.1" />
<rect x="330" y="343" width="24" height="24" stroke="black" fill="red" fill-opacity="0.1" />
<rect x="354" y="343" width="24" height="24" stroke="black" fill="red" fill-opacity="0.1" />
<rect x="378" y="343" width="24" height="24" stroke="black" fill="red" fill-opacity="0.1" />
<rect x="402" y="343" width="24" height="24" stroke="black" fill="red" fill-opacity="0.1" />
<rect x="426" y="343" width="24" height="24" stroke="black" fill="red" fill-opacity="0.1" />
<rect x="450" y="343" width="24" height="24" stroke="black" fill="red" fill-opacity="0.1" />
<rect x="474" y="343" width="24" height="24" stroke="black" fill="red" fill-opacity="0.1" />
<rect x="498" y="349" width="14" height="18" stroke="black" fill="red" fill-opacity="0.1" />
<rect x="0" y="319" width="327" height="24" stroke="black" fill="red" fill-opacity="0.1" />
<rect x="0" y="295" width="24" height="24" stroke="black" fill="red" fill-opacity="0.1" />
<rect x="0" y="271" width="24" height="24" stroke="black" fill="red" fill-opacity="0.1" />
<rect x="0" y="247" width="24" height="24" stroke="black" fill="red" fill-opacity="0.1" />
<rect x="0" y="225" width="327" height="22" stroke="black" fill="red" fill-opacity="0.1" />
<rect x="0" y="205" width="189" height="20" stroke="black" fill="red" fill-opacity="0.1" />
<rect x="0" y="189" width="480" height="16" stroke="black" fill="red" fill-opacity="0.1" />
<rect x="480" y="191" width="30" height="14" stroke="black" fill="red" fill-opacity="0.1" />
<rect x="0" y="173" width="235" height="16" stroke="black" fill="red" fill-opacity="0.1" />
<rect x="0" y="157" width="222" height="16" stroke="black" fill="red" fill-opacity="0.1" />
<rect x="0" y="141" width="187" height="16" stroke="black" fill="red" fill-opacity="0.1" />
<rect x="0" y="125" width="180" height="16" stroke="black" fill="red" fill-opacity="0.1" />
<rect x="0" y="109" width="166" height="16" stroke="black" fill="red" fill-opacity="0.1" />
<rect x="0" y="93" width="161" height="16" stroke="black" fill="red" fill-opacity="0.1" />
<rect x="0" y="79" width="288" height="14" stroke="black" fill="red" fill-opacity="0.1" />
<rect x="288" y="79" width="144" height="14" stroke="black" fill="red" fill-opacity="0.1" />
<rect x="432" y="79" width="80" height="14" stroke="black" fill="red" fill-opacity="0.1" />
<rect x="0" y="65" width="288" height="14" stroke="black" fill="red" fill-opacity="0.1" />
<rect x="288" y="65" width="144" height="14" stroke="black" fill="red" fill-opacity="0.1" />
<rect x="432" y="65" width="80" height="14" stroke="black" fill="red" fill-opacity="0.1" />
<rect x="0" y="51" width="271" height="14" stroke="black" fill="red" fill-opacity="0.1" />
<rect x="0" y="37" width="59" height="14" stroke="black" fill="red" fill-opacity="0.1" />
<rect x="59" y="37" width="59" height="14" stroke="black" fill="red" fill-opacity="0.1" />
<rect x="118" y="37" width="30" height="14" stroke="black" fill="red" fill-opacity="0.1" />
<rect x="148" y="37" width="30" height="14" stroke="black" fill="red" fill-opacity="0.1" />
<rect x="178" y="37" width="30" height="14" stroke="black" fill="red" fill-opacity="0.1" />
<rect x="208" y="37" width="30" height="14" stroke="black" fill="red" fill-opacity="0.1" />
<rect x="238" y="37" width="30" height="14" stroke="black" fill="red" fill-opacity="0.1" />
<rect x="268" y="37" width="30" height="14" stroke="black" fill="red" fill-opacity="0.1" />
<rect x="298" y="37" width="30" height="14" stroke="black" fill="red" fill-opacity="0.1" />
<rect x="328" y="37" width="14" height="14" stroke="black" fill="red" fill-opacity="0.1" />
<rect x="342" y="37" width="14" height="14" stroke="black" fill="red" fill-opacity="0.1" />
<rect x="356" y="37" width="14" height="14" stroke="black" fill="red" fill-opacity="0.1" />
<rect x="370" y="38" width="19" height="13" stroke="black" fill="red" fill-opacity="0.1" />
<rect x="389" y="38" width="13" height="13" stroke="black" fill="red" fill-opacity="0.1" />
<rect x="402" y="41" width="14" height="10" stroke="black" fill="red" fill-opacity="0.1" />
<rect x="416" y="41" width="13" height="10" stroke="black" fill="red" fill-opacity="0.1" />
<rect x="271" y="51" width="93" height="14" stroke="black" fill="red" fill-opacity="0.1" />
<rect x="364" y="51" width="93" height="14" stroke="black" fill="red" fill-opacity="0.1" />
<rect x="161" y="93" width="143" height="16" stroke="black" fill="red" fill-opacity="0.1" />
<rect x="304" y="93" width="130" height="16" stroke="black" fill="red" fill-opacity="0.1" />
<rect x="434" y="95" width="76" height="14" stroke="black" fill="red" fill-opacity="0.1" />
<rect x="166" y="109" width="166" height="16" stroke="black" fill="red" fill-opacity="0.1" />
<rect x="332" y="109" width="166" height="16" stroke="black" fill="red" fill-opacity="0.1" />
<rect x="180" y="125" width="176" height="16" stroke="black" fill="red" fill-opacity="0.1" />
<rect x="356" y="125" width="126" height="16" stroke="black" fill="red" fill-opacity="0.1" />
<rect x="187" y="141" width="180" height="16" stroke="black" fill="red" fill-opacity="0.1" />
<rect x="367" y="141" width="108" height="16" stroke="black" fill="red" fill-opacity="0.1" />
<rect x="222" y="157" width="198" height="16" stroke="black" fill="red" fill-opacity="0.1" />
<rect x="420" y="159" width="76" height="14" stroke="black" fill="red" fill-opacity="0.1" />
<rect x="235" y="173" width="222" height="16" stroke="black" fill="red" fill-opacity="0.1" />
<rect x="189" y="207" width="82" height="18" stroke="black" fill="red" fill-opacity="0.1" />
<rect x="271" y="207" width="36" height="18" stroke="black" fill="red" fill-opacity="0.1" />
<rect x="307" y="207" width="19" height="18" stroke="black" fill="red" fill-opacity="0.1" />
<rect x="326" y="207" width="14" height="18" stroke="black" fill="red" fill-opacity="0.1" />
<rect x="340" y="207" width="14" height="18" stroke="black" fill="red" fill-opacity="0.1" />
<rect x="354" y="208" width="48" height="17" stroke="black" fill="red" fill-opacity="0.1" />
<rect x="402" y="209" width="106" height="16" stroke="black" fill="red" fill-opacity="0.1" />
<rect x="327" y="225" width="82" height="22" stroke="black" fill="red" fill-opacity="0.1" />
<rect x="409" y="225" width="50" height="22" stroke="black" fill="red" fill-opacity="0.1" />
<rect x="459" y="225" width="18" height="22" stroke="black" fill="red" fill-opacity="0.1" />
<rect x="24" y="247" width="24" height="24" stroke="black" fill="red" fill-opacity="0.1" />
<rect x="48" y="247" width="24" height="24" stroke="black" fill="red" fill-opacity="0.1" />
<rect x="72" y="247" width="24" height="24" stroke="black" fill="red" fill-opacity="0.1" />
<rect x="96" y="247" width="24" height="24" stroke="black" fill="red" fill-opacity="0.1" />
<rect x="120" y="247" width="24" height="24" stroke="black" fill="red" fill-opacity="0.1" />
<rect x="144" y="247" width="24" height="24" stroke="black" fill="red" fill-opacity="0.1" />
<rect x="168" y="247" width="24" height="24" stroke="black" fill="red" fill-opacity="0.1" />
<rect x="192" y="247" width="24" height="24" stroke="black" fill="red" fill-opacity="0.1" />
<rect x="216" y="247" width="24" height="24" stroke="black" fill="red" fill-opacity="0.1" />
<rect x="240" y="247" width="24" height="24" stroke="black" fill="red" fill-opacity="0.1" />
<rect x="264" y="247" width="24" height="24" stroke="black" fill="red" fill-opacity="0.1" />
<rect x="288" y="247" width="24" height="24" stroke="black" fill="red" fill-opacity="0.1" />
<rect x="312" y="248" width="84" height="23" stroke="black" fill="red" fill-opacity="0.1" />
<rect x="396" y="255" width="94" height="16" stroke="black" fill="red" fill-opacity="0.1" />
<rect x="24" y="271" width="24" height="24" stroke="black" fill="red" fill-opacity="0.1" />
<rect x="48" y="271" width="24" height="24" stroke="black" fill="red" fill-opacity="0.1" />
<rect x="72" y="271" width="24" height="24" stroke="black" fill="red" fill-opacity="0.1" />
<rect x="96" y="271" width="24" height="24" stroke="black" fill="red" fill-opacity="0.1" />
<rect x="120" y="271" width="24" height="24" stroke="black" fill="red" fill-opacity="0.1" />
<rect x="144" y="271" width="24" height="24" stroke="black" fill="red" fill-opacity="0.1" />
<rect x="168" y="271" width="24" height="24" stroke="black" fill="red" fill-opacity="0.1" />
<rect x="192" y="271" width="24" height="24" stroke="black" fill="red" fill-opacity="0.1" />
<rect x="216" y="271" width="24" height="24" stroke="black" fill="red" fill-opacity="0.1" />
<rect x="240" y="271" width="24" height="24" stroke="black" fill="red" fill-opacity="0.1" />
<rect x="264" y="271" width="24" height="24" stroke="black" fill="red" fill-opacity="0.1" />
<rect x="288" y="271" width="24" height="24" stroke="black" fill="red" fill-opacity="0.1" />
<rect x="312" y="271" width="24" height="24" stroke="black" fill="red" fill-opacity="0.1" />
<rect x="336" y="271" width="24" height="24" stroke="black" fill="red" fill-opacity="0.1" />
<rect x="360" y="271" width="24" height="24" stroke="black" fill="red" fill-opacity="0.1" />
<rect x="384" y="271" width="24" height="24" stroke="black" fill="red" fill-opacity="0.1" />
<rect x="408" y="271" width="24" height="24" stroke="black" fill="red" fill-opacity="0.1" />
<rect x="432" y="271" width="24" height="24" stroke="black" fill="red" fill-opacity="0.1" />
<rect x="456" y="271" width="24" height="24" stroke="black" fill="red" fill-opacity="0.1" />
<rect x="480" y="271" width="24" height="24" stroke="black" fill="red" fill-opacity="0.1" />
<rect x="24" y="295" width="24" height="24" stroke="black" fill="red" fill-opacity="0.1" />
<rect x="48" y="295" width="24" height="24" stroke="black" fill="red" fill-opacity="0.1" />
<rect x="72" y="295" width="24" height="24" stroke="black" fill="red" fill-opacity="0.1" />
<rect x="96" y="295" width="24" height="24" stroke="black" fill="red" fill-opacity="0.1" />
<rect x="120" y="295" width="24" height="24" stroke="black" fill="red" fill-opacity="0.1" />
<rect x="144" y="295" width="24" height="24" stroke="black" fill="red" fill-opacity="0.1" />
<rect x="168" y="295" width="24" height="24" stroke="black" fill="red" fill-opacity="0.1" />
<rect x="192" y="295" width="24" height="24" stroke="black" fill="red" fill-opacity="0.1" />
<rect x="216" y="295" width="24" height="24" stroke="black" fill="red" fill-opacity="0.1" />
<rect x="240" y="295" width="24" height="24" stroke="black" fill="red" fill-opacity="0.1" />
<rect x="264" y="295" width="24" height="24" stroke="black" fill="red" fill-opacity="0.1" />
<rect x="288" y="295" width="24" height="24" stroke="black" fill="red" fill-opacity="0.1" />
<rect x="312" y="295" width="24" height="24" stroke="black" fill="red" fill-opacity="0.1" />
<rect x="336" y="295" width="24" height="24" stroke="black" fill="red" fill-opacity="0.1" />
<rect x="360" y="295" width="24" height="24" stroke="black" fill="red" fill-opacity="0.1" />
<rect x="384" y="295" width="24" height="24" stroke="black" fill="red" fill-opacity="0.1" />
<rect x="408" y="295" width="24" height="24" stroke="black" fill="red" fill-opacity="0.1" />
<rect x="432" y="295" width="24" height="24" stroke="black" fill="red" fill-opacity="0.1" />
<rect x="456" y="295" width="24" height="24" stroke="black" fill="red" fill-opacity="0.1" />
<rect x="480" y="295" width="24" height="24" stroke="black" fill="red" fill-opacity="0.1" />
<rect x="327" y="319" width="24" height="24" stroke="black" fill="red" fill-opacity="0.1" />
<rect x="351" y="319" width="24" height="24" stroke="black" fill="red" fill-opacity="0.1" />
<rect x="375" y="319" width="24" height="24" stroke="black" fill="red" fill-opacity="0.1" />
<rect x="399" y="319" width="24" height="24" stroke="black" fill="red" fill-opacity="0.1" />
<rect x="423" y="319" width="24" height="24" stroke="black" fill="red" fill-opacity="0.1" />
<rect x="447" y="319" width="24" height="24" stroke="black" fill="red" fill-opacity="0.1" />
<rect x="471" y="319" width="24" height="24" stroke="black" fill="red" fill-opacity="0.1" />
<rect x="193" y="367" width="129" height="27" stroke="black" fill="red" fill-opacity="0.1" />
<rect x="322" y="367" width="88" height="27" stroke="black" fill="red" fill-opacity="0.1" />
<rect x="410" y="367" width="65" height="27" stroke="black" fill="red" fill-opacity="0.1" />
<rect x="475" y="368" width="26" height="26" stroke="black" fill="red" fill-opacity="0.1" />
<rect x="30" y="394" width="30" height="30" stroke="black" fill="red" fill-opacity="0.1" />
<rect x="60" y="394" width="30" height="30" stroke="black" fill="red" fill-opacity="0.1" />
<rect x="90" y="394" width="30" height="30" stroke="black" fill="red" fill-opacity="0.1" />
<rect x="120" y="394" width="30" height="30" stroke="black" fill="red" fill-opacity="0.1" />
<rect x="150" y="394" width="30" height="30" stroke="black" fill="red" fill-opacity="0.1" />
<rect x="180" y="394" width="30" height="30" stroke="black" fill="red" fill-opacity="0.1" />
<rect x="210" y="394" width="30" height="30" stroke="black" fill="red" fill-opacity="0.1" />
<rect x="240" y="394" width="30" height="30" stroke="black" fill="red" fill-opacity="0.1" />
<rect x="270" y="394" width="30" height="30" stroke="black" fill="red" fill-opacity="0.1" />
<rect x="300" y="394" width="30" height="30" stroke="black" fill="red" fill-opacity="0.1" />
<rect x="330" y="394" width="30" height="30" stroke="black" fill="red" fill-opacity="0.1" />
<rect x="360" y="394" width="30" height="30" stroke="black" fill="red" fill-opacity="0.1" />
<rect x="390" y="394" width="30" height="30" stroke="black" fill="red" fill-opacity="0.1" />
<rect x="420" y="398" width="26" height="26" stroke="black" fill="red" fill-opacity="0.1" />
<rect x="446" y="398" width="26" height="26" stroke="black" fill="red" fill-opacity="0.1" />
<rect x="472" y="400" width="24" height="24" stroke="black" fill="red" fill-opacity="0.1" />
<rect x="210" y="424" width="150" height="38" stroke="black" fill="red" fill-opacity="0.1" />
<rect x="360" y="424" width="42" height="38" stroke="black" fill="red" fill-opacity="0.1" />
<rect x="402" y="432" width="70" height="30" stroke="black" fill="red" fill-opacity="0.1" />
<rect x="472" y="432" width="30" height="30" stroke="black" fill="red" fill-opacity="0.1" />
<rect x="50" y="466" width="50" height="46" stroke="black" fill="red" fill-opacity="0.1" />
<rect x="100" y="466" width="50" height="46" stroke="black" fill="red" fill-opacity="0.1" />
<rect x="150" y="466" width="50" height="46" stroke="black" fill="red" fill-opacity="0.1" />
<rect x="200" y="474" width="254" height="38" stroke="black" fill="red" fill-opacity="0.1" />
<rect x="454" y="482" width="42" height="30" stroke="black" fill="red" fill-opacity="0.1" />
</svg>