<?xml version="1.0" encoding="UTF-8"?>
<svg xmlns="http://www.w3.org/2000/svg" xmlns:xlink="http://www.w3.org/1999/xlink"
     width="1024" height="1024" viewBox="0 0 1024 1024">
<defs>
</defs>
<rect x="0" y="0" width="512" height="512" stroke="black" fill="red" fill-opacity="0.1" id="0">
<title>sprite_0</title>
</rect>
<rect x="512" y="512" width="512" height="128" stroke="black" fill="red" fill-opacity="0.1" id="1">
<title>sprite_1</title>
</rect>
<rect x="512" y="384" width="512" height="128" stroke="black" fill="red" fill-opacity="0.1" id="2">
<title>sprite_2</title>
</rect>
<rect x="512" y="256" width="512" height="128" stroke="black" fill="red" fill-opacity="0.1" id="3">
<title>sprite_3</title>
</rect>
<rect x="512" y="128" width="512" height="128" stroke="black" fill="red" fill-opacity="0.1" id="4">
<title>sprite_4</title>
</rect>
<rect x="512" y="0" width="512" height="128" stroke="black" fill="red" fill-opacity="0.1" id="5">
<title>sprite_5</title>
</rect>
<rect x="640" y="896" width="384" height="128" stroke="black" fill="red" fill-opacity="0.1" id="6">
<title>sprite_6</title>
</rect>
<rect x="640" y="768" width="128" height="128" stroke="black" fill="red" fill-opacity="0.1" id="7">
<title>sprite_7</title>
</rect>
<rect x="768" y="768" width="128" height="128" stroke="black" fill="red" fill-opacity="0.1" id="8">
<title>sprite_8</title>
</rect>
<rect x="896" y="768" width="128" height="128" stroke="black" fill="red" fill-opacity="0.1" id="9">
<title>sprite_9</title>
</rect>
<rect x="768" y="640" width="128" height="128" stroke="black" fill="red" fill-opacity="0.1" id="10">
<title>sprite_10</title>
</rect>
<rect x="896" y="640" width="128" height="128" stroke="black" fill="red" fill-opacity="0.1" id="11">
<title>sprite_11</title>
</rect>
<rect x="384" y="512" width="128" height="128" stroke="black" fill="red" fill-opacity="0.1" id="12">
<title>sprite_12</title>
</rect>
<rect x="256" y="512" width="128" height="128" stroke="black" fill="red" fill-opacity="0.1" id="13">
<title>sprite_13</title>
</rect>
<rect x="128" y="512" width="128" height="128" stroke="black" fill="red" fill-opacity="0.1" id="14">
<title>sprite_14</title>
</rect>
<rect x="0" y="512" width="128" height="128" stroke="black" fill="red" fill-opacity="0.1" id="15">
<title>sprite_15</title>
</rect>
<rect x="640" y="640" width="128" height="128" stroke="black" fill="red" fill-opacity="0.1" id="16">
<title>sprite_16</title>
</rect>
<rect x="380" y="644" width="200" height="120" stroke="black" fill="red" fill-opacity="0.1" id="17">
<title>sprite_17</title>
</rect>
<rect x="172" y="712" width="200" height="120" stroke="black" fill="red" fill-opacity="0.1" id="18">
<title>sprite_18</title>
</rect>
<rect x="224" y="832" width="156" height="120" stroke="black" fill="red" fill-opacity="0.1" id="19">
<title>sprite_19</title>
</rect>
<rect x="0" y="712" width="156" height="120" stroke="black" fill="red" fill-opacity="0.1" id="20">
<title>sprite_20</title>
</rect>
<rect x="136" y="920" width="64" height="80" stroke="black" fill="red" fill-opacity="0.1" id="21">
<title>sprite_21</title>
</rect>
<rect x="72" y="924" width="64" height="80" stroke="black" fill="red" fill-opacity="0.1" id="22">
<title>sprite_22</title>
</rect>
<rect x="0" y="928" width="64" height="80" stroke="black" fill="red" fill-opacity="0.1" id="23">
<title>sprite_23</title>
</rect>
<rect x="0" y="832" width="64" height="80" stroke="black" fill="red" fill-opacity="0.1" id="24">
<title>sprite_24</title>
</rect>
<rect x="76" y="832" width="64" height="80" stroke="black" fill="red" fill-opacity="0.1" id="25">
<title>sprite_25</title>
</rect>
<rect x="152" y="832" width="64" height="80" stroke="black" fill="red" fill-opacity="0.1" id="26">
<title>sprite_26</title>
</rect>
<rect x="208" y="952" width="200" height="72" stroke="black" fill="red" fill-opacity="0.1" id="27">
<title>sprite_27</title>
</rect>
<rect x="172" y="640" width="200" height="72" stroke="black" fill="red" fill-opacity="0.1" id="28">
<title>sprite_28</title>
</rect>
<rect x="384" y="768" width="156" height="72" stroke="black" fill="red" fill-opacity="0.1" id="29">
<title>sprite_29</title>
</rect>
<rect x="0" y="640" width="156" height="72" stroke="black" fill="red" fill-opacity="0.1" id="30">
<title>sprite_30</title>
</rect>
</svg>