<?xml version="1.0" encoding="UTF-8"?>
<svg xmlns="http://www.w3.org/2000/svg" xmlns:xlink="http://www.w3.org/1999/xlink"
     width="512" height="256" viewBox="0 0 512 256">
<defs>
</defs>
<rect x="210" y="0" width="128" height="128" stroke="black" fill="red" fill-opacity="0.1" id="0">
<title>sprite_97</title>
</rect>
<rect x="140" y="128" width="96" height="96" stroke="black" fill="red" fill-opacity="0.1" id="1">
<title>sprite_98</title>
</rect>
<rect x="236" y="128" width="96" height="96" stroke="black" fill="red" fill-opacity="0.1" id="2">
<title>sprite_99</title>
</rect>
<rect x="384" y="192" width="128" height="64" stroke="black" fill="red" fill-opacity="0.1" id="3">
<title>sprite_100</title>
</rect>
<rect x="384" y="128" width="128" height="64" stroke="black" fill="red" fill-opacity="0.1" id="4">
<title>sprite_101</title>
</rect>
<rect x="384" y="64" width="128" height="64" stroke="black" fill="red" fill-opacity="0.1" id="5">
<title>sprite_102</title>
</rect>
<rect x="384" y="0" width="128" height="64" stroke="black" fill="red" fill-opacity="0.1" id="6">
<title>sprite_103</title>
</rect>
<rect x="0" y="64" width="70" height="64" stroke="black" fill="red" fill-opacity="0.1" id="7">
<title>sprite_104</title>
</rect>
<rect x="140" y="0" width="70" height="64" stroke="black" fill="red" fill-opacity="0.1" id="8">
<title>sprite_105</title>
</rect>
<rect x="140" y="64" width="70" height="64" stroke="black" fill="red" fill-opacity="0.1" id="9">
<title>sprite_106</title>
</rect>
<rect x="70" y="192" width="70" height="64" stroke="black" fill="red" fill-opacity="0.1" id="10">
<title>sprite_107</title>
</rect>
<rect x="0" y="192" width="70" height="64" stroke="black" fill="red" fill-opacity="0.1" id="11">
<title>sprite_108</title>
</rect>
<rect x="0" y="0" width="70" height="64" stroke="black" fill="red" fill-opacity="0.1" id="12">
<title>sprite_109</title>
</rect>
<rect x="70" y="64" width="70" height="64" stroke="black" fill="red" fill-opacity="0.1" id="13">
<title>sprite_110</title>
</rect>
<rect x="70" y="0" width="70" height="64" stroke="black" fill="red" fill-opacity="0.1" id="14">
<title>sprite_111</title>
</rect>
<rect x="70" y="128" width="70" height="64" stroke="black" fill="red" fill-opacity="0.1" id="15">
<title>sprite_112</title>
</rect>
<rect x="0" y="128" width="70" height="64" stroke="black" fill="red" fill-opacity="0.1" id="16">
<title>sprite_113</title>
</rect>
<rect x="334" y="222" width="42" height="34" stroke="black" fill="red" fill-opacity="0.1" id="17">
<title>sprite_114</title>
</rect>
<rect x="339" y="108" width="42" height="34" stroke="black" fill="red" fill-opacity="0.1" id="18">
<title>sprite_115</title>
</rect>
<rect x="338" y="71" width="42" height="34" stroke="black" fill="red" fill-opacity="0.1" id="19">
<title>sprite_116</title>
</rect>
<rect x="339" y="35" width="42" height="34" stroke="black" fill="red" fill-opacity="0.1" id="20">
<title>sprite_117</title>
</rect>
<rect x="339" y="0" width="42" height="34" stroke="black" fill="red" fill-opacity="0.1" id="21">
<title>sprite_118</title>
</rect>
<rect x="148" y="229" width="180" height="20" stroke="black" fill="red" fill-opacity="0.1" id="22">
<title>sprite_119</title>
</rect>
<rect x="352" y="162" width="16" height="16" stroke="black" fill="red" fill-opacity="0.1" id="23">
<title>sprite_120</title>
</rect>
<rect x="333" y="158" width="16" height="16" stroke="black" fill="red" fill-opacity="0.1" id="24">
<title>sprite_121</title>
</rect>
<rect x="353" y="144" width="16" height="16" stroke="black" fill="red" fill-opacity="0.1" id="25">
<title>sprite_122</title>
</rect>
<rect x="332" y="142" width="16" height="16" stroke="black" fill="red" fill-opacity="0.1" id="26">
<title>sprite_123</title>
</rect>
</svg>