<?xml version="1.0" encoding="UTF-8"?>
<svg xmlns="http://www.w3.org/2000/svg" xmlns:xlink="http://www.w3.org/1999/xlink"
     width="512" height="256" viewBox="0 0 512 256">
<defs>
</defs>
<rect x="210" y="0" width="128" height="128" stroke="black" fill="red" fill-opacity="0.1" />
<rect x="140" y="128" width="96" height="96" stroke="black" fill="red" fill-opacity="0.1" />
<rect x="236" y="128" width="96" height="96" stroke="black" fill="red" fill-opacity="0.1" />
<rect x="384" y="192" width="128" height="64" stroke="black" fill="red" fill-opacity="0.1" />
<rect x="384" y="128" width="128" height="64" stroke="black" fill="red" fill-opacity="0.1" />
<rect x="384" y="64" width="128" height="64" stroke="black" fill="red" fill-opacity="0.1" />
<rect x="384" y="0" width="128" height="64" stroke="black" fill="red" fill-opacity="0.1" />
<rect x="0" y="64" width="70" height="64" stroke="black" fill="red" fill-opacity="0.1" />
<rect x="140" y="0" width="70" height="64" stroke="black" fill="red" fill-opacity="0.1" />
<rect x="140" y="64" width="70" height="64" stroke="black" fill="red" fill-opacity="0.1" />
<rect x="70" y="192" width="70" height="64" stroke="black" fill="red" fill-opacity="0.1" />
<rect x="0" y="192" width="70" height="64" stroke="black" fill="red" fill-opacity="0.1" />
<rect x="0" y="0" width="70" height="64" stroke="black" fill="red" fill-opacity="0.1" />
<rect x="70" y="64" width="70" height="64" stroke="black" fill="red" fill-opacity="0.1" />
<rect x="70" y="0" width="70" height="64" stroke="black" fill="red" fill-opacity="0.1" />
<rect x="70" y="128" width="70" height="64" stroke="black" fill="red" fill-opacity="0.1" />
<rect x="0" y="128" width="70" height="64" stroke="black" fill="red" fill-opacity="0.1" />
<rect x="334" y="222" width="42" height="34" stroke="black" fill="red" fill-opacity="0.1" />
<rect x="339" y="108" width="42" height="34" stroke="black" fill="red" fill-opacity="0.1" />
<rect x="338" y="71" width="42" height="34" stroke="black" fill="red" fill-opacity="0.1" />
<rect x="339" y="35" width="42" height="34" stroke="black" fill="red" fill-opacity="0.1" />
<rect x="339" y="0" width="42" height="34" stroke="black" fill="red" fill-opacity="0.1" />
<rect x="148" y="229" width="180" height="20" stroke="black" fill="red" fill-opacity="0.1" />
<rect x="352" y="162" width="16" height="16" stroke="black" fill="red" fill-opacity="0.1" />
<rect x="333" y="158" width="16" height="16" stroke="black" fill="red" fill-opacity="0.1" />
<rect x="353" y="144" width="16" height="16" stroke="black" fill="red" fill-opacity="0.1" />
<rect x="332" y="142" width="16" height="16" stroke="black" fill="red" fill-opacity="0.1" />
</svg>