<?xml version="1.0" encoding="UTF-8"?>
<svg xmlns="http://www.w3.org/2000/svg" xmlns:xlink="http://www.w3.org/1999/xlink"
     width="512" height="512" viewBox="0 0 512 512">
<defs>
</defs>
<rect x="0" y="416" width="128" height="96" stroke="black" fill="red" fill-opacity="0.1" />
<rect x="256" y="128" width="96" height="48" stroke="black" fill="red" fill-opacity="0.1" />
<rect x="256" y="176" width="96" height="48" stroke="black" fill="red" fill-opacity="0.1" />
<rect x="256" y="80" width="96" height="48" stroke="black" fill="red" fill-opacity="0.1" />
<rect x="192" y="145" width="64" height="48" stroke="black" fill="red" fill-opacity="0.1" />
<rect x="192" y="97" width="64" height="48" stroke="black" fill="red" fill-opacity="0.1" />
<rect x="192" y="193" width="64" height="48" stroke="black" fill="red" fill-opacity="0.1" />
<rect x="192" y="49" width="64" height="48" stroke="black" fill="red" fill-opacity="0.1" />
<rect x="192" y="0" width="64" height="48" stroke="black" fill="red" fill-opacity="0.1" />
<rect x="128" y="193" width="64" height="48" stroke="black" fill="red" fill-opacity="0.1" />
<rect x="128" y="145" width="64" height="48" stroke="black" fill="red" fill-opacity="0.1" />
<rect x="133" y="257" width="64" height="48" stroke="black" fill="red" fill-opacity="0.1" />
<rect x="128" y="97" width="64" height="48" stroke="black" fill="red" fill-opacity="0.1" />
<rect x="128" y="49" width="64" height="48" stroke="black" fill="red" fill-opacity="0.1" />
<rect x="128" y="0" width="64" height="48" stroke="black" fill="red" fill-opacity="0.1" />
<rect x="64" y="193" width="64" height="48" stroke="black" fill="red" fill-opacity="0.1" />
<rect x="64" y="145" width="64" height="48" stroke="black" fill="red" fill-opacity="0.1" />
<rect x="64" y="97" width="64" height="48" stroke="black" fill="red" fill-opacity="0.1" />
<rect x="448" y="144" width="64" height="48" stroke="black" fill="red" fill-opacity="0.1" />
<rect x="384" y="96" width="64" height="48" stroke="black" fill="red" fill-opacity="0.1" />
<rect x="384" y="48" width="64" height="48" stroke="black" fill="red" fill-opacity="0.1" />
<rect x="384" y="0" width="64" height="48" stroke="black" fill="red" fill-opacity="0.1" />
<rect x="448" y="96" width="64" height="48" stroke="black" fill="red" fill-opacity="0.1" />
<rect x="448" y="48" width="64" height="48" stroke="black" fill="red" fill-opacity="0.1" />
<rect x="448" y="0" width="64" height="48" stroke="black" fill="red" fill-opacity="0.1" />
<rect x="64" y="49" width="64" height="48" stroke="black" fill="red" fill-opacity="0.1" />
<rect x="64" y="0" width="64" height="48" stroke="black" fill="red" fill-opacity="0.1" />
<rect x="66" y="257" width="64" height="48" stroke="black" fill="red" fill-opacity="0.1" />
<rect x="0" y="192" width="64" height="48" stroke="black" fill="red" fill-opacity="0.1" />
<rect x="0" y="256" width="64" height="48" stroke="black" fill="red" fill-opacity="0.1" />
<rect x="0" y="144" width="64" height="48" stroke="black" fill="red" fill-opacity="0.1" />
<rect x="0" y="96" width="64" height="48" stroke="black" fill="red" fill-opacity="0.1" />
<rect x="0" y="48" width="64" height="48" stroke="black" fill="red" fill-opacity="0.1" />
<rect x="0" y="0" width="64" height="48" stroke="black" fill="red" fill-opacity="0.1" />
<rect x="320" y="40" width="64" height="40" stroke="black" fill="red" fill-opacity="0.1" />
<rect x="256" y="40" width="64" height="40" stroke="black" fill="red" fill-opacity="0.1" />
<rect x="256" y="0" width="64" height="40" stroke="black" fill="red" fill-opacity="0.1" />
<rect x="320" y="0" width="64" height="40" stroke="black" fill="red" fill-opacity="0.1" />
<rect x="256" y="224" width="256" height="32" stroke="black" fill="red" fill-opacity="0.1" />
<rect x="472" y="192" width="40" height="32" stroke="black" fill="red" fill-opacity="0.1" />
<rect x="393" y="189" width="32" height="32" stroke="black" fill="red" fill-opacity="0.1" />
<rect x="355" y="189" width="32" height="32" stroke="black" fill="red" fill-opacity="0.1" />
<rect x="352" y="113" width="32" height="32" stroke="black" fill="red" fill-opacity="0.1" />
<rect x="352" y="81" width="32" height="32" stroke="black" fill="red" fill-opacity="0.1" />
<rect x="356" y="167" width="45" height="22" stroke="black" fill="red" fill-opacity="0.1" />
<rect x="355" y="145" width="45" height="22" stroke="black" fill="red" fill-opacity="0.1" />
<rect x="403" y="167" width="45" height="22" stroke="black" fill="red" fill-opacity="0.1" />
<rect x="402" y="144" width="45" height="22" stroke="black" fill="red" fill-opacity="0.1" />
<rect x="0" y="241" width="16" height="14" stroke="black" fill="red" fill-opacity="0.1" />
<rect x="34" y="242" width="16" height="14" stroke="black" fill="red" fill-opacity="0.1" />
<rect x="93" y="241" width="16" height="14" stroke="black" fill="red" fill-opacity="0.1" />
<rect x="115" y="242" width="16" height="14" stroke="black" fill="red" fill-opacity="0.1" />
<rect x="238" y="242" width="16" height="14" stroke="black" fill="red" fill-opacity="0.1" />
<rect x="79" y="242" width="14" height="14" stroke="black" fill="red" fill-opacity="0.1" />
<rect x="50" y="242" width="14" height="14" stroke="black" fill="red" fill-opacity="0.1" />
<rect x="64" y="242" width="14" height="14" stroke="black" fill="red" fill-opacity="0.1" />
<rect x="150" y="242" width="14" height="14" stroke="black" fill="red" fill-opacity="0.1" />
<rect x="204" y="241" width="14" height="14" stroke="black" fill="red" fill-opacity="0.1" />
<rect x="221" y="242" width="14" height="14" stroke="black" fill="red" fill-opacity="0.1" />
<rect x="136" y="242" width="14" height="14" stroke="black" fill="red" fill-opacity="0.1" />
<rect x="168" y="241" width="14" height="14" stroke="black" fill="red" fill-opacity="0.1" />
<rect x="189" y="242" width="14" height="14" stroke="black" fill="red" fill-opacity="0.1" />
<rect x="16" y="242" width="14" height="14" stroke="black" fill="red" fill-opacity="0.1" />
</svg>