<?xml version="1.0" encoding="UTF-8"?>
<svg xmlns="http://www.w3.org/2000/svg" xmlns:xlink="http://www.w3.org/1999/xlink"
     width="512" height="512" viewBox="0 0 512 512">
<defs>
</defs>
<rect x="0" y="416" width="128" height="96" stroke="black" fill="red" fill-opacity="0.1" id="0">
<title>sprite_31</title>
</rect>
<rect x="256" y="128" width="96" height="48" stroke="black" fill="red" fill-opacity="0.1" id="1">
<title>sprite_32</title>
</rect>
<rect x="256" y="176" width="96" height="48" stroke="black" fill="red" fill-opacity="0.1" id="2">
<title>sprite_33</title>
</rect>
<rect x="256" y="80" width="96" height="48" stroke="black" fill="red" fill-opacity="0.1" id="3">
<title>sprite_34</title>
</rect>
<rect x="192" y="145" width="64" height="48" stroke="black" fill="red" fill-opacity="0.1" id="4">
<title>sprite_35</title>
</rect>
<rect x="192" y="97" width="64" height="48" stroke="black" fill="red" fill-opacity="0.1" id="5">
<title>sprite_36</title>
</rect>
<rect x="192" y="193" width="64" height="48" stroke="black" fill="red" fill-opacity="0.1" id="6">
<title>sprite_37</title>
</rect>
<rect x="192" y="49" width="64" height="48" stroke="black" fill="red" fill-opacity="0.1" id="7">
<title>sprite_38</title>
</rect>
<rect x="192" y="0" width="64" height="48" stroke="black" fill="red" fill-opacity="0.1" id="8">
<title>sprite_39</title>
</rect>
<rect x="128" y="193" width="64" height="48" stroke="black" fill="red" fill-opacity="0.1" id="9">
<title>sprite_40</title>
</rect>
<rect x="128" y="145" width="64" height="48" stroke="black" fill="red" fill-opacity="0.1" id="10">
<title>sprite_41</title>
</rect>
<rect x="133" y="257" width="64" height="48" stroke="black" fill="red" fill-opacity="0.1" id="11">
<title>sprite_42</title>
</rect>
<rect x="128" y="97" width="64" height="48" stroke="black" fill="red" fill-opacity="0.1" id="12">
<title>sprite_43</title>
</rect>
<rect x="128" y="49" width="64" height="48" stroke="black" fill="red" fill-opacity="0.1" id="13">
<title>sprite_44</title>
</rect>
<rect x="128" y="0" width="64" height="48" stroke="black" fill="red" fill-opacity="0.1" id="14">
<title>sprite_45</title>
</rect>
<rect x="64" y="193" width="64" height="48" stroke="black" fill="red" fill-opacity="0.1" id="15">
<title>sprite_46</title>
</rect>
<rect x="64" y="145" width="64" height="48" stroke="black" fill="red" fill-opacity="0.1" id="16">
<title>sprite_47</title>
</rect>
<rect x="64" y="97" width="64" height="48" stroke="black" fill="red" fill-opacity="0.1" id="17">
<title>sprite_48</title>
</rect>
<rect x="448" y="144" width="64" height="48" stroke="black" fill="red" fill-opacity="0.1" id="18">
<title>sprite_49</title>
</rect>
<rect x="384" y="96" width="64" height="48" stroke="black" fill="red" fill-opacity="0.1" id="19">
<title>sprite_50</title>
</rect>
<rect x="384" y="48" width="64" height="48" stroke="black" fill="red" fill-opacity="0.1" id="20">
<title>sprite_51</title>
</rect>
<rect x="384" y="0" width="64" height="48" stroke="black" fill="red" fill-opacity="0.1" id="21">
<title>sprite_52</title>
</rect>
<rect x="448" y="96" width="64" height="48" stroke="black" fill="red" fill-opacity="0.1" id="22">
<title>sprite_53</title>
</rect>
<rect x="448" y="48" width="64" height="48" stroke="black" fill="red" fill-opacity="0.1" id="23">
<title>sprite_54</title>
</rect>
<rect x="448" y="0" width="64" height="48" stroke="black" fill="red" fill-opacity="0.1" id="24">
<title>sprite_55</title>
</rect>
<rect x="64" y="49" width="64" height="48" stroke="black" fill="red" fill-opacity="0.1" id="25">
<title>sprite_56</title>
</rect>
<rect x="64" y="0" width="64" height="48" stroke="black" fill="red" fill-opacity="0.1" id="26">
<title>sprite_57</title>
</rect>
<rect x="66" y="257" width="64" height="48" stroke="black" fill="red" fill-opacity="0.1" id="27">
<title>sprite_58</title>
</rect>
<rect x="0" y="192" width="64" height="48" stroke="black" fill="red" fill-opacity="0.1" id="28">
<title>sprite_59</title>
</rect>
<rect x="0" y="256" width="64" height="48" stroke="black" fill="red" fill-opacity="0.1" id="29">
<title>sprite_60</title>
</rect>
<rect x="0" y="144" width="64" height="48" stroke="black" fill="red" fill-opacity="0.1" id="30">
<title>sprite_61</title>
</rect>
<rect x="0" y="96" width="64" height="48" stroke="black" fill="red" fill-opacity="0.1" id="31">
<title>sprite_62</title>
</rect>
<rect x="0" y="48" width="64" height="48" stroke="black" fill="red" fill-opacity="0.1" id="32">
<title>sprite_63</title>
</rect>
<rect x="0" y="0" width="64" height="48" stroke="black" fill="red" fill-opacity="0.1" id="33">
<title>sprite_64</title>
</rect>
<rect x="320" y="40" width="64" height="40" stroke="black" fill="red" fill-opacity="0.1" id="34">
<title>sprite_65</title>
</rect>
<rect x="256" y="40" width="64" height="40" stroke="black" fill="red" fill-opacity="0.1" id="35">
<title>sprite_66</title>
</rect>
<rect x="256" y="0" width="64" height="40" stroke="black" fill="red" fill-opacity="0.1" id="36">
<title>sprite_67</title>
</rect>
<rect x="320" y="0" width="64" height="40" stroke="black" fill="red" fill-opacity="0.1" id="37">
<title>sprite_68</title>
</rect>
<rect x="256" y="224" width="256" height="32" stroke="black" fill="red" fill-opacity="0.1" id="38">
<title>sprite_69</title>
</rect>
<rect x="472" y="192" width="40" height="32" stroke="black" fill="red" fill-opacity="0.1" id="39">
<title>sprite_70</title>
</rect>
<rect x="393" y="189" width="32" height="32" stroke="black" fill="red" fill-opacity="0.1" id="40">
<title>sprite_71</title>
</rect>
<rect x="355" y="189" width="32" height="32" stroke="black" fill="red" fill-opacity="0.1" id="41">
<title>sprite_72</title>
</rect>
<rect x="352" y="113" width="32" height="32" stroke="black" fill="red" fill-opacity="0.1" id="42">
<title>sprite_73</title>
</rect>
<rect x="352" y="81" width="32" height="32" stroke="black" fill="red" fill-opacity="0.1" id="43">
<title>sprite_74</title>
</rect>
<rect x="356" y="167" width="45" height="22" stroke="black" fill="red" fill-opacity="0.1" id="44">
<title>sprite_75</title>
</rect>
<rect x="355" y="145" width="45" height="22" stroke="black" fill="red" fill-opacity="0.1" id="45">
<title>sprite_76</title>
</rect>
<rect x="403" y="167" width="45" height="22" stroke="black" fill="red" fill-opacity="0.1" id="46">
<title>sprite_77</title>
</rect>
<rect x="402" y="144" width="45" height="22" stroke="black" fill="red" fill-opacity="0.1" id="47">
<title>sprite_78</title>
</rect>
<rect x="0" y="241" width="16" height="14" stroke="black" fill="red" fill-opacity="0.1" id="48">
<title>sprite_79</title>
</rect>
<rect x="34" y="242" width="16" height="14" stroke="black" fill="red" fill-opacity="0.1" id="49">
<title>sprite_80</title>
</rect>
<rect x="93" y="241" width="16" height="14" stroke="black" fill="red" fill-opacity="0.1" id="50">
<title>sprite_81</title>
</rect>
<rect x="115" y="242" width="16" height="14" stroke="black" fill="red" fill-opacity="0.1" id="51">
<title>sprite_82</title>
</rect>
<rect x="238" y="242" width="16" height="14" stroke="black" fill="red" fill-opacity="0.1" id="52">
<title>sprite_83</title>
</rect>
<rect x="79" y="242" width="14" height="14" stroke="black" fill="red" fill-opacity="0.1" id="53">
<title>sprite_84</title>
</rect>
<rect x="50" y="242" width="14" height="14" stroke="black" fill="red" fill-opacity="0.1" id="54">
<title>sprite_85</title>
</rect>
<rect x="64" y="242" width="14" height="14" stroke="black" fill="red" fill-opacity="0.1" id="55">
<title>sprite_86</title>
</rect>
<rect x="150" y="242" width="14" height="14" stroke="black" fill="red" fill-opacity="0.1" id="56">
<title>sprite_87</title>
</rect>
<rect x="204" y="241" width="14" height="14" stroke="black" fill="red" fill-opacity="0.1" id="57">
<title>sprite_88</title>
</rect>
<rect x="221" y="242" width="14" height="14" stroke="black" fill="red" fill-opacity="0.1" id="58">
<title>sprite_89</title>
</rect>
<rect x="136" y="242" width="14" height="14" stroke="black" fill="red" fill-opacity="0.1" id="59">
<title>sprite_90</title>
</rect>
<rect x="168" y="241" width="14" height="14" stroke="black" fill="red" fill-opacity="0.1" id="60">
<title>sprite_91</title>
</rect>
<rect x="189" y="242" width="14" height="14" stroke="black" fill="red" fill-opacity="0.1" id="61">
<title>sprite_92</title>
</rect>
<rect x="16" y="242" width="14" height="14" stroke="black" fill="red" fill-opacity="0.1" id="62">
<title>sprite_93</title>
</rect>
</svg>