<?xml version="1.0" encoding="UTF-8"?>
<svg xmlns="http://www.w3.org/2000/svg" xmlns:xlink="http://www.w3.org/1999/xlink"
     width="256" height="256" viewBox="0 0 256 256">
<defs>
</defs>
<rect x="0" y="0" width="128" height="128" stroke="black" fill="red" fill-opacity="0.1" />
<rect x="128" y="128" width="128" height="32" stroke="black" fill="red" fill-opacity="0.1" />
<rect x="128" y="96" width="128" height="32" stroke="black" fill="red" fill-opacity="0.1" />
<rect x="128" y="64" width="128" height="32" stroke="black" fill="red" fill-opacity="0.1" />
<rect x="128" y="32" width="128" height="32" stroke="black" fill="red" fill-opacity="0.1" />
<rect x="128" y="0" width="128" height="32" stroke="black" fill="red" fill-opacity="0.1" />
<rect x="160" y="224" width="96" height="32" stroke="black" fill="red" fill-opacity="0.1" />
<rect x="160" y="192" width="32" height="32" stroke="black" fill="red" fill-opacity="0.1" />
<rect x="192" y="192" width="32" height="32" stroke="black" fill="red" fill-opacity="0.1" />
<rect x="224" y="192" width="32" height="32" stroke="black" fill="red" fill-opacity="0.1" />
<rect x="192" y="160" width="32" height="32" stroke="black" fill="red" fill-opacity="0.1" />
<rect x="224" y="160" width="32" height="32" stroke="black" fill="red" fill-opacity="0.1" />
<rect x="96" y="128" width="32" height="32" stroke="black" fill="red" fill-opacity="0.1" />
<rect x="64" y="128" width="32" height="32" stroke="black" fill="red" fill-opacity="0.1" />
<rect x="32" y="128" width="32" height="32" stroke="black" fill="red" fill-opacity="0.1" />
<rect x="0" y="128" width="32" height="32" stroke="black" fill="red" fill-opacity="0.1" />
<rect x="160" y="160" width="32" height="32" stroke="black" fill="red" fill-opacity="0.1" />
<rect x="95" y="161" width="50" height="30" stroke="black" fill="red" fill-opacity="0.1" />
<rect x="43" y="178" width="50" height="30" stroke="black" fill="red" fill-opacity="0.1" />
<rect x="56" y="208" width="39" height="30" stroke="black" fill="red" fill-opacity="0.1" />
<rect x="0" y="178" width="39" height="30" stroke="black" fill="red" fill-opacity="0.1" />
<rect x="34" y="230" width="16" height="20" stroke="black" fill="red" fill-opacity="0.1" />
<rect x="18" y="231" width="16" height="20" stroke="black" fill="red" fill-opacity="0.1" />
<rect x="0" y="232" width="16" height="20" stroke="black" fill="red" fill-opacity="0.1" />
<rect x="0" y="208" width="16" height="20" stroke="black" fill="red" fill-opacity="0.1" />
<rect x="19" y="208" width="16" height="20" stroke="black" fill="red" fill-opacity="0.1" />
<rect x="38" y="208" width="16" height="20" stroke="black" fill="red" fill-opacity="0.1" />
<rect x="52" y="238" width="50" height="18" stroke="black" fill="red" fill-opacity="0.1" />
<rect x="43" y="160" width="50" height="18" stroke="black" fill="red" fill-opacity="0.1" />
<rect x="96" y="192" width="39" height="18" stroke="black" fill="red" fill-opacity="0.1" />
<rect x="0" y="160" width="39" height="18" stroke="black" fill="red" fill-opacity="0.1" />
</svg>