<?xml version="1.0" encoding="UTF-8"?>
<svg xmlns="http://www.w3.org/2000/svg" xmlns:xlink="http://www.w3.org/1999/xlink"
     width="256" height="128" viewBox="0 0 256 128">
<defs>
</defs>
<rect x="1" y="1" width="70" height="22" stroke="black" fill="red" fill-opacity="0.1" />
<rect x="73" y="1" width="70" height="22" stroke="black" fill="red" fill-opacity="0.1" />
<rect x="145" y="1" width="70" height="22" stroke="black" fill="red" fill-opacity="0.1" />
<rect x="1" y="25" width="70" height="22" stroke="black" fill="red" fill-opacity="0.1" />
<rect x="73" y="25" width="70" height="22" stroke="black" fill="red" fill-opacity="0.1" />
<rect x="145" y="25" width="70" height="22" stroke="black" fill="red" fill-opacity="0.1" />
<rect x="1" y="49" width="70" height="22" stroke="black" fill="red" fill-opacity="0.1" />
<rect x="73" y="49" width="70" height="22" stroke="black" fill="red" fill-opacity="0.1" />
<rect x="145" y="49" width="70" height="22" stroke="black" fill="red" fill-opacity="0.1" />
<rect x="1" y="73" width="70" height="22" stroke="black" fill="red" fill-opacity="0.1" />
<rect x="73" y="73" width="70" height="22" stroke="black" fill="red" fill-opacity="0.1" />
<rect x="145" y="73" width="70" height="22" stroke="black" fill="red" fill-opacity="0.1" />
<rect x="1" y="97" width="70" height="22" stroke="black" fill="red" fill-opacity="0.1" />
<rect x="73" y="97" width="70" height="22" stroke="black" fill="red" fill-opacity="0.1" />
<rect x="145" y="97" width="70" height="22" stroke="black" fill="red" fill-opacity="0.1" />
</svg>