<?xml version="1.0" encoding="UTF-8"?>
<svg xmlns="http://www.w3.org/2000/svg" xmlns:xlink="http://www.w3.org/1999/xlink"
     width="1024" height="512" viewBox="0 0 1024 512">
<defs>
</defs>
<rect x="4" y="4" width="280" height="88" stroke="black" fill="red" fill-opacity="0.1" id="0">
<title>sprite_8</title>
</rect>
<rect x="292" y="4" width="280" height="88" stroke="black" fill="red" fill-opacity="0.1" id="1">
<title>sprite_9</title>
</rect>
<rect x="580" y="4" width="280" height="88" stroke="black" fill="red" fill-opacity="0.1" id="2">
<title>sprite_10</title>
</rect>
<rect x="4" y="100" width="280" height="88" stroke="black" fill="red" fill-opacity="0.1" id="3">
<title>sprite_11</title>
</rect>
<rect x="292" y="100" width="280" height="88" stroke="black" fill="red" fill-opacity="0.1" id="4">
<title>sprite_12</title>
</rect>
<rect x="580" y="100" width="280" height="88" stroke="black" fill="red" fill-opacity="0.1" id="5">
<title>sprite_13</title>
</rect>
<rect x="4" y="196" width="280" height="88" stroke="black" fill="red" fill-opacity="0.1" id="6">
<title>sprite_14</title>
</rect>
<rect x="292" y="196" width="280" height="88" stroke="black" fill="red" fill-opacity="0.1" id="7">
<title>sprite_15</title>
</rect>
<rect x="580" y="196" width="280" height="88" stroke="black" fill="red" fill-opacity="0.1" id="8">
<title>sprite_16</title>
</rect>
<rect x="4" y="292" width="280" height="88" stroke="black" fill="red" fill-opacity="0.1" id="9">
<title>sprite_17</title>
</rect>
<rect x="292" y="292" width="280" height="88" stroke="black" fill="red" fill-opacity="0.1" id="10">
<title>sprite_18</title>
</rect>
<rect x="580" y="292" width="280" height="88" stroke="black" fill="red" fill-opacity="0.1" id="11">
<title>sprite_19</title>
</rect>
<rect x="4" y="388" width="280" height="88" stroke="black" fill="red" fill-opacity="0.1" id="12">
<title>sprite_20</title>
</rect>
<rect x="292" y="388" width="280" height="88" stroke="black" fill="red" fill-opacity="0.1" id="13">
<title>sprite_21</title>
</rect>
<rect x="580" y="388" width="280" height="88" stroke="black" fill="red" fill-opacity="0.1" id="14">
<title>sprite_22</title>
</rect>
</svg>