<?xml version="1.0" encoding="UTF-8"?>
<svg xmlns="http://www.w3.org/2000/svg" xmlns:xlink="http://www.w3.org/1999/xlink"
     width="1024" height="1024" viewBox="0 0 1024 1024">
<defs>
</defs>
<rect x="0" y="768" width="256" height="256" stroke="black" fill="red" fill-opacity="0.1" />
<rect x="0" y="538" width="258" height="230" stroke="black" fill="red" fill-opacity="0.1" />
<rect x="256" y="794" width="258" height="230" stroke="black" fill="red" fill-opacity="0.1" />
<rect x="514" y="794" width="258" height="230" stroke="black" fill="red" fill-opacity="0.1" />
<rect x="258" y="550" width="426" height="218" stroke="black" fill="red" fill-opacity="0.1" />
<rect x="684" y="626" width="258" height="142" stroke="black" fill="red" fill-opacity="0.1" />
<rect x="772" y="886" width="162" height="138" stroke="black" fill="red" fill-opacity="0.1" />
<rect x="0" y="408" width="130" height="130" stroke="black" fill="red" fill-opacity="0.1" />
<rect x="130" y="425" width="188" height="113" stroke="black" fill="red" fill-opacity="0.1" />
<rect x="318" y="432" width="160" height="106" stroke="black" fill="red" fill-opacity="0.1" />
<rect x="478" y="436" width="164" height="102" stroke="black" fill="red" fill-opacity="0.1" />
<rect x="642" y="448" width="110" height="90" stroke="black" fill="red" fill-opacity="0.1" />
<rect x="0" y="318" width="102" height="90" stroke="black" fill="red" fill-opacity="0.1" />
<rect x="752" y="448" width="102" height="90" stroke="black" fill="red" fill-opacity="0.1" />
<rect x="854" y="448" width="102" height="90" stroke="black" fill="red" fill-opacity="0.1" />
<rect x="102" y="332" width="90" height="76" stroke="black" fill="red" fill-opacity="0.1" />
<rect x="192" y="344" width="64" height="64" stroke="black" fill="red" fill-opacity="0.1" />
<rect x="256" y="344" width="64" height="64" stroke="black" fill="red" fill-opacity="0.1" />
<rect x="320" y="346" width="178" height="62" stroke="black" fill="red" fill-opacity="0.1" />
<rect x="498" y="346" width="178" height="62" stroke="black" fill="red" fill-opacity="0.1" />
<rect x="676" y="346" width="62" height="62" stroke="black" fill="red" fill-opacity="0.1" />
<rect x="738" y="346" width="62" height="62" stroke="black" fill="red" fill-opacity="0.1" />
<rect x="800" y="346" width="62" height="62" stroke="black" fill="red" fill-opacity="0.1" />
<rect x="862" y="346" width="62" height="62" stroke="black" fill="red" fill-opacity="0.1" />
<rect x="924" y="346" width="62" height="62" stroke="black" fill="red" fill-opacity="0.1" />
<rect x="956" y="476" width="62" height="62" stroke="black" fill="red" fill-opacity="0.1" />
<rect x="0" y="260" width="70" height="58" stroke="black" fill="red" fill-opacity="0.1" />
<rect x="70" y="260" width="70" height="58" stroke="black" fill="red" fill-opacity="0.1" />
<rect x="140" y="260" width="70" height="58" stroke="black" fill="red" fill-opacity="0.1" />
<rect x="210" y="260" width="70" height="58" stroke="black" fill="red" fill-opacity="0.1" />
<rect x="942" y="710" width="70" height="58" stroke="black" fill="red" fill-opacity="0.1" />
<rect x="934" y="966" width="70" height="58" stroke="black" fill="red" fill-opacity="0.1" />
<rect x="280" y="260" width="58" height="58" stroke="black" fill="red" fill-opacity="0.1" />
<rect x="338" y="260" width="58" height="58" stroke="black" fill="red" fill-opacity="0.1" />
<rect x="396" y="260" width="58" height="58" stroke="black" fill="red" fill-opacity="0.1" />
<rect x="454" y="260" width="58" height="58" stroke="black" fill="red" fill-opacity="0.1" />
<rect x="512" y="260" width="58" height="58" stroke="black" fill="red" fill-opacity="0.1" />
<rect x="570" y="260" width="58" height="58" stroke="black" fill="red" fill-opacity="0.1" />
<rect x="628" y="260" width="58" height="58" stroke="black" fill="red" fill-opacity="0.1" />
<rect x="686" y="260" width="58" height="58" stroke="black" fill="red" fill-opacity="0.1" />
<rect x="744" y="262" width="110" height="56" stroke="black" fill="red" fill-opacity="0.1" />
<rect x="854" y="262" width="100" height="56" stroke="black" fill="red" fill-opacity="0.1" />
<rect x="0" y="204" width="98" height="56" stroke="black" fill="red" fill-opacity="0.1" />
<rect x="98" y="204" width="74" height="56" stroke="black" fill="red" fill-opacity="0.1" />
<rect x="172" y="207" width="49" height="53" stroke="black" fill="red" fill-opacity="0.1" />
<rect x="221" y="208" width="48" height="52" stroke="black" fill="red" fill-opacity="0.1" />
<rect x="269" y="210" width="554" height="50" stroke="black" fill="red" fill-opacity="0.1" />
<rect x="823" y="210" width="74" height="50" stroke="black" fill="red" fill-opacity="0.1" />
<rect x="897" y="210" width="66" height="50" stroke="black" fill="red" fill-opacity="0.1" />
<rect x="954" y="268" width="66" height="50" stroke="black" fill="red" fill-opacity="0.1" />
<rect x="0" y="154" width="62" height="50" stroke="black" fill="red" fill-opacity="0.1" />
<rect x="62" y="154" width="58" height="50" stroke="black" fill="red" fill-opacity="0.1" />
<rect x="120" y="158" width="110" height="46" stroke="black" fill="red" fill-opacity="0.1" />
<rect x="230" y="160" width="112" height="44" stroke="black" fill="red" fill-opacity="0.1" />
<rect x="342" y="160" width="104" height="44" stroke="black" fill="red" fill-opacity="0.1" />
<rect x="446" y="160" width="96" height="44" stroke="black" fill="red" fill-opacity="0.1" />
<rect x="542" y="160" width="84" height="44" stroke="black" fill="red" fill-opacity="0.1" />
<rect x="626" y="162" width="112" height="42" stroke="black" fill="red" fill-opacity="0.1" />
<rect x="738" y="162" width="108" height="42" stroke="black" fill="red" fill-opacity="0.1" />
<rect x="846" y="162" width="104" height="42" stroke="black" fill="red" fill-opacity="0.1" />
<rect x="0" y="112" width="100" height="42" stroke="black" fill="red" fill-opacity="0.1" />
<rect x="100" y="112" width="92" height="42" stroke="black" fill="red" fill-opacity="0.1" />
<rect x="192" y="112" width="86" height="42" stroke="black" fill="red" fill-opacity="0.1" />
<rect x="278" y="112" width="82" height="42" stroke="black" fill="red" fill-opacity="0.1" />
<rect x="360" y="112" width="80" height="42" stroke="black" fill="red" fill-opacity="0.1" />
<rect x="440" y="112" width="80" height="42" stroke="black" fill="red" fill-opacity="0.1" />
<rect x="520" y="112" width="78" height="42" stroke="black" fill="red" fill-opacity="0.1" />
<rect x="598" y="112" width="76" height="42" stroke="black" fill="red" fill-opacity="0.1" />
<rect x="674" y="116" width="230" height="38" stroke="black" fill="red" fill-opacity="0.1" />
<rect x="0" y="74" width="134" height="38" stroke="black" fill="red" fill-opacity="0.1" />
<rect x="134" y="74" width="70" height="38" stroke="black" fill="red" fill-opacity="0.1" />
<rect x="204" y="74" width="66" height="38" stroke="black" fill="red" fill-opacity="0.1" />
<rect x="270" y="74" width="66" height="38" stroke="black" fill="red" fill-opacity="0.1" />
<rect x="336" y="74" width="66" height="38" stroke="black" fill="red" fill-opacity="0.1" />
<rect x="402" y="74" width="66" height="38" stroke="black" fill="red" fill-opacity="0.1" />
<rect x="468" y="74" width="62" height="38" stroke="black" fill="red" fill-opacity="0.1" />
<rect x="530" y="74" width="62" height="38" stroke="black" fill="red" fill-opacity="0.1" />
<rect x="592" y="74" width="62" height="38" stroke="black" fill="red" fill-opacity="0.1" />
<rect x="654" y="74" width="62" height="38" stroke="black" fill="red" fill-opacity="0.1" />
<rect x="716" y="78" width="70" height="34" stroke="black" fill="red" fill-opacity="0.1" />
<rect x="786" y="78" width="50" height="34" stroke="black" fill="red" fill-opacity="0.1" />
<rect x="836" y="80" width="102" height="32" stroke="black" fill="red" fill-opacity="0.1" />
<rect x="904" y="122" width="90" height="32" stroke="black" fill="red" fill-opacity="0.1" />
<rect x="0" y="44" width="104" height="30" stroke="black" fill="red" fill-opacity="0.1" />
<rect x="104" y="44" width="102" height="30" stroke="black" fill="red" fill-opacity="0.1" />
<rect x="206" y="44" width="100" height="30" stroke="black" fill="red" fill-opacity="0.1" />
<rect x="306" y="44" width="98" height="30" stroke="black" fill="red" fill-opacity="0.1" />
<rect x="404" y="44" width="82" height="30" stroke="black" fill="red" fill-opacity="0.1" />
<rect x="486" y="44" width="68" height="30" stroke="black" fill="red" fill-opacity="0.1" />
<rect x="554" y="44" width="68" height="30" stroke="black" fill="red" fill-opacity="0.1" />
<rect x="0" y="14" width="62" height="30" stroke="black" fill="red" fill-opacity="0.1" />
<rect x="62" y="14" width="62" height="30" stroke="black" fill="red" fill-opacity="0.1" />
<rect x="124" y="14" width="62" height="30" stroke="black" fill="red" fill-opacity="0.1" />
<rect x="186" y="14" width="62" height="30" stroke="black" fill="red" fill-opacity="0.1" />
<rect x="248" y="14" width="62" height="30" stroke="black" fill="red" fill-opacity="0.1" />
<rect x="310" y="14" width="62" height="30" stroke="black" fill="red" fill-opacity="0.1" />
<rect x="372" y="14" width="62" height="30" stroke="black" fill="red" fill-opacity="0.1" />
<rect x="434" y="14" width="62" height="30" stroke="black" fill="red" fill-opacity="0.1" />
<rect x="496" y="14" width="62" height="30" stroke="black" fill="red" fill-opacity="0.1" />
<rect x="558" y="14" width="62" height="30" stroke="black" fill="red" fill-opacity="0.1" />
<rect x="620" y="14" width="62" height="30" stroke="black" fill="red" fill-opacity="0.1" />
<rect x="682" y="14" width="62" height="30" stroke="black" fill="red" fill-opacity="0.1" />
<rect x="744" y="14" width="62" height="30" stroke="black" fill="red" fill-opacity="0.1" />
<rect x="806" y="14" width="62" height="30" stroke="black" fill="red" fill-opacity="0.1" />
<rect x="868" y="14" width="62" height="30" stroke="black" fill="red" fill-opacity="0.1" />
<rect x="930" y="14" width="62" height="30" stroke="black" fill="red" fill-opacity="0.1" />
<rect x="622" y="44" width="62" height="30" stroke="black" fill="red" fill-opacity="0.1" />
<rect x="684" y="44" width="62" height="30" stroke="black" fill="red" fill-opacity="0.1" />
<rect x="746" y="44" width="62" height="30" stroke="black" fill="red" fill-opacity="0.1" />
<rect x="808" y="44" width="62" height="30" stroke="black" fill="red" fill-opacity="0.1" />
<rect x="870" y="44" width="62" height="30" stroke="black" fill="red" fill-opacity="0.1" />
<rect x="932" y="44" width="62" height="30" stroke="black" fill="red" fill-opacity="0.1" />
<rect x="938" y="82" width="62" height="30" stroke="black" fill="red" fill-opacity="0.1" />
<rect x="950" y="174" width="62" height="30" stroke="black" fill="red" fill-opacity="0.1" />
<rect x="642" y="418" width="62" height="30" stroke="black" fill="red" fill-opacity="0.1" />
<rect x="704" y="418" width="62" height="30" stroke="black" fill="red" fill-opacity="0.1" />
<rect x="766" y="418" width="62" height="30" stroke="black" fill="red" fill-opacity="0.1" />
<rect x="828" y="418" width="62" height="30" stroke="black" fill="red" fill-opacity="0.1" />
<rect x="890" y="418" width="62" height="30" stroke="black" fill="red" fill-opacity="0.1" />
<rect x="952" y="418" width="62" height="30" stroke="black" fill="red" fill-opacity="0.1" />
<rect x="684" y="596" width="62" height="30" stroke="black" fill="red" fill-opacity="0.1" />
<rect x="684" y="566" width="62" height="30" stroke="black" fill="red" fill-opacity="0.1" />
<rect x="746" y="566" width="62" height="30" stroke="black" fill="red" fill-opacity="0.1" />
<rect x="808" y="566" width="62" height="30" stroke="black" fill="red" fill-opacity="0.1" />
<rect x="870" y="566" width="62" height="30" stroke="black" fill="red" fill-opacity="0.1" />
<rect x="932" y="566" width="62" height="30" stroke="black" fill="red" fill-opacity="0.1" />
<rect x="746" y="596" width="62" height="30" stroke="black" fill="red" fill-opacity="0.1" />
<rect x="808" y="596" width="62" height="30" stroke="black" fill="red" fill-opacity="0.1" />
<rect x="870" y="596" width="62" height="30" stroke="black" fill="red" fill-opacity="0.1" />
<rect x="932" y="596" width="62" height="30" stroke="black" fill="red" fill-opacity="0.1" />
<rect x="963" y="230" width="60" height="30" stroke="black" fill="red" fill-opacity="0.1" />
<rect x="942" y="680" width="60" height="30" stroke="black" fill="red" fill-opacity="0.1" />
<rect x="320" y="318" width="94" height="28" stroke="black" fill="red" fill-opacity="0.1" />
<rect x="414" y="318" width="86" height="28" stroke="black" fill="red" fill-opacity="0.1" />
<rect x="500" y="318" width="78" height="28" stroke="black" fill="red" fill-opacity="0.1" />
<rect x="578" y="318" width="58" height="28" stroke="black" fill="red" fill-opacity="0.1" />
<rect x="636" y="320" width="194" height="26" stroke="black" fill="red" fill-opacity="0.1" />
<rect x="830" y="320" width="194" height="26" stroke="black" fill="red" fill-opacity="0.1" />
<rect x="192" y="318" width="126" height="26" stroke="black" fill="red" fill-opacity="0.1" />
<rect x="478" y="410" width="70" height="26" stroke="black" fill="red" fill-opacity="0.1" />
<rect x="548" y="410" width="70" height="26" stroke="black" fill="red" fill-opacity="0.1" />
<rect x="992" y="18" width="22" height="26" stroke="black" fill="red" fill-opacity="0.1" />
<rect x="994" y="48" width="22" height="26" stroke="black" fill="red" fill-opacity="0.1" />
<rect x="1000" y="86" width="22" height="26" stroke="black" fill="red" fill-opacity="0.1" />
<rect x="994" y="128" width="22" height="26" stroke="black" fill="red" fill-opacity="0.1" />
<rect x="950" y="156" width="66" height="18" stroke="black" fill="red" fill-opacity="0.1" />
<rect x="986" y="390" width="26" height="18" stroke="black" fill="red" fill-opacity="0.1" />
<rect x="0" y="0" width="162" height="14" stroke="black" fill="red" fill-opacity="0.1" />
<rect x="162" y="0" width="68" height="14" stroke="black" fill="red" fill-opacity="0.1" />
<rect x="230" y="4" width="10" height="10" stroke="black" fill="red" fill-opacity="0.1" />
</svg>