<?xml version="1.0" encoding="UTF-8"?>
<svg xmlns="http://www.w3.org/2000/svg" xmlns:xlink="http://www.w3.org/1999/xlink"
     width="1024" height="1024" viewBox="0 0 1024 1024">
<defs>
</defs>
<rect x="0" y="813" width="421" height="211" stroke="black" fill="red" fill-opacity="0.1" />
<rect x="421" y="824" width="321" height="200" stroke="black" fill="red" fill-opacity="0.1" />
<rect x="640" y="413" width="320" height="200" stroke="black" fill="red" fill-opacity="0.1" />
<rect x="0" y="213" width="320" height="200" stroke="black" fill="red" fill-opacity="0.1" />
<rect x="320" y="413" width="320" height="200" stroke="black" fill="red" fill-opacity="0.1" />
<rect x="0" y="413" width="320" height="200" stroke="black" fill="red" fill-opacity="0.1" />
<rect x="640" y="613" width="320" height="200" stroke="black" fill="red" fill-opacity="0.1" />
<rect x="320" y="613" width="320" height="200" stroke="black" fill="red" fill-opacity="0.1" />
<rect x="0" y="613" width="320" height="200" stroke="black" fill="red" fill-opacity="0.1" />
<rect x="320" y="213" width="319" height="200" stroke="black" fill="red" fill-opacity="0.1" />
<rect x="742" y="843" width="221" height="181" stroke="black" fill="red" fill-opacity="0.1" />
<rect x="639" y="232" width="221" height="181" stroke="black" fill="red" fill-opacity="0.1" />
<rect x="66" y="138" width="66" height="75" stroke="black" fill="red" fill-opacity="0.1" />
<rect x="0" y="138" width="66" height="75" stroke="black" fill="red" fill-opacity="0.1" />
<rect x="132" y="138" width="66" height="75" stroke="black" fill="red" fill-opacity="0.1" />
<rect x="860" y="338" width="66" height="75" stroke="black" fill="red" fill-opacity="0.1" />
<rect x="198" y="138" width="66" height="75" stroke="black" fill="red" fill-opacity="0.1" />
<rect x="926" y="338" width="66" height="75" stroke="black" fill="red" fill-opacity="0.1" />
<rect x="264" y="193" width="300" height="20" stroke="black" fill="red" fill-opacity="0.1" />
<rect x="537" y="122" width="179" height="16" stroke="black" fill="red" fill-opacity="0.1" />
<rect x="358" y="122" width="179" height="16" stroke="black" fill="red" fill-opacity="0.1" />
<rect x="564" y="197" width="179" height="16" stroke="black" fill="red" fill-opacity="0.1" />
<rect x="0" y="122" width="179" height="16" stroke="black" fill="red" fill-opacity="0.1" />
<rect x="743" y="197" width="179" height="16" stroke="black" fill="red" fill-opacity="0.1" />
<rect x="179" y="122" width="179" height="16" stroke="black" fill="red" fill-opacity="0.1" />
<rect x="716" y="128" width="13" height="10" stroke="black" fill="red" fill-opacity="0.1" />
</svg>