<?xml version="1.0" encoding="UTF-8"?>
<svg xmlns="http://www.w3.org/2000/svg" xmlns:xlink="http://www.w3.org/1999/xlink"
     width="4096" height="4096" viewBox="0 0 4096 4096">
<defs>
</defs>
<rect x="0" y="2664" width="1136" height="1432" stroke="black" fill="red" fill-opacity="0.1" id="0">
<title>sprite_0</title>
</rect>
<rect x="0" y="1384" width="1024" height="1280" stroke="black" fill="red" fill-opacity="0.1" id="1">
<title>sprite_1</title>
</rect>
<rect x="0" y="1008" width="504" height="376" stroke="black" fill="red" fill-opacity="0.1" id="2">
<title>sprite_2</title>
</rect>
<rect x="0" y="760" width="504" height="248" stroke="black" fill="red" fill-opacity="0.1" id="3">
<title>sprite_3</title>
</rect>
<rect x="0" y="512" width="504" height="248" stroke="black" fill="red" fill-opacity="0.1" id="4">
<title>sprite_4</title>
</rect>
<rect x="0" y="264" width="504" height="248" stroke="black" fill="red" fill-opacity="0.1" id="5">
<title>sprite_5</title>
</rect>
<rect x="0" y="16" width="248" height="248" stroke="black" fill="red" fill-opacity="0.1" id="6">
<title>sprite_6</title>
</rect>
<rect x="248" y="16" width="248" height="248" stroke="black" fill="red" fill-opacity="0.1" id="7">
<title>sprite_7</title>
</rect>
<rect x="496" y="16" width="248" height="248" stroke="black" fill="red" fill-opacity="0.1" id="8">
<title>sprite_8</title>
</rect>
<rect x="744" y="16" width="248" height="248" stroke="black" fill="red" fill-opacity="0.1" id="9">
<title>sprite_9</title>
</rect>
<rect x="992" y="16" width="248" height="248" stroke="black" fill="red" fill-opacity="0.1" id="10">
<title>sprite_10</title>
</rect>
<rect x="1240" y="16" width="248" height="248" stroke="black" fill="red" fill-opacity="0.1" id="11">
<title>sprite_11</title>
</rect>
<rect x="1488" y="16" width="248" height="248" stroke="black" fill="red" fill-opacity="0.1" id="12">
<title>sprite_12</title>
</rect>
<rect x="1736" y="16" width="248" height="248" stroke="black" fill="red" fill-opacity="0.1" id="13">
<title>sprite_13</title>
</rect>
<rect x="1984" y="16" width="248" height="248" stroke="black" fill="red" fill-opacity="0.1" id="14">
<title>sprite_14</title>
</rect>
<rect x="2232" y="16" width="248" height="248" stroke="black" fill="red" fill-opacity="0.1" id="15">
<title>sprite_15</title>
</rect>
<rect x="2480" y="16" width="248" height="248" stroke="black" fill="red" fill-opacity="0.1" id="16">
<title>sprite_16</title>
</rect>
<rect x="2728" y="16" width="248" height="248" stroke="black" fill="red" fill-opacity="0.1" id="17">
<title>sprite_17</title>
</rect>
<rect x="2976" y="16" width="248" height="248" stroke="black" fill="red" fill-opacity="0.1" id="18">
<title>sprite_18</title>
</rect>
<rect x="3224" y="16" width="248" height="248" stroke="black" fill="red" fill-opacity="0.1" id="19">
<title>sprite_19</title>
</rect>
<rect x="3472" y="16" width="248" height="248" stroke="black" fill="red" fill-opacity="0.1" id="20">
<title>sprite_20</title>
</rect>
<rect x="3720" y="16" width="248" height="248" stroke="black" fill="red" fill-opacity="0.1" id="21">
<title>sprite_21</title>
</rect>
<rect x="504" y="264" width="504" height="248" stroke="black" fill="red" fill-opacity="0.1" id="22">
<title>sprite_22</title>
</rect>
<rect x="1008" y="264" width="376" height="248" stroke="black" fill="red" fill-opacity="0.1" id="23">
<title>sprite_23</title>
</rect>
<rect x="1384" y="264" width="248" height="248" stroke="black" fill="red" fill-opacity="0.1" id="24">
<title>sprite_24</title>
</rect>
<rect x="1632" y="264" width="248" height="248" stroke="black" fill="red" fill-opacity="0.1" id="25">
<title>sprite_25</title>
</rect>
<rect x="1880" y="264" width="248" height="248" stroke="black" fill="red" fill-opacity="0.1" id="26">
<title>sprite_26</title>
</rect>
<rect x="2128" y="264" width="248" height="248" stroke="black" fill="red" fill-opacity="0.1" id="27">
<title>sprite_27</title>
</rect>
<rect x="2376" y="264" width="248" height="248" stroke="black" fill="red" fill-opacity="0.1" id="28">
<title>sprite_28</title>
</rect>
<rect x="2624" y="264" width="248" height="248" stroke="black" fill="red" fill-opacity="0.1" id="29">
<title>sprite_29</title>
</rect>
<rect x="2872" y="264" width="248" height="248" stroke="black" fill="red" fill-opacity="0.1" id="30">
<title>sprite_30</title>
</rect>
<rect x="3120" y="264" width="248" height="248" stroke="black" fill="red" fill-opacity="0.1" id="31">
<title>sprite_31</title>
</rect>
<rect x="3368" y="264" width="248" height="248" stroke="black" fill="red" fill-opacity="0.1" id="32">
<title>sprite_32</title>
</rect>
<rect x="3616" y="264" width="248" height="248" stroke="black" fill="red" fill-opacity="0.1" id="33">
<title>sprite_33</title>
</rect>
<rect x="3864" y="424" width="136" height="88" stroke="black" fill="red" fill-opacity="0.1" id="34">
<title>sprite_34</title>
</rect>
<rect x="504" y="512" width="504" height="248" stroke="black" fill="red" fill-opacity="0.1" id="35">
<title>sprite_35</title>
</rect>
<rect x="1008" y="512" width="504" height="248" stroke="black" fill="red" fill-opacity="0.1" id="36">
<title>sprite_36</title>
</rect>
<rect x="1512" y="512" width="504" height="248" stroke="black" fill="red" fill-opacity="0.1" id="37">
<title>sprite_37</title>
</rect>
<rect x="2016" y="512" width="504" height="248" stroke="black" fill="red" fill-opacity="0.1" id="38">
<title>sprite_38</title>
</rect>
<rect x="2520" y="512" width="504" height="248" stroke="black" fill="red" fill-opacity="0.1" id="39">
<title>sprite_39</title>
</rect>
<rect x="3024" y="512" width="504" height="248" stroke="black" fill="red" fill-opacity="0.1" id="40">
<title>sprite_40</title>
</rect>
<rect x="3528" y="512" width="504" height="248" stroke="black" fill="red" fill-opacity="0.1" id="41">
<title>sprite_41</title>
</rect>
<rect x="504" y="760" width="504" height="248" stroke="black" fill="red" fill-opacity="0.1" id="42">
<title>sprite_42</title>
</rect>
<rect x="1008" y="760" width="504" height="248" stroke="black" fill="red" fill-opacity="0.1" id="43">
<title>sprite_43</title>
</rect>
<rect x="1512" y="760" width="504" height="248" stroke="black" fill="red" fill-opacity="0.1" id="44">
<title>sprite_44</title>
</rect>
<rect x="2016" y="760" width="504" height="248" stroke="black" fill="red" fill-opacity="0.1" id="45">
<title>sprite_45</title>
</rect>
<rect x="2520" y="760" width="504" height="248" stroke="black" fill="red" fill-opacity="0.1" id="46">
<title>sprite_46</title>
</rect>
<rect x="3024" y="760" width="504" height="248" stroke="black" fill="red" fill-opacity="0.1" id="47">
<title>sprite_47</title>
</rect>
<rect x="3528" y="760" width="504" height="248" stroke="black" fill="red" fill-opacity="0.1" id="48">
<title>sprite_48</title>
</rect>
<rect x="504" y="1008" width="504" height="376" stroke="black" fill="red" fill-opacity="0.1" id="49">
<title>sprite_49</title>
</rect>
<rect x="1008" y="1072" width="1048" height="312" stroke="black" fill="red" fill-opacity="0.1" id="50">
<title>sprite_50</title>
</rect>
<rect x="2056" y="1128" width="1016" height="256" stroke="black" fill="red" fill-opacity="0.1" id="51">
<title>sprite_51</title>
</rect>
<rect x="2056" y="1008" width="504" height="120" stroke="black" fill="red" fill-opacity="0.1" id="52">
<title>sprite_52</title>
</rect>
<rect x="2560" y="1008" width="504" height="120" stroke="black" fill="red" fill-opacity="0.1" id="53">
<title>sprite_53</title>
</rect>
<rect x="3064" y="1008" width="504" height="120" stroke="black" fill="red" fill-opacity="0.1" id="54">
<title>sprite_54</title>
</rect>
<rect x="3568" y="1008" width="504" height="120" stroke="black" fill="red" fill-opacity="0.1" id="55">
<title>sprite_55</title>
</rect>
<rect x="3072" y="1136" width="504" height="248" stroke="black" fill="red" fill-opacity="0.1" id="56">
<title>sprite_56</title>
</rect>
<rect x="3576" y="1136" width="504" height="248" stroke="black" fill="red" fill-opacity="0.1" id="57">
<title>sprite_57</title>
</rect>
<rect x="1024" y="2160" width="504" height="504" stroke="black" fill="red" fill-opacity="0.1" id="58">
<title>sprite_58</title>
</rect>
<rect x="1024" y="1912" width="248" height="248" stroke="black" fill="red" fill-opacity="0.1" id="59">
<title>sprite_59</title>
</rect>
<rect x="1024" y="1708" width="632" height="204" stroke="black" fill="red" fill-opacity="0.1" id="60">
<title>sprite_60</title>
</rect>
<rect x="1024" y="1588" width="504" height="120" stroke="black" fill="red" fill-opacity="0.1" id="61">
<title>sprite_61</title>
</rect>
<rect x="1024" y="1468" width="504" height="120" stroke="black" fill="red" fill-opacity="0.1" id="62">
<title>sprite_62</title>
</rect>
<rect x="1024" y="1396" width="568" height="72" stroke="black" fill="red" fill-opacity="0.1" id="63">
<title>sprite_63</title>
</rect>
<rect x="1592" y="1396" width="568" height="72" stroke="black" fill="red" fill-opacity="0.1" id="64">
<title>sprite_64</title>
</rect>
<rect x="2160" y="1396" width="568" height="72" stroke="black" fill="red" fill-opacity="0.1" id="65">
<title>sprite_65</title>
</rect>
<rect x="2728" y="1396" width="568" height="72" stroke="black" fill="red" fill-opacity="0.1" id="66">
<title>sprite_66</title>
</rect>
<rect x="3296" y="1396" width="568" height="72" stroke="black" fill="red" fill-opacity="0.1" id="67">
<title>sprite_67</title>
</rect>
<rect x="1528" y="1468" width="504" height="120" stroke="black" fill="red" fill-opacity="0.1" id="68">
<title>sprite_68</title>
</rect>
<rect x="2032" y="1468" width="504" height="120" stroke="black" fill="red" fill-opacity="0.1" id="69">
<title>sprite_69</title>
</rect>
<rect x="2536" y="1468" width="504" height="120" stroke="black" fill="red" fill-opacity="0.1" id="70">
<title>sprite_70</title>
</rect>
<rect x="3040" y="1468" width="504" height="120" stroke="black" fill="red" fill-opacity="0.1" id="71">
<title>sprite_71</title>
</rect>
<rect x="3544" y="1468" width="504" height="120" stroke="black" fill="red" fill-opacity="0.1" id="72">
<title>sprite_72</title>
</rect>
<rect x="1528" y="1588" width="504" height="120" stroke="black" fill="red" fill-opacity="0.1" id="73">
<title>sprite_73</title>
</rect>
<rect x="2032" y="1588" width="504" height="120" stroke="black" fill="red" fill-opacity="0.1" id="74">
<title>sprite_74</title>
</rect>
<rect x="2536" y="1588" width="504" height="120" stroke="black" fill="red" fill-opacity="0.1" id="75">
<title>sprite_75</title>
</rect>
<rect x="3040" y="1588" width="504" height="120" stroke="black" fill="red" fill-opacity="0.1" id="76">
<title>sprite_76</title>
</rect>
<rect x="3544" y="1588" width="504" height="120" stroke="black" fill="red" fill-opacity="0.1" id="77">
<title>sprite_77</title>
</rect>
<rect x="1656" y="1708" width="632" height="204" stroke="black" fill="red" fill-opacity="0.1" id="78">
<title>sprite_78</title>
</rect>
<rect x="2288" y="1712" width="248" height="200" stroke="black" fill="red" fill-opacity="0.1" id="79">
<title>sprite_79</title>
</rect>
<rect x="2536" y="1712" width="248" height="200" stroke="black" fill="red" fill-opacity="0.1" id="80">
<title>sprite_80</title>
</rect>
<rect x="2784" y="1744" width="264" height="168" stroke="black" fill="red" fill-opacity="0.1" id="81">
<title>sprite_81</title>
</rect>
<rect x="3048" y="1744" width="264" height="168" stroke="black" fill="red" fill-opacity="0.1" id="82">
<title>sprite_82</title>
</rect>
<rect x="3312" y="1776" width="264" height="136" stroke="black" fill="red" fill-opacity="0.1" id="83">
<title>sprite_83</title>
</rect>
<rect x="3576" y="1776" width="264" height="136" stroke="black" fill="red" fill-opacity="0.1" id="84">
<title>sprite_84</title>
</rect>
<rect x="3840" y="1792" width="248" height="120" stroke="black" fill="red" fill-opacity="0.1" id="85">
<title>sprite_85</title>
</rect>
<rect x="1272" y="1912" width="248" height="248" stroke="black" fill="red" fill-opacity="0.1" id="86">
<title>sprite_86</title>
</rect>
<rect x="1520" y="1912" width="248" height="248" stroke="black" fill="red" fill-opacity="0.1" id="87">
<title>sprite_87</title>
</rect>
<rect x="1768" y="1912" width="248" height="248" stroke="black" fill="red" fill-opacity="0.1" id="88">
<title>sprite_88</title>
</rect>
<rect x="2016" y="1912" width="248" height="248" stroke="black" fill="red" fill-opacity="0.1" id="89">
<title>sprite_89</title>
</rect>
<rect x="2264" y="1912" width="248" height="248" stroke="black" fill="red" fill-opacity="0.1" id="90">
<title>sprite_90</title>
</rect>
<rect x="2512" y="1912" width="248" height="248" stroke="black" fill="red" fill-opacity="0.1" id="91">
<title>sprite_91</title>
</rect>
<rect x="2760" y="1912" width="248" height="248" stroke="black" fill="red" fill-opacity="0.1" id="92">
<title>sprite_92</title>
</rect>
<rect x="3008" y="1912" width="248" height="248" stroke="black" fill="red" fill-opacity="0.1" id="93">
<title>sprite_93</title>
</rect>
<rect x="3256" y="1912" width="248" height="248" stroke="black" fill="red" fill-opacity="0.1" id="94">
<title>sprite_94</title>
</rect>
<rect x="3504" y="2040" width="504" height="120" stroke="black" fill="red" fill-opacity="0.1" id="95">
<title>sprite_95</title>
</rect>
<rect x="3504" y="1920" width="504" height="120" stroke="black" fill="red" fill-opacity="0.1" id="96">
<title>sprite_96</title>
</rect>
<rect x="1528" y="2160" width="504" height="504" stroke="black" fill="red" fill-opacity="0.1" id="97">
<title>sprite_97</title>
</rect>
<rect x="2032" y="2160" width="504" height="504" stroke="black" fill="red" fill-opacity="0.1" id="98">
<title>sprite_98</title>
</rect>
<rect x="2536" y="2288" width="504" height="376" stroke="black" fill="red" fill-opacity="0.1" id="99">
<title>sprite_99</title>
</rect>
<rect x="2536" y="2168" width="504" height="120" stroke="black" fill="red" fill-opacity="0.1" id="100">
<title>sprite_100</title>
</rect>
<rect x="3040" y="2168" width="328" height="120" stroke="black" fill="red" fill-opacity="0.1" id="101">
<title>sprite_101</title>
</rect>
<rect x="3368" y="2168" width="248" height="120" stroke="black" fill="red" fill-opacity="0.1" id="102">
<title>sprite_102</title>
</rect>
<rect x="3616" y="2168" width="248" height="120" stroke="black" fill="red" fill-opacity="0.1" id="103">
<title>sprite_103</title>
</rect>
<rect x="3864" y="2200" width="136" height="88" stroke="black" fill="red" fill-opacity="0.1" id="104">
<title>sprite_104</title>
</rect>
<rect x="3040" y="2288" width="504" height="376" stroke="black" fill="red" fill-opacity="0.1" id="105">
<title>sprite_105</title>
</rect>
<rect x="3544" y="2288" width="504" height="376" stroke="black" fill="red" fill-opacity="0.1" id="106">
<title>sprite_106</title>
</rect>
<rect x="1136" y="2816" width="1024" height="1280" stroke="black" fill="red" fill-opacity="0.1" id="107">
<title>sprite_107</title>
</rect>
<rect x="1136" y="2696" width="248" height="120" stroke="black" fill="red" fill-opacity="0.1" id="108">
<title>sprite_108</title>
</rect>
<rect x="1384" y="2712" width="504" height="104" stroke="black" fill="red" fill-opacity="0.1" id="109">
<title>sprite_109</title>
</rect>
<rect x="1888" y="2728" width="136" height="88" stroke="black" fill="red" fill-opacity="0.1" id="110">
<title>sprite_110</title>
</rect>
<rect x="2024" y="2744" width="568" height="72" stroke="black" fill="red" fill-opacity="0.1" id="111">
<title>sprite_111</title>
</rect>
<rect x="2024" y="2672" width="568" height="72" stroke="black" fill="red" fill-opacity="0.1" id="112">
<title>sprite_112</title>
</rect>
<rect x="2592" y="2672" width="568" height="72" stroke="black" fill="red" fill-opacity="0.1" id="113">
<title>sprite_113</title>
</rect>
<rect x="3160" y="2672" width="568" height="72" stroke="black" fill="red" fill-opacity="0.1" id="114">
<title>sprite_114</title>
</rect>
<rect x="2592" y="2744" width="568" height="72" stroke="black" fill="red" fill-opacity="0.1" id="115">
<title>sprite_115</title>
</rect>
<rect x="3160" y="2744" width="568" height="72" stroke="black" fill="red" fill-opacity="0.1" id="116">
<title>sprite_116</title>
</rect>
<rect x="2160" y="2816" width="1024" height="1280" stroke="black" fill="red" fill-opacity="0.1" id="117">
<title>sprite_117</title>
</rect>
<rect x="3184" y="3720" width="504" height="376" stroke="black" fill="red" fill-opacity="0.1" id="118">
<title>sprite_118</title>
</rect>
<rect x="3184" y="3648" width="568" height="72" stroke="black" fill="red" fill-opacity="0.1" id="119">
<title>sprite_119</title>
</rect>
<rect x="3184" y="3576" width="568" height="72" stroke="black" fill="red" fill-opacity="0.1" id="120">
<title>sprite_120</title>
</rect>
<rect x="3184" y="3504" width="568" height="72" stroke="black" fill="red" fill-opacity="0.1" id="121">
<title>sprite_121</title>
</rect>
<rect x="3184" y="3432" width="568" height="72" stroke="black" fill="red" fill-opacity="0.1" id="122">
<title>sprite_122</title>
</rect>
<rect x="3184" y="3360" width="568" height="72" stroke="black" fill="red" fill-opacity="0.1" id="123">
<title>sprite_123</title>
</rect>
<rect x="3184" y="3288" width="568" height="72" stroke="black" fill="red" fill-opacity="0.1" id="124">
<title>sprite_124</title>
</rect>
<rect x="3184" y="3216" width="568" height="72" stroke="black" fill="red" fill-opacity="0.1" id="125">
<title>sprite_125</title>
</rect>
<rect x="3184" y="3144" width="568" height="72" stroke="black" fill="red" fill-opacity="0.1" id="126">
<title>sprite_126</title>
</rect>
<rect x="3184" y="3072" width="568" height="72" stroke="black" fill="red" fill-opacity="0.1" id="127">
<title>sprite_127</title>
</rect>
<rect x="3184" y="3000" width="568" height="72" stroke="black" fill="red" fill-opacity="0.1" id="128">
<title>sprite_128</title>
</rect>
<rect x="3184" y="2928" width="568" height="72" stroke="black" fill="red" fill-opacity="0.1" id="129">
<title>sprite_129</title>
</rect>
<rect x="3184" y="2856" width="568" height="72" stroke="black" fill="red" fill-opacity="0.1" id="130">
<title>sprite_130</title>
</rect>
<rect x="3688" y="3848" width="248" height="248" stroke="black" fill="red" fill-opacity="0.1" id="131">
<title>sprite_131</title>
</rect>
</svg>