<?xml version="1.0" encoding="UTF-8"?>
<svg xmlns="http://www.w3.org/2000/svg" xmlns:xlink="http://www.w3.org/1999/xlink"
     width="1024" height="1024" viewBox="0 0 1024 1024">
<defs>
</defs>
<rect x="0" y="704" width="320" height="320" stroke="black" fill="red" fill-opacity="0.1" id="0">
<title>sprite_132</title>
</rect>
<rect x="0" y="450" width="512" height="254" stroke="black" fill="red" fill-opacity="0.1" id="1">
<title>sprite_133</title>
</rect>
<rect x="0" y="196" width="410" height="254" stroke="black" fill="red" fill-opacity="0.1" id="2">
<title>sprite_134</title>
</rect>
<rect x="0" y="68" width="443" height="128" stroke="black" fill="red" fill-opacity="0.1" id="3">
<title>sprite_135</title>
</rect>
<rect x="0" y="17" width="158" height="51" stroke="black" fill="red" fill-opacity="0.1" id="4">
<title>sprite_136</title>
</rect>
<rect x="158" y="18" width="50" height="50" stroke="black" fill="red" fill-opacity="0.1" id="5">
<title>sprite_137</title>
</rect>
<rect x="208" y="19" width="79" height="49" stroke="black" fill="red" fill-opacity="0.1" id="6">
<title>sprite_138</title>
</rect>
<rect x="287" y="22" width="77" height="46" stroke="black" fill="red" fill-opacity="0.1" id="7">
<title>sprite_139</title>
</rect>
<rect x="287" y="0" width="142" height="22" stroke="black" fill="red" fill-opacity="0.1" id="8">
<title>sprite_140</title>
</rect>
<rect x="429" y="0" width="78" height="22" stroke="black" fill="red" fill-opacity="0.1" id="9">
<title>sprite_141</title>
</rect>
<rect x="507" y="0" width="32" height="22" stroke="black" fill="red" fill-opacity="0.1" id="10">
<title>sprite_142</title>
</rect>
<rect x="539" y="0" width="22" height="22" stroke="black" fill="red" fill-opacity="0.1" id="11">
<title>sprite_143</title>
</rect>
<rect x="561" y="0" width="22" height="22" stroke="black" fill="red" fill-opacity="0.1" id="12">
<title>sprite_144</title>
</rect>
<rect x="583" y="0" width="14" height="22" stroke="black" fill="red" fill-opacity="0.1" id="13">
<title>sprite_145</title>
</rect>
<rect x="597" y="2" width="30" height="20" stroke="black" fill="red" fill-opacity="0.1" id="14">
<title>sprite_146</title>
</rect>
<rect x="627" y="4" width="142" height="18" stroke="black" fill="red" fill-opacity="0.1" id="15">
<title>sprite_147</title>
</rect>
<rect x="769" y="4" width="142" height="18" stroke="black" fill="red" fill-opacity="0.1" id="16">
<title>sprite_148</title>
</rect>
<rect x="911" y="9" width="22" height="13" stroke="black" fill="red" fill-opacity="0.1" id="17">
<title>sprite_149</title>
</rect>
<rect x="364" y="22" width="46" height="46" stroke="black" fill="red" fill-opacity="0.1" id="18">
<title>sprite_150</title>
</rect>
<rect x="410" y="22" width="46" height="46" stroke="black" fill="red" fill-opacity="0.1" id="19">
<title>sprite_151</title>
</rect>
<rect x="456" y="22" width="46" height="46" stroke="black" fill="red" fill-opacity="0.1" id="20">
<title>sprite_152</title>
</rect>
<rect x="502" y="22" width="46" height="46" stroke="black" fill="red" fill-opacity="0.1" id="21">
<title>sprite_153</title>
</rect>
<rect x="548" y="22" width="46" height="46" stroke="black" fill="red" fill-opacity="0.1" id="22">
<title>sprite_154</title>
</rect>
<rect x="594" y="26" width="318" height="42" stroke="black" fill="red" fill-opacity="0.1" id="23">
<title>sprite_155</title>
</rect>
<rect x="912" y="26" width="42" height="42" stroke="black" fill="red" fill-opacity="0.1" id="24">
<title>sprite_156</title>
</rect>
<rect x="954" y="26" width="42" height="42" stroke="black" fill="red" fill-opacity="0.1" id="25">
<title>sprite_157</title>
</rect>
<rect x="996" y="40" width="28" height="28" stroke="black" fill="red" fill-opacity="0.1" id="26">
<title>sprite_158</title>
</rect>
<rect x="443" y="102" width="126" height="94" stroke="black" fill="red" fill-opacity="0.1" id="27">
<title>sprite_159</title>
</rect>
<rect x="569" y="130" width="66" height="66" stroke="black" fill="red" fill-opacity="0.1" id="28">
<title>sprite_160</title>
</rect>
<rect x="569" y="88" width="250" height="42" stroke="black" fill="red" fill-opacity="0.1" id="29">
<title>sprite_161</title>
</rect>
<rect x="569" y="70" width="142" height="18" stroke="black" fill="red" fill-opacity="0.1" id="30">
<title>sprite_162</title>
</rect>
<rect x="711" y="70" width="142" height="18" stroke="black" fill="red" fill-opacity="0.1" id="31">
<title>sprite_163</title>
</rect>
<rect x="853" y="70" width="142" height="18" stroke="black" fill="red" fill-opacity="0.1" id="32">
<title>sprite_164</title>
</rect>
<rect x="819" y="94" width="36" height="36" stroke="black" fill="red" fill-opacity="0.1" id="33">
<title>sprite_165</title>
</rect>
<rect x="855" y="96" width="94" height="34" stroke="black" fill="red" fill-opacity="0.1" id="34">
<title>sprite_166</title>
</rect>
<rect x="949" y="100" width="30" height="30" stroke="black" fill="red" fill-opacity="0.1" id="35">
<title>sprite_167</title>
</rect>
<rect x="979" y="100" width="30" height="30" stroke="black" fill="red" fill-opacity="0.1" id="36">
<title>sprite_168</title>
</rect>
<rect x="635" y="134" width="126" height="62" stroke="black" fill="red" fill-opacity="0.1" id="37">
<title>sprite_169</title>
</rect>
<rect x="761" y="134" width="62" height="62" stroke="black" fill="red" fill-opacity="0.1" id="38">
<title>sprite_170</title>
</rect>
<rect x="823" y="134" width="62" height="62" stroke="black" fill="red" fill-opacity="0.1" id="39">
<title>sprite_171</title>
</rect>
<rect x="885" y="142" width="54" height="54" stroke="black" fill="red" fill-opacity="0.1" id="40">
<title>sprite_172</title>
</rect>
<rect x="939" y="142" width="54" height="54" stroke="black" fill="red" fill-opacity="0.1" id="41">
<title>sprite_173</title>
</rect>
<rect x="993" y="166" width="30" height="30" stroke="black" fill="red" fill-opacity="0.1" id="42">
<title>sprite_174</title>
</rect>
<rect x="410" y="322" width="443" height="128" stroke="black" fill="red" fill-opacity="0.1" id="43">
<title>sprite_175</title>
</rect>
<rect x="410" y="280" width="250" height="42" stroke="black" fill="red" fill-opacity="0.1" id="44">
<title>sprite_176</title>
</rect>
<rect x="410" y="245" width="207" height="35" stroke="black" fill="red" fill-opacity="0.1" id="45">
<title>sprite_177</title>
</rect>
<rect x="410" y="217" width="423" height="28" stroke="black" fill="red" fill-opacity="0.1" id="46">
<title>sprite_178</title>
</rect>
<rect x="410" y="199" width="142" height="18" stroke="black" fill="red" fill-opacity="0.1" id="47">
<title>sprite_179</title>
</rect>
<rect x="552" y="199" width="142" height="18" stroke="black" fill="red" fill-opacity="0.1" id="48">
<title>sprite_180</title>
</rect>
<rect x="694" y="199" width="142" height="18" stroke="black" fill="red" fill-opacity="0.1" id="49">
<title>sprite_181</title>
</rect>
<rect x="836" y="199" width="142" height="18" stroke="black" fill="red" fill-opacity="0.1" id="50">
<title>sprite_182</title>
</rect>
<rect x="833" y="217" width="28" height="28" stroke="black" fill="red" fill-opacity="0.1" id="51">
<title>sprite_183</title>
</rect>
<rect x="861" y="217" width="28" height="28" stroke="black" fill="red" fill-opacity="0.1" id="52">
<title>sprite_184</title>
</rect>
<rect x="889" y="219" width="26" height="26" stroke="black" fill="red" fill-opacity="0.1" id="53">
<title>sprite_185</title>
</rect>
<rect x="915" y="221" width="21" height="24" stroke="black" fill="red" fill-opacity="0.1" id="54">
<title>sprite_186</title>
</rect>
<rect x="936" y="221" width="20" height="24" stroke="black" fill="red" fill-opacity="0.1" id="55">
<title>sprite_187</title>
</rect>
<rect x="956" y="221" width="20" height="24" stroke="black" fill="red" fill-opacity="0.1" id="56">
<title>sprite_188</title>
</rect>
<rect x="976" y="222" width="36" height="23" stroke="black" fill="red" fill-opacity="0.1" id="57">
<title>sprite_189</title>
</rect>
<rect x="617" y="250" width="170" height="30" stroke="black" fill="red" fill-opacity="0.1" id="58">
<title>sprite_190</title>
</rect>
<rect x="787" y="250" width="126" height="30" stroke="black" fill="red" fill-opacity="0.1" id="59">
<title>sprite_191</title>
</rect>
<rect x="913" y="250" width="30" height="30" stroke="black" fill="red" fill-opacity="0.1" id="60">
<title>sprite_192</title>
</rect>
<rect x="943" y="250" width="30" height="30" stroke="black" fill="red" fill-opacity="0.1" id="61">
<title>sprite_193</title>
</rect>
<rect x="973" y="250" width="30" height="30" stroke="black" fill="red" fill-opacity="0.1" id="62">
<title>sprite_194</title>
</rect>
<rect x="660" y="281" width="214" height="41" stroke="black" fill="red" fill-opacity="0.1" id="63">
<title>sprite_195</title>
</rect>
<rect x="874" y="292" width="126" height="30" stroke="black" fill="red" fill-opacity="0.1" id="64">
<title>sprite_196</title>
</rect>
<rect x="853" y="396" width="54" height="54" stroke="black" fill="red" fill-opacity="0.1" id="65">
<title>sprite_197</title>
</rect>
<rect x="907" y="396" width="54" height="54" stroke="black" fill="red" fill-opacity="0.1" id="66">
<title>sprite_198</title>
</rect>
<rect x="961" y="420" width="30" height="30" stroke="black" fill="red" fill-opacity="0.1" id="67">
<title>sprite_199</title>
</rect>
<rect x="991" y="420" width="30" height="30" stroke="black" fill="red" fill-opacity="0.1" id="68">
<title>sprite_200</title>
</rect>
<rect x="512" y="450" width="430" height="254" stroke="black" fill="red" fill-opacity="0.1" id="69">
<title>sprite_201</title>
</rect>
<rect x="942" y="674" width="30" height="30" stroke="black" fill="red" fill-opacity="0.1" id="70">
<title>sprite_202</title>
</rect>
<rect x="972" y="674" width="30" height="30" stroke="black" fill="red" fill-opacity="0.1" id="71">
<title>sprite_203</title>
</rect>
<rect x="320" y="704" width="320" height="320" stroke="black" fill="red" fill-opacity="0.1" id="72">
<title>sprite_204</title>
</rect>
<rect x="640" y="704" width="256" height="320" stroke="black" fill="red" fill-opacity="0.1" id="73">
<title>sprite_205</title>
</rect>
<rect x="896" y="994" width="30" height="30" stroke="black" fill="red" fill-opacity="0.1" id="74">
<title>sprite_206</title>
</rect>
<rect x="926" y="994" width="30" height="30" stroke="black" fill="red" fill-opacity="0.1" id="75">
<title>sprite_207</title>
</rect>
<rect x="956" y="1001" width="29" height="23" stroke="black" fill="red" fill-opacity="0.1" id="76">
<title>sprite_208</title>
</rect>
</svg>