<?xml version="1.0" encoding="UTF-8"?>
<svg xmlns="http://www.w3.org/2000/svg" xmlns:xlink="http://www.w3.org/1999/xlink"
     width="1024" height="512" viewBox="0 0 1024 512">
<defs>
</defs>
<rect x="0" y="394" width="238" height="118" stroke="black" fill="red" fill-opacity="0.1" id="0">
<title>sprite_1474</title>
</rect>
<rect x="238" y="447" width="218" height="65" stroke="black" fill="red" fill-opacity="0.1" id="1">
<title>sprite_1475</title>
</rect>
<rect x="456" y="465" width="391" height="47" stroke="black" fill="red" fill-opacity="0.1" id="2">
<title>sprite_1476</title>
</rect>
<rect x="0" y="347" width="391" height="47" stroke="black" fill="red" fill-opacity="0.1" id="3">
<title>sprite_1477</title>
</rect>
<rect x="391" y="351" width="363" height="43" stroke="black" fill="red" fill-opacity="0.1" id="4">
<title>sprite_1478</title>
</rect>
<rect x="0" y="304" width="362" height="43" stroke="black" fill="red" fill-opacity="0.1" id="5">
<title>sprite_1479</title>
</rect>
<rect x="362" y="307" width="488" height="40" stroke="black" fill="red" fill-opacity="0.1" id="6">
<title>sprite_1480</title>
</rect>
<rect x="0" y="264" width="488" height="40" stroke="black" fill="red" fill-opacity="0.1" id="7">
<title>sprite_1481</title>
</rect>
<rect x="488" y="264" width="450" height="40" stroke="black" fill="red" fill-opacity="0.1" id="8">
<title>sprite_1482</title>
</rect>
<rect x="0" y="224" width="450" height="40" stroke="black" fill="red" fill-opacity="0.1" id="9">
<title>sprite_1483</title>
</rect>
<rect x="450" y="224" width="450" height="40" stroke="black" fill="red" fill-opacity="0.1" id="10">
<title>sprite_1484</title>
</rect>
<rect x="0" y="184" width="450" height="40" stroke="black" fill="red" fill-opacity="0.1" id="11">
<title>sprite_1485</title>
</rect>
<rect x="0" y="144" width="332" height="40" stroke="black" fill="red" fill-opacity="0.1" id="12">
<title>sprite_1486</title>
</rect>
<rect x="332" y="150" width="94" height="34" stroke="black" fill="red" fill-opacity="0.1" id="13">
<title>sprite_1487</title>
</rect>
<rect x="426" y="150" width="94" height="34" stroke="black" fill="red" fill-opacity="0.1" id="14">
<title>sprite_1488</title>
</rect>
<rect x="520" y="150" width="72" height="34" stroke="black" fill="red" fill-opacity="0.1" id="15">
<title>sprite_1489</title>
</rect>
<rect x="592" y="150" width="72" height="34" stroke="black" fill="red" fill-opacity="0.1" id="16">
<title>sprite_1490</title>
</rect>
<rect x="664" y="156" width="42" height="28" stroke="black" fill="red" fill-opacity="0.1" id="17">
<title>sprite_1491</title>
</rect>
<rect x="706" y="160" width="22" height="24" stroke="black" fill="red" fill-opacity="0.1" id="18">
<title>sprite_1492</title>
</rect>
<rect x="728" y="160" width="20" height="24" stroke="black" fill="red" fill-opacity="0.1" id="19">
<title>sprite_1493</title>
</rect>
<rect x="748" y="160" width="19" height="24" stroke="black" fill="red" fill-opacity="0.1" id="20">
<title>sprite_1494</title>
</rect>
<rect x="0" y="122" width="273" height="22" stroke="black" fill="red" fill-opacity="0.1" id="21">
<title>sprite_1495</title>
</rect>
<rect x="273" y="122" width="200" height="22" stroke="black" fill="red" fill-opacity="0.1" id="22">
<title>sprite_1496</title>
</rect>
<rect x="473" y="122" width="200" height="22" stroke="black" fill="red" fill-opacity="0.1" id="23">
<title>sprite_1497</title>
</rect>
<rect x="673" y="122" width="190" height="22" stroke="black" fill="red" fill-opacity="0.1" id="24">
<title>sprite_1498</title>
</rect>
<rect x="767" y="162" width="175" height="22" stroke="black" fill="red" fill-opacity="0.1" id="25">
<title>sprite_1499</title>
</rect>
<rect x="850" y="325" width="174" height="22" stroke="black" fill="red" fill-opacity="0.1" id="26">
<title>sprite_1500</title>
</rect>
<rect x="754" y="372" width="172" height="22" stroke="black" fill="red" fill-opacity="0.1" id="27">
<title>sprite_1501</title>
</rect>
<rect x="847" y="490" width="167" height="22" stroke="black" fill="red" fill-opacity="0.1" id="28">
<title>sprite_1502</title>
</rect>
<rect x="863" y="122" width="155" height="22" stroke="black" fill="red" fill-opacity="0.1" id="29">
<title>sprite_1503</title>
</rect>
<rect x="900" y="202" width="112" height="22" stroke="black" fill="red" fill-opacity="0.1" id="30">
<title>sprite_1504</title>
</rect>
<rect x="900" y="242" width="112" height="22" stroke="black" fill="red" fill-opacity="0.1" id="31">
<title>sprite_1505</title>
</rect>
<rect x="942" y="163" width="13" height="21" stroke="black" fill="red" fill-opacity="0.1" id="32">
<title>sprite_1506</title>
</rect>
<rect x="955" y="163" width="13" height="21" stroke="black" fill="red" fill-opacity="0.1" id="33">
<title>sprite_1507</title>
</rect>
<rect x="968" y="163" width="13" height="21" stroke="black" fill="red" fill-opacity="0.1" id="34">
<title>sprite_1508</title>
</rect>
<rect x="981" y="163" width="13" height="21" stroke="black" fill="red" fill-opacity="0.1" id="35">
<title>sprite_1509</title>
</rect>
<rect x="994" y="163" width="13" height="21" stroke="black" fill="red" fill-opacity="0.1" id="36">
<title>sprite_1510</title>
</rect>
<rect x="1007" y="163" width="12" height="21" stroke="black" fill="red" fill-opacity="0.1" id="37">
<title>sprite_1511</title>
</rect>
<rect x="1012" y="203" width="12" height="21" stroke="black" fill="red" fill-opacity="0.1" id="38">
<title>sprite_1512</title>
</rect>
<rect x="1012" y="243" width="12" height="21" stroke="black" fill="red" fill-opacity="0.1" id="39">
<title>sprite_1513</title>
</rect>
<rect x="938" y="283" width="12" height="21" stroke="black" fill="red" fill-opacity="0.1" id="40">
<title>sprite_1514</title>
</rect>
<rect x="950" y="283" width="8" height="21" stroke="black" fill="red" fill-opacity="0.1" id="41">
<title>sprite_1515</title>
</rect>
<rect x="958" y="284" width="60" height="20" stroke="black" fill="red" fill-opacity="0.1" id="42">
<title>sprite_1516</title>
</rect>
<rect x="0" y="103" width="216" height="19" stroke="black" fill="red" fill-opacity="0.1" id="43">
<title>sprite_1517</title>
</rect>
<rect x="216" y="104" width="160" height="18" stroke="black" fill="red" fill-opacity="0.1" id="44">
<title>sprite_1518</title>
</rect>
<rect x="376" y="104" width="86" height="18" stroke="black" fill="red" fill-opacity="0.1" id="45">
<title>sprite_1519</title>
</rect>
<rect x="462" y="104" width="86" height="18" stroke="black" fill="red" fill-opacity="0.1" id="46">
<title>sprite_1520</title>
</rect>
<rect x="548" y="106" width="279" height="16" stroke="black" fill="red" fill-opacity="0.1" id="47">
<title>sprite_1521</title>
</rect>
<rect x="827" y="106" width="140" height="16" stroke="black" fill="red" fill-opacity="0.1" id="48">
<title>sprite_1522</title>
</rect>
<rect x="0" y="87" width="140" height="16" stroke="black" fill="red" fill-opacity="0.1" id="49">
<title>sprite_1523</title>
</rect>
<rect x="140" y="87" width="102" height="16" stroke="black" fill="red" fill-opacity="0.1" id="50">
<title>sprite_1524</title>
</rect>
<rect x="242" y="87" width="102" height="16" stroke="black" fill="red" fill-opacity="0.1" id="51">
<title>sprite_1525</title>
</rect>
<rect x="441" y="87" width="97" height="16" stroke="black" fill="red" fill-opacity="0.1" id="52">
<title>sprite_1526</title>
</rect>
<rect x="538" y="87" width="97" height="16" stroke="black" fill="red" fill-opacity="0.1" id="53">
<title>sprite_1527</title>
</rect>
<rect x="635" y="87" width="97" height="16" stroke="black" fill="red" fill-opacity="0.1" id="54">
<title>sprite_1528</title>
</rect>
<rect x="732" y="87" width="97" height="16" stroke="black" fill="red" fill-opacity="0.1" id="55">
<title>sprite_1529</title>
</rect>
<rect x="829" y="87" width="97" height="16" stroke="black" fill="red" fill-opacity="0.1" id="56">
<title>sprite_1530</title>
</rect>
<rect x="926" y="87" width="97" height="16" stroke="black" fill="red" fill-opacity="0.1" id="57">
<title>sprite_1531</title>
</rect>
<rect x="926" y="378" width="97" height="16" stroke="black" fill="red" fill-opacity="0.1" id="58">
<title>sprite_1532</title>
</rect>
<rect x="0" y="71" width="97" height="16" stroke="black" fill="red" fill-opacity="0.1" id="59">
<title>sprite_1533</title>
</rect>
<rect x="97" y="71" width="97" height="16" stroke="black" fill="red" fill-opacity="0.1" id="60">
<title>sprite_1534</title>
</rect>
<rect x="194" y="71" width="97" height="16" stroke="black" fill="red" fill-opacity="0.1" id="61">
<title>sprite_1535</title>
</rect>
<rect x="291" y="71" width="97" height="16" stroke="black" fill="red" fill-opacity="0.1" id="62">
<title>sprite_1536</title>
</rect>
<rect x="388" y="71" width="97" height="16" stroke="black" fill="red" fill-opacity="0.1" id="63">
<title>sprite_1537</title>
</rect>
<rect x="485" y="74" width="9" height="13" stroke="black" fill="red" fill-opacity="0.1" id="64">
<title>sprite_1538</title>
</rect>
<rect x="494" y="74" width="8" height="13" stroke="black" fill="red" fill-opacity="0.1" id="65">
<title>sprite_1539</title>
</rect>
<rect x="502" y="74" width="8" height="13" stroke="black" fill="red" fill-opacity="0.1" id="66">
<title>sprite_1540</title>
</rect>
<rect x="510" y="74" width="8" height="13" stroke="black" fill="red" fill-opacity="0.1" id="67">
<title>sprite_1541</title>
</rect>
<rect x="518" y="74" width="8" height="13" stroke="black" fill="red" fill-opacity="0.1" id="68">
<title>sprite_1542</title>
</rect>
<rect x="526" y="74" width="8" height="13" stroke="black" fill="red" fill-opacity="0.1" id="69">
<title>sprite_1543</title>
</rect>
<rect x="534" y="74" width="8" height="13" stroke="black" fill="red" fill-opacity="0.1" id="70">
<title>sprite_1544</title>
</rect>
<rect x="542" y="74" width="8" height="13" stroke="black" fill="red" fill-opacity="0.1" id="71">
<title>sprite_1545</title>
</rect>
<rect x="550" y="74" width="7" height="13" stroke="black" fill="red" fill-opacity="0.1" id="72">
<title>sprite_1546</title>
</rect>
<rect x="557" y="74" width="6" height="13" stroke="black" fill="red" fill-opacity="0.1" id="73">
<title>sprite_1547</title>
</rect>
<rect x="563" y="75" width="30" height="12" stroke="black" fill="red" fill-opacity="0.1" id="74">
<title>sprite_1548</title>
</rect>
</svg>