<?xml version="1.0" encoding="UTF-8"?>
<svg xmlns="http://www.w3.org/2000/svg" xmlns:xlink="http://www.w3.org/1999/xlink"
     width="2048" height="2048" viewBox="0 0 2048 2048">
<defs>
</defs>
<rect x="0" y="1908" width="1168" height="140" stroke="black" fill="red" fill-opacity="0.1" id="0">
<title>sprite_563</title>
</rect>
<rect x="0" y="1796" width="1072" height="112" stroke="black" fill="red" fill-opacity="0.1" id="1">
<title>sprite_564</title>
</rect>
<rect x="0" y="1684" width="1072" height="112" stroke="black" fill="red" fill-opacity="0.1" id="2">
<title>sprite_565</title>
</rect>
<rect x="0" y="1572" width="1072" height="112" stroke="black" fill="red" fill-opacity="0.1" id="3">
<title>sprite_566</title>
</rect>
<rect x="0" y="1460" width="1072" height="112" stroke="black" fill="red" fill-opacity="0.1" id="4">
<title>sprite_567</title>
</rect>
<rect x="0" y="1348" width="1072" height="112" stroke="black" fill="red" fill-opacity="0.1" id="5">
<title>sprite_568</title>
</rect>
<rect x="0" y="1236" width="1072" height="112" stroke="black" fill="red" fill-opacity="0.1" id="6">
<title>sprite_569</title>
</rect>
<rect x="0" y="1124" width="1072" height="112" stroke="black" fill="red" fill-opacity="0.1" id="7">
<title>sprite_570</title>
</rect>
<rect x="0" y="1012" width="1072" height="112" stroke="black" fill="red" fill-opacity="0.1" id="8">
<title>sprite_571</title>
</rect>
<rect x="0" y="900" width="1072" height="112" stroke="black" fill="red" fill-opacity="0.1" id="9">
<title>sprite_572</title>
</rect>
<rect x="0" y="788" width="1072" height="112" stroke="black" fill="red" fill-opacity="0.1" id="10">
<title>sprite_573</title>
</rect>
<rect x="0" y="676" width="1072" height="112" stroke="black" fill="red" fill-opacity="0.1" id="11">
<title>sprite_574</title>
</rect>
<rect x="0" y="564" width="1072" height="112" stroke="black" fill="red" fill-opacity="0.1" id="12">
<title>sprite_575</title>
</rect>
<rect x="0" y="452" width="1072" height="112" stroke="black" fill="red" fill-opacity="0.1" id="13">
<title>sprite_576</title>
</rect>
<rect x="1072" y="1832" width="956" height="76" stroke="black" fill="red" fill-opacity="0.1" id="14">
<title>sprite_577</title>
</rect>
<rect x="1168" y="1972" width="612" height="76" stroke="black" fill="red" fill-opacity="0.1" id="15">
<title>sprite_578</title>
</rect>
<rect x="1072" y="1720" width="612" height="76" stroke="black" fill="red" fill-opacity="0.1" id="16">
<title>sprite_579</title>
</rect>
<rect x="1072" y="1608" width="524" height="76" stroke="black" fill="red" fill-opacity="0.1" id="17">
<title>sprite_580</title>
</rect>
<rect x="1596" y="1608" width="404" height="76" stroke="black" fill="red" fill-opacity="0.1" id="18">
<title>sprite_581</title>
</rect>
</svg>