<?xml version="1.0" encoding="UTF-8"?>
<svg xmlns="http://www.w3.org/2000/svg" xmlns:xlink="http://www.w3.org/1999/xlink"
     width="2048" height="2048" viewBox="0 0 2048 2048">
<defs>
</defs>
<rect x="0" y="1952" width="1400" height="96" stroke="black" fill="red" fill-opacity="0.1" id="0">
<title>sprite_985</title>
</rect>
<rect x="0" y="1856" width="1400" height="96" stroke="black" fill="red" fill-opacity="0.1" id="1">
<title>sprite_986</title>
</rect>
<rect x="0" y="1760" width="1400" height="96" stroke="black" fill="red" fill-opacity="0.1" id="2">
<title>sprite_987</title>
</rect>
<rect x="0" y="1664" width="1400" height="96" stroke="black" fill="red" fill-opacity="0.1" id="3">
<title>sprite_988</title>
</rect>
<rect x="0" y="1568" width="1400" height="96" stroke="black" fill="red" fill-opacity="0.1" id="4">
<title>sprite_989</title>
</rect>
<rect x="0" y="1472" width="1400" height="96" stroke="black" fill="red" fill-opacity="0.1" id="5">
<title>sprite_990</title>
</rect>
<rect x="0" y="1376" width="1400" height="96" stroke="black" fill="red" fill-opacity="0.1" id="6">
<title>sprite_991</title>
</rect>
<rect x="0" y="1280" width="1400" height="96" stroke="black" fill="red" fill-opacity="0.1" id="7">
<title>sprite_992</title>
</rect>
<rect x="0" y="1184" width="1400" height="96" stroke="black" fill="red" fill-opacity="0.1" id="8">
<title>sprite_993</title>
</rect>
<rect x="0" y="1088" width="1400" height="96" stroke="black" fill="red" fill-opacity="0.1" id="9">
<title>sprite_994</title>
</rect>
<rect x="0" y="992" width="1400" height="96" stroke="black" fill="red" fill-opacity="0.1" id="10">
<title>sprite_995</title>
</rect>
<rect x="0" y="896" width="1400" height="96" stroke="black" fill="red" fill-opacity="0.1" id="11">
<title>sprite_996</title>
</rect>
<rect x="0" y="800" width="1400" height="96" stroke="black" fill="red" fill-opacity="0.1" id="12">
<title>sprite_997</title>
</rect>
<rect x="0" y="704" width="1400" height="96" stroke="black" fill="red" fill-opacity="0.1" id="13">
<title>sprite_998</title>
</rect>
<rect x="0" y="608" width="1400" height="96" stroke="black" fill="red" fill-opacity="0.1" id="14">
<title>sprite_999</title>
</rect>
<rect x="0" y="512" width="1400" height="96" stroke="black" fill="red" fill-opacity="0.1" id="15">
<title>sprite_1000</title>
</rect>
<rect x="0" y="416" width="1400" height="96" stroke="black" fill="red" fill-opacity="0.1" id="16">
<title>sprite_1001</title>
</rect>
<rect x="0" y="320" width="1400" height="96" stroke="black" fill="red" fill-opacity="0.1" id="17">
<title>sprite_1002</title>
</rect>
<rect x="0" y="224" width="1400" height="96" stroke="black" fill="red" fill-opacity="0.1" id="18">
<title>sprite_1003</title>
</rect>
<rect x="0" y="128" width="1400" height="96" stroke="black" fill="red" fill-opacity="0.1" id="19">
<title>sprite_1004</title>
</rect>
<rect x="0" y="32" width="1400" height="96" stroke="black" fill="red" fill-opacity="0.1" id="20">
<title>sprite_1005</title>
</rect>
</svg>