<?xml version="1.0" encoding="UTF-8"?>
<svg xmlns="http://www.w3.org/2000/svg" xmlns:xlink="http://www.w3.org/1999/xlink"
     width="4096" height="2048" viewBox="0 0 4096 2048">
<defs>
</defs>
<rect x="0" y="1544" width="544" height="504" stroke="black" fill="red" fill-opacity="0.1" id="0">
<title>sprite_1147</title>
</rect>
<rect x="544" y="1544" width="544" height="504" stroke="black" fill="red" fill-opacity="0.1" id="1">
<title>sprite_1148</title>
</rect>
<rect x="1088" y="1544" width="544" height="504" stroke="black" fill="red" fill-opacity="0.1" id="2">
<title>sprite_1149</title>
</rect>
<rect x="1632" y="1544" width="544" height="504" stroke="black" fill="red" fill-opacity="0.1" id="3">
<title>sprite_1150</title>
</rect>
<rect x="2176" y="1544" width="544" height="504" stroke="black" fill="red" fill-opacity="0.1" id="4">
<title>sprite_1151</title>
</rect>
<rect x="2720" y="1544" width="544" height="504" stroke="black" fill="red" fill-opacity="0.1" id="5">
<title>sprite_1152</title>
</rect>
<rect x="3264" y="1544" width="544" height="504" stroke="black" fill="red" fill-opacity="0.1" id="6">
<title>sprite_1153</title>
</rect>
<rect x="0" y="1040" width="544" height="504" stroke="black" fill="red" fill-opacity="0.1" id="7">
<title>sprite_1154</title>
</rect>
<rect x="544" y="1040" width="544" height="504" stroke="black" fill="red" fill-opacity="0.1" id="8">
<title>sprite_1155</title>
</rect>
<rect x="1088" y="1040" width="544" height="504" stroke="black" fill="red" fill-opacity="0.1" id="9">
<title>sprite_1156</title>
</rect>
<rect x="1632" y="1040" width="544" height="504" stroke="black" fill="red" fill-opacity="0.1" id="10">
<title>sprite_1157</title>
</rect>
<rect x="2176" y="1040" width="544" height="504" stroke="black" fill="red" fill-opacity="0.1" id="11">
<title>sprite_1158</title>
</rect>
<rect x="2720" y="1040" width="544" height="504" stroke="black" fill="red" fill-opacity="0.1" id="12">
<title>sprite_1159</title>
</rect>
<rect x="3264" y="1040" width="544" height="504" stroke="black" fill="red" fill-opacity="0.1" id="13">
<title>sprite_1160</title>
</rect>
<rect x="0" y="536" width="544" height="504" stroke="black" fill="red" fill-opacity="0.1" id="14">
<title>sprite_1161</title>
</rect>
<rect x="544" y="536" width="544" height="504" stroke="black" fill="red" fill-opacity="0.1" id="15">
<title>sprite_1162</title>
</rect>
<rect x="1088" y="540" width="544" height="500" stroke="black" fill="red" fill-opacity="0.1" id="16">
<title>sprite_1163</title>
</rect>
<rect x="1632" y="540" width="544" height="500" stroke="black" fill="red" fill-opacity="0.1" id="17">
<title>sprite_1164</title>
</rect>
<rect x="2176" y="540" width="544" height="500" stroke="black" fill="red" fill-opacity="0.1" id="18">
<title>sprite_1165</title>
</rect>
</svg>