<?xml version="1.0" encoding="UTF-8"?>
<svg xmlns="http://www.w3.org/2000/svg" xmlns:xlink="http://www.w3.org/1999/xlink"
     width="2048" height="1024" viewBox="0 0 2048 1024">
<defs>
</defs>
<rect x="0" y="852" width="1200" height="172" stroke="black" fill="red" fill-opacity="0.1" id="0">
<title>sprite_913</title>
</rect>
<rect x="0" y="692" width="1800" height="160" stroke="black" fill="red" fill-opacity="0.1" id="1">
<title>sprite_914</title>
</rect>
<rect x="0" y="532" width="1800" height="160" stroke="black" fill="red" fill-opacity="0.1" id="2">
<title>sprite_915</title>
</rect>
<rect x="0" y="372" width="1800" height="160" stroke="black" fill="red" fill-opacity="0.1" id="3">
<title>sprite_916</title>
</rect>
<rect x="1200" y="876" width="788" height="148" stroke="black" fill="red" fill-opacity="0.1" id="4">
<title>sprite_917</title>
</rect>
<rect x="0" y="284" width="980" height="88" stroke="black" fill="red" fill-opacity="0.1" id="5">
<title>sprite_918</title>
</rect>
<rect x="980" y="296" width="460" height="76" stroke="black" fill="red" fill-opacity="0.1" id="6">
<title>sprite_919</title>
</rect>
<rect x="1440" y="296" width="460" height="76" stroke="black" fill="red" fill-opacity="0.1" id="7">
<title>sprite_920</title>
</rect>
<rect x="0" y="208" width="460" height="76" stroke="black" fill="red" fill-opacity="0.1" id="8">
<title>sprite_921</title>
</rect>
<rect x="460" y="208" width="460" height="76" stroke="black" fill="red" fill-opacity="0.1" id="9">
<title>sprite_922</title>
</rect>
<rect x="920" y="208" width="460" height="76" stroke="black" fill="red" fill-opacity="0.1" id="10">
<title>sprite_923</title>
</rect>
<rect x="1380" y="208" width="460" height="76" stroke="black" fill="red" fill-opacity="0.1" id="11">
<title>sprite_924</title>
</rect>
<rect x="1800" y="776" width="104" height="76" stroke="black" fill="red" fill-opacity="0.1" id="12">
<title>sprite_925</title>
</rect>
<rect x="1904" y="776" width="104" height="76" stroke="black" fill="red" fill-opacity="0.1" id="13">
<title>sprite_926</title>
</rect>
<rect x="0" y="136" width="896" height="72" stroke="black" fill="red" fill-opacity="0.1" id="14">
<title>sprite_927</title>
</rect>
<rect x="896" y="144" width="756" height="64" stroke="black" fill="red" fill-opacity="0.1" id="15">
<title>sprite_928</title>
</rect>
<rect x="1652" y="144" width="388" height="64" stroke="black" fill="red" fill-opacity="0.1" id="16">
<title>sprite_929</title>
</rect>
<rect x="1800" y="648" width="200" height="44" stroke="black" fill="red" fill-opacity="0.1" id="17">
<title>sprite_930</title>
</rect>
</svg>