<?xml version="1.0" encoding="UTF-8"?>
<svg xmlns="http://www.w3.org/2000/svg" xmlns:xlink="http://www.w3.org/1999/xlink"
     width="1024" height="1024" viewBox="0 0 1024 1024">
<defs>
</defs>
<rect x="0" y="855" width="233" height="169" stroke="black" fill="red" fill-opacity="0.1" />
<rect x="233" y="855" width="233" height="169" stroke="black" fill="red" fill-opacity="0.1" />
<rect x="466" y="855" width="233" height="169" stroke="black" fill="red" fill-opacity="0.1" />
<rect x="699" y="855" width="233" height="169" stroke="black" fill="red" fill-opacity="0.1" />
<rect x="0" y="686" width="233" height="169" stroke="black" fill="red" fill-opacity="0.1" />
<rect x="233" y="686" width="233" height="169" stroke="black" fill="red" fill-opacity="0.1" />
<rect x="466" y="686" width="233" height="169" stroke="black" fill="red" fill-opacity="0.1" />
<rect x="699" y="686" width="233" height="169" stroke="black" fill="red" fill-opacity="0.1" />
<rect x="0" y="517" width="233" height="169" stroke="black" fill="red" fill-opacity="0.1" />
<rect x="233" y="517" width="233" height="169" stroke="black" fill="red" fill-opacity="0.1" />
<rect x="466" y="517" width="233" height="169" stroke="black" fill="red" fill-opacity="0.1" />
<rect x="699" y="517" width="233" height="169" stroke="black" fill="red" fill-opacity="0.1" />
<rect x="0" y="348" width="233" height="169" stroke="black" fill="red" fill-opacity="0.1" />
<rect x="233" y="348" width="233" height="169" stroke="black" fill="red" fill-opacity="0.1" />
<rect x="466" y="348" width="233" height="169" stroke="black" fill="red" fill-opacity="0.1" />
<rect x="699" y="348" width="233" height="169" stroke="black" fill="red" fill-opacity="0.1" />
<rect x="0" y="179" width="233" height="169" stroke="black" fill="red" fill-opacity="0.1" />
<rect x="233" y="179" width="233" height="169" stroke="black" fill="red" fill-opacity="0.1" />
<rect x="466" y="179" width="233" height="169" stroke="black" fill="red" fill-opacity="0.1" />
<rect x="699" y="179" width="233" height="169" stroke="black" fill="red" fill-opacity="0.1" />
<rect x="0" y="10" width="233" height="169" stroke="black" fill="red" fill-opacity="0.1" />
</svg>