<?xml version="1.0" encoding="UTF-8"?>
<svg xmlns="http://www.w3.org/2000/svg" xmlns:xlink="http://www.w3.org/1999/xlink"
     width="1024" height="1024" viewBox="0 0 1024 1024">
<defs>
</defs>
<rect x="0" y="855" width="233" height="169" stroke="black" fill="red" fill-opacity="0.1" id="0">
<title>sprite_1126</title>
</rect>
<rect x="233" y="855" width="233" height="169" stroke="black" fill="red" fill-opacity="0.1" id="1">
<title>sprite_1127</title>
</rect>
<rect x="466" y="855" width="233" height="169" stroke="black" fill="red" fill-opacity="0.1" id="2">
<title>sprite_1128</title>
</rect>
<rect x="699" y="855" width="233" height="169" stroke="black" fill="red" fill-opacity="0.1" id="3">
<title>sprite_1129</title>
</rect>
<rect x="0" y="686" width="233" height="169" stroke="black" fill="red" fill-opacity="0.1" id="4">
<title>sprite_1130</title>
</rect>
<rect x="233" y="686" width="233" height="169" stroke="black" fill="red" fill-opacity="0.1" id="5">
<title>sprite_1131</title>
</rect>
<rect x="466" y="686" width="233" height="169" stroke="black" fill="red" fill-opacity="0.1" id="6">
<title>sprite_1132</title>
</rect>
<rect x="699" y="686" width="233" height="169" stroke="black" fill="red" fill-opacity="0.1" id="7">
<title>sprite_1133</title>
</rect>
<rect x="0" y="517" width="233" height="169" stroke="black" fill="red" fill-opacity="0.1" id="8">
<title>sprite_1134</title>
</rect>
<rect x="233" y="517" width="233" height="169" stroke="black" fill="red" fill-opacity="0.1" id="9">
<title>sprite_1135</title>
</rect>
<rect x="466" y="517" width="233" height="169" stroke="black" fill="red" fill-opacity="0.1" id="10">
<title>sprite_1136</title>
</rect>
<rect x="699" y="517" width="233" height="169" stroke="black" fill="red" fill-opacity="0.1" id="11">
<title>sprite_1137</title>
</rect>
<rect x="0" y="348" width="233" height="169" stroke="black" fill="red" fill-opacity="0.1" id="12">
<title>sprite_1138</title>
</rect>
<rect x="233" y="348" width="233" height="169" stroke="black" fill="red" fill-opacity="0.1" id="13">
<title>sprite_1139</title>
</rect>
<rect x="466" y="348" width="233" height="169" stroke="black" fill="red" fill-opacity="0.1" id="14">
<title>sprite_1140</title>
</rect>
<rect x="699" y="348" width="233" height="169" stroke="black" fill="red" fill-opacity="0.1" id="15">
<title>sprite_1141</title>
</rect>
<rect x="0" y="179" width="233" height="169" stroke="black" fill="red" fill-opacity="0.1" id="16">
<title>sprite_1142</title>
</rect>
<rect x="233" y="179" width="233" height="169" stroke="black" fill="red" fill-opacity="0.1" id="17">
<title>sprite_1143</title>
</rect>
<rect x="466" y="179" width="233" height="169" stroke="black" fill="red" fill-opacity="0.1" id="18">
<title>sprite_1144</title>
</rect>
<rect x="699" y="179" width="233" height="169" stroke="black" fill="red" fill-opacity="0.1" id="19">
<title>sprite_1145</title>
</rect>
<rect x="0" y="10" width="233" height="169" stroke="black" fill="red" fill-opacity="0.1" id="20">
<title>sprite_1146</title>
</rect>
</svg>