<?xml version="1.0" encoding="UTF-8"?>
<svg xmlns="http://www.w3.org/2000/svg" xmlns:xlink="http://www.w3.org/1999/xlink"
     width="1024" height="512" viewBox="0 0 1024 512">
<defs>
</defs>
<rect x="0" y="386" width="136" height="126" stroke="black" fill="red" fill-opacity="0.1" />
<rect x="136" y="386" width="136" height="126" stroke="black" fill="red" fill-opacity="0.1" />
<rect x="272" y="386" width="136" height="126" stroke="black" fill="red" fill-opacity="0.1" />
<rect x="408" y="386" width="136" height="126" stroke="black" fill="red" fill-opacity="0.1" />
<rect x="544" y="386" width="136" height="126" stroke="black" fill="red" fill-opacity="0.1" />
<rect x="680" y="386" width="136" height="126" stroke="black" fill="red" fill-opacity="0.1" />
<rect x="816" y="386" width="136" height="126" stroke="black" fill="red" fill-opacity="0.1" />
<rect x="0" y="260" width="136" height="126" stroke="black" fill="red" fill-opacity="0.1" />
<rect x="136" y="260" width="136" height="126" stroke="black" fill="red" fill-opacity="0.1" />
<rect x="272" y="260" width="136" height="126" stroke="black" fill="red" fill-opacity="0.1" />
<rect x="408" y="260" width="136" height="126" stroke="black" fill="red" fill-opacity="0.1" />
<rect x="544" y="260" width="136" height="126" stroke="black" fill="red" fill-opacity="0.1" />
<rect x="680" y="260" width="136" height="126" stroke="black" fill="red" fill-opacity="0.1" />
<rect x="816" y="260" width="136" height="126" stroke="black" fill="red" fill-opacity="0.1" />
<rect x="0" y="134" width="136" height="126" stroke="black" fill="red" fill-opacity="0.1" />
<rect x="136" y="134" width="136" height="126" stroke="black" fill="red" fill-opacity="0.1" />
<rect x="272" y="135" width="136" height="125" stroke="black" fill="red" fill-opacity="0.1" />
<rect x="408" y="135" width="136" height="125" stroke="black" fill="red" fill-opacity="0.1" />
<rect x="544" y="135" width="136" height="125" stroke="black" fill="red" fill-opacity="0.1" />
</svg>