<?xml version="1.0" encoding="UTF-8"?>
<svg xmlns="http://www.w3.org/2000/svg" xmlns:xlink="http://www.w3.org/1999/xlink"
     width="256" height="128" viewBox="0 0 256 128">
<defs>
</defs>
<rect x="0" y="103" width="36" height="25" stroke="black" fill="red" fill-opacity="0.1" id="0">
<title>sprite_1054</title>
</rect>
<rect x="36" y="103" width="36" height="25" stroke="black" fill="red" fill-opacity="0.1" id="1">
<title>sprite_1055</title>
</rect>
<rect x="72" y="103" width="36" height="25" stroke="black" fill="red" fill-opacity="0.1" id="2">
<title>sprite_1056</title>
</rect>
<rect x="108" y="103" width="36" height="25" stroke="black" fill="red" fill-opacity="0.1" id="3">
<title>sprite_1057</title>
</rect>
<rect x="144" y="103" width="36" height="25" stroke="black" fill="red" fill-opacity="0.1" id="4">
<title>sprite_1058</title>
</rect>
<rect x="180" y="103" width="36" height="25" stroke="black" fill="red" fill-opacity="0.1" id="5">
<title>sprite_1059</title>
</rect>
<rect x="216" y="103" width="36" height="25" stroke="black" fill="red" fill-opacity="0.1" id="6">
<title>sprite_1060</title>
</rect>
<rect x="0" y="78" width="36" height="25" stroke="black" fill="red" fill-opacity="0.1" id="7">
<title>sprite_1061</title>
</rect>
<rect x="36" y="78" width="36" height="25" stroke="black" fill="red" fill-opacity="0.1" id="8">
<title>sprite_1062</title>
</rect>
<rect x="72" y="78" width="36" height="25" stroke="black" fill="red" fill-opacity="0.1" id="9">
<title>sprite_1063</title>
</rect>
<rect x="108" y="78" width="36" height="25" stroke="black" fill="red" fill-opacity="0.1" id="10">
<title>sprite_1064</title>
</rect>
<rect x="144" y="78" width="36" height="25" stroke="black" fill="red" fill-opacity="0.1" id="11">
<title>sprite_1065</title>
</rect>
<rect x="180" y="78" width="36" height="25" stroke="black" fill="red" fill-opacity="0.1" id="12">
<title>sprite_1066</title>
</rect>
<rect x="216" y="78" width="36" height="25" stroke="black" fill="red" fill-opacity="0.1" id="13">
<title>sprite_1067</title>
</rect>
<rect x="0" y="53" width="36" height="25" stroke="black" fill="red" fill-opacity="0.1" id="14">
<title>sprite_1068</title>
</rect>
<rect x="36" y="53" width="36" height="25" stroke="black" fill="red" fill-opacity="0.1" id="15">
<title>sprite_1069</title>
</rect>
<rect x="72" y="53" width="36" height="25" stroke="black" fill="red" fill-opacity="0.1" id="16">
<title>sprite_1070</title>
</rect>
<rect x="108" y="53" width="36" height="25" stroke="black" fill="red" fill-opacity="0.1" id="17">
<title>sprite_1071</title>
</rect>
<rect x="144" y="53" width="36" height="25" stroke="black" fill="red" fill-opacity="0.1" id="18">
<title>sprite_1072</title>
</rect>
<rect x="180" y="53" width="36" height="25" stroke="black" fill="red" fill-opacity="0.1" id="19">
<title>sprite_1073</title>
</rect>
<rect x="216" y="53" width="36" height="25" stroke="black" fill="red" fill-opacity="0.1" id="20">
<title>sprite_1074</title>
</rect>
<rect x="0" y="28" width="36" height="25" stroke="black" fill="red" fill-opacity="0.1" id="21">
<title>sprite_1075</title>
</rect>
<rect x="36" y="28" width="36" height="25" stroke="black" fill="red" fill-opacity="0.1" id="22">
<title>sprite_1076</title>
</rect>
<rect x="72" y="28" width="36" height="25" stroke="black" fill="red" fill-opacity="0.1" id="23">
<title>sprite_1077</title>
</rect>
<rect x="108" y="28" width="36" height="25" stroke="black" fill="red" fill-opacity="0.1" id="24">
<title>sprite_1078</title>
</rect>
<rect x="144" y="28" width="36" height="25" stroke="black" fill="red" fill-opacity="0.1" id="25">
<title>sprite_1079</title>
</rect>
</svg>