<?xml version="1.0" encoding="UTF-8"?>
<svg xmlns="http://www.w3.org/2000/svg" xmlns:xlink="http://www.w3.org/1999/xlink"
     width="512" height="256" viewBox="0 0 512 256">
<defs>
</defs>
<rect x="0" y="231" width="207" height="25" stroke="black" fill="red" fill-opacity="0.1" />
<rect x="207" y="237" width="240" height="19" stroke="black" fill="red" fill-opacity="0.1" />
<rect x="0" y="212" width="240" height="19" stroke="black" fill="red" fill-opacity="0.1" />
<rect x="240" y="212" width="240" height="19" stroke="black" fill="red" fill-opacity="0.1" />
<rect x="0" y="193" width="240" height="19" stroke="black" fill="red" fill-opacity="0.1" />
<rect x="240" y="193" width="240" height="19" stroke="black" fill="red" fill-opacity="0.1" />
<rect x="0" y="174" width="240" height="19" stroke="black" fill="red" fill-opacity="0.1" />
<rect x="240" y="174" width="240" height="19" stroke="black" fill="red" fill-opacity="0.1" />
<rect x="0" y="155" width="240" height="19" stroke="black" fill="red" fill-opacity="0.1" />
<rect x="240" y="155" width="240" height="19" stroke="black" fill="red" fill-opacity="0.1" />
<rect x="0" y="136" width="240" height="19" stroke="black" fill="red" fill-opacity="0.1" />
<rect x="240" y="136" width="240" height="19" stroke="black" fill="red" fill-opacity="0.1" />
<rect x="0" y="117" width="240" height="19" stroke="black" fill="red" fill-opacity="0.1" />
<rect x="240" y="117" width="239" height="19" stroke="black" fill="red" fill-opacity="0.1" />
<rect x="0" y="98" width="239" height="19" stroke="black" fill="red" fill-opacity="0.1" />
<rect x="239" y="98" width="239" height="19" stroke="black" fill="red" fill-opacity="0.1" />
<rect x="0" y="79" width="239" height="19" stroke="black" fill="red" fill-opacity="0.1" />
<rect x="239" y="79" width="239" height="19" stroke="black" fill="red" fill-opacity="0.1" />
<rect x="0" y="60" width="239" height="19" stroke="black" fill="red" fill-opacity="0.1" />
<rect x="239" y="60" width="239" height="19" stroke="black" fill="red" fill-opacity="0.1" />
<rect x="0" y="41" width="216" height="19" stroke="black" fill="red" fill-opacity="0.1" />
<rect x="216" y="41" width="216" height="19" stroke="black" fill="red" fill-opacity="0.1" />
<rect x="0" y="25" width="253" height="16" stroke="black" fill="red" fill-opacity="0.1" />
<rect x="253" y="25" width="253" height="16" stroke="black" fill="red" fill-opacity="0.1" />
<rect x="0" y="10" width="134" height="15" stroke="black" fill="red" fill-opacity="0.1" />
<rect x="134" y="10" width="75" height="15" stroke="black" fill="red" fill-opacity="0.1" />
<rect x="209" y="24" width="207" height="1" stroke="black" fill="red" fill-opacity="0.1" />
</svg>