<?xml version="1.0" encoding="UTF-8"?>
<svg xmlns="http://www.w3.org/2000/svg" xmlns:xlink="http://www.w3.org/1999/xlink"
     width="1024" height="1024" viewBox="0 0 1024 1024">
<defs>
</defs>
<rect x="0" y="914" width="146" height="110" stroke="black" fill="red" fill-opacity="0.1" />
<rect x="730" y="914" width="146" height="110" stroke="black" fill="red" fill-opacity="0.1" />
<rect x="876" y="914" width="146" height="110" stroke="black" fill="red" fill-opacity="0.1" />
<rect x="0" y="804" width="146" height="110" stroke="black" fill="red" fill-opacity="0.1" />
<rect x="146" y="804" width="146" height="110" stroke="black" fill="red" fill-opacity="0.1" />
<rect x="292" y="804" width="146" height="110" stroke="black" fill="red" fill-opacity="0.1" />
<rect x="438" y="804" width="146" height="110" stroke="black" fill="red" fill-opacity="0.1" />
<rect x="584" y="804" width="146" height="110" stroke="black" fill="red" fill-opacity="0.1" />
<rect x="146" y="914" width="146" height="110" stroke="black" fill="red" fill-opacity="0.1" />
<rect x="292" y="914" width="146" height="110" stroke="black" fill="red" fill-opacity="0.1" />
<rect x="438" y="914" width="146" height="110" stroke="black" fill="red" fill-opacity="0.1" />
<rect x="584" y="914" width="146" height="110" stroke="black" fill="red" fill-opacity="0.1" />
<rect x="244" y="694" width="122" height="110" stroke="black" fill="red" fill-opacity="0.1" />
<rect x="366" y="694" width="122" height="110" stroke="black" fill="red" fill-opacity="0.1" />
<rect x="488" y="694" width="122" height="110" stroke="black" fill="red" fill-opacity="0.1" />
<rect x="610" y="694" width="122" height="110" stroke="black" fill="red" fill-opacity="0.1" />
<rect x="732" y="694" width="122" height="110" stroke="black" fill="red" fill-opacity="0.1" />
<rect x="854" y="694" width="122" height="110" stroke="black" fill="red" fill-opacity="0.1" />
<rect x="730" y="804" width="122" height="110" stroke="black" fill="red" fill-opacity="0.1" />
<rect x="852" y="804" width="122" height="110" stroke="black" fill="red" fill-opacity="0.1" />
<rect x="0" y="694" width="122" height="110" stroke="black" fill="red" fill-opacity="0.1" />
<rect x="122" y="694" width="122" height="110" stroke="black" fill="red" fill-opacity="0.1" />
<rect x="0" y="588" width="130" height="106" stroke="black" fill="red" fill-opacity="0.1" />
<rect x="650" y="482" width="130" height="106" stroke="black" fill="red" fill-opacity="0.1" />
<rect x="780" y="482" width="130" height="106" stroke="black" fill="red" fill-opacity="0.1" />
<rect x="0" y="376" width="130" height="106" stroke="black" fill="red" fill-opacity="0.1" />
<rect x="130" y="588" width="130" height="106" stroke="black" fill="red" fill-opacity="0.1" />
<rect x="390" y="588" width="130" height="106" stroke="black" fill="red" fill-opacity="0.1" />
<rect x="390" y="482" width="130" height="106" stroke="black" fill="red" fill-opacity="0.1" />
<rect x="520" y="588" width="130" height="106" stroke="black" fill="red" fill-opacity="0.1" />
<rect x="780" y="588" width="130" height="106" stroke="black" fill="red" fill-opacity="0.1" />
<rect x="0" y="482" width="130" height="106" stroke="black" fill="red" fill-opacity="0.1" />
<rect x="130" y="482" width="130" height="106" stroke="black" fill="red" fill-opacity="0.1" />
<rect x="260" y="588" width="130" height="106" stroke="black" fill="red" fill-opacity="0.1" />
<rect x="260" y="482" width="130" height="106" stroke="black" fill="red" fill-opacity="0.1" />
<rect x="520" y="482" width="130" height="106" stroke="black" fill="red" fill-opacity="0.1" />
<rect x="650" y="588" width="130" height="106" stroke="black" fill="red" fill-opacity="0.1" />
<rect x="130" y="388" width="134" height="94" stroke="black" fill="red" fill-opacity="0.1" />
<rect x="264" y="388" width="110" height="94" stroke="black" fill="red" fill-opacity="0.1" />
<rect x="374" y="408" width="146" height="74" stroke="black" fill="red" fill-opacity="0.1" />
<rect x="520" y="408" width="146" height="74" stroke="black" fill="red" fill-opacity="0.1" />
<rect x="588" y="306" width="98" height="70" stroke="black" fill="red" fill-opacity="0.1" />
<rect x="686" y="306" width="98" height="70" stroke="black" fill="red" fill-opacity="0.1" />
<rect x="666" y="412" width="98" height="70" stroke="black" fill="red" fill-opacity="0.1" />
<rect x="764" y="412" width="98" height="70" stroke="black" fill="red" fill-opacity="0.1" />
<rect x="862" y="412" width="98" height="70" stroke="black" fill="red" fill-opacity="0.1" />
<rect x="910" y="518" width="98" height="70" stroke="black" fill="red" fill-opacity="0.1" />
<rect x="910" y="624" width="98" height="70" stroke="black" fill="red" fill-opacity="0.1" />
<rect x="0" y="306" width="98" height="70" stroke="black" fill="red" fill-opacity="0.1" />
<rect x="98" y="306" width="98" height="70" stroke="black" fill="red" fill-opacity="0.1" />
<rect x="196" y="306" width="98" height="70" stroke="black" fill="red" fill-opacity="0.1" />
<rect x="294" y="306" width="98" height="70" stroke="black" fill="red" fill-opacity="0.1" />
<rect x="392" y="306" width="98" height="70" stroke="black" fill="red" fill-opacity="0.1" />
<rect x="490" y="306" width="98" height="70" stroke="black" fill="red" fill-opacity="0.1" />
<rect x="0" y="236" width="90" height="70" stroke="black" fill="red" fill-opacity="0.1" />
<rect x="90" y="236" width="90" height="70" stroke="black" fill="red" fill-opacity="0.1" />
<rect x="784" y="306" width="90" height="70" stroke="black" fill="red" fill-opacity="0.1" />
<rect x="874" y="306" width="90" height="70" stroke="black" fill="red" fill-opacity="0.1" />
<rect x="180" y="236" width="82" height="70" stroke="black" fill="red" fill-opacity="0.1" />
<rect x="262" y="242" width="256" height="64" stroke="black" fill="red" fill-opacity="0.1" />
<rect x="518" y="242" width="256" height="64" stroke="black" fill="red" fill-opacity="0.1" />
<rect x="0" y="182" width="390" height="54" stroke="black" fill="red" fill-opacity="0.1" />
<rect x="390" y="186" width="460" height="50" stroke="black" fill="red" fill-opacity="0.1" />
<rect x="0" y="132" width="386" height="50" stroke="black" fill="red" fill-opacity="0.1" />
<rect x="386" y="132" width="90" height="50" stroke="black" fill="red" fill-opacity="0.1" />
<rect x="476" y="132" width="90" height="50" stroke="black" fill="red" fill-opacity="0.1" />
<rect x="566" y="132" width="90" height="50" stroke="black" fill="red" fill-opacity="0.1" />
<rect x="656" y="132" width="90" height="50" stroke="black" fill="red" fill-opacity="0.1" />
<rect x="746" y="132" width="90" height="50" stroke="black" fill="red" fill-opacity="0.1" />
<rect x="836" y="132" width="90" height="50" stroke="black" fill="red" fill-opacity="0.1" />
<rect x="926" y="132" width="90" height="50" stroke="black" fill="red" fill-opacity="0.1" />
<rect x="850" y="186" width="90" height="50" stroke="black" fill="red" fill-opacity="0.1" />
<rect x="380" y="86" width="190" height="46" stroke="black" fill="red" fill-opacity="0.1" />
<rect x="190" y="86" width="190" height="46" stroke="black" fill="red" fill-opacity="0.1" />
<rect x="760" y="86" width="190" height="46" stroke="black" fill="red" fill-opacity="0.1" />
<rect x="0" y="40" width="190" height="46" stroke="black" fill="red" fill-opacity="0.1" />
<rect x="0" y="86" width="190" height="46" stroke="black" fill="red" fill-opacity="0.1" />
<rect x="774" y="260" width="190" height="46" stroke="black" fill="red" fill-opacity="0.1" />
<rect x="190" y="40" width="190" height="46" stroke="black" fill="red" fill-opacity="0.1" />
<rect x="570" y="86" width="190" height="46" stroke="black" fill="red" fill-opacity="0.1" />
<rect x="380" y="46" width="180" height="40" stroke="black" fill="red" fill-opacity="0.1" />
<rect x="560" y="48" width="140" height="38" stroke="black" fill="red" fill-opacity="0.1" />
<rect x="700" y="52" width="138" height="34" stroke="black" fill="red" fill-opacity="0.1" />
<rect x="0" y="10" width="406" height="30" stroke="black" fill="red" fill-opacity="0.1" />
<rect x="406" y="10" width="338" height="30" stroke="black" fill="red" fill-opacity="0.1" />
<rect x="744" y="10" width="98" height="30" stroke="black" fill="red" fill-opacity="0.1" />
<rect x="0" y="4" width="298" height="6" stroke="black" fill="red" fill-opacity="0.1" />
</svg>