<?xml version="1.0" encoding="UTF-8"?>
<svg xmlns="http://www.w3.org/2000/svg" xmlns:xlink="http://www.w3.org/1999/xlink"
     width="4096" height="4096" viewBox="0 0 4096 4096">
<defs>
</defs>
<rect x="0" y="3656" width="584" height="440" stroke="black" fill="red" fill-opacity="0.1" id="0">
<title>sprite_382</title>
</rect>
<rect x="2920" y="3656" width="584" height="440" stroke="black" fill="red" fill-opacity="0.1" id="1">
<title>sprite_383</title>
</rect>
<rect x="3504" y="3656" width="584" height="440" stroke="black" fill="red" fill-opacity="0.1" id="2">
<title>sprite_384</title>
</rect>
<rect x="0" y="3216" width="584" height="440" stroke="black" fill="red" fill-opacity="0.1" id="3">
<title>sprite_385</title>
</rect>
<rect x="584" y="3216" width="584" height="440" stroke="black" fill="red" fill-opacity="0.1" id="4">
<title>sprite_386</title>
</rect>
<rect x="1168" y="3216" width="584" height="440" stroke="black" fill="red" fill-opacity="0.1" id="5">
<title>sprite_387</title>
</rect>
<rect x="1752" y="3216" width="584" height="440" stroke="black" fill="red" fill-opacity="0.1" id="6">
<title>sprite_388</title>
</rect>
<rect x="2336" y="3216" width="584" height="440" stroke="black" fill="red" fill-opacity="0.1" id="7">
<title>sprite_389</title>
</rect>
<rect x="584" y="3656" width="584" height="440" stroke="black" fill="red" fill-opacity="0.1" id="8">
<title>sprite_390</title>
</rect>
<rect x="1168" y="3656" width="584" height="440" stroke="black" fill="red" fill-opacity="0.1" id="9">
<title>sprite_391</title>
</rect>
<rect x="1752" y="3656" width="584" height="440" stroke="black" fill="red" fill-opacity="0.1" id="10">
<title>sprite_392</title>
</rect>
<rect x="2336" y="3656" width="584" height="440" stroke="black" fill="red" fill-opacity="0.1" id="11">
<title>sprite_393</title>
</rect>
<rect x="976" y="2776" width="488" height="440" stroke="black" fill="red" fill-opacity="0.1" id="12">
<title>sprite_394</title>
</rect>
<rect x="1464" y="2776" width="488" height="440" stroke="black" fill="red" fill-opacity="0.1" id="13">
<title>sprite_395</title>
</rect>
<rect x="1952" y="2776" width="488" height="440" stroke="black" fill="red" fill-opacity="0.1" id="14">
<title>sprite_396</title>
</rect>
<rect x="2440" y="2776" width="488" height="440" stroke="black" fill="red" fill-opacity="0.1" id="15">
<title>sprite_397</title>
</rect>
<rect x="2928" y="2776" width="488" height="440" stroke="black" fill="red" fill-opacity="0.1" id="16">
<title>sprite_398</title>
</rect>
<rect x="3416" y="2776" width="488" height="440" stroke="black" fill="red" fill-opacity="0.1" id="17">
<title>sprite_399</title>
</rect>
<rect x="2920" y="3216" width="488" height="440" stroke="black" fill="red" fill-opacity="0.1" id="18">
<title>sprite_400</title>
</rect>
<rect x="3408" y="3216" width="488" height="440" stroke="black" fill="red" fill-opacity="0.1" id="19">
<title>sprite_401</title>
</rect>
<rect x="0" y="2776" width="488" height="440" stroke="black" fill="red" fill-opacity="0.1" id="20">
<title>sprite_402</title>
</rect>
<rect x="488" y="2776" width="488" height="440" stroke="black" fill="red" fill-opacity="0.1" id="21">
<title>sprite_403</title>
</rect>
<rect x="0" y="2352" width="520" height="424" stroke="black" fill="red" fill-opacity="0.1" id="22">
<title>sprite_404</title>
</rect>
<rect x="2600" y="1928" width="520" height="424" stroke="black" fill="red" fill-opacity="0.1" id="23">
<title>sprite_405</title>
</rect>
<rect x="3120" y="1928" width="520" height="424" stroke="black" fill="red" fill-opacity="0.1" id="24">
<title>sprite_406</title>
</rect>
<rect x="0" y="1504" width="520" height="424" stroke="black" fill="red" fill-opacity="0.1" id="25">
<title>sprite_407</title>
</rect>
<rect x="520" y="2352" width="520" height="424" stroke="black" fill="red" fill-opacity="0.1" id="26">
<title>sprite_408</title>
</rect>
<rect x="1560" y="2352" width="520" height="424" stroke="black" fill="red" fill-opacity="0.1" id="27">
<title>sprite_409</title>
</rect>
<rect x="1560" y="1928" width="520" height="424" stroke="black" fill="red" fill-opacity="0.1" id="28">
<title>sprite_410</title>
</rect>
<rect x="2080" y="2352" width="520" height="424" stroke="black" fill="red" fill-opacity="0.1" id="29">
<title>sprite_411</title>
</rect>
<rect x="3120" y="2352" width="520" height="424" stroke="black" fill="red" fill-opacity="0.1" id="30">
<title>sprite_412</title>
</rect>
<rect x="0" y="1928" width="520" height="424" stroke="black" fill="red" fill-opacity="0.1" id="31">
<title>sprite_413</title>
</rect>
<rect x="520" y="1928" width="520" height="424" stroke="black" fill="red" fill-opacity="0.1" id="32">
<title>sprite_414</title>
</rect>
<rect x="1040" y="2352" width="520" height="424" stroke="black" fill="red" fill-opacity="0.1" id="33">
<title>sprite_415</title>
</rect>
<rect x="1040" y="1928" width="520" height="424" stroke="black" fill="red" fill-opacity="0.1" id="34">
<title>sprite_416</title>
</rect>
<rect x="2080" y="1928" width="520" height="424" stroke="black" fill="red" fill-opacity="0.1" id="35">
<title>sprite_417</title>
</rect>
<rect x="2600" y="2352" width="520" height="424" stroke="black" fill="red" fill-opacity="0.1" id="36">
<title>sprite_418</title>
</rect>
<rect x="520" y="1552" width="536" height="376" stroke="black" fill="red" fill-opacity="0.1" id="37">
<title>sprite_419</title>
</rect>
<rect x="1056" y="1552" width="440" height="376" stroke="black" fill="red" fill-opacity="0.1" id="38">
<title>sprite_420</title>
</rect>
<rect x="1496" y="1632" width="584" height="296" stroke="black" fill="red" fill-opacity="0.1" id="39">
<title>sprite_421</title>
</rect>
<rect x="2080" y="1632" width="584" height="296" stroke="black" fill="red" fill-opacity="0.1" id="40">
<title>sprite_422</title>
</rect>
<rect x="2352" y="1224" width="392" height="280" stroke="black" fill="red" fill-opacity="0.1" id="41">
<title>sprite_423</title>
</rect>
<rect x="2744" y="1224" width="392" height="280" stroke="black" fill="red" fill-opacity="0.1" id="42">
<title>sprite_424</title>
</rect>
<rect x="2664" y="1648" width="392" height="280" stroke="black" fill="red" fill-opacity="0.1" id="43">
<title>sprite_425</title>
</rect>
<rect x="3056" y="1648" width="392" height="280" stroke="black" fill="red" fill-opacity="0.1" id="44">
<title>sprite_426</title>
</rect>
<rect x="3448" y="1648" width="392" height="280" stroke="black" fill="red" fill-opacity="0.1" id="45">
<title>sprite_427</title>
</rect>
<rect x="3640" y="2072" width="392" height="280" stroke="black" fill="red" fill-opacity="0.1" id="46">
<title>sprite_428</title>
</rect>
<rect x="3640" y="2496" width="392" height="280" stroke="black" fill="red" fill-opacity="0.1" id="47">
<title>sprite_429</title>
</rect>
<rect x="0" y="1224" width="392" height="280" stroke="black" fill="red" fill-opacity="0.1" id="48">
<title>sprite_430</title>
</rect>
<rect x="392" y="1224" width="392" height="280" stroke="black" fill="red" fill-opacity="0.1" id="49">
<title>sprite_431</title>
</rect>
<rect x="784" y="1224" width="392" height="280" stroke="black" fill="red" fill-opacity="0.1" id="50">
<title>sprite_432</title>
</rect>
<rect x="1176" y="1224" width="392" height="280" stroke="black" fill="red" fill-opacity="0.1" id="51">
<title>sprite_433</title>
</rect>
<rect x="1568" y="1224" width="392" height="280" stroke="black" fill="red" fill-opacity="0.1" id="52">
<title>sprite_434</title>
</rect>
<rect x="1960" y="1224" width="392" height="280" stroke="black" fill="red" fill-opacity="0.1" id="53">
<title>sprite_435</title>
</rect>
<rect x="0" y="944" width="360" height="280" stroke="black" fill="red" fill-opacity="0.1" id="54">
<title>sprite_436</title>
</rect>
<rect x="360" y="944" width="360" height="280" stroke="black" fill="red" fill-opacity="0.1" id="55">
<title>sprite_437</title>
</rect>
<rect x="3136" y="1224" width="360" height="280" stroke="black" fill="red" fill-opacity="0.1" id="56">
<title>sprite_438</title>
</rect>
<rect x="3496" y="1224" width="360" height="280" stroke="black" fill="red" fill-opacity="0.1" id="57">
<title>sprite_439</title>
</rect>
<rect x="720" y="944" width="328" height="280" stroke="black" fill="red" fill-opacity="0.1" id="58">
<title>sprite_440</title>
</rect>
<rect x="1048" y="968" width="1024" height="256" stroke="black" fill="red" fill-opacity="0.1" id="59">
<title>sprite_441</title>
</rect>
<rect x="2072" y="968" width="1024" height="256" stroke="black" fill="red" fill-opacity="0.1" id="60">
<title>sprite_442</title>
</rect>
<rect x="0" y="728" width="1560" height="216" stroke="black" fill="red" fill-opacity="0.1" id="61">
<title>sprite_443</title>
</rect>
<rect x="1560" y="744" width="1840" height="200" stroke="black" fill="red" fill-opacity="0.1" id="62">
<title>sprite_444</title>
</rect>
<rect x="0" y="528" width="1544" height="200" stroke="black" fill="red" fill-opacity="0.1" id="63">
<title>sprite_445</title>
</rect>
<rect x="1544" y="528" width="360" height="200" stroke="black" fill="red" fill-opacity="0.1" id="64">
<title>sprite_446</title>
</rect>
<rect x="1904" y="528" width="360" height="200" stroke="black" fill="red" fill-opacity="0.1" id="65">
<title>sprite_447</title>
</rect>
<rect x="2264" y="528" width="360" height="200" stroke="black" fill="red" fill-opacity="0.1" id="66">
<title>sprite_448</title>
</rect>
<rect x="2624" y="528" width="360" height="200" stroke="black" fill="red" fill-opacity="0.1" id="67">
<title>sprite_449</title>
</rect>
<rect x="2984" y="528" width="360" height="200" stroke="black" fill="red" fill-opacity="0.1" id="68">
<title>sprite_450</title>
</rect>
<rect x="3344" y="528" width="360" height="200" stroke="black" fill="red" fill-opacity="0.1" id="69">
<title>sprite_451</title>
</rect>
<rect x="3704" y="528" width="360" height="200" stroke="black" fill="red" fill-opacity="0.1" id="70">
<title>sprite_452</title>
</rect>
<rect x="3400" y="744" width="360" height="200" stroke="black" fill="red" fill-opacity="0.1" id="71">
<title>sprite_453</title>
</rect>
<rect x="1520" y="344" width="760" height="184" stroke="black" fill="red" fill-opacity="0.1" id="72">
<title>sprite_454</title>
</rect>
<rect x="760" y="344" width="760" height="184" stroke="black" fill="red" fill-opacity="0.1" id="73">
<title>sprite_455</title>
</rect>
<rect x="3040" y="344" width="760" height="184" stroke="black" fill="red" fill-opacity="0.1" id="74">
<title>sprite_456</title>
</rect>
<rect x="0" y="160" width="760" height="184" stroke="black" fill="red" fill-opacity="0.1" id="75">
<title>sprite_457</title>
</rect>
<rect x="0" y="344" width="760" height="184" stroke="black" fill="red" fill-opacity="0.1" id="76">
<title>sprite_458</title>
</rect>
<rect x="3096" y="1040" width="760" height="184" stroke="black" fill="red" fill-opacity="0.1" id="77">
<title>sprite_459</title>
</rect>
<rect x="760" y="160" width="760" height="184" stroke="black" fill="red" fill-opacity="0.1" id="78">
<title>sprite_460</title>
</rect>
<rect x="2280" y="344" width="760" height="184" stroke="black" fill="red" fill-opacity="0.1" id="79">
<title>sprite_461</title>
</rect>
<rect x="1520" y="184" width="720" height="160" stroke="black" fill="red" fill-opacity="0.1" id="80">
<title>sprite_462</title>
</rect>
<rect x="2240" y="192" width="560" height="152" stroke="black" fill="red" fill-opacity="0.1" id="81">
<title>sprite_463</title>
</rect>
<rect x="2800" y="208" width="552" height="136" stroke="black" fill="red" fill-opacity="0.1" id="82">
<title>sprite_464</title>
</rect>
<rect x="0" y="40" width="1624" height="120" stroke="black" fill="red" fill-opacity="0.1" id="83">
<title>sprite_465</title>
</rect>
<rect x="1624" y="40" width="1352" height="120" stroke="black" fill="red" fill-opacity="0.1" id="84">
<title>sprite_466</title>
</rect>
<rect x="2976" y="40" width="392" height="120" stroke="black" fill="red" fill-opacity="0.1" id="85">
<title>sprite_467</title>
</rect>
<rect x="0" y="16" width="1192" height="24" stroke="black" fill="red" fill-opacity="0.1" id="86">
<title>sprite_468</title>
</rect>
</svg>