<?xml version="1.0" encoding="UTF-8"?>
<svg xmlns="http://www.w3.org/2000/svg" xmlns:xlink="http://www.w3.org/1999/xlink"
     width="1024" height="1024" viewBox="0 0 1024 1024">
<defs>
</defs>
<rect x="0" y="774" width="350" height="250" stroke="black" fill="red" fill-opacity="0.1" />
<rect x="350" y="786" width="350" height="238" stroke="black" fill="red" fill-opacity="0.1" />
<rect x="0" y="536" width="350" height="238" stroke="black" fill="red" fill-opacity="0.1" />
<rect x="350" y="536" width="350" height="238" stroke="black" fill="red" fill-opacity="0.1" />
<rect x="0" y="298" width="350" height="238" stroke="black" fill="red" fill-opacity="0.1" />
<rect x="350" y="410" width="126" height="126" stroke="black" fill="red" fill-opacity="0.1" />
<rect x="476" y="410" width="126" height="126" stroke="black" fill="red" fill-opacity="0.1" />
<rect x="602" y="410" width="126" height="126" stroke="black" fill="red" fill-opacity="0.1" />
<rect x="728" y="410" width="126" height="126" stroke="black" fill="red" fill-opacity="0.1" />
<rect x="854" y="410" width="126" height="126" stroke="black" fill="red" fill-opacity="0.1" />
<rect x="700" y="648" width="126" height="126" stroke="black" fill="red" fill-opacity="0.1" />
<rect x="826" y="664" width="146" height="110" stroke="black" fill="red" fill-opacity="0.1" />
<rect x="700" y="914" width="146" height="110" stroke="black" fill="red" fill-opacity="0.1" />
<rect x="846" y="914" width="126" height="110" stroke="black" fill="red" fill-opacity="0.1" />
<rect x="0" y="192" width="130" height="106" stroke="black" fill="red" fill-opacity="0.1" />
<rect x="130" y="192" width="58" height="106" stroke="black" fill="red" fill-opacity="0.1" />
<rect x="188" y="192" width="58" height="106" stroke="black" fill="red" fill-opacity="0.1" />
<rect x="246" y="192" width="54" height="106" stroke="black" fill="red" fill-opacity="0.1" />
<rect x="300" y="192" width="54" height="106" stroke="black" fill="red" fill-opacity="0.1" />
<rect x="354" y="200" width="98" height="98" stroke="black" fill="red" fill-opacity="0.1" />
<rect x="452" y="200" width="98" height="98" stroke="black" fill="red" fill-opacity="0.1" />
<rect x="550" y="234" width="256" height="64" stroke="black" fill="red" fill-opacity="0.1" />
<rect x="0" y="128" width="256" height="64" stroke="black" fill="red" fill-opacity="0.1" />
<rect x="256" y="130" width="62" height="62" stroke="black" fill="red" fill-opacity="0.1" />
<rect x="318" y="146" width="462" height="46" stroke="black" fill="red" fill-opacity="0.1" />
<rect x="0" y="86" width="362" height="42" stroke="black" fill="red" fill-opacity="0.1" />
<rect x="362" y="86" width="362" height="42" stroke="black" fill="red" fill-opacity="0.1" />
<rect x="0" y="44" width="362" height="42" stroke="black" fill="red" fill-opacity="0.1" />
<rect x="362" y="44" width="362" height="42" stroke="black" fill="red" fill-opacity="0.1" />
<rect x="0" y="2" width="362" height="42" stroke="black" fill="red" fill-opacity="0.1" />
<rect x="362" y="2" width="362" height="42" stroke="black" fill="red" fill-opacity="0.1" />
<rect x="724" y="2" width="262" height="42" stroke="black" fill="red" fill-opacity="0.1" />
<rect x="350" y="376" width="554" height="34" stroke="black" fill="red" fill-opacity="0.1" />
<rect x="724" y="56" width="202" height="30" stroke="black" fill="red" fill-opacity="0.1" />
<rect x="724" y="98" width="202" height="30" stroke="black" fill="red" fill-opacity="0.1" />
<rect x="926" y="56" width="98" height="30" stroke="black" fill="red" fill-opacity="0.1" />
<rect x="550" y="208" width="290" height="26" stroke="black" fill="red" fill-opacity="0.1" />
<rect x="780" y="166" width="234" height="26" stroke="black" fill="red" fill-opacity="0.1" />
<rect x="926" y="106" width="82" height="22" stroke="black" fill="red" fill-opacity="0.1" />
<rect x="806" y="276" width="62" height="22" stroke="black" fill="red" fill-opacity="0.1" />
<rect x="986" y="22" width="18" height="22" stroke="black" fill="red" fill-opacity="0.1" />
<rect x="1004" y="22" width="18" height="22" stroke="black" fill="red" fill-opacity="0.1" />
<rect x="868" y="276" width="18" height="22" stroke="black" fill="red" fill-opacity="0.1" />
<rect x="886" y="276" width="18" height="22" stroke="black" fill="red" fill-opacity="0.1" />
<rect x="840" y="216" width="138" height="18" stroke="black" fill="red" fill-opacity="0.1" />
<rect x="904" y="280" width="62" height="18" stroke="black" fill="red" fill-opacity="0.1" />
<rect x="904" y="392" width="62" height="18" stroke="black" fill="red" fill-opacity="0.1" />
<rect x="318" y="132" width="130" height="14" stroke="black" fill="red" fill-opacity="0.1" />
</svg>