<?xml version="1.0" encoding="UTF-8"?>
<svg xmlns="http://www.w3.org/2000/svg" xmlns:xlink="http://www.w3.org/1999/xlink"
     width="1024" height="512" viewBox="0 0 1024 512">
<defs>
</defs>
<rect x="0" y="202" width="512" height="310" stroke="black" fill="red" fill-opacity="0.1" id="0">
<title>sprite_6</title>
</rect>
<rect x="512" y="202" width="254" height="310" stroke="black" fill="red" fill-opacity="0.1" id="1">
<title>sprite_7</title>
</rect>
<rect x="786" y="254" width="2" height="258" stroke="black" fill="red" fill-opacity="0.1" id="2">
<title>sprite_8</title>
</rect>
<rect x="788" y="254" width="2" height="258" stroke="black" fill="red" fill-opacity="0.1" id="3">
<title>sprite_9</title>
</rect>
<rect x="790" y="278" width="2" height="234" stroke="black" fill="red" fill-opacity="0.1" id="4">
<title>sprite_10</title>
</rect>
<rect x="792" y="348" width="142" height="164" stroke="black" fill="red" fill-opacity="0.1" id="5">
<title>sprite_11</title>
</rect>
<rect x="934" y="398" width="74" height="114" stroke="black" fill="red" fill-opacity="0.1" id="6">
<title>sprite_12</title>
</rect>
<rect x="0" y="88" width="74" height="114" stroke="black" fill="red" fill-opacity="0.1" id="7">
<title>sprite_13</title>
</rect>
<rect x="74" y="88" width="74" height="114" stroke="black" fill="red" fill-opacity="0.1" id="8">
<title>sprite_14</title>
</rect>
<rect x="148" y="88" width="74" height="114" stroke="black" fill="red" fill-opacity="0.1" id="9">
<title>sprite_15</title>
</rect>
<rect x="222" y="104" width="30" height="98" stroke="black" fill="red" fill-opacity="0.1" id="10">
<title>sprite_16</title>
</rect>
<rect x="252" y="120" width="10" height="82" stroke="black" fill="red" fill-opacity="0.1" id="11">
<title>sprite_17</title>
</rect>
<rect x="262" y="136" width="2" height="66" stroke="black" fill="red" fill-opacity="0.1" id="12">
<title>sprite_18</title>
</rect>
<rect x="264" y="160" width="18" height="42" stroke="black" fill="red" fill-opacity="0.1" id="13">
<title>sprite_19</title>
</rect>
<rect x="282" y="160" width="18" height="42" stroke="black" fill="red" fill-opacity="0.1" id="14">
<title>sprite_20</title>
</rect>
<rect x="300" y="160" width="10" height="42" stroke="black" fill="red" fill-opacity="0.1" id="15">
<title>sprite_21</title>
</rect>
<rect x="310" y="160" width="2" height="42" stroke="black" fill="red" fill-opacity="0.1" id="16">
<title>sprite_22</title>
</rect>
<rect x="312" y="172" width="30" height="30" stroke="black" fill="red" fill-opacity="0.1" id="17">
<title>sprite_23</title>
</rect>
<rect x="342" y="180" width="120" height="22" stroke="black" fill="red" fill-opacity="0.1" id="18">
<title>sprite_24</title>
</rect>
<rect x="462" y="184" width="10" height="18" stroke="black" fill="red" fill-opacity="0.1" id="19">
<title>sprite_25</title>
</rect>
<rect x="472" y="188" width="130" height="14" stroke="black" fill="red" fill-opacity="0.1" id="20">
<title>sprite_26</title>
</rect>
<rect x="602" y="188" width="130" height="14" stroke="black" fill="red" fill-opacity="0.1" id="21">
<title>sprite_27</title>
</rect>
<rect x="732" y="188" width="130" height="14" stroke="black" fill="red" fill-opacity="0.1" id="22">
<title>sprite_28</title>
</rect>
<rect x="862" y="192" width="31" height="10" stroke="black" fill="red" fill-opacity="0.1" id="23">
<title>sprite_29</title>
</rect>
<rect x="893" y="192" width="31" height="10" stroke="black" fill="red" fill-opacity="0.1" id="24">
<title>sprite_30</title>
</rect>
<rect x="924" y="192" width="31" height="10" stroke="black" fill="red" fill-opacity="0.1" id="25">
<title>sprite_31</title>
</rect>
<rect x="955" y="192" width="10" height="10" stroke="black" fill="red" fill-opacity="0.1" id="26">
<title>sprite_32</title>
</rect>
<rect x="965" y="192" width="10" height="10" stroke="black" fill="red" fill-opacity="0.1" id="27">
<title>sprite_33</title>
</rect>
<rect x="975" y="200" width="10" height="2" stroke="black" fill="red" fill-opacity="0.1" id="28">
<title>sprite_34</title>
</rect>
<rect x="985" y="200" width="10" height="2" stroke="black" fill="red" fill-opacity="0.1" id="29">
<title>sprite_35</title>
</rect>
<rect x="995" y="200" width="10" height="2" stroke="black" fill="red" fill-opacity="0.1" id="30">
<title>sprite_36</title>
</rect>
</svg>