<?xml version="1.0" encoding="UTF-8"?>
<svg xmlns="http://www.w3.org/2000/svg" xmlns:xlink="http://www.w3.org/1999/xlink"
     width="512" height="512" viewBox="0 0 512 512">
<defs>
</defs>
<rect x="54" y="406" width="58" height="106" stroke="black" fill="red" fill-opacity="0.1" />
<rect x="0" y="406" width="54" height="106" stroke="black" fill="red" fill-opacity="0.1" />
<rect x="108" y="406" width="54" height="106" stroke="black" fill="red" fill-opacity="0.1" />
<rect x="162" y="406" width="54" height="106" stroke="black" fill="red" fill-opacity="0.1" />
<rect x="216" y="450" width="62" height="62" stroke="black" fill="red" fill-opacity="0.1" />
<rect x="278" y="450" width="62" height="62" stroke="black" fill="red" fill-opacity="0.1" />
<rect x="340" y="450" width="62" height="62" stroke="black" fill="red" fill-opacity="0.1" />
<rect x="402" y="452" width="60" height="60" stroke="black" fill="red" fill-opacity="0.1" />
<rect x="0" y="346" width="60" height="60" stroke="black" fill="red" fill-opacity="0.1" />
<rect x="194" y="348" width="134" height="58" stroke="black" fill="red" fill-opacity="0.1" />
<rect x="60" y="348" width="134" height="58" stroke="black" fill="red" fill-opacity="0.1" />
<rect x="328" y="348" width="90" height="58" stroke="black" fill="red" fill-opacity="0.1" />
<rect x="0" y="296" width="90" height="50" stroke="black" fill="red" fill-opacity="0.1" />
<rect x="90" y="296" width="90" height="50" stroke="black" fill="red" fill-opacity="0.1" />
<rect x="418" y="356" width="90" height="50" stroke="black" fill="red" fill-opacity="0.1" />
<rect x="360" y="254" width="90" height="42" stroke="black" fill="red" fill-opacity="0.1" />
<rect x="0" y="254" width="90" height="42" stroke="black" fill="red" fill-opacity="0.1" />
<rect x="90" y="254" width="90" height="42" stroke="black" fill="red" fill-opacity="0.1" />
<rect x="360" y="304" width="90" height="42" stroke="black" fill="red" fill-opacity="0.1" />
<rect x="0" y="212" width="90" height="42" stroke="black" fill="red" fill-opacity="0.1" />
<rect x="270" y="254" width="90" height="42" stroke="black" fill="red" fill-opacity="0.1" />
<rect x="270" y="304" width="90" height="42" stroke="black" fill="red" fill-opacity="0.1" />
<rect x="180" y="254" width="90" height="42" stroke="black" fill="red" fill-opacity="0.1" />
<rect x="180" y="304" width="90" height="42" stroke="black" fill="red" fill-opacity="0.1" />
<rect x="90" y="212" width="66" height="42" stroke="black" fill="red" fill-opacity="0.1" />
<rect x="0" y="152" width="154" height="30" stroke="black" fill="red" fill-opacity="0.1" />
<rect x="154" y="92" width="154" height="30" stroke="black" fill="red" fill-opacity="0.1" />
<rect x="154" y="122" width="154" height="30" stroke="black" fill="red" fill-opacity="0.1" />
<rect x="308" y="182" width="154" height="30" stroke="black" fill="red" fill-opacity="0.1" />
<rect x="308" y="92" width="154" height="30" stroke="black" fill="red" fill-opacity="0.1" />
<rect x="154" y="182" width="154" height="30" stroke="black" fill="red" fill-opacity="0.1" />
<rect x="308" y="152" width="154" height="30" stroke="black" fill="red" fill-opacity="0.1" />
<rect x="0" y="182" width="154" height="30" stroke="black" fill="red" fill-opacity="0.1" />
<rect x="154" y="152" width="154" height="30" stroke="black" fill="red" fill-opacity="0.1" />
<rect x="310" y="224" width="154" height="30" stroke="black" fill="red" fill-opacity="0.1" />
<rect x="308" y="122" width="154" height="30" stroke="black" fill="red" fill-opacity="0.1" />
<rect x="156" y="224" width="154" height="30" stroke="black" fill="red" fill-opacity="0.1" />
<rect x="0" y="122" width="154" height="30" stroke="black" fill="red" fill-opacity="0.1" />
<rect x="0" y="92" width="154" height="30" stroke="black" fill="red" fill-opacity="0.1" />
<rect x="0" y="62" width="142" height="30" stroke="black" fill="red" fill-opacity="0.1" />
<rect x="268" y="62" width="126" height="30" stroke="black" fill="red" fill-opacity="0.1" />
<rect x="0" y="32" width="126" height="30" stroke="black" fill="red" fill-opacity="0.1" />
<rect x="142" y="62" width="126" height="30" stroke="black" fill="red" fill-opacity="0.1" />
<rect x="126" y="32" width="50" height="30" stroke="black" fill="red" fill-opacity="0.1" />
<rect x="176" y="36" width="142" height="26" stroke="black" fill="red" fill-opacity="0.1" />
<rect x="142" y="6" width="134" height="26" stroke="black" fill="red" fill-opacity="0.1" />
<rect x="276" y="6" width="122" height="26" stroke="black" fill="red" fill-opacity="0.1" />
<rect x="398" y="6" width="114" height="26" stroke="black" fill="red" fill-opacity="0.1" />
<rect x="394" y="66" width="102" height="26" stroke="black" fill="red" fill-opacity="0.1" />
<rect x="460" y="36" width="38" height="26" stroke="black" fill="red" fill-opacity="0.1" />
<rect x="216" y="406" width="106" height="22" stroke="black" fill="red" fill-opacity="0.1" />
<rect x="322" y="428" width="106" height="22" stroke="black" fill="red" fill-opacity="0.1" />
<rect x="216" y="428" width="106" height="22" stroke="black" fill="red" fill-opacity="0.1" />
</svg>