<?xml version="1.0" encoding="UTF-8"?>
<svg xmlns="http://www.w3.org/2000/svg" xmlns:xlink="http://www.w3.org/1999/xlink"
     width="512" height="128" viewBox="0 0 512 128">
<defs>
</defs>
<rect x="0" y="98" width="138" height="30" stroke="black" fill="red" fill-opacity="0.1" />
<rect x="138" y="102" width="280" height="26" stroke="black" fill="red" fill-opacity="0.1" />
<rect x="0" y="72" width="218" height="26" stroke="black" fill="red" fill-opacity="0.1" />
<rect x="218" y="72" width="50" height="26" stroke="black" fill="red" fill-opacity="0.1" />
<rect x="268" y="76" width="130" height="22" stroke="black" fill="red" fill-opacity="0.1" />
<rect x="398" y="76" width="22" height="22" stroke="black" fill="red" fill-opacity="0.1" />
<rect x="420" y="76" width="22" height="22" stroke="black" fill="red" fill-opacity="0.1" />
<rect x="442" y="76" width="22" height="22" stroke="black" fill="red" fill-opacity="0.1" />
<rect x="464" y="76" width="22" height="22" stroke="black" fill="red" fill-opacity="0.1" />
<rect x="486" y="76" width="22" height="22" stroke="black" fill="red" fill-opacity="0.1" />
<rect x="0" y="54" width="154" height="18" stroke="black" fill="red" fill-opacity="0.1" />
<rect x="154" y="54" width="34" height="18" stroke="black" fill="red" fill-opacity="0.1" />
<rect x="188" y="54" width="18" height="18" stroke="black" fill="red" fill-opacity="0.1" />
<rect x="206" y="58" width="14" height="14" stroke="black" fill="red" fill-opacity="0.1" />
<rect x="220" y="62" width="26" height="10" stroke="black" fill="red" fill-opacity="0.1" />
<rect x="246" y="62" width="22" height="10" stroke="black" fill="red" fill-opacity="0.1" />
<rect x="268" y="62" width="14" height="10" stroke="black" fill="red" fill-opacity="0.1" />
<rect x="282" y="62" width="10" height="10" stroke="black" fill="red" fill-opacity="0.1" />
<rect x="292" y="62" width="10" height="10" stroke="black" fill="red" fill-opacity="0.1" />
<rect x="302" y="62" width="10" height="10" stroke="black" fill="red" fill-opacity="0.1" />
<rect x="312" y="62" width="10" height="10" stroke="black" fill="red" fill-opacity="0.1" />
<rect x="322" y="62" width="10" height="10" stroke="black" fill="red" fill-opacity="0.1" />
<rect x="332" y="62" width="10" height="10" stroke="black" fill="red" fill-opacity="0.1" />
</svg>