<?xml version="1.0" encoding="UTF-8"?>
<svg xmlns="http://www.w3.org/2000/svg" xmlns:xlink="http://www.w3.org/1999/xlink"
     width="1024" height="1024" viewBox="0 0 1024 1024">
<defs>
</defs>
<rect x="0" y="504" width="136" height="520" stroke="black" fill="red" fill-opacity="0.1" id="0">
<title>sprite_26</title>
</rect>
<rect x="136" y="888" width="280" height="136" stroke="black" fill="red" fill-opacity="0.1" id="1">
<title>sprite_27</title>
</rect>
<rect x="416" y="888" width="280" height="136" stroke="black" fill="red" fill-opacity="0.1" id="2">
<title>sprite_28</title>
</rect>
<rect x="696" y="888" width="280" height="136" stroke="black" fill="red" fill-opacity="0.1" id="3">
<title>sprite_29</title>
</rect>
<rect x="0" y="384" width="664" height="120" stroke="black" fill="red" fill-opacity="0.1" id="4">
<title>sprite_30</title>
</rect>
<rect x="0" y="264" width="616" height="120" stroke="black" fill="red" fill-opacity="0.1" id="5">
<title>sprite_31</title>
</rect>
<rect x="0" y="160" width="616" height="104" stroke="black" fill="red" fill-opacity="0.1" id="6">
<title>sprite_32</title>
</rect>
<rect x="0" y="56" width="472" height="104" stroke="black" fill="red" fill-opacity="0.1" id="7">
<title>sprite_33</title>
</rect>
<rect x="472" y="56" width="424" height="104" stroke="black" fill="red" fill-opacity="0.1" id="8">
<title>sprite_34</title>
</rect>
<rect x="616" y="280" width="376" height="104" stroke="black" fill="red" fill-opacity="0.1" id="9">
<title>sprite_35</title>
</rect>
<rect x="664" y="400" width="360" height="104" stroke="black" fill="red" fill-opacity="0.1" id="10">
<title>sprite_36</title>
</rect>
<rect x="616" y="160" width="360" height="104" stroke="black" fill="red" fill-opacity="0.1" id="11">
<title>sprite_37</title>
</rect>
<rect x="136" y="784" width="360" height="104" stroke="black" fill="red" fill-opacity="0.1" id="12">
<title>sprite_38</title>
</rect>
<rect x="496" y="784" width="312" height="104" stroke="black" fill="red" fill-opacity="0.1" id="13">
<title>sprite_39</title>
</rect>
<rect x="808" y="784" width="200" height="104" stroke="black" fill="red" fill-opacity="0.1" id="14">
<title>sprite_40</title>
</rect>
<rect x="136" y="696" width="504" height="88" stroke="black" fill="red" fill-opacity="0.1" id="15">
<title>sprite_41</title>
</rect>
<rect x="136" y="608" width="504" height="88" stroke="black" fill="red" fill-opacity="0.1" id="16">
<title>sprite_42</title>
</rect>
<rect x="640" y="696" width="248" height="88" stroke="black" fill="red" fill-opacity="0.1" id="17">
<title>sprite_43</title>
</rect>
<rect x="640" y="624" width="376" height="72" stroke="black" fill="red" fill-opacity="0.1" id="18">
<title>sprite_44</title>
</rect>
<rect x="136" y="536" width="376" height="72" stroke="black" fill="red" fill-opacity="0.1" id="19">
<title>sprite_45</title>
</rect>
<rect x="512" y="536" width="360" height="72" stroke="black" fill="red" fill-opacity="0.1" id="20">
<title>sprite_46</title>
</rect>
<rect x="872" y="536" width="152" height="72" stroke="black" fill="red" fill-opacity="0.1" id="21">
<title>sprite_47</title>
</rect>
<rect x="896" y="88" width="104" height="72" stroke="black" fill="red" fill-opacity="0.1" id="22">
<title>sprite_48</title>
</rect>
<rect x="888" y="728" width="136" height="56" stroke="black" fill="red" fill-opacity="0.1" id="23">
<title>sprite_49</title>
</rect>
<rect x="0" y="0" width="136" height="56" stroke="black" fill="red" fill-opacity="0.1" id="24">
<title>sprite_50</title>
</rect>
</svg>