<?xml version="1.0" encoding="UTF-8"?>
<svg xmlns="http://www.w3.org/2000/svg" xmlns:xlink="http://www.w3.org/1999/xlink"
     width="1024" height="1024" viewBox="0 0 1024 1024">
<defs>
</defs>
<rect x="4" y="4" width="280" height="136" stroke="black" fill="red" fill-opacity="0.1" id="0">
<title>sprite_51</title>
</rect>
<rect x="292" y="4" width="280" height="136" stroke="black" fill="red" fill-opacity="0.1" id="1">
<title>sprite_52</title>
</rect>
<rect x="580" y="4" width="280" height="136" stroke="black" fill="red" fill-opacity="0.1" id="2">
<title>sprite_53</title>
</rect>
<rect x="4" y="148" width="280" height="136" stroke="black" fill="red" fill-opacity="0.1" id="3">
<title>sprite_54</title>
</rect>
<rect x="292" y="148" width="280" height="136" stroke="black" fill="red" fill-opacity="0.1" id="4">
<title>sprite_55</title>
</rect>
<rect x="580" y="148" width="280" height="136" stroke="black" fill="red" fill-opacity="0.1" id="5">
<title>sprite_56</title>
</rect>
<rect x="4" y="292" width="280" height="136" stroke="black" fill="red" fill-opacity="0.1" id="6">
<title>sprite_57</title>
</rect>
<rect x="292" y="292" width="312" height="104" stroke="black" fill="red" fill-opacity="0.1" id="7">
<title>sprite_58</title>
</rect>
<rect x="612" y="292" width="264" height="104" stroke="black" fill="red" fill-opacity="0.1" id="8">
<title>sprite_59</title>
</rect>
<rect x="356" y="404" width="168" height="104" stroke="black" fill="red" fill-opacity="0.1" id="9">
<title>sprite_60</title>
</rect>
<rect x="532" y="404" width="168" height="104" stroke="black" fill="red" fill-opacity="0.1" id="10">
<title>sprite_61</title>
</rect>
<rect x="820" y="484" width="168" height="88" stroke="black" fill="red" fill-opacity="0.1" id="11">
<title>sprite_62</title>
</rect>
<rect x="868" y="4" width="88" height="88" stroke="black" fill="red" fill-opacity="0.1" id="12">
<title>sprite_63</title>
</rect>
<rect x="868" y="148" width="88" height="88" stroke="black" fill="red" fill-opacity="0.1" id="13">
<title>sprite_64</title>
</rect>
<rect x="884" y="292" width="88" height="88" stroke="black" fill="red" fill-opacity="0.1" id="14">
<title>sprite_65</title>
</rect>
<rect x="932" y="388" width="88" height="88" stroke="black" fill="red" fill-opacity="0.1" id="15">
<title>sprite_66</title>
</rect>
<rect x="4" y="676" width="88" height="88" stroke="black" fill="red" fill-opacity="0.1" id="16">
<title>sprite_67</title>
</rect>
<rect x="100" y="676" width="88" height="88" stroke="black" fill="red" fill-opacity="0.1" id="17">
<title>sprite_68</title>
</rect>
<rect x="196" y="676" width="88" height="88" stroke="black" fill="red" fill-opacity="0.1" id="18">
<title>sprite_69</title>
</rect>
<rect x="292" y="676" width="88" height="88" stroke="black" fill="red" fill-opacity="0.1" id="19">
<title>sprite_70</title>
</rect>
<rect x="388" y="676" width="88" height="88" stroke="black" fill="red" fill-opacity="0.1" id="20">
<title>sprite_71</title>
</rect>
<rect x="484" y="676" width="88" height="88" stroke="black" fill="red" fill-opacity="0.1" id="21">
<title>sprite_72</title>
</rect>
<rect x="580" y="660" width="88" height="88" stroke="black" fill="red" fill-opacity="0.1" id="22">
<title>sprite_73</title>
</rect>
<rect x="676" y="660" width="88" height="88" stroke="black" fill="red" fill-opacity="0.1" id="23">
<title>sprite_74</title>
</rect>
<rect x="772" y="660" width="88" height="88" stroke="black" fill="red" fill-opacity="0.1" id="24">
<title>sprite_75</title>
</rect>
<rect x="4" y="436" width="344" height="72" stroke="black" fill="red" fill-opacity="0.1" id="25">
<title>sprite_76</title>
</rect>
<rect x="708" y="404" width="216" height="72" stroke="black" fill="red" fill-opacity="0.1" id="26">
<title>sprite_77</title>
</rect>
<rect x="4" y="516" width="216" height="72" stroke="black" fill="red" fill-opacity="0.1" id="27">
<title>sprite_78</title>
</rect>
<rect x="228" y="516" width="200" height="72" stroke="black" fill="red" fill-opacity="0.1" id="28">
<title>sprite_79</title>
</rect>
<rect x="436" y="516" width="184" height="72" stroke="black" fill="red" fill-opacity="0.1" id="29">
<title>sprite_80</title>
</rect>
<rect x="628" y="516" width="184" height="72" stroke="black" fill="red" fill-opacity="0.1" id="30">
<title>sprite_81</title>
</rect>
<rect x="4" y="596" width="184" height="72" stroke="black" fill="red" fill-opacity="0.1" id="31">
<title>sprite_82</title>
</rect>
<rect x="196" y="596" width="168" height="72" stroke="black" fill="red" fill-opacity="0.1" id="32">
<title>sprite_83</title>
</rect>
<rect x="372" y="596" width="168" height="72" stroke="black" fill="red" fill-opacity="0.1" id="33">
<title>sprite_84</title>
</rect>
<rect x="836" y="580" width="72" height="72" stroke="black" fill="red" fill-opacity="0.1" id="34">
<title>sprite_85</title>
</rect>
<rect x="916" y="580" width="72" height="72" stroke="black" fill="red" fill-opacity="0.1" id="35">
<title>sprite_86</title>
</rect>
<rect x="868" y="660" width="72" height="72" stroke="black" fill="red" fill-opacity="0.1" id="36">
<title>sprite_87</title>
</rect>
<rect x="948" y="660" width="72" height="72" stroke="black" fill="red" fill-opacity="0.1" id="37">
<title>sprite_88</title>
</rect>
<rect x="4" y="772" width="72" height="72" stroke="black" fill="red" fill-opacity="0.1" id="38">
<title>sprite_89</title>
</rect>
<rect x="84" y="772" width="72" height="72" stroke="black" fill="red" fill-opacity="0.1" id="39">
<title>sprite_90</title>
</rect>
<rect x="164" y="772" width="72" height="72" stroke="black" fill="red" fill-opacity="0.1" id="40">
<title>sprite_91</title>
</rect>
<rect x="244" y="772" width="72" height="72" stroke="black" fill="red" fill-opacity="0.1" id="41">
<title>sprite_92</title>
</rect>
<rect x="324" y="772" width="72" height="72" stroke="black" fill="red" fill-opacity="0.1" id="42">
<title>sprite_93</title>
</rect>
<rect x="404" y="772" width="72" height="72" stroke="black" fill="red" fill-opacity="0.1" id="43">
<title>sprite_94</title>
</rect>
<rect x="484" y="772" width="72" height="72" stroke="black" fill="red" fill-opacity="0.1" id="44">
<title>sprite_95</title>
</rect>
<rect x="564" y="772" width="72" height="72" stroke="black" fill="red" fill-opacity="0.1" id="45">
<title>sprite_96</title>
</rect>
<rect x="644" y="756" width="72" height="72" stroke="black" fill="red" fill-opacity="0.1" id="46">
<title>sprite_97</title>
</rect>
<rect x="724" y="756" width="72" height="72" stroke="black" fill="red" fill-opacity="0.1" id="47">
<title>sprite_98</title>
</rect>
<rect x="804" y="756" width="72" height="72" stroke="black" fill="red" fill-opacity="0.1" id="48">
<title>sprite_99</title>
</rect>
<rect x="980" y="292" width="40" height="72" stroke="black" fill="red" fill-opacity="0.1" id="49">
<title>sprite_100</title>
</rect>
<rect x="548" y="596" width="104" height="56" stroke="black" fill="red" fill-opacity="0.1" id="50">
<title>sprite_101</title>
</rect>
<rect x="660" y="596" width="88" height="56" stroke="black" fill="red" fill-opacity="0.1" id="51">
<title>sprite_102</title>
</rect>
<rect x="756" y="596" width="72" height="56" stroke="black" fill="red" fill-opacity="0.1" id="52">
<title>sprite_103</title>
</rect>
<rect x="884" y="740" width="72" height="56" stroke="black" fill="red" fill-opacity="0.1" id="53">
<title>sprite_104</title>
</rect>
<rect x="4" y="852" width="72" height="56" stroke="black" fill="red" fill-opacity="0.1" id="54">
<title>sprite_105</title>
</rect>
<rect x="84" y="852" width="72" height="56" stroke="black" fill="red" fill-opacity="0.1" id="55">
<title>sprite_106</title>
</rect>
<rect x="164" y="852" width="72" height="56" stroke="black" fill="red" fill-opacity="0.1" id="56">
<title>sprite_107</title>
</rect>
<rect x="244" y="852" width="72" height="56" stroke="black" fill="red" fill-opacity="0.1" id="57">
<title>sprite_108</title>
</rect>
<rect x="964" y="4" width="56" height="56" stroke="black" fill="red" fill-opacity="0.1" id="58">
<title>sprite_109</title>
</rect>
<rect x="964" y="68" width="56" height="56" stroke="black" fill="red" fill-opacity="0.1" id="59">
<title>sprite_110</title>
</rect>
<rect x="964" y="132" width="56" height="56" stroke="black" fill="red" fill-opacity="0.1" id="60">
<title>sprite_111</title>
</rect>
<rect x="964" y="740" width="56" height="56" stroke="black" fill="red" fill-opacity="0.1" id="61">
<title>sprite_112</title>
</rect>
<rect x="324" y="852" width="56" height="56" stroke="black" fill="red" fill-opacity="0.1" id="62">
<title>sprite_113</title>
</rect>
<rect x="388" y="852" width="56" height="56" stroke="black" fill="red" fill-opacity="0.1" id="63">
<title>sprite_114</title>
</rect>
<rect x="452" y="852" width="56" height="56" stroke="black" fill="red" fill-opacity="0.1" id="64">
<title>sprite_115</title>
</rect>
<rect x="516" y="852" width="56" height="56" stroke="black" fill="red" fill-opacity="0.1" id="65">
<title>sprite_116</title>
</rect>
<rect x="868" y="100" width="40" height="40" stroke="black" fill="red" fill-opacity="0.1" id="66">
<title>sprite_117</title>
</rect>
<rect x="916" y="100" width="40" height="40" stroke="black" fill="red" fill-opacity="0.1" id="67">
<title>sprite_118</title>
</rect>
<rect x="964" y="196" width="40" height="40" stroke="black" fill="red" fill-opacity="0.1" id="68">
<title>sprite_119</title>
</rect>
<rect x="868" y="244" width="40" height="40" stroke="black" fill="red" fill-opacity="0.1" id="69">
<title>sprite_120</title>
</rect>
<rect x="916" y="244" width="40" height="40" stroke="black" fill="red" fill-opacity="0.1" id="70">
<title>sprite_121</title>
</rect>
<rect x="964" y="244" width="40" height="40" stroke="black" fill="red" fill-opacity="0.1" id="71">
<title>sprite_122</title>
</rect>
<rect x="580" y="852" width="40" height="40" stroke="black" fill="red" fill-opacity="0.1" id="72">
<title>sprite_123</title>
</rect>
</svg>