<?xml version="1.0" encoding="UTF-8"?>
<svg xmlns="http://www.w3.org/2000/svg" xmlns:xlink="http://www.w3.org/1999/xlink"
     width="256" height="256" viewBox="0 0 256 256">
<defs>
</defs>
<rect x="1" y="1" width="70" height="34" stroke="black" fill="red" fill-opacity="0.1" id="0">
<title>sprite_51</title>
</rect>
<rect x="73" y="1" width="70" height="34" stroke="black" fill="red" fill-opacity="0.1" id="1">
<title>sprite_52</title>
</rect>
<rect x="145" y="1" width="70" height="34" stroke="black" fill="red" fill-opacity="0.1" id="2">
<title>sprite_53</title>
</rect>
<rect x="1" y="37" width="70" height="34" stroke="black" fill="red" fill-opacity="0.1" id="3">
<title>sprite_54</title>
</rect>
<rect x="73" y="37" width="70" height="34" stroke="black" fill="red" fill-opacity="0.1" id="4">
<title>sprite_55</title>
</rect>
<rect x="145" y="37" width="70" height="34" stroke="black" fill="red" fill-opacity="0.1" id="5">
<title>sprite_56</title>
</rect>
<rect x="1" y="73" width="70" height="34" stroke="black" fill="red" fill-opacity="0.1" id="6">
<title>sprite_57</title>
</rect>
<rect x="73" y="73" width="78" height="26" stroke="black" fill="red" fill-opacity="0.1" id="7">
<title>sprite_58</title>
</rect>
<rect x="153" y="73" width="66" height="26" stroke="black" fill="red" fill-opacity="0.1" id="8">
<title>sprite_59</title>
</rect>
<rect x="89" y="101" width="42" height="26" stroke="black" fill="red" fill-opacity="0.1" id="9">
<title>sprite_60</title>
</rect>
<rect x="133" y="101" width="42" height="26" stroke="black" fill="red" fill-opacity="0.1" id="10">
<title>sprite_61</title>
</rect>
<rect x="205" y="121" width="42" height="22" stroke="black" fill="red" fill-opacity="0.1" id="11">
<title>sprite_62</title>
</rect>
<rect x="217" y="1" width="22" height="22" stroke="black" fill="red" fill-opacity="0.1" id="12">
<title>sprite_63</title>
</rect>
<rect x="217" y="37" width="22" height="22" stroke="black" fill="red" fill-opacity="0.1" id="13">
<title>sprite_64</title>
</rect>
<rect x="221" y="73" width="22" height="22" stroke="black" fill="red" fill-opacity="0.1" id="14">
<title>sprite_65</title>
</rect>
<rect x="233" y="97" width="22" height="22" stroke="black" fill="red" fill-opacity="0.1" id="15">
<title>sprite_66</title>
</rect>
<rect x="1" y="169" width="22" height="22" stroke="black" fill="red" fill-opacity="0.1" id="16">
<title>sprite_67</title>
</rect>
<rect x="25" y="169" width="22" height="22" stroke="black" fill="red" fill-opacity="0.1" id="17">
<title>sprite_68</title>
</rect>
<rect x="49" y="169" width="22" height="22" stroke="black" fill="red" fill-opacity="0.1" id="18">
<title>sprite_69</title>
</rect>
<rect x="73" y="169" width="22" height="22" stroke="black" fill="red" fill-opacity="0.1" id="19">
<title>sprite_70</title>
</rect>
<rect x="97" y="169" width="22" height="22" stroke="black" fill="red" fill-opacity="0.1" id="20">
<title>sprite_71</title>
</rect>
<rect x="121" y="169" width="22" height="22" stroke="black" fill="red" fill-opacity="0.1" id="21">
<title>sprite_72</title>
</rect>
<rect x="145" y="165" width="22" height="22" stroke="black" fill="red" fill-opacity="0.1" id="22">
<title>sprite_73</title>
</rect>
<rect x="169" y="165" width="22" height="22" stroke="black" fill="red" fill-opacity="0.1" id="23">
<title>sprite_74</title>
</rect>
<rect x="193" y="165" width="22" height="22" stroke="black" fill="red" fill-opacity="0.1" id="24">
<title>sprite_75</title>
</rect>
<rect x="1" y="109" width="86" height="18" stroke="black" fill="red" fill-opacity="0.1" id="25">
<title>sprite_76</title>
</rect>
<rect x="177" y="101" width="54" height="18" stroke="black" fill="red" fill-opacity="0.1" id="26">
<title>sprite_77</title>
</rect>
<rect x="1" y="129" width="54" height="18" stroke="black" fill="red" fill-opacity="0.1" id="27">
<title>sprite_78</title>
</rect>
<rect x="57" y="129" width="50" height="18" stroke="black" fill="red" fill-opacity="0.1" id="28">
<title>sprite_79</title>
</rect>
<rect x="109" y="129" width="46" height="18" stroke="black" fill="red" fill-opacity="0.1" id="29">
<title>sprite_80</title>
</rect>
<rect x="157" y="129" width="46" height="18" stroke="black" fill="red" fill-opacity="0.1" id="30">
<title>sprite_81</title>
</rect>
<rect x="1" y="149" width="46" height="18" stroke="black" fill="red" fill-opacity="0.1" id="31">
<title>sprite_82</title>
</rect>
<rect x="49" y="149" width="42" height="18" stroke="black" fill="red" fill-opacity="0.1" id="32">
<title>sprite_83</title>
</rect>
<rect x="93" y="149" width="42" height="18" stroke="black" fill="red" fill-opacity="0.1" id="33">
<title>sprite_84</title>
</rect>
<rect x="209" y="145" width="18" height="18" stroke="black" fill="red" fill-opacity="0.1" id="34">
<title>sprite_85</title>
</rect>
<rect x="229" y="145" width="18" height="18" stroke="black" fill="red" fill-opacity="0.1" id="35">
<title>sprite_86</title>
</rect>
<rect x="217" y="165" width="18" height="18" stroke="black" fill="red" fill-opacity="0.1" id="36">
<title>sprite_87</title>
</rect>
<rect x="237" y="165" width="18" height="18" stroke="black" fill="red" fill-opacity="0.1" id="37">
<title>sprite_88</title>
</rect>
<rect x="1" y="193" width="18" height="18" stroke="black" fill="red" fill-opacity="0.1" id="38">
<title>sprite_89</title>
</rect>
<rect x="21" y="193" width="18" height="18" stroke="black" fill="red" fill-opacity="0.1" id="39">
<title>sprite_90</title>
</rect>
<rect x="41" y="193" width="18" height="18" stroke="black" fill="red" fill-opacity="0.1" id="40">
<title>sprite_91</title>
</rect>
<rect x="61" y="193" width="18" height="18" stroke="black" fill="red" fill-opacity="0.1" id="41">
<title>sprite_92</title>
</rect>
<rect x="81" y="193" width="18" height="18" stroke="black" fill="red" fill-opacity="0.1" id="42">
<title>sprite_93</title>
</rect>
<rect x="101" y="193" width="18" height="18" stroke="black" fill="red" fill-opacity="0.1" id="43">
<title>sprite_94</title>
</rect>
<rect x="121" y="193" width="18" height="18" stroke="black" fill="red" fill-opacity="0.1" id="44">
<title>sprite_95</title>
</rect>
<rect x="141" y="193" width="18" height="18" stroke="black" fill="red" fill-opacity="0.1" id="45">
<title>sprite_96</title>
</rect>
<rect x="161" y="189" width="18" height="18" stroke="black" fill="red" fill-opacity="0.1" id="46">
<title>sprite_97</title>
</rect>
<rect x="181" y="189" width="18" height="18" stroke="black" fill="red" fill-opacity="0.1" id="47">
<title>sprite_98</title>
</rect>
<rect x="201" y="189" width="18" height="18" stroke="black" fill="red" fill-opacity="0.1" id="48">
<title>sprite_99</title>
</rect>
<rect x="245" y="73" width="10" height="18" stroke="black" fill="red" fill-opacity="0.1" id="49">
<title>sprite_100</title>
</rect>
<rect x="137" y="149" width="26" height="14" stroke="black" fill="red" fill-opacity="0.1" id="50">
<title>sprite_101</title>
</rect>
<rect x="165" y="149" width="22" height="14" stroke="black" fill="red" fill-opacity="0.1" id="51">
<title>sprite_102</title>
</rect>
<rect x="189" y="149" width="18" height="14" stroke="black" fill="red" fill-opacity="0.1" id="52">
<title>sprite_103</title>
</rect>
<rect x="221" y="185" width="18" height="14" stroke="black" fill="red" fill-opacity="0.1" id="53">
<title>sprite_104</title>
</rect>
<rect x="1" y="213" width="18" height="14" stroke="black" fill="red" fill-opacity="0.1" id="54">
<title>sprite_105</title>
</rect>
<rect x="21" y="213" width="18" height="14" stroke="black" fill="red" fill-opacity="0.1" id="55">
<title>sprite_106</title>
</rect>
<rect x="41" y="213" width="18" height="14" stroke="black" fill="red" fill-opacity="0.1" id="56">
<title>sprite_107</title>
</rect>
<rect x="61" y="213" width="18" height="14" stroke="black" fill="red" fill-opacity="0.1" id="57">
<title>sprite_108</title>
</rect>
<rect x="241" y="1" width="14" height="14" stroke="black" fill="red" fill-opacity="0.1" id="58">
<title>sprite_109</title>
</rect>
<rect x="241" y="17" width="14" height="14" stroke="black" fill="red" fill-opacity="0.1" id="59">
<title>sprite_110</title>
</rect>
<rect x="241" y="33" width="14" height="14" stroke="black" fill="red" fill-opacity="0.1" id="60">
<title>sprite_111</title>
</rect>
<rect x="241" y="185" width="14" height="14" stroke="black" fill="red" fill-opacity="0.1" id="61">
<title>sprite_112</title>
</rect>
<rect x="81" y="213" width="14" height="14" stroke="black" fill="red" fill-opacity="0.1" id="62">
<title>sprite_113</title>
</rect>
<rect x="97" y="213" width="14" height="14" stroke="black" fill="red" fill-opacity="0.1" id="63">
<title>sprite_114</title>
</rect>
<rect x="113" y="213" width="14" height="14" stroke="black" fill="red" fill-opacity="0.1" id="64">
<title>sprite_115</title>
</rect>
<rect x="129" y="213" width="14" height="14" stroke="black" fill="red" fill-opacity="0.1" id="65">
<title>sprite_116</title>
</rect>
<rect x="217" y="25" width="10" height="10" stroke="black" fill="red" fill-opacity="0.1" id="66">
<title>sprite_117</title>
</rect>
<rect x="229" y="25" width="10" height="10" stroke="black" fill="red" fill-opacity="0.1" id="67">
<title>sprite_118</title>
</rect>
<rect x="241" y="49" width="10" height="10" stroke="black" fill="red" fill-opacity="0.1" id="68">
<title>sprite_119</title>
</rect>
<rect x="217" y="61" width="10" height="10" stroke="black" fill="red" fill-opacity="0.1" id="69">
<title>sprite_120</title>
</rect>
<rect x="229" y="61" width="10" height="10" stroke="black" fill="red" fill-opacity="0.1" id="70">
<title>sprite_121</title>
</rect>
<rect x="241" y="61" width="10" height="10" stroke="black" fill="red" fill-opacity="0.1" id="71">
<title>sprite_122</title>
</rect>
<rect x="145" y="213" width="10" height="10" stroke="black" fill="red" fill-opacity="0.1" id="72">
<title>sprite_123</title>
</rect>
</svg>