<?xml version="1.0" encoding="UTF-8"?>
<svg xmlns="http://www.w3.org/2000/svg" xmlns:xlink="http://www.w3.org/1999/xlink"
     width="256" height="256" viewBox="0 0 256 256">
<defs>
</defs>
<rect x="1" y="1" width="70" height="34" stroke="black" fill="red" fill-opacity="0.1" />
<rect x="73" y="1" width="70" height="34" stroke="black" fill="red" fill-opacity="0.1" />
<rect x="145" y="1" width="70" height="34" stroke="black" fill="red" fill-opacity="0.1" />
<rect x="1" y="37" width="70" height="34" stroke="black" fill="red" fill-opacity="0.1" />
<rect x="73" y="37" width="70" height="34" stroke="black" fill="red" fill-opacity="0.1" />
<rect x="145" y="37" width="70" height="34" stroke="black" fill="red" fill-opacity="0.1" />
<rect x="1" y="73" width="70" height="34" stroke="black" fill="red" fill-opacity="0.1" />
<rect x="73" y="73" width="78" height="26" stroke="black" fill="red" fill-opacity="0.1" />
<rect x="153" y="73" width="66" height="26" stroke="black" fill="red" fill-opacity="0.1" />
<rect x="89" y="101" width="42" height="26" stroke="black" fill="red" fill-opacity="0.1" />
<rect x="133" y="101" width="42" height="26" stroke="black" fill="red" fill-opacity="0.1" />
<rect x="205" y="121" width="42" height="22" stroke="black" fill="red" fill-opacity="0.1" />
<rect x="217" y="1" width="22" height="22" stroke="black" fill="red" fill-opacity="0.1" />
<rect x="217" y="37" width="22" height="22" stroke="black" fill="red" fill-opacity="0.1" />
<rect x="221" y="73" width="22" height="22" stroke="black" fill="red" fill-opacity="0.1" />
<rect x="233" y="97" width="22" height="22" stroke="black" fill="red" fill-opacity="0.1" />
<rect x="1" y="169" width="22" height="22" stroke="black" fill="red" fill-opacity="0.1" />
<rect x="25" y="169" width="22" height="22" stroke="black" fill="red" fill-opacity="0.1" />
<rect x="49" y="169" width="22" height="22" stroke="black" fill="red" fill-opacity="0.1" />
<rect x="73" y="169" width="22" height="22" stroke="black" fill="red" fill-opacity="0.1" />
<rect x="97" y="169" width="22" height="22" stroke="black" fill="red" fill-opacity="0.1" />
<rect x="121" y="169" width="22" height="22" stroke="black" fill="red" fill-opacity="0.1" />
<rect x="145" y="165" width="22" height="22" stroke="black" fill="red" fill-opacity="0.1" />
<rect x="169" y="165" width="22" height="22" stroke="black" fill="red" fill-opacity="0.1" />
<rect x="193" y="165" width="22" height="22" stroke="black" fill="red" fill-opacity="0.1" />
<rect x="1" y="109" width="86" height="18" stroke="black" fill="red" fill-opacity="0.1" />
<rect x="177" y="101" width="54" height="18" stroke="black" fill="red" fill-opacity="0.1" />
<rect x="1" y="129" width="54" height="18" stroke="black" fill="red" fill-opacity="0.1" />
<rect x="57" y="129" width="50" height="18" stroke="black" fill="red" fill-opacity="0.1" />
<rect x="109" y="129" width="46" height="18" stroke="black" fill="red" fill-opacity="0.1" />
<rect x="157" y="129" width="46" height="18" stroke="black" fill="red" fill-opacity="0.1" />
<rect x="1" y="149" width="46" height="18" stroke="black" fill="red" fill-opacity="0.1" />
<rect x="49" y="149" width="42" height="18" stroke="black" fill="red" fill-opacity="0.1" />
<rect x="93" y="149" width="42" height="18" stroke="black" fill="red" fill-opacity="0.1" />
<rect x="209" y="145" width="18" height="18" stroke="black" fill="red" fill-opacity="0.1" />
<rect x="229" y="145" width="18" height="18" stroke="black" fill="red" fill-opacity="0.1" />
<rect x="217" y="165" width="18" height="18" stroke="black" fill="red" fill-opacity="0.1" />
<rect x="237" y="165" width="18" height="18" stroke="black" fill="red" fill-opacity="0.1" />
<rect x="1" y="193" width="18" height="18" stroke="black" fill="red" fill-opacity="0.1" />
<rect x="21" y="193" width="18" height="18" stroke="black" fill="red" fill-opacity="0.1" />
<rect x="41" y="193" width="18" height="18" stroke="black" fill="red" fill-opacity="0.1" />
<rect x="61" y="193" width="18" height="18" stroke="black" fill="red" fill-opacity="0.1" />
<rect x="81" y="193" width="18" height="18" stroke="black" fill="red" fill-opacity="0.1" />
<rect x="101" y="193" width="18" height="18" stroke="black" fill="red" fill-opacity="0.1" />
<rect x="121" y="193" width="18" height="18" stroke="black" fill="red" fill-opacity="0.1" />
<rect x="141" y="193" width="18" height="18" stroke="black" fill="red" fill-opacity="0.1" />
<rect x="161" y="189" width="18" height="18" stroke="black" fill="red" fill-opacity="0.1" />
<rect x="181" y="189" width="18" height="18" stroke="black" fill="red" fill-opacity="0.1" />
<rect x="201" y="189" width="18" height="18" stroke="black" fill="red" fill-opacity="0.1" />
<rect x="245" y="73" width="10" height="18" stroke="black" fill="red" fill-opacity="0.1" />
<rect x="137" y="149" width="26" height="14" stroke="black" fill="red" fill-opacity="0.1" />
<rect x="165" y="149" width="22" height="14" stroke="black" fill="red" fill-opacity="0.1" />
<rect x="189" y="149" width="18" height="14" stroke="black" fill="red" fill-opacity="0.1" />
<rect x="221" y="185" width="18" height="14" stroke="black" fill="red" fill-opacity="0.1" />
<rect x="1" y="213" width="18" height="14" stroke="black" fill="red" fill-opacity="0.1" />
<rect x="21" y="213" width="18" height="14" stroke="black" fill="red" fill-opacity="0.1" />
<rect x="41" y="213" width="18" height="14" stroke="black" fill="red" fill-opacity="0.1" />
<rect x="61" y="213" width="18" height="14" stroke="black" fill="red" fill-opacity="0.1" />
<rect x="241" y="1" width="14" height="14" stroke="black" fill="red" fill-opacity="0.1" />
<rect x="241" y="17" width="14" height="14" stroke="black" fill="red" fill-opacity="0.1" />
<rect x="241" y="33" width="14" height="14" stroke="black" fill="red" fill-opacity="0.1" />
<rect x="241" y="185" width="14" height="14" stroke="black" fill="red" fill-opacity="0.1" />
<rect x="81" y="213" width="14" height="14" stroke="black" fill="red" fill-opacity="0.1" />
<rect x="97" y="213" width="14" height="14" stroke="black" fill="red" fill-opacity="0.1" />
<rect x="113" y="213" width="14" height="14" stroke="black" fill="red" fill-opacity="0.1" />
<rect x="129" y="213" width="14" height="14" stroke="black" fill="red" fill-opacity="0.1" />
<rect x="217" y="25" width="10" height="10" stroke="black" fill="red" fill-opacity="0.1" />
<rect x="229" y="25" width="10" height="10" stroke="black" fill="red" fill-opacity="0.1" />
<rect x="241" y="49" width="10" height="10" stroke="black" fill="red" fill-opacity="0.1" />
<rect x="217" y="61" width="10" height="10" stroke="black" fill="red" fill-opacity="0.1" />
<rect x="229" y="61" width="10" height="10" stroke="black" fill="red" fill-opacity="0.1" />
<rect x="241" y="61" width="10" height="10" stroke="black" fill="red" fill-opacity="0.1" />
<rect x="145" y="213" width="10" height="10" stroke="black" fill="red" fill-opacity="0.1" />
</svg>