<?xml version="1.0" encoding="UTF-8"?>
<svg xmlns="http://www.w3.org/2000/svg" xmlns:xlink="http://www.w3.org/1999/xlink"
     width="4096" height="4096" viewBox="0 0 4096 4096">
<defs>
</defs>
<rect x="1512" y="2584" width="504" height="504" stroke="black" fill="red" fill-opacity="0.1" id="0">
<title>sprite_133</title>
</rect>
<rect x="3024" y="3592" width="504" height="504" stroke="black" fill="red" fill-opacity="0.1" id="1">
<title>sprite_134</title>
</rect>
<rect x="1008" y="3088" width="504" height="504" stroke="black" fill="red" fill-opacity="0.1" id="2">
<title>sprite_135</title>
</rect>
<rect x="3528" y="3592" width="504" height="504" stroke="black" fill="red" fill-opacity="0.1" id="3">
<title>sprite_136</title>
</rect>
<rect x="1512" y="3088" width="504" height="504" stroke="black" fill="red" fill-opacity="0.1" id="4">
<title>sprite_137</title>
</rect>
<rect x="504" y="3592" width="504" height="504" stroke="black" fill="red" fill-opacity="0.1" id="5">
<title>sprite_138</title>
</rect>
<rect x="3528" y="3088" width="504" height="504" stroke="black" fill="red" fill-opacity="0.1" id="6">
<title>sprite_139</title>
</rect>
<rect x="1008" y="3592" width="504" height="504" stroke="black" fill="red" fill-opacity="0.1" id="7">
<title>sprite_140</title>
</rect>
<rect x="504" y="3088" width="504" height="504" stroke="black" fill="red" fill-opacity="0.1" id="8">
<title>sprite_141</title>
</rect>
<rect x="2520" y="3592" width="504" height="504" stroke="black" fill="red" fill-opacity="0.1" id="9">
<title>sprite_142</title>
</rect>
<rect x="3024" y="3088" width="504" height="504" stroke="black" fill="red" fill-opacity="0.1" id="10">
<title>sprite_143</title>
</rect>
<rect x="2016" y="3088" width="504" height="504" stroke="black" fill="red" fill-opacity="0.1" id="11">
<title>sprite_144</title>
</rect>
<rect x="2016" y="3592" width="504" height="504" stroke="black" fill="red" fill-opacity="0.1" id="12">
<title>sprite_145</title>
</rect>
<rect x="2016" y="2584" width="504" height="504" stroke="black" fill="red" fill-opacity="0.1" id="13">
<title>sprite_146</title>
</rect>
<rect x="1512" y="3592" width="504" height="504" stroke="black" fill="red" fill-opacity="0.1" id="14">
<title>sprite_147</title>
</rect>
<rect x="0" y="3592" width="504" height="504" stroke="black" fill="red" fill-opacity="0.1" id="15">
<title>sprite_148</title>
</rect>
<rect x="0" y="3088" width="504" height="504" stroke="black" fill="red" fill-opacity="0.1" id="16">
<title>sprite_149</title>
</rect>
<rect x="1008" y="2584" width="504" height="504" stroke="black" fill="red" fill-opacity="0.1" id="17">
<title>sprite_150</title>
</rect>
<rect x="0" y="2584" width="504" height="504" stroke="black" fill="red" fill-opacity="0.1" id="18">
<title>sprite_151</title>
</rect>
<rect x="2520" y="3088" width="504" height="504" stroke="black" fill="red" fill-opacity="0.1" id="19">
<title>sprite_152</title>
</rect>
<rect x="504" y="2584" width="504" height="504" stroke="black" fill="red" fill-opacity="0.1" id="20">
<title>sprite_153</title>
</rect>
<rect x="2520" y="2664" width="440" height="424" stroke="black" fill="red" fill-opacity="0.1" id="21">
<title>sprite_154</title>
</rect>
<rect x="2960" y="2664" width="440" height="424" stroke="black" fill="red" fill-opacity="0.1" id="22">
<title>sprite_155</title>
</rect>
<rect x="3400" y="2664" width="216" height="424" stroke="black" fill="red" fill-opacity="0.1" id="23">
<title>sprite_156</title>
</rect>
<rect x="0" y="2176" width="520" height="408" stroke="black" fill="red" fill-opacity="0.1" id="24">
<title>sprite_157</title>
</rect>
<rect x="520" y="2208" width="504" height="376" stroke="black" fill="red" fill-opacity="0.1" id="25">
<title>sprite_158</title>
</rect>
<rect x="1024" y="2208" width="504" height="376" stroke="black" fill="red" fill-opacity="0.1" id="26">
<title>sprite_159</title>
</rect>
<rect x="1528" y="2344" width="232" height="240" stroke="black" fill="red" fill-opacity="0.1" id="27">
<title>sprite_160</title>
</rect>
<rect x="1760" y="2352" width="968" height="232" stroke="black" fill="red" fill-opacity="0.1" id="28">
<title>sprite_161</title>
</rect>
<rect x="1448" y="1504" width="1448" height="168" stroke="black" fill="red" fill-opacity="0.1" id="29">
<title>sprite_162</title>
</rect>
<rect x="0" y="1840" width="1448" height="168" stroke="black" fill="red" fill-opacity="0.1" id="30">
<title>sprite_163</title>
</rect>
<rect x="1448" y="1672" width="1448" height="168" stroke="black" fill="red" fill-opacity="0.1" id="31">
<title>sprite_164</title>
</rect>
<rect x="0" y="1504" width="1448" height="168" stroke="black" fill="red" fill-opacity="0.1" id="32">
<title>sprite_165</title>
</rect>
<rect x="0" y="1672" width="1448" height="168" stroke="black" fill="red" fill-opacity="0.1" id="33">
<title>sprite_166</title>
</rect>
<rect x="0" y="2008" width="1448" height="168" stroke="black" fill="red" fill-opacity="0.1" id="34">
<title>sprite_167</title>
</rect>
<rect x="1448" y="2008" width="1448" height="168" stroke="black" fill="red" fill-opacity="0.1" id="35">
<title>sprite_168</title>
</rect>
<rect x="1448" y="1840" width="1448" height="168" stroke="black" fill="red" fill-opacity="0.1" id="36">
<title>sprite_169</title>
</rect>
<rect x="2896" y="1520" width="1016" height="152" stroke="black" fill="red" fill-opacity="0.1" id="37">
<title>sprite_170</title>
</rect>
<rect x="2896" y="1856" width="984" height="152" stroke="black" fill="red" fill-opacity="0.1" id="38">
<title>sprite_171</title>
</rect>
<rect x="2896" y="1688" width="984" height="152" stroke="black" fill="red" fill-opacity="0.1" id="39">
<title>sprite_172</title>
</rect>
<rect x="0" y="1232" width="2216" height="136" stroke="black" fill="red" fill-opacity="0.1" id="40">
<title>sprite_173</title>
</rect>
<rect x="0" y="1368" width="2216" height="136" stroke="black" fill="red" fill-opacity="0.1" id="41">
<title>sprite_174</title>
</rect>
<rect x="2216" y="1368" width="744" height="136" stroke="black" fill="red" fill-opacity="0.1" id="42">
<title>sprite_175</title>
</rect>
<rect x="0" y="1112" width="1456" height="120" stroke="black" fill="red" fill-opacity="0.1" id="43">
<title>sprite_176</title>
</rect>
<rect x="2216" y="1248" width="1456" height="120" stroke="black" fill="red" fill-opacity="0.1" id="44">
<title>sprite_177</title>
</rect>
<rect x="1456" y="1112" width="1384" height="120" stroke="black" fill="red" fill-opacity="0.1" id="45">
<title>sprite_178</title>
</rect>
<rect x="1384" y="992" width="1384" height="120" stroke="black" fill="red" fill-opacity="0.1" id="46">
<title>sprite_179</title>
</rect>
<rect x="1384" y="872" width="1384" height="120" stroke="black" fill="red" fill-opacity="0.1" id="47">
<title>sprite_180</title>
</rect>
<rect x="0" y="872" width="1384" height="120" stroke="black" fill="red" fill-opacity="0.1" id="48">
<title>sprite_181</title>
</rect>
<rect x="0" y="992" width="1384" height="120" stroke="black" fill="red" fill-opacity="0.1" id="49">
<title>sprite_182</title>
</rect>
<rect x="0" y="752" width="616" height="120" stroke="black" fill="red" fill-opacity="0.1" id="50">
<title>sprite_183</title>
</rect>
<rect x="616" y="752" width="616" height="120" stroke="black" fill="red" fill-opacity="0.1" id="51">
<title>sprite_184</title>
</rect>
<rect x="2768" y="872" width="616" height="120" stroke="black" fill="red" fill-opacity="0.1" id="52">
<title>sprite_185</title>
</rect>
<rect x="3384" y="872" width="616" height="120" stroke="black" fill="red" fill-opacity="0.1" id="53">
<title>sprite_186</title>
</rect>
<rect x="2960" y="1384" width="616" height="120" stroke="black" fill="red" fill-opacity="0.1" id="54">
<title>sprite_187</title>
</rect>
<rect x="2768" y="992" width="616" height="120" stroke="black" fill="red" fill-opacity="0.1" id="55">
<title>sprite_188</title>
</rect>
<rect x="3384" y="992" width="616" height="120" stroke="black" fill="red" fill-opacity="0.1" id="56">
<title>sprite_189</title>
</rect>
<rect x="2840" y="1112" width="616" height="120" stroke="black" fill="red" fill-opacity="0.1" id="57">
<title>sprite_190</title>
</rect>
<rect x="3456" y="1112" width="616" height="120" stroke="black" fill="red" fill-opacity="0.1" id="58">
<title>sprite_191</title>
</rect>
<rect x="2896" y="2056" width="616" height="120" stroke="black" fill="red" fill-opacity="0.1" id="59">
<title>sprite_192</title>
</rect>
<rect x="2728" y="2464" width="616" height="120" stroke="black" fill="red" fill-opacity="0.1" id="60">
<title>sprite_193</title>
</rect>
<rect x="3344" y="2464" width="616" height="120" stroke="black" fill="red" fill-opacity="0.1" id="61">
<title>sprite_194</title>
</rect>
<rect x="1232" y="752" width="568" height="120" stroke="black" fill="red" fill-opacity="0.1" id="62">
<title>sprite_195</title>
</rect>
<rect x="3576" y="1384" width="472" height="120" stroke="black" fill="red" fill-opacity="0.1" id="63">
<title>sprite_196</title>
</rect>
<rect x="1800" y="752" width="424" height="120" stroke="black" fill="red" fill-opacity="0.1" id="64">
<title>sprite_197</title>
</rect>
<rect x="2224" y="752" width="392" height="120" stroke="black" fill="red" fill-opacity="0.1" id="65">
<title>sprite_198</title>
</rect>
<rect x="2616" y="752" width="392" height="120" stroke="black" fill="red" fill-opacity="0.1" id="66">
<title>sprite_199</title>
</rect>
<rect x="3008" y="752" width="280" height="120" stroke="black" fill="red" fill-opacity="0.1" id="67">
<title>sprite_200</title>
</rect>
<rect x="0" y="648" width="1864" height="104" stroke="black" fill="red" fill-opacity="0.1" id="68">
<title>sprite_201</title>
</rect>
<rect x="1864" y="648" width="1592" height="104" stroke="black" fill="red" fill-opacity="0.1" id="69">
<title>sprite_202</title>
</rect>
<rect x="0" y="544" width="936" height="104" stroke="black" fill="red" fill-opacity="0.1" id="70">
<title>sprite_203</title>
</rect>
<rect x="936" y="544" width="568" height="104" stroke="black" fill="red" fill-opacity="0.1" id="71">
<title>sprite_204</title>
</rect>
<rect x="1504" y="544" width="152" height="104" stroke="black" fill="red" fill-opacity="0.1" id="72">
<title>sprite_205</title>
</rect>
<rect x="1656" y="544" width="152" height="104" stroke="black" fill="red" fill-opacity="0.1" id="73">
<title>sprite_206</title>
</rect>
<rect x="1808" y="560" width="1616" height="88" stroke="black" fill="red" fill-opacity="0.1" id="74">
<title>sprite_207</title>
</rect>
<rect x="0" y="456" width="1392" height="88" stroke="black" fill="red" fill-opacity="0.1" id="75">
<title>sprite_208</title>
</rect>
<rect x="2528" y="456" width="1136" height="88" stroke="black" fill="red" fill-opacity="0.1" id="76">
<title>sprite_209</title>
</rect>
<rect x="0" y="368" width="1136" height="88" stroke="black" fill="red" fill-opacity="0.1" id="77">
<title>sprite_210</title>
</rect>
<rect x="1392" y="456" width="1136" height="88" stroke="black" fill="red" fill-opacity="0.1" id="78">
<title>sprite_211</title>
</rect>
<rect x="1136" y="368" width="584" height="88" stroke="black" fill="red" fill-opacity="0.1" id="79">
<title>sprite_212</title>
</rect>
<rect x="1720" y="368" width="576" height="88" stroke="black" fill="red" fill-opacity="0.1" id="80">
<title>sprite_213</title>
</rect>
<rect x="2296" y="368" width="472" height="88" stroke="black" fill="red" fill-opacity="0.1" id="81">
<title>sprite_214</title>
</rect>
<rect x="2768" y="368" width="424" height="88" stroke="black" fill="red" fill-opacity="0.1" id="82">
<title>sprite_215</title>
</rect>
<rect x="3192" y="368" width="152" height="88" stroke="black" fill="red" fill-opacity="0.1" id="83">
<title>sprite_216</title>
</rect>
<rect x="3456" y="680" width="552" height="72" stroke="black" fill="red" fill-opacity="0.1" id="84">
<title>sprite_217</title>
</rect>
<rect x="3424" y="576" width="552" height="72" stroke="black" fill="red" fill-opacity="0.1" id="85">
<title>sprite_218</title>
</rect>
<rect x="3344" y="384" width="552" height="72" stroke="black" fill="red" fill-opacity="0.1" id="86">
<title>sprite_219</title>
</rect>
<rect x="3664" y="472" width="248" height="72" stroke="black" fill="red" fill-opacity="0.1" id="87">
<title>sprite_220</title>
</rect>
<rect x="3288" y="800" width="248" height="72" stroke="black" fill="red" fill-opacity="0.1" id="88">
<title>sprite_221</title>
</rect>
<rect x="3536" y="800" width="248" height="72" stroke="black" fill="red" fill-opacity="0.1" id="89">
<title>sprite_222</title>
</rect>
<rect x="3784" y="800" width="216" height="72" stroke="black" fill="red" fill-opacity="0.1" id="90">
<title>sprite_223</title>
</rect>
<rect x="3672" y="1296" width="216" height="72" stroke="black" fill="red" fill-opacity="0.1" id="91">
<title>sprite_224</title>
</rect>
<rect x="3896" y="384" width="152" height="72" stroke="black" fill="red" fill-opacity="0.1" id="92">
<title>sprite_225</title>
</rect>
</svg>