<?xml version="1.0" encoding="UTF-8"?>
<svg xmlns="http://www.w3.org/2000/svg" xmlns:xlink="http://www.w3.org/1999/xlink"
     width="1024" height="512" viewBox="0 0 1024 512">
<defs>
</defs>
<rect x="0" y="202" width="512" height="310" stroke="black" fill="red" fill-opacity="0.1" />
<rect x="512" y="202" width="254" height="310" stroke="black" fill="red" fill-opacity="0.1" />
<rect x="786" y="254" width="2" height="258" stroke="black" fill="red" fill-opacity="0.1" />
<rect x="788" y="254" width="2" height="258" stroke="black" fill="red" fill-opacity="0.1" />
<rect x="790" y="278" width="2" height="234" stroke="black" fill="red" fill-opacity="0.1" />
<rect x="792" y="348" width="142" height="164" stroke="black" fill="red" fill-opacity="0.1" />
<rect x="934" y="398" width="74" height="114" stroke="black" fill="red" fill-opacity="0.1" />
<rect x="0" y="88" width="74" height="114" stroke="black" fill="red" fill-opacity="0.1" />
<rect x="74" y="88" width="74" height="114" stroke="black" fill="red" fill-opacity="0.1" />
<rect x="148" y="88" width="74" height="114" stroke="black" fill="red" fill-opacity="0.1" />
<rect x="222" y="104" width="30" height="98" stroke="black" fill="red" fill-opacity="0.1" />
<rect x="252" y="120" width="10" height="82" stroke="black" fill="red" fill-opacity="0.1" />
<rect x="262" y="136" width="2" height="66" stroke="black" fill="red" fill-opacity="0.1" />
<rect x="264" y="160" width="18" height="42" stroke="black" fill="red" fill-opacity="0.1" />
<rect x="282" y="160" width="18" height="42" stroke="black" fill="red" fill-opacity="0.1" />
<rect x="300" y="160" width="10" height="42" stroke="black" fill="red" fill-opacity="0.1" />
<rect x="310" y="160" width="2" height="42" stroke="black" fill="red" fill-opacity="0.1" />
<rect x="312" y="172" width="30" height="30" stroke="black" fill="red" fill-opacity="0.1" />
<rect x="342" y="180" width="120" height="22" stroke="black" fill="red" fill-opacity="0.1" />
<rect x="462" y="184" width="10" height="18" stroke="black" fill="red" fill-opacity="0.1" />
<rect x="472" y="188" width="130" height="14" stroke="black" fill="red" fill-opacity="0.1" />
<rect x="602" y="188" width="130" height="14" stroke="black" fill="red" fill-opacity="0.1" />
<rect x="732" y="188" width="130" height="14" stroke="black" fill="red" fill-opacity="0.1" />
<rect x="862" y="192" width="31" height="10" stroke="black" fill="red" fill-opacity="0.1" />
<rect x="893" y="192" width="31" height="10" stroke="black" fill="red" fill-opacity="0.1" />
<rect x="924" y="192" width="31" height="10" stroke="black" fill="red" fill-opacity="0.1" />
<rect x="955" y="192" width="10" height="10" stroke="black" fill="red" fill-opacity="0.1" />
<rect x="965" y="192" width="10" height="10" stroke="black" fill="red" fill-opacity="0.1" />
<rect x="975" y="200" width="10" height="2" stroke="black" fill="red" fill-opacity="0.1" />
<rect x="985" y="200" width="10" height="2" stroke="black" fill="red" fill-opacity="0.1" />
<rect x="995" y="200" width="10" height="2" stroke="black" fill="red" fill-opacity="0.1" />
</svg>