<?xml version="1.0" encoding="UTF-8"?>
<svg xmlns="http://www.w3.org/2000/svg" xmlns:xlink="http://www.w3.org/1999/xlink"
     width="512" height="256" viewBox="0 0 512 256">
<defs>
</defs>
<rect x="0" y="240" width="279" height="16" stroke="black" fill="red" fill-opacity="0.1" />
<rect x="0" y="224" width="279" height="16" stroke="black" fill="red" fill-opacity="0.1" />
<rect x="0" y="208" width="279" height="16" stroke="black" fill="red" fill-opacity="0.1" />
<rect x="0" y="192" width="279" height="16" stroke="black" fill="red" fill-opacity="0.1" />
<rect x="0" y="176" width="279" height="16" stroke="black" fill="red" fill-opacity="0.1" />
<rect x="279" y="243" width="192" height="13" stroke="black" fill="red" fill-opacity="0.1" />
<rect x="279" y="227" width="189" height="13" stroke="black" fill="red" fill-opacity="0.1" />
<rect x="279" y="211" width="185" height="13" stroke="black" fill="red" fill-opacity="0.1" />
<rect x="279" y="195" width="180" height="13" stroke="black" fill="red" fill-opacity="0.1" />
<rect x="279" y="179" width="180" height="13" stroke="black" fill="red" fill-opacity="0.1" />
<rect x="0" y="163" width="180" height="13" stroke="black" fill="red" fill-opacity="0.1" />
<rect x="180" y="163" width="174" height="13" stroke="black" fill="red" fill-opacity="0.1" />
<rect x="0" y="150" width="172" height="13" stroke="black" fill="red" fill-opacity="0.1" />
<rect x="172" y="150" width="167" height="13" stroke="black" fill="red" fill-opacity="0.1" />
<rect x="339" y="150" width="162" height="13" stroke="black" fill="red" fill-opacity="0.1" />
<rect x="354" y="163" width="138" height="13" stroke="black" fill="red" fill-opacity="0.1" />
<rect x="0" y="137" width="136" height="13" stroke="black" fill="red" fill-opacity="0.1" />
<rect x="136" y="137" width="135" height="13" stroke="black" fill="red" fill-opacity="0.1" />
<rect x="271" y="137" width="135" height="13" stroke="black" fill="red" fill-opacity="0.1" />
<rect x="0" y="124" width="131" height="13" stroke="black" fill="red" fill-opacity="0.1" />
<rect x="131" y="124" width="130" height="13" stroke="black" fill="red" fill-opacity="0.1" />
<rect x="261" y="124" width="125" height="13" stroke="black" fill="red" fill-opacity="0.1" />
<rect x="386" y="124" width="121" height="13" stroke="black" fill="red" fill-opacity="0.1" />
<rect x="0" y="111" width="115" height="13" stroke="black" fill="red" fill-opacity="0.1" />
<rect x="115" y="111" width="113" height="13" stroke="black" fill="red" fill-opacity="0.1" />
<rect x="228" y="111" width="113" height="13" stroke="black" fill="red" fill-opacity="0.1" />
<rect x="341" y="111" width="111" height="13" stroke="black" fill="red" fill-opacity="0.1" />
<rect x="406" y="137" width="105" height="13" stroke="black" fill="red" fill-opacity="0.1" />
<rect x="0" y="98" width="104" height="13" stroke="black" fill="red" fill-opacity="0.1" />
<rect x="104" y="98" width="103" height="13" stroke="black" fill="red" fill-opacity="0.1" />
<rect x="207" y="98" width="102" height="13" stroke="black" fill="red" fill-opacity="0.1" />
<rect x="309" y="98" width="97" height="13" stroke="black" fill="red" fill-opacity="0.1" />
<rect x="406" y="98" width="95" height="13" stroke="black" fill="red" fill-opacity="0.1" />
<rect x="0" y="85" width="91" height="13" stroke="black" fill="red" fill-opacity="0.1" />
<rect x="91" y="85" width="88" height="13" stroke="black" fill="red" fill-opacity="0.1" />
<rect x="179" y="85" width="85" height="13" stroke="black" fill="red" fill-opacity="0.1" />
<rect x="264" y="85" width="80" height="13" stroke="black" fill="red" fill-opacity="0.1" />
<rect x="344" y="85" width="77" height="13" stroke="black" fill="red" fill-opacity="0.1" />
<rect x="421" y="85" width="62" height="13" stroke="black" fill="red" fill-opacity="0.1" />
<rect x="452" y="111" width="58" height="13" stroke="black" fill="red" fill-opacity="0.1" />
<rect x="459" y="195" width="52" height="13" stroke="black" fill="red" fill-opacity="0.1" />
<rect x="464" y="211" width="46" height="13" stroke="black" fill="red" fill-opacity="0.1" />
<rect x="468" y="227" width="42" height="13" stroke="black" fill="red" fill-opacity="0.1" />
<rect x="471" y="243" width="41" height="13" stroke="black" fill="red" fill-opacity="0.1" />
<rect x="459" y="179" width="39" height="13" stroke="black" fill="red" fill-opacity="0.1" />
<rect x="0" y="72" width="37" height="13" stroke="black" fill="red" fill-opacity="0.1" />
<rect x="37" y="72" width="35" height="13" stroke="black" fill="red" fill-opacity="0.1" />
<rect x="72" y="72" width="34" height="13" stroke="black" fill="red" fill-opacity="0.1" />
<rect x="106" y="72" width="32" height="13" stroke="black" fill="red" fill-opacity="0.1" />
<rect x="138" y="72" width="31" height="13" stroke="black" fill="red" fill-opacity="0.1" />
<rect x="169" y="72" width="29" height="13" stroke="black" fill="red" fill-opacity="0.1" />
<rect x="198" y="72" width="26" height="13" stroke="black" fill="red" fill-opacity="0.1" />
</svg>