<?xml version="1.0" encoding="UTF-8"?>
<svg xmlns="http://www.w3.org/2000/svg" xmlns:xlink="http://www.w3.org/1999/xlink"
     width="1024" height="512" viewBox="0 0 1024 512">
<defs>
</defs>
<rect x="0" y="394" width="238" height="118" stroke="black" fill="red" fill-opacity="0.1" />
<rect x="238" y="447" width="218" height="65" stroke="black" fill="red" fill-opacity="0.1" />
<rect x="456" y="465" width="391" height="47" stroke="black" fill="red" fill-opacity="0.1" />
<rect x="0" y="347" width="391" height="47" stroke="black" fill="red" fill-opacity="0.1" />
<rect x="391" y="351" width="363" height="43" stroke="black" fill="red" fill-opacity="0.1" />
<rect x="0" y="304" width="362" height="43" stroke="black" fill="red" fill-opacity="0.1" />
<rect x="362" y="307" width="488" height="40" stroke="black" fill="red" fill-opacity="0.1" />
<rect x="0" y="264" width="488" height="40" stroke="black" fill="red" fill-opacity="0.1" />
<rect x="488" y="264" width="450" height="40" stroke="black" fill="red" fill-opacity="0.1" />
<rect x="0" y="224" width="450" height="40" stroke="black" fill="red" fill-opacity="0.1" />
<rect x="450" y="224" width="450" height="40" stroke="black" fill="red" fill-opacity="0.1" />
<rect x="0" y="184" width="450" height="40" stroke="black" fill="red" fill-opacity="0.1" />
<rect x="0" y="144" width="332" height="40" stroke="black" fill="red" fill-opacity="0.1" />
<rect x="332" y="150" width="94" height="34" stroke="black" fill="red" fill-opacity="0.1" />
<rect x="426" y="150" width="94" height="34" stroke="black" fill="red" fill-opacity="0.1" />
<rect x="520" y="150" width="72" height="34" stroke="black" fill="red" fill-opacity="0.1" />
<rect x="592" y="150" width="72" height="34" stroke="black" fill="red" fill-opacity="0.1" />
<rect x="664" y="156" width="42" height="28" stroke="black" fill="red" fill-opacity="0.1" />
<rect x="706" y="160" width="22" height="24" stroke="black" fill="red" fill-opacity="0.1" />
<rect x="728" y="160" width="20" height="24" stroke="black" fill="red" fill-opacity="0.1" />
<rect x="748" y="160" width="19" height="24" stroke="black" fill="red" fill-opacity="0.1" />
<rect x="0" y="122" width="273" height="22" stroke="black" fill="red" fill-opacity="0.1" />
<rect x="273" y="122" width="200" height="22" stroke="black" fill="red" fill-opacity="0.1" />
<rect x="473" y="122" width="200" height="22" stroke="black" fill="red" fill-opacity="0.1" />
<rect x="673" y="122" width="190" height="22" stroke="black" fill="red" fill-opacity="0.1" />
<rect x="767" y="162" width="175" height="22" stroke="black" fill="red" fill-opacity="0.1" />
<rect x="850" y="325" width="174" height="22" stroke="black" fill="red" fill-opacity="0.1" />
<rect x="754" y="372" width="172" height="22" stroke="black" fill="red" fill-opacity="0.1" />
<rect x="847" y="490" width="167" height="22" stroke="black" fill="red" fill-opacity="0.1" />
<rect x="863" y="122" width="155" height="22" stroke="black" fill="red" fill-opacity="0.1" />
<rect x="900" y="202" width="112" height="22" stroke="black" fill="red" fill-opacity="0.1" />
<rect x="900" y="242" width="112" height="22" stroke="black" fill="red" fill-opacity="0.1" />
<rect x="942" y="163" width="13" height="21" stroke="black" fill="red" fill-opacity="0.1" />
<rect x="955" y="163" width="13" height="21" stroke="black" fill="red" fill-opacity="0.1" />
<rect x="968" y="163" width="13" height="21" stroke="black" fill="red" fill-opacity="0.1" />
<rect x="981" y="163" width="13" height="21" stroke="black" fill="red" fill-opacity="0.1" />
<rect x="994" y="163" width="13" height="21" stroke="black" fill="red" fill-opacity="0.1" />
<rect x="1007" y="163" width="12" height="21" stroke="black" fill="red" fill-opacity="0.1" />
<rect x="1012" y="203" width="12" height="21" stroke="black" fill="red" fill-opacity="0.1" />
<rect x="1012" y="243" width="12" height="21" stroke="black" fill="red" fill-opacity="0.1" />
<rect x="938" y="283" width="12" height="21" stroke="black" fill="red" fill-opacity="0.1" />
<rect x="950" y="283" width="8" height="21" stroke="black" fill="red" fill-opacity="0.1" />
<rect x="958" y="284" width="60" height="20" stroke="black" fill="red" fill-opacity="0.1" />
<rect x="0" y="103" width="216" height="19" stroke="black" fill="red" fill-opacity="0.1" />
<rect x="216" y="104" width="160" height="18" stroke="black" fill="red" fill-opacity="0.1" />
<rect x="376" y="104" width="86" height="18" stroke="black" fill="red" fill-opacity="0.1" />
<rect x="462" y="104" width="86" height="18" stroke="black" fill="red" fill-opacity="0.1" />
<rect x="548" y="106" width="279" height="16" stroke="black" fill="red" fill-opacity="0.1" />
<rect x="827" y="106" width="140" height="16" stroke="black" fill="red" fill-opacity="0.1" />
<rect x="0" y="87" width="140" height="16" stroke="black" fill="red" fill-opacity="0.1" />
<rect x="140" y="87" width="102" height="16" stroke="black" fill="red" fill-opacity="0.1" />
<rect x="242" y="87" width="102" height="16" stroke="black" fill="red" fill-opacity="0.1" />
<rect x="441" y="87" width="97" height="16" stroke="black" fill="red" fill-opacity="0.1" />
<rect x="538" y="87" width="97" height="16" stroke="black" fill="red" fill-opacity="0.1" />
<rect x="635" y="87" width="97" height="16" stroke="black" fill="red" fill-opacity="0.1" />
<rect x="732" y="87" width="97" height="16" stroke="black" fill="red" fill-opacity="0.1" />
<rect x="829" y="87" width="97" height="16" stroke="black" fill="red" fill-opacity="0.1" />
<rect x="926" y="87" width="97" height="16" stroke="black" fill="red" fill-opacity="0.1" />
<rect x="926" y="378" width="97" height="16" stroke="black" fill="red" fill-opacity="0.1" />
<rect x="0" y="71" width="97" height="16" stroke="black" fill="red" fill-opacity="0.1" />
<rect x="97" y="71" width="97" height="16" stroke="black" fill="red" fill-opacity="0.1" />
<rect x="194" y="71" width="97" height="16" stroke="black" fill="red" fill-opacity="0.1" />
<rect x="291" y="71" width="97" height="16" stroke="black" fill="red" fill-opacity="0.1" />
<rect x="388" y="71" width="97" height="16" stroke="black" fill="red" fill-opacity="0.1" />
<rect x="485" y="74" width="9" height="13" stroke="black" fill="red" fill-opacity="0.1" />
<rect x="494" y="74" width="8" height="13" stroke="black" fill="red" fill-opacity="0.1" />
<rect x="502" y="74" width="8" height="13" stroke="black" fill="red" fill-opacity="0.1" />
<rect x="510" y="74" width="8" height="13" stroke="black" fill="red" fill-opacity="0.1" />
<rect x="518" y="74" width="8" height="13" stroke="black" fill="red" fill-opacity="0.1" />
<rect x="526" y="74" width="8" height="13" stroke="black" fill="red" fill-opacity="0.1" />
<rect x="534" y="74" width="8" height="13" stroke="black" fill="red" fill-opacity="0.1" />
<rect x="542" y="74" width="8" height="13" stroke="black" fill="red" fill-opacity="0.1" />
<rect x="550" y="74" width="7" height="13" stroke="black" fill="red" fill-opacity="0.1" />
<rect x="557" y="74" width="6" height="13" stroke="black" fill="red" fill-opacity="0.1" />
<rect x="563" y="75" width="30" height="12" stroke="black" fill="red" fill-opacity="0.1" />
</svg>