<?xml version="1.0" encoding="UTF-8"?>
<svg xmlns="http://www.w3.org/2000/svg" xmlns:xlink="http://www.w3.org/1999/xlink"
     width="4096" height="2048" viewBox="0 0 4096 2048">
<defs>
</defs>
<rect x="0" y="1544" width="544" height="504" stroke="black" fill="red" fill-opacity="0.1" id="0">
<title>sprite_789</title>
</rect>
<rect x="544" y="1968" width="1604" height="80" stroke="black" fill="red" fill-opacity="0.1" id="1">
<title>sprite_790</title>
</rect>
<rect x="2148" y="1968" width="1376" height="80" stroke="black" fill="red" fill-opacity="0.1" id="2">
<title>sprite_791</title>
</rect>
<rect x="0" y="1464" width="1376" height="80" stroke="black" fill="red" fill-opacity="0.1" id="3">
<title>sprite_792</title>
</rect>
<rect x="1376" y="1464" width="1376" height="80" stroke="black" fill="red" fill-opacity="0.1" id="4">
<title>sprite_793</title>
</rect>
<rect x="0" y="1384" width="1376" height="80" stroke="black" fill="red" fill-opacity="0.1" id="5">
<title>sprite_794</title>
</rect>
<rect x="1376" y="1384" width="1376" height="80" stroke="black" fill="red" fill-opacity="0.1" id="6">
<title>sprite_795</title>
</rect>
<rect x="0" y="1304" width="1376" height="80" stroke="black" fill="red" fill-opacity="0.1" id="7">
<title>sprite_796</title>
</rect>
<rect x="1376" y="1304" width="1376" height="80" stroke="black" fill="red" fill-opacity="0.1" id="8">
<title>sprite_797</title>
</rect>
<rect x="0" y="1224" width="1376" height="80" stroke="black" fill="red" fill-opacity="0.1" id="9">
<title>sprite_798</title>
</rect>
<rect x="1376" y="1224" width="1376" height="80" stroke="black" fill="red" fill-opacity="0.1" id="10">
<title>sprite_799</title>
</rect>
<rect x="0" y="1144" width="1372" height="80" stroke="black" fill="red" fill-opacity="0.1" id="11">
<title>sprite_800</title>
</rect>
<rect x="1372" y="1144" width="1372" height="80" stroke="black" fill="red" fill-opacity="0.1" id="12">
<title>sprite_801</title>
</rect>
<rect x="0" y="1064" width="1372" height="80" stroke="black" fill="red" fill-opacity="0.1" id="13">
<title>sprite_802</title>
</rect>
<rect x="1372" y="1064" width="1372" height="80" stroke="black" fill="red" fill-opacity="0.1" id="14">
<title>sprite_803</title>
</rect>
<rect x="0" y="984" width="1372" height="80" stroke="black" fill="red" fill-opacity="0.1" id="15">
<title>sprite_804</title>
</rect>
<rect x="1372" y="984" width="1372" height="80" stroke="black" fill="red" fill-opacity="0.1" id="16">
<title>sprite_805</title>
</rect>
<rect x="0" y="904" width="1372" height="80" stroke="black" fill="red" fill-opacity="0.1" id="17">
<title>sprite_806</title>
</rect>
<rect x="1372" y="904" width="1372" height="80" stroke="black" fill="red" fill-opacity="0.1" id="18">
<title>sprite_807</title>
</rect>
<rect x="0" y="824" width="1372" height="80" stroke="black" fill="red" fill-opacity="0.1" id="19">
<title>sprite_808</title>
</rect>
<rect x="1372" y="824" width="1372" height="80" stroke="black" fill="red" fill-opacity="0.1" id="20">
<title>sprite_809</title>
</rect>
<rect x="0" y="744" width="1372" height="80" stroke="black" fill="red" fill-opacity="0.1" id="21">
<title>sprite_810</title>
</rect>
<rect x="1372" y="744" width="1372" height="80" stroke="black" fill="red" fill-opacity="0.1" id="22">
<title>sprite_811</title>
</rect>
<rect x="0" y="664" width="1372" height="80" stroke="black" fill="red" fill-opacity="0.1" id="23">
<title>sprite_812</title>
</rect>
<rect x="1372" y="664" width="1372" height="80" stroke="black" fill="red" fill-opacity="0.1" id="24">
<title>sprite_813</title>
</rect>
<rect x="0" y="584" width="1372" height="80" stroke="black" fill="red" fill-opacity="0.1" id="25">
<title>sprite_814</title>
</rect>
<rect x="1372" y="584" width="1372" height="80" stroke="black" fill="red" fill-opacity="0.1" id="26">
<title>sprite_815</title>
</rect>
<rect x="0" y="504" width="1372" height="80" stroke="black" fill="red" fill-opacity="0.1" id="27">
<title>sprite_816</title>
</rect>
<rect x="1372" y="504" width="1372" height="80" stroke="black" fill="red" fill-opacity="0.1" id="28">
<title>sprite_817</title>
</rect>
<rect x="0" y="424" width="1372" height="80" stroke="black" fill="red" fill-opacity="0.1" id="29">
<title>sprite_818</title>
</rect>
<rect x="1372" y="424" width="1372" height="80" stroke="black" fill="red" fill-opacity="0.1" id="30">
<title>sprite_819</title>
</rect>
<rect x="0" y="344" width="1372" height="80" stroke="black" fill="red" fill-opacity="0.1" id="31">
<title>sprite_820</title>
</rect>
<rect x="1372" y="344" width="1372" height="80" stroke="black" fill="red" fill-opacity="0.1" id="32">
<title>sprite_821</title>
</rect>
<rect x="0" y="264" width="1372" height="80" stroke="black" fill="red" fill-opacity="0.1" id="33">
<title>sprite_822</title>
</rect>
<rect x="1372" y="264" width="1372" height="80" stroke="black" fill="red" fill-opacity="0.1" id="34">
<title>sprite_823</title>
</rect>
<rect x="0" y="184" width="1372" height="80" stroke="black" fill="red" fill-opacity="0.1" id="35">
<title>sprite_824</title>
</rect>
<rect x="1372" y="184" width="1372" height="80" stroke="black" fill="red" fill-opacity="0.1" id="36">
<title>sprite_825</title>
</rect>
<rect x="0" y="104" width="1372" height="80" stroke="black" fill="red" fill-opacity="0.1" id="37">
<title>sprite_826</title>
</rect>
<rect x="1372" y="104" width="1372" height="80" stroke="black" fill="red" fill-opacity="0.1" id="38">
<title>sprite_827</title>
</rect>
<rect x="0" y="24" width="1372" height="80" stroke="black" fill="red" fill-opacity="0.1" id="39">
<title>sprite_828</title>
</rect>
<rect x="1372" y="24" width="640" height="80" stroke="black" fill="red" fill-opacity="0.1" id="40">
<title>sprite_829</title>
</rect>
<rect x="2012" y="24" width="640" height="80" stroke="black" fill="red" fill-opacity="0.1" id="41">
<title>sprite_830</title>
</rect>
<rect x="2652" y="100" width="12" height="4" stroke="black" fill="red" fill-opacity="0.1" id="42">
<title>sprite_831</title>
</rect>
</svg>