<?xml version="1.0" encoding="UTF-8"?>
<svg xmlns="http://www.w3.org/2000/svg" xmlns:xlink="http://www.w3.org/1999/xlink"
     width="4096" height="2048" viewBox="0 0 4096 2048">
<defs>
</defs>
<rect x="0" y="1576" width="952" height="472" stroke="black" fill="red" fill-opacity="0.1" id="0">
<title>sprite_1474</title>
</rect>
<rect x="952" y="1788" width="872" height="260" stroke="black" fill="red" fill-opacity="0.1" id="1">
<title>sprite_1475</title>
</rect>
<rect x="1824" y="1860" width="1564" height="188" stroke="black" fill="red" fill-opacity="0.1" id="2">
<title>sprite_1476</title>
</rect>
<rect x="0" y="1388" width="1564" height="188" stroke="black" fill="red" fill-opacity="0.1" id="3">
<title>sprite_1477</title>
</rect>
<rect x="1564" y="1404" width="1452" height="172" stroke="black" fill="red" fill-opacity="0.1" id="4">
<title>sprite_1478</title>
</rect>
<rect x="0" y="1216" width="1448" height="172" stroke="black" fill="red" fill-opacity="0.1" id="5">
<title>sprite_1479</title>
</rect>
<rect x="1448" y="1228" width="1952" height="160" stroke="black" fill="red" fill-opacity="0.1" id="6">
<title>sprite_1480</title>
</rect>
<rect x="0" y="1056" width="1952" height="160" stroke="black" fill="red" fill-opacity="0.1" id="7">
<title>sprite_1481</title>
</rect>
<rect x="1952" y="1056" width="1800" height="160" stroke="black" fill="red" fill-opacity="0.1" id="8">
<title>sprite_1482</title>
</rect>
<rect x="0" y="896" width="1800" height="160" stroke="black" fill="red" fill-opacity="0.1" id="9">
<title>sprite_1483</title>
</rect>
<rect x="1800" y="896" width="1800" height="160" stroke="black" fill="red" fill-opacity="0.1" id="10">
<title>sprite_1484</title>
</rect>
<rect x="0" y="736" width="1800" height="160" stroke="black" fill="red" fill-opacity="0.1" id="11">
<title>sprite_1485</title>
</rect>
<rect x="0" y="576" width="1328" height="160" stroke="black" fill="red" fill-opacity="0.1" id="12">
<title>sprite_1486</title>
</rect>
<rect x="1328" y="600" width="376" height="136" stroke="black" fill="red" fill-opacity="0.1" id="13">
<title>sprite_1487</title>
</rect>
<rect x="1704" y="600" width="376" height="136" stroke="black" fill="red" fill-opacity="0.1" id="14">
<title>sprite_1488</title>
</rect>
<rect x="2080" y="600" width="288" height="136" stroke="black" fill="red" fill-opacity="0.1" id="15">
<title>sprite_1489</title>
</rect>
<rect x="2368" y="600" width="288" height="136" stroke="black" fill="red" fill-opacity="0.1" id="16">
<title>sprite_1490</title>
</rect>
<rect x="2656" y="624" width="168" height="112" stroke="black" fill="red" fill-opacity="0.1" id="17">
<title>sprite_1491</title>
</rect>
<rect x="2824" y="640" width="88" height="96" stroke="black" fill="red" fill-opacity="0.1" id="18">
<title>sprite_1492</title>
</rect>
<rect x="2912" y="640" width="80" height="96" stroke="black" fill="red" fill-opacity="0.1" id="19">
<title>sprite_1493</title>
</rect>
<rect x="2992" y="640" width="76" height="96" stroke="black" fill="red" fill-opacity="0.1" id="20">
<title>sprite_1494</title>
</rect>
<rect x="0" y="488" width="1092" height="88" stroke="black" fill="red" fill-opacity="0.1" id="21">
<title>sprite_1495</title>
</rect>
<rect x="1092" y="488" width="800" height="88" stroke="black" fill="red" fill-opacity="0.1" id="22">
<title>sprite_1496</title>
</rect>
<rect x="1892" y="488" width="800" height="88" stroke="black" fill="red" fill-opacity="0.1" id="23">
<title>sprite_1497</title>
</rect>
<rect x="2692" y="488" width="760" height="88" stroke="black" fill="red" fill-opacity="0.1" id="24">
<title>sprite_1498</title>
</rect>
<rect x="3068" y="648" width="700" height="88" stroke="black" fill="red" fill-opacity="0.1" id="25">
<title>sprite_1499</title>
</rect>
<rect x="3400" y="1300" width="696" height="88" stroke="black" fill="red" fill-opacity="0.1" id="26">
<title>sprite_1500</title>
</rect>
<rect x="3016" y="1488" width="688" height="88" stroke="black" fill="red" fill-opacity="0.1" id="27">
<title>sprite_1501</title>
</rect>
<rect x="3388" y="1960" width="668" height="88" stroke="black" fill="red" fill-opacity="0.1" id="28">
<title>sprite_1502</title>
</rect>
<rect x="3452" y="488" width="620" height="88" stroke="black" fill="red" fill-opacity="0.1" id="29">
<title>sprite_1503</title>
</rect>
<rect x="3600" y="808" width="448" height="88" stroke="black" fill="red" fill-opacity="0.1" id="30">
<title>sprite_1504</title>
</rect>
<rect x="3600" y="968" width="448" height="88" stroke="black" fill="red" fill-opacity="0.1" id="31">
<title>sprite_1505</title>
</rect>
<rect x="3768" y="652" width="52" height="84" stroke="black" fill="red" fill-opacity="0.1" id="32">
<title>sprite_1506</title>
</rect>
<rect x="3820" y="652" width="52" height="84" stroke="black" fill="red" fill-opacity="0.1" id="33">
<title>sprite_1507</title>
</rect>
<rect x="3872" y="652" width="52" height="84" stroke="black" fill="red" fill-opacity="0.1" id="34">
<title>sprite_1508</title>
</rect>
<rect x="3924" y="652" width="52" height="84" stroke="black" fill="red" fill-opacity="0.1" id="35">
<title>sprite_1509</title>
</rect>
<rect x="3976" y="652" width="52" height="84" stroke="black" fill="red" fill-opacity="0.1" id="36">
<title>sprite_1510</title>
</rect>
<rect x="4028" y="652" width="48" height="84" stroke="black" fill="red" fill-opacity="0.1" id="37">
<title>sprite_1511</title>
</rect>
<rect x="4048" y="812" width="48" height="84" stroke="black" fill="red" fill-opacity="0.1" id="38">
<title>sprite_1512</title>
</rect>
<rect x="4048" y="972" width="48" height="84" stroke="black" fill="red" fill-opacity="0.1" id="39">
<title>sprite_1513</title>
</rect>
<rect x="3752" y="1132" width="48" height="84" stroke="black" fill="red" fill-opacity="0.1" id="40">
<title>sprite_1514</title>
</rect>
<rect x="3800" y="1132" width="32" height="84" stroke="black" fill="red" fill-opacity="0.1" id="41">
<title>sprite_1515</title>
</rect>
<rect x="3832" y="1136" width="240" height="80" stroke="black" fill="red" fill-opacity="0.1" id="42">
<title>sprite_1516</title>
</rect>
<rect x="0" y="412" width="864" height="76" stroke="black" fill="red" fill-opacity="0.1" id="43">
<title>sprite_1517</title>
</rect>
<rect x="864" y="416" width="640" height="72" stroke="black" fill="red" fill-opacity="0.1" id="44">
<title>sprite_1518</title>
</rect>
<rect x="1504" y="416" width="344" height="72" stroke="black" fill="red" fill-opacity="0.1" id="45">
<title>sprite_1519</title>
</rect>
<rect x="1848" y="416" width="344" height="72" stroke="black" fill="red" fill-opacity="0.1" id="46">
<title>sprite_1520</title>
</rect>
<rect x="2192" y="424" width="1116" height="64" stroke="black" fill="red" fill-opacity="0.1" id="47">
<title>sprite_1521</title>
</rect>
<rect x="3308" y="424" width="560" height="64" stroke="black" fill="red" fill-opacity="0.1" id="48">
<title>sprite_1522</title>
</rect>
<rect x="0" y="348" width="560" height="64" stroke="black" fill="red" fill-opacity="0.1" id="49">
<title>sprite_1523</title>
</rect>
<rect x="560" y="348" width="408" height="64" stroke="black" fill="red" fill-opacity="0.1" id="50">
<title>sprite_1524</title>
</rect>
<rect x="968" y="348" width="408" height="64" stroke="black" fill="red" fill-opacity="0.1" id="51">
<title>sprite_1525</title>
</rect>
<rect x="1764" y="348" width="388" height="64" stroke="black" fill="red" fill-opacity="0.1" id="52">
<title>sprite_1526</title>
</rect>
<rect x="2152" y="348" width="388" height="64" stroke="black" fill="red" fill-opacity="0.1" id="53">
<title>sprite_1527</title>
</rect>
<rect x="2540" y="348" width="388" height="64" stroke="black" fill="red" fill-opacity="0.1" id="54">
<title>sprite_1528</title>
</rect>
<rect x="2928" y="348" width="388" height="64" stroke="black" fill="red" fill-opacity="0.1" id="55">
<title>sprite_1529</title>
</rect>
<rect x="3316" y="348" width="388" height="64" stroke="black" fill="red" fill-opacity="0.1" id="56">
<title>sprite_1530</title>
</rect>
<rect x="3704" y="348" width="388" height="64" stroke="black" fill="red" fill-opacity="0.1" id="57">
<title>sprite_1531</title>
</rect>
<rect x="3704" y="1512" width="388" height="64" stroke="black" fill="red" fill-opacity="0.1" id="58">
<title>sprite_1532</title>
</rect>
<rect x="0" y="284" width="388" height="64" stroke="black" fill="red" fill-opacity="0.1" id="59">
<title>sprite_1533</title>
</rect>
<rect x="388" y="284" width="388" height="64" stroke="black" fill="red" fill-opacity="0.1" id="60">
<title>sprite_1534</title>
</rect>
<rect x="776" y="284" width="388" height="64" stroke="black" fill="red" fill-opacity="0.1" id="61">
<title>sprite_1535</title>
</rect>
<rect x="1164" y="284" width="388" height="64" stroke="black" fill="red" fill-opacity="0.1" id="62">
<title>sprite_1536</title>
</rect>
<rect x="1552" y="284" width="388" height="64" stroke="black" fill="red" fill-opacity="0.1" id="63">
<title>sprite_1537</title>
</rect>
<rect x="1940" y="296" width="36" height="52" stroke="black" fill="red" fill-opacity="0.1" id="64">
<title>sprite_1538</title>
</rect>
<rect x="1976" y="296" width="32" height="52" stroke="black" fill="red" fill-opacity="0.1" id="65">
<title>sprite_1539</title>
</rect>
<rect x="2008" y="296" width="32" height="52" stroke="black" fill="red" fill-opacity="0.1" id="66">
<title>sprite_1540</title>
</rect>
<rect x="2040" y="296" width="32" height="52" stroke="black" fill="red" fill-opacity="0.1" id="67">
<title>sprite_1541</title>
</rect>
<rect x="2072" y="296" width="32" height="52" stroke="black" fill="red" fill-opacity="0.1" id="68">
<title>sprite_1542</title>
</rect>
<rect x="2104" y="296" width="32" height="52" stroke="black" fill="red" fill-opacity="0.1" id="69">
<title>sprite_1543</title>
</rect>
<rect x="2136" y="296" width="32" height="52" stroke="black" fill="red" fill-opacity="0.1" id="70">
<title>sprite_1544</title>
</rect>
<rect x="2168" y="296" width="32" height="52" stroke="black" fill="red" fill-opacity="0.1" id="71">
<title>sprite_1545</title>
</rect>
<rect x="2200" y="296" width="28" height="52" stroke="black" fill="red" fill-opacity="0.1" id="72">
<title>sprite_1546</title>
</rect>
<rect x="2228" y="296" width="24" height="52" stroke="black" fill="red" fill-opacity="0.1" id="73">
<title>sprite_1547</title>
</rect>
<rect x="2252" y="300" width="120" height="48" stroke="black" fill="red" fill-opacity="0.1" id="74">
<title>sprite_1548</title>
</rect>
</svg>