<?xml version="1.0" encoding="UTF-8"?>
<svg xmlns="http://www.w3.org/2000/svg" xmlns:xlink="http://www.w3.org/1999/xlink"
     width="2048" height="1024" viewBox="0 0 2048 1024">
<defs>
</defs>
<rect x="0" y="936" width="980" height="88" stroke="black" fill="red" fill-opacity="0.1" id="0">
<title>sprite_344</title>
</rect>
<rect x="980" y="936" width="980" height="88" stroke="black" fill="red" fill-opacity="0.1" id="1">
<title>sprite_345</title>
</rect>
<rect x="0" y="848" width="980" height="88" stroke="black" fill="red" fill-opacity="0.1" id="2">
<title>sprite_346</title>
</rect>
<rect x="980" y="848" width="980" height="88" stroke="black" fill="red" fill-opacity="0.1" id="3">
<title>sprite_347</title>
</rect>
<rect x="0" y="760" width="980" height="88" stroke="black" fill="red" fill-opacity="0.1" id="4">
<title>sprite_348</title>
</rect>
<rect x="980" y="760" width="980" height="88" stroke="black" fill="red" fill-opacity="0.1" id="5">
<title>sprite_349</title>
</rect>
<rect x="0" y="672" width="980" height="88" stroke="black" fill="red" fill-opacity="0.1" id="6">
<title>sprite_350</title>
</rect>
<rect x="980" y="672" width="980" height="88" stroke="black" fill="red" fill-opacity="0.1" id="7">
<title>sprite_351</title>
</rect>
<rect x="0" y="584" width="980" height="88" stroke="black" fill="red" fill-opacity="0.1" id="8">
<title>sprite_352</title>
</rect>
<rect x="980" y="584" width="980" height="88" stroke="black" fill="red" fill-opacity="0.1" id="9">
<title>sprite_353</title>
</rect>
<rect x="0" y="496" width="980" height="88" stroke="black" fill="red" fill-opacity="0.1" id="10">
<title>sprite_354</title>
</rect>
<rect x="980" y="496" width="980" height="88" stroke="black" fill="red" fill-opacity="0.1" id="11">
<title>sprite_355</title>
</rect>
<rect x="0" y="408" width="980" height="88" stroke="black" fill="red" fill-opacity="0.1" id="12">
<title>sprite_356</title>
</rect>
<rect x="980" y="408" width="980" height="88" stroke="black" fill="red" fill-opacity="0.1" id="13">
<title>sprite_357</title>
</rect>
<rect x="0" y="320" width="980" height="88" stroke="black" fill="red" fill-opacity="0.1" id="14">
<title>sprite_358</title>
</rect>
</svg>