<?xml version="1.0" encoding="UTF-8"?>
<svg xmlns="http://www.w3.org/2000/svg" xmlns:xlink="http://www.w3.org/1999/xlink"
     width="1024" height="2048" viewBox="0 0 1024 2048">
<defs>
</defs>
<rect x="0" y="1972" width="960" height="76" stroke="black" fill="red" fill-opacity="0.1" id="0">
<title>sprite_426</title>
</rect>
<rect x="0" y="1896" width="960" height="76" stroke="black" fill="red" fill-opacity="0.1" id="1">
<title>sprite_427</title>
</rect>
<rect x="0" y="1820" width="960" height="76" stroke="black" fill="red" fill-opacity="0.1" id="2">
<title>sprite_428</title>
</rect>
<rect x="0" y="1744" width="960" height="76" stroke="black" fill="red" fill-opacity="0.1" id="3">
<title>sprite_429</title>
</rect>
<rect x="0" y="1668" width="960" height="76" stroke="black" fill="red" fill-opacity="0.1" id="4">
<title>sprite_430</title>
</rect>
<rect x="0" y="1592" width="960" height="76" stroke="black" fill="red" fill-opacity="0.1" id="5">
<title>sprite_431</title>
</rect>
<rect x="0" y="1516" width="960" height="76" stroke="black" fill="red" fill-opacity="0.1" id="6">
<title>sprite_432</title>
</rect>
<rect x="0" y="1440" width="960" height="76" stroke="black" fill="red" fill-opacity="0.1" id="7">
<title>sprite_433</title>
</rect>
<rect x="0" y="1364" width="960" height="76" stroke="black" fill="red" fill-opacity="0.1" id="8">
<title>sprite_434</title>
</rect>
<rect x="0" y="1288" width="960" height="76" stroke="black" fill="red" fill-opacity="0.1" id="9">
<title>sprite_435</title>
</rect>
<rect x="0" y="1212" width="960" height="76" stroke="black" fill="red" fill-opacity="0.1" id="10">
<title>sprite_436</title>
</rect>
<rect x="0" y="1136" width="960" height="76" stroke="black" fill="red" fill-opacity="0.1" id="11">
<title>sprite_437</title>
</rect>
<rect x="0" y="1060" width="960" height="76" stroke="black" fill="red" fill-opacity="0.1" id="12">
<title>sprite_438</title>
</rect>
<rect x="0" y="984" width="960" height="76" stroke="black" fill="red" fill-opacity="0.1" id="13">
<title>sprite_439</title>
</rect>
<rect x="0" y="908" width="960" height="76" stroke="black" fill="red" fill-opacity="0.1" id="14">
<title>sprite_440</title>
</rect>
<rect x="0" y="832" width="960" height="76" stroke="black" fill="red" fill-opacity="0.1" id="15">
<title>sprite_441</title>
</rect>
<rect x="0" y="756" width="960" height="76" stroke="black" fill="red" fill-opacity="0.1" id="16">
<title>sprite_442</title>
</rect>
<rect x="0" y="680" width="960" height="76" stroke="black" fill="red" fill-opacity="0.1" id="17">
<title>sprite_443</title>
</rect>
<rect x="0" y="604" width="960" height="76" stroke="black" fill="red" fill-opacity="0.1" id="18">
<title>sprite_444</title>
</rect>
<rect x="0" y="528" width="960" height="76" stroke="black" fill="red" fill-opacity="0.1" id="19">
<title>sprite_445</title>
</rect>
<rect x="0" y="452" width="960" height="76" stroke="black" fill="red" fill-opacity="0.1" id="20">
<title>sprite_446</title>
</rect>
<rect x="0" y="376" width="960" height="76" stroke="black" fill="red" fill-opacity="0.1" id="21">
<title>sprite_447</title>
</rect>
<rect x="0" y="300" width="960" height="76" stroke="black" fill="red" fill-opacity="0.1" id="22">
<title>sprite_448</title>
</rect>
<rect x="0" y="224" width="960" height="76" stroke="black" fill="red" fill-opacity="0.1" id="23">
<title>sprite_449</title>
</rect>
</svg>