<?xml version="1.0" encoding="UTF-8"?>
<svg xmlns="http://www.w3.org/2000/svg" xmlns:xlink="http://www.w3.org/1999/xlink"
     width="512" height="512" viewBox="0 0 512 512">
<defs>
</defs>
<rect x="0" y="488" width="350" height="24" stroke="black" fill="red" fill-opacity="0.1" />
<rect x="0" y="464" width="350" height="24" stroke="black" fill="red" fill-opacity="0.1" />
<rect x="0" y="440" width="350" height="24" stroke="black" fill="red" fill-opacity="0.1" />
<rect x="0" y="416" width="350" height="24" stroke="black" fill="red" fill-opacity="0.1" />
<rect x="0" y="392" width="350" height="24" stroke="black" fill="red" fill-opacity="0.1" />
<rect x="0" y="368" width="350" height="24" stroke="black" fill="red" fill-opacity="0.1" />
<rect x="0" y="344" width="350" height="24" stroke="black" fill="red" fill-opacity="0.1" />
<rect x="0" y="320" width="350" height="24" stroke="black" fill="red" fill-opacity="0.1" />
<rect x="0" y="296" width="350" height="24" stroke="black" fill="red" fill-opacity="0.1" />
<rect x="0" y="272" width="350" height="24" stroke="black" fill="red" fill-opacity="0.1" />
<rect x="0" y="248" width="350" height="24" stroke="black" fill="red" fill-opacity="0.1" />
<rect x="0" y="224" width="350" height="24" stroke="black" fill="red" fill-opacity="0.1" />
<rect x="0" y="200" width="350" height="24" stroke="black" fill="red" fill-opacity="0.1" />
<rect x="0" y="176" width="350" height="24" stroke="black" fill="red" fill-opacity="0.1" />
<rect x="0" y="152" width="350" height="24" stroke="black" fill="red" fill-opacity="0.1" />
<rect x="0" y="128" width="350" height="24" stroke="black" fill="red" fill-opacity="0.1" />
<rect x="0" y="104" width="350" height="24" stroke="black" fill="red" fill-opacity="0.1" />
<rect x="0" y="80" width="350" height="24" stroke="black" fill="red" fill-opacity="0.1" />
<rect x="0" y="56" width="350" height="24" stroke="black" fill="red" fill-opacity="0.1" />
<rect x="0" y="32" width="350" height="24" stroke="black" fill="red" fill-opacity="0.1" />
<rect x="0" y="8" width="350" height="24" stroke="black" fill="red" fill-opacity="0.1" />
</svg>