<?xml version="1.0" encoding="UTF-8"?>
<svg xmlns="http://www.w3.org/2000/svg" xmlns:xlink="http://www.w3.org/1999/xlink"
     width="512" height="512" viewBox="0 0 512 512">
<defs>
</defs>
<rect x="0" y="420" width="172" height="92" stroke="black" fill="red" fill-opacity="0.1" id="0">
<title>sprite_932</title>
</rect>
<rect x="172" y="420" width="172" height="92" stroke="black" fill="red" fill-opacity="0.1" id="1">
<title>sprite_933</title>
</rect>
<rect x="0" y="343" width="215" height="77" stroke="black" fill="red" fill-opacity="0.1" id="2">
<title>sprite_934</title>
</rect>
<rect x="215" y="343" width="215" height="77" stroke="black" fill="red" fill-opacity="0.1" id="3">
<title>sprite_935</title>
</rect>
<rect x="430" y="354" width="72" height="66" stroke="black" fill="red" fill-opacity="0.1" id="4">
<title>sprite_936</title>
</rect>
<rect x="344" y="453" width="44" height="59" stroke="black" fill="red" fill-opacity="0.1" id="5">
<title>sprite_937</title>
</rect>
<rect x="388" y="456" width="55" height="56" stroke="black" fill="red" fill-opacity="0.1" id="6">
<title>sprite_938</title>
</rect>
<rect x="0" y="289" width="211" height="54" stroke="black" fill="red" fill-opacity="0.1" id="7">
<title>sprite_939</title>
</rect>
<rect x="211" y="289" width="211" height="54" stroke="black" fill="red" fill-opacity="0.1" id="8">
<title>sprite_940</title>
</rect>
<rect x="422" y="291" width="61" height="52" stroke="black" fill="red" fill-opacity="0.1" id="9">
<title>sprite_941</title>
</rect>
<rect x="443" y="460" width="38" height="52" stroke="black" fill="red" fill-opacity="0.1" id="10">
<title>sprite_942</title>
</rect>
<rect x="0" y="237" width="38" height="52" stroke="black" fill="red" fill-opacity="0.1" id="11">
<title>sprite_943</title>
</rect>
<rect x="38" y="237" width="38" height="52" stroke="black" fill="red" fill-opacity="0.1" id="12">
<title>sprite_944</title>
</rect>
<rect x="76" y="237" width="38" height="52" stroke="black" fill="red" fill-opacity="0.1" id="13">
<title>sprite_945</title>
</rect>
<rect x="114" y="237" width="38" height="52" stroke="black" fill="red" fill-opacity="0.1" id="14">
<title>sprite_946</title>
</rect>
<rect x="152" y="237" width="38" height="52" stroke="black" fill="red" fill-opacity="0.1" id="15">
<title>sprite_947</title>
</rect>
<rect x="190" y="238" width="155" height="51" stroke="black" fill="red" fill-opacity="0.1" id="16">
<title>sprite_948</title>
</rect>
<rect x="345" y="238" width="51" height="51" stroke="black" fill="red" fill-opacity="0.1" id="17">
<title>sprite_949</title>
</rect>
<rect x="396" y="238" width="51" height="51" stroke="black" fill="red" fill-opacity="0.1" id="18">
<title>sprite_950</title>
</rect>
<rect x="447" y="238" width="51" height="51" stroke="black" fill="red" fill-opacity="0.1" id="19">
<title>sprite_951</title>
</rect>
<rect x="0" y="186" width="51" height="51" stroke="black" fill="red" fill-opacity="0.1" id="20">
<title>sprite_952</title>
</rect>
<rect x="51" y="186" width="51" height="51" stroke="black" fill="red" fill-opacity="0.1" id="21">
<title>sprite_953</title>
</rect>
<rect x="102" y="186" width="51" height="51" stroke="black" fill="red" fill-opacity="0.1" id="22">
<title>sprite_954</title>
</rect>
<rect x="153" y="186" width="51" height="51" stroke="black" fill="red" fill-opacity="0.1" id="23">
<title>sprite_955</title>
</rect>
<rect x="204" y="186" width="51" height="51" stroke="black" fill="red" fill-opacity="0.1" id="24">
<title>sprite_956</title>
</rect>
<rect x="255" y="186" width="51" height="51" stroke="black" fill="red" fill-opacity="0.1" id="25">
<title>sprite_957</title>
</rect>
<rect x="306" y="186" width="51" height="51" stroke="black" fill="red" fill-opacity="0.1" id="26">
<title>sprite_958</title>
</rect>
<rect x="357" y="186" width="51" height="51" stroke="black" fill="red" fill-opacity="0.1" id="27">
<title>sprite_959</title>
</rect>
<rect x="408" y="186" width="51" height="51" stroke="black" fill="red" fill-opacity="0.1" id="28">
<title>sprite_960</title>
</rect>
<rect x="459" y="186" width="51" height="51" stroke="black" fill="red" fill-opacity="0.1" id="29">
<title>sprite_961</title>
</rect>
<rect x="0" y="135" width="51" height="51" stroke="black" fill="red" fill-opacity="0.1" id="30">
<title>sprite_962</title>
</rect>
<rect x="51" y="135" width="51" height="51" stroke="black" fill="red" fill-opacity="0.1" id="31">
<title>sprite_963</title>
</rect>
<rect x="102" y="135" width="51" height="51" stroke="black" fill="red" fill-opacity="0.1" id="32">
<title>sprite_964</title>
</rect>
<rect x="153" y="140" width="109" height="46" stroke="black" fill="red" fill-opacity="0.1" id="33">
<title>sprite_965</title>
</rect>
<rect x="262" y="143" width="198" height="43" stroke="black" fill="red" fill-opacity="0.1" id="34">
<title>sprite_966</title>
</rect>
<rect x="0" y="93" width="223" height="42" stroke="black" fill="red" fill-opacity="0.1" id="35">
<title>sprite_967</title>
</rect>
<rect x="223" y="93" width="220" height="42" stroke="black" fill="red" fill-opacity="0.1" id="36">
<title>sprite_968</title>
</rect>
<rect x="0" y="51" width="145" height="42" stroke="black" fill="red" fill-opacity="0.1" id="37">
<title>sprite_969</title>
</rect>
<rect x="145" y="51" width="115" height="42" stroke="black" fill="red" fill-opacity="0.1" id="38">
<title>sprite_970</title>
</rect>
<rect x="0" y="10" width="259" height="41" stroke="black" fill="red" fill-opacity="0.1" id="39">
<title>sprite_971</title>
</rect>
<rect x="259" y="23" width="69" height="28" stroke="black" fill="red" fill-opacity="0.1" id="40">
<title>sprite_972</title>
</rect>
<rect x="328" y="27" width="17" height="24" stroke="black" fill="red" fill-opacity="0.1" id="41">
<title>sprite_973</title>
</rect>
<rect x="345" y="27" width="17" height="24" stroke="black" fill="red" fill-opacity="0.1" id="42">
<title>sprite_974</title>
</rect>
<rect x="362" y="27" width="17" height="24" stroke="black" fill="red" fill-opacity="0.1" id="43">
<title>sprite_975</title>
</rect>
<rect x="379" y="27" width="17" height="24" stroke="black" fill="red" fill-opacity="0.1" id="44">
<title>sprite_976</title>
</rect>
<rect x="396" y="27" width="17" height="24" stroke="black" fill="red" fill-opacity="0.1" id="45">
<title>sprite_977</title>
</rect>
<rect x="413" y="27" width="17" height="24" stroke="black" fill="red" fill-opacity="0.1" id="46">
<title>sprite_978</title>
</rect>
<rect x="430" y="27" width="17" height="24" stroke="black" fill="red" fill-opacity="0.1" id="47">
<title>sprite_979</title>
</rect>
<rect x="447" y="27" width="17" height="24" stroke="black" fill="red" fill-opacity="0.1" id="48">
<title>sprite_980</title>
</rect>
<rect x="464" y="27" width="17" height="24" stroke="black" fill="red" fill-opacity="0.1" id="49">
<title>sprite_981</title>
</rect>
<rect x="481" y="27" width="17" height="24" stroke="black" fill="red" fill-opacity="0.1" id="50">
<title>sprite_982</title>
</rect>
<rect x="260" y="75" width="50" height="18" stroke="black" fill="red" fill-opacity="0.1" id="51">
<title>sprite_983</title>
</rect>
<rect x="498" y="45" width="6" height="6" stroke="black" fill="red" fill-opacity="0.1" id="52">
<title>sprite_984</title>
</rect>
</svg>