<?xml version="1.0" encoding="UTF-8"?>
<svg xmlns="http://www.w3.org/2000/svg" xmlns:xlink="http://www.w3.org/1999/xlink"
     width="512" height="512" viewBox="0 0 512 512">
<defs>
</defs>
<rect x="0" y="477" width="292" height="35" stroke="black" fill="red" fill-opacity="0.1" id="0">
<title>sprite_612</title>
</rect>
<rect x="0" y="449" width="268" height="28" stroke="black" fill="red" fill-opacity="0.1" id="1">
<title>sprite_613</title>
</rect>
<rect x="0" y="421" width="268" height="28" stroke="black" fill="red" fill-opacity="0.1" id="2">
<title>sprite_614</title>
</rect>
<rect x="0" y="393" width="268" height="28" stroke="black" fill="red" fill-opacity="0.1" id="3">
<title>sprite_615</title>
</rect>
<rect x="0" y="365" width="268" height="28" stroke="black" fill="red" fill-opacity="0.1" id="4">
<title>sprite_616</title>
</rect>
<rect x="0" y="337" width="268" height="28" stroke="black" fill="red" fill-opacity="0.1" id="5">
<title>sprite_617</title>
</rect>
<rect x="0" y="309" width="268" height="28" stroke="black" fill="red" fill-opacity="0.1" id="6">
<title>sprite_618</title>
</rect>
<rect x="0" y="281" width="268" height="28" stroke="black" fill="red" fill-opacity="0.1" id="7">
<title>sprite_619</title>
</rect>
<rect x="0" y="253" width="268" height="28" stroke="black" fill="red" fill-opacity="0.1" id="8">
<title>sprite_620</title>
</rect>
<rect x="0" y="225" width="268" height="28" stroke="black" fill="red" fill-opacity="0.1" id="9">
<title>sprite_621</title>
</rect>
<rect x="0" y="197" width="268" height="28" stroke="black" fill="red" fill-opacity="0.1" id="10">
<title>sprite_622</title>
</rect>
<rect x="0" y="169" width="268" height="28" stroke="black" fill="red" fill-opacity="0.1" id="11">
<title>sprite_623</title>
</rect>
<rect x="0" y="141" width="268" height="28" stroke="black" fill="red" fill-opacity="0.1" id="12">
<title>sprite_624</title>
</rect>
<rect x="0" y="113" width="268" height="28" stroke="black" fill="red" fill-opacity="0.1" id="13">
<title>sprite_625</title>
</rect>
<rect x="268" y="460" width="236" height="17" stroke="black" fill="red" fill-opacity="0.1" id="14">
<title>sprite_626</title>
</rect>
</svg>