<?xml version="1.0" encoding="UTF-8"?>
<svg xmlns="http://www.w3.org/2000/svg" xmlns:xlink="http://www.w3.org/1999/xlink"
     width="512" height="512" viewBox="0 0 512 512">
<defs>
</defs>
<rect x="0" y="496" width="179" height="16" stroke="black" fill="red" fill-opacity="0.1" />
<rect x="179" y="496" width="179" height="16" stroke="black" fill="red" fill-opacity="0.1" />
<rect x="0" y="480" width="179" height="16" stroke="black" fill="red" fill-opacity="0.1" />
<rect x="179" y="480" width="179" height="16" stroke="black" fill="red" fill-opacity="0.1" />
<rect x="0" y="464" width="179" height="16" stroke="black" fill="red" fill-opacity="0.1" />
<rect x="179" y="464" width="179" height="16" stroke="black" fill="red" fill-opacity="0.1" />
<rect x="0" y="448" width="179" height="16" stroke="black" fill="red" fill-opacity="0.1" />
<rect x="179" y="448" width="179" height="16" stroke="black" fill="red" fill-opacity="0.1" />
<rect x="0" y="432" width="179" height="16" stroke="black" fill="red" fill-opacity="0.1" />
<rect x="179" y="432" width="179" height="16" stroke="black" fill="red" fill-opacity="0.1" />
<rect x="0" y="416" width="179" height="16" stroke="black" fill="red" fill-opacity="0.1" />
<rect x="179" y="416" width="179" height="16" stroke="black" fill="red" fill-opacity="0.1" />
<rect x="0" y="400" width="179" height="16" stroke="black" fill="red" fill-opacity="0.1" />
<rect x="179" y="400" width="179" height="16" stroke="black" fill="red" fill-opacity="0.1" />
<rect x="0" y="384" width="179" height="16" stroke="black" fill="red" fill-opacity="0.1" />
<rect x="179" y="384" width="179" height="16" stroke="black" fill="red" fill-opacity="0.1" />
<rect x="0" y="368" width="179" height="16" stroke="black" fill="red" fill-opacity="0.1" />
<rect x="179" y="368" width="179" height="16" stroke="black" fill="red" fill-opacity="0.1" />
<rect x="0" y="352" width="179" height="16" stroke="black" fill="red" fill-opacity="0.1" />
<rect x="179" y="352" width="179" height="16" stroke="black" fill="red" fill-opacity="0.1" />
<rect x="0" y="336" width="179" height="16" stroke="black" fill="red" fill-opacity="0.1" />
<rect x="179" y="336" width="179" height="16" stroke="black" fill="red" fill-opacity="0.1" />
<rect x="0" y="320" width="179" height="16" stroke="black" fill="red" fill-opacity="0.1" />
<rect x="179" y="320" width="179" height="16" stroke="black" fill="red" fill-opacity="0.1" />
<rect x="0" y="304" width="179" height="16" stroke="black" fill="red" fill-opacity="0.1" />
<rect x="179" y="304" width="179" height="16" stroke="black" fill="red" fill-opacity="0.1" />
<rect x="0" y="288" width="179" height="16" stroke="black" fill="red" fill-opacity="0.1" />
<rect x="179" y="288" width="179" height="16" stroke="black" fill="red" fill-opacity="0.1" />
<rect x="0" y="272" width="179" height="16" stroke="black" fill="red" fill-opacity="0.1" />
<rect x="179" y="272" width="179" height="16" stroke="black" fill="red" fill-opacity="0.1" />
<rect x="0" y="256" width="179" height="16" stroke="black" fill="red" fill-opacity="0.1" />
<rect x="179" y="256" width="179" height="16" stroke="black" fill="red" fill-opacity="0.1" />
<rect x="0" y="240" width="179" height="16" stroke="black" fill="red" fill-opacity="0.1" />
<rect x="179" y="240" width="179" height="16" stroke="black" fill="red" fill-opacity="0.1" />
<rect x="0" y="224" width="179" height="16" stroke="black" fill="red" fill-opacity="0.1" />
<rect x="179" y="224" width="179" height="16" stroke="black" fill="red" fill-opacity="0.1" />
<rect x="0" y="208" width="179" height="16" stroke="black" fill="red" fill-opacity="0.1" />
<rect x="179" y="208" width="179" height="16" stroke="black" fill="red" fill-opacity="0.1" />
</svg>