<?xml version="1.0" encoding="UTF-8"?>
<svg xmlns="http://www.w3.org/2000/svg" xmlns:xlink="http://www.w3.org/1999/xlink"
     width="512" height="512" viewBox="0 0 512 512">
<defs>
</defs>
<rect x="0" y="290" width="187" height="222" stroke="black" fill="red" fill-opacity="0.1" id="0">
<title>sprite_310</title>
</rect>
<rect x="187" y="290" width="187" height="222" stroke="black" fill="red" fill-opacity="0.1" id="1">
<title>sprite_311</title>
</rect>
<rect x="0" y="68" width="187" height="222" stroke="black" fill="red" fill-opacity="0.1" id="2">
<title>sprite_312</title>
</rect>
<rect x="187" y="256" width="34" height="34" stroke="black" fill="red" fill-opacity="0.1" id="3">
<title>sprite_313</title>
</rect>
<rect x="221" y="260" width="37" height="30" stroke="black" fill="red" fill-opacity="0.1" id="4">
<title>sprite_314</title>
</rect>
<rect x="258" y="260" width="37" height="30" stroke="black" fill="red" fill-opacity="0.1" id="5">
<title>sprite_315</title>
</rect>
<rect x="295" y="260" width="37" height="30" stroke="black" fill="red" fill-opacity="0.1" id="6">
<title>sprite_316</title>
</rect>
<rect x="332" y="260" width="37" height="30" stroke="black" fill="red" fill-opacity="0.1" id="7">
<title>sprite_317</title>
</rect>
<rect x="369" y="260" width="37" height="30" stroke="black" fill="red" fill-opacity="0.1" id="8">
<title>sprite_318</title>
</rect>
<rect x="406" y="260" width="37" height="30" stroke="black" fill="red" fill-opacity="0.1" id="9">
<title>sprite_319</title>
</rect>
<rect x="443" y="260" width="37" height="30" stroke="black" fill="red" fill-opacity="0.1" id="10">
<title>sprite_320</title>
</rect>
<rect x="374" y="482" width="37" height="30" stroke="black" fill="red" fill-opacity="0.1" id="11">
<title>sprite_321</title>
</rect>
<rect x="411" y="482" width="37" height="30" stroke="black" fill="red" fill-opacity="0.1" id="12">
<title>sprite_322</title>
</rect>
<rect x="448" y="482" width="37" height="30" stroke="black" fill="red" fill-opacity="0.1" id="13">
<title>sprite_323</title>
</rect>
<rect x="0" y="38" width="37" height="30" stroke="black" fill="red" fill-opacity="0.1" id="14">
<title>sprite_324</title>
</rect>
<rect x="37" y="38" width="37" height="30" stroke="black" fill="red" fill-opacity="0.1" id="15">
<title>sprite_325</title>
</rect>
<rect x="74" y="38" width="37" height="30" stroke="black" fill="red" fill-opacity="0.1" id="16">
<title>sprite_326</title>
</rect>
<rect x="111" y="38" width="37" height="30" stroke="black" fill="red" fill-opacity="0.1" id="17">
<title>sprite_327</title>
</rect>
<rect x="148" y="38" width="37" height="30" stroke="black" fill="red" fill-opacity="0.1" id="18">
<title>sprite_328</title>
</rect>
<rect x="185" y="38" width="37" height="30" stroke="black" fill="red" fill-opacity="0.1" id="19">
<title>sprite_329</title>
</rect>
<rect x="222" y="44" width="22" height="24" stroke="black" fill="red" fill-opacity="0.1" id="20">
<title>sprite_330</title>
</rect>
<rect x="244" y="44" width="22" height="24" stroke="black" fill="red" fill-opacity="0.1" id="21">
<title>sprite_331</title>
</rect>
<rect x="266" y="44" width="22" height="24" stroke="black" fill="red" fill-opacity="0.1" id="22">
<title>sprite_332</title>
</rect>
<rect x="288" y="44" width="21" height="24" stroke="black" fill="red" fill-opacity="0.1" id="23">
<title>sprite_333</title>
</rect>
<rect x="309" y="44" width="21" height="24" stroke="black" fill="red" fill-opacity="0.1" id="24">
<title>sprite_334</title>
</rect>
<rect x="330" y="44" width="20" height="24" stroke="black" fill="red" fill-opacity="0.1" id="25">
<title>sprite_335</title>
</rect>
<rect x="350" y="44" width="18" height="24" stroke="black" fill="red" fill-opacity="0.1" id="26">
<title>sprite_336</title>
</rect>
<rect x="368" y="45" width="22" height="23" stroke="black" fill="red" fill-opacity="0.1" id="27">
<title>sprite_337</title>
</rect>
<rect x="390" y="45" width="22" height="23" stroke="black" fill="red" fill-opacity="0.1" id="28">
<title>sprite_338</title>
</rect>
<rect x="412" y="45" width="21" height="23" stroke="black" fill="red" fill-opacity="0.1" id="29">
<title>sprite_339</title>
</rect>
<rect x="433" y="45" width="14" height="23" stroke="black" fill="red" fill-opacity="0.1" id="30">
<title>sprite_340</title>
</rect>
<rect x="447" y="46" width="50" height="22" stroke="black" fill="red" fill-opacity="0.1" id="31">
<title>sprite_341</title>
</rect>
<rect x="0" y="17" width="56" height="21" stroke="black" fill="red" fill-opacity="0.1" id="32">
<title>sprite_342</title>
</rect>
<rect x="56" y="17" width="43" height="21" stroke="black" fill="red" fill-opacity="0.1" id="33">
<title>sprite_343</title>
</rect>
</svg>