<?xml version="1.0" encoding="UTF-8"?>
<svg xmlns="http://www.w3.org/2000/svg" xmlns:xlink="http://www.w3.org/1999/xlink"
     width="512" height="512" viewBox="0 0 512 512">
<defs>
</defs>
<rect x="0" y="290" width="187" height="222" stroke="black" fill="red" fill-opacity="0.1" />
<rect x="187" y="290" width="187" height="222" stroke="black" fill="red" fill-opacity="0.1" />
<rect x="0" y="68" width="187" height="222" stroke="black" fill="red" fill-opacity="0.1" />
<rect x="187" y="256" width="34" height="34" stroke="black" fill="red" fill-opacity="0.1" />
<rect x="221" y="260" width="37" height="30" stroke="black" fill="red" fill-opacity="0.1" />
<rect x="258" y="260" width="37" height="30" stroke="black" fill="red" fill-opacity="0.1" />
<rect x="295" y="260" width="37" height="30" stroke="black" fill="red" fill-opacity="0.1" />
<rect x="332" y="260" width="37" height="30" stroke="black" fill="red" fill-opacity="0.1" />
<rect x="369" y="260" width="37" height="30" stroke="black" fill="red" fill-opacity="0.1" />
<rect x="406" y="260" width="37" height="30" stroke="black" fill="red" fill-opacity="0.1" />
<rect x="443" y="260" width="37" height="30" stroke="black" fill="red" fill-opacity="0.1" />
<rect x="374" y="482" width="37" height="30" stroke="black" fill="red" fill-opacity="0.1" />
<rect x="411" y="482" width="37" height="30" stroke="black" fill="red" fill-opacity="0.1" />
<rect x="448" y="482" width="37" height="30" stroke="black" fill="red" fill-opacity="0.1" />
<rect x="0" y="38" width="37" height="30" stroke="black" fill="red" fill-opacity="0.1" />
<rect x="37" y="38" width="37" height="30" stroke="black" fill="red" fill-opacity="0.1" />
<rect x="74" y="38" width="37" height="30" stroke="black" fill="red" fill-opacity="0.1" />
<rect x="111" y="38" width="37" height="30" stroke="black" fill="red" fill-opacity="0.1" />
<rect x="148" y="38" width="37" height="30" stroke="black" fill="red" fill-opacity="0.1" />
<rect x="185" y="38" width="37" height="30" stroke="black" fill="red" fill-opacity="0.1" />
<rect x="222" y="44" width="22" height="24" stroke="black" fill="red" fill-opacity="0.1" />
<rect x="244" y="44" width="22" height="24" stroke="black" fill="red" fill-opacity="0.1" />
<rect x="266" y="44" width="22" height="24" stroke="black" fill="red" fill-opacity="0.1" />
<rect x="288" y="44" width="21" height="24" stroke="black" fill="red" fill-opacity="0.1" />
<rect x="309" y="44" width="21" height="24" stroke="black" fill="red" fill-opacity="0.1" />
<rect x="330" y="44" width="20" height="24" stroke="black" fill="red" fill-opacity="0.1" />
<rect x="350" y="44" width="18" height="24" stroke="black" fill="red" fill-opacity="0.1" />
<rect x="368" y="45" width="22" height="23" stroke="black" fill="red" fill-opacity="0.1" />
<rect x="390" y="45" width="22" height="23" stroke="black" fill="red" fill-opacity="0.1" />
<rect x="412" y="45" width="21" height="23" stroke="black" fill="red" fill-opacity="0.1" />
<rect x="433" y="45" width="14" height="23" stroke="black" fill="red" fill-opacity="0.1" />
<rect x="447" y="46" width="50" height="22" stroke="black" fill="red" fill-opacity="0.1" />
<rect x="0" y="17" width="56" height="21" stroke="black" fill="red" fill-opacity="0.1" />
<rect x="56" y="17" width="43" height="21" stroke="black" fill="red" fill-opacity="0.1" />
</svg>