<?xml version="1.0" encoding="UTF-8"?>
<svg xmlns="http://www.w3.org/2000/svg" xmlns:xlink="http://www.w3.org/1999/xlink"
     width="512" height="128" viewBox="0 0 512 128">
<defs>
</defs>
<rect x="0" y="106" width="194" height="22" stroke="black" fill="red" fill-opacity="0.1" id="0">
<title>sprite_38</title>
</rect>
<rect x="194" y="106" width="194" height="22" stroke="black" fill="red" fill-opacity="0.1" id="1">
<title>sprite_39</title>
</rect>
<rect x="0" y="84" width="194" height="22" stroke="black" fill="red" fill-opacity="0.1" id="2">
<title>sprite_40</title>
</rect>
<rect x="194" y="84" width="146" height="22" stroke="black" fill="red" fill-opacity="0.1" id="3">
<title>sprite_41</title>
</rect>
<rect x="340" y="84" width="145" height="22" stroke="black" fill="red" fill-opacity="0.1" id="4">
<title>sprite_42</title>
</rect>
<rect x="0" y="62" width="142" height="22" stroke="black" fill="red" fill-opacity="0.1" id="5">
<title>sprite_43</title>
</rect>
<rect x="142" y="62" width="136" height="22" stroke="black" fill="red" fill-opacity="0.1" id="6">
<title>sprite_44</title>
</rect>
<rect x="278" y="62" width="128" height="22" stroke="black" fill="red" fill-opacity="0.1" id="7">
<title>sprite_45</title>
</rect>
<rect x="406" y="62" width="96" height="22" stroke="black" fill="red" fill-opacity="0.1" id="8">
<title>sprite_46</title>
</rect>
<rect x="388" y="106" width="88" height="22" stroke="black" fill="red" fill-opacity="0.1" id="9">
<title>sprite_47</title>
</rect>
<rect x="0" y="40" width="77" height="22" stroke="black" fill="red" fill-opacity="0.1" id="10">
<title>sprite_48</title>
</rect>
<rect x="77" y="40" width="54" height="22" stroke="black" fill="red" fill-opacity="0.1" id="11">
<title>sprite_49</title>
</rect>
<rect x="131" y="40" width="51" height="22" stroke="black" fill="red" fill-opacity="0.1" id="12">
<title>sprite_50</title>
</rect>
<rect x="182" y="46" width="38" height="16" stroke="black" fill="red" fill-opacity="0.1" id="13">
<title>sprite_51</title>
</rect>
<rect x="220" y="46" width="38" height="16" stroke="black" fill="red" fill-opacity="0.1" id="14">
<title>sprite_52</title>
</rect>
<rect x="258" y="46" width="37" height="16" stroke="black" fill="red" fill-opacity="0.1" id="15">
<title>sprite_53</title>
</rect>
<rect x="295" y="46" width="37" height="16" stroke="black" fill="red" fill-opacity="0.1" id="16">
<title>sprite_54</title>
</rect>
<rect x="332" y="47" width="103" height="15" stroke="black" fill="red" fill-opacity="0.1" id="17">
<title>sprite_55</title>
</rect>
<rect x="0" y="26" width="273" height="14" stroke="black" fill="red" fill-opacity="0.1" id="18">
<title>sprite_56</title>
</rect>
<rect x="0" y="12" width="273" height="14" stroke="black" fill="red" fill-opacity="0.1" id="19">
<title>sprite_57</title>
</rect>
<rect x="273" y="32" width="10" height="8" stroke="black" fill="red" fill-opacity="0.1" id="20">
<title>sprite_58</title>
</rect>
</svg>