<?xml version="1.0" encoding="UTF-8"?>
<svg xmlns="http://www.w3.org/2000/svg" xmlns:xlink="http://www.w3.org/1999/xlink"
     width="512" height="64" viewBox="0 0 512 64">
<defs>
</defs>
<rect x="0" y="44" width="47" height="20" stroke="black" fill="red" fill-opacity="0.1" />
<rect x="47" y="44" width="47" height="20" stroke="black" fill="red" fill-opacity="0.1" />
<rect x="94" y="44" width="47" height="20" stroke="black" fill="red" fill-opacity="0.1" />
<rect x="141" y="44" width="47" height="20" stroke="black" fill="red" fill-opacity="0.1" />
<rect x="188" y="44" width="47" height="20" stroke="black" fill="red" fill-opacity="0.1" />
<rect x="235" y="44" width="47" height="20" stroke="black" fill="red" fill-opacity="0.1" />
<rect x="282" y="44" width="47" height="20" stroke="black" fill="red" fill-opacity="0.1" />
<rect x="329" y="44" width="47" height="20" stroke="black" fill="red" fill-opacity="0.1" />
<rect x="376" y="44" width="47" height="20" stroke="black" fill="red" fill-opacity="0.1" />
<rect x="423" y="44" width="47" height="20" stroke="black" fill="red" fill-opacity="0.1" />
<rect x="0" y="24" width="47" height="20" stroke="black" fill="red" fill-opacity="0.1" />
<rect x="47" y="24" width="47" height="20" stroke="black" fill="red" fill-opacity="0.1" />
<rect x="94" y="24" width="47" height="20" stroke="black" fill="red" fill-opacity="0.1" />
<rect x="141" y="24" width="47" height="20" stroke="black" fill="red" fill-opacity="0.1" />
<rect x="188" y="24" width="47" height="20" stroke="black" fill="red" fill-opacity="0.1" />
<rect x="235" y="24" width="47" height="20" stroke="black" fill="red" fill-opacity="0.1" />
<rect x="282" y="24" width="47" height="20" stroke="black" fill="red" fill-opacity="0.1" />
<rect x="329" y="24" width="47" height="20" stroke="black" fill="red" fill-opacity="0.1" />
<rect x="376" y="24" width="47" height="20" stroke="black" fill="red" fill-opacity="0.1" />
<rect x="423" y="24" width="47" height="20" stroke="black" fill="red" fill-opacity="0.1" />
<rect x="0" y="4" width="47" height="20" stroke="black" fill="red" fill-opacity="0.1" />
<rect x="47" y="4" width="47" height="20" stroke="black" fill="red" fill-opacity="0.1" />
<rect x="94" y="4" width="47" height="20" stroke="black" fill="red" fill-opacity="0.1" />
<rect x="141" y="4" width="47" height="20" stroke="black" fill="red" fill-opacity="0.1" />
<rect x="188" y="4" width="47" height="20" stroke="black" fill="red" fill-opacity="0.1" />
<rect x="235" y="4" width="47" height="20" stroke="black" fill="red" fill-opacity="0.1" />
<rect x="282" y="4" width="47" height="20" stroke="black" fill="red" fill-opacity="0.1" />
<rect x="329" y="4" width="47" height="20" stroke="black" fill="red" fill-opacity="0.1" />
<rect x="376" y="4" width="47" height="20" stroke="black" fill="red" fill-opacity="0.1" />
</svg>