<?xml version="1.0" encoding="UTF-8"?>
<svg xmlns="http://www.w3.org/2000/svg" xmlns:xlink="http://www.w3.org/1999/xlink"
     width="512" height="64" viewBox="0 0 512 64">
<defs>
</defs>
<rect x="0" y="44" width="47" height="20" stroke="black" fill="red" fill-opacity="0.1" id="0">
<title>sprite_1416</title>
</rect>
<rect x="47" y="44" width="47" height="20" stroke="black" fill="red" fill-opacity="0.1" id="1">
<title>sprite_1417</title>
</rect>
<rect x="94" y="44" width="47" height="20" stroke="black" fill="red" fill-opacity="0.1" id="2">
<title>sprite_1418</title>
</rect>
<rect x="141" y="44" width="47" height="20" stroke="black" fill="red" fill-opacity="0.1" id="3">
<title>sprite_1419</title>
</rect>
<rect x="188" y="44" width="47" height="20" stroke="black" fill="red" fill-opacity="0.1" id="4">
<title>sprite_1420</title>
</rect>
<rect x="235" y="44" width="47" height="20" stroke="black" fill="red" fill-opacity="0.1" id="5">
<title>sprite_1421</title>
</rect>
<rect x="282" y="44" width="47" height="20" stroke="black" fill="red" fill-opacity="0.1" id="6">
<title>sprite_1422</title>
</rect>
<rect x="329" y="44" width="47" height="20" stroke="black" fill="red" fill-opacity="0.1" id="7">
<title>sprite_1423</title>
</rect>
<rect x="376" y="44" width="47" height="20" stroke="black" fill="red" fill-opacity="0.1" id="8">
<title>sprite_1424</title>
</rect>
<rect x="423" y="44" width="47" height="20" stroke="black" fill="red" fill-opacity="0.1" id="9">
<title>sprite_1425</title>
</rect>
<rect x="0" y="24" width="47" height="20" stroke="black" fill="red" fill-opacity="0.1" id="10">
<title>sprite_1426</title>
</rect>
<rect x="47" y="24" width="47" height="20" stroke="black" fill="red" fill-opacity="0.1" id="11">
<title>sprite_1427</title>
</rect>
<rect x="94" y="24" width="47" height="20" stroke="black" fill="red" fill-opacity="0.1" id="12">
<title>sprite_1428</title>
</rect>
<rect x="141" y="24" width="47" height="20" stroke="black" fill="red" fill-opacity="0.1" id="13">
<title>sprite_1429</title>
</rect>
<rect x="188" y="24" width="47" height="20" stroke="black" fill="red" fill-opacity="0.1" id="14">
<title>sprite_1430</title>
</rect>
<rect x="235" y="24" width="47" height="20" stroke="black" fill="red" fill-opacity="0.1" id="15">
<title>sprite_1431</title>
</rect>
<rect x="282" y="24" width="47" height="20" stroke="black" fill="red" fill-opacity="0.1" id="16">
<title>sprite_1432</title>
</rect>
<rect x="329" y="24" width="47" height="20" stroke="black" fill="red" fill-opacity="0.1" id="17">
<title>sprite_1433</title>
</rect>
<rect x="376" y="24" width="47" height="20" stroke="black" fill="red" fill-opacity="0.1" id="18">
<title>sprite_1434</title>
</rect>
<rect x="423" y="24" width="47" height="20" stroke="black" fill="red" fill-opacity="0.1" id="19">
<title>sprite_1435</title>
</rect>
<rect x="0" y="4" width="47" height="20" stroke="black" fill="red" fill-opacity="0.1" id="20">
<title>sprite_1436</title>
</rect>
<rect x="47" y="4" width="47" height="20" stroke="black" fill="red" fill-opacity="0.1" id="21">
<title>sprite_1437</title>
</rect>
<rect x="94" y="4" width="47" height="20" stroke="black" fill="red" fill-opacity="0.1" id="22">
<title>sprite_1438</title>
</rect>
<rect x="141" y="4" width="47" height="20" stroke="black" fill="red" fill-opacity="0.1" id="23">
<title>sprite_1439</title>
</rect>
<rect x="188" y="4" width="47" height="20" stroke="black" fill="red" fill-opacity="0.1" id="24">
<title>sprite_1440</title>
</rect>
<rect x="235" y="4" width="47" height="20" stroke="black" fill="red" fill-opacity="0.1" id="25">
<title>sprite_1441</title>
</rect>
<rect x="282" y="4" width="47" height="20" stroke="black" fill="red" fill-opacity="0.1" id="26">
<title>sprite_1442</title>
</rect>
<rect x="329" y="4" width="47" height="20" stroke="black" fill="red" fill-opacity="0.1" id="27">
<title>sprite_1443</title>
</rect>
<rect x="376" y="4" width="47" height="20" stroke="black" fill="red" fill-opacity="0.1" id="28">
<title>sprite_1444</title>
</rect>
</svg>