<?xml version="1.0" encoding="UTF-8"?>
<svg xmlns="http://www.w3.org/2000/svg" xmlns:xlink="http://www.w3.org/1999/xlink"
     width="256" height="512" viewBox="0 0 256 512">
<defs>
</defs>
<rect x="0" y="493" width="240" height="19" stroke="black" fill="red" fill-opacity="0.1" />
<rect x="0" y="474" width="240" height="19" stroke="black" fill="red" fill-opacity="0.1" />
<rect x="0" y="455" width="240" height="19" stroke="black" fill="red" fill-opacity="0.1" />
<rect x="0" y="436" width="240" height="19" stroke="black" fill="red" fill-opacity="0.1" />
<rect x="0" y="417" width="240" height="19" stroke="black" fill="red" fill-opacity="0.1" />
<rect x="0" y="398" width="240" height="19" stroke="black" fill="red" fill-opacity="0.1" />
<rect x="0" y="379" width="240" height="19" stroke="black" fill="red" fill-opacity="0.1" />
<rect x="0" y="360" width="240" height="19" stroke="black" fill="red" fill-opacity="0.1" />
<rect x="0" y="341" width="240" height="19" stroke="black" fill="red" fill-opacity="0.1" />
<rect x="0" y="322" width="240" height="19" stroke="black" fill="red" fill-opacity="0.1" />
<rect x="0" y="303" width="240" height="19" stroke="black" fill="red" fill-opacity="0.1" />
<rect x="0" y="284" width="240" height="19" stroke="black" fill="red" fill-opacity="0.1" />
<rect x="0" y="265" width="240" height="19" stroke="black" fill="red" fill-opacity="0.1" />
<rect x="0" y="246" width="240" height="19" stroke="black" fill="red" fill-opacity="0.1" />
<rect x="0" y="227" width="240" height="19" stroke="black" fill="red" fill-opacity="0.1" />
<rect x="0" y="208" width="240" height="19" stroke="black" fill="red" fill-opacity="0.1" />
<rect x="0" y="189" width="240" height="19" stroke="black" fill="red" fill-opacity="0.1" />
<rect x="0" y="170" width="240" height="19" stroke="black" fill="red" fill-opacity="0.1" />
<rect x="0" y="151" width="240" height="19" stroke="black" fill="red" fill-opacity="0.1" />
<rect x="0" y="132" width="240" height="19" stroke="black" fill="red" fill-opacity="0.1" />
<rect x="0" y="113" width="240" height="19" stroke="black" fill="red" fill-opacity="0.1" />
<rect x="0" y="94" width="240" height="19" stroke="black" fill="red" fill-opacity="0.1" />
<rect x="0" y="75" width="240" height="19" stroke="black" fill="red" fill-opacity="0.1" />
<rect x="0" y="56" width="240" height="19" stroke="black" fill="red" fill-opacity="0.1" />
<rect x="0" y="37" width="240" height="19" stroke="black" fill="red" fill-opacity="0.1" />
</svg>