<?xml version="1.0" encoding="UTF-8"?>
<svg xmlns="http://www.w3.org/2000/svg" xmlns:xlink="http://www.w3.org/1999/xlink"
     width="2048" height="1024" viewBox="0 0 2048 1024">
<defs>
</defs>
<rect x="0" y="784" width="240" height="240" stroke="black" fill="red" fill-opacity="0.1" id="0">
<title>sprite_43</title>
</rect>
<rect x="0" y="552" width="232" height="232" stroke="black" fill="red" fill-opacity="0.1" id="1">
<title>sprite_44</title>
</rect>
<rect x="0" y="416" width="136" height="136" stroke="black" fill="red" fill-opacity="0.1" id="2">
<title>sprite_45</title>
</rect>
<rect x="0" y="280" width="136" height="136" stroke="black" fill="red" fill-opacity="0.1" id="3">
<title>sprite_46</title>
</rect>
<rect x="0" y="160" width="120" height="120" stroke="black" fill="red" fill-opacity="0.1" id="4">
<title>sprite_47</title>
</rect>
<rect x="0" y="88" width="328" height="72" stroke="black" fill="red" fill-opacity="0.1" id="5">
<title>sprite_48</title>
</rect>
<rect x="328" y="88" width="312" height="72" stroke="black" fill="red" fill-opacity="0.1" id="6">
<title>sprite_49</title>
</rect>
<rect x="640" y="88" width="312" height="72" stroke="black" fill="red" fill-opacity="0.1" id="7">
<title>sprite_50</title>
</rect>
<rect x="952" y="88" width="168" height="72" stroke="black" fill="red" fill-opacity="0.1" id="8">
<title>sprite_51</title>
</rect>
<rect x="1120" y="88" width="72" height="72" stroke="black" fill="red" fill-opacity="0.1" id="9">
<title>sprite_52</title>
</rect>
<rect x="1192" y="88" width="72" height="72" stroke="black" fill="red" fill-opacity="0.1" id="10">
<title>sprite_53</title>
</rect>
<rect x="1264" y="88" width="72" height="72" stroke="black" fill="red" fill-opacity="0.1" id="11">
<title>sprite_54</title>
</rect>
<rect x="1336" y="88" width="72" height="72" stroke="black" fill="red" fill-opacity="0.1" id="12">
<title>sprite_55</title>
</rect>
<rect x="1408" y="88" width="72" height="72" stroke="black" fill="red" fill-opacity="0.1" id="13">
<title>sprite_56</title>
</rect>
<rect x="1480" y="88" width="72" height="72" stroke="black" fill="red" fill-opacity="0.1" id="14">
<title>sprite_57</title>
</rect>
<rect x="1552" y="88" width="72" height="72" stroke="black" fill="red" fill-opacity="0.1" id="15">
<title>sprite_58</title>
</rect>
<rect x="1624" y="88" width="72" height="72" stroke="black" fill="red" fill-opacity="0.1" id="16">
<title>sprite_59</title>
</rect>
<rect x="1696" y="88" width="72" height="72" stroke="black" fill="red" fill-opacity="0.1" id="17">
<title>sprite_60</title>
</rect>
<rect x="1768" y="88" width="72" height="72" stroke="black" fill="red" fill-opacity="0.1" id="18">
<title>sprite_61</title>
</rect>
<rect x="1840" y="88" width="72" height="72" stroke="black" fill="red" fill-opacity="0.1" id="19">
<title>sprite_62</title>
</rect>
<rect x="120" y="160" width="120" height="120" stroke="black" fill="red" fill-opacity="0.1" id="20">
<title>sprite_63</title>
</rect>
<rect x="240" y="172" width="108" height="108" stroke="black" fill="red" fill-opacity="0.1" id="21">
<title>sprite_64</title>
</rect>
<rect x="348" y="176" width="168" height="104" stroke="black" fill="red" fill-opacity="0.1" id="22">
<title>sprite_65</title>
</rect>
<rect x="516" y="176" width="168" height="104" stroke="black" fill="red" fill-opacity="0.1" id="23">
<title>sprite_66</title>
</rect>
<rect x="684" y="192" width="360" height="88" stroke="black" fill="red" fill-opacity="0.1" id="24">
<title>sprite_67</title>
</rect>
<rect x="1044" y="192" width="88" height="88" stroke="black" fill="red" fill-opacity="0.1" id="25">
<title>sprite_68</title>
</rect>
<rect x="1132" y="192" width="88" height="88" stroke="black" fill="red" fill-opacity="0.1" id="26">
<title>sprite_69</title>
</rect>
<rect x="1220" y="208" width="392" height="72" stroke="black" fill="red" fill-opacity="0.1" id="27">
<title>sprite_70</title>
</rect>
<rect x="1612" y="208" width="360" height="72" stroke="black" fill="red" fill-opacity="0.1" id="28">
<title>sprite_71</title>
</rect>
<rect x="136" y="280" width="136" height="136" stroke="black" fill="red" fill-opacity="0.1" id="29">
<title>sprite_72</title>
</rect>
<rect x="272" y="280" width="136" height="136" stroke="black" fill="red" fill-opacity="0.1" id="30">
<title>sprite_73</title>
</rect>
<rect x="408" y="288" width="136" height="128" stroke="black" fill="red" fill-opacity="0.1" id="31">
<title>sprite_74</title>
</rect>
<rect x="544" y="288" width="136" height="128" stroke="black" fill="red" fill-opacity="0.1" id="32">
<title>sprite_75</title>
</rect>
<rect x="680" y="288" width="136" height="128" stroke="black" fill="red" fill-opacity="0.1" id="33">
<title>sprite_76</title>
</rect>
<rect x="816" y="288" width="136" height="128" stroke="black" fill="red" fill-opacity="0.1" id="34">
<title>sprite_77</title>
</rect>
<rect x="952" y="288" width="136" height="128" stroke="black" fill="red" fill-opacity="0.1" id="35">
<title>sprite_78</title>
</rect>
<rect x="1088" y="288" width="136" height="128" stroke="black" fill="red" fill-opacity="0.1" id="36">
<title>sprite_79</title>
</rect>
<rect x="1224" y="288" width="136" height="128" stroke="black" fill="red" fill-opacity="0.1" id="37">
<title>sprite_80</title>
</rect>
<rect x="1360" y="288" width="136" height="128" stroke="black" fill="red" fill-opacity="0.1" id="38">
<title>sprite_81</title>
</rect>
<rect x="1496" y="288" width="136" height="128" stroke="black" fill="red" fill-opacity="0.1" id="39">
<title>sprite_82</title>
</rect>
<rect x="1632" y="288" width="136" height="128" stroke="black" fill="red" fill-opacity="0.1" id="40">
<title>sprite_83</title>
</rect>
<rect x="1768" y="296" width="120" height="120" stroke="black" fill="red" fill-opacity="0.1" id="41">
<title>sprite_84</title>
</rect>
<rect x="1888" y="296" width="120" height="120" stroke="black" fill="red" fill-opacity="0.1" id="42">
<title>sprite_85</title>
</rect>
<rect x="136" y="416" width="136" height="136" stroke="black" fill="red" fill-opacity="0.1" id="43">
<title>sprite_86</title>
</rect>
<rect x="272" y="416" width="136" height="136" stroke="black" fill="red" fill-opacity="0.1" id="44">
<title>sprite_87</title>
</rect>
<rect x="408" y="416" width="136" height="136" stroke="black" fill="red" fill-opacity="0.1" id="45">
<title>sprite_88</title>
</rect>
<rect x="544" y="416" width="136" height="136" stroke="black" fill="red" fill-opacity="0.1" id="46">
<title>sprite_89</title>
</rect>
<rect x="680" y="416" width="136" height="136" stroke="black" fill="red" fill-opacity="0.1" id="47">
<title>sprite_90</title>
</rect>
<rect x="816" y="416" width="136" height="136" stroke="black" fill="red" fill-opacity="0.1" id="48">
<title>sprite_91</title>
</rect>
<rect x="952" y="416" width="136" height="136" stroke="black" fill="red" fill-opacity="0.1" id="49">
<title>sprite_92</title>
</rect>
<rect x="1088" y="416" width="136" height="136" stroke="black" fill="red" fill-opacity="0.1" id="50">
<title>sprite_93</title>
</rect>
<rect x="1224" y="416" width="136" height="136" stroke="black" fill="red" fill-opacity="0.1" id="51">
<title>sprite_94</title>
</rect>
<rect x="1360" y="416" width="136" height="136" stroke="black" fill="red" fill-opacity="0.1" id="52">
<title>sprite_95</title>
</rect>
<rect x="1496" y="416" width="136" height="136" stroke="black" fill="red" fill-opacity="0.1" id="53">
<title>sprite_96</title>
</rect>
<rect x="1632" y="416" width="136" height="136" stroke="black" fill="red" fill-opacity="0.1" id="54">
<title>sprite_97</title>
</rect>
<rect x="1768" y="416" width="136" height="136" stroke="black" fill="red" fill-opacity="0.1" id="55">
<title>sprite_98</title>
</rect>
<rect x="1904" y="416" width="136" height="136" stroke="black" fill="red" fill-opacity="0.1" id="56">
<title>sprite_99</title>
</rect>
<rect x="232" y="648" width="136" height="136" stroke="black" fill="red" fill-opacity="0.1" id="57">
<title>sprite_100</title>
</rect>
<rect x="368" y="648" width="136" height="136" stroke="black" fill="red" fill-opacity="0.1" id="58">
<title>sprite_101</title>
</rect>
<rect x="504" y="648" width="136" height="136" stroke="black" fill="red" fill-opacity="0.1" id="59">
<title>sprite_102</title>
</rect>
<rect x="640" y="648" width="136" height="136" stroke="black" fill="red" fill-opacity="0.1" id="60">
<title>sprite_103</title>
</rect>
<rect x="776" y="648" width="136" height="136" stroke="black" fill="red" fill-opacity="0.1" id="61">
<title>sprite_104</title>
</rect>
<rect x="912" y="648" width="136" height="136" stroke="black" fill="red" fill-opacity="0.1" id="62">
<title>sprite_105</title>
</rect>
<rect x="1048" y="648" width="136" height="136" stroke="black" fill="red" fill-opacity="0.1" id="63">
<title>sprite_106</title>
</rect>
<rect x="1184" y="648" width="136" height="136" stroke="black" fill="red" fill-opacity="0.1" id="64">
<title>sprite_107</title>
</rect>
<rect x="1320" y="648" width="136" height="136" stroke="black" fill="red" fill-opacity="0.1" id="65">
<title>sprite_108</title>
</rect>
<rect x="1456" y="648" width="136" height="136" stroke="black" fill="red" fill-opacity="0.1" id="66">
<title>sprite_109</title>
</rect>
<rect x="1592" y="648" width="136" height="136" stroke="black" fill="red" fill-opacity="0.1" id="67">
<title>sprite_110</title>
</rect>
<rect x="1728" y="648" width="136" height="136" stroke="black" fill="red" fill-opacity="0.1" id="68">
<title>sprite_111</title>
</rect>
<rect x="1864" y="648" width="136" height="136" stroke="black" fill="red" fill-opacity="0.1" id="69">
<title>sprite_112</title>
</rect>
<rect x="240" y="784" width="240" height="240" stroke="black" fill="red" fill-opacity="0.1" id="70">
<title>sprite_113</title>
</rect>
<rect x="480" y="792" width="232" height="232" stroke="black" fill="red" fill-opacity="0.1" id="71">
<title>sprite_114</title>
</rect>
<rect x="712" y="792" width="232" height="232" stroke="black" fill="red" fill-opacity="0.1" id="72">
<title>sprite_115</title>
</rect>
<rect x="944" y="792" width="232" height="232" stroke="black" fill="red" fill-opacity="0.1" id="73">
<title>sprite_116</title>
</rect>
<rect x="1176" y="792" width="232" height="232" stroke="black" fill="red" fill-opacity="0.1" id="74">
<title>sprite_117</title>
</rect>
<rect x="1408" y="792" width="232" height="232" stroke="black" fill="red" fill-opacity="0.1" id="75">
<title>sprite_118</title>
</rect>
<rect x="1640" y="792" width="232" height="232" stroke="black" fill="red" fill-opacity="0.1" id="76">
<title>sprite_119</title>
</rect>
<rect x="1872" y="888" width="136" height="136" stroke="black" fill="red" fill-opacity="0.1" id="77">
<title>sprite_120</title>
</rect>
</svg>