<?xml version="1.0" encoding="UTF-8"?>
<svg xmlns="http://www.w3.org/2000/svg" xmlns:xlink="http://www.w3.org/1999/xlink"
     width="512" height="512" viewBox="0 0 512 512">
<defs>
</defs>
<rect x="1" y="121" width="134" height="102" stroke="black" fill="red" fill-opacity="0.1" id="0">
<title>sprite_1</title>
</rect>
<rect x="137" y="121" width="90" height="90" stroke="black" fill="red" fill-opacity="0.1" id="1">
<title>sprite_2</title>
</rect>
<rect x="229" y="121" width="90" height="90" stroke="black" fill="red" fill-opacity="0.1" id="2">
<title>sprite_3</title>
</rect>
<rect x="321" y="121" width="90" height="90" stroke="black" fill="red" fill-opacity="0.1" id="3">
<title>sprite_4</title>
</rect>
<rect x="413" y="121" width="90" height="90" stroke="black" fill="red" fill-opacity="0.1" id="4">
<title>sprite_5</title>
</rect>
<rect x="1" y="225" width="90" height="90" stroke="black" fill="red" fill-opacity="0.1" id="5">
<title>sprite_6</title>
</rect>
<rect x="93" y="225" width="90" height="90" stroke="black" fill="red" fill-opacity="0.1" id="6">
<title>sprite_7</title>
</rect>
<rect x="185" y="213" width="90" height="90" stroke="black" fill="red" fill-opacity="0.1" id="7">
<title>sprite_8</title>
</rect>
<rect x="277" y="213" width="90" height="90" stroke="black" fill="red" fill-opacity="0.1" id="8">
<title>sprite_9</title>
</rect>
<rect x="369" y="213" width="90" height="90" stroke="black" fill="red" fill-opacity="0.1" id="9">
<title>sprite_10</title>
</rect>
<rect x="1" y="317" width="90" height="90" stroke="black" fill="red" fill-opacity="0.1" id="10">
<title>sprite_11</title>
</rect>
<rect x="1" y="409" width="106" height="66" stroke="black" fill="red" fill-opacity="0.1" id="11">
<title>sprite_12</title>
</rect>
<rect x="109" y="397" width="98" height="66" stroke="black" fill="red" fill-opacity="0.1" id="12">
<title>sprite_13</title>
</rect>
<rect x="209" y="397" width="90" height="66" stroke="black" fill="red" fill-opacity="0.1" id="13">
<title>sprite_14</title>
</rect>
<rect x="301" y="397" width="82" height="66" stroke="black" fill="red" fill-opacity="0.1" id="14">
<title>sprite_15</title>
</rect>
<rect x="385" y="389" width="60" height="60" stroke="black" fill="red" fill-opacity="0.1" id="15">
<title>sprite_16</title>
</rect>
<rect x="447" y="389" width="60" height="60" stroke="black" fill="red" fill-opacity="0.1" id="16">
<title>sprite_17</title>
</rect>
<rect x="93" y="317" width="158" height="50" stroke="black" fill="red" fill-opacity="0.1" id="17">
<title>sprite_18</title>
</rect>
<rect x="461" y="213" width="50" height="50" stroke="black" fill="red" fill-opacity="0.1" id="18">
<title>sprite_19</title>
</rect>
<rect x="1" y="1" width="510" height="42" stroke="black" fill="red" fill-opacity="0.1" id="19">
<title>sprite_20</title>
</rect>
<rect x="1" y="45" width="410" height="42" stroke="black" fill="red" fill-opacity="0.1" id="20">
<title>sprite_21</title>
</rect>
<rect x="1" y="89" width="450" height="30" stroke="black" fill="red" fill-opacity="0.1" id="21">
<title>sprite_22</title>
</rect>
<rect x="253" y="333" width="110" height="30" stroke="black" fill="red" fill-opacity="0.1" id="22">
<title>sprite_23</title>
</rect>
<rect x="253" y="305" width="154" height="26" stroke="black" fill="red" fill-opacity="0.1" id="23">
<title>sprite_24</title>
</rect>
<rect x="365" y="333" width="126" height="26" stroke="black" fill="red" fill-opacity="0.1" id="24">
<title>sprite_25</title>
</rect>
<rect x="93" y="369" width="118" height="26" stroke="black" fill="red" fill-opacity="0.1" id="25">
<title>sprite_26</title>
</rect>
<rect x="213" y="369" width="106" height="26" stroke="black" fill="red" fill-opacity="0.1" id="26">
<title>sprite_27</title>
</rect>
<rect x="413" y="45" width="94" height="26" stroke="black" fill="red" fill-opacity="0.1" id="27">
<title>sprite_28</title>
</rect>
<rect x="1" y="477" width="90" height="26" stroke="black" fill="red" fill-opacity="0.1" id="28">
<title>sprite_29</title>
</rect>
<rect x="93" y="477" width="90" height="26" stroke="black" fill="red" fill-opacity="0.1" id="29">
<title>sprite_30</title>
</rect>
<rect x="185" y="465" width="90" height="26" stroke="black" fill="red" fill-opacity="0.1" id="30">
<title>sprite_31</title>
</rect>
<rect x="277" y="465" width="78" height="26" stroke="black" fill="red" fill-opacity="0.1" id="31">
<title>sprite_32</title>
</rect>
<rect x="357" y="465" width="78" height="26" stroke="black" fill="red" fill-opacity="0.1" id="32">
<title>sprite_33</title>
</rect>
<rect x="441" y="361" width="66" height="26" stroke="black" fill="red" fill-opacity="0.1" id="33">
<title>sprite_34</title>
</rect>
<rect x="453" y="73" width="50" height="26" stroke="black" fill="red" fill-opacity="0.1" id="34">
<title>sprite_35</title>
</rect>
<rect x="461" y="265" width="50" height="26" stroke="black" fill="red" fill-opacity="0.1" id="35">
<title>sprite_36</title>
</rect>
<rect x="409" y="305" width="102" height="24" stroke="black" fill="red" fill-opacity="0.1" id="36">
<title>sprite_37</title>
</rect>
<rect x="437" y="451" width="70" height="24" stroke="black" fill="red" fill-opacity="0.1" id="37">
<title>sprite_38</title>
</rect>
<rect x="321" y="365" width="118" height="22" stroke="black" fill="red" fill-opacity="0.1" id="38">
<title>sprite_39</title>
</rect>
<rect x="413" y="493" width="98" height="18" stroke="black" fill="red" fill-opacity="0.1" id="39">
<title>sprite_40</title>
</rect>
<rect x="453" y="101" width="42" height="18" stroke="black" fill="red" fill-opacity="0.1" id="40">
<title>sprite_41</title>
</rect>
<rect x="493" y="331" width="18" height="18" stroke="black" fill="red" fill-opacity="0.1" id="41">
<title>sprite_42</title>
</rect>
</svg>