<?xml version="1.0" encoding="UTF-8"?>
<svg xmlns="http://www.w3.org/2000/svg" xmlns:xlink="http://www.w3.org/1999/xlink"
     width="512" height="512" viewBox="0 0 512 512">
<defs>
</defs>
<rect x="1" y="121" width="134" height="102" stroke="black" fill="red" fill-opacity="0.1" />
<rect x="137" y="121" width="90" height="90" stroke="black" fill="red" fill-opacity="0.1" />
<rect x="229" y="121" width="90" height="90" stroke="black" fill="red" fill-opacity="0.1" />
<rect x="321" y="121" width="90" height="90" stroke="black" fill="red" fill-opacity="0.1" />
<rect x="413" y="121" width="90" height="90" stroke="black" fill="red" fill-opacity="0.1" />
<rect x="1" y="225" width="90" height="90" stroke="black" fill="red" fill-opacity="0.1" />
<rect x="93" y="225" width="90" height="90" stroke="black" fill="red" fill-opacity="0.1" />
<rect x="185" y="213" width="90" height="90" stroke="black" fill="red" fill-opacity="0.1" />
<rect x="277" y="213" width="90" height="90" stroke="black" fill="red" fill-opacity="0.1" />
<rect x="369" y="213" width="90" height="90" stroke="black" fill="red" fill-opacity="0.1" />
<rect x="1" y="317" width="90" height="90" stroke="black" fill="red" fill-opacity="0.1" />
<rect x="1" y="409" width="106" height="66" stroke="black" fill="red" fill-opacity="0.1" />
<rect x="109" y="397" width="98" height="66" stroke="black" fill="red" fill-opacity="0.1" />
<rect x="209" y="397" width="90" height="66" stroke="black" fill="red" fill-opacity="0.1" />
<rect x="301" y="397" width="82" height="66" stroke="black" fill="red" fill-opacity="0.1" />
<rect x="385" y="389" width="60" height="60" stroke="black" fill="red" fill-opacity="0.1" />
<rect x="447" y="389" width="60" height="60" stroke="black" fill="red" fill-opacity="0.1" />
<rect x="93" y="317" width="158" height="50" stroke="black" fill="red" fill-opacity="0.1" />
<rect x="461" y="213" width="50" height="50" stroke="black" fill="red" fill-opacity="0.1" />
<rect x="1" y="1" width="510" height="42" stroke="black" fill="red" fill-opacity="0.1" />
<rect x="1" y="45" width="410" height="42" stroke="black" fill="red" fill-opacity="0.1" />
<rect x="1" y="89" width="450" height="30" stroke="black" fill="red" fill-opacity="0.1" />
<rect x="253" y="333" width="110" height="30" stroke="black" fill="red" fill-opacity="0.1" />
<rect x="253" y="305" width="154" height="26" stroke="black" fill="red" fill-opacity="0.1" />
<rect x="365" y="333" width="126" height="26" stroke="black" fill="red" fill-opacity="0.1" />
<rect x="93" y="369" width="118" height="26" stroke="black" fill="red" fill-opacity="0.1" />
<rect x="213" y="369" width="106" height="26" stroke="black" fill="red" fill-opacity="0.1" />
<rect x="413" y="45" width="94" height="26" stroke="black" fill="red" fill-opacity="0.1" />
<rect x="1" y="477" width="90" height="26" stroke="black" fill="red" fill-opacity="0.1" />
<rect x="93" y="477" width="90" height="26" stroke="black" fill="red" fill-opacity="0.1" />
<rect x="185" y="465" width="90" height="26" stroke="black" fill="red" fill-opacity="0.1" />
<rect x="277" y="465" width="78" height="26" stroke="black" fill="red" fill-opacity="0.1" />
<rect x="357" y="465" width="78" height="26" stroke="black" fill="red" fill-opacity="0.1" />
<rect x="441" y="361" width="66" height="26" stroke="black" fill="red" fill-opacity="0.1" />
<rect x="453" y="73" width="50" height="26" stroke="black" fill="red" fill-opacity="0.1" />
<rect x="461" y="265" width="50" height="26" stroke="black" fill="red" fill-opacity="0.1" />
<rect x="409" y="305" width="102" height="24" stroke="black" fill="red" fill-opacity="0.1" />
<rect x="437" y="451" width="70" height="24" stroke="black" fill="red" fill-opacity="0.1" />
<rect x="321" y="365" width="118" height="22" stroke="black" fill="red" fill-opacity="0.1" />
<rect x="413" y="493" width="98" height="18" stroke="black" fill="red" fill-opacity="0.1" />
<rect x="453" y="101" width="42" height="18" stroke="black" fill="red" fill-opacity="0.1" />
<rect x="493" y="331" width="18" height="18" stroke="black" fill="red" fill-opacity="0.1" />
</svg>