<?xml version="1.0" encoding="UTF-8"?>
<svg xmlns="http://www.w3.org/2000/svg" xmlns:xlink="http://www.w3.org/1999/xlink"
     width="512" height="256" viewBox="0 0 512 256">
<defs>
</defs>
<rect x="0" y="196" width="60" height="60" stroke="black" fill="red" fill-opacity="0.1" />
<rect x="0" y="138" width="58" height="58" stroke="black" fill="red" fill-opacity="0.1" />
<rect x="0" y="104" width="34" height="34" stroke="black" fill="red" fill-opacity="0.1" />
<rect x="0" y="70" width="34" height="34" stroke="black" fill="red" fill-opacity="0.1" />
<rect x="0" y="40" width="30" height="30" stroke="black" fill="red" fill-opacity="0.1" />
<rect x="0" y="22" width="82" height="18" stroke="black" fill="red" fill-opacity="0.1" />
<rect x="82" y="22" width="78" height="18" stroke="black" fill="red" fill-opacity="0.1" />
<rect x="160" y="22" width="78" height="18" stroke="black" fill="red" fill-opacity="0.1" />
<rect x="238" y="22" width="42" height="18" stroke="black" fill="red" fill-opacity="0.1" />
<rect x="280" y="22" width="18" height="18" stroke="black" fill="red" fill-opacity="0.1" />
<rect x="298" y="22" width="18" height="18" stroke="black" fill="red" fill-opacity="0.1" />
<rect x="316" y="22" width="18" height="18" stroke="black" fill="red" fill-opacity="0.1" />
<rect x="334" y="22" width="18" height="18" stroke="black" fill="red" fill-opacity="0.1" />
<rect x="352" y="22" width="18" height="18" stroke="black" fill="red" fill-opacity="0.1" />
<rect x="370" y="22" width="18" height="18" stroke="black" fill="red" fill-opacity="0.1" />
<rect x="388" y="22" width="18" height="18" stroke="black" fill="red" fill-opacity="0.1" />
<rect x="406" y="22" width="18" height="18" stroke="black" fill="red" fill-opacity="0.1" />
<rect x="424" y="22" width="18" height="18" stroke="black" fill="red" fill-opacity="0.1" />
<rect x="442" y="22" width="18" height="18" stroke="black" fill="red" fill-opacity="0.1" />
<rect x="460" y="22" width="18" height="18" stroke="black" fill="red" fill-opacity="0.1" />
<rect x="30" y="40" width="30" height="30" stroke="black" fill="red" fill-opacity="0.1" />
<rect x="60" y="43" width="27" height="27" stroke="black" fill="red" fill-opacity="0.1" />
<rect x="87" y="44" width="42" height="26" stroke="black" fill="red" fill-opacity="0.1" />
<rect x="129" y="44" width="42" height="26" stroke="black" fill="red" fill-opacity="0.1" />
<rect x="171" y="48" width="90" height="22" stroke="black" fill="red" fill-opacity="0.1" />
<rect x="261" y="48" width="22" height="22" stroke="black" fill="red" fill-opacity="0.1" />
<rect x="283" y="48" width="22" height="22" stroke="black" fill="red" fill-opacity="0.1" />
<rect x="305" y="52" width="98" height="18" stroke="black" fill="red" fill-opacity="0.1" />
<rect x="403" y="52" width="90" height="18" stroke="black" fill="red" fill-opacity="0.1" />
<rect x="34" y="70" width="34" height="34" stroke="black" fill="red" fill-opacity="0.1" />
<rect x="68" y="70" width="34" height="34" stroke="black" fill="red" fill-opacity="0.1" />
<rect x="102" y="72" width="34" height="32" stroke="black" fill="red" fill-opacity="0.1" />
<rect x="136" y="72" width="34" height="32" stroke="black" fill="red" fill-opacity="0.1" />
<rect x="170" y="72" width="34" height="32" stroke="black" fill="red" fill-opacity="0.1" />
<rect x="204" y="72" width="34" height="32" stroke="black" fill="red" fill-opacity="0.1" />
<rect x="238" y="72" width="34" height="32" stroke="black" fill="red" fill-opacity="0.1" />
<rect x="272" y="72" width="34" height="32" stroke="black" fill="red" fill-opacity="0.1" />
<rect x="306" y="72" width="34" height="32" stroke="black" fill="red" fill-opacity="0.1" />
<rect x="340" y="72" width="34" height="32" stroke="black" fill="red" fill-opacity="0.1" />
<rect x="374" y="72" width="34" height="32" stroke="black" fill="red" fill-opacity="0.1" />
<rect x="408" y="72" width="34" height="32" stroke="black" fill="red" fill-opacity="0.1" />
<rect x="442" y="74" width="30" height="30" stroke="black" fill="red" fill-opacity="0.1" />
<rect x="472" y="74" width="30" height="30" stroke="black" fill="red" fill-opacity="0.1" />
<rect x="34" y="104" width="34" height="34" stroke="black" fill="red" fill-opacity="0.1" />
<rect x="68" y="104" width="34" height="34" stroke="black" fill="red" fill-opacity="0.1" />
<rect x="102" y="104" width="34" height="34" stroke="black" fill="red" fill-opacity="0.1" />
<rect x="136" y="104" width="34" height="34" stroke="black" fill="red" fill-opacity="0.1" />
<rect x="170" y="104" width="34" height="34" stroke="black" fill="red" fill-opacity="0.1" />
<rect x="204" y="104" width="34" height="34" stroke="black" fill="red" fill-opacity="0.1" />
<rect x="238" y="104" width="34" height="34" stroke="black" fill="red" fill-opacity="0.1" />
<rect x="272" y="104" width="34" height="34" stroke="black" fill="red" fill-opacity="0.1" />
<rect x="306" y="104" width="34" height="34" stroke="black" fill="red" fill-opacity="0.1" />
<rect x="340" y="104" width="34" height="34" stroke="black" fill="red" fill-opacity="0.1" />
<rect x="374" y="104" width="34" height="34" stroke="black" fill="red" fill-opacity="0.1" />
<rect x="408" y="104" width="34" height="34" stroke="black" fill="red" fill-opacity="0.1" />
<rect x="442" y="104" width="34" height="34" stroke="black" fill="red" fill-opacity="0.1" />
<rect x="476" y="104" width="34" height="34" stroke="black" fill="red" fill-opacity="0.1" />
<rect x="58" y="162" width="34" height="34" stroke="black" fill="red" fill-opacity="0.1" />
<rect x="92" y="162" width="34" height="34" stroke="black" fill="red" fill-opacity="0.1" />
<rect x="126" y="162" width="34" height="34" stroke="black" fill="red" fill-opacity="0.1" />
<rect x="160" y="162" width="34" height="34" stroke="black" fill="red" fill-opacity="0.1" />
<rect x="194" y="162" width="34" height="34" stroke="black" fill="red" fill-opacity="0.1" />
<rect x="228" y="162" width="34" height="34" stroke="black" fill="red" fill-opacity="0.1" />
<rect x="262" y="162" width="34" height="34" stroke="black" fill="red" fill-opacity="0.1" />
<rect x="296" y="162" width="34" height="34" stroke="black" fill="red" fill-opacity="0.1" />
<rect x="330" y="162" width="34" height="34" stroke="black" fill="red" fill-opacity="0.1" />
<rect x="364" y="162" width="34" height="34" stroke="black" fill="red" fill-opacity="0.1" />
<rect x="398" y="162" width="34" height="34" stroke="black" fill="red" fill-opacity="0.1" />
<rect x="432" y="162" width="34" height="34" stroke="black" fill="red" fill-opacity="0.1" />
<rect x="466" y="162" width="34" height="34" stroke="black" fill="red" fill-opacity="0.1" />
<rect x="60" y="196" width="60" height="60" stroke="black" fill="red" fill-opacity="0.1" />
<rect x="120" y="198" width="58" height="58" stroke="black" fill="red" fill-opacity="0.1" />
<rect x="178" y="198" width="58" height="58" stroke="black" fill="red" fill-opacity="0.1" />
<rect x="236" y="198" width="58" height="58" stroke="black" fill="red" fill-opacity="0.1" />
<rect x="294" y="198" width="58" height="58" stroke="black" fill="red" fill-opacity="0.1" />
<rect x="352" y="198" width="58" height="58" stroke="black" fill="red" fill-opacity="0.1" />
<rect x="410" y="198" width="58" height="58" stroke="black" fill="red" fill-opacity="0.1" />
<rect x="468" y="222" width="34" height="34" stroke="black" fill="red" fill-opacity="0.1" />
</svg>