<?xml version="1.0" encoding="UTF-8"?>
<svg xmlns="http://www.w3.org/2000/svg" xmlns:xlink="http://www.w3.org/1999/xlink"
     width="512" height="256" viewBox="0 0 512 256">
<defs>
</defs>
<rect x="0" y="196" width="60" height="60" stroke="black" fill="red" fill-opacity="0.1" id="0">
<title>sprite_43</title>
</rect>
<rect x="0" y="138" width="58" height="58" stroke="black" fill="red" fill-opacity="0.1" id="1">
<title>sprite_44</title>
</rect>
<rect x="0" y="104" width="34" height="34" stroke="black" fill="red" fill-opacity="0.1" id="2">
<title>sprite_45</title>
</rect>
<rect x="0" y="70" width="34" height="34" stroke="black" fill="red" fill-opacity="0.1" id="3">
<title>sprite_46</title>
</rect>
<rect x="0" y="40" width="30" height="30" stroke="black" fill="red" fill-opacity="0.1" id="4">
<title>sprite_47</title>
</rect>
<rect x="0" y="22" width="82" height="18" stroke="black" fill="red" fill-opacity="0.1" id="5">
<title>sprite_48</title>
</rect>
<rect x="82" y="22" width="78" height="18" stroke="black" fill="red" fill-opacity="0.1" id="6">
<title>sprite_49</title>
</rect>
<rect x="160" y="22" width="78" height="18" stroke="black" fill="red" fill-opacity="0.1" id="7">
<title>sprite_50</title>
</rect>
<rect x="238" y="22" width="42" height="18" stroke="black" fill="red" fill-opacity="0.1" id="8">
<title>sprite_51</title>
</rect>
<rect x="280" y="22" width="18" height="18" stroke="black" fill="red" fill-opacity="0.1" id="9">
<title>sprite_52</title>
</rect>
<rect x="298" y="22" width="18" height="18" stroke="black" fill="red" fill-opacity="0.1" id="10">
<title>sprite_53</title>
</rect>
<rect x="316" y="22" width="18" height="18" stroke="black" fill="red" fill-opacity="0.1" id="11">
<title>sprite_54</title>
</rect>
<rect x="334" y="22" width="18" height="18" stroke="black" fill="red" fill-opacity="0.1" id="12">
<title>sprite_55</title>
</rect>
<rect x="352" y="22" width="18" height="18" stroke="black" fill="red" fill-opacity="0.1" id="13">
<title>sprite_56</title>
</rect>
<rect x="370" y="22" width="18" height="18" stroke="black" fill="red" fill-opacity="0.1" id="14">
<title>sprite_57</title>
</rect>
<rect x="388" y="22" width="18" height="18" stroke="black" fill="red" fill-opacity="0.1" id="15">
<title>sprite_58</title>
</rect>
<rect x="406" y="22" width="18" height="18" stroke="black" fill="red" fill-opacity="0.1" id="16">
<title>sprite_59</title>
</rect>
<rect x="424" y="22" width="18" height="18" stroke="black" fill="red" fill-opacity="0.1" id="17">
<title>sprite_60</title>
</rect>
<rect x="442" y="22" width="18" height="18" stroke="black" fill="red" fill-opacity="0.1" id="18">
<title>sprite_61</title>
</rect>
<rect x="460" y="22" width="18" height="18" stroke="black" fill="red" fill-opacity="0.1" id="19">
<title>sprite_62</title>
</rect>
<rect x="30" y="40" width="30" height="30" stroke="black" fill="red" fill-opacity="0.1" id="20">
<title>sprite_63</title>
</rect>
<rect x="60" y="43" width="27" height="27" stroke="black" fill="red" fill-opacity="0.1" id="21">
<title>sprite_64</title>
</rect>
<rect x="87" y="44" width="42" height="26" stroke="black" fill="red" fill-opacity="0.1" id="22">
<title>sprite_65</title>
</rect>
<rect x="129" y="44" width="42" height="26" stroke="black" fill="red" fill-opacity="0.1" id="23">
<title>sprite_66</title>
</rect>
<rect x="171" y="48" width="90" height="22" stroke="black" fill="red" fill-opacity="0.1" id="24">
<title>sprite_67</title>
</rect>
<rect x="261" y="48" width="22" height="22" stroke="black" fill="red" fill-opacity="0.1" id="25">
<title>sprite_68</title>
</rect>
<rect x="283" y="48" width="22" height="22" stroke="black" fill="red" fill-opacity="0.1" id="26">
<title>sprite_69</title>
</rect>
<rect x="305" y="52" width="98" height="18" stroke="black" fill="red" fill-opacity="0.1" id="27">
<title>sprite_70</title>
</rect>
<rect x="403" y="52" width="90" height="18" stroke="black" fill="red" fill-opacity="0.1" id="28">
<title>sprite_71</title>
</rect>
<rect x="34" y="70" width="34" height="34" stroke="black" fill="red" fill-opacity="0.1" id="29">
<title>sprite_72</title>
</rect>
<rect x="68" y="70" width="34" height="34" stroke="black" fill="red" fill-opacity="0.1" id="30">
<title>sprite_73</title>
</rect>
<rect x="102" y="72" width="34" height="32" stroke="black" fill="red" fill-opacity="0.1" id="31">
<title>sprite_74</title>
</rect>
<rect x="136" y="72" width="34" height="32" stroke="black" fill="red" fill-opacity="0.1" id="32">
<title>sprite_75</title>
</rect>
<rect x="170" y="72" width="34" height="32" stroke="black" fill="red" fill-opacity="0.1" id="33">
<title>sprite_76</title>
</rect>
<rect x="204" y="72" width="34" height="32" stroke="black" fill="red" fill-opacity="0.1" id="34">
<title>sprite_77</title>
</rect>
<rect x="238" y="72" width="34" height="32" stroke="black" fill="red" fill-opacity="0.1" id="35">
<title>sprite_78</title>
</rect>
<rect x="272" y="72" width="34" height="32" stroke="black" fill="red" fill-opacity="0.1" id="36">
<title>sprite_79</title>
</rect>
<rect x="306" y="72" width="34" height="32" stroke="black" fill="red" fill-opacity="0.1" id="37">
<title>sprite_80</title>
</rect>
<rect x="340" y="72" width="34" height="32" stroke="black" fill="red" fill-opacity="0.1" id="38">
<title>sprite_81</title>
</rect>
<rect x="374" y="72" width="34" height="32" stroke="black" fill="red" fill-opacity="0.1" id="39">
<title>sprite_82</title>
</rect>
<rect x="408" y="72" width="34" height="32" stroke="black" fill="red" fill-opacity="0.1" id="40">
<title>sprite_83</title>
</rect>
<rect x="442" y="74" width="30" height="30" stroke="black" fill="red" fill-opacity="0.1" id="41">
<title>sprite_84</title>
</rect>
<rect x="472" y="74" width="30" height="30" stroke="black" fill="red" fill-opacity="0.1" id="42">
<title>sprite_85</title>
</rect>
<rect x="34" y="104" width="34" height="34" stroke="black" fill="red" fill-opacity="0.1" id="43">
<title>sprite_86</title>
</rect>
<rect x="68" y="104" width="34" height="34" stroke="black" fill="red" fill-opacity="0.1" id="44">
<title>sprite_87</title>
</rect>
<rect x="102" y="104" width="34" height="34" stroke="black" fill="red" fill-opacity="0.1" id="45">
<title>sprite_88</title>
</rect>
<rect x="136" y="104" width="34" height="34" stroke="black" fill="red" fill-opacity="0.1" id="46">
<title>sprite_89</title>
</rect>
<rect x="170" y="104" width="34" height="34" stroke="black" fill="red" fill-opacity="0.1" id="47">
<title>sprite_90</title>
</rect>
<rect x="204" y="104" width="34" height="34" stroke="black" fill="red" fill-opacity="0.1" id="48">
<title>sprite_91</title>
</rect>
<rect x="238" y="104" width="34" height="34" stroke="black" fill="red" fill-opacity="0.1" id="49">
<title>sprite_92</title>
</rect>
<rect x="272" y="104" width="34" height="34" stroke="black" fill="red" fill-opacity="0.1" id="50">
<title>sprite_93</title>
</rect>
<rect x="306" y="104" width="34" height="34" stroke="black" fill="red" fill-opacity="0.1" id="51">
<title>sprite_94</title>
</rect>
<rect x="340" y="104" width="34" height="34" stroke="black" fill="red" fill-opacity="0.1" id="52">
<title>sprite_95</title>
</rect>
<rect x="374" y="104" width="34" height="34" stroke="black" fill="red" fill-opacity="0.1" id="53">
<title>sprite_96</title>
</rect>
<rect x="408" y="104" width="34" height="34" stroke="black" fill="red" fill-opacity="0.1" id="54">
<title>sprite_97</title>
</rect>
<rect x="442" y="104" width="34" height="34" stroke="black" fill="red" fill-opacity="0.1" id="55">
<title>sprite_98</title>
</rect>
<rect x="476" y="104" width="34" height="34" stroke="black" fill="red" fill-opacity="0.1" id="56">
<title>sprite_99</title>
</rect>
<rect x="58" y="162" width="34" height="34" stroke="black" fill="red" fill-opacity="0.1" id="57">
<title>sprite_100</title>
</rect>
<rect x="92" y="162" width="34" height="34" stroke="black" fill="red" fill-opacity="0.1" id="58">
<title>sprite_101</title>
</rect>
<rect x="126" y="162" width="34" height="34" stroke="black" fill="red" fill-opacity="0.1" id="59">
<title>sprite_102</title>
</rect>
<rect x="160" y="162" width="34" height="34" stroke="black" fill="red" fill-opacity="0.1" id="60">
<title>sprite_103</title>
</rect>
<rect x="194" y="162" width="34" height="34" stroke="black" fill="red" fill-opacity="0.1" id="61">
<title>sprite_104</title>
</rect>
<rect x="228" y="162" width="34" height="34" stroke="black" fill="red" fill-opacity="0.1" id="62">
<title>sprite_105</title>
</rect>
<rect x="262" y="162" width="34" height="34" stroke="black" fill="red" fill-opacity="0.1" id="63">
<title>sprite_106</title>
</rect>
<rect x="296" y="162" width="34" height="34" stroke="black" fill="red" fill-opacity="0.1" id="64">
<title>sprite_107</title>
</rect>
<rect x="330" y="162" width="34" height="34" stroke="black" fill="red" fill-opacity="0.1" id="65">
<title>sprite_108</title>
</rect>
<rect x="364" y="162" width="34" height="34" stroke="black" fill="red" fill-opacity="0.1" id="66">
<title>sprite_109</title>
</rect>
<rect x="398" y="162" width="34" height="34" stroke="black" fill="red" fill-opacity="0.1" id="67">
<title>sprite_110</title>
</rect>
<rect x="432" y="162" width="34" height="34" stroke="black" fill="red" fill-opacity="0.1" id="68">
<title>sprite_111</title>
</rect>
<rect x="466" y="162" width="34" height="34" stroke="black" fill="red" fill-opacity="0.1" id="69">
<title>sprite_112</title>
</rect>
<rect x="60" y="196" width="60" height="60" stroke="black" fill="red" fill-opacity="0.1" id="70">
<title>sprite_113</title>
</rect>
<rect x="120" y="198" width="58" height="58" stroke="black" fill="red" fill-opacity="0.1" id="71">
<title>sprite_114</title>
</rect>
<rect x="178" y="198" width="58" height="58" stroke="black" fill="red" fill-opacity="0.1" id="72">
<title>sprite_115</title>
</rect>
<rect x="236" y="198" width="58" height="58" stroke="black" fill="red" fill-opacity="0.1" id="73">
<title>sprite_116</title>
</rect>
<rect x="294" y="198" width="58" height="58" stroke="black" fill="red" fill-opacity="0.1" id="74">
<title>sprite_117</title>
</rect>
<rect x="352" y="198" width="58" height="58" stroke="black" fill="red" fill-opacity="0.1" id="75">
<title>sprite_118</title>
</rect>
<rect x="410" y="198" width="58" height="58" stroke="black" fill="red" fill-opacity="0.1" id="76">
<title>sprite_119</title>
</rect>
<rect x="468" y="222" width="34" height="34" stroke="black" fill="red" fill-opacity="0.1" id="77">
<title>sprite_120</title>
</rect>
</svg>