<?xml version="1.0" encoding="UTF-8"?>
<svg xmlns="http://www.w3.org/2000/svg" xmlns:xlink="http://www.w3.org/1999/xlink"
     width="1024" height="1024" viewBox="0 0 1024 1024">
<defs>
</defs>
<rect x="0" y="972" width="120" height="52" stroke="black" fill="red" fill-opacity="0.1" />
<rect x="120" y="972" width="120" height="52" stroke="black" fill="red" fill-opacity="0.1" />
<rect x="240" y="972" width="120" height="52" stroke="black" fill="red" fill-opacity="0.1" />
<rect x="360" y="972" width="120" height="52" stroke="black" fill="red" fill-opacity="0.1" />
<rect x="480" y="972" width="120" height="52" stroke="black" fill="red" fill-opacity="0.1" />
<rect x="600" y="972" width="120" height="52" stroke="black" fill="red" fill-opacity="0.1" />
<rect x="720" y="972" width="120" height="52" stroke="black" fill="red" fill-opacity="0.1" />
<rect x="840" y="972" width="120" height="52" stroke="black" fill="red" fill-opacity="0.1" />
<rect x="0" y="920" width="120" height="52" stroke="black" fill="red" fill-opacity="0.1" />
<rect x="120" y="920" width="120" height="52" stroke="black" fill="red" fill-opacity="0.1" />
<rect x="240" y="920" width="120" height="52" stroke="black" fill="red" fill-opacity="0.1" />
<rect x="360" y="920" width="120" height="52" stroke="black" fill="red" fill-opacity="0.1" />
<rect x="480" y="920" width="120" height="52" stroke="black" fill="red" fill-opacity="0.1" />
<rect x="600" y="920" width="120" height="52" stroke="black" fill="red" fill-opacity="0.1" />
<rect x="720" y="920" width="120" height="52" stroke="black" fill="red" fill-opacity="0.1" />
<rect x="840" y="920" width="120" height="52" stroke="black" fill="red" fill-opacity="0.1" />
<rect x="0" y="868" width="120" height="52" stroke="black" fill="red" fill-opacity="0.1" />
<rect x="120" y="868" width="120" height="52" stroke="black" fill="red" fill-opacity="0.1" />
<rect x="240" y="868" width="120" height="52" stroke="black" fill="red" fill-opacity="0.1" />
<rect x="360" y="868" width="120" height="52" stroke="black" fill="red" fill-opacity="0.1" />
<rect x="480" y="868" width="120" height="52" stroke="black" fill="red" fill-opacity="0.1" />
<rect x="600" y="868" width="120" height="52" stroke="black" fill="red" fill-opacity="0.1" />
<rect x="720" y="868" width="120" height="52" stroke="black" fill="red" fill-opacity="0.1" />
<rect x="840" y="868" width="120" height="52" stroke="black" fill="red" fill-opacity="0.1" />
<rect x="0" y="816" width="120" height="52" stroke="black" fill="red" fill-opacity="0.1" />
<rect x="120" y="816" width="120" height="52" stroke="black" fill="red" fill-opacity="0.1" />
<rect x="240" y="816" width="120" height="52" stroke="black" fill="red" fill-opacity="0.1" />
<rect x="360" y="816" width="120" height="52" stroke="black" fill="red" fill-opacity="0.1" />
<rect x="480" y="816" width="120" height="52" stroke="black" fill="red" fill-opacity="0.1" />
<rect x="600" y="816" width="120" height="52" stroke="black" fill="red" fill-opacity="0.1" />
<rect x="720" y="816" width="120" height="52" stroke="black" fill="red" fill-opacity="0.1" />
<rect x="840" y="816" width="120" height="52" stroke="black" fill="red" fill-opacity="0.1" />
<rect x="0" y="764" width="120" height="52" stroke="black" fill="red" fill-opacity="0.1" />
<rect x="120" y="764" width="120" height="52" stroke="black" fill="red" fill-opacity="0.1" />
<rect x="240" y="764" width="120" height="52" stroke="black" fill="red" fill-opacity="0.1" />
<rect x="360" y="764" width="120" height="52" stroke="black" fill="red" fill-opacity="0.1" />
<rect x="480" y="764" width="120" height="52" stroke="black" fill="red" fill-opacity="0.1" />
<rect x="600" y="764" width="120" height="52" stroke="black" fill="red" fill-opacity="0.1" />
<rect x="720" y="764" width="120" height="52" stroke="black" fill="red" fill-opacity="0.1" />
<rect x="840" y="764" width="120" height="52" stroke="black" fill="red" fill-opacity="0.1" />
<rect x="0" y="712" width="120" height="52" stroke="black" fill="red" fill-opacity="0.1" />
<rect x="120" y="712" width="120" height="52" stroke="black" fill="red" fill-opacity="0.1" />
<rect x="240" y="712" width="120" height="52" stroke="black" fill="red" fill-opacity="0.1" />
<rect x="360" y="712" width="120" height="52" stroke="black" fill="red" fill-opacity="0.1" />
<rect x="480" y="712" width="120" height="52" stroke="black" fill="red" fill-opacity="0.1" />
<rect x="600" y="712" width="120" height="52" stroke="black" fill="red" fill-opacity="0.1" />
<rect x="720" y="712" width="120" height="52" stroke="black" fill="red" fill-opacity="0.1" />
<rect x="840" y="712" width="120" height="52" stroke="black" fill="red" fill-opacity="0.1" />
<rect x="0" y="660" width="120" height="52" stroke="black" fill="red" fill-opacity="0.1" />
<rect x="120" y="660" width="120" height="52" stroke="black" fill="red" fill-opacity="0.1" />
<rect x="240" y="660" width="120" height="52" stroke="black" fill="red" fill-opacity="0.1" />
<rect x="360" y="660" width="120" height="52" stroke="black" fill="red" fill-opacity="0.1" />
<rect x="480" y="660" width="120" height="52" stroke="black" fill="red" fill-opacity="0.1" />
<rect x="600" y="660" width="120" height="52" stroke="black" fill="red" fill-opacity="0.1" />
<rect x="720" y="660" width="120" height="52" stroke="black" fill="red" fill-opacity="0.1" />
<rect x="840" y="660" width="120" height="52" stroke="black" fill="red" fill-opacity="0.1" />
<rect x="0" y="608" width="120" height="52" stroke="black" fill="red" fill-opacity="0.1" />
<rect x="120" y="608" width="120" height="52" stroke="black" fill="red" fill-opacity="0.1" />
<rect x="240" y="608" width="120" height="52" stroke="black" fill="red" fill-opacity="0.1" />
<rect x="360" y="608" width="120" height="52" stroke="black" fill="red" fill-opacity="0.1" />
<rect x="480" y="608" width="120" height="52" stroke="black" fill="red" fill-opacity="0.1" />
<rect x="600" y="608" width="120" height="52" stroke="black" fill="red" fill-opacity="0.1" />
<rect x="720" y="608" width="120" height="52" stroke="black" fill="red" fill-opacity="0.1" />
<rect x="840" y="608" width="120" height="52" stroke="black" fill="red" fill-opacity="0.1" />
<rect x="0" y="556" width="120" height="52" stroke="black" fill="red" fill-opacity="0.1" />
<rect x="120" y="556" width="120" height="52" stroke="black" fill="red" fill-opacity="0.1" />
<rect x="240" y="556" width="120" height="52" stroke="black" fill="red" fill-opacity="0.1" />
<rect x="360" y="556" width="120" height="52" stroke="black" fill="red" fill-opacity="0.1" />
<rect x="480" y="556" width="120" height="52" stroke="black" fill="red" fill-opacity="0.1" />
<rect x="600" y="556" width="120" height="52" stroke="black" fill="red" fill-opacity="0.1" />
<rect x="720" y="556" width="120" height="52" stroke="black" fill="red" fill-opacity="0.1" />
<rect x="840" y="556" width="120" height="52" stroke="black" fill="red" fill-opacity="0.1" />
<rect x="0" y="504" width="120" height="52" stroke="black" fill="red" fill-opacity="0.1" />
<rect x="120" y="504" width="120" height="52" stroke="black" fill="red" fill-opacity="0.1" />
<rect x="240" y="504" width="120" height="52" stroke="black" fill="red" fill-opacity="0.1" />
<rect x="360" y="504" width="120" height="52" stroke="black" fill="red" fill-opacity="0.1" />
<rect x="480" y="504" width="120" height="52" stroke="black" fill="red" fill-opacity="0.1" />
<rect x="600" y="504" width="120" height="52" stroke="black" fill="red" fill-opacity="0.1" />
<rect x="720" y="504" width="120" height="52" stroke="black" fill="red" fill-opacity="0.1" />
<rect x="840" y="504" width="120" height="52" stroke="black" fill="red" fill-opacity="0.1" />
<rect x="0" y="452" width="120" height="52" stroke="black" fill="red" fill-opacity="0.1" />
<rect x="120" y="452" width="120" height="52" stroke="black" fill="red" fill-opacity="0.1" />
<rect x="240" y="452" width="120" height="52" stroke="black" fill="red" fill-opacity="0.1" />
<rect x="360" y="452" width="120" height="52" stroke="black" fill="red" fill-opacity="0.1" />
<rect x="480" y="452" width="120" height="52" stroke="black" fill="red" fill-opacity="0.1" />
<rect x="600" y="452" width="120" height="52" stroke="black" fill="red" fill-opacity="0.1" />
<rect x="720" y="452" width="120" height="52" stroke="black" fill="red" fill-opacity="0.1" />
<rect x="840" y="452" width="120" height="52" stroke="black" fill="red" fill-opacity="0.1" />
<rect x="0" y="400" width="120" height="52" stroke="black" fill="red" fill-opacity="0.1" />
<rect x="120" y="400" width="120" height="52" stroke="black" fill="red" fill-opacity="0.1" />
<rect x="240" y="400" width="120" height="52" stroke="black" fill="red" fill-opacity="0.1" />
<rect x="360" y="400" width="120" height="52" stroke="black" fill="red" fill-opacity="0.1" />
<rect x="480" y="400" width="120" height="52" stroke="black" fill="red" fill-opacity="0.1" />
<rect x="600" y="400" width="120" height="52" stroke="black" fill="red" fill-opacity="0.1" />
<rect x="720" y="400" width="120" height="52" stroke="black" fill="red" fill-opacity="0.1" />
<rect x="840" y="400" width="120" height="52" stroke="black" fill="red" fill-opacity="0.1" />
<rect x="0" y="348" width="120" height="52" stroke="black" fill="red" fill-opacity="0.1" />
<rect x="120" y="348" width="120" height="52" stroke="black" fill="red" fill-opacity="0.1" />
<rect x="240" y="348" width="120" height="52" stroke="black" fill="red" fill-opacity="0.1" />
<rect x="360" y="348" width="120" height="52" stroke="black" fill="red" fill-opacity="0.1" />
<rect x="480" y="348" width="120" height="52" stroke="black" fill="red" fill-opacity="0.1" />
<rect x="600" y="348" width="120" height="52" stroke="black" fill="red" fill-opacity="0.1" />
<rect x="720" y="348" width="120" height="52" stroke="black" fill="red" fill-opacity="0.1" />
<rect x="840" y="348" width="120" height="52" stroke="black" fill="red" fill-opacity="0.1" />
<rect x="0" y="296" width="120" height="52" stroke="black" fill="red" fill-opacity="0.1" />
<rect x="120" y="296" width="120" height="52" stroke="black" fill="red" fill-opacity="0.1" />
<rect x="240" y="296" width="120" height="52" stroke="black" fill="red" fill-opacity="0.1" />
<rect x="360" y="296" width="120" height="52" stroke="black" fill="red" fill-opacity="0.1" />
<rect x="480" y="296" width="120" height="52" stroke="black" fill="red" fill-opacity="0.1" />
<rect x="600" y="296" width="120" height="52" stroke="black" fill="red" fill-opacity="0.1" />
<rect x="720" y="296" width="120" height="52" stroke="black" fill="red" fill-opacity="0.1" />
<rect x="840" y="296" width="120" height="52" stroke="black" fill="red" fill-opacity="0.1" />
<rect x="0" y="244" width="120" height="52" stroke="black" fill="red" fill-opacity="0.1" />
<rect x="120" y="244" width="120" height="52" stroke="black" fill="red" fill-opacity="0.1" />
<rect x="240" y="244" width="120" height="52" stroke="black" fill="red" fill-opacity="0.1" />
<rect x="360" y="244" width="120" height="52" stroke="black" fill="red" fill-opacity="0.1" />
<rect x="480" y="244" width="120" height="52" stroke="black" fill="red" fill-opacity="0.1" />
</svg>