<?xml version="1.0" encoding="UTF-8"?>
<svg xmlns="http://www.w3.org/2000/svg" xmlns:xlink="http://www.w3.org/1999/xlink"
     width="1024" height="1024" viewBox="0 0 1024 1024">
<defs>
</defs>
<rect x="0" y="972" width="120" height="52" stroke="black" fill="red" fill-opacity="0.1" id="0">
<title>sprite_161</title>
</rect>
<rect x="120" y="972" width="120" height="52" stroke="black" fill="red" fill-opacity="0.1" id="1">
<title>sprite_162</title>
</rect>
<rect x="240" y="972" width="120" height="52" stroke="black" fill="red" fill-opacity="0.1" id="2">
<title>sprite_163</title>
</rect>
<rect x="360" y="972" width="120" height="52" stroke="black" fill="red" fill-opacity="0.1" id="3">
<title>sprite_164</title>
</rect>
<rect x="480" y="972" width="120" height="52" stroke="black" fill="red" fill-opacity="0.1" id="4">
<title>sprite_165</title>
</rect>
<rect x="600" y="972" width="120" height="52" stroke="black" fill="red" fill-opacity="0.1" id="5">
<title>sprite_166</title>
</rect>
<rect x="720" y="972" width="120" height="52" stroke="black" fill="red" fill-opacity="0.1" id="6">
<title>sprite_167</title>
</rect>
<rect x="840" y="972" width="120" height="52" stroke="black" fill="red" fill-opacity="0.1" id="7">
<title>sprite_168</title>
</rect>
<rect x="0" y="920" width="120" height="52" stroke="black" fill="red" fill-opacity="0.1" id="8">
<title>sprite_169</title>
</rect>
<rect x="120" y="920" width="120" height="52" stroke="black" fill="red" fill-opacity="0.1" id="9">
<title>sprite_170</title>
</rect>
<rect x="240" y="920" width="120" height="52" stroke="black" fill="red" fill-opacity="0.1" id="10">
<title>sprite_171</title>
</rect>
<rect x="360" y="920" width="120" height="52" stroke="black" fill="red" fill-opacity="0.1" id="11">
<title>sprite_172</title>
</rect>
<rect x="480" y="920" width="120" height="52" stroke="black" fill="red" fill-opacity="0.1" id="12">
<title>sprite_173</title>
</rect>
<rect x="600" y="920" width="120" height="52" stroke="black" fill="red" fill-opacity="0.1" id="13">
<title>sprite_174</title>
</rect>
<rect x="720" y="920" width="120" height="52" stroke="black" fill="red" fill-opacity="0.1" id="14">
<title>sprite_175</title>
</rect>
<rect x="840" y="920" width="120" height="52" stroke="black" fill="red" fill-opacity="0.1" id="15">
<title>sprite_176</title>
</rect>
<rect x="0" y="868" width="120" height="52" stroke="black" fill="red" fill-opacity="0.1" id="16">
<title>sprite_177</title>
</rect>
<rect x="120" y="868" width="120" height="52" stroke="black" fill="red" fill-opacity="0.1" id="17">
<title>sprite_178</title>
</rect>
<rect x="240" y="868" width="120" height="52" stroke="black" fill="red" fill-opacity="0.1" id="18">
<title>sprite_179</title>
</rect>
<rect x="360" y="868" width="120" height="52" stroke="black" fill="red" fill-opacity="0.1" id="19">
<title>sprite_180</title>
</rect>
<rect x="480" y="868" width="120" height="52" stroke="black" fill="red" fill-opacity="0.1" id="20">
<title>sprite_181</title>
</rect>
<rect x="600" y="868" width="120" height="52" stroke="black" fill="red" fill-opacity="0.1" id="21">
<title>sprite_182</title>
</rect>
<rect x="720" y="868" width="120" height="52" stroke="black" fill="red" fill-opacity="0.1" id="22">
<title>sprite_183</title>
</rect>
<rect x="840" y="868" width="120" height="52" stroke="black" fill="red" fill-opacity="0.1" id="23">
<title>sprite_184</title>
</rect>
<rect x="0" y="816" width="120" height="52" stroke="black" fill="red" fill-opacity="0.1" id="24">
<title>sprite_185</title>
</rect>
<rect x="120" y="816" width="120" height="52" stroke="black" fill="red" fill-opacity="0.1" id="25">
<title>sprite_186</title>
</rect>
<rect x="240" y="816" width="120" height="52" stroke="black" fill="red" fill-opacity="0.1" id="26">
<title>sprite_187</title>
</rect>
<rect x="360" y="816" width="120" height="52" stroke="black" fill="red" fill-opacity="0.1" id="27">
<title>sprite_188</title>
</rect>
<rect x="480" y="816" width="120" height="52" stroke="black" fill="red" fill-opacity="0.1" id="28">
<title>sprite_189</title>
</rect>
<rect x="600" y="816" width="120" height="52" stroke="black" fill="red" fill-opacity="0.1" id="29">
<title>sprite_190</title>
</rect>
<rect x="720" y="816" width="120" height="52" stroke="black" fill="red" fill-opacity="0.1" id="30">
<title>sprite_191</title>
</rect>
<rect x="840" y="816" width="120" height="52" stroke="black" fill="red" fill-opacity="0.1" id="31">
<title>sprite_192</title>
</rect>
<rect x="0" y="764" width="120" height="52" stroke="black" fill="red" fill-opacity="0.1" id="32">
<title>sprite_193</title>
</rect>
<rect x="120" y="764" width="120" height="52" stroke="black" fill="red" fill-opacity="0.1" id="33">
<title>sprite_194</title>
</rect>
<rect x="240" y="764" width="120" height="52" stroke="black" fill="red" fill-opacity="0.1" id="34">
<title>sprite_195</title>
</rect>
<rect x="360" y="764" width="120" height="52" stroke="black" fill="red" fill-opacity="0.1" id="35">
<title>sprite_196</title>
</rect>
<rect x="480" y="764" width="120" height="52" stroke="black" fill="red" fill-opacity="0.1" id="36">
<title>sprite_197</title>
</rect>
<rect x="600" y="764" width="120" height="52" stroke="black" fill="red" fill-opacity="0.1" id="37">
<title>sprite_198</title>
</rect>
<rect x="720" y="764" width="120" height="52" stroke="black" fill="red" fill-opacity="0.1" id="38">
<title>sprite_199</title>
</rect>
<rect x="840" y="764" width="120" height="52" stroke="black" fill="red" fill-opacity="0.1" id="39">
<title>sprite_200</title>
</rect>
<rect x="0" y="712" width="120" height="52" stroke="black" fill="red" fill-opacity="0.1" id="40">
<title>sprite_201</title>
</rect>
<rect x="120" y="712" width="120" height="52" stroke="black" fill="red" fill-opacity="0.1" id="41">
<title>sprite_202</title>
</rect>
<rect x="240" y="712" width="120" height="52" stroke="black" fill="red" fill-opacity="0.1" id="42">
<title>sprite_203</title>
</rect>
<rect x="360" y="712" width="120" height="52" stroke="black" fill="red" fill-opacity="0.1" id="43">
<title>sprite_204</title>
</rect>
<rect x="480" y="712" width="120" height="52" stroke="black" fill="red" fill-opacity="0.1" id="44">
<title>sprite_205</title>
</rect>
<rect x="600" y="712" width="120" height="52" stroke="black" fill="red" fill-opacity="0.1" id="45">
<title>sprite_206</title>
</rect>
<rect x="720" y="712" width="120" height="52" stroke="black" fill="red" fill-opacity="0.1" id="46">
<title>sprite_207</title>
</rect>
<rect x="840" y="712" width="120" height="52" stroke="black" fill="red" fill-opacity="0.1" id="47">
<title>sprite_208</title>
</rect>
<rect x="0" y="660" width="120" height="52" stroke="black" fill="red" fill-opacity="0.1" id="48">
<title>sprite_209</title>
</rect>
<rect x="120" y="660" width="120" height="52" stroke="black" fill="red" fill-opacity="0.1" id="49">
<title>sprite_210</title>
</rect>
<rect x="240" y="660" width="120" height="52" stroke="black" fill="red" fill-opacity="0.1" id="50">
<title>sprite_211</title>
</rect>
<rect x="360" y="660" width="120" height="52" stroke="black" fill="red" fill-opacity="0.1" id="51">
<title>sprite_212</title>
</rect>
<rect x="480" y="660" width="120" height="52" stroke="black" fill="red" fill-opacity="0.1" id="52">
<title>sprite_213</title>
</rect>
<rect x="600" y="660" width="120" height="52" stroke="black" fill="red" fill-opacity="0.1" id="53">
<title>sprite_214</title>
</rect>
<rect x="720" y="660" width="120" height="52" stroke="black" fill="red" fill-opacity="0.1" id="54">
<title>sprite_215</title>
</rect>
<rect x="840" y="660" width="120" height="52" stroke="black" fill="red" fill-opacity="0.1" id="55">
<title>sprite_216</title>
</rect>
<rect x="0" y="608" width="120" height="52" stroke="black" fill="red" fill-opacity="0.1" id="56">
<title>sprite_217</title>
</rect>
<rect x="120" y="608" width="120" height="52" stroke="black" fill="red" fill-opacity="0.1" id="57">
<title>sprite_218</title>
</rect>
<rect x="240" y="608" width="120" height="52" stroke="black" fill="red" fill-opacity="0.1" id="58">
<title>sprite_219</title>
</rect>
<rect x="360" y="608" width="120" height="52" stroke="black" fill="red" fill-opacity="0.1" id="59">
<title>sprite_220</title>
</rect>
<rect x="480" y="608" width="120" height="52" stroke="black" fill="red" fill-opacity="0.1" id="60">
<title>sprite_221</title>
</rect>
<rect x="600" y="608" width="120" height="52" stroke="black" fill="red" fill-opacity="0.1" id="61">
<title>sprite_222</title>
</rect>
<rect x="720" y="608" width="120" height="52" stroke="black" fill="red" fill-opacity="0.1" id="62">
<title>sprite_223</title>
</rect>
<rect x="840" y="608" width="120" height="52" stroke="black" fill="red" fill-opacity="0.1" id="63">
<title>sprite_224</title>
</rect>
<rect x="0" y="556" width="120" height="52" stroke="black" fill="red" fill-opacity="0.1" id="64">
<title>sprite_225</title>
</rect>
<rect x="120" y="556" width="120" height="52" stroke="black" fill="red" fill-opacity="0.1" id="65">
<title>sprite_226</title>
</rect>
<rect x="240" y="556" width="120" height="52" stroke="black" fill="red" fill-opacity="0.1" id="66">
<title>sprite_227</title>
</rect>
<rect x="360" y="556" width="120" height="52" stroke="black" fill="red" fill-opacity="0.1" id="67">
<title>sprite_228</title>
</rect>
<rect x="480" y="556" width="120" height="52" stroke="black" fill="red" fill-opacity="0.1" id="68">
<title>sprite_229</title>
</rect>
<rect x="600" y="556" width="120" height="52" stroke="black" fill="red" fill-opacity="0.1" id="69">
<title>sprite_230</title>
</rect>
<rect x="720" y="556" width="120" height="52" stroke="black" fill="red" fill-opacity="0.1" id="70">
<title>sprite_231</title>
</rect>
<rect x="840" y="556" width="120" height="52" stroke="black" fill="red" fill-opacity="0.1" id="71">
<title>sprite_232</title>
</rect>
<rect x="0" y="504" width="120" height="52" stroke="black" fill="red" fill-opacity="0.1" id="72">
<title>sprite_233</title>
</rect>
<rect x="120" y="504" width="120" height="52" stroke="black" fill="red" fill-opacity="0.1" id="73">
<title>sprite_234</title>
</rect>
<rect x="240" y="504" width="120" height="52" stroke="black" fill="red" fill-opacity="0.1" id="74">
<title>sprite_235</title>
</rect>
<rect x="360" y="504" width="120" height="52" stroke="black" fill="red" fill-opacity="0.1" id="75">
<title>sprite_236</title>
</rect>
<rect x="480" y="504" width="120" height="52" stroke="black" fill="red" fill-opacity="0.1" id="76">
<title>sprite_237</title>
</rect>
<rect x="600" y="504" width="120" height="52" stroke="black" fill="red" fill-opacity="0.1" id="77">
<title>sprite_238</title>
</rect>
<rect x="720" y="504" width="120" height="52" stroke="black" fill="red" fill-opacity="0.1" id="78">
<title>sprite_239</title>
</rect>
<rect x="840" y="504" width="120" height="52" stroke="black" fill="red" fill-opacity="0.1" id="79">
<title>sprite_240</title>
</rect>
<rect x="0" y="452" width="120" height="52" stroke="black" fill="red" fill-opacity="0.1" id="80">
<title>sprite_241</title>
</rect>
<rect x="120" y="452" width="120" height="52" stroke="black" fill="red" fill-opacity="0.1" id="81">
<title>sprite_242</title>
</rect>
<rect x="240" y="452" width="120" height="52" stroke="black" fill="red" fill-opacity="0.1" id="82">
<title>sprite_243</title>
</rect>
<rect x="360" y="452" width="120" height="52" stroke="black" fill="red" fill-opacity="0.1" id="83">
<title>sprite_244</title>
</rect>
<rect x="480" y="452" width="120" height="52" stroke="black" fill="red" fill-opacity="0.1" id="84">
<title>sprite_245</title>
</rect>
<rect x="600" y="452" width="120" height="52" stroke="black" fill="red" fill-opacity="0.1" id="85">
<title>sprite_246</title>
</rect>
<rect x="720" y="452" width="120" height="52" stroke="black" fill="red" fill-opacity="0.1" id="86">
<title>sprite_247</title>
</rect>
<rect x="840" y="452" width="120" height="52" stroke="black" fill="red" fill-opacity="0.1" id="87">
<title>sprite_248</title>
</rect>
<rect x="0" y="400" width="120" height="52" stroke="black" fill="red" fill-opacity="0.1" id="88">
<title>sprite_249</title>
</rect>
<rect x="120" y="400" width="120" height="52" stroke="black" fill="red" fill-opacity="0.1" id="89">
<title>sprite_250</title>
</rect>
<rect x="240" y="400" width="120" height="52" stroke="black" fill="red" fill-opacity="0.1" id="90">
<title>sprite_251</title>
</rect>
<rect x="360" y="400" width="120" height="52" stroke="black" fill="red" fill-opacity="0.1" id="91">
<title>sprite_252</title>
</rect>
<rect x="480" y="400" width="120" height="52" stroke="black" fill="red" fill-opacity="0.1" id="92">
<title>sprite_253</title>
</rect>
<rect x="600" y="400" width="120" height="52" stroke="black" fill="red" fill-opacity="0.1" id="93">
<title>sprite_254</title>
</rect>
<rect x="720" y="400" width="120" height="52" stroke="black" fill="red" fill-opacity="0.1" id="94">
<title>sprite_255</title>
</rect>
<rect x="840" y="400" width="120" height="52" stroke="black" fill="red" fill-opacity="0.1" id="95">
<title>sprite_256</title>
</rect>
<rect x="0" y="348" width="120" height="52" stroke="black" fill="red" fill-opacity="0.1" id="96">
<title>sprite_257</title>
</rect>
<rect x="120" y="348" width="120" height="52" stroke="black" fill="red" fill-opacity="0.1" id="97">
<title>sprite_258</title>
</rect>
<rect x="240" y="348" width="120" height="52" stroke="black" fill="red" fill-opacity="0.1" id="98">
<title>sprite_259</title>
</rect>
<rect x="360" y="348" width="120" height="52" stroke="black" fill="red" fill-opacity="0.1" id="99">
<title>sprite_260</title>
</rect>
<rect x="480" y="348" width="120" height="52" stroke="black" fill="red" fill-opacity="0.1" id="100">
<title>sprite_261</title>
</rect>
<rect x="600" y="348" width="120" height="52" stroke="black" fill="red" fill-opacity="0.1" id="101">
<title>sprite_262</title>
</rect>
<rect x="720" y="348" width="120" height="52" stroke="black" fill="red" fill-opacity="0.1" id="102">
<title>sprite_263</title>
</rect>
<rect x="840" y="348" width="120" height="52" stroke="black" fill="red" fill-opacity="0.1" id="103">
<title>sprite_264</title>
</rect>
<rect x="0" y="296" width="120" height="52" stroke="black" fill="red" fill-opacity="0.1" id="104">
<title>sprite_265</title>
</rect>
<rect x="120" y="296" width="120" height="52" stroke="black" fill="red" fill-opacity="0.1" id="105">
<title>sprite_266</title>
</rect>
<rect x="240" y="296" width="120" height="52" stroke="black" fill="red" fill-opacity="0.1" id="106">
<title>sprite_267</title>
</rect>
<rect x="360" y="296" width="120" height="52" stroke="black" fill="red" fill-opacity="0.1" id="107">
<title>sprite_268</title>
</rect>
<rect x="480" y="296" width="120" height="52" stroke="black" fill="red" fill-opacity="0.1" id="108">
<title>sprite_269</title>
</rect>
<rect x="600" y="296" width="120" height="52" stroke="black" fill="red" fill-opacity="0.1" id="109">
<title>sprite_270</title>
</rect>
<rect x="720" y="296" width="120" height="52" stroke="black" fill="red" fill-opacity="0.1" id="110">
<title>sprite_271</title>
</rect>
<rect x="840" y="296" width="120" height="52" stroke="black" fill="red" fill-opacity="0.1" id="111">
<title>sprite_272</title>
</rect>
<rect x="0" y="244" width="120" height="52" stroke="black" fill="red" fill-opacity="0.1" id="112">
<title>sprite_273</title>
</rect>
<rect x="120" y="244" width="120" height="52" stroke="black" fill="red" fill-opacity="0.1" id="113">
<title>sprite_274</title>
</rect>
<rect x="240" y="244" width="120" height="52" stroke="black" fill="red" fill-opacity="0.1" id="114">
<title>sprite_275</title>
</rect>
<rect x="360" y="244" width="120" height="52" stroke="black" fill="red" fill-opacity="0.1" id="115">
<title>sprite_276</title>
</rect>
<rect x="480" y="244" width="120" height="52" stroke="black" fill="red" fill-opacity="0.1" id="116">
<title>sprite_277</title>
</rect>
</svg>