<?xml version="1.0" encoding="UTF-8"?>
<svg xmlns="http://www.w3.org/2000/svg" xmlns:xlink="http://www.w3.org/1999/xlink"
     width="256" height="256" viewBox="0 0 256 256">
<defs>
</defs>
<rect x="0" y="216" width="40" height="40" stroke="black" fill="red" fill-opacity="0.1" id="0">
<title>sprite_582</title>
</rect>
<rect x="40" y="216" width="40" height="40" stroke="black" fill="red" fill-opacity="0.1" id="1">
<title>sprite_583</title>
</rect>
<rect x="80" y="216" width="40" height="40" stroke="black" fill="red" fill-opacity="0.1" id="2">
<title>sprite_584</title>
</rect>
<rect x="120" y="216" width="40" height="40" stroke="black" fill="red" fill-opacity="0.1" id="3">
<title>sprite_585</title>
</rect>
<rect x="160" y="216" width="40" height="40" stroke="black" fill="red" fill-opacity="0.1" id="4">
<title>sprite_586</title>
</rect>
<rect x="200" y="216" width="40" height="40" stroke="black" fill="red" fill-opacity="0.1" id="5">
<title>sprite_587</title>
</rect>
<rect x="0" y="176" width="40" height="40" stroke="black" fill="red" fill-opacity="0.1" id="6">
<title>sprite_588</title>
</rect>
<rect x="40" y="176" width="40" height="40" stroke="black" fill="red" fill-opacity="0.1" id="7">
<title>sprite_589</title>
</rect>
<rect x="80" y="176" width="40" height="40" stroke="black" fill="red" fill-opacity="0.1" id="8">
<title>sprite_590</title>
</rect>
<rect x="120" y="176" width="40" height="40" stroke="black" fill="red" fill-opacity="0.1" id="9">
<title>sprite_591</title>
</rect>
<rect x="160" y="176" width="40" height="40" stroke="black" fill="red" fill-opacity="0.1" id="10">
<title>sprite_592</title>
</rect>
<rect x="200" y="176" width="40" height="40" stroke="black" fill="red" fill-opacity="0.1" id="11">
<title>sprite_593</title>
</rect>
<rect x="0" y="136" width="40" height="40" stroke="black" fill="red" fill-opacity="0.1" id="12">
<title>sprite_594</title>
</rect>
<rect x="40" y="136" width="40" height="40" stroke="black" fill="red" fill-opacity="0.1" id="13">
<title>sprite_595</title>
</rect>
<rect x="80" y="136" width="40" height="40" stroke="black" fill="red" fill-opacity="0.1" id="14">
<title>sprite_596</title>
</rect>
<rect x="120" y="136" width="40" height="40" stroke="black" fill="red" fill-opacity="0.1" id="15">
<title>sprite_597</title>
</rect>
<rect x="160" y="136" width="40" height="40" stroke="black" fill="red" fill-opacity="0.1" id="16">
<title>sprite_598</title>
</rect>
<rect x="200" y="136" width="40" height="40" stroke="black" fill="red" fill-opacity="0.1" id="17">
<title>sprite_599</title>
</rect>
<rect x="0" y="96" width="40" height="40" stroke="black" fill="red" fill-opacity="0.1" id="18">
<title>sprite_600</title>
</rect>
<rect x="40" y="96" width="40" height="40" stroke="black" fill="red" fill-opacity="0.1" id="19">
<title>sprite_601</title>
</rect>
<rect x="80" y="96" width="40" height="40" stroke="black" fill="red" fill-opacity="0.1" id="20">
<title>sprite_602</title>
</rect>
<rect x="120" y="96" width="40" height="40" stroke="black" fill="red" fill-opacity="0.1" id="21">
<title>sprite_603</title>
</rect>
<rect x="160" y="96" width="40" height="40" stroke="black" fill="red" fill-opacity="0.1" id="22">
<title>sprite_604</title>
</rect>
<rect x="200" y="96" width="40" height="40" stroke="black" fill="red" fill-opacity="0.1" id="23">
<title>sprite_605</title>
</rect>
<rect x="0" y="56" width="40" height="40" stroke="black" fill="red" fill-opacity="0.1" id="24">
<title>sprite_606</title>
</rect>
<rect x="40" y="56" width="40" height="40" stroke="black" fill="red" fill-opacity="0.1" id="25">
<title>sprite_607</title>
</rect>
<rect x="80" y="56" width="40" height="40" stroke="black" fill="red" fill-opacity="0.1" id="26">
<title>sprite_608</title>
</rect>
<rect x="120" y="56" width="40" height="40" stroke="black" fill="red" fill-opacity="0.1" id="27">
<title>sprite_609</title>
</rect>
<rect x="160" y="56" width="40" height="40" stroke="black" fill="red" fill-opacity="0.1" id="28">
<title>sprite_610</title>
</rect>
<rect x="200" y="56" width="40" height="40" stroke="black" fill="red" fill-opacity="0.1" id="29">
<title>sprite_611</title>
</rect>
</svg>