<?xml version="1.0" encoding="UTF-8"?>
<svg xmlns="http://www.w3.org/2000/svg" xmlns:xlink="http://www.w3.org/1999/xlink"
     width="512" height="512" viewBox="0 0 512 512">
<defs>
</defs>
<rect x="0" y="472" width="488" height="40" stroke="black" fill="red" fill-opacity="0.1" />
<rect x="0" y="437" width="145" height="35" stroke="black" fill="red" fill-opacity="0.1" />
<rect x="145" y="440" width="43" height="32" stroke="black" fill="red" fill-opacity="0.1" />
<rect x="188" y="440" width="43" height="32" stroke="black" fill="red" fill-opacity="0.1" />
<rect x="231" y="444" width="177" height="28" stroke="black" fill="red" fill-opacity="0.1" />
<rect x="0" y="409" width="177" height="28" stroke="black" fill="red" fill-opacity="0.1" />
<rect x="177" y="409" width="177" height="28" stroke="black" fill="red" fill-opacity="0.1" />
<rect x="0" y="381" width="177" height="28" stroke="black" fill="red" fill-opacity="0.1" />
<rect x="177" y="381" width="177" height="28" stroke="black" fill="red" fill-opacity="0.1" />
<rect x="0" y="359" width="324" height="22" stroke="black" fill="red" fill-opacity="0.1" />
<rect x="0" y="337" width="264" height="22" stroke="black" fill="red" fill-opacity="0.1" />
<rect x="0" y="315" width="264" height="22" stroke="black" fill="red" fill-opacity="0.1" />
<rect x="0" y="293" width="261" height="22" stroke="black" fill="red" fill-opacity="0.1" />
<rect x="0" y="271" width="259" height="22" stroke="black" fill="red" fill-opacity="0.1" />
<rect x="0" y="249" width="259" height="22" stroke="black" fill="red" fill-opacity="0.1" />
<rect x="264" y="337" width="235" height="22" stroke="black" fill="red" fill-opacity="0.1" />
<rect x="264" y="315" width="233" height="22" stroke="black" fill="red" fill-opacity="0.1" />
<rect x="261" y="293" width="208" height="22" stroke="black" fill="red" fill-opacity="0.1" />
<rect x="259" y="271" width="205" height="22" stroke="black" fill="red" fill-opacity="0.1" />
<rect x="324" y="359" width="187" height="22" stroke="black" fill="red" fill-opacity="0.1" />
</svg>