<?xml version="1.0" encoding="UTF-8"?>
<svg xmlns="http://www.w3.org/2000/svg" xmlns:xlink="http://www.w3.org/1999/xlink"
     width="2048" height="2048" viewBox="0 0 2048 2048">
<defs>
</defs>
<rect x="0" y="1160" width="748" height="888" stroke="black" fill="red" fill-opacity="0.1" id="0">
<title>sprite_310</title>
</rect>
<rect x="748" y="1160" width="748" height="888" stroke="black" fill="red" fill-opacity="0.1" id="1">
<title>sprite_311</title>
</rect>
<rect x="0" y="272" width="748" height="888" stroke="black" fill="red" fill-opacity="0.1" id="2">
<title>sprite_312</title>
</rect>
<rect x="748" y="1024" width="136" height="136" stroke="black" fill="red" fill-opacity="0.1" id="3">
<title>sprite_313</title>
</rect>
<rect x="884" y="1040" width="148" height="120" stroke="black" fill="red" fill-opacity="0.1" id="4">
<title>sprite_314</title>
</rect>
<rect x="1032" y="1040" width="148" height="120" stroke="black" fill="red" fill-opacity="0.1" id="5">
<title>sprite_315</title>
</rect>
<rect x="1180" y="1040" width="148" height="120" stroke="black" fill="red" fill-opacity="0.1" id="6">
<title>sprite_316</title>
</rect>
<rect x="1328" y="1040" width="148" height="120" stroke="black" fill="red" fill-opacity="0.1" id="7">
<title>sprite_317</title>
</rect>
<rect x="1476" y="1040" width="148" height="120" stroke="black" fill="red" fill-opacity="0.1" id="8">
<title>sprite_318</title>
</rect>
<rect x="1624" y="1040" width="148" height="120" stroke="black" fill="red" fill-opacity="0.1" id="9">
<title>sprite_319</title>
</rect>
<rect x="1772" y="1040" width="148" height="120" stroke="black" fill="red" fill-opacity="0.1" id="10">
<title>sprite_320</title>
</rect>
<rect x="1496" y="1928" width="148" height="120" stroke="black" fill="red" fill-opacity="0.1" id="11">
<title>sprite_321</title>
</rect>
<rect x="1644" y="1928" width="148" height="120" stroke="black" fill="red" fill-opacity="0.1" id="12">
<title>sprite_322</title>
</rect>
<rect x="1792" y="1928" width="148" height="120" stroke="black" fill="red" fill-opacity="0.1" id="13">
<title>sprite_323</title>
</rect>
<rect x="0" y="152" width="148" height="120" stroke="black" fill="red" fill-opacity="0.1" id="14">
<title>sprite_324</title>
</rect>
<rect x="148" y="152" width="148" height="120" stroke="black" fill="red" fill-opacity="0.1" id="15">
<title>sprite_325</title>
</rect>
<rect x="296" y="152" width="148" height="120" stroke="black" fill="red" fill-opacity="0.1" id="16">
<title>sprite_326</title>
</rect>
<rect x="444" y="152" width="148" height="120" stroke="black" fill="red" fill-opacity="0.1" id="17">
<title>sprite_327</title>
</rect>
<rect x="592" y="152" width="148" height="120" stroke="black" fill="red" fill-opacity="0.1" id="18">
<title>sprite_328</title>
</rect>
<rect x="740" y="152" width="148" height="120" stroke="black" fill="red" fill-opacity="0.1" id="19">
<title>sprite_329</title>
</rect>
<rect x="888" y="176" width="88" height="96" stroke="black" fill="red" fill-opacity="0.1" id="20">
<title>sprite_330</title>
</rect>
<rect x="976" y="176" width="88" height="96" stroke="black" fill="red" fill-opacity="0.1" id="21">
<title>sprite_331</title>
</rect>
<rect x="1064" y="176" width="88" height="96" stroke="black" fill="red" fill-opacity="0.1" id="22">
<title>sprite_332</title>
</rect>
<rect x="1152" y="176" width="84" height="96" stroke="black" fill="red" fill-opacity="0.1" id="23">
<title>sprite_333</title>
</rect>
<rect x="1236" y="176" width="84" height="96" stroke="black" fill="red" fill-opacity="0.1" id="24">
<title>sprite_334</title>
</rect>
<rect x="1320" y="176" width="80" height="96" stroke="black" fill="red" fill-opacity="0.1" id="25">
<title>sprite_335</title>
</rect>
<rect x="1400" y="176" width="72" height="96" stroke="black" fill="red" fill-opacity="0.1" id="26">
<title>sprite_336</title>
</rect>
<rect x="1472" y="180" width="88" height="92" stroke="black" fill="red" fill-opacity="0.1" id="27">
<title>sprite_337</title>
</rect>
<rect x="1560" y="180" width="88" height="92" stroke="black" fill="red" fill-opacity="0.1" id="28">
<title>sprite_338</title>
</rect>
<rect x="1648" y="180" width="84" height="92" stroke="black" fill="red" fill-opacity="0.1" id="29">
<title>sprite_339</title>
</rect>
<rect x="1732" y="180" width="56" height="92" stroke="black" fill="red" fill-opacity="0.1" id="30">
<title>sprite_340</title>
</rect>
<rect x="1788" y="184" width="200" height="88" stroke="black" fill="red" fill-opacity="0.1" id="31">
<title>sprite_341</title>
</rect>
<rect x="0" y="68" width="224" height="84" stroke="black" fill="red" fill-opacity="0.1" id="32">
<title>sprite_342</title>
</rect>
<rect x="224" y="68" width="172" height="84" stroke="black" fill="red" fill-opacity="0.1" id="33">
<title>sprite_343</title>
</rect>
</svg>