<?xml version="1.0" encoding="UTF-8"?>
<svg xmlns="http://www.w3.org/2000/svg" xmlns:xlink="http://www.w3.org/1999/xlink"
     width="4096" height="2048" viewBox="0 0 4096 2048">
<defs>
</defs>
<rect x="0" y="128" width="2048" height="1920" stroke="black" fill="red" fill-opacity="0.1" id="0">
<title>sprite_1453</title>
</rect>
<rect x="2048" y="128" width="512" height="1920" stroke="black" fill="red" fill-opacity="0.1" id="1">
<title>sprite_1454</title>
</rect>
<rect x="2560" y="1844" width="1024" height="204" stroke="black" fill="red" fill-opacity="0.1" id="2">
<title>sprite_1455</title>
</rect>
<rect x="2560" y="1640" width="1024" height="204" stroke="black" fill="red" fill-opacity="0.1" id="3">
<title>sprite_1456</title>
</rect>
<rect x="2560" y="1436" width="1024" height="204" stroke="black" fill="red" fill-opacity="0.1" id="4">
<title>sprite_1457</title>
</rect>
<rect x="2560" y="1232" width="1024" height="204" stroke="black" fill="red" fill-opacity="0.1" id="5">
<title>sprite_1458</title>
</rect>
<rect x="2560" y="1028" width="1024" height="204" stroke="black" fill="red" fill-opacity="0.1" id="6">
<title>sprite_1459</title>
</rect>
<rect x="3584" y="1844" width="124" height="204" stroke="black" fill="red" fill-opacity="0.1" id="7">
<title>sprite_1460</title>
</rect>
<rect x="3708" y="1844" width="124" height="204" stroke="black" fill="red" fill-opacity="0.1" id="8">
<title>sprite_1461</title>
</rect>
<rect x="3832" y="1844" width="124" height="204" stroke="black" fill="red" fill-opacity="0.1" id="9">
<title>sprite_1462</title>
</rect>
<rect x="3956" y="1844" width="124" height="204" stroke="black" fill="red" fill-opacity="0.1" id="10">
<title>sprite_1463</title>
</rect>
<rect x="3584" y="1640" width="124" height="204" stroke="black" fill="red" fill-opacity="0.1" id="11">
<title>sprite_1464</title>
</rect>
<rect x="0" y="28" width="960" height="100" stroke="black" fill="red" fill-opacity="0.1" id="12">
<title>sprite_1465</title>
</rect>
<rect x="960" y="28" width="960" height="100" stroke="black" fill="red" fill-opacity="0.1" id="13">
<title>sprite_1466</title>
</rect>
<rect x="1920" y="28" width="960" height="100" stroke="black" fill="red" fill-opacity="0.1" id="14">
<title>sprite_1467</title>
</rect>
<rect x="2880" y="28" width="960" height="100" stroke="black" fill="red" fill-opacity="0.1" id="15">
<title>sprite_1468</title>
</rect>
<rect x="2560" y="928" width="960" height="100" stroke="black" fill="red" fill-opacity="0.1" id="16">
<title>sprite_1469</title>
</rect>
<rect x="2560" y="832" width="1264" height="96" stroke="black" fill="red" fill-opacity="0.1" id="17">
<title>sprite_1470</title>
</rect>
<rect x="2560" y="736" width="1264" height="96" stroke="black" fill="red" fill-opacity="0.1" id="18">
<title>sprite_1471</title>
</rect>
<rect x="2560" y="640" width="1264" height="96" stroke="black" fill="red" fill-opacity="0.1" id="19">
<title>sprite_1472</title>
</rect>
<rect x="2560" y="544" width="1264" height="96" stroke="black" fill="red" fill-opacity="0.1" id="20">
<title>sprite_1473</title>
</rect>
</svg>