<?xml version="1.0" encoding="UTF-8"?>
<svg xmlns="http://www.w3.org/2000/svg" xmlns:xlink="http://www.w3.org/1999/xlink"
     width="2048" height="2048" viewBox="0 0 2048 2048">
<defs>
</defs>
<rect x="0" y="1668" width="12" height="380" stroke="black" fill="red" fill-opacity="0.1" id="0">
<title>sprite_693</title>
</rect>
<rect x="12" y="1748" width="272" height="300" stroke="black" fill="red" fill-opacity="0.1" id="1">
<title>sprite_694</title>
</rect>
<rect x="284" y="1860" width="196" height="188" stroke="black" fill="red" fill-opacity="0.1" id="2">
<title>sprite_695</title>
</rect>
<rect x="480" y="1860" width="196" height="188" stroke="black" fill="red" fill-opacity="0.1" id="3">
<title>sprite_696</title>
</rect>
<rect x="676" y="1860" width="196" height="188" stroke="black" fill="red" fill-opacity="0.1" id="4">
<title>sprite_697</title>
</rect>
<rect x="872" y="1860" width="196" height="188" stroke="black" fill="red" fill-opacity="0.1" id="5">
<title>sprite_698</title>
</rect>
<rect x="1068" y="1860" width="196" height="188" stroke="black" fill="red" fill-opacity="0.1" id="6">
<title>sprite_699</title>
</rect>
<rect x="1264" y="1860" width="196" height="188" stroke="black" fill="red" fill-opacity="0.1" id="7">
<title>sprite_700</title>
</rect>
<rect x="1460" y="1860" width="196" height="188" stroke="black" fill="red" fill-opacity="0.1" id="8">
<title>sprite_701</title>
</rect>
<rect x="1656" y="1860" width="196" height="188" stroke="black" fill="red" fill-opacity="0.1" id="9">
<title>sprite_702</title>
</rect>
<rect x="1852" y="1860" width="196" height="188" stroke="black" fill="red" fill-opacity="0.1" id="10">
<title>sprite_703</title>
</rect>
<rect x="0" y="1480" width="196" height="188" stroke="black" fill="red" fill-opacity="0.1" id="11">
<title>sprite_704</title>
</rect>
<rect x="196" y="1480" width="196" height="188" stroke="black" fill="red" fill-opacity="0.1" id="12">
<title>sprite_705</title>
</rect>
<rect x="392" y="1480" width="196" height="188" stroke="black" fill="red" fill-opacity="0.1" id="13">
<title>sprite_706</title>
</rect>
<rect x="0" y="1308" width="1780" height="172" stroke="black" fill="red" fill-opacity="0.1" id="14">
<title>sprite_707</title>
</rect>
<rect x="0" y="1136" width="1760" height="172" stroke="black" fill="red" fill-opacity="0.1" id="15">
<title>sprite_708</title>
</rect>
<rect x="0" y="964" width="1760" height="172" stroke="black" fill="red" fill-opacity="0.1" id="16">
<title>sprite_709</title>
</rect>
<rect x="588" y="1496" width="1092" height="172" stroke="black" fill="red" fill-opacity="0.1" id="17">
<title>sprite_710</title>
</rect>
<rect x="1780" y="1360" width="148" height="120" stroke="black" fill="red" fill-opacity="0.1" id="18">
<title>sprite_711</title>
</rect>
<rect x="1760" y="1188" width="148" height="120" stroke="black" fill="red" fill-opacity="0.1" id="19">
<title>sprite_712</title>
</rect>
<rect x="1760" y="1016" width="148" height="120" stroke="black" fill="red" fill-opacity="0.1" id="20">
<title>sprite_713</title>
</rect>
<rect x="1928" y="1372" width="80" height="108" stroke="black" fill="red" fill-opacity="0.1" id="21">
<title>sprite_714</title>
</rect>
<rect x="0" y="864" width="1276" height="100" stroke="black" fill="red" fill-opacity="0.1" id="22">
<title>sprite_715</title>
</rect>
<rect x="1276" y="864" width="144" height="100" stroke="black" fill="red" fill-opacity="0.1" id="23">
<title>sprite_716</title>
</rect>
<rect x="1908" y="1208" width="132" height="100" stroke="black" fill="red" fill-opacity="0.1" id="24">
<title>sprite_717</title>
</rect>
<rect x="0" y="772" width="1412" height="92" stroke="black" fill="red" fill-opacity="0.1" id="25">
<title>sprite_718</title>
</rect>
<rect x="0" y="680" width="1412" height="92" stroke="black" fill="red" fill-opacity="0.1" id="26">
<title>sprite_719</title>
</rect>
<rect x="0" y="588" width="1412" height="92" stroke="black" fill="red" fill-opacity="0.1" id="27">
<title>sprite_720</title>
</rect>
<rect x="0" y="496" width="1412" height="92" stroke="black" fill="red" fill-opacity="0.1" id="28">
<title>sprite_721</title>
</rect>
<rect x="0" y="404" width="1080" height="92" stroke="black" fill="red" fill-opacity="0.1" id="29">
<title>sprite_722</title>
</rect>
<rect x="1080" y="404" width="728" height="92" stroke="black" fill="red" fill-opacity="0.1" id="30">
<title>sprite_723</title>
</rect>
<rect x="1412" y="776" width="124" height="88" stroke="black" fill="red" fill-opacity="0.1" id="31">
<title>sprite_724</title>
</rect>
<rect x="1536" y="776" width="124" height="88" stroke="black" fill="red" fill-opacity="0.1" id="32">
<title>sprite_725</title>
</rect>
<rect x="1660" y="776" width="124" height="88" stroke="black" fill="red" fill-opacity="0.1" id="33">
<title>sprite_726</title>
</rect>
<rect x="1784" y="776" width="124" height="88" stroke="black" fill="red" fill-opacity="0.1" id="34">
<title>sprite_727</title>
</rect>
<rect x="1908" y="776" width="124" height="88" stroke="black" fill="red" fill-opacity="0.1" id="35">
<title>sprite_728</title>
</rect>
<rect x="1412" y="684" width="124" height="88" stroke="black" fill="red" fill-opacity="0.1" id="36">
<title>sprite_729</title>
</rect>
<rect x="1536" y="684" width="124" height="88" stroke="black" fill="red" fill-opacity="0.1" id="37">
<title>sprite_730</title>
</rect>
<rect x="1660" y="684" width="124" height="88" stroke="black" fill="red" fill-opacity="0.1" id="38">
<title>sprite_731</title>
</rect>
<rect x="1784" y="684" width="124" height="88" stroke="black" fill="red" fill-opacity="0.1" id="39">
<title>sprite_732</title>
</rect>
<rect x="1908" y="684" width="124" height="88" stroke="black" fill="red" fill-opacity="0.1" id="40">
<title>sprite_733</title>
</rect>
<rect x="1412" y="592" width="124" height="88" stroke="black" fill="red" fill-opacity="0.1" id="41">
<title>sprite_734</title>
</rect>
<rect x="1536" y="592" width="124" height="88" stroke="black" fill="red" fill-opacity="0.1" id="42">
<title>sprite_735</title>
</rect>
<rect x="0" y="324" width="640" height="80" stroke="black" fill="red" fill-opacity="0.1" id="43">
<title>sprite_736</title>
</rect>
<rect x="1412" y="508" width="428" height="80" stroke="black" fill="red" fill-opacity="0.1" id="44">
<title>sprite_737</title>
</rect>
<rect x="1660" y="600" width="76" height="80" stroke="black" fill="red" fill-opacity="0.1" id="45">
<title>sprite_738</title>
</rect>
<rect x="640" y="336" width="944" height="68" stroke="black" fill="red" fill-opacity="0.1" id="46">
<title>sprite_739</title>
</rect>
<rect x="0" y="260" width="716" height="64" stroke="black" fill="red" fill-opacity="0.1" id="47">
<title>sprite_740</title>
</rect>
<rect x="716" y="260" width="716" height="64" stroke="black" fill="red" fill-opacity="0.1" id="48">
<title>sprite_741</title>
</rect>
<rect x="0" y="196" width="716" height="64" stroke="black" fill="red" fill-opacity="0.1" id="49">
<title>sprite_742</title>
</rect>
<rect x="716" y="196" width="716" height="64" stroke="black" fill="red" fill-opacity="0.1" id="50">
<title>sprite_743</title>
</rect>
<rect x="0" y="132" width="716" height="64" stroke="black" fill="red" fill-opacity="0.1" id="51">
<title>sprite_744</title>
</rect>
<rect x="716" y="132" width="716" height="64" stroke="black" fill="red" fill-opacity="0.1" id="52">
<title>sprite_745</title>
</rect>
<rect x="0" y="68" width="664" height="64" stroke="black" fill="red" fill-opacity="0.1" id="53">
<title>sprite_746</title>
</rect>
<rect x="1736" y="620" width="108" height="60" stroke="black" fill="red" fill-opacity="0.1" id="54">
<title>sprite_747</title>
</rect>
<rect x="664" y="76" width="1264" height="56" stroke="black" fill="red" fill-opacity="0.1" id="55">
<title>sprite_748</title>
</rect>
<rect x="0" y="12" width="1264" height="56" stroke="black" fill="red" fill-opacity="0.1" id="56">
<title>sprite_749</title>
</rect>
<rect x="1844" y="644" width="52" height="36" stroke="black" fill="red" fill-opacity="0.1" id="57">
<title>sprite_750</title>
</rect>
<rect x="2008" y="1444" width="36" height="36" stroke="black" fill="red" fill-opacity="0.1" id="58">
<title>sprite_751</title>
</rect>
<rect x="1264" y="56" width="380" height="12" stroke="black" fill="red" fill-opacity="0.1" id="59">
<title>sprite_752</title>
</rect>
</svg>