<?xml version="1.0" encoding="UTF-8"?>
<svg xmlns="http://www.w3.org/2000/svg" xmlns:xlink="http://www.w3.org/1999/xlink"
     width="512" height="128" viewBox="0 0 512 128">
<defs>
</defs>
<rect x="0" y="106" width="194" height="22" stroke="black" fill="red" fill-opacity="0.1" />
<rect x="194" y="106" width="194" height="22" stroke="black" fill="red" fill-opacity="0.1" />
<rect x="0" y="84" width="194" height="22" stroke="black" fill="red" fill-opacity="0.1" />
<rect x="194" y="84" width="146" height="22" stroke="black" fill="red" fill-opacity="0.1" />
<rect x="340" y="84" width="145" height="22" stroke="black" fill="red" fill-opacity="0.1" />
<rect x="0" y="62" width="142" height="22" stroke="black" fill="red" fill-opacity="0.1" />
<rect x="142" y="62" width="136" height="22" stroke="black" fill="red" fill-opacity="0.1" />
<rect x="278" y="62" width="128" height="22" stroke="black" fill="red" fill-opacity="0.1" />
<rect x="406" y="62" width="96" height="22" stroke="black" fill="red" fill-opacity="0.1" />
<rect x="388" y="106" width="88" height="22" stroke="black" fill="red" fill-opacity="0.1" />
<rect x="0" y="40" width="77" height="22" stroke="black" fill="red" fill-opacity="0.1" />
<rect x="77" y="40" width="54" height="22" stroke="black" fill="red" fill-opacity="0.1" />
<rect x="131" y="40" width="51" height="22" stroke="black" fill="red" fill-opacity="0.1" />
<rect x="182" y="46" width="38" height="16" stroke="black" fill="red" fill-opacity="0.1" />
<rect x="220" y="46" width="38" height="16" stroke="black" fill="red" fill-opacity="0.1" />
<rect x="258" y="46" width="37" height="16" stroke="black" fill="red" fill-opacity="0.1" />
<rect x="295" y="46" width="37" height="16" stroke="black" fill="red" fill-opacity="0.1" />
<rect x="332" y="47" width="103" height="15" stroke="black" fill="red" fill-opacity="0.1" />
<rect x="0" y="26" width="273" height="14" stroke="black" fill="red" fill-opacity="0.1" />
<rect x="0" y="12" width="273" height="14" stroke="black" fill="red" fill-opacity="0.1" />
<rect x="273" y="32" width="10" height="8" stroke="black" fill="red" fill-opacity="0.1" />
</svg>