<?xml version="1.0" encoding="UTF-8"?>
<svg xmlns="http://www.w3.org/2000/svg" xmlns:xlink="http://www.w3.org/1999/xlink"
     width="512" height="512" viewBox="0 0 512 512">
<defs>
</defs>
<rect x="0" y="471" width="259" height="41" stroke="black" fill="red" fill-opacity="0.1" id="0">
<title>sprite_1006</title>
</rect>
<rect x="0" y="430" width="259" height="41" stroke="black" fill="red" fill-opacity="0.1" id="1">
<title>sprite_1007</title>
</rect>
<rect x="0" y="389" width="259" height="41" stroke="black" fill="red" fill-opacity="0.1" id="2">
<title>sprite_1008</title>
</rect>
<rect x="259" y="476" width="47" height="36" stroke="black" fill="red" fill-opacity="0.1" id="3">
<title>sprite_1009</title>
</rect>
<rect x="306" y="476" width="47" height="36" stroke="black" fill="red" fill-opacity="0.1" id="4">
<title>sprite_1010</title>
</rect>
<rect x="353" y="480" width="84" height="32" stroke="black" fill="red" fill-opacity="0.1" id="5">
<title>sprite_1011</title>
</rect>
<rect x="437" y="485" width="30" height="27" stroke="black" fill="red" fill-opacity="0.1" id="6">
<title>sprite_1012</title>
</rect>
<rect x="467" y="485" width="30" height="27" stroke="black" fill="red" fill-opacity="0.1" id="7">
<title>sprite_1013</title>
</rect>
<rect x="259" y="444" width="30" height="27" stroke="black" fill="red" fill-opacity="0.1" id="8">
<title>sprite_1014</title>
</rect>
<rect x="289" y="444" width="30" height="27" stroke="black" fill="red" fill-opacity="0.1" id="9">
<title>sprite_1015</title>
</rect>
<rect x="319" y="444" width="30" height="27" stroke="black" fill="red" fill-opacity="0.1" id="10">
<title>sprite_1016</title>
</rect>
<rect x="349" y="444" width="30" height="27" stroke="black" fill="red" fill-opacity="0.1" id="11">
<title>sprite_1017</title>
</rect>
<rect x="379" y="444" width="30" height="27" stroke="black" fill="red" fill-opacity="0.1" id="12">
<title>sprite_1018</title>
</rect>
<rect x="0" y="365" width="350" height="24" stroke="black" fill="red" fill-opacity="0.1" id="13">
<title>sprite_1019</title>
</rect>
<rect x="0" y="341" width="350" height="24" stroke="black" fill="red" fill-opacity="0.1" id="14">
<title>sprite_1020</title>
</rect>
<rect x="0" y="317" width="350" height="24" stroke="black" fill="red" fill-opacity="0.1" id="15">
<title>sprite_1021</title>
</rect>
<rect x="0" y="293" width="350" height="24" stroke="black" fill="red" fill-opacity="0.1" id="16">
<title>sprite_1022</title>
</rect>
<rect x="0" y="269" width="350" height="24" stroke="black" fill="red" fill-opacity="0.1" id="17">
<title>sprite_1023</title>
</rect>
<rect x="0" y="245" width="350" height="24" stroke="black" fill="red" fill-opacity="0.1" id="18">
<title>sprite_1024</title>
</rect>
<rect x="0" y="221" width="350" height="24" stroke="black" fill="red" fill-opacity="0.1" id="19">
<title>sprite_1025</title>
</rect>
<rect x="0" y="197" width="350" height="24" stroke="black" fill="red" fill-opacity="0.1" id="20">
<title>sprite_1026</title>
</rect>
<rect x="0" y="173" width="350" height="24" stroke="black" fill="red" fill-opacity="0.1" id="21">
<title>sprite_1027</title>
</rect>
<rect x="0" y="149" width="316" height="24" stroke="black" fill="red" fill-opacity="0.1" id="22">
<title>sprite_1028</title>
</rect>
<rect x="0" y="125" width="316" height="24" stroke="black" fill="red" fill-opacity="0.1" id="23">
<title>sprite_1029</title>
</rect>
<rect x="0" y="101" width="316" height="24" stroke="black" fill="red" fill-opacity="0.1" id="24">
<title>sprite_1030</title>
</rect>
<rect x="259" y="406" width="212" height="24" stroke="black" fill="red" fill-opacity="0.1" id="25">
<title>sprite_1031</title>
</rect>
<rect x="431" y="453" width="50" height="18" stroke="black" fill="red" fill-opacity="0.1" id="26">
<title>sprite_1032</title>
</rect>
<rect x="350" y="371" width="50" height="18" stroke="black" fill="red" fill-opacity="0.1" id="27">
<title>sprite_1033</title>
</rect>
<rect x="400" y="371" width="50" height="18" stroke="black" fill="red" fill-opacity="0.1" id="28">
<title>sprite_1034</title>
</rect>
<rect x="481" y="453" width="18" height="18" stroke="black" fill="red" fill-opacity="0.1" id="29">
<title>sprite_1035</title>
</rect>
<rect x="471" y="412" width="18" height="18" stroke="black" fill="red" fill-opacity="0.1" id="30">
<title>sprite_1036</title>
</rect>
<rect x="489" y="412" width="18" height="18" stroke="black" fill="red" fill-opacity="0.1" id="31">
<title>sprite_1037</title>
</rect>
<rect x="450" y="371" width="18" height="18" stroke="black" fill="red" fill-opacity="0.1" id="32">
<title>sprite_1038</title>
</rect>
<rect x="350" y="362" width="50" height="3" stroke="black" fill="red" fill-opacity="0.1" id="33">
<title>sprite_1039</title>
</rect>
<rect x="400" y="362" width="50" height="3" stroke="black" fill="red" fill-opacity="0.1" id="34">
<title>sprite_1040</title>
</rect>
<rect x="450" y="362" width="50" height="3" stroke="black" fill="red" fill-opacity="0.1" id="35">
<title>sprite_1041</title>
</rect>
<rect x="259" y="474" width="218" height="2" stroke="black" fill="red" fill-opacity="0.1" id="36">
<title>sprite_1042</title>
</rect>
</svg>