<?xml version="1.0" encoding="UTF-8"?>
<svg xmlns="http://www.w3.org/2000/svg" xmlns:xlink="http://www.w3.org/1999/xlink"
     width="512" height="128" viewBox="0 0 512 128">
<defs>
</defs>
<rect x="0" y="108" width="47" height="20" stroke="black" fill="red" fill-opacity="0.1" />
<rect x="47" y="108" width="47" height="20" stroke="black" fill="red" fill-opacity="0.1" />
<rect x="94" y="108" width="47" height="20" stroke="black" fill="red" fill-opacity="0.1" />
<rect x="141" y="108" width="47" height="20" stroke="black" fill="red" fill-opacity="0.1" />
<rect x="188" y="108" width="47" height="20" stroke="black" fill="red" fill-opacity="0.1" />
<rect x="235" y="108" width="47" height="20" stroke="black" fill="red" fill-opacity="0.1" />
<rect x="282" y="108" width="47" height="20" stroke="black" fill="red" fill-opacity="0.1" />
<rect x="329" y="108" width="47" height="20" stroke="black" fill="red" fill-opacity="0.1" />
<rect x="376" y="108" width="47" height="20" stroke="black" fill="red" fill-opacity="0.1" />
<rect x="423" y="108" width="47" height="20" stroke="black" fill="red" fill-opacity="0.1" />
<rect x="0" y="88" width="47" height="20" stroke="black" fill="red" fill-opacity="0.1" />
<rect x="47" y="88" width="47" height="20" stroke="black" fill="red" fill-opacity="0.1" />
<rect x="94" y="88" width="47" height="20" stroke="black" fill="red" fill-opacity="0.1" />
<rect x="141" y="88" width="47" height="20" stroke="black" fill="red" fill-opacity="0.1" />
<rect x="188" y="88" width="47" height="20" stroke="black" fill="red" fill-opacity="0.1" />
<rect x="235" y="88" width="47" height="20" stroke="black" fill="red" fill-opacity="0.1" />
<rect x="282" y="88" width="47" height="20" stroke="black" fill="red" fill-opacity="0.1" />
<rect x="329" y="88" width="47" height="20" stroke="black" fill="red" fill-opacity="0.1" />
<rect x="376" y="88" width="47" height="20" stroke="black" fill="red" fill-opacity="0.1" />
<rect x="423" y="88" width="47" height="20" stroke="black" fill="red" fill-opacity="0.1" />
<rect x="0" y="68" width="47" height="20" stroke="black" fill="red" fill-opacity="0.1" />
<rect x="47" y="68" width="47" height="20" stroke="black" fill="red" fill-opacity="0.1" />
<rect x="94" y="68" width="47" height="20" stroke="black" fill="red" fill-opacity="0.1" />
<rect x="141" y="68" width="47" height="20" stroke="black" fill="red" fill-opacity="0.1" />
<rect x="188" y="68" width="47" height="20" stroke="black" fill="red" fill-opacity="0.1" />
<rect x="235" y="68" width="47" height="20" stroke="black" fill="red" fill-opacity="0.1" />
<rect x="282" y="68" width="47" height="20" stroke="black" fill="red" fill-opacity="0.1" />
<rect x="329" y="68" width="47" height="20" stroke="black" fill="red" fill-opacity="0.1" />
<rect x="376" y="68" width="47" height="20" stroke="black" fill="red" fill-opacity="0.1" />
<rect x="423" y="68" width="47" height="20" stroke="black" fill="red" fill-opacity="0.1" />
<rect x="0" y="48" width="47" height="20" stroke="black" fill="red" fill-opacity="0.1" />
<rect x="47" y="48" width="47" height="20" stroke="black" fill="red" fill-opacity="0.1" />
<rect x="94" y="48" width="47" height="20" stroke="black" fill="red" fill-opacity="0.1" />
<rect x="141" y="48" width="47" height="20" stroke="black" fill="red" fill-opacity="0.1" />
<rect x="188" y="48" width="47" height="20" stroke="black" fill="red" fill-opacity="0.1" />
<rect x="235" y="48" width="47" height="20" stroke="black" fill="red" fill-opacity="0.1" />
<rect x="282" y="48" width="47" height="20" stroke="black" fill="red" fill-opacity="0.1" />
<rect x="329" y="48" width="47" height="20" stroke="black" fill="red" fill-opacity="0.1" />
<rect x="376" y="48" width="47" height="20" stroke="black" fill="red" fill-opacity="0.1" />
<rect x="423" y="48" width="47" height="20" stroke="black" fill="red" fill-opacity="0.1" />
<rect x="0" y="28" width="47" height="20" stroke="black" fill="red" fill-opacity="0.1" />
<rect x="47" y="28" width="47" height="20" stroke="black" fill="red" fill-opacity="0.1" />
<rect x="94" y="28" width="47" height="20" stroke="black" fill="red" fill-opacity="0.1" />
<rect x="141" y="28" width="47" height="20" stroke="black" fill="red" fill-opacity="0.1" />
<rect x="188" y="28" width="47" height="20" stroke="black" fill="red" fill-opacity="0.1" />
<rect x="235" y="28" width="47" height="20" stroke="black" fill="red" fill-opacity="0.1" />
<rect x="282" y="28" width="47" height="20" stroke="black" fill="red" fill-opacity="0.1" />
<rect x="329" y="28" width="47" height="20" stroke="black" fill="red" fill-opacity="0.1" />
<rect x="376" y="28" width="47" height="20" stroke="black" fill="red" fill-opacity="0.1" />
<rect x="423" y="28" width="47" height="20" stroke="black" fill="red" fill-opacity="0.1" />
<rect x="0" y="8" width="47" height="20" stroke="black" fill="red" fill-opacity="0.1" />
<rect x="47" y="8" width="47" height="20" stroke="black" fill="red" fill-opacity="0.1" />
<rect x="94" y="8" width="47" height="20" stroke="black" fill="red" fill-opacity="0.1" />
<rect x="141" y="8" width="47" height="20" stroke="black" fill="red" fill-opacity="0.1" />
<rect x="188" y="8" width="47" height="20" stroke="black" fill="red" fill-opacity="0.1" />
<rect x="235" y="8" width="47" height="20" stroke="black" fill="red" fill-opacity="0.1" />
<rect x="282" y="8" width="47" height="20" stroke="black" fill="red" fill-opacity="0.1" />
<rect x="329" y="8" width="47" height="20" stroke="black" fill="red" fill-opacity="0.1" />
<rect x="376" y="8" width="47" height="20" stroke="black" fill="red" fill-opacity="0.1" />
</svg>