<?xml version="1.0" encoding="UTF-8"?>
<svg xmlns="http://www.w3.org/2000/svg" xmlns:xlink="http://www.w3.org/1999/xlink"
     width="512" height="128" viewBox="0 0 512 128">
<defs>
</defs>
<rect x="0" y="108" width="47" height="20" stroke="black" fill="red" fill-opacity="0.1" id="0">
<title>sprite_1190</title>
</rect>
<rect x="47" y="108" width="47" height="20" stroke="black" fill="red" fill-opacity="0.1" id="1">
<title>sprite_1191</title>
</rect>
<rect x="94" y="108" width="47" height="20" stroke="black" fill="red" fill-opacity="0.1" id="2">
<title>sprite_1192</title>
</rect>
<rect x="141" y="108" width="47" height="20" stroke="black" fill="red" fill-opacity="0.1" id="3">
<title>sprite_1193</title>
</rect>
<rect x="188" y="108" width="47" height="20" stroke="black" fill="red" fill-opacity="0.1" id="4">
<title>sprite_1194</title>
</rect>
<rect x="235" y="108" width="47" height="20" stroke="black" fill="red" fill-opacity="0.1" id="5">
<title>sprite_1195</title>
</rect>
<rect x="282" y="108" width="47" height="20" stroke="black" fill="red" fill-opacity="0.1" id="6">
<title>sprite_1196</title>
</rect>
<rect x="329" y="108" width="47" height="20" stroke="black" fill="red" fill-opacity="0.1" id="7">
<title>sprite_1197</title>
</rect>
<rect x="376" y="108" width="47" height="20" stroke="black" fill="red" fill-opacity="0.1" id="8">
<title>sprite_1198</title>
</rect>
<rect x="423" y="108" width="47" height="20" stroke="black" fill="red" fill-opacity="0.1" id="9">
<title>sprite_1199</title>
</rect>
<rect x="0" y="88" width="47" height="20" stroke="black" fill="red" fill-opacity="0.1" id="10">
<title>sprite_1200</title>
</rect>
<rect x="47" y="88" width="47" height="20" stroke="black" fill="red" fill-opacity="0.1" id="11">
<title>sprite_1201</title>
</rect>
<rect x="94" y="88" width="47" height="20" stroke="black" fill="red" fill-opacity="0.1" id="12">
<title>sprite_1202</title>
</rect>
<rect x="141" y="88" width="47" height="20" stroke="black" fill="red" fill-opacity="0.1" id="13">
<title>sprite_1203</title>
</rect>
<rect x="188" y="88" width="47" height="20" stroke="black" fill="red" fill-opacity="0.1" id="14">
<title>sprite_1204</title>
</rect>
<rect x="235" y="88" width="47" height="20" stroke="black" fill="red" fill-opacity="0.1" id="15">
<title>sprite_1205</title>
</rect>
<rect x="282" y="88" width="47" height="20" stroke="black" fill="red" fill-opacity="0.1" id="16">
<title>sprite_1206</title>
</rect>
<rect x="329" y="88" width="47" height="20" stroke="black" fill="red" fill-opacity="0.1" id="17">
<title>sprite_1207</title>
</rect>
<rect x="376" y="88" width="47" height="20" stroke="black" fill="red" fill-opacity="0.1" id="18">
<title>sprite_1208</title>
</rect>
<rect x="423" y="88" width="47" height="20" stroke="black" fill="red" fill-opacity="0.1" id="19">
<title>sprite_1209</title>
</rect>
<rect x="0" y="68" width="47" height="20" stroke="black" fill="red" fill-opacity="0.1" id="20">
<title>sprite_1210</title>
</rect>
<rect x="47" y="68" width="47" height="20" stroke="black" fill="red" fill-opacity="0.1" id="21">
<title>sprite_1211</title>
</rect>
<rect x="94" y="68" width="47" height="20" stroke="black" fill="red" fill-opacity="0.1" id="22">
<title>sprite_1212</title>
</rect>
<rect x="141" y="68" width="47" height="20" stroke="black" fill="red" fill-opacity="0.1" id="23">
<title>sprite_1213</title>
</rect>
<rect x="188" y="68" width="47" height="20" stroke="black" fill="red" fill-opacity="0.1" id="24">
<title>sprite_1214</title>
</rect>
<rect x="235" y="68" width="47" height="20" stroke="black" fill="red" fill-opacity="0.1" id="25">
<title>sprite_1215</title>
</rect>
<rect x="282" y="68" width="47" height="20" stroke="black" fill="red" fill-opacity="0.1" id="26">
<title>sprite_1216</title>
</rect>
<rect x="329" y="68" width="47" height="20" stroke="black" fill="red" fill-opacity="0.1" id="27">
<title>sprite_1217</title>
</rect>
<rect x="376" y="68" width="47" height="20" stroke="black" fill="red" fill-opacity="0.1" id="28">
<title>sprite_1218</title>
</rect>
<rect x="423" y="68" width="47" height="20" stroke="black" fill="red" fill-opacity="0.1" id="29">
<title>sprite_1219</title>
</rect>
<rect x="0" y="48" width="47" height="20" stroke="black" fill="red" fill-opacity="0.1" id="30">
<title>sprite_1220</title>
</rect>
<rect x="47" y="48" width="47" height="20" stroke="black" fill="red" fill-opacity="0.1" id="31">
<title>sprite_1221</title>
</rect>
<rect x="94" y="48" width="47" height="20" stroke="black" fill="red" fill-opacity="0.1" id="32">
<title>sprite_1222</title>
</rect>
<rect x="141" y="48" width="47" height="20" stroke="black" fill="red" fill-opacity="0.1" id="33">
<title>sprite_1223</title>
</rect>
<rect x="188" y="48" width="47" height="20" stroke="black" fill="red" fill-opacity="0.1" id="34">
<title>sprite_1224</title>
</rect>
<rect x="235" y="48" width="47" height="20" stroke="black" fill="red" fill-opacity="0.1" id="35">
<title>sprite_1225</title>
</rect>
<rect x="282" y="48" width="47" height="20" stroke="black" fill="red" fill-opacity="0.1" id="36">
<title>sprite_1226</title>
</rect>
<rect x="329" y="48" width="47" height="20" stroke="black" fill="red" fill-opacity="0.1" id="37">
<title>sprite_1227</title>
</rect>
<rect x="376" y="48" width="47" height="20" stroke="black" fill="red" fill-opacity="0.1" id="38">
<title>sprite_1228</title>
</rect>
<rect x="423" y="48" width="47" height="20" stroke="black" fill="red" fill-opacity="0.1" id="39">
<title>sprite_1229</title>
</rect>
<rect x="0" y="28" width="47" height="20" stroke="black" fill="red" fill-opacity="0.1" id="40">
<title>sprite_1230</title>
</rect>
<rect x="47" y="28" width="47" height="20" stroke="black" fill="red" fill-opacity="0.1" id="41">
<title>sprite_1231</title>
</rect>
<rect x="94" y="28" width="47" height="20" stroke="black" fill="red" fill-opacity="0.1" id="42">
<title>sprite_1232</title>
</rect>
<rect x="141" y="28" width="47" height="20" stroke="black" fill="red" fill-opacity="0.1" id="43">
<title>sprite_1233</title>
</rect>
<rect x="188" y="28" width="47" height="20" stroke="black" fill="red" fill-opacity="0.1" id="44">
<title>sprite_1234</title>
</rect>
<rect x="235" y="28" width="47" height="20" stroke="black" fill="red" fill-opacity="0.1" id="45">
<title>sprite_1235</title>
</rect>
<rect x="282" y="28" width="47" height="20" stroke="black" fill="red" fill-opacity="0.1" id="46">
<title>sprite_1236</title>
</rect>
<rect x="329" y="28" width="47" height="20" stroke="black" fill="red" fill-opacity="0.1" id="47">
<title>sprite_1237</title>
</rect>
<rect x="376" y="28" width="47" height="20" stroke="black" fill="red" fill-opacity="0.1" id="48">
<title>sprite_1238</title>
</rect>
<rect x="423" y="28" width="47" height="20" stroke="black" fill="red" fill-opacity="0.1" id="49">
<title>sprite_1239</title>
</rect>
<rect x="0" y="8" width="47" height="20" stroke="black" fill="red" fill-opacity="0.1" id="50">
<title>sprite_1240</title>
</rect>
<rect x="47" y="8" width="47" height="20" stroke="black" fill="red" fill-opacity="0.1" id="51">
<title>sprite_1241</title>
</rect>
<rect x="94" y="8" width="47" height="20" stroke="black" fill="red" fill-opacity="0.1" id="52">
<title>sprite_1242</title>
</rect>
<rect x="141" y="8" width="47" height="20" stroke="black" fill="red" fill-opacity="0.1" id="53">
<title>sprite_1243</title>
</rect>
<rect x="188" y="8" width="47" height="20" stroke="black" fill="red" fill-opacity="0.1" id="54">
<title>sprite_1244</title>
</rect>
<rect x="235" y="8" width="47" height="20" stroke="black" fill="red" fill-opacity="0.1" id="55">
<title>sprite_1245</title>
</rect>
<rect x="282" y="8" width="47" height="20" stroke="black" fill="red" fill-opacity="0.1" id="56">
<title>sprite_1246</title>
</rect>
<rect x="329" y="8" width="47" height="20" stroke="black" fill="red" fill-opacity="0.1" id="57">
<title>sprite_1247</title>
</rect>
<rect x="376" y="8" width="47" height="20" stroke="black" fill="red" fill-opacity="0.1" id="58">
<title>sprite_1248</title>
</rect>
<rect x="423" y="8" width="47" height="20" stroke="black" fill="red" fill-opacity="0.1" id="59">
<title>sprite_1249</title>
</rect>
</svg>