<?xml version="1.0" encoding="UTF-8"?>
<svg xmlns="http://www.w3.org/2000/svg" xmlns:xlink="http://www.w3.org/1999/xlink"
     width="512" height="256" viewBox="0 0 512 256">
<defs>
</defs>
<rect x="0" y="240" width="279" height="16" stroke="black" fill="red" fill-opacity="0.1" id="0">
<title>sprite_138</title>
</rect>
<rect x="0" y="224" width="279" height="16" stroke="black" fill="red" fill-opacity="0.1" id="1">
<title>sprite_139</title>
</rect>
<rect x="0" y="208" width="279" height="16" stroke="black" fill="red" fill-opacity="0.1" id="2">
<title>sprite_140</title>
</rect>
<rect x="0" y="192" width="279" height="16" stroke="black" fill="red" fill-opacity="0.1" id="3">
<title>sprite_141</title>
</rect>
<rect x="0" y="176" width="279" height="16" stroke="black" fill="red" fill-opacity="0.1" id="4">
<title>sprite_142</title>
</rect>
<rect x="279" y="243" width="192" height="13" stroke="black" fill="red" fill-opacity="0.1" id="5">
<title>sprite_143</title>
</rect>
<rect x="279" y="227" width="189" height="13" stroke="black" fill="red" fill-opacity="0.1" id="6">
<title>sprite_144</title>
</rect>
<rect x="279" y="211" width="185" height="13" stroke="black" fill="red" fill-opacity="0.1" id="7">
<title>sprite_145</title>
</rect>
<rect x="279" y="195" width="180" height="13" stroke="black" fill="red" fill-opacity="0.1" id="8">
<title>sprite_146</title>
</rect>
<rect x="279" y="179" width="180" height="13" stroke="black" fill="red" fill-opacity="0.1" id="9">
<title>sprite_147</title>
</rect>
<rect x="0" y="163" width="180" height="13" stroke="black" fill="red" fill-opacity="0.1" id="10">
<title>sprite_148</title>
</rect>
<rect x="180" y="163" width="174" height="13" stroke="black" fill="red" fill-opacity="0.1" id="11">
<title>sprite_149</title>
</rect>
<rect x="0" y="150" width="172" height="13" stroke="black" fill="red" fill-opacity="0.1" id="12">
<title>sprite_150</title>
</rect>
<rect x="172" y="150" width="167" height="13" stroke="black" fill="red" fill-opacity="0.1" id="13">
<title>sprite_151</title>
</rect>
<rect x="339" y="150" width="162" height="13" stroke="black" fill="red" fill-opacity="0.1" id="14">
<title>sprite_152</title>
</rect>
<rect x="354" y="163" width="138" height="13" stroke="black" fill="red" fill-opacity="0.1" id="15">
<title>sprite_153</title>
</rect>
<rect x="0" y="137" width="136" height="13" stroke="black" fill="red" fill-opacity="0.1" id="16">
<title>sprite_154</title>
</rect>
<rect x="136" y="137" width="135" height="13" stroke="black" fill="red" fill-opacity="0.1" id="17">
<title>sprite_155</title>
</rect>
<rect x="271" y="137" width="135" height="13" stroke="black" fill="red" fill-opacity="0.1" id="18">
<title>sprite_156</title>
</rect>
<rect x="0" y="124" width="131" height="13" stroke="black" fill="red" fill-opacity="0.1" id="19">
<title>sprite_157</title>
</rect>
<rect x="131" y="124" width="130" height="13" stroke="black" fill="red" fill-opacity="0.1" id="20">
<title>sprite_158</title>
</rect>
<rect x="261" y="124" width="125" height="13" stroke="black" fill="red" fill-opacity="0.1" id="21">
<title>sprite_159</title>
</rect>
<rect x="386" y="124" width="121" height="13" stroke="black" fill="red" fill-opacity="0.1" id="22">
<title>sprite_160</title>
</rect>
<rect x="0" y="111" width="115" height="13" stroke="black" fill="red" fill-opacity="0.1" id="23">
<title>sprite_161</title>
</rect>
<rect x="115" y="111" width="113" height="13" stroke="black" fill="red" fill-opacity="0.1" id="24">
<title>sprite_162</title>
</rect>
<rect x="228" y="111" width="113" height="13" stroke="black" fill="red" fill-opacity="0.1" id="25">
<title>sprite_163</title>
</rect>
<rect x="341" y="111" width="111" height="13" stroke="black" fill="red" fill-opacity="0.1" id="26">
<title>sprite_164</title>
</rect>
<rect x="406" y="137" width="105" height="13" stroke="black" fill="red" fill-opacity="0.1" id="27">
<title>sprite_165</title>
</rect>
<rect x="0" y="98" width="104" height="13" stroke="black" fill="red" fill-opacity="0.1" id="28">
<title>sprite_166</title>
</rect>
<rect x="104" y="98" width="103" height="13" stroke="black" fill="red" fill-opacity="0.1" id="29">
<title>sprite_167</title>
</rect>
<rect x="207" y="98" width="102" height="13" stroke="black" fill="red" fill-opacity="0.1" id="30">
<title>sprite_168</title>
</rect>
<rect x="309" y="98" width="97" height="13" stroke="black" fill="red" fill-opacity="0.1" id="31">
<title>sprite_169</title>
</rect>
<rect x="406" y="98" width="95" height="13" stroke="black" fill="red" fill-opacity="0.1" id="32">
<title>sprite_170</title>
</rect>
<rect x="0" y="85" width="91" height="13" stroke="black" fill="red" fill-opacity="0.1" id="33">
<title>sprite_171</title>
</rect>
<rect x="91" y="85" width="88" height="13" stroke="black" fill="red" fill-opacity="0.1" id="34">
<title>sprite_172</title>
</rect>
<rect x="179" y="85" width="85" height="13" stroke="black" fill="red" fill-opacity="0.1" id="35">
<title>sprite_173</title>
</rect>
<rect x="264" y="85" width="80" height="13" stroke="black" fill="red" fill-opacity="0.1" id="36">
<title>sprite_174</title>
</rect>
<rect x="344" y="85" width="77" height="13" stroke="black" fill="red" fill-opacity="0.1" id="37">
<title>sprite_175</title>
</rect>
<rect x="421" y="85" width="62" height="13" stroke="black" fill="red" fill-opacity="0.1" id="38">
<title>sprite_176</title>
</rect>
<rect x="452" y="111" width="58" height="13" stroke="black" fill="red" fill-opacity="0.1" id="39">
<title>sprite_177</title>
</rect>
<rect x="459" y="195" width="52" height="13" stroke="black" fill="red" fill-opacity="0.1" id="40">
<title>sprite_178</title>
</rect>
<rect x="464" y="211" width="46" height="13" stroke="black" fill="red" fill-opacity="0.1" id="41">
<title>sprite_179</title>
</rect>
<rect x="468" y="227" width="42" height="13" stroke="black" fill="red" fill-opacity="0.1" id="42">
<title>sprite_180</title>
</rect>
<rect x="471" y="243" width="41" height="13" stroke="black" fill="red" fill-opacity="0.1" id="43">
<title>sprite_181</title>
</rect>
<rect x="459" y="179" width="39" height="13" stroke="black" fill="red" fill-opacity="0.1" id="44">
<title>sprite_182</title>
</rect>
<rect x="0" y="72" width="37" height="13" stroke="black" fill="red" fill-opacity="0.1" id="45">
<title>sprite_183</title>
</rect>
<rect x="37" y="72" width="35" height="13" stroke="black" fill="red" fill-opacity="0.1" id="46">
<title>sprite_184</title>
</rect>
<rect x="72" y="72" width="34" height="13" stroke="black" fill="red" fill-opacity="0.1" id="47">
<title>sprite_185</title>
</rect>
<rect x="106" y="72" width="32" height="13" stroke="black" fill="red" fill-opacity="0.1" id="48">
<title>sprite_186</title>
</rect>
<rect x="138" y="72" width="31" height="13" stroke="black" fill="red" fill-opacity="0.1" id="49">
<title>sprite_187</title>
</rect>
<rect x="169" y="72" width="29" height="13" stroke="black" fill="red" fill-opacity="0.1" id="50">
<title>sprite_188</title>
</rect>
<rect x="198" y="72" width="26" height="13" stroke="black" fill="red" fill-opacity="0.1" id="51">
<title>sprite_189</title>
</rect>
</svg>