<?xml version="1.0" encoding="UTF-8"?>
<svg xmlns="http://www.w3.org/2000/svg" xmlns:xlink="http://www.w3.org/1999/xlink"
     width="512" height="512" viewBox="0 0 512 512">
<defs>
</defs>
<rect x="0" y="448" width="64" height="64" stroke="black" fill="red" fill-opacity="0.1" id="0">
<title>sprite_234</title>
</rect>
<rect x="0" y="388" width="58" height="60" stroke="black" fill="red" fill-opacity="0.1" id="1">
<title>sprite_235</title>
</rect>
<rect x="0" y="346" width="30" height="42" stroke="black" fill="red" fill-opacity="0.1" id="2">
<title>sprite_236</title>
</rect>
<rect x="0" y="312" width="34" height="34" stroke="black" fill="red" fill-opacity="0.1" id="3">
<title>sprite_237</title>
</rect>
<rect x="0" y="278" width="30" height="34" stroke="black" fill="red" fill-opacity="0.1" id="4">
<title>sprite_238</title>
</rect>
<rect x="0" y="248" width="62" height="30" stroke="black" fill="red" fill-opacity="0.1" id="5">
<title>sprite_239</title>
</rect>
<rect x="0" y="218" width="62" height="30" stroke="black" fill="red" fill-opacity="0.1" id="6">
<title>sprite_240</title>
</rect>
<rect x="0" y="188" width="62" height="30" stroke="black" fill="red" fill-opacity="0.1" id="7">
<title>sprite_241</title>
</rect>
<rect x="0" y="158" width="62" height="30" stroke="black" fill="red" fill-opacity="0.1" id="8">
<title>sprite_242</title>
</rect>
<rect x="0" y="128" width="62" height="30" stroke="black" fill="red" fill-opacity="0.1" id="9">
<title>sprite_243</title>
</rect>
<rect x="0" y="98" width="62" height="30" stroke="black" fill="red" fill-opacity="0.1" id="10">
<title>sprite_244</title>
</rect>
<rect x="0" y="68" width="62" height="30" stroke="black" fill="red" fill-opacity="0.1" id="11">
<title>sprite_245</title>
</rect>
<rect x="0" y="42" width="70" height="26" stroke="black" fill="red" fill-opacity="0.1" id="12">
<title>sprite_246</title>
</rect>
<rect x="0" y="24" width="50" height="18" stroke="black" fill="red" fill-opacity="0.1" id="13">
<title>sprite_247</title>
</rect>
<rect x="0" y="10" width="327" height="14" stroke="black" fill="red" fill-opacity="0.1" id="14">
<title>sprite_248</title>
</rect>
<rect x="327" y="10" width="78" height="14" stroke="black" fill="red" fill-opacity="0.1" id="15">
<title>sprite_249</title>
</rect>
<rect x="50" y="24" width="50" height="18" stroke="black" fill="red" fill-opacity="0.1" id="16">
<title>sprite_250</title>
</rect>
<rect x="100" y="24" width="30" height="18" stroke="black" fill="red" fill-opacity="0.1" id="17">
<title>sprite_251</title>
</rect>
<rect x="130" y="24" width="30" height="18" stroke="black" fill="red" fill-opacity="0.1" id="18">
<title>sprite_252</title>
</rect>
<rect x="160" y="24" width="18" height="18" stroke="black" fill="red" fill-opacity="0.1" id="19">
<title>sprite_253</title>
</rect>
<rect x="178" y="24" width="14" height="18" stroke="black" fill="red" fill-opacity="0.1" id="20">
<title>sprite_254</title>
</rect>
<rect x="192" y="24" width="14" height="18" stroke="black" fill="red" fill-opacity="0.1" id="21">
<title>sprite_255</title>
</rect>
<rect x="206" y="24" width="14" height="18" stroke="black" fill="red" fill-opacity="0.1" id="22">
<title>sprite_256</title>
</rect>
<rect x="220" y="24" width="14" height="18" stroke="black" fill="red" fill-opacity="0.1" id="23">
<title>sprite_257</title>
</rect>
<rect x="234" y="24" width="14" height="18" stroke="black" fill="red" fill-opacity="0.1" id="24">
<title>sprite_258</title>
</rect>
<rect x="248" y="24" width="14" height="18" stroke="black" fill="red" fill-opacity="0.1" id="25">
<title>sprite_259</title>
</rect>
<rect x="262" y="24" width="14" height="18" stroke="black" fill="red" fill-opacity="0.1" id="26">
<title>sprite_260</title>
</rect>
<rect x="70" y="42" width="70" height="26" stroke="black" fill="red" fill-opacity="0.1" id="27">
<title>sprite_261</title>
</rect>
<rect x="140" y="42" width="54" height="26" stroke="black" fill="red" fill-opacity="0.1" id="28">
<title>sprite_262</title>
</rect>
<rect x="194" y="42" width="50" height="26" stroke="black" fill="red" fill-opacity="0.1" id="29">
<title>sprite_263</title>
</rect>
<rect x="244" y="42" width="26" height="26" stroke="black" fill="red" fill-opacity="0.1" id="30">
<title>sprite_264</title>
</rect>
<rect x="270" y="42" width="18" height="26" stroke="black" fill="red" fill-opacity="0.1" id="31">
<title>sprite_265</title>
</rect>
<rect x="288" y="44" width="24" height="24" stroke="black" fill="red" fill-opacity="0.1" id="32">
<title>sprite_266</title>
</rect>
<rect x="312" y="44" width="24" height="24" stroke="black" fill="red" fill-opacity="0.1" id="33">
<title>sprite_267</title>
</rect>
<rect x="336" y="44" width="24" height="24" stroke="black" fill="red" fill-opacity="0.1" id="34">
<title>sprite_268</title>
</rect>
<rect x="360" y="44" width="24" height="24" stroke="black" fill="red" fill-opacity="0.1" id="35">
<title>sprite_269</title>
</rect>
<rect x="384" y="44" width="24" height="24" stroke="black" fill="red" fill-opacity="0.1" id="36">
<title>sprite_270</title>
</rect>
<rect x="408" y="44" width="24" height="24" stroke="black" fill="red" fill-opacity="0.1" id="37">
<title>sprite_271</title>
</rect>
<rect x="432" y="46" width="50" height="22" stroke="black" fill="red" fill-opacity="0.1" id="38">
<title>sprite_272</title>
</rect>
<rect x="62" y="68" width="62" height="30" stroke="black" fill="red" fill-opacity="0.1" id="39">
<title>sprite_273</title>
</rect>
<rect x="124" y="68" width="62" height="30" stroke="black" fill="red" fill-opacity="0.1" id="40">
<title>sprite_274</title>
</rect>
<rect x="186" y="68" width="62" height="30" stroke="black" fill="red" fill-opacity="0.1" id="41">
<title>sprite_275</title>
</rect>
<rect x="248" y="68" width="62" height="30" stroke="black" fill="red" fill-opacity="0.1" id="42">
<title>sprite_276</title>
</rect>
<rect x="310" y="68" width="30" height="30" stroke="black" fill="red" fill-opacity="0.1" id="43">
<title>sprite_277</title>
</rect>
<rect x="340" y="68" width="30" height="30" stroke="black" fill="red" fill-opacity="0.1" id="44">
<title>sprite_278</title>
</rect>
<rect x="370" y="68" width="30" height="30" stroke="black" fill="red" fill-opacity="0.1" id="45">
<title>sprite_279</title>
</rect>
<rect x="400" y="68" width="30" height="30" stroke="black" fill="red" fill-opacity="0.1" id="46">
<title>sprite_280</title>
</rect>
<rect x="430" y="68" width="30" height="30" stroke="black" fill="red" fill-opacity="0.1" id="47">
<title>sprite_281</title>
</rect>
<rect x="460" y="76" width="34" height="22" stroke="black" fill="red" fill-opacity="0.1" id="48">
<title>sprite_282</title>
</rect>
<rect x="62" y="98" width="62" height="30" stroke="black" fill="red" fill-opacity="0.1" id="49">
<title>sprite_283</title>
</rect>
<rect x="124" y="98" width="62" height="30" stroke="black" fill="red" fill-opacity="0.1" id="50">
<title>sprite_284</title>
</rect>
<rect x="186" y="98" width="62" height="30" stroke="black" fill="red" fill-opacity="0.1" id="51">
<title>sprite_285</title>
</rect>
<rect x="248" y="98" width="62" height="30" stroke="black" fill="red" fill-opacity="0.1" id="52">
<title>sprite_286</title>
</rect>
<rect x="310" y="98" width="62" height="30" stroke="black" fill="red" fill-opacity="0.1" id="53">
<title>sprite_287</title>
</rect>
<rect x="372" y="98" width="62" height="30" stroke="black" fill="red" fill-opacity="0.1" id="54">
<title>sprite_288</title>
</rect>
<rect x="434" y="98" width="62" height="30" stroke="black" fill="red" fill-opacity="0.1" id="55">
<title>sprite_289</title>
</rect>
<rect x="62" y="128" width="62" height="30" stroke="black" fill="red" fill-opacity="0.1" id="56">
<title>sprite_290</title>
</rect>
<rect x="124" y="128" width="62" height="30" stroke="black" fill="red" fill-opacity="0.1" id="57">
<title>sprite_291</title>
</rect>
<rect x="186" y="128" width="62" height="30" stroke="black" fill="red" fill-opacity="0.1" id="58">
<title>sprite_292</title>
</rect>
<rect x="248" y="128" width="62" height="30" stroke="black" fill="red" fill-opacity="0.1" id="59">
<title>sprite_293</title>
</rect>
<rect x="310" y="128" width="62" height="30" stroke="black" fill="red" fill-opacity="0.1" id="60">
<title>sprite_294</title>
</rect>
<rect x="372" y="128" width="62" height="30" stroke="black" fill="red" fill-opacity="0.1" id="61">
<title>sprite_295</title>
</rect>
<rect x="434" y="128" width="62" height="30" stroke="black" fill="red" fill-opacity="0.1" id="62">
<title>sprite_296</title>
</rect>
<rect x="62" y="158" width="62" height="30" stroke="black" fill="red" fill-opacity="0.1" id="63">
<title>sprite_297</title>
</rect>
<rect x="124" y="158" width="62" height="30" stroke="black" fill="red" fill-opacity="0.1" id="64">
<title>sprite_298</title>
</rect>
<rect x="186" y="158" width="62" height="30" stroke="black" fill="red" fill-opacity="0.1" id="65">
<title>sprite_299</title>
</rect>
<rect x="248" y="158" width="62" height="30" stroke="black" fill="red" fill-opacity="0.1" id="66">
<title>sprite_300</title>
</rect>
<rect x="310" y="158" width="62" height="30" stroke="black" fill="red" fill-opacity="0.1" id="67">
<title>sprite_301</title>
</rect>
<rect x="372" y="158" width="62" height="30" stroke="black" fill="red" fill-opacity="0.1" id="68">
<title>sprite_302</title>
</rect>
<rect x="434" y="158" width="62" height="30" stroke="black" fill="red" fill-opacity="0.1" id="69">
<title>sprite_303</title>
</rect>
<rect x="62" y="188" width="62" height="30" stroke="black" fill="red" fill-opacity="0.1" id="70">
<title>sprite_304</title>
</rect>
<rect x="124" y="188" width="62" height="30" stroke="black" fill="red" fill-opacity="0.1" id="71">
<title>sprite_305</title>
</rect>
<rect x="186" y="188" width="62" height="30" stroke="black" fill="red" fill-opacity="0.1" id="72">
<title>sprite_306</title>
</rect>
<rect x="248" y="188" width="62" height="30" stroke="black" fill="red" fill-opacity="0.1" id="73">
<title>sprite_307</title>
</rect>
<rect x="310" y="188" width="62" height="30" stroke="black" fill="red" fill-opacity="0.1" id="74">
<title>sprite_308</title>
</rect>
<rect x="372" y="188" width="62" height="30" stroke="black" fill="red" fill-opacity="0.1" id="75">
<title>sprite_309</title>
</rect>
<rect x="434" y="188" width="62" height="30" stroke="black" fill="red" fill-opacity="0.1" id="76">
<title>sprite_310</title>
</rect>
<rect x="62" y="218" width="62" height="30" stroke="black" fill="red" fill-opacity="0.1" id="77">
<title>sprite_311</title>
</rect>
<rect x="124" y="218" width="62" height="30" stroke="black" fill="red" fill-opacity="0.1" id="78">
<title>sprite_312</title>
</rect>
<rect x="186" y="218" width="62" height="30" stroke="black" fill="red" fill-opacity="0.1" id="79">
<title>sprite_313</title>
</rect>
<rect x="248" y="218" width="62" height="30" stroke="black" fill="red" fill-opacity="0.1" id="80">
<title>sprite_314</title>
</rect>
<rect x="310" y="218" width="62" height="30" stroke="black" fill="red" fill-opacity="0.1" id="81">
<title>sprite_315</title>
</rect>
<rect x="372" y="218" width="62" height="30" stroke="black" fill="red" fill-opacity="0.1" id="82">
<title>sprite_316</title>
</rect>
<rect x="434" y="218" width="62" height="30" stroke="black" fill="red" fill-opacity="0.1" id="83">
<title>sprite_317</title>
</rect>
<rect x="62" y="248" width="62" height="30" stroke="black" fill="red" fill-opacity="0.1" id="84">
<title>sprite_318</title>
</rect>
<rect x="124" y="248" width="62" height="30" stroke="black" fill="red" fill-opacity="0.1" id="85">
<title>sprite_319</title>
</rect>
<rect x="186" y="248" width="62" height="30" stroke="black" fill="red" fill-opacity="0.1" id="86">
<title>sprite_320</title>
</rect>
<rect x="248" y="248" width="62" height="30" stroke="black" fill="red" fill-opacity="0.1" id="87">
<title>sprite_321</title>
</rect>
<rect x="310" y="248" width="62" height="30" stroke="black" fill="red" fill-opacity="0.1" id="88">
<title>sprite_322</title>
</rect>
<rect x="372" y="248" width="62" height="30" stroke="black" fill="red" fill-opacity="0.1" id="89">
<title>sprite_323</title>
</rect>
<rect x="434" y="248" width="62" height="30" stroke="black" fill="red" fill-opacity="0.1" id="90">
<title>sprite_324</title>
</rect>
<rect x="30" y="278" width="30" height="34" stroke="black" fill="red" fill-opacity="0.1" id="91">
<title>sprite_325</title>
</rect>
<rect x="60" y="278" width="30" height="34" stroke="black" fill="red" fill-opacity="0.1" id="92">
<title>sprite_326</title>
</rect>
<rect x="90" y="278" width="30" height="34" stroke="black" fill="red" fill-opacity="0.1" id="93">
<title>sprite_327</title>
</rect>
<rect x="120" y="278" width="30" height="34" stroke="black" fill="red" fill-opacity="0.1" id="94">
<title>sprite_328</title>
</rect>
<rect x="150" y="278" width="30" height="34" stroke="black" fill="red" fill-opacity="0.1" id="95">
<title>sprite_329</title>
</rect>
<rect x="180" y="278" width="30" height="34" stroke="black" fill="red" fill-opacity="0.1" id="96">
<title>sprite_330</title>
</rect>
<rect x="210" y="278" width="30" height="34" stroke="black" fill="red" fill-opacity="0.1" id="97">
<title>sprite_331</title>
</rect>
<rect x="240" y="278" width="30" height="34" stroke="black" fill="red" fill-opacity="0.1" id="98">
<title>sprite_332</title>
</rect>
<rect x="270" y="282" width="62" height="30" stroke="black" fill="red" fill-opacity="0.1" id="99">
<title>sprite_333</title>
</rect>
<rect x="332" y="282" width="62" height="30" stroke="black" fill="red" fill-opacity="0.1" id="100">
<title>sprite_334</title>
</rect>
<rect x="394" y="282" width="62" height="30" stroke="black" fill="red" fill-opacity="0.1" id="101">
<title>sprite_335</title>
</rect>
<rect x="456" y="294" width="50" height="18" stroke="black" fill="red" fill-opacity="0.1" id="102">
<title>sprite_336</title>
</rect>
<rect x="34" y="312" width="34" height="34" stroke="black" fill="red" fill-opacity="0.1" id="103">
<title>sprite_337</title>
</rect>
<rect x="68" y="312" width="34" height="34" stroke="black" fill="red" fill-opacity="0.1" id="104">
<title>sprite_338</title>
</rect>
<rect x="102" y="312" width="34" height="34" stroke="black" fill="red" fill-opacity="0.1" id="105">
<title>sprite_339</title>
</rect>
<rect x="136" y="312" width="34" height="34" stroke="black" fill="red" fill-opacity="0.1" id="106">
<title>sprite_340</title>
</rect>
<rect x="170" y="312" width="34" height="34" stroke="black" fill="red" fill-opacity="0.1" id="107">
<title>sprite_341</title>
</rect>
<rect x="204" y="312" width="34" height="34" stroke="black" fill="red" fill-opacity="0.1" id="108">
<title>sprite_342</title>
</rect>
<rect x="238" y="312" width="34" height="34" stroke="black" fill="red" fill-opacity="0.1" id="109">
<title>sprite_343</title>
</rect>
<rect x="272" y="312" width="34" height="34" stroke="black" fill="red" fill-opacity="0.1" id="110">
<title>sprite_344</title>
</rect>
<rect x="306" y="312" width="34" height="34" stroke="black" fill="red" fill-opacity="0.1" id="111">
<title>sprite_345</title>
</rect>
<rect x="340" y="312" width="34" height="34" stroke="black" fill="red" fill-opacity="0.1" id="112">
<title>sprite_346</title>
</rect>
<rect x="374" y="312" width="34" height="34" stroke="black" fill="red" fill-opacity="0.1" id="113">
<title>sprite_347</title>
</rect>
<rect x="408" y="312" width="34" height="34" stroke="black" fill="red" fill-opacity="0.1" id="114">
<title>sprite_348</title>
</rect>
<rect x="442" y="312" width="34" height="34" stroke="black" fill="red" fill-opacity="0.1" id="115">
<title>sprite_349</title>
</rect>
<rect x="476" y="312" width="34" height="34" stroke="black" fill="red" fill-opacity="0.1" id="116">
<title>sprite_350</title>
</rect>
<rect x="30" y="350" width="42" height="38" stroke="black" fill="red" fill-opacity="0.1" id="117">
<title>sprite_351</title>
</rect>
<rect x="72" y="352" width="52" height="36" stroke="black" fill="red" fill-opacity="0.1" id="118">
<title>sprite_352</title>
</rect>
<rect x="124" y="353" width="52" height="35" stroke="black" fill="red" fill-opacity="0.1" id="119">
<title>sprite_353</title>
</rect>
<rect x="176" y="354" width="34" height="34" stroke="black" fill="red" fill-opacity="0.1" id="120">
<title>sprite_354</title>
</rect>
<rect x="210" y="354" width="34" height="34" stroke="black" fill="red" fill-opacity="0.1" id="121">
<title>sprite_355</title>
</rect>
<rect x="244" y="354" width="34" height="34" stroke="black" fill="red" fill-opacity="0.1" id="122">
<title>sprite_356</title>
</rect>
<rect x="278" y="354" width="34" height="34" stroke="black" fill="red" fill-opacity="0.1" id="123">
<title>sprite_357</title>
</rect>
<rect x="312" y="354" width="34" height="34" stroke="black" fill="red" fill-opacity="0.1" id="124">
<title>sprite_358</title>
</rect>
<rect x="346" y="354" width="34" height="34" stroke="black" fill="red" fill-opacity="0.1" id="125">
<title>sprite_359</title>
</rect>
<rect x="380" y="354" width="34" height="34" stroke="black" fill="red" fill-opacity="0.1" id="126">
<title>sprite_360</title>
</rect>
<rect x="414" y="354" width="34" height="34" stroke="black" fill="red" fill-opacity="0.1" id="127">
<title>sprite_361</title>
</rect>
<rect x="448" y="354" width="34" height="34" stroke="black" fill="red" fill-opacity="0.1" id="128">
<title>sprite_362</title>
</rect>
<rect x="482" y="354" width="30" height="34" stroke="black" fill="red" fill-opacity="0.1" id="129">
<title>sprite_363</title>
</rect>
<rect x="58" y="388" width="58" height="60" stroke="black" fill="red" fill-opacity="0.1" id="130">
<title>sprite_364</title>
</rect>
<rect x="116" y="388" width="58" height="60" stroke="black" fill="red" fill-opacity="0.1" id="131">
<title>sprite_365</title>
</rect>
<rect x="174" y="398" width="62" height="50" stroke="black" fill="red" fill-opacity="0.1" id="132">
<title>sprite_366</title>
</rect>
<rect x="236" y="398" width="62" height="50" stroke="black" fill="red" fill-opacity="0.1" id="133">
<title>sprite_367</title>
</rect>
<rect x="298" y="398" width="62" height="50" stroke="black" fill="red" fill-opacity="0.1" id="134">
<title>sprite_368</title>
</rect>
<rect x="360" y="398" width="62" height="50" stroke="black" fill="red" fill-opacity="0.1" id="135">
<title>sprite_369</title>
</rect>
<rect x="422" y="398" width="62" height="50" stroke="black" fill="red" fill-opacity="0.1" id="136">
<title>sprite_370</title>
</rect>
<rect x="64" y="452" width="58" height="60" stroke="black" fill="red" fill-opacity="0.1" id="137">
<title>sprite_371</title>
</rect>
<rect x="122" y="452" width="58" height="60" stroke="black" fill="red" fill-opacity="0.1" id="138">
<title>sprite_372</title>
</rect>
<rect x="180" y="452" width="58" height="60" stroke="black" fill="red" fill-opacity="0.1" id="139">
<title>sprite_373</title>
</rect>
<rect x="238" y="452" width="58" height="60" stroke="black" fill="red" fill-opacity="0.1" id="140">
<title>sprite_374</title>
</rect>
<rect x="296" y="452" width="58" height="60" stroke="black" fill="red" fill-opacity="0.1" id="141">
<title>sprite_375</title>
</rect>
<rect x="354" y="452" width="58" height="60" stroke="black" fill="red" fill-opacity="0.1" id="142">
<title>sprite_376</title>
</rect>
<rect x="412" y="452" width="58" height="60" stroke="black" fill="red" fill-opacity="0.1" id="143">
<title>sprite_377</title>
</rect>
<rect x="470" y="470" width="30" height="42" stroke="black" fill="red" fill-opacity="0.1" id="144">
<title>sprite_378</title>
</rect>
</svg>