<?xml version="1.0" encoding="UTF-8"?>
<svg xmlns="http://www.w3.org/2000/svg" xmlns:xlink="http://www.w3.org/1999/xlink"
     width="512" height="512" viewBox="0 0 512 512">
<defs>
</defs>
<rect x="0" y="448" width="64" height="64" stroke="black" fill="red" fill-opacity="0.1" />
<rect x="0" y="384" width="64" height="64" stroke="black" fill="red" fill-opacity="0.1" />
<rect x="0" y="334" width="70" height="50" stroke="black" fill="red" fill-opacity="0.1" />
<rect x="0" y="292" width="42" height="42" stroke="black" fill="red" fill-opacity="0.1" />
<rect x="0" y="254" width="126" height="38" stroke="black" fill="red" fill-opacity="0.1" />
<rect x="0" y="216" width="126" height="38" stroke="black" fill="red" fill-opacity="0.1" />
<rect x="0" y="178" width="126" height="38" stroke="black" fill="red" fill-opacity="0.1" />
<rect x="0" y="140" width="126" height="38" stroke="black" fill="red" fill-opacity="0.1" />
<rect x="0" y="102" width="126" height="38" stroke="black" fill="red" fill-opacity="0.1" />
<rect x="0" y="83" width="47" height="19" stroke="black" fill="red" fill-opacity="0.1" />
<rect x="0" y="67" width="149" height="16" stroke="black" fill="red" fill-opacity="0.1" />
<rect x="0" y="51" width="149" height="16" stroke="black" fill="red" fill-opacity="0.1" />
<rect x="0" y="37" width="325" height="14" stroke="black" fill="red" fill-opacity="0.1" />
<rect x="325" y="37" width="14" height="14" stroke="black" fill="red" fill-opacity="0.1" />
<rect x="339" y="39" width="85" height="12" stroke="black" fill="red" fill-opacity="0.1" />
<rect x="424" y="43" width="6" height="8" stroke="black" fill="red" fill-opacity="0.1" />
<rect x="0" y="23" width="325" height="14" stroke="black" fill="red" fill-opacity="0.1" />
<rect x="325" y="27" width="126" height="10" stroke="black" fill="red" fill-opacity="0.1" />
<rect x="0" y="9" width="272" height="14" stroke="black" fill="red" fill-opacity="0.1" />
<rect x="149" y="51" width="149" height="16" stroke="black" fill="red" fill-opacity="0.1" />
<rect x="298" y="51" width="149" height="16" stroke="black" fill="red" fill-opacity="0.1" />
<rect x="149" y="67" width="149" height="16" stroke="black" fill="red" fill-opacity="0.1" />
<rect x="298" y="67" width="149" height="16" stroke="black" fill="red" fill-opacity="0.1" />
<rect x="47" y="84" width="50" height="18" stroke="black" fill="red" fill-opacity="0.1" />
<rect x="97" y="86" width="180" height="16" stroke="black" fill="red" fill-opacity="0.1" />
<rect x="277" y="86" width="149" height="16" stroke="black" fill="red" fill-opacity="0.1" />
<rect x="126" y="102" width="42" height="38" stroke="black" fill="red" fill-opacity="0.1" />
<rect x="168" y="102" width="42" height="38" stroke="black" fill="red" fill-opacity="0.1" />
<rect x="210" y="102" width="42" height="38" stroke="black" fill="red" fill-opacity="0.1" />
<rect x="252" y="108" width="149" height="32" stroke="black" fill="red" fill-opacity="0.1" />
<rect x="401" y="110" width="96" height="30" stroke="black" fill="red" fill-opacity="0.1" />
<rect x="126" y="140" width="126" height="38" stroke="black" fill="red" fill-opacity="0.1" />
<rect x="252" y="140" width="126" height="38" stroke="black" fill="red" fill-opacity="0.1" />
<rect x="378" y="140" width="126" height="38" stroke="black" fill="red" fill-opacity="0.1" />
<rect x="126" y="178" width="126" height="38" stroke="black" fill="red" fill-opacity="0.1" />
<rect x="252" y="178" width="126" height="38" stroke="black" fill="red" fill-opacity="0.1" />
<rect x="378" y="178" width="126" height="38" stroke="black" fill="red" fill-opacity="0.1" />
<rect x="126" y="216" width="126" height="38" stroke="black" fill="red" fill-opacity="0.1" />
<rect x="252" y="216" width="126" height="38" stroke="black" fill="red" fill-opacity="0.1" />
<rect x="378" y="216" width="126" height="38" stroke="black" fill="red" fill-opacity="0.1" />
<rect x="126" y="254" width="126" height="38" stroke="black" fill="red" fill-opacity="0.1" />
<rect x="252" y="254" width="126" height="38" stroke="black" fill="red" fill-opacity="0.1" />
<rect x="378" y="254" width="126" height="38" stroke="black" fill="red" fill-opacity="0.1" />
<rect x="42" y="296" width="126" height="38" stroke="black" fill="red" fill-opacity="0.1" />
<rect x="168" y="296" width="126" height="38" stroke="black" fill="red" fill-opacity="0.1" />
<rect x="294" y="296" width="126" height="38" stroke="black" fill="red" fill-opacity="0.1" />
<rect x="420" y="312" width="46" height="22" stroke="black" fill="red" fill-opacity="0.1" />
<rect x="466" y="312" width="34" height="22" stroke="black" fill="red" fill-opacity="0.1" />
<rect x="70" y="334" width="66" height="50" stroke="black" fill="red" fill-opacity="0.1" />
<rect x="136" y="334" width="62" height="50" stroke="black" fill="red" fill-opacity="0.1" />
<rect x="198" y="334" width="62" height="50" stroke="black" fill="red" fill-opacity="0.1" />
<rect x="260" y="334" width="62" height="50" stroke="black" fill="red" fill-opacity="0.1" />
<rect x="322" y="334" width="62" height="50" stroke="black" fill="red" fill-opacity="0.1" />
<rect x="384" y="334" width="62" height="50" stroke="black" fill="red" fill-opacity="0.1" />
<rect x="446" y="338" width="50" height="46" stroke="black" fill="red" fill-opacity="0.1" />
<rect x="64" y="384" width="64" height="64" stroke="black" fill="red" fill-opacity="0.1" />
<rect x="128" y="386" width="62" height="62" stroke="black" fill="red" fill-opacity="0.1" />
<rect x="190" y="386" width="62" height="62" stroke="black" fill="red" fill-opacity="0.1" />
<rect x="252" y="386" width="62" height="62" stroke="black" fill="red" fill-opacity="0.1" />
<rect x="314" y="386" width="62" height="62" stroke="black" fill="red" fill-opacity="0.1" />
<rect x="376" y="386" width="62" height="62" stroke="black" fill="red" fill-opacity="0.1" />
<rect x="438" y="386" width="62" height="62" stroke="black" fill="red" fill-opacity="0.1" />
<rect x="64" y="448" width="64" height="64" stroke="black" fill="red" fill-opacity="0.1" />
<rect x="128" y="448" width="64" height="64" stroke="black" fill="red" fill-opacity="0.1" />
<rect x="192" y="448" width="64" height="64" stroke="black" fill="red" fill-opacity="0.1" />
<rect x="256" y="448" width="64" height="64" stroke="black" fill="red" fill-opacity="0.1" />
<rect x="320" y="448" width="64" height="64" stroke="black" fill="red" fill-opacity="0.1" />
<rect x="384" y="448" width="64" height="64" stroke="black" fill="red" fill-opacity="0.1" />
<rect x="448" y="448" width="64" height="64" stroke="black" fill="red" fill-opacity="0.1" />
</svg>