<?xml version="1.0" encoding="UTF-8"?>
<svg xmlns="http://www.w3.org/2000/svg" xmlns:xlink="http://www.w3.org/1999/xlink"
     width="1024" height="1024" viewBox="0 0 1024 1024">
<defs>
</defs>
<rect x="0" y="514" width="126" height="510" stroke="black" fill="red" fill-opacity="0.1" id="0">
<title>sprite_0</title>
</rect>
<rect x="126" y="896" width="128" height="128" stroke="black" fill="red" fill-opacity="0.1" id="1">
<title>sprite_1</title>
</rect>
<rect x="254" y="896" width="128" height="128" stroke="black" fill="red" fill-opacity="0.1" id="2">
<title>sprite_2</title>
</rect>
<rect x="382" y="896" width="128" height="128" stroke="black" fill="red" fill-opacity="0.1" id="3">
<title>sprite_3</title>
</rect>
<rect x="510" y="896" width="128" height="128" stroke="black" fill="red" fill-opacity="0.1" id="4">
<title>sprite_4</title>
</rect>
<rect x="638" y="896" width="128" height="128" stroke="black" fill="red" fill-opacity="0.1" id="5">
<title>sprite_5</title>
</rect>
<rect x="766" y="896" width="128" height="128" stroke="black" fill="red" fill-opacity="0.1" id="6">
<title>sprite_6</title>
</rect>
<rect x="894" y="896" width="128" height="128" stroke="black" fill="red" fill-opacity="0.1" id="7">
<title>sprite_7</title>
</rect>
<rect x="0" y="386" width="128" height="128" stroke="black" fill="red" fill-opacity="0.1" id="8">
<title>sprite_8</title>
</rect>
<rect x="128" y="386" width="128" height="128" stroke="black" fill="red" fill-opacity="0.1" id="9">
<title>sprite_9</title>
</rect>
<rect x="256" y="386" width="128" height="128" stroke="black" fill="red" fill-opacity="0.1" id="10">
<title>sprite_10</title>
</rect>
<rect x="384" y="386" width="128" height="128" stroke="black" fill="red" fill-opacity="0.1" id="11">
<title>sprite_11</title>
</rect>
<rect x="512" y="386" width="128" height="128" stroke="black" fill="red" fill-opacity="0.1" id="12">
<title>sprite_12</title>
</rect>
<rect x="640" y="386" width="128" height="128" stroke="black" fill="red" fill-opacity="0.1" id="13">
<title>sprite_13</title>
</rect>
<rect x="768" y="386" width="128" height="128" stroke="black" fill="red" fill-opacity="0.1" id="14">
<title>sprite_14</title>
</rect>
<rect x="896" y="386" width="128" height="128" stroke="black" fill="red" fill-opacity="0.1" id="15">
<title>sprite_15</title>
</rect>
<rect x="0" y="258" width="128" height="128" stroke="black" fill="red" fill-opacity="0.1" id="16">
<title>sprite_16</title>
</rect>
<rect x="128" y="258" width="128" height="128" stroke="black" fill="red" fill-opacity="0.1" id="17">
<title>sprite_17</title>
</rect>
<rect x="256" y="258" width="128" height="128" stroke="black" fill="red" fill-opacity="0.1" id="18">
<title>sprite_18</title>
</rect>
<rect x="384" y="258" width="128" height="128" stroke="black" fill="red" fill-opacity="0.1" id="19">
<title>sprite_19</title>
</rect>
<rect x="512" y="258" width="128" height="128" stroke="black" fill="red" fill-opacity="0.1" id="20">
<title>sprite_20</title>
</rect>
<rect x="640" y="258" width="128" height="128" stroke="black" fill="red" fill-opacity="0.1" id="21">
<title>sprite_21</title>
</rect>
<rect x="768" y="258" width="128" height="128" stroke="black" fill="red" fill-opacity="0.1" id="22">
<title>sprite_22</title>
</rect>
<rect x="896" y="258" width="128" height="128" stroke="black" fill="red" fill-opacity="0.1" id="23">
<title>sprite_23</title>
</rect>
<rect x="0" y="130" width="128" height="128" stroke="black" fill="red" fill-opacity="0.1" id="24">
<title>sprite_24</title>
</rect>
<rect x="128" y="130" width="128" height="128" stroke="black" fill="red" fill-opacity="0.1" id="25">
<title>sprite_25</title>
</rect>
<rect x="256" y="130" width="128" height="128" stroke="black" fill="red" fill-opacity="0.1" id="26">
<title>sprite_26</title>
</rect>
<rect x="384" y="130" width="128" height="128" stroke="black" fill="red" fill-opacity="0.1" id="27">
<title>sprite_27</title>
</rect>
<rect x="512" y="130" width="128" height="128" stroke="black" fill="red" fill-opacity="0.1" id="28">
<title>sprite_28</title>
</rect>
<rect x="640" y="130" width="128" height="128" stroke="black" fill="red" fill-opacity="0.1" id="29">
<title>sprite_29</title>
</rect>
<rect x="768" y="130" width="128" height="128" stroke="black" fill="red" fill-opacity="0.1" id="30">
<title>sprite_30</title>
</rect>
<rect x="896" y="130" width="128" height="128" stroke="black" fill="red" fill-opacity="0.1" id="31">
<title>sprite_31</title>
</rect>
<rect x="0" y="2" width="128" height="128" stroke="black" fill="red" fill-opacity="0.1" id="32">
<title>sprite_32</title>
</rect>
<rect x="128" y="2" width="128" height="128" stroke="black" fill="red" fill-opacity="0.1" id="33">
<title>sprite_33</title>
</rect>
<rect x="256" y="2" width="128" height="128" stroke="black" fill="red" fill-opacity="0.1" id="34">
<title>sprite_34</title>
</rect>
<rect x="384" y="2" width="128" height="128" stroke="black" fill="red" fill-opacity="0.1" id="35">
<title>sprite_35</title>
</rect>
<rect x="512" y="2" width="128" height="128" stroke="black" fill="red" fill-opacity="0.1" id="36">
<title>sprite_36</title>
</rect>
<rect x="640" y="2" width="128" height="128" stroke="black" fill="red" fill-opacity="0.1" id="37">
<title>sprite_37</title>
</rect>
<rect x="768" y="28" width="102" height="102" stroke="black" fill="red" fill-opacity="0.1" id="38">
<title>sprite_38</title>
</rect>
<rect x="870" y="28" width="102" height="102" stroke="black" fill="red" fill-opacity="0.1" id="39">
<title>sprite_39</title>
</rect>
<rect x="126" y="794" width="102" height="102" stroke="black" fill="red" fill-opacity="0.1" id="40">
<title>sprite_40</title>
</rect>
<rect x="228" y="794" width="102" height="102" stroke="black" fill="red" fill-opacity="0.1" id="41">
<title>sprite_41</title>
</rect>
<rect x="330" y="794" width="102" height="102" stroke="black" fill="red" fill-opacity="0.1" id="42">
<title>sprite_42</title>
</rect>
<rect x="432" y="794" width="102" height="102" stroke="black" fill="red" fill-opacity="0.1" id="43">
<title>sprite_43</title>
</rect>
<rect x="534" y="794" width="102" height="102" stroke="black" fill="red" fill-opacity="0.1" id="44">
<title>sprite_44</title>
</rect>
<rect x="636" y="794" width="102" height="102" stroke="black" fill="red" fill-opacity="0.1" id="45">
<title>sprite_45</title>
</rect>
<rect x="126" y="707" width="456" height="87" stroke="black" fill="red" fill-opacity="0.1" id="46">
<title>sprite_46</title>
</rect>
<rect x="582" y="707" width="368" height="87" stroke="black" fill="red" fill-opacity="0.1" id="47">
<title>sprite_47</title>
</rect>
<rect x="126" y="620" width="368" height="87" stroke="black" fill="red" fill-opacity="0.1" id="48">
<title>sprite_48</title>
</rect>
<rect x="494" y="620" width="368" height="87" stroke="black" fill="red" fill-opacity="0.1" id="49">
<title>sprite_49</title>
</rect>
<rect x="972" y="83" width="49" height="47" stroke="black" fill="red" fill-opacity="0.1" id="50">
<title>sprite_50</title>
</rect>
<rect x="862" y="660" width="49" height="47" stroke="black" fill="red" fill-opacity="0.1" id="51">
<title>sprite_51</title>
</rect>
<rect x="911" y="660" width="47" height="47" stroke="black" fill="red" fill-opacity="0.1" id="52">
<title>sprite_52</title>
</rect>
<rect x="958" y="660" width="47" height="47" stroke="black" fill="red" fill-opacity="0.1" id="53">
<title>sprite_53</title>
</rect>
<rect x="950" y="747" width="47" height="47" stroke="black" fill="red" fill-opacity="0.1" id="54">
<title>sprite_54</title>
</rect>
<rect x="738" y="849" width="47" height="47" stroke="black" fill="red" fill-opacity="0.1" id="55">
<title>sprite_55</title>
</rect>
<rect x="785" y="849" width="47" height="47" stroke="black" fill="red" fill-opacity="0.1" id="56">
<title>sprite_56</title>
</rect>
<rect x="832" y="849" width="47" height="47" stroke="black" fill="red" fill-opacity="0.1" id="57">
<title>sprite_57</title>
</rect>
<rect x="879" y="849" width="47" height="47" stroke="black" fill="red" fill-opacity="0.1" id="58">
<title>sprite_58</title>
</rect>
<rect x="926" y="849" width="47" height="47" stroke="black" fill="red" fill-opacity="0.1" id="59">
<title>sprite_59</title>
</rect>
<rect x="973" y="849" width="46" height="47" stroke="black" fill="red" fill-opacity="0.1" id="60">
<title>sprite_60</title>
</rect>
<rect x="972" y="36" width="46" height="47" stroke="black" fill="red" fill-opacity="0.1" id="61">
<title>sprite_61</title>
</rect>
<rect x="126" y="573" width="46" height="47" stroke="black" fill="red" fill-opacity="0.1" id="62">
<title>sprite_62</title>
</rect>
<rect x="172" y="573" width="46" height="47" stroke="black" fill="red" fill-opacity="0.1" id="63">
<title>sprite_63</title>
</rect>
<rect x="218" y="573" width="45" height="47" stroke="black" fill="red" fill-opacity="0.1" id="64">
<title>sprite_64</title>
</rect>
<rect x="263" y="573" width="45" height="47" stroke="black" fill="red" fill-opacity="0.1" id="65">
<title>sprite_65</title>
</rect>
<rect x="308" y="573" width="45" height="47" stroke="black" fill="red" fill-opacity="0.1" id="66">
<title>sprite_66</title>
</rect>
<rect x="353" y="573" width="45" height="47" stroke="black" fill="red" fill-opacity="0.1" id="67">
<title>sprite_67</title>
</rect>
<rect x="398" y="573" width="29" height="47" stroke="black" fill="red" fill-opacity="0.1" id="68">
<title>sprite_68</title>
</rect>
<rect x="427" y="577" width="156" height="43" stroke="black" fill="red" fill-opacity="0.1" id="69">
<title>sprite_69</title>
</rect>
<rect x="583" y="578" width="185" height="42" stroke="black" fill="red" fill-opacity="0.1" id="70">
<title>sprite_70</title>
</rect>
<rect x="768" y="578" width="176" height="42" stroke="black" fill="red" fill-opacity="0.1" id="71">
<title>sprite_71</title>
</rect>
<rect x="944" y="581" width="40" height="39" stroke="black" fill="red" fill-opacity="0.1" id="72">
<title>sprite_72</title>
</rect>
<rect x="984" y="586" width="34" height="34" stroke="black" fill="red" fill-opacity="0.1" id="73">
<title>sprite_73</title>
</rect>
<rect x="972" y="2" width="34" height="34" stroke="black" fill="red" fill-opacity="0.1" id="74">
<title>sprite_74</title>
</rect>
<rect x="126" y="539" width="34" height="34" stroke="black" fill="red" fill-opacity="0.1" id="75">
<title>sprite_75</title>
</rect>
<rect x="160" y="539" width="34" height="34" stroke="black" fill="red" fill-opacity="0.1" id="76">
<title>sprite_76</title>
</rect>
<rect x="194" y="539" width="34" height="34" stroke="black" fill="red" fill-opacity="0.1" id="77">
<title>sprite_77</title>
</rect>
<rect x="228" y="539" width="34" height="34" stroke="black" fill="red" fill-opacity="0.1" id="78">
<title>sprite_78</title>
</rect>
<rect x="262" y="539" width="34" height="34" stroke="black" fill="red" fill-opacity="0.1" id="79">
<title>sprite_79</title>
</rect>
<rect x="296" y="539" width="34" height="34" stroke="black" fill="red" fill-opacity="0.1" id="80">
<title>sprite_80</title>
</rect>
<rect x="330" y="539" width="34" height="34" stroke="black" fill="red" fill-opacity="0.1" id="81">
<title>sprite_81</title>
</rect>
<rect x="364" y="539" width="34" height="34" stroke="black" fill="red" fill-opacity="0.1" id="82">
<title>sprite_82</title>
</rect>
<rect x="398" y="539" width="34" height="34" stroke="black" fill="red" fill-opacity="0.1" id="83">
<title>sprite_83</title>
</rect>
<rect x="432" y="539" width="34" height="34" stroke="black" fill="red" fill-opacity="0.1" id="84">
<title>sprite_84</title>
</rect>
<rect x="466" y="539" width="34" height="34" stroke="black" fill="red" fill-opacity="0.1" id="85">
<title>sprite_85</title>
</rect>
<rect x="500" y="539" width="34" height="34" stroke="black" fill="red" fill-opacity="0.1" id="86">
<title>sprite_86</title>
</rect>
<rect x="534" y="539" width="34" height="34" stroke="black" fill="red" fill-opacity="0.1" id="87">
<title>sprite_87</title>
</rect>
<rect x="568" y="539" width="34" height="34" stroke="black" fill="red" fill-opacity="0.1" id="88">
<title>sprite_88</title>
</rect>
<rect x="602" y="539" width="34" height="34" stroke="black" fill="red" fill-opacity="0.1" id="89">
<title>sprite_89</title>
</rect>
<rect x="636" y="539" width="34" height="34" stroke="black" fill="red" fill-opacity="0.1" id="90">
<title>sprite_90</title>
</rect>
<rect x="670" y="539" width="34" height="34" stroke="black" fill="red" fill-opacity="0.1" id="91">
<title>sprite_91</title>
</rect>
<rect x="704" y="539" width="34" height="34" stroke="black" fill="red" fill-opacity="0.1" id="92">
<title>sprite_92</title>
</rect>
<rect x="738" y="539" width="34" height="34" stroke="black" fill="red" fill-opacity="0.1" id="93">
<title>sprite_93</title>
</rect>
<rect x="772" y="539" width="34" height="34" stroke="black" fill="red" fill-opacity="0.1" id="94">
<title>sprite_94</title>
</rect>
<rect x="806" y="539" width="34" height="34" stroke="black" fill="red" fill-opacity="0.1" id="95">
<title>sprite_95</title>
</rect>
<rect x="840" y="539" width="34" height="34" stroke="black" fill="red" fill-opacity="0.1" id="96">
<title>sprite_96</title>
</rect>
<rect x="874" y="539" width="34" height="34" stroke="black" fill="red" fill-opacity="0.1" id="97">
<title>sprite_97</title>
</rect>
<rect x="908" y="539" width="34" height="34" stroke="black" fill="red" fill-opacity="0.1" id="98">
<title>sprite_98</title>
</rect>
<rect x="942" y="539" width="34" height="34" stroke="black" fill="red" fill-opacity="0.1" id="99">
<title>sprite_99</title>
</rect>
<rect x="976" y="539" width="34" height="34" stroke="black" fill="red" fill-opacity="0.1" id="100">
<title>sprite_100</title>
</rect>
<rect x="862" y="626" width="34" height="34" stroke="black" fill="red" fill-opacity="0.1" id="101">
<title>sprite_101</title>
</rect>
<rect x="896" y="630" width="36" height="30" stroke="black" fill="red" fill-opacity="0.1" id="102">
<title>sprite_102</title>
</rect>
<rect x="768" y="0" width="151" height="28" stroke="black" fill="red" fill-opacity="0.1" id="103">
<title>sprite_103</title>
</rect>
<rect x="919" y="1" width="27" height="27" stroke="black" fill="red" fill-opacity="0.1" id="104">
<title>sprite_104</title>
</rect>
<rect x="738" y="823" width="169" height="26" stroke="black" fill="red" fill-opacity="0.1" id="105">
<title>sprite_105</title>
</rect>
<rect x="126" y="515" width="143" height="24" stroke="black" fill="red" fill-opacity="0.1" id="106">
<title>sprite_106</title>
</rect>
<rect x="269" y="516" width="190" height="23" stroke="black" fill="red" fill-opacity="0.1" id="107">
<title>sprite_107</title>
</rect>
<rect x="459" y="516" width="190" height="23" stroke="black" fill="red" fill-opacity="0.1" id="108">
<title>sprite_108</title>
</rect>
<rect x="649" y="518" width="36" height="21" stroke="black" fill="red" fill-opacity="0.1" id="109">
<title>sprite_109</title>
</rect>
<rect x="685" y="519" width="190" height="20" stroke="black" fill="red" fill-opacity="0.1" id="110">
<title>sprite_110</title>
</rect>
<rect x="738" y="803" width="190" height="20" stroke="black" fill="red" fill-opacity="0.1" id="111">
<title>sprite_111</title>
</rect>
</svg>