<?xml version="1.0" encoding="UTF-8" standalone="no"?>
<!-- Created with Inkscape (http://www.inkscape.org/) -->

<svg
   width="512"
   height="512"
   viewBox="0 -3 135.46666 135.46667"
   version="1.1"
   id="svg1"
   xml:space="preserve"
   inkscape:version="1.3.2 (091e20e, 2023-11-25, custom)"
   sodipodi:docname="xb-dark.svg"
   inkscape:export-filename="buttons-keys.png"
   inkscape:export-xdpi="96"
   inkscape:export-ydpi="96"
   xmlns:inkscape="http://www.inkscape.org/namespaces/inkscape"
   xmlns:sodipodi="http://sodipodi.sourceforge.net/DTD/sodipodi-0.dtd"
   xmlns:xlink="http://www.w3.org/1999/xlink"
   xmlns="http://www.w3.org/2000/svg"
   xmlns:svg="http://www.w3.org/2000/svg"><sodipodi:namedview
     id="namedview1"
     pagecolor="#ff00ff"
     bordercolor="#eeeeee"
     borderopacity="1"
     inkscape:showpageshadow="0"
     inkscape:pageopacity="0"
     inkscape:pagecheckerboard="0"
     inkscape:deskcolor="#ff00ff"
     inkscape:document-units="px"
     inkscape:zoom="0.53008455"
     inkscape:cx="405.59567"
     inkscape:cy="581.98263"
     inkscape:window-width="3840"
     inkscape:window-height="2054"
     inkscape:window-x="-11"
     inkscape:window-y="-11"
     inkscape:window-maximized="1"
     inkscape:current-layer="layer1"
     showguides="true" /><defs
     id="defs1"><linearGradient
       id="Gradient_9"
       gradientUnits="userSpaceOnUse"
       x1="49"
       y1="27.5"
       x2="49"
       y2="38"
       spreadMethod="pad"><stop
         offset="0%"
         stop-color="#D7D7D7"
         id="stop17" /><stop
         offset="100%"
         stop-color="#313131"
         id="stop18" /></linearGradient><linearGradient
       id="Gradient_10"
       gradientUnits="userSpaceOnUse"
       x1="49"
       y1="42.487499"
       x2="49"
       y2="29.012501"
       spreadMethod="pad"><stop
         offset="0%"
         stop-color="#4F4F4F"
         id="stop19" /><stop
         offset="100%"
         stop-color="#F5F5F5"
         id="stop20" /></linearGradient><linearGradient
       id="Gradient_11"
       gradientUnits="userSpaceOnUse"
       x1="49.5"
       y1="32.262501"
       x2="49.5"
       y2="40.237499"
       spreadMethod="pad"><stop
         offset="0%"
         stop-color="#FFFFFF"
         id="stop21" /><stop
         offset="100%"
         stop-color="#626262"
         id="stop22" /></linearGradient><linearGradient
       id="Gradient_12"
       gradientUnits="userSpaceOnUse"
       x1="49"
       y1="20.512501"
       x2="49"
       y2="32.487499"
       spreadMethod="pad"><stop
         offset="0%"
         stop-color="#404040"
         id="stop23" /><stop
         offset="100%"
         stop-color="#1B1B1B"
         id="stop24" /></linearGradient><linearGradient
       id="Gradient_13"
       gradientUnits="userSpaceOnUse"
       x1="72.5"
       y1="49"
       x2="62"
       y2="49"
       spreadMethod="pad"><stop
         offset="0%"
         stop-color="#D7D7D7"
         id="stop25" /><stop
         offset="100%"
         stop-color="#313131"
         id="stop26" /></linearGradient><linearGradient
       id="Gradient_14"
       gradientUnits="userSpaceOnUse"
       x1="57.512501"
       y1="49"
       x2="70.987503"
       y2="49"
       spreadMethod="pad"><stop
         offset="0%"
         stop-color="#4F4F4F"
         id="stop27" /><stop
         offset="100%"
         stop-color="#F5F5F5"
         id="stop28" /></linearGradient><linearGradient
       id="Gradient_15"
       gradientUnits="userSpaceOnUse"
       x1="67.737503"
       y1="49.5"
       x2="59.762501"
       y2="49.5"
       spreadMethod="pad"><stop
         offset="0%"
         stop-color="#FFFFFF"
         id="stop29" /><stop
         offset="100%"
         stop-color="#626262"
         id="stop30" /></linearGradient><linearGradient
       id="Gradient_16"
       gradientUnits="userSpaceOnUse"
       x1="79.487503"
       y1="49"
       x2="67.512497"
       y2="49"
       spreadMethod="pad"><stop
         offset="0%"
         stop-color="#404040"
         id="stop31" /><stop
         offset="100%"
         stop-color="#1B1B1B"
         id="stop32" /></linearGradient><linearGradient
       id="Gradient_1"
       gradientUnits="userSpaceOnUse"
       x1="51"
       y1="72.5"
       x2="51"
       y2="62"
       spreadMethod="pad"><stop
         offset="0%"
         stop-color="#D7D7D7"
         id="stop33" /><stop
         offset="100%"
         stop-color="#313131"
         id="stop34" /></linearGradient><linearGradient
       id="Gradient_2"
       gradientUnits="userSpaceOnUse"
       x1="51"
       y1="57.512501"
       x2="51"
       y2="70.987503"
       spreadMethod="pad"><stop
         offset="0%"
         stop-color="#4F4F4F"
         id="stop35" /><stop
         offset="100%"
         stop-color="#F5F5F5"
         id="stop36" /></linearGradient><linearGradient
       id="Gradient_3"
       gradientUnits="userSpaceOnUse"
       x1="50.5"
       y1="67.737503"
       x2="50.5"
       y2="59.762501"
       spreadMethod="pad"><stop
         offset="0%"
         stop-color="#FFFFFF"
         id="stop41" /><stop
         offset="100%"
         stop-color="#626262"
         id="stop42" /></linearGradient><linearGradient
       id="Gradient_4"
       gradientUnits="userSpaceOnUse"
       x1="51"
       y1="79.487503"
       x2="51"
       y2="67.512497"
       spreadMethod="pad"><stop
         offset="0%"
         stop-color="#404040"
         id="stop45" /><stop
         offset="100%"
         stop-color="#1B1B1B"
         id="stop46" /></linearGradient><linearGradient
       id="Gradient_5"
       gradientUnits="userSpaceOnUse"
       x1="27.5"
       y1="51"
       x2="38"
       y2="51"
       spreadMethod="pad"><stop
         offset="0%"
         stop-color="#D7D7D7"
         id="stop49" /><stop
         offset="100%"
         stop-color="#313131"
         id="stop50" /></linearGradient><linearGradient
       id="Gradient_6"
       gradientUnits="userSpaceOnUse"
       x1="42.487499"
       y1="51"
       x2="29.012501"
       y2="51"
       spreadMethod="pad"><stop
         offset="0%"
         stop-color="#4F4F4F"
         id="stop51" /><stop
         offset="100%"
         stop-color="#F5F5F5"
         id="stop52" /></linearGradient><linearGradient
       id="Gradient_7"
       gradientUnits="userSpaceOnUse"
       x1="32.262501"
       y1="50.5"
       x2="40.237499"
       y2="50.5"
       spreadMethod="pad"><stop
         offset="0%"
         stop-color="#FFFFFF"
         id="stop57" /><stop
         offset="100%"
         stop-color="#626262"
         id="stop58" /></linearGradient><linearGradient
       id="Gradient_8"
       gradientUnits="userSpaceOnUse"
       x1="20.512501"
       y1="51"
       x2="32.487499"
       y2="51"
       spreadMethod="pad"><stop
         offset="0%"
         stop-color="#404040"
         id="stop61" /><stop
         offset="100%"
         stop-color="#1B1B1B"
         id="stop62" /></linearGradient><linearGradient
       id="Gradient_1-9"
       gradientUnits="userSpaceOnUse"
       x1="146.75"
       y1="55.6875"
       x2="146.75"
       y2="2.8125"
       spreadMethod="pad"><stop
         offset="0%"
         stop-color="#616161"
         id="stop1" /><stop
         offset="95.29411764705883%"
         stop-color="#353535"
         id="stop2" /></linearGradient><linearGradient
       inkscape:collect="always"
       xlink:href="#Gradient_1"
       id="linearGradient111"
       gradientUnits="userSpaceOnUse"
       x1="51"
       y1="72.5"
       x2="51"
       y2="62"
       spreadMethod="pad" /><linearGradient
       inkscape:collect="always"
       xlink:href="#Gradient_1"
       id="linearGradient112"
       gradientUnits="userSpaceOnUse"
       x1="51"
       y1="72.5"
       x2="51"
       y2="62"
       spreadMethod="pad" /><linearGradient
       inkscape:collect="always"
       xlink:href="#Gradient_2"
       id="linearGradient113"
       gradientUnits="userSpaceOnUse"
       x1="51"
       y1="57.512501"
       x2="51"
       y2="70.987503"
       spreadMethod="pad" /><linearGradient
       inkscape:collect="always"
       xlink:href="#Gradient_3"
       id="linearGradient114"
       gradientUnits="userSpaceOnUse"
       x1="50.5"
       y1="67.737503"
       x2="50.5"
       y2="59.762501"
       spreadMethod="pad" /><linearGradient
       inkscape:collect="always"
       xlink:href="#Gradient_4"
       id="linearGradient115"
       gradientUnits="userSpaceOnUse"
       x1="51"
       y1="79.487503"
       x2="51"
       y2="67.512497"
       spreadMethod="pad" /><linearGradient
       inkscape:collect="always"
       xlink:href="#Gradient_5"
       id="linearGradient116"
       gradientUnits="userSpaceOnUse"
       x1="27.5"
       y1="51"
       x2="38"
       y2="51"
       spreadMethod="pad" /><linearGradient
       inkscape:collect="always"
       xlink:href="#Gradient_6"
       id="linearGradient117"
       gradientUnits="userSpaceOnUse"
       x1="42.487499"
       y1="51"
       x2="29.012501"
       y2="51"
       spreadMethod="pad" /><linearGradient
       inkscape:collect="always"
       xlink:href="#Gradient_7"
       id="linearGradient118"
       gradientUnits="userSpaceOnUse"
       x1="32.262501"
       y1="50.5"
       x2="40.237499"
       y2="50.5"
       spreadMethod="pad" /><linearGradient
       inkscape:collect="always"
       xlink:href="#Gradient_8"
       id="linearGradient119"
       gradientUnits="userSpaceOnUse"
       x1="20.512501"
       y1="51"
       x2="32.487499"
       y2="51"
       spreadMethod="pad" /><linearGradient
       inkscape:collect="always"
       xlink:href="#Gradient_9"
       id="linearGradient120"
       gradientUnits="userSpaceOnUse"
       x1="49"
       y1="27.5"
       x2="49"
       y2="38"
       spreadMethod="pad" /><linearGradient
       inkscape:collect="always"
       xlink:href="#Gradient_10"
       id="linearGradient121"
       gradientUnits="userSpaceOnUse"
       x1="49"
       y1="42.487499"
       x2="49"
       y2="29.012501"
       spreadMethod="pad" /><linearGradient
       inkscape:collect="always"
       xlink:href="#Gradient_11"
       id="linearGradient122"
       gradientUnits="userSpaceOnUse"
       x1="49.5"
       y1="32.262501"
       x2="49.5"
       y2="40.237499"
       spreadMethod="pad" /><linearGradient
       inkscape:collect="always"
       xlink:href="#Gradient_12"
       id="linearGradient123"
       gradientUnits="userSpaceOnUse"
       x1="49"
       y1="20.512501"
       x2="49"
       y2="32.487499"
       spreadMethod="pad" /><linearGradient
       inkscape:collect="always"
       xlink:href="#Gradient_13"
       id="linearGradient124"
       gradientUnits="userSpaceOnUse"
       x1="72.5"
       y1="49"
       x2="62"
       y2="49"
       spreadMethod="pad" /><linearGradient
       inkscape:collect="always"
       xlink:href="#Gradient_14"
       id="linearGradient125"
       gradientUnits="userSpaceOnUse"
       x1="57.512501"
       y1="49"
       x2="70.987503"
       y2="49"
       spreadMethod="pad" /><linearGradient
       inkscape:collect="always"
       xlink:href="#Gradient_15"
       id="linearGradient126"
       gradientUnits="userSpaceOnUse"
       x1="67.737503"
       y1="49.5"
       x2="59.762501"
       y2="49.5"
       spreadMethod="pad" /><linearGradient
       inkscape:collect="always"
       xlink:href="#Gradient_16"
       id="linearGradient127"
       gradientUnits="userSpaceOnUse"
       x1="79.487503"
       y1="49"
       x2="67.512497"
       y2="49"
       spreadMethod="pad" /></defs><g
     inkscape:label="Capa 1"
     inkscape:groupmode="layer"
     id="layer1"><g
       transform="matrix(0.2917126,0,0,0.2917126,-115.41773,162.7395)"
       id="g121-8-9" /><g
       id="g149"
       transform="translate(-456.87935,-481.2994)"><path
         fill="#1b1b1b"
         stroke="none"
         d="m 491.86225,560.34534 h -0.0164 c 2.57439,-2.57439 5.69419,-3.86158 9.35941,-3.86158 3.65432,0 6.77958,1.28719 9.37578,3.86158 2.57438,2.58529 3.86157,5.70511 3.86157,9.35942 0,3.65432 -1.28719,6.77412 -3.86157,9.35941 v 0.0164 c -2.5962,2.57438 -5.72146,3.86157 -9.37578,3.86157 -3.65431,0 -6.76866,-1.28719 -9.34304,-3.86157 l -0.0164,-0.0164 c -2.58529,-2.58529 -3.87793,-5.70509 -3.87793,-9.35941 0,-3.66522 1.2981,-6.78503 3.8943,-9.35942"
         id="path163-8-2-5"
         style="stroke-width:0.327252"
         sodipodi:nodetypes="ccscsccssssc" /><path
         fill="#313131"
         stroke="none"
         d="m 492.77855,561.27802 c 2.32349,-2.32349 5.13241,-3.48523 8.42674,-3.48523 3.29434,0 6.10871,1.15628 8.44311,3.46887 l 0.0164,0.0164 c 2.31258,2.32349 3.46887,5.13242 3.46887,8.42676 0,3.29432 -1.15629,6.1087 -3.46887,8.44309 h -0.0164 c -2.3344,2.32349 -5.14877,3.48523 -8.44311,3.48523 -3.29433,0 -6.10325,-1.16174 -8.42674,-3.48523 -2.33439,-2.33439 -3.50159,-5.14877 -3.50159,-8.44309 0,-3.29436 1.1672,-6.10327 3.50159,-8.42676"
         id="path164-0-4-8"
         style="stroke-width:0.327252"
         sodipodi:nodetypes="cssssccsssc" /><path
         fill="#626262"
         stroke="none"
         d="m 494.02211,562.52157 h 0.0164 c 1.98533,-1.97442 4.37427,-2.96163 7.16682,-2.96163 2.80346,0 5.19786,0.98721 7.18319,2.96163 1.97442,1.98533 2.96163,4.37974 2.96163,7.18319 0,2.79256 -0.98721,5.1815 -2.96163,7.16683 v 0.0164 c -1.97442,1.97442 -4.36882,2.96163 -7.18319,2.96163 -5.66835,0 -10.14481,-4.47649 -10.14481,-10.14481 0,-2.81438 0.98721,-5.20877 2.96163,-7.18319"
         id="path165-0-5-2"
         style="stroke-width:0.327252"
         sodipodi:nodetypes="ccscsccssc" /><path
         fill="#4f4f4f"
         stroke="none"
         d="m 494.95478,563.45424 c 1.72353,-1.72353 3.80703,-2.58529 6.25051,-2.58529 2.44349,0 4.52699,0.85632 6.25052,2.56894 l 0.0164,0.0164 c 1.71262,1.72352 2.56893,3.80702 2.56893,6.25052 0,2.44347 -0.86176,4.52697 -2.58529,6.2505 -1.72353,1.72353 -3.80703,2.58529 -6.25052,2.58529 -2.43257,0 -4.51608,-0.86176 -6.25051,-2.58529 -1.72353,-1.73443 -2.58529,-3.81793 -2.58529,-6.2505 0,-2.4435 0.86176,-4.527 2.58529,-6.25052"
         id="path166-1-1-7"
         style="stroke-width:0.327252"
         sodipodi:nodetypes="csssssscsc" /><path
         fill="#c3c3c3"
         stroke="none"
         d="m 501.20533,567.87214 -2.22531,-3.64886 h -2.87982 l 3.43615,4.97423 -3.64886,5.44875 h 2.73255 l 2.47076,-4.20519 2.5362,4.20519 h 2.89618 l -3.77976,-5.49783 3.3707,-4.92515 h -2.78165 z"
         id="path120-7-5"
         style="stroke-width:0.327252" /></g><g
       id="g150"
       transform="translate(-515.99808,-481.2994)"><path
         fill="#1b1b1b"
         stroke="none"
         d="m 521.34765,560.34534 h -0.0164 c 2.57439,-2.57439 5.69419,-3.86158 9.35941,-3.86158 3.65432,0 6.77958,1.28719 9.37578,3.86158 2.57438,2.58529 3.86157,5.70511 3.86157,9.35942 0,3.65432 -1.28719,6.77412 -3.86157,9.35941 v 0.0164 c -2.5962,2.57438 -5.72146,3.86157 -9.37578,3.86157 -3.65431,0 -6.76866,-1.28719 -9.34304,-3.86157 l -0.0164,-0.0164 c -2.58529,-2.58529 -3.87793,-5.70509 -3.87793,-9.35941 0,-3.66522 1.2981,-6.78503 3.8943,-9.35942"
         id="path163-8-90"
         style="stroke-width:0.327252"
         sodipodi:nodetypes="ccscsccssssc" /><path
         fill="#313131"
         stroke="none"
         d="m 522.26395,561.27802 c 2.32349,-2.32349 5.13241,-3.48523 8.42674,-3.48523 3.29434,0 6.10871,1.15628 8.44311,3.46887 l 0.0164,0.0164 c 2.31258,2.32349 3.46887,5.13242 3.46887,8.42676 0,3.29432 -1.15629,6.1087 -3.46887,8.44309 h -0.0164 c -2.3344,2.32349 -5.14877,3.48523 -8.44311,3.48523 -3.29433,0 -6.10325,-1.16174 -8.42674,-3.48523 -2.33439,-2.33439 -3.50159,-5.14877 -3.50159,-8.44309 0,-3.29436 1.1672,-6.10327 3.50159,-8.42676"
         id="path164-0-5"
         style="stroke-width:0.327252"
         sodipodi:nodetypes="cssssccsssc" /><path
         fill="#626262"
         stroke="none"
         d="m 523.50751,562.52157 h 0.0164 c 1.98533,-1.97442 4.37427,-2.96163 7.16682,-2.96163 2.80346,0 5.19786,0.98721 7.18319,2.96163 1.97442,1.98533 2.96163,4.37974 2.96163,7.18319 0,2.79256 -0.98721,5.1815 -2.96163,7.16683 v 0.0164 c -1.97442,1.97442 -4.36882,2.96163 -7.18319,2.96163 -5.66835,0 -10.14481,-4.47649 -10.14481,-10.14481 0,-2.81438 0.98721,-5.20877 2.96163,-7.18319"
         id="path165-0-9"
         style="stroke-width:0.327252"
         sodipodi:nodetypes="ccscsccssc" /><path
         fill="#4f4f4f"
         stroke="none"
         d="m 524.44018,563.45424 c 1.72353,-1.72353 3.80703,-2.58529 6.25051,-2.58529 2.44349,0 4.52699,0.85632 6.25052,2.56894 l 0.0164,0.0164 c 1.71262,1.72352 2.56893,3.80702 2.56893,6.25052 0,2.44347 -0.86176,4.52697 -2.58529,6.2505 -1.72353,1.72353 -3.80703,2.58529 -6.25052,2.58529 -2.43257,0 -4.51608,-0.86176 -6.25051,-2.58529 -1.72353,-1.73443 -2.58529,-3.81793 -2.58529,-6.2505 0,-2.4435 0.86176,-4.527 2.58529,-6.25052"
         id="path166-1-4"
         style="stroke-width:0.327252"
         sodipodi:nodetypes="csssssscsc" /><path
         fill="#c3c3c3"
         stroke="none"
         d="m 530.69061,568.65755 -2.20895,-3.8943 h -2.86346 l 3.91066,5.97235 v 4.45063 h 2.30713 v -4.45063 l 3.91066,-5.97235 h -2.71619 z"
         id="path115-4-1"
         style="stroke-width:0.327252" /></g><g
       id="g152"
       transform="translate(-516.14551,-481.2994)"><path
         fill="#1b1b1b"
         stroke="none"
         d="m 580.76175,560.34534 h -0.0164 c 2.57439,-2.57439 5.69419,-3.86158 9.35941,-3.86158 3.65432,0 6.77958,1.28719 9.37578,3.86158 2.57438,2.58529 3.86157,5.7051 3.86157,9.35942 0,3.65431 -1.28719,6.77412 -3.86157,9.35941 v 0.0164 c -2.5962,2.57438 -5.72146,3.86157 -9.37578,3.86157 -3.65431,0 -6.76866,-1.28719 -9.34304,-3.86157 l -0.0164,-0.0164 c -2.58529,-2.58529 -3.87793,-5.7051 -3.87793,-9.35941 0,-3.66523 1.2981,-6.78503 3.8943,-9.35942"
         id="path163-8-9-7"
         style="stroke-width:0.327252"
         sodipodi:nodetypes="ccscsccssssc" /><path
         fill="#313131"
         stroke="none"
         d="m 581.67805,561.27801 c 2.32349,-2.32349 5.13241,-3.48523 8.42674,-3.48523 3.29434,0 6.10871,1.15629 8.44311,3.46887 l 0.0164,0.0164 c 2.31258,2.32349 3.46887,5.13241 3.46887,8.42675 0,3.29432 -1.15629,6.1087 -3.46887,8.44309 h -0.0164 c -2.3344,2.32349 -5.14877,3.48523 -8.44311,3.48523 -3.29433,0 -6.10325,-1.16174 -8.42674,-3.48523 -2.33439,-2.33439 -3.50159,-5.14877 -3.50159,-8.44309 0,-3.29435 1.1672,-6.10326 3.50159,-8.42675"
         id="path164-0-2-0"
         style="stroke-width:0.327252"
         sodipodi:nodetypes="cssssccsssc" /><path
         fill="#626262"
         stroke="none"
         d="m 582.92161,562.52157 h 0.0164 c 1.98533,-1.97442 4.37427,-2.96163 7.16682,-2.96163 2.80346,0 5.19786,0.98721 7.18319,2.96163 1.97442,1.98533 2.96163,4.37973 2.96163,7.18319 0,2.79255 -0.98721,5.18149 -2.96163,7.16682 v 0.0164 c -1.97442,1.97442 -4.36882,2.96163 -7.18319,2.96163 -5.66835,0 -10.14481,-4.47649 -10.14481,-10.14481 0,-2.81438 0.98721,-5.20877 2.96163,-7.18319"
         id="path165-0-0-7"
         style="stroke-width:0.327252"
         sodipodi:nodetypes="ccscsccssc" /><path
         fill="#4f4f4f"
         stroke="none"
         d="m 583.85428,563.45424 c 1.72353,-1.72353 3.80703,-2.58529 6.25051,-2.58529 2.44349,0 4.52699,0.85631 6.25052,2.56893 l 0.0164,0.0164 c 1.71262,1.72353 2.56893,3.80703 2.56893,6.25052 0,2.44348 -0.86176,4.52698 -2.58529,6.25051 -1.72353,1.72353 -3.80703,2.58529 -6.25052,2.58529 -2.43257,0 -4.51608,-0.86176 -6.25051,-2.58529 -1.72353,-1.73443 -2.58529,-3.81794 -2.58529,-6.25051 0,-2.44349 0.86176,-4.52699 2.58529,-6.25052"
         id="path166-1-0-5"
         style="stroke-width:0.327252"
         sodipodi:nodetypes="csssssscsc" /><path
         fill="#c3c3c3"
         stroke="none"
         d="m 592.49371,564.6978 q -0.53997,-0.27817 -1.24356,-0.37634 -0.67086,-0.0982 -1.35809,-0.0982 h -3.87794 v 10.42298 h 4.27064 q 0.68723,0 1.37446,-0.14726 0.70359,-0.14726 1.25992,-0.49088 0.57269,-0.32725 0.9163,-0.88358 0.35998,-0.55633 0.35998,-1.37446 0,-0.50724 -0.16362,-0.94903 -0.16363,-0.44179 -0.47452,-0.76904 -0.29453,-0.32725 -0.70359,-0.55633 -0.42543,-0.19635 -0.93267,-0.27817 v -0.0327 q 0.80177,-0.24544 1.29264,-0.81813 0.49088,-0.58905 0.49088,-1.47264 0,-0.85085 -0.32725,-1.37445 -0.34361,-0.50724 -0.88358,-0.80177 m -4.18883,3.69795 v -2.24168 h 1.57081 q 0.2618,0 0.53997,0.0654 0.27816,0.0491 0.49088,0.16363 0.22907,0.11453 0.37634,0.32725 0.1309,0.21271 0.1309,0.53996 0,0.31089 -0.11454,0.53997 -0.1309,0.21271 -0.34361,0.34362 -0.19636,0.14726 -0.45816,0.19635 -0.2618,0.0655 -0.5236,0.0655 h -1.66899 m 3.40343,2.48711 q 0.19635,0.22908 0.19635,0.60542 0,0.32725 -0.14727,0.57269 -0.14726,0.22908 -0.35997,0.37634 -0.21272,0.14726 -0.49088,0.21271 -0.27817,0.0491 -0.53997,0.0491 h -2.06169 v -2.37258 h 1.73444 q 0.27816,0 0.60542,0.0491 0.32725,0.0491 0.60541,0.16363 0.27817,0.11454 0.45816,0.34361 z"
         id="path130-4-9"
         style="stroke-width:0.327252" /></g><g
       id="g151"
       transform="translate(-457.42038,-481.2994)"><path
         fill="#1b1b1b"
         stroke="none"
         d="m 551.66995,560.34534 h -0.0164 c 2.57439,-2.57439 5.69419,-3.86158 9.35941,-3.86158 3.65432,0 6.77958,1.28719 9.37578,3.86158 2.57438,2.58529 3.86157,5.7051 3.86157,9.35942 0,3.65431 -1.28719,6.77412 -3.86157,9.35941 v 0.0164 c -2.5962,2.57438 -5.72146,3.86157 -9.37578,3.86157 -3.65431,0 -6.76866,-1.28719 -9.34304,-3.86157 l -0.0164,-0.0164 c -2.58529,-2.58529 -3.87793,-5.7051 -3.87793,-9.35941 0,-3.66523 1.2981,-6.78503 3.8943,-9.35942"
         id="path163-8-5-0"
         style="stroke-width:0.327252"
         sodipodi:nodetypes="ccscsccssssc" /><path
         fill="#313131"
         stroke="none"
         d="m 552.58625,561.27801 c 2.32349,-2.32349 5.13241,-3.48523 8.42674,-3.48523 3.29434,0 6.10871,1.15629 8.44311,3.46887 l 0.0164,0.0164 c 2.31258,2.32349 3.46887,5.13241 3.46887,8.42675 0,3.29432 -1.15629,6.1087 -3.46887,8.44309 h -0.0164 c -2.3344,2.32349 -5.14877,3.48523 -8.44311,3.48523 -3.29433,0 -6.10325,-1.16174 -8.42674,-3.48523 -2.33439,-2.33439 -3.50159,-5.14877 -3.50159,-8.44309 0,-3.29435 1.1672,-6.10326 3.50159,-8.42675"
         id="path164-0-9-0"
         style="stroke-width:0.327252"
         sodipodi:nodetypes="cssssccsssc" /><path
         fill="#626262"
         stroke="none"
         d="m 553.82981,562.52157 h 0.0164 c 1.98533,-1.97442 4.37427,-2.96163 7.16682,-2.96163 2.80346,0 5.19786,0.98721 7.18319,2.96163 1.97442,1.98533 2.96163,4.37973 2.96163,7.18319 0,2.79255 -0.98721,5.18149 -2.96163,7.16682 v 0.0164 c -1.97442,1.97442 -4.36882,2.96163 -7.18319,2.96163 -5.66835,0 -10.14481,-4.47649 -10.14481,-10.14481 0,-2.81438 0.98721,-5.20877 2.96163,-7.18319"
         id="path165-0-2-9"
         style="stroke-width:0.327252"
         sodipodi:nodetypes="ccscsccssc" /><path
         fill="#4f4f4f"
         stroke="none"
         d="m 554.76248,563.45424 c 1.72353,-1.72353 3.80703,-2.58529 6.25051,-2.58529 2.44349,0 4.52699,0.85631 6.25052,2.56893 l 0.0164,0.0164 c 1.71262,1.72353 2.56893,3.80703 2.56893,6.25052 0,2.44348 -0.86176,4.52698 -2.58529,6.25051 -1.72353,1.72353 -3.80703,2.58529 -6.25052,2.58529 -2.43257,0 -4.51608,-0.86176 -6.25051,-2.58529 -1.72353,-1.73443 -2.58529,-3.81794 -2.58529,-6.25051 0,-2.44349 0.86176,-4.52699 2.58529,-6.25052"
         id="path166-1-9-3"
         style="stroke-width:0.327252"
         sodipodi:nodetypes="csssssscsc" /><path
         fill="#c3c3c3"
         stroke="none"
         d="m 561.9619,563.68332 h -1.89806 l -4.51608,10.42298 h 2.53621 l 0.86721,-2.20896 h 4.04157 l 0.89994,2.20896 h 2.60166 l -4.53245,-10.42298 m 0.26181,6.26687 h -2.55257 l 1.27628,-3.23979 z"
         id="path125-2-8"
         style="stroke-width:0.327252" /></g><g
       transform="matrix(0.34227574,0,0,0.34227574,6.0041908,101.27356)"
       id="g91-5-8"><g
         id="use90-4-1"><path
           fill="#353535"
           stroke="none"
           d="m 84.85,78.4 c 2.106771,-1.681771 3.090104,-3.681771 2.95,-6 -0.107161,-1.842448 -0.940495,-3.892448 -2.5,-6.15 -2.9,-4.133333 -5.6,-10.8 -8.1,-20 -2.5,-9.233333 -3.616667,-19.333333 -3.35,-30.3 -13.966667,-3.4 -28.45,-4 -43.45,-1.8 -0.169531,0.06003 -0.336198,0.110027 -0.5,0.15 -7.204167,2.639844 -13.0375,6.239844 -17.5,10.8 0.9,12.366667 3.133333,23.566667 6.7,33.6 3.533333,10.066667 10.116667,17.866667 19.75,23.4 3.5,2.066667 8.583333,3.05 15.25,2.95 13.133333,0.633333 23.383333,-1.583333 30.75,-6.65"
           id="path3-8-0"
           sodipodi:nodetypes="cccccccccccc" /><path
           fill="url(#Gradient_1)"
           stroke="none"
           d="m 28,21.6 q -0.780469,0.714062 -0.85,1.75 -1.062891,17.277148 1.45,36.05 v 0.05 q 0.183008,1.185352 0.45,2.4 0.08555,0.408398 0.25,0.7 2.819141,8.773437 10.15,12.9 H 39.4 Q 46.474023,79.471484 54.75,77 55.033789,76.935156 55.3,76.85 53.426953,76.817969 51.75,76.6 50.481445,76.470117 49.3,76.2 49.17168,76.193164 49,76.15 44.799609,75.22793 42.15,73 36.238086,68.089258 34,61.3 34.0033,61.073828 33.95,60.8 33.719531,59.777344 33.55,58.75 31.112695,40.472656 32.15,23.65 32.21231,22.625977 31.5,21.85 30.83418,21.06875 29.8,21 28.774219,20.936719 28,21.6 Z"
           id="path13-3-0"
           style="fill:url(#linearGradient111)" /><path
           fill="#999999"
           stroke="none"
           d="m 54.7,39.2 h 5 l 3.1,13.1 h 3.85 l -3.1,-13.1 h 5 l -0.8,-3.15 H 53.9 l 0.8,3.15 m -5.45,-2.9 q -1.2,-0.25 -2.55,-0.25 h -6.8 l 3.9,16.25 h 3.9 l -1.55,-6.5 h 1.9 l 5.2,6.5 h 4.65 l -6.15,-6.85 q 1.8,-0.3 2.45,-1.55 0.7,-1.2 0.3,-2.9 -0.4,-1.45 -1.15,-2.45 -0.7,-0.9 -1.75,-1.45 -1.05,-0.65 -2.35,-0.8 m -0.5,6.45 q -0.6,0.05 -1.1,0.05 H 45.4 l -0.9,-3.75 h 2.55 q 0.45,0 1.05,0.05 0.55,0.05 1.05,0.3 0.5,0.25 0.8,0.55 0.35,0.4 0.55,1 0.15,0.7 -0.1,1 -0.2,0.4 -0.65,0.55 -0.4,0.2 -1,0.25 z"
           id="path14-2-2" /></g><path
         id="use91-0-6"
         stroke="#2a2a2a"
         stroke-width="5"
         stroke-linejoin="round"
         stroke-linecap="round"
         fill="none"
         d="m 73.85,15.95 q -0.4,16.45 3.35,30.3 3.75,13.8 8.1,20 2.339258,3.386328 2.5,6.175 0.210156,3.452344 -2.95,5.975 Q 73.8,86 54.1,85.05 44.1,85.2 38.85,82.1 24.4,73.8 19.1,58.7 13.75,43.65 12.4,25.1 q 6.69375,-6.840234 17.5,-10.775 0.245703,-0.08496 0.5,-0.175 22.5,-3.3 43.45,1.8 z" /></g><g
       transform="matrix(0.2917126,0,0,0.2917126,0.10693787,44.19457)"
       id="g121-8-4-2-2"><g
         id="use116-4-6-4-9"><path
           fill="url(#Gradient_1)"
           stroke="none"
           d="M 92.85,40.2 Q 92.25,35.85 87.5,34.85 H 65.15 V 12.5 Q 64.15,7.75 59.8,7.15 H 40.2 q -4.25,0.7 -5.35,5.35 V 34.85 H 12.5 q -4.75,1 -5.35,5.35 v 19.6 q 0.7,4.25 5.35,5.35 H 34.85 V 87.5 q 1.1,4.65 5.35,5.35 h 19.6 q 4.35,-0.6 5.35,-5.35 V 65.15 H 87.5 q 4.65,-1.1 5.35,-5.35 V 40.2 m -7.5,2.15 v 15.3 h -20.2 q -3.1,0 -5.3,2.2 -2.2,2.2 -2.2,5.3 v 20.2 h -15.3 v -20.2 q 0,-3.1 -2.2,-5.3 -2.2,-2.2 -5.3,-2.2 h -20.2 v -15.3 h 20.2 q 3.1,0 5.3,-2.2 2.2,-2.2 2.2,-5.3 v -20.2 h 15.3 v 20.2 q 0,3.1 2.2,5.3 2.2,2.2 5.3,2.2 z"
           id="path75-9-9-4-2"
           style="fill:url(#linearGradient112)" /><path
           fill="url(#Gradient_2)"
           stroke="none"
           d="m 85.35,57.65 v -15.3 h -20.2 q -3.1,0 -5.3,-2.2 -2.2,-2.2 -2.2,-5.3 v -20.2 h -15.3 v 20.2 q 0,3.1 -2.2,5.3 -2.2,2.2 -5.3,2.2 h -20.2 v 15.3 h 20.2 q 3.1,0 5.3,2.2 2.2,2.2 2.2,5.3 v 20.2 h 15.3 v -20.2 q 0,-3.1 2.2,-5.3 2.2,-2.2 5.3,-2.2 h 20.2 M 50,21.9 V 30.25 21.9 M 21.65,50 H 30 21.65 m 47.9,0 H 77.9 69.55 M 50,69.8 v 8.35 z"
           id="path76-1-0-0-5"
           style="fill:url(#linearGradient113)" /></g><path
         id="use117-1-4-4-4"
         stroke="#1b1b1b"
         stroke-width="5"
         stroke-linejoin="round"
         stroke-linecap="round"
         fill="none"
         d="M 34.85,65.15 H 12.5 Q 7.85,64.05 7.15,59.8 V 40.2 q 0.6,-4.35 5.35,-5.35 H 34.85 V 12.5 q 1.1,-4.65 5.35,-5.35 h 19.6 q 4.35,0.6 5.35,5.35 V 34.85 H 87.5 q 4.75,1 5.35,5.35 v 19.6 q -0.7,4.25 -5.35,5.35 H 65.15" /><path
         id="use118-0-6-0-9"
         stroke="url(#Gradient_3)"
         stroke-width="4"
         stroke-linejoin="round"
         stroke-linecap="round"
         fill="none"
         d="m 85.35,42.35 v 15.3 h -20.2 q -3.1,0 -5.3,2.2 -2.2,2.2 -2.2,5.3 v 20.2 h -15.3 v -20.2 q 0,-3.1 -2.2,-5.3 -2.2,-2.2 -5.3,-2.2 h -20.2 v -15.3 h 20.2 q 3.1,0 5.3,-2.2 2.2,-2.2 2.2,-5.3 v -20.2 h 15.3 v 20.2 q 0,3.1 2.2,5.3 2.2,2.2 5.3,2.2 z"
         style="stroke:url(#linearGradient114)" /><path
         id="use119-7-4-6-9"
         stroke="url(#Gradient_4)"
         stroke-width="5"
         stroke-linejoin="round"
         stroke-linecap="round"
         fill="none"
         d="M 65.15,65.15 V 87.5 q -1,4.75 -5.35,5.35 H 40.2 Q 35.95,92.15 34.85,87.5 V 65.15"
         style="stroke:url(#linearGradient115)" /><path
         id="use120-9-2-7-2"
         stroke="#313131"
         stroke-width="5"
         stroke-linejoin="round"
         stroke-linecap="round"
         fill="none"
         d="m 50,21.9 v 8.35 M 21.65,50 H 30 m 39.55,0 h 8.35" /><path
         id="use121-4-1-5-8"
         stroke="#ffffff"
         stroke-width="5"
         stroke-linejoin="round"
         stroke-linecap="round"
         fill="none"
         d="m 50,69.8 v 8.35" /></g><g
       transform="matrix(0.2917126,0,0,0.2917126,103.81543,103.46124)"
       id="g127-4-5-9-1"><g
         id="use122-1-9-4-3"><path
           fill="url(#Gradient_5)"
           stroke="none"
           d="M 92.85,40.2 Q 92.15,35.95 87.5,34.85 H 65.15 V 12.5 Q 64.15,7.75 59.8,7.15 H 40.2 q -4.25,0.7 -5.35,5.35 V 34.85 H 12.5 q -4.65,1.1 -5.35,5.35 v 19.6 q 0.6,4.35 5.35,5.35 H 34.85 V 87.5 q 1.1,4.65 5.35,5.35 h 19.6 q 4.35,-0.6 5.35,-5.35 V 65.15 H 87.5 q 4.75,-1 5.35,-5.35 V 40.2 m -7.5,2.15 v 15.3 h -20.2 q -3.1,0 -5.3,2.2 -2.2,2.2 -2.2,5.3 v 20.2 h -15.3 v -20.2 q 0,-3.1 -2.2,-5.3 -2.2,-2.2 -5.3,-2.2 h -20.2 v -15.3 h 20.2 q 3.1,0 5.3,-2.2 2.2,-2.2 2.2,-5.3 v -20.2 h 15.3 v 20.2 q 0,3.1 2.2,5.3 2.2,2.2 5.3,2.2 z"
           id="path77-7-2-3-7"
           style="fill:url(#linearGradient116)" /><path
           fill="url(#Gradient_6)"
           stroke="none"
           d="m 85.35,57.65 v -15.3 h -20.2 q -3.1,0 -5.3,-2.2 -2.2,-2.2 -2.2,-5.3 v -20.2 h -15.3 v 20.2 q 0,3.1 -2.2,5.3 -2.2,2.2 -5.3,2.2 h -20.2 v 15.3 h 20.2 q 3.1,0 5.3,2.2 2.2,2.2 2.2,5.3 v 20.2 h 15.3 v -20.2 q 0,-3.1 2.2,-5.3 2.2,-2.2 5.3,-2.2 h 20.2 M 50,21.9 V 30.25 21.9 M 21.65,50 H 30 21.65 m 47.9,0 H 77.9 69.55 M 50,69.8 v 8.35 z"
           id="path78-8-9-6-4"
           style="fill:url(#linearGradient117)" /></g><path
         id="use123-6-5-5-2"
         stroke="#1b1b1b"
         stroke-width="5"
         stroke-linejoin="round"
         stroke-linecap="round"
         fill="none"
         d="M 34.85,34.85 V 12.5 q 1.1,-4.65 5.35,-5.35 h 19.6 q 4.35,0.6 5.35,5.35 V 34.85 H 87.5 q 4.65,1.1 5.35,5.35 v 19.6 q -0.6,4.35 -5.35,5.35 H 65.15 V 87.5 q -1,4.75 -5.35,5.35 H 40.2 Q 35.95,92.15 34.85,87.5 V 65.15" /><path
         id="use124-6-4-5-1"
         stroke="url(#Gradient_7)"
         stroke-width="4"
         stroke-linejoin="round"
         stroke-linecap="round"
         fill="none"
         d="m 85.35,42.35 v 15.3 h -20.2 q -3.1,0 -5.3,2.2 -2.2,2.2 -2.2,5.3 v 20.2 h -15.3 v -20.2 q 0,-3.1 -2.2,-5.3 -2.2,-2.2 -5.3,-2.2 h -20.2 v -15.3 h 20.2 q 3.1,0 5.3,-2.2 2.2,-2.2 2.2,-5.3 v -20.2 h 15.3 v 20.2 q 0,3.1 2.2,5.3 2.2,2.2 5.3,2.2 z"
         style="stroke:url(#linearGradient118)" /><path
         id="use125-1-5-5-0"
         stroke="url(#Gradient_8)"
         stroke-width="5"
         stroke-linejoin="round"
         stroke-linecap="round"
         fill="none"
         d="M 34.85,65.15 H 12.5 Q 7.75,64.15 7.15,59.8 V 40.2 q 0.7,-4.25 5.35,-5.35 h 22.35"
         style="stroke:url(#linearGradient119)" /><path
         id="use126-4-7-5-4"
         stroke="#313131"
         stroke-width="5"
         stroke-linejoin="round"
         stroke-linecap="round"
         fill="none"
         d="m 50,21.9 v 8.35 M 69.55,50 H 77.9 M 50,69.8 v 8.35" /><path
         id="use127-0-7-0-2"
         stroke="#ffffff"
         stroke-width="5"
         stroke-linejoin="round"
         stroke-linecap="round"
         fill="none"
         d="M 21.65,50 H 30" /></g><g
       transform="matrix(0.2917126,0,0,0.2917126,44.548758,103.46124)"
       id="g133-4-4-5-5"><g
         id="use128-0-0-1-9"><path
           fill="url(#Gradient_9)"
           stroke="none"
           d="M 92.85,40.2 Q 92.15,35.95 87.5,34.85 H 65.15 V 12.5 Q 64.05,7.85 59.8,7.15 H 40.2 q -4.35,0.6 -5.35,5.35 V 34.85 H 12.5 q -4.65,1.1 -5.35,5.35 v 19.6 q 0.6,4.35 5.35,5.35 H 34.85 V 87.5 q 1,4.75 5.35,5.35 h 19.6 q 4.25,-0.7 5.35,-5.35 V 65.15 H 87.5 q 4.75,-1 5.35,-5.35 V 40.2 m -7.5,2.15 v 15.3 h -20.2 q -3.1,0 -5.3,2.2 -2.2,2.2 -2.2,5.3 v 20.2 h -15.3 v -20.2 q 0,-3.1 -2.2,-5.3 -2.2,-2.2 -5.3,-2.2 h -20.2 v -15.3 h 20.2 q 3.1,0 5.3,-2.2 2.2,-2.2 2.2,-5.3 v -20.2 h 15.3 v 20.2 q 0,3.1 2.2,5.3 2.2,2.2 5.3,2.2 z"
           id="path73-6-1-2-8"
           style="fill:url(#linearGradient120)" /><path
           fill="url(#Gradient_10)"
           stroke="none"
           d="m 85.35,57.65 v -15.3 h -20.2 q -3.1,0 -5.3,-2.2 -2.2,-2.2 -2.2,-5.3 v -20.2 h -15.3 v 20.2 q 0,3.1 -2.2,5.3 -2.2,2.2 -5.3,2.2 h -20.2 v 15.3 h 20.2 q 3.1,0 5.3,2.2 2.2,2.2 2.2,5.3 v 20.2 h 15.3 v -20.2 q 0,-3.1 2.2,-5.3 2.2,-2.2 5.3,-2.2 h 20.2 M 50,21.9 V 30.25 21.9 M 21.65,50 H 30 21.65 m 47.9,0 H 77.9 69.55 M 50,69.8 v 8.35 z"
           id="path74-6-3-3-3"
           style="fill:url(#linearGradient121)" /></g><path
         id="use129-7-3-3-4"
         stroke="#1b1b1b"
         stroke-width="5"
         stroke-linejoin="round"
         stroke-linecap="round"
         fill="none"
         d="M 65.15,34.85 H 87.5 q 4.65,1.1 5.35,5.35 v 19.6 q -0.6,4.35 -5.35,5.35 H 65.15 V 87.5 q -1.1,4.65 -5.35,5.35 H 40.2 Q 35.85,92.25 34.85,87.5 V 65.15 H 12.5 Q 7.75,64.15 7.15,59.8 V 40.2 q 0.7,-4.25 5.35,-5.35 h 22.35" /><path
         id="use130-7-9-9-5"
         stroke="url(#Gradient_11)"
         stroke-width="4"
         stroke-linejoin="round"
         stroke-linecap="round"
         fill="none"
         d="m 85.35,42.35 v 15.3 h -20.2 q -3.1,0 -5.3,2.2 -2.2,2.2 -2.2,5.3 v 20.2 h -15.3 v -20.2 q 0,-3.1 -2.2,-5.3 -2.2,-2.2 -5.3,-2.2 h -20.2 v -15.3 h 20.2 q 3.1,0 5.3,-2.2 2.2,-2.2 2.2,-5.3 v -20.2 h 15.3 v 20.2 q 0,3.1 2.2,5.3 2.2,2.2 5.3,2.2 z"
         style="stroke:url(#linearGradient122)" /><path
         id="use131-6-0-3-4"
         stroke="url(#Gradient_12)"
         stroke-width="5"
         stroke-linejoin="round"
         stroke-linecap="round"
         fill="none"
         d="M 34.85,34.85 V 12.5 q 1,-4.75 5.35,-5.35 h 19.6 q 4.25,0.7 5.35,5.35 v 22.35"
         style="stroke:url(#linearGradient123)" /><path
         id="use132-0-4-87-8"
         stroke="#313131"
         stroke-width="5"
         stroke-linejoin="round"
         stroke-linecap="round"
         fill="none"
         d="M 21.65,50 H 30 m 39.55,0 H 77.9 M 50,69.8 v 8.35" /><path
         id="use133-0-4-4-8"
         stroke="#ffffff"
         stroke-width="5"
         stroke-linejoin="round"
         stroke-linecap="round"
         fill="none"
         d="m 50,21.9 v 8.35" /></g><g
       transform="matrix(0.2917126,0,0,0.2917126,74.182088,103.46124)"
       id="g139-0-0-0-7"><g
         id="use134-4-4-5-7"><path
           fill="url(#Gradient_13)"
           stroke="none"
           d="M 92.85,40.2 Q 92.25,35.85 87.5,34.85 H 65.15 V 12.5 Q 64.05,7.85 59.8,7.15 H 40.2 q -4.35,0.6 -5.35,5.35 V 34.85 H 12.5 q -4.75,1 -5.35,5.35 v 19.6 q 0.7,4.25 5.35,5.35 H 34.85 V 87.5 q 1,4.75 5.35,5.35 h 19.6 q 4.25,-0.7 5.35,-5.35 V 65.15 H 87.5 q 4.65,-1.1 5.35,-5.35 V 40.2 m -7.5,2.15 v 15.3 h -20.2 q -3.105078,0.0016 -5.3,2.2 -2.198438,2.194922 -2.2,5.3 v 20.2 h -15.3 v -20.2 q -0.0018,-3.105078 -2.2,-5.3 -2.195117,-2.198438 -5.3,-2.2 h -20.2 v -15.3 h 20.2 q 3.104883,-0.0018 5.3,-2.2 2.198242,-2.195117 2.2,-5.3 v -20.2 h 15.3 v 20.2 q 0.0016,3.104883 2.2,5.3 2.194922,2.198242 5.3,2.2 z"
           id="path79-7-6-2-3"
           style="fill:url(#linearGradient124)" /><path
           fill="url(#Gradient_14)"
           stroke="none"
           d="m 85.35,57.65 v -15.3 h -20.2 q -3.105078,-0.0018 -5.3,-2.2 -2.198438,-2.195117 -2.2,-5.3 v -20.2 h -15.3 v 20.2 q -0.0018,3.104883 -2.2,5.3 -2.195117,2.198242 -5.3,2.2 h -20.2 v 15.3 h 20.2 q 3.104883,0.0016 5.3,2.2 2.198242,2.194922 2.2,5.3 v 20.2 h 15.3 v -20.2 q 0.0016,-3.105078 2.2,-5.3 2.194922,-2.198438 5.3,-2.2 h 20.2 M 50,21.9 V 30.25 21.9 M 21.65,50 H 30 21.65 m 47.9,0 H 77.9 69.55 M 50,69.8 v 8.35 z"
           id="path80-3-5-5-3"
           style="fill:url(#linearGradient125)" /></g><path
         id="use135-7-1-7-3"
         stroke="#1b1b1b"
         stroke-width="5"
         stroke-linejoin="round"
         stroke-linecap="round"
         fill="none"
         d="M 65.15,65.15 V 87.5 q -1.1,4.65 -5.35,5.35 H 40.2 Q 35.85,92.25 34.85,87.5 V 65.15 H 12.5 Q 7.85,64.05 7.15,59.8 V 40.2 q 0.6,-4.35 5.35,-5.35 H 34.85 V 12.5 q 1,-4.75 5.35,-5.35 h 19.6 q 4.25,0.7 5.35,5.35 v 22.35" /><path
         id="use136-8-5-6-0"
         stroke="url(#Gradient_15)"
         stroke-width="4"
         stroke-linejoin="round"
         stroke-linecap="round"
         fill="none"
         d="m 85.35,42.35 v 15.3 h -20.2 q -3.105078,0.0016 -5.3,2.2 -2.198438,2.194922 -2.2,5.3 v 20.2 h -15.3 v -20.2 q -0.0018,-3.105078 -2.2,-5.3 -2.195117,-2.198438 -5.3,-2.2 h -20.2 v -15.3 h 20.2 q 3.104883,-0.0018 5.3,-2.2 2.198242,-2.195117 2.2,-5.3 v -20.2 h 15.3 v 20.2 q 0.0016,3.104883 2.2,5.3 2.194922,2.198242 5.3,2.2 z"
         style="stroke:url(#linearGradient126)" /><path
         id="use137-3-6-3-7"
         stroke="url(#Gradient_16)"
         stroke-width="5"
         stroke-linejoin="round"
         stroke-linecap="round"
         fill="none"
         d="M 65.15,34.85 H 87.5 q 4.75,1 5.35,5.35 v 19.6 q -0.7,4.25 -5.35,5.35 H 65.15"
         style="stroke:url(#linearGradient127)" /><path
         id="use138-5-3-4-3"
         stroke="#313131"
         stroke-width="5"
         stroke-linejoin="round"
         stroke-linecap="round"
         fill="none"
         d="m 50,21.9 v 8.35 M 21.65,50 H 30 m 20,19.8 v 8.35" /><path
         id="use139-1-7-5-1"
         stroke="#ffffff"
         stroke-width="5"
         stroke-linejoin="round"
         stroke-linecap="round"
         fill="none"
         d="M 69.55,50 H 77.9" /></g></g></svg>
